<svg width="149" height="134" viewBox="0 0 149 134" fill="none" xmlns="http://www.w3.org/2000/svg">
<g filter="url(#filter0_d_6252_1298)">
<path fill-rule="evenodd" clip-rule="evenodd" d="M144.436 64.6974C145.048 64.2395 144.132 61.8032 143.599 62.1833C143.066 62.5649 143.066 58.3719 143.448 56.4713C143.827 54.5649 143.599 54.7909 142.608 55.783C141.617 56.7736 140.551 53.8795 140.321 53.1163C140.091 52.3546 138.947 50.2221 137.653 50.5259C136.357 50.8327 137.195 48.6973 135.978 48.9291C134.755 49.1537 134.53 47.1724 134.755 45.3467C134.984 43.5165 133.918 44.9651 133.383 44.2063C132.85 43.4417 132.242 44.0522 131.399 44.3575C130.561 44.6642 130.332 42.7592 130.561 41.9931C130.791 41.2329 130.41 40.3171 129.267 39.4805C128.123 38.644 128.047 37.9557 128.123 36.9635C128.201 35.9758 121.645 32.6223 120.197 32.3185C118.747 32.0162 119.969 30.4898 119.357 29.96C118.747 29.4258 118.52 27.443 118.52 25.7684C118.52 24.0939 116.386 23.5597 116.462 22.1874C116.539 20.8166 115.855 19.5222 116.004 17.9959C116.157 16.4739 113.791 16.0953 113.718 15.2573C113.642 14.4178 112.344 15.1795 111.05 15.3336C109.752 15.4862 109.831 13.6546 109.982 11.9037C110.134 10.1528 109.448 7.25719 108.38 6.42064C107.313 5.58409 107.238 2.68552 106.705 2.23055C106.17 1.77118 104.416 3.75542 104.49 4.74314C104.57 5.73379 104.339 6.87707 103.655 7.48614C102.968 8.09668 104.113 10.4581 103.195 11.2976C102.28 12.1356 103.12 15.4862 102.891 17.3912C102.664 19.2947 102.739 21.3523 101.822 22.6483C100.91 23.9427 100.756 26.0018 98.9251 26.6872C97.0969 27.3711 94.6578 25.924 94.7342 24.9334C94.8091 23.9427 92.7504 23.3322 91.6843 23.4863C90.6182 23.6404 90.0073 22.114 88.3304 20.8211C86.652 19.5251 85.3598 21.1234 84.8238 19.6014C84.2908 18.081 83.7577 17.8506 82.536 17.0125C81.3201 16.176 81.699 16.176 82.8414 15.335C83.9853 14.4985 83.7577 13.4301 83.1454 12.4394C82.536 11.4458 83.8326 11.6777 85.3583 10.8367C86.8811 10.0017 85.3583 9.00954 86.5007 8.55311C87.6432 8.09521 86.9604 7.10456 85.7372 6.87561C84.5184 6.64666 84.9002 8.09521 84.442 8.24638C83.9839 8.39901 83.5257 6.34139 83.1439 6.42064C82.7636 6.49549 81.3187 8.47386 80.5536 7.48614C79.79 6.49549 75.5213 5.656 73.8444 5.43146C72.1689 5.19957 71.6359 3.0671 70.6432 3.44722C69.652 3.83174 70.7945 4.51565 71.9384 5.73379C73.0808 6.95339 68.1278 7.78847 66.6799 7.33644C65.2335 6.87707 66.909 8.40194 65.6887 8.32416C64.4685 8.24784 64.2409 10.3788 63.2497 11.4473C62.2585 12.5157 62.9443 13.276 61.8752 13.9613C60.8077 14.6482 60.7343 15.4084 62.028 16.8599C63.3246 18.3085 61.4186 18.3833 60.2732 17.24C59.1322 16.0997 57.9869 16.0997 58.0647 17.3927C58.1396 18.6871 56.6917 18.081 56.9208 16.631C57.1513 15.1824 55.3202 15.8663 55.0177 15.0298C54.7093 14.1918 53.1102 12.821 52.1176 12.8958C51.1278 12.9736 51.1278 14.0406 50.1367 14.0406C49.144 14.0406 48.9164 14.5719 49.0676 15.6403C49.2218 16.7058 47.5449 15.5625 46.3995 15.7166C45.2571 15.8663 46.3995 17.1622 45.7901 17.2386C45.1822 17.3149 45.1822 18.3818 44.1881 18.3818C43.1969 18.3818 43.3525 20.5892 43.5038 21.7325C43.655 22.8743 41.9781 21.1982 40.9884 21.5064C39.9957 21.8117 41.216 22.8009 41.5214 24.0983C41.8268 25.3913 40.9884 25.3149 40.4539 25.8492C39.9208 26.3819 39.0779 24.4006 39.0779 23.2573C39.0779 22.114 37.7843 23.181 36.4142 24.6281C35.0398 26.0752 36.8709 28.2854 36.26 28.6655C35.6521 29.0457 32.9062 31.639 31.307 33.5425C29.7065 35.446 26.2733 34.3071 25.2072 35.22C24.1397 36.1358 22.9972 35.446 21.9297 36.2855C20.8621 37.1235 18.8827 38.7262 18.6536 37.7326C18.4275 36.7434 15.6801 37.508 14.5376 38.7262C13.3937 39.9443 11.5655 41.0098 10.2674 41.0876C8.97229 41.1624 8.97229 43.1423 8.43926 43.6016C7.90622 44.0581 8.056 41.9975 8.056 41.4692C8.056 40.9364 6.8372 42.382 6.30417 43.9818C5.77113 45.5815 7.60078 46.1905 6.45835 47.8666C5.31298 49.5456 4.24543 51.2172 5.84748 53.3526C7.44807 55.4851 8.36143 56.8573 7.82986 57.9213C7.29535 58.9883 6.15292 55.7889 5.77113 56.1734C5.3908 56.5535 7.22046 57.9213 6.76378 58.6097C6.30417 59.2936 4.66393 56.0149 4.32473 56.7795C4.01636 57.4678 7.75203 62.6471 7.83133 64.5492C7.90769 66.4541 10.8798 68.2843 10.7285 71.0273C10.5758 73.7703 13.3218 78.1893 13.7785 78.8747C14.2337 79.5616 12.7094 81.3873 13.0134 83.4464C13.3218 85.5011 12.3291 86.2643 11.034 86.2643C9.73734 86.2643 10.5024 88.3982 11.9459 88.5508C13.3952 88.7035 12.8622 89.6941 14.4627 90.7626C16.0633 91.828 19.8739 91.4479 21.1705 91.4479C22.4671 91.4479 22.8504 89.4637 24.6022 89.3932C26.3555 89.3155 26.2013 88.7812 27.0398 87.7113C27.8783 86.6473 31.843 86.9511 35.8841 87.183C39.9238 87.409 41.6756 86.1909 42.2835 84.5134C42.8048 83.0839 45.7152 82.9914 46.8577 81.923C48.0016 80.8575 48.9928 80.7827 51.9663 80.9324C54.9384 81.085 57.6844 79.4867 59.5889 78.725C61.4949 77.9604 65.0015 78.2671 66.8312 77.8107C68.6608 77.3499 68.9648 80.0943 71.0221 79.8668C73.0793 79.635 73.9956 80.4759 75.0632 80.3996C76.1307 80.3218 75.978 81.1613 77.0455 81.3873C78.1131 81.6177 77.9618 82.5321 77.2761 83.5242C76.5874 84.5119 78.8752 84.437 80.3231 86.4184C81.7709 88.3997 80.3994 88.7035 81.163 90.2283C81.9237 91.7503 82.4567 91.3702 83.9824 89.2377C85.5066 87.1052 87.1821 88.476 87.4112 86.6473C87.6402 84.8186 89.2438 82.6862 90.3113 83.6005C91.3788 84.5119 89.5463 84.9683 88.862 88.476C88.1762 91.9822 86.9574 90.152 86.7283 91.1397C86.4993 92.1304 89.9295 92.6646 89.9295 90.8345C89.9295 89.0058 90.5389 88.1692 91.837 89.8423C93.1321 91.5243 91.072 92.8936 91.3789 93.6567C91.6813 94.417 93.1307 93.4248 93.8943 93.5012C95.2496 93.6391 97.0954 96.6272 96.79 98.2284C96.486 99.8281 96.0279 101.35 98.6182 102.649C101.211 103.943 100.22 104.169 102.126 104.169C104.032 104.169 107.996 105.694 109.063 106.609C110.131 107.521 112.877 105.922 113.408 104.092C113.943 102.267 115.925 104.018 114.857 104.626C113.787 105.238 115.391 106.685 115.467 105.694C115.542 104.702 116 103.867 116.382 105.01C116.762 106.151 118.136 106.151 118.67 107.065C119.204 107.981 119.812 108.665 119.812 107.903C119.812 107.141 120.117 106.456 121.338 105.998C122.555 105.539 123.319 104.701 124.614 103.634C125.91 102.568 131.247 102.339 131.78 102.339C132.313 102.339 132.618 97.772 132.922 95.4076C133.227 93.0447 135.21 92.6646 135.514 90.1506C135.819 87.6365 138.486 82.9885 139.173 82.7625C139.86 82.5321 141.158 81.8481 141.23 80.3996C141.308 78.951 143.06 77.3484 143.06 75.599C143.06 73.8466 144.054 71.789 143.9 71.2577C143.746 70.725 143.135 69.0431 144.28 67.8264C145.43 66.6039 143.827 65.1553 144.436 64.6974ZM68.0566 5.0456C67.9039 4.12979 62.4766 5.18649 63.6337 6.1111C64.3973 6.7187 68.2078 5.95993 68.0566 5.0456ZM85.2084 95.2506C86.0469 96.0108 88.8662 95.7834 89.3244 94.7179C89.7811 93.6524 84.4551 94.5711 85.2084 95.2506ZM119.662 116.427C117.606 116.659 114.517 114.556 113.791 114.757C112.954 114.982 116.461 120.24 115.395 121.611C114.327 122.983 118.52 126.717 119.969 126.946C121.414 127.172 120.881 125.497 121.873 125.572C122.866 125.65 122.484 124.581 122.637 123.82C122.79 123.059 123.781 124.659 124.619 124.201C125.456 123.743 124.39 120.466 125.611 120.466C126.829 120.466 125.84 116.509 125.458 115.214C125.075 113.916 121.722 116.203 119.662 116.427Z" fill="white"/>
<path d="M144.436 64.6974L144.361 64.5973L144.361 64.5975L144.436 64.6974ZM143.599 62.1833L143.526 62.0816L143.526 62.0817L143.599 62.1833ZM143.448 56.4713L143.57 56.4959L143.57 56.4957L143.448 56.4713ZM142.608 55.783L142.696 55.8714L142.696 55.8713L142.608 55.783ZM140.321 53.1163L140.441 53.0804L140.441 53.0801L140.321 53.1163ZM137.653 50.5259L137.625 50.4042L137.625 50.4043L137.653 50.5259ZM135.978 48.9291L136 49.0521L136.001 49.0519L135.978 48.9291ZM134.755 45.3467L134.631 45.3311L134.631 45.3314L134.755 45.3467ZM133.383 44.2063L133.281 44.2778L133.281 44.2783L133.383 44.2063ZM131.399 44.3575L131.357 44.2399L131.356 44.2401L131.399 44.3575ZM130.561 41.9931L130.441 41.9568L130.441 41.9573L130.561 41.9931ZM129.267 39.4805L129.341 39.3797L129.341 39.3796L129.267 39.4805ZM128.123 36.9635L127.999 36.9537L127.999 36.954L128.123 36.9635ZM120.197 32.3185L120.222 32.1961L120.222 32.1961L120.197 32.3185ZM119.357 29.96L119.274 30.054L119.275 30.0545L119.357 29.96ZM116.462 22.1874L116.338 22.1805L116.338 22.1805L116.462 22.1874ZM116.004 17.9959L115.88 17.9834L115.88 17.9837L116.004 17.9959ZM113.718 15.2573L113.843 15.2463L113.842 15.2459L113.718 15.2573ZM111.05 15.3336L111.064 15.4577L111.065 15.4577L111.05 15.3336ZM106.705 2.23055L106.623 2.32535L106.624 2.32563L106.705 2.23055ZM104.49 4.74314L104.366 4.75259L104.366 4.75311L104.49 4.74314ZM103.655 7.48614L103.738 7.57959L103.738 7.57951L103.655 7.48614ZM103.195 11.2976L103.111 11.2053L103.111 11.2054L103.195 11.2976ZM102.891 17.3912L102.767 17.3763L102.767 17.3764L102.891 17.3912ZM101.822 22.6483L101.72 22.5761L101.72 22.5763L101.822 22.6483ZM98.9251 26.6872L98.9689 26.8043L98.9689 26.8042L98.9251 26.6872ZM94.7342 24.9334L94.8588 24.943L94.8588 24.9428L94.7342 24.9334ZM88.3304 20.8211L88.254 20.92L88.2541 20.92L88.3304 20.8211ZM84.8238 19.6014L84.7058 19.6428L84.7059 19.643L84.8238 19.6014ZM82.536 17.0125L82.4651 17.1155L82.4653 17.1156L82.536 17.0125ZM82.8414 15.335L82.7676 15.2341L82.7673 15.2344L82.8414 15.335ZM83.1454 12.4394L83.0388 12.5048L83.0391 12.5051L83.1454 12.4394ZM85.3583 10.8367L85.2982 10.7271L85.298 10.7273L85.3583 10.8367ZM86.5007 8.55311L86.5471 8.66919L86.5472 8.66914L86.5007 8.55311ZM85.7372 6.87561L85.7141 6.99846L85.7142 6.99847L85.7372 6.87561ZM84.442 8.24638L84.4028 8.12767L84.4025 8.12778L84.442 8.24638ZM83.1439 6.42064L83.1681 6.54329L83.1693 6.54303L83.1439 6.42064ZM80.5536 7.48614L80.4546 7.56245L80.4548 7.56269L80.5536 7.48614ZM73.8444 5.43146L73.8272 5.55528L73.8278 5.55535L73.8444 5.43146ZM70.6432 3.44722L70.5985 3.33048L70.598 3.33068L70.6432 3.44722ZM71.9384 5.73379L72.0296 5.64833L72.0295 5.64822L71.9384 5.73379ZM66.6799 7.33644L66.6421 7.45558L66.6427 7.45576L66.6799 7.33644ZM65.6887 8.32416L65.6967 8.19941L65.6965 8.1994L65.6887 8.32416ZM61.8752 13.9613L61.8078 13.8561L61.8076 13.8562L61.8752 13.9613ZM62.028 16.8599L61.9346 16.9431L61.9348 16.9433L62.028 16.8599ZM60.2732 17.24L60.1848 17.3284L60.1849 17.3285L60.2732 17.24ZM58.0647 17.3927L58.1895 17.3854L58.1895 17.3852L58.0647 17.3927ZM56.9208 16.631L56.7973 16.6113L56.7973 16.6115L56.9208 16.631ZM55.0177 15.0298L55.1353 14.9873L55.135 14.9866L55.0177 15.0298ZM52.1176 12.8958L52.1082 12.7712L52.1078 12.7712L52.1176 12.8958ZM49.0676 15.6403L48.9439 15.6578L48.9439 15.6582L49.0676 15.6403ZM46.3995 15.7166L46.4158 15.8406L46.4162 15.8405L46.3995 15.7166ZM45.7901 17.2386L45.7746 17.1145L45.7746 17.1145L45.7901 17.2386ZM43.5038 21.7325L43.3799 21.7488V21.7489L43.5038 21.7325ZM40.9884 21.5064L41.0251 21.6259L41.0255 21.6258L40.9884 21.5064ZM41.5214 24.0983L41.3997 24.1269L41.3998 24.127L41.5214 24.0983ZM40.4539 25.8492L40.3655 25.7607L40.4539 25.8492ZM36.4142 24.6281L36.5049 24.7142L36.505 24.714L36.4142 24.6281ZM36.26 28.6655L36.194 28.5594L36.1938 28.5596L36.26 28.6655ZM31.307 33.5425L31.4027 33.6229L31.4028 33.6229L31.307 33.5425ZM25.2072 35.22L25.1259 35.125L25.1258 35.1251L25.2072 35.22ZM21.9297 36.2855L22.0069 36.3838L22.0069 36.3838L21.9297 36.2855ZM18.6536 37.7326L18.5318 37.7604L18.5318 37.7607L18.6536 37.7326ZM14.5376 38.7262L14.6287 38.8117L14.6288 38.8117L14.5376 38.7262ZM10.2674 41.0876L10.2747 41.2124L10.2749 41.2124L10.2674 41.0876ZM8.43926 43.6016L8.52056 43.6966L8.52086 43.6963L8.43926 43.6016ZM6.45835 47.8666L6.56161 47.937L6.56164 47.937L6.45835 47.8666ZM5.84748 53.3526L5.7475 53.4276L5.74751 53.4276L5.84748 53.3526ZM7.82986 57.9213L7.94162 57.9773L7.94168 57.9772L7.82986 57.9213ZM5.77113 56.1734L5.85949 56.2618L5.85983 56.2615L5.77113 56.1734ZM6.76378 58.6097L6.86753 58.6794L6.86794 58.6788L6.76378 58.6097ZM4.32473 56.7795L4.4388 56.8306L4.43899 56.8302L4.32473 56.7795ZM7.83133 64.5492L7.95623 64.5442L7.95622 64.544L7.83133 64.5492ZM10.7285 71.0273L10.8533 71.0342L10.8533 71.0342L10.7285 71.0273ZM13.7785 78.8747L13.8826 78.8057L13.8825 78.8054L13.7785 78.8747ZM13.0134 83.4464L12.8897 83.4647L12.8898 83.465L13.0134 83.4464ZM11.9459 88.5508L11.9327 88.6751H11.9328L11.9459 88.5508ZM14.4627 90.7626L14.3933 90.8665L14.3935 90.8666L14.4627 90.7626ZM24.6022 89.3932L24.6072 89.5182L24.6078 89.5181L24.6022 89.3932ZM27.0398 87.7113L26.9416 87.634L26.9414 87.6342L27.0398 87.7113ZM35.8841 87.183L35.877 87.3078L35.8771 87.3078L35.8841 87.183ZM42.2835 84.5134L42.1661 84.4705L42.166 84.4708L42.2835 84.5134ZM46.8577 81.923L46.7725 81.8315L46.7723 81.8317L46.8577 81.923ZM51.9663 80.9324L51.9727 80.8075L51.9726 80.8075L51.9663 80.9324ZM59.5889 78.725L59.6353 78.8411L59.6355 78.841L59.5889 78.725ZM66.8312 77.8107L66.8614 77.932L66.8617 77.9319L66.8312 77.8107ZM71.0221 79.8668L71.0358 79.9911L71.0361 79.9911L71.0221 79.8668ZM75.0632 80.3996L75.0721 80.5243L75.0723 80.5243L75.0632 80.3996ZM77.0455 81.3873L77.0719 81.2651L77.0714 81.265L77.0455 81.3873ZM77.2761 83.5242L77.3786 83.5957L77.3789 83.5953L77.2761 83.5242ZM81.163 90.2283L81.2748 90.1724L81.2748 90.1724L81.163 90.2283ZM83.9824 89.2377L84.0841 89.3104L84.0841 89.3104L83.9824 89.2377ZM90.3113 83.6005L90.23 83.6954L90.2301 83.6956L90.3113 83.6005ZM88.862 88.476L88.9846 88.5L88.9847 88.4999L88.862 88.476ZM86.7283 91.1397L86.6066 91.1115L86.6066 91.1116L86.7283 91.1397ZM91.837 89.8423L91.936 89.7661L91.9358 89.7657L91.837 89.8423ZM91.3789 93.6567L91.495 93.6105L91.4948 93.6101L91.3789 93.6567ZM93.8943 93.5012L93.9069 93.3768L93.9067 93.3768L93.8943 93.5012ZM96.79 98.2284L96.6672 98.205L96.6672 98.2051L96.79 98.2284ZM98.6182 102.649L98.5622 102.761L98.5624 102.761L98.6182 102.649ZM109.063 106.609L108.982 106.704L108.982 106.704L109.063 106.609ZM113.408 104.092L113.288 104.056L113.288 104.057L113.408 104.092ZM114.857 104.626L114.796 104.517L114.795 104.517L114.857 104.626ZM115.467 105.694L115.592 105.704L115.592 105.704L115.467 105.694ZM116.382 105.01L116.5 104.971L116.5 104.971L116.382 105.01ZM118.67 107.065L118.562 107.128L118.562 107.128L118.67 107.065ZM121.338 105.998L121.382 106.115L121.382 106.115L121.338 105.998ZM124.614 103.634L124.534 103.537L124.534 103.537L124.614 103.634ZM132.922 95.4076L132.798 95.3916L132.798 95.3917L132.922 95.4076ZM135.514 90.1506L135.39 90.1355V90.1355L135.514 90.1506ZM139.173 82.7625L139.212 82.8812L139.213 82.881L139.173 82.7625ZM141.23 80.3996L141.106 80.3929L141.106 80.3934L141.23 80.3996ZM143.9 71.2577L143.78 71.2925L143.78 71.2925L143.9 71.2577ZM144.28 67.8264L144.371 67.9121L144.371 67.912L144.28 67.8264ZM68.0566 5.0456L68.1799 5.0252L68.1799 5.02504L68.0566 5.0456ZM63.6337 6.1111L63.5557 6.20875L63.5559 6.20891L63.6337 6.1111ZM85.2084 95.2506L85.2924 95.158L85.2921 95.1578L85.2084 95.2506ZM89.3244 94.7179L89.4392 94.7672L89.4393 94.7671L89.3244 94.7179ZM119.662 116.427L119.648 116.303L119.648 116.303L119.662 116.427ZM113.791 114.757L113.824 114.878L113.825 114.878L113.791 114.757ZM115.395 121.611L115.493 121.688L115.493 121.688L115.395 121.611ZM119.969 126.946L119.949 127.069L119.95 127.069L119.969 126.946ZM121.873 125.572L121.883 125.447L121.883 125.447L121.873 125.572ZM122.637 123.82L122.514 123.795L122.514 123.795L122.637 123.82ZM124.619 124.201L124.679 124.311L124.679 124.311L124.619 124.201ZM125.458 115.214L125.578 115.178L125.578 115.178L125.458 115.214ZM144.511 64.7975C144.615 64.7193 144.68 64.6043 144.718 64.4778C144.755 64.3514 144.768 64.2061 144.763 64.0544C144.755 63.7511 144.677 63.4023 144.565 63.0844C144.453 62.7674 144.301 62.4692 144.137 62.2715C144.055 62.1735 143.963 62.0903 143.861 62.048C143.752 62.0027 143.633 62.0056 143.526 62.0816L143.672 62.2851C143.698 62.266 143.724 62.262 143.765 62.2789C143.813 62.2988 143.875 62.3472 143.945 62.4313C144.083 62.5978 144.222 62.866 144.329 63.1678C144.436 63.4687 144.506 63.7911 144.514 64.0615C144.517 64.1967 144.505 64.3138 144.478 64.4068C144.45 64.4998 144.41 64.5611 144.361 64.5973L144.511 64.7975ZM143.526 62.0817C143.516 62.0888 143.527 62.0783 143.547 62.085C143.557 62.0886 143.549 62.0908 143.53 62.06C143.493 61.9991 143.454 61.8789 143.42 61.6961C143.353 61.3376 143.315 60.7982 143.305 60.1812C143.286 58.9479 143.382 57.4342 143.57 56.4959L143.325 56.4467C143.132 57.409 143.036 58.9421 143.055 60.1851C143.065 60.8062 143.103 61.3624 143.174 61.7421C143.209 61.9284 143.254 62.088 143.317 62.1908C143.349 62.2419 143.395 62.2969 143.464 62.3209C143.542 62.3481 143.615 62.3256 143.672 62.285L143.526 62.0817ZM143.57 56.4957C143.665 56.0191 143.723 55.6689 143.74 55.4288C143.749 55.3097 143.748 55.2088 143.732 55.13C143.718 55.0556 143.683 54.9651 143.591 54.9255C143.504 54.8877 143.415 54.9188 143.352 54.9508C143.284 54.9856 143.209 55.0412 143.13 55.1085C142.97 55.2436 142.766 55.4483 142.519 55.6946L142.696 55.8713C142.946 55.6216 143.141 55.426 143.291 55.2993C143.366 55.2357 143.424 55.195 143.466 55.1734C143.513 55.1491 143.512 55.1638 143.492 55.1549C143.467 55.1442 143.477 55.1279 143.487 55.1782C143.496 55.2242 143.499 55.2988 143.491 55.4111C143.475 55.6338 143.42 55.9703 143.325 56.4469L143.57 56.4957ZM142.519 55.6946C142.41 55.8035 142.31 55.8497 142.22 55.8599C142.13 55.8703 142.033 55.8461 141.928 55.784C141.713 55.6567 141.493 55.3868 141.286 55.0428C140.875 54.3606 140.554 53.4575 140.441 53.0804L140.202 53.1522C140.318 53.5383 140.645 54.4639 141.072 55.1719C141.283 55.523 141.53 55.8386 141.801 55.9991C141.939 56.081 142.09 56.1264 142.249 56.1083C142.407 56.0902 142.557 56.0102 142.696 55.8714L142.519 55.6946ZM140.441 53.0801C140.321 52.6838 139.97 51.9459 139.483 51.343C139.24 51.0411 138.957 50.7667 138.646 50.5872C138.334 50.4068 137.987 50.3192 137.625 50.4042L137.682 50.6476C137.966 50.5808 138.248 50.6458 138.521 50.8036C138.796 50.9623 139.056 51.2116 139.289 51.5001C139.755 52.0779 140.091 52.7871 140.202 53.1525L140.441 53.0801ZM137.625 50.4043C137.476 50.4394 137.37 50.4368 137.292 50.4154C137.217 50.3946 137.16 50.3537 137.113 50.2951C137.012 50.1686 136.962 49.9692 136.908 49.7283C136.858 49.5044 136.804 49.2402 136.674 49.0527C136.605 48.9543 136.514 48.8726 136.39 48.8265C136.267 48.781 136.122 48.7744 135.954 48.8064L136.001 49.0519C136.138 49.0259 136.234 49.0354 136.303 49.061C136.371 49.0861 136.424 49.1308 136.468 49.1952C136.564 49.3333 136.609 49.5403 136.664 49.783C136.714 50.0086 136.774 50.271 136.918 50.4513C136.994 50.5462 137.094 50.62 137.226 50.6564C137.355 50.6922 137.506 50.6891 137.682 50.6476L137.625 50.4043ZM135.955 48.8062C135.688 48.8553 135.486 48.7849 135.326 48.6309C135.16 48.4709 135.032 48.2126 134.944 47.8753C134.769 47.2018 134.767 46.2679 134.879 45.3619L134.631 45.3314C134.517 46.2511 134.516 47.2208 134.702 47.9382C134.796 48.2964 134.939 48.6054 135.152 48.8109C135.372 49.0222 135.656 49.1153 136 49.0521L135.955 48.8062ZM134.879 45.3622C134.908 45.1293 134.917 44.9434 134.908 44.7958C134.899 44.6494 134.872 44.5313 134.821 44.4412C134.767 44.3461 134.689 44.2886 134.598 44.2617C134.512 44.2366 134.421 44.2404 134.34 44.2507C134.259 44.2609 134.168 44.2805 134.09 44.2951C134.007 44.3105 133.929 44.322 133.855 44.3222C133.715 44.3226 133.591 44.2837 133.485 44.1343L133.281 44.2783C133.443 44.5083 133.653 44.5728 133.856 44.5722C133.953 44.5719 134.049 44.5569 134.135 44.5409C134.226 44.5242 134.299 44.5078 134.371 44.4987C134.442 44.4898 134.491 44.4911 134.527 44.5016C134.557 44.5104 134.582 44.5267 134.604 44.565C134.628 44.6083 134.651 44.6832 134.659 44.8109C134.666 44.9373 134.659 45.1065 134.631 45.3311L134.879 45.3622ZM133.486 44.1348C133.342 43.928 133.183 43.8012 133.004 43.7451C132.827 43.6895 132.647 43.7093 132.472 43.7607C132.299 43.8117 132.118 43.8975 131.936 43.9848C131.751 44.0737 131.56 44.1662 131.357 44.2399L131.442 44.475C131.66 44.3962 131.862 44.2978 132.044 44.2102C132.23 44.1212 132.392 44.0449 132.543 44.0006C132.692 43.9568 132.817 43.9483 132.929 43.9837C133.041 44.0187 133.158 44.1023 133.281 44.2778L133.486 44.1348ZM131.356 44.2401C131.273 44.2706 131.205 44.2713 131.147 44.2551C131.088 44.2385 131.03 44.2014 130.974 44.1405C130.859 44.0157 130.766 43.8062 130.701 43.5473C130.572 43.0299 130.574 42.3856 130.681 42.0289L130.441 41.9573C130.319 42.3667 130.321 43.058 130.458 43.6079C130.527 43.8826 130.634 44.1398 130.79 44.3099C130.87 44.3964 130.966 44.4638 131.079 44.4957C131.194 44.5279 131.316 44.5211 131.442 44.4749L131.356 44.2401ZM130.68 42.0294C130.934 41.195 130.502 40.2302 129.341 39.3797L129.193 39.5814C130.317 40.404 130.649 41.2708 130.441 41.9568L130.68 42.0294ZM129.341 39.3796C128.781 38.9701 128.496 38.6066 128.354 38.2359C128.212 37.8627 128.21 37.4663 128.248 36.9731L127.999 36.954C127.96 37.4529 127.958 37.8967 128.121 38.3248C128.285 38.7554 128.609 39.1544 129.193 39.5814L129.341 39.3796ZM128.248 36.9734C128.255 36.877 128.222 36.7805 128.172 36.691C128.121 36.6 128.047 36.505 127.956 36.4075C127.773 36.2123 127.511 35.9938 127.195 35.7629C126.562 35.3004 125.7 34.7762 124.793 34.2751C123.885 33.7737 122.929 33.2937 122.109 32.9198C121.293 32.5478 120.6 32.2753 120.222 32.1961L120.171 32.4408C120.518 32.5135 121.187 32.7742 122.005 33.1473C122.819 33.5184 123.769 33.9955 124.672 34.494C125.575 34.9928 126.427 35.5111 127.047 35.9647C127.358 36.1918 127.606 36.3997 127.773 36.5782C127.857 36.6675 127.916 36.7461 127.954 36.8129C127.992 36.8812 128.001 36.9266 127.999 36.9537L128.248 36.9734ZM120.222 32.1961C119.885 32.1259 119.728 31.9911 119.651 31.8402C119.57 31.6803 119.564 31.4759 119.587 31.2368C119.599 31.1183 119.617 30.9992 119.633 30.876C119.65 30.7549 119.664 30.6312 119.667 30.5128C119.674 30.2786 119.635 30.0353 119.439 29.8655L119.275 30.0545C119.385 30.1496 119.423 30.2958 119.418 30.5063C119.415 30.6102 119.402 30.7225 119.386 30.8427C119.37 30.9607 119.351 31.088 119.338 31.2123C119.314 31.4588 119.313 31.7258 119.429 31.9537C119.55 32.1906 119.783 32.3599 120.171 32.4408L120.222 32.1961ZM119.439 29.866C119.31 29.7527 119.19 29.5517 119.086 29.2715C118.983 28.9942 118.899 28.6521 118.833 28.2706C118.701 27.5079 118.645 26.6011 118.645 25.7684H118.395C118.395 26.6104 118.452 27.5322 118.587 28.3131C118.654 28.7034 118.741 29.0619 118.852 29.3588C118.961 29.653 119.099 29.9002 119.274 30.054L119.439 29.866ZM118.645 25.7684C118.645 24.8725 118.07 24.2862 117.55 23.7754C117.285 23.5149 117.035 23.2762 116.854 23.0185C116.675 22.7644 116.57 22.501 116.587 22.1944L116.338 22.1805C116.317 22.5599 116.45 22.8779 116.649 23.1623C116.847 23.443 117.116 23.6998 117.375 23.9537C117.902 24.4717 118.395 24.9898 118.395 25.7684H118.645ZM116.587 22.1944C116.627 21.4891 116.47 20.805 116.328 20.1245C116.185 19.4386 116.056 18.7503 116.129 18.0081L115.88 17.9837C115.803 18.7678 115.941 19.4898 116.084 20.1755C116.227 20.8664 116.375 21.5149 116.338 22.1805L116.587 22.1944ZM116.129 18.0083C116.213 17.1677 115.595 16.6545 115.016 16.2662C114.714 16.0645 114.43 15.8999 114.204 15.7257C113.976 15.5502 113.856 15.3984 113.843 15.2463L113.593 15.2682C113.617 15.5351 113.819 15.7449 114.051 15.9237C114.285 16.1037 114.596 16.286 114.876 16.4739C115.46 16.865 115.948 17.3021 115.88 17.9834L116.129 18.0083ZM113.842 15.2459C113.831 15.1246 113.797 15.0201 113.734 14.9372C113.669 14.8532 113.583 14.8015 113.486 14.7733C113.3 14.7196 113.063 14.7481 112.815 14.8005C112.563 14.8537 112.27 14.939 111.97 15.0177C111.667 15.0973 111.35 15.172 111.035 15.2095L111.065 15.4577C111.397 15.4181 111.727 15.3398 112.034 15.2595C112.343 15.1782 112.622 15.0967 112.866 15.0451C113.114 14.9928 113.296 14.9787 113.416 15.0134C113.471 15.0295 113.509 15.0548 113.535 15.0892C113.562 15.1247 113.585 15.18 113.594 15.2686L113.842 15.2459ZM111.035 15.2094C110.743 15.2438 110.545 15.1667 110.404 15.0211C110.256 14.8691 110.155 14.6281 110.095 14.3094C109.976 13.6715 110.031 12.7933 110.107 11.9145L109.858 11.893C109.782 12.765 109.723 13.6781 109.85 14.3555C109.913 14.6945 110.027 14.9922 110.225 15.1954C110.428 15.405 110.707 15.4997 111.064 15.4577L111.035 15.2094ZM110.107 11.9145C110.184 11.0209 110.048 9.84415 109.759 8.78638C109.614 8.25672 109.43 7.75324 109.214 7.32736C108.998 6.90322 108.745 6.54732 108.457 6.32225L108.303 6.51903C108.55 6.71224 108.783 7.032 108.991 7.44079C109.198 7.84784 109.376 8.33454 109.518 8.85223C109.801 9.88913 109.932 11.0357 109.858 11.893L110.107 11.9145ZM108.457 6.32225C108.215 6.1327 108.021 5.8181 107.858 5.42885C107.697 5.0416 107.573 4.59433 107.463 4.15254C107.355 3.71533 107.261 3.27666 107.162 2.92553C107.112 2.74888 107.059 2.58857 107 2.45626C106.943 2.32646 106.874 2.21072 106.786 2.13547L106.624 2.32563C106.669 2.36412 106.719 2.43849 106.772 2.55755C106.823 2.6741 106.872 2.82143 106.921 2.99357C107.019 3.34002 107.11 3.76359 107.221 4.21247C107.33 4.65676 107.458 5.11941 107.628 5.52514C107.796 5.92888 108.011 6.2903 108.303 6.51903L108.457 6.32225ZM106.786 2.13575C106.686 2.04972 106.562 2.02671 106.438 2.04205C106.316 2.05708 106.188 2.10914 106.061 2.18203C105.806 2.32814 105.528 2.57471 105.275 2.86147C105.021 3.14919 104.786 3.48403 104.618 3.81238C104.452 4.137 104.344 4.47122 104.366 4.75259L104.615 4.73369C104.599 4.52119 104.682 4.23699 104.841 3.92612C104.998 3.61899 105.221 3.30128 105.463 3.0269C105.706 2.75156 105.963 2.52647 106.185 2.39887C106.296 2.3349 106.392 2.29958 106.468 2.29017C106.542 2.28107 106.59 2.29654 106.623 2.32535L106.786 2.13575ZM104.366 4.75311C104.444 5.72826 104.213 6.82222 103.572 7.39277L103.738 7.57951C104.466 6.93193 104.696 5.73932 104.615 4.73316L104.366 4.75311ZM103.572 7.39269C103.357 7.58333 103.301 7.89483 103.297 8.21979C103.294 8.54998 103.345 8.93925 103.387 9.31981C103.43 9.70626 103.464 10.0875 103.433 10.4222C103.402 10.7568 103.308 11.0255 103.111 11.2053L103.28 11.3898C103.542 11.1499 103.648 10.8086 103.682 10.4453C103.716 10.0821 103.679 9.67736 103.636 9.2922C103.592 8.90115 103.544 8.53313 103.547 8.2226C103.551 7.90685 103.609 7.69422 103.738 7.57959L103.572 7.39269ZM103.111 11.2054C102.847 11.4471 102.724 11.8534 102.67 12.321C102.615 12.7941 102.628 13.3601 102.661 13.9514C102.678 14.2476 102.7 14.5521 102.722 14.8559C102.744 15.1601 102.766 15.4637 102.782 15.76C102.814 16.3538 102.823 16.9114 102.767 17.3763L103.015 17.4061C103.074 16.9185 103.064 16.3429 103.032 15.7465C103.015 15.4476 102.994 15.1419 102.972 14.8379C102.95 14.5336 102.928 14.2312 102.911 13.9372C102.877 13.3479 102.866 12.8001 102.918 12.3497C102.971 11.8939 103.086 11.5671 103.28 11.3898L103.111 11.2054ZM102.767 17.3764C102.71 17.8551 102.672 18.3433 102.633 18.8232C102.593 19.3043 102.553 19.7773 102.491 20.2307C102.368 21.1398 102.16 21.9534 101.72 22.5761L101.924 22.7204C102.4 22.0472 102.614 21.184 102.739 20.2644C102.802 19.8035 102.842 19.3242 102.882 18.8436C102.921 18.3619 102.959 17.8791 103.015 17.406L102.767 17.3764ZM101.72 22.5763C101.485 22.9103 101.3 23.2911 101.128 23.6783C100.955 24.0693 100.796 24.4624 100.607 24.8402C100.231 25.5907 99.7536 26.2436 98.8813 26.5701L98.9689 26.8042C99.9277 26.4454 100.443 25.7261 100.83 24.9521C101.023 24.5676 101.188 24.1603 101.357 23.7798C101.527 23.3955 101.704 23.0334 101.924 22.7202L101.72 22.5763ZM98.8813 26.5701C98.0096 26.8962 96.9796 26.7166 96.1698 26.3257C95.7662 26.1308 95.4249 25.8869 95.1911 25.6362C94.9539 25.3819 94.8437 25.139 94.8588 24.943L94.6096 24.9238C94.5865 25.2231 94.7526 25.5325 95.0083 25.8068C95.2675 26.0847 95.6359 26.3455 96.0611 26.5508C96.9088 26.9601 98.0123 27.1621 98.9689 26.8043L98.8813 26.5701ZM94.8588 24.9428C94.8813 24.6463 94.7421 24.3884 94.5264 24.1781C94.3115 23.9686 94.0118 23.7967 93.6838 23.6646C93.0296 23.4011 92.2259 23.2817 91.6664 23.3626L91.7022 23.61C92.2087 23.5368 92.9675 23.6456 93.5904 23.8965C93.901 24.0216 94.1685 24.1784 94.3519 24.3572C94.5345 24.5352 94.6246 24.7251 94.6096 24.9239L94.8588 24.9428ZM91.6664 23.3626C91.2045 23.4293 90.8274 23.1392 90.3272 22.6104C89.8389 22.0942 89.2555 21.3765 88.4067 20.7221L88.2541 20.92C89.0823 21.5586 89.6427 22.2506 90.1456 22.7822C90.6367 23.3014 91.098 23.6973 91.7022 23.61L91.6664 23.3626ZM88.4068 20.7221C87.5272 20.0429 86.741 20.1239 86.1389 20.1714C85.8326 20.1956 85.5979 20.2077 85.4061 20.135C85.2279 20.0674 85.0676 19.9173 84.9417 19.5599L84.7059 19.643C84.848 20.0465 85.0502 20.2674 85.3175 20.3687C85.5712 20.4649 85.8649 20.4438 86.1585 20.4206C86.7561 20.3735 87.4552 20.3032 88.254 20.92L88.4068 20.7221ZM84.9418 19.5601C84.6712 18.7885 84.3964 18.3324 84.0265 17.9627C83.6632 17.5995 83.209 17.3226 82.6067 16.9095L82.4653 17.1156C83.0847 17.5405 83.5079 17.7978 83.8498 18.1395C84.1851 18.4746 84.4433 18.894 84.7058 19.6428L84.9418 19.5601ZM82.6068 16.9096C82.3019 16.6998 82.1095 16.5505 82.0031 16.4322C81.9506 16.3738 81.9263 16.3307 81.9166 16.2992C81.9081 16.2717 81.9094 16.2489 81.9201 16.2227C81.9324 16.1925 81.959 16.1539 82.0099 16.1038C82.0602 16.0543 82.1281 15.9993 82.2152 15.9347C82.3021 15.8703 82.4041 15.7993 82.5221 15.7167C82.6395 15.6345 82.7714 15.5418 82.9155 15.4357L82.7673 15.2344C82.6258 15.3386 82.496 15.4298 82.3787 15.5118C82.2621 15.5935 82.1566 15.6669 82.0663 15.7339C81.9762 15.8006 81.8973 15.8638 81.8344 15.9258C81.772 15.9872 81.7191 16.0536 81.6886 16.1282C81.6566 16.2068 81.6519 16.2888 81.6776 16.3726C81.7021 16.4523 81.752 16.5269 81.8172 16.5994C81.946 16.7426 82.1621 16.9071 82.4651 17.1155L82.6068 16.9096ZM82.9152 15.4359C83.5142 14.9979 83.7666 14.4872 83.777 13.9474C83.7872 13.4167 83.563 12.8772 83.2517 12.3737L83.0391 12.5051C83.3402 12.9922 83.5359 13.4823 83.527 13.9426C83.5183 14.3939 83.3126 14.8356 82.7676 15.2341L82.9152 15.4359ZM83.2519 12.374C83.1039 12.1326 83.1011 12.0105 83.1333 11.9399C83.17 11.8593 83.2756 11.7836 83.4967 11.6973C83.9101 11.5358 84.6481 11.3709 85.4186 10.9462L85.298 10.7273C84.5428 11.1435 83.8697 11.2832 83.4057 11.4644C83.1881 11.5494 82.9885 11.6546 82.9058 11.8363C82.8185 12.0279 82.8822 12.2494 83.0388 12.5048L83.2519 12.374ZM85.4184 10.9463C85.8161 10.7282 86.0311 10.4907 86.1342 10.2392C86.2362 9.99049 86.2205 9.74664 86.1963 9.53852C86.1838 9.4304 86.1698 9.33874 86.1634 9.24731C86.1572 9.15805 86.1594 9.08191 86.1758 9.01478C86.2055 8.89364 86.2884 8.77255 86.5471 8.66919L86.4544 8.43703C86.1419 8.56189 85.9867 8.73597 85.933 8.95532C85.9077 9.05844 85.907 9.16387 85.914 9.26481C85.921 9.36358 85.9368 9.47073 85.948 9.56735C85.9714 9.7687 85.9794 9.95799 85.9029 10.1444C85.8276 10.3281 85.6619 10.5277 85.2982 10.7271L85.4184 10.9463ZM86.5472 8.66914C86.8489 8.54825 87.0519 8.38371 87.148 8.18429C87.2464 7.98018 87.2214 7.76346 87.116 7.56893C86.9104 7.18979 86.3921 6.87102 85.7602 6.75274L85.7142 6.99847C86.3055 7.10915 86.7401 7.40017 86.8962 7.68807C86.9715 7.82706 86.9795 7.95817 86.9228 8.07574C86.8639 8.19802 86.7238 8.32902 86.4542 8.43708L86.5472 8.66914ZM85.7602 6.75276C85.4327 6.69124 85.1894 6.73879 85.0105 6.87157C84.8362 7.00096 84.7451 7.1957 84.6854 7.37992C84.6553 7.47303 84.6317 7.5683 84.6103 7.65636C84.5885 7.74621 84.5693 7.82706 84.5469 7.89914C84.4989 8.05369 84.4518 8.11151 84.4028 8.12767L84.4812 8.36508C84.6613 8.30566 84.7383 8.12572 84.7856 7.97331C84.8109 7.89191 84.8322 7.80197 84.8532 7.71535C84.8747 7.62695 84.8963 7.54008 84.9233 7.45697C84.9777 7.28878 85.0483 7.15486 85.1595 7.07231C85.2662 6.99316 85.4322 6.9455 85.7141 6.99846L85.7602 6.75276ZM84.4025 8.12778C84.3959 8.12997 84.3806 8.13408 84.3438 8.10737C84.3045 8.07879 84.2573 8.02564 84.2036 7.94507C84.0969 7.78485 83.9888 7.55408 83.8782 7.30952C83.7701 7.07036 83.6594 6.81762 83.5516 6.63133C83.4979 6.53858 83.44 6.45335 83.3775 6.3928C83.3174 6.33466 83.2277 6.27558 83.1185 6.29825L83.1693 6.54303C83.1556 6.54589 83.1637 6.53378 83.2036 6.57239C83.241 6.60861 83.2851 6.66993 83.3352 6.75655C83.435 6.92901 83.5391 7.16627 83.6504 7.41253C83.7594 7.65339 83.8756 7.90345 83.9956 8.08364C84.0552 8.17326 84.122 8.25521 84.1969 8.30962C84.2744 8.36592 84.3736 8.40094 84.4815 8.36497L84.4025 8.12778ZM83.1198 6.29799C83.0764 6.30653 83.0346 6.32634 82.9979 6.34766C82.9598 6.36972 82.9197 6.39781 82.8788 6.42922C82.797 6.49188 82.7031 6.57449 82.6028 6.66463C82.3995 6.84735 82.1645 7.06594 81.9178 7.25206C81.6691 7.43966 81.4238 7.58198 81.2041 7.62411C81.0966 7.64473 80.9991 7.64056 80.9108 7.60921C80.823 7.57805 80.7356 7.51694 80.6524 7.4096L80.4548 7.56269C80.5629 7.70227 80.688 7.7954 80.8271 7.84481C80.9658 7.89403 81.1097 7.89677 81.2512 7.86964C81.5294 7.81629 81.8126 7.64453 82.0683 7.45165C82.326 7.25728 82.5714 7.02898 82.7699 6.85057C82.8705 6.76015 82.9578 6.68363 83.0308 6.62763C83.0673 6.59971 83.098 6.57859 83.1233 6.56393C83.1498 6.54853 83.1639 6.5441 83.1681 6.54329L83.1198 6.29799ZM80.6526 7.40983C80.544 7.26885 80.3793 7.13796 80.1801 7.01603C79.9797 6.89333 79.7375 6.77558 79.4669 6.66329C78.9258 6.43872 78.2622 6.23223 77.5734 6.05064C76.1955 5.68739 74.704 5.42044 73.861 5.30756L73.8278 5.55535C74.6618 5.66702 76.143 5.93209 77.5096 6.29238C78.1931 6.47256 78.8446 6.67572 79.3711 6.8942C79.6343 7.00343 79.8639 7.11554 80.0496 7.22925C80.2366 7.34372 80.3724 7.45578 80.4546 7.56245L80.6526 7.40983ZM73.8615 5.30764C73.0746 5.19872 72.5505 4.64414 72.0803 4.12585C71.851 3.87302 71.6281 3.6218 71.3979 3.46167C71.1606 3.29656 70.8976 3.21597 70.5985 3.33048L70.6879 3.56395C70.8852 3.4884 71.061 3.53183 71.2552 3.6669C71.4565 3.80694 71.6577 4.03206 71.8952 4.29382C72.3586 4.80471 72.9387 5.4323 73.8272 5.55528L73.8615 5.30764ZM70.598 3.33068C70.3398 3.43084 70.1644 3.57137 70.1423 3.78236C70.1318 3.88187 70.1585 3.98 70.2032 4.07273C70.2479 4.16553 70.3142 4.26052 70.3935 4.35719C70.5516 4.54985 70.7767 4.76706 71.0276 5.00703C71.2807 5.24903 71.564 5.51775 71.8472 5.81936L72.0295 5.64822C71.7408 5.34076 71.4523 5.06719 71.2004 4.82634C70.9464 4.58345 70.7334 4.37725 70.5868 4.1986C70.5137 4.10962 70.461 4.03198 70.4284 3.96426C70.3958 3.89646 70.3869 3.84618 70.3909 3.80847C70.3975 3.74501 70.451 3.65586 70.6884 3.56375L70.598 3.33068ZM71.8471 5.81924C71.9717 5.95223 71.9955 6.05903 71.9774 6.14583C71.9576 6.24087 71.8805 6.3483 71.7277 6.462C71.4227 6.68887 70.8863 6.88885 70.2515 7.04039C69.621 7.1909 68.9095 7.29 68.2666 7.3234C67.6196 7.35702 67.057 7.32323 66.7172 7.21712L66.6427 7.45576C67.0268 7.57567 67.6263 7.60701 68.2795 7.57307C68.9368 7.53891 69.6635 7.43778 70.3095 7.28356C70.9512 7.13039 71.5293 6.92118 71.8769 6.66258C72.0504 6.53355 72.1841 6.37917 72.2222 6.19688C72.2619 6.00633 72.1906 5.82024 72.0296 5.64833L71.8471 5.81924ZM66.7178 7.21731C66.5329 7.1586 66.3878 7.12809 66.2753 7.12523C66.1643 7.1224 66.0596 7.14635 65.9911 7.22709C65.9251 7.30495 65.921 7.40365 65.928 7.47918C65.9352 7.5573 65.958 7.64323 65.9789 7.72005C66.001 7.80126 66.0221 7.87566 66.034 7.94564C66.046 8.01646 66.0456 8.06735 66.0352 8.10242C66.0269 8.13025 66.0114 8.15297 65.9709 8.17131C65.9237 8.19262 65.8399 8.20854 65.6967 8.19941L65.6808 8.44891C65.8426 8.45922 65.9734 8.44451 66.0738 8.39912C66.1809 8.35074 66.246 8.27068 66.2748 8.17367C66.3015 8.0839 66.2948 7.98789 66.2805 7.90376C66.266 7.81879 66.2408 7.7302 66.2201 7.65436C66.1983 7.57415 66.1818 7.509 66.1769 7.45602C66.1745 7.43035 66.1754 7.41275 66.1777 7.40127C66.1787 7.39584 66.1799 7.39257 66.1807 7.39083C66.181 7.38997 66.1813 7.38945 66.1815 7.38918C66.1817 7.38891 66.1818 7.38879 66.1818 7.38874C66.1819 7.3887 66.1819 7.3886 66.1821 7.38843C66.1823 7.38826 66.1828 7.38791 66.1835 7.38741C66.1851 7.38643 66.1884 7.38456 66.1946 7.38254C66.2076 7.37832 66.2308 7.37417 66.2689 7.37514C66.3465 7.37712 66.4653 7.39944 66.6421 7.45558L66.7178 7.21731ZM65.6965 8.1994C65.3485 8.17763 65.0723 8.31582 64.8444 8.54074C64.6207 8.76155 64.4394 9.06966 64.2719 9.39987C64.1876 9.56593 64.1052 9.74082 64.0223 9.91597C63.9391 10.0918 63.8551 10.2682 63.7662 10.4405C63.5882 10.7859 63.3943 11.1076 63.1581 11.3623L63.3413 11.5323C63.6007 11.2527 63.8069 10.9074 63.9885 10.5551C64.0794 10.3786 64.1651 10.1985 64.2482 10.0229C64.3317 9.84671 64.4124 9.67533 64.4948 9.51301C64.6605 9.18646 64.8269 8.90935 65.0201 8.71866C65.209 8.53209 65.4189 8.43253 65.6809 8.44892L65.6965 8.1994ZM63.1581 11.3623C62.6373 11.9236 62.5558 12.411 62.4693 12.8222C62.4263 13.0267 62.3838 13.2029 62.2921 13.3693C62.2019 13.5331 62.0599 13.6944 61.8078 13.8561L61.9427 14.0666C62.2251 13.8855 62.3982 13.6949 62.5111 13.4899C62.6225 13.2877 62.6709 13.0785 62.714 12.8737C62.7997 12.4664 62.8709 12.0394 63.3413 11.5323L63.1581 11.3623ZM61.8076 13.8562C61.2613 14.2077 60.9298 14.6033 60.9412 15.1266C60.9521 15.6327 61.2862 16.2155 61.9346 16.9431L62.1213 16.7767C61.4761 16.0529 61.2 15.5298 61.1911 15.1212C61.1826 14.7297 61.4217 14.4018 61.9429 14.0665L61.8076 13.8562ZM61.9348 16.9433C62.0922 17.1191 62.1969 17.2696 62.2602 17.3953C62.3238 17.5217 62.3421 17.6158 62.3372 17.682C62.3326 17.7439 62.3077 17.7875 62.2663 17.8207C62.2215 17.8567 62.1508 17.8854 62.0509 17.8979C61.8504 17.9228 61.5677 17.8771 61.2604 17.751C60.9552 17.6258 60.6355 17.425 60.3615 17.1516L60.1849 17.3285C60.4836 17.6267 60.8316 17.8453 61.1655 17.9823C61.4971 18.1184 61.8246 18.1779 62.0817 18.146C62.2106 18.1299 62.3305 18.0898 62.4228 18.0157C62.5184 17.9389 62.5768 17.8314 62.5865 17.7004C62.5959 17.5737 62.5592 17.4333 62.4835 17.2828C62.4073 17.1316 62.2879 16.9629 62.1211 16.7765L61.9348 16.9433ZM60.3616 17.1516C59.7828 16.5732 59.1786 16.2575 58.7062 16.279C58.4629 16.29 58.2532 16.3916 58.1139 16.5915C57.9778 16.7868 57.9195 17.0609 57.9399 17.4002L58.1895 17.3852C58.171 17.078 58.2266 16.8671 58.319 16.7344C58.4083 16.6063 58.5417 16.5367 58.7176 16.5287C59.0837 16.5121 59.6226 16.7665 60.1848 17.3284L60.3616 17.1516ZM57.9399 17.3999C57.9576 17.7067 57.8824 17.8626 57.8048 17.9281C57.7335 17.9882 57.625 18 57.4933 17.9304C57.2273 17.7901 56.936 17.3357 57.0443 16.6505L56.7973 16.6115C56.6765 17.3762 56.9946 17.9499 57.3766 18.1515C57.5688 18.253 57.7939 18.2642 57.9659 18.1192C58.1315 17.9796 58.2092 17.7259 58.1895 17.3854L57.9399 17.3999ZM57.0442 16.6506C57.1058 16.2635 57.0328 15.991 56.8542 15.8015C56.6833 15.6203 56.4344 15.5373 56.199 15.4795C55.9491 15.4181 55.7206 15.385 55.5176 15.3116C55.3227 15.2411 55.1926 15.146 55.1353 14.9873L54.9002 15.0723C54.994 15.3318 55.2063 15.4649 55.4326 15.5467C55.6508 15.6256 55.9224 15.669 56.1393 15.7223C56.3706 15.7791 56.5552 15.849 56.6723 15.9731C56.7816 16.089 56.851 16.2741 56.7973 16.6113L57.0442 16.6506ZM55.135 14.9866C54.9689 14.5352 54.4704 13.9653 53.9011 13.5219C53.6138 13.2981 53.3026 13.1018 52.997 12.9657C52.693 12.8303 52.3852 12.7503 52.1082 12.7712L52.127 13.0205C52.3463 13.0039 52.6105 13.0672 52.8953 13.194C53.1783 13.3201 53.4722 13.5047 53.7474 13.7191C54.3029 14.1518 54.7581 14.6864 54.9004 15.0729L55.135 14.9866ZM52.1078 12.7712C51.5578 12.8144 51.2802 13.1397 51.0345 13.414C50.7879 13.6893 50.573 13.9156 50.1367 13.9156V14.1656C50.6915 14.1656 50.9721 13.8584 51.2208 13.5808C51.4703 13.3021 51.6877 13.055 52.1274 13.0205L52.1078 12.7712ZM50.1367 13.9156C49.6209 13.9156 49.2614 14.0543 49.0664 14.3748C48.8798 14.6815 48.8678 15.1207 48.9439 15.6578L49.1914 15.6228C49.1162 15.0915 49.1424 14.7308 49.28 14.5048C49.4091 14.2925 49.6598 14.1656 50.1367 14.1656V13.9156ZM48.9439 15.6582C48.9615 15.7799 48.9497 15.8505 48.9311 15.8901C48.9154 15.9234 48.89 15.9459 48.8416 15.9601C48.7881 15.9758 48.7112 15.9793 48.6069 15.9678C48.5042 15.9565 48.3847 15.9318 48.2507 15.8988C47.9913 15.8352 47.6629 15.7361 47.3479 15.6674C47.0278 15.5976 46.6911 15.5513 46.3829 15.5927L46.4162 15.8405C46.6806 15.8049 46.9831 15.8437 47.2947 15.9117C47.6114 15.9807 47.9074 16.072 48.1911 16.1416C48.3287 16.1754 48.4605 16.2032 48.5795 16.2163C48.6969 16.2293 48.8122 16.2294 48.9121 16.2C49.0172 16.1691 49.1064 16.1049 49.1574 15.9963C49.2055 15.8939 49.2123 15.7671 49.1914 15.6224L48.9439 15.6582ZM46.3833 15.5927C46.0709 15.6336 45.8801 15.7595 45.7936 15.9566C45.7137 16.1387 45.7387 16.3516 45.7721 16.5283C45.7889 16.6169 45.8112 16.7118 45.8271 16.7884C45.8441 16.8699 45.8554 16.9376 45.8568 16.9929C45.8583 17.0495 45.8488 17.0757 45.8411 17.087C45.8371 17.0928 45.8254 17.1082 45.7746 17.1145L45.8057 17.3626C45.9072 17.3499 45.9931 17.308 46.0477 17.2278C46.0987 17.153 46.1088 17.0642 46.1067 16.9863C46.1046 16.907 46.0892 16.8206 46.0719 16.7375C46.0536 16.6495 46.0343 16.5694 46.0177 16.4819C45.9846 16.3064 45.9763 16.1625 46.0225 16.0571C46.0621 15.9667 46.1569 15.8745 46.4158 15.8406L46.3833 15.5927ZM45.7746 17.1145C45.5823 17.1387 45.4431 17.242 45.3308 17.3652C45.2235 17.4828 45.1256 17.6373 45.0327 17.7655C44.935 17.9002 44.8331 18.0217 44.7021 18.1105C44.5739 18.1974 44.412 18.2568 44.1881 18.2568V18.5068C44.4612 18.5068 44.6721 18.4329 44.8424 18.3174C45.0101 18.2037 45.1326 18.0537 45.2351 17.9122C45.3425 17.7641 45.4207 17.6376 45.5155 17.5336C45.6052 17.4352 45.694 17.3766 45.8057 17.3626L45.7746 17.1145ZM44.1881 18.2568C43.8817 18.2568 43.6694 18.4324 43.5319 18.6848C43.3975 18.9317 43.3267 19.2633 43.2931 19.6166C43.2256 20.3259 43.3039 21.175 43.3799 21.7488L43.6277 21.7161C43.5524 21.1466 43.4773 20.3204 43.542 19.6403C43.5744 19.2988 43.6411 19.0071 43.7515 18.8044C43.8589 18.6072 43.9988 18.5068 44.1881 18.5068V18.2568ZM43.3799 21.7489C43.3978 21.8841 43.384 21.951 43.3688 21.9802C43.3605 21.9962 43.3496 22.0084 43.3069 22.0107C43.256 22.0135 43.1803 21.9989 43.0758 21.9632C42.9737 21.9283 42.8563 21.8775 42.7256 21.8182C42.4683 21.7015 42.1615 21.5522 41.859 21.4535C41.5581 21.3553 41.2367 21.2982 40.9512 21.3871L41.0255 21.6258C41.2349 21.5606 41.4943 21.5974 41.7814 21.6911C42.0669 21.7843 42.3555 21.9249 42.6223 22.0459C42.7536 22.1055 42.8804 22.1606 42.9949 22.1997C43.1069 22.238 43.22 22.2658 43.3205 22.2603C43.4293 22.2544 43.5323 22.2078 43.5906 22.0956C43.642 21.9968 43.6476 21.8663 43.6277 21.716L43.3799 21.7489ZM40.9516 21.387C40.8162 21.4286 40.7069 21.4853 40.627 21.5622C40.5449 21.6414 40.4997 21.7364 40.486 21.8415C40.4601 22.039 40.5471 22.2632 40.6558 22.4853C40.712 22.6 40.7783 22.7221 40.847 22.8483C40.9162 22.9753 40.9882 23.1074 41.0582 23.2454C41.1981 23.5216 41.3267 23.8165 41.3997 24.1269L41.6431 24.0696C41.5634 23.7313 41.4249 23.4161 41.2812 23.1324C41.2093 22.9905 41.1353 22.8551 41.0666 22.7288C40.9974 22.6017 40.9338 22.4844 40.8804 22.3753C40.77 22.1498 40.7189 21.9884 40.7339 21.874C40.7405 21.8231 40.7606 21.7807 40.8005 21.7423C40.8427 21.7016 40.9124 21.6606 41.0251 21.6259L40.9516 21.387ZM41.3998 24.127C41.4735 24.4394 41.4749 24.6558 41.4371 24.813C41.4002 24.9665 41.3236 25.0735 41.2201 25.1644C41.112 25.2593 40.9797 25.3332 40.8255 25.4245C40.6757 25.5131 40.5111 25.6152 40.3655 25.7607L40.5422 25.9376C40.6638 25.816 40.8045 25.7273 40.9528 25.6396C41.0966 25.5545 41.2549 25.4665 41.3851 25.3522C41.5199 25.2337 41.6291 25.0839 41.6802 24.8714C41.7304 24.6626 41.722 24.4037 41.6431 24.0695L41.3998 24.127ZM40.3655 25.7607C40.3203 25.8059 40.2831 25.8153 40.2508 25.813C40.2128 25.8102 40.1603 25.7891 40.0942 25.7338C39.9608 25.6223 39.8148 25.4082 39.6785 25.1272C39.4073 24.5682 39.2029 23.8057 39.2029 23.2573H38.9529C38.9529 23.8522 39.1701 24.652 39.4536 25.2363C39.5946 25.527 39.7593 25.7797 39.9338 25.9256C40.0216 25.999 40.1225 26.0542 40.2326 26.0623C40.3484 26.0708 40.4541 26.0256 40.5422 25.9376L40.3655 25.7607ZM39.2029 23.2573C39.2029 23.1049 39.1818 22.975 39.1319 22.8735C39.0796 22.7671 38.9964 22.6943 38.8867 22.6649C38.783 22.6372 38.6697 22.6522 38.5581 22.6881C38.4452 22.7244 38.3228 22.7857 38.1943 22.8649C37.6841 23.1792 37.0081 23.819 36.3235 24.5422L36.505 24.714C37.1904 23.9901 37.8463 23.3729 38.3254 23.0777C38.4443 23.0045 38.5478 22.954 38.6346 22.9261C38.7228 22.8977 38.7831 22.896 38.8221 22.9064C38.8551 22.9152 38.8837 22.9353 38.9075 22.9838C38.9337 23.0371 38.9529 23.1239 38.9529 23.2573H39.2029ZM36.3236 24.542C35.5871 25.3174 35.7191 26.2933 35.9301 27.0793C35.9832 27.2772 36.0423 27.4666 36.0954 27.6393C36.1489 27.8134 36.1957 27.9691 36.2267 28.1055C36.258 28.2435 36.2702 28.3501 36.2614 28.4285C36.2533 28.5021 36.2288 28.5378 36.194 28.5594L36.3261 28.7717C36.444 28.6983 36.4959 28.5817 36.5099 28.4561C36.5234 28.3352 36.5034 28.1954 36.4705 28.0502C36.4371 27.9032 36.3875 27.7387 36.3344 27.5659C36.2808 27.3915 36.2232 27.2071 36.1715 27.0145C35.9633 26.2387 35.8669 25.3859 36.5049 24.7142L36.3236 24.542ZM36.1938 28.5596C36.0315 28.661 35.7383 28.9015 35.3716 29.2267C35.002 29.5546 34.5504 29.9752 34.0682 30.443C33.1042 31.3783 32.0147 32.5058 31.2113 33.4621L31.4028 33.6229C32.1985 32.6756 33.2815 31.5547 34.2423 30.6225C34.7225 30.1565 35.1713 29.7386 35.5375 29.4138C35.9066 29.0864 36.1846 28.8601 36.3263 28.7715L36.1938 28.5596ZM31.2114 33.462C30.4486 34.3692 29.2418 34.5606 28.0496 34.6279C27.4641 34.661 26.8718 34.6645 26.3721 34.7161C25.8732 34.7677 25.424 34.8698 25.1259 35.125L25.2885 35.3149C25.5235 35.1137 25.9032 35.0159 26.3978 34.9648C26.8917 34.9137 27.4577 34.9118 28.0637 34.8775C29.2549 34.8102 30.5649 34.6193 31.4027 33.6229L31.2114 33.462ZM25.1258 35.1251C24.6251 35.5547 24.1095 35.6099 23.5579 35.6568C23.0092 35.7034 22.4195 35.7413 21.8524 36.1872L22.0069 36.3838C22.5074 35.9902 23.0227 35.9532 23.579 35.9059C24.1324 35.8589 24.7218 35.8011 25.2886 35.3149L25.1258 35.1251ZM21.8525 36.1872C21.3156 36.6086 20.562 37.212 19.9145 37.5878C19.5879 37.7773 19.3055 37.8984 19.0995 37.9191C18.9987 37.9293 18.9297 37.914 18.8834 37.8845C18.8395 37.8567 18.7986 37.8051 18.7754 37.7045L18.5318 37.7607C18.5659 37.9084 18.637 38.0242 18.7494 38.0956C18.8593 38.1654 18.9909 38.1813 19.1246 38.1679C19.3875 38.1414 19.7096 37.9957 20.04 37.804C20.7063 37.4173 21.4762 36.8004 22.0069 36.3838L21.8525 36.1872ZM18.7755 37.7047C18.7024 37.3852 18.4255 37.2278 18.0952 37.1757C17.7643 37.1236 17.3453 37.1686 16.9082 37.2805C16.0343 37.5044 15.0383 38.0096 14.4464 38.6407L14.6288 38.8117C15.1794 38.2246 16.1283 37.7384 16.9703 37.5227C17.3911 37.4149 17.7727 37.378 18.0563 37.4227C18.3405 37.4674 18.4917 37.5854 18.5318 37.7604L18.7755 37.7047ZM14.4465 38.6406C13.884 39.2396 13.1513 39.8029 12.3991 40.2255C11.645 40.6493 10.8825 40.9255 10.26 40.9628L10.2749 41.2124C10.9505 41.1719 11.7511 40.8765 12.5216 40.4435C13.294 40.0094 14.0473 39.4309 14.6287 38.8117L14.4465 38.6406ZM10.2602 40.9628C9.53202 41.0049 9.18166 41.5882 8.95177 42.1533C8.8385 42.4318 8.7405 42.7443 8.65076 42.9813C8.55465 43.2351 8.4638 43.4155 8.35765 43.507L8.52086 43.6963C8.68123 43.5581 8.79027 43.3188 8.88455 43.0698C8.9852 42.8041 9.06809 42.5308 9.18334 42.2475C9.4105 41.6891 9.70772 41.2451 10.2747 41.2124L10.2602 40.9628ZM8.35795 43.5067C8.3035 43.5533 8.29122 43.5388 8.30477 43.5427C8.31238 43.545 8.29496 43.5436 8.26875 43.4846C8.21818 43.3707 8.18718 43.1607 8.17254 42.8978C8.14354 42.3768 8.181 41.7467 8.181 41.4692H7.931C7.931 41.72 7.89357 42.3843 7.92293 42.9117C7.93747 43.1729 7.96898 43.4255 8.04024 43.586C8.07495 43.6642 8.13328 43.7531 8.23473 43.7827C8.34211 43.8141 8.44175 43.7641 8.52056 43.6966L8.35795 43.5067ZM8.181 41.4692C8.181 41.4263 8.17524 41.379 8.15419 41.3365C8.13075 41.2892 8.08934 41.251 8.03204 41.2371C7.98109 41.2247 7.93288 41.2354 7.89645 41.249C7.85871 41.263 7.82135 41.2846 7.78567 41.3096C7.64609 41.407 7.46735 41.6011 7.27999 41.8508C6.90167 42.3549 6.45688 43.128 6.18558 43.9422L6.42276 44.0213C6.68449 43.2358 7.11561 42.4863 7.47995 42.0008C7.66392 41.7557 7.8232 41.5883 7.9288 41.5145C7.95441 41.4967 7.97255 41.4874 7.98356 41.4833C7.9959 41.4787 7.98972 41.4841 7.97313 41.48C7.95019 41.4745 7.9355 41.4583 7.93016 41.4475C7.92723 41.4416 7.931 41.4454 7.931 41.4692H8.181ZM6.18558 43.9422C5.90085 44.7968 6.25328 45.3975 6.49543 45.946C6.61808 46.2239 6.71394 46.4875 6.71627 46.7785C6.71857 47.0661 6.62921 47.394 6.35506 47.7962L6.56164 47.937C6.8587 47.5012 6.96905 47.1244 6.96626 46.7765C6.9635 46.4318 6.84946 46.129 6.72413 45.8451C6.47032 45.2701 6.17444 44.7665 6.42276 44.0213L6.18558 43.9422ZM6.35509 47.7961C5.78459 48.6324 5.21692 49.4888 5.00093 50.4099C4.78219 51.3427 4.92559 52.3321 5.7475 53.4276L5.94747 53.2776C5.16733 52.2377 5.04347 51.3235 5.24433 50.467C5.44795 49.5986 5.98673 48.7797 6.56161 47.937L6.35509 47.7961ZM5.74751 53.4276C6.54908 54.4956 7.17001 55.3623 7.52587 56.0924C7.88169 56.8224 7.95774 57.3857 7.71804 57.8655L7.94168 57.9772C8.23355 57.393 8.11871 56.7381 7.75059 55.9829C7.38251 55.2277 6.74648 54.3421 5.94746 53.2776L5.74751 53.4276ZM7.7181 57.8653C7.65908 57.9832 7.60819 58.0088 7.58086 58.0139C7.54976 58.0196 7.49628 58.0092 7.41229 57.945C7.24418 57.8165 7.05036 57.5479 6.84817 57.2354C6.65276 56.9334 6.45132 56.5932 6.27928 56.3601C6.1939 56.2444 6.10586 56.1408 6.01939 56.0798C5.97583 56.049 5.92161 56.021 5.85997 56.0167C5.79162 56.0119 5.72995 56.0374 5.68242 56.0853L5.85983 56.2615C5.86002 56.2613 5.85203 56.2667 5.84262 56.2661C5.83991 56.2659 5.84991 56.2661 5.87517 56.284C5.92634 56.3201 5.99437 56.3951 6.07813 56.5086C6.24438 56.7338 6.43354 57.0548 6.63828 57.3712C6.83623 57.6771 7.0521 57.9843 7.26046 58.1436C7.3647 58.2233 7.49116 58.2847 7.62633 58.2597C7.76528 58.234 7.86701 58.1263 7.94162 57.9773L7.7181 57.8653ZM5.68276 56.085C5.59805 56.1696 5.58287 56.2784 5.60008 56.3799C5.61655 56.477 5.66386 56.5797 5.7217 56.68C5.83736 56.8807 6.02326 57.118 6.1957 57.3504C6.37262 57.5889 6.53842 57.8259 6.6334 58.0423C6.72966 58.2616 6.73754 58.4231 6.65962 58.5406L6.86794 58.6788C7.01837 58.452 6.96879 58.1844 6.86232 57.9418C6.75456 57.6963 6.57234 57.4385 6.39648 57.2015C6.21613 56.9584 6.04447 56.7394 5.9383 56.5552C5.88523 56.4631 5.85556 56.3912 5.84656 56.3381C5.83829 56.2893 5.84912 56.2722 5.85949 56.2618L5.68276 56.085ZM6.66003 58.5399C6.64285 58.5655 6.62905 58.5732 6.62121 58.5761C6.61294 58.5791 6.5982 58.5816 6.57167 58.5749C6.51277 58.5599 6.42846 58.5083 6.31962 58.4114C6.10558 58.2207 5.85407 57.9085 5.59678 57.5863C5.34483 57.2708 5.08623 56.9441 4.86826 56.7465C4.76248 56.6506 4.64665 56.5662 4.53182 56.544C4.46914 56.5318 4.40158 56.5372 4.33943 56.5739C4.27928 56.6094 4.23839 56.6659 4.21047 56.7288L4.43899 56.8302C4.45346 56.7976 4.46514 56.79 4.46651 56.7892C4.46719 56.7888 4.46778 56.7885 4.46935 56.7883C4.47127 56.7881 4.47595 56.7878 4.48432 56.7894C4.52591 56.7975 4.59746 56.8384 4.70034 56.9317C4.89968 57.1124 5.14347 57.4193 5.40142 57.7423C5.65405 58.0587 5.91997 58.3902 6.15334 58.598C6.2682 58.7003 6.3901 58.7867 6.51019 58.8172C6.57316 58.8332 6.64112 58.8352 6.70754 58.8107C6.77439 58.7861 6.82726 58.7393 6.86753 58.6794L6.66003 58.5399ZM4.21065 56.7284C4.17711 56.8033 4.17701 56.8919 4.18858 56.9763C4.20056 57.0638 4.22769 57.1642 4.26544 57.2737C4.34101 57.493 4.46498 57.7652 4.61974 58.0726C4.92944 58.6879 5.37205 59.4629 5.82356 60.2702C6.27626 61.0796 6.73894 61.9232 7.09334 62.6824C7.45028 63.447 7.68777 64.1067 7.70644 64.5544L7.95622 64.544C7.93524 64.0406 7.67603 63.3396 7.31987 62.5766C6.96116 61.8082 6.49433 60.9574 6.04175 60.1482C5.58797 59.3368 5.14953 58.5691 4.84304 57.9602C4.68971 57.6556 4.5718 57.3954 4.50179 57.1923C4.46674 57.0906 4.44516 57.0073 4.43626 56.9423C4.42694 56.8743 4.4338 56.8418 4.4388 56.8306L4.21065 56.7284ZM7.70643 64.5542C7.72675 65.0612 7.93911 65.5543 8.23008 66.0432C8.52042 66.5312 8.89996 67.0319 9.26319 67.5461C9.99693 68.5848 10.6767 69.6962 10.6037 71.0204L10.8533 71.0342C10.9316 69.6154 10.201 68.4403 9.46738 67.4018C9.09694 66.8775 8.72859 66.3921 8.44492 65.9154C8.16186 65.4397 7.97408 64.9896 7.95623 64.5442L7.70643 64.5542ZM10.6037 71.0203C10.5255 72.4262 11.1872 74.2421 11.9119 75.776C12.6396 77.3161 13.4435 78.5975 13.6744 78.944L13.8825 78.8054C13.6567 78.4665 12.8593 77.1958 12.138 75.6692C11.4138 74.1365 10.7789 72.3714 10.8533 71.0342L10.6037 71.0203ZM13.6743 78.9438C13.7562 79.0675 13.7603 79.2622 13.6869 79.5593C13.6147 79.8511 13.4801 80.1983 13.335 80.6039C13.0485 81.4043 12.7328 82.4016 12.8897 83.4647L13.1371 83.4281C12.99 82.4321 13.2845 81.487 13.5703 80.6881C13.7114 80.2939 13.8534 79.9273 13.9296 79.6193C14.0044 79.3165 14.0283 79.0254 13.8826 78.8057L13.6743 78.9438ZM12.8898 83.465C13.0411 84.4729 12.8691 85.136 12.5288 85.546C12.189 85.9555 11.6588 86.1393 11.034 86.1393V86.3893C11.7043 86.3893 12.318 86.1914 12.7212 85.7057C13.1239 85.2204 13.2941 84.4746 13.137 83.4278L12.8898 83.465ZM11.034 86.1393C10.6707 86.1393 10.4237 86.2931 10.3118 86.5502C10.2057 86.7941 10.2346 87.1022 10.3455 87.3946C10.5675 87.9799 11.1531 88.5927 11.9327 88.6751L11.959 88.4265C11.2952 88.3563 10.7765 87.8259 10.5793 87.306C10.4806 87.0459 10.4711 86.8109 10.5411 86.6499C10.6054 86.5021 10.7489 86.3893 11.034 86.3893V86.1393ZM11.9328 88.6751C12.28 88.7117 12.4954 88.797 12.6516 88.9114C12.8097 89.0272 12.9184 89.1807 13.0413 89.3791C13.2889 89.7788 13.568 90.3156 14.3933 90.8665L14.5321 90.6586C13.7568 90.1411 13.5022 89.6483 13.2538 89.2474C13.1288 89.0456 12.999 88.856 12.7993 88.7097C12.5978 88.5621 12.3364 88.4663 11.9589 88.4265L11.9328 88.6751ZM14.3935 90.8666C14.8136 91.1463 15.3705 91.3264 15.9805 91.442C16.592 91.5579 17.2661 91.6106 17.927 91.6298C18.5883 91.6489 19.2392 91.6346 19.8047 91.6156C20.3729 91.5965 20.8491 91.5729 21.1705 91.5729V91.3229C20.8436 91.3229 20.3573 91.3469 19.7963 91.3657C19.2326 91.3847 18.5877 91.3988 17.9342 91.3799C17.2804 91.3609 16.6207 91.3088 16.027 91.1963C15.4318 91.0835 14.9122 90.9116 14.532 90.6585L14.3935 90.8666ZM21.1705 91.5729C21.5302 91.5729 21.8232 91.4342 22.0831 91.2362C22.3391 91.0412 22.5722 90.7809 22.8065 90.5328C23.2825 90.029 23.7856 89.5512 24.6072 89.5182L24.5972 89.2683C23.667 89.3058 23.1026 89.8553 22.6248 90.3612C22.3822 90.618 22.1669 90.8581 21.9316 91.0374C21.7002 91.2136 21.4592 91.3229 21.1705 91.3229V91.5729ZM24.6078 89.5181C25.4948 89.4788 25.9326 89.3232 26.2511 89.014C26.4054 88.8643 26.5265 88.6833 26.6566 88.4826C26.7882 88.2797 26.9327 88.0507 27.1382 87.7884L26.9414 87.6342C26.7277 87.907 26.577 88.146 26.4469 88.3465C26.3154 88.5493 26.2082 88.7073 26.077 88.8346C25.8247 89.0796 25.463 89.2299 24.5967 89.2684L24.6078 89.5181ZM27.138 87.7887C27.319 87.559 27.6861 87.3859 28.2332 87.2696C28.7744 87.1545 29.4656 87.1002 30.2632 87.0862C31.8583 87.0582 33.8535 87.1917 35.877 87.3078L35.8913 87.0582C33.8737 86.9424 31.8659 86.808 30.2588 86.8362C29.4552 86.8503 28.7455 86.905 28.1812 87.025C27.6227 87.1438 27.1798 87.3317 26.9416 87.634L27.138 87.7887ZM35.8771 87.3078C37.9087 87.4215 39.3798 87.1731 40.4245 86.6748C41.4735 86.1745 42.086 85.4252 42.401 84.556L42.166 84.4708C41.8731 85.2791 41.3058 85.9775 40.3169 86.4492C39.3238 86.9228 37.8992 87.1705 35.8911 87.0582L35.8771 87.3078ZM42.401 84.5562C42.518 84.2352 42.7721 83.9805 43.1235 83.762C43.4754 83.5431 43.9129 83.3678 44.3798 83.2005C44.8419 83.0348 45.3368 82.8757 45.7818 82.6931C46.2274 82.5102 46.6406 82.2972 46.943 82.0143L46.7723 81.8317C46.5036 82.083 46.1245 82.2822 45.6868 82.4618C45.2485 82.6417 44.769 82.7954 44.2955 82.9651C43.8269 83.1331 43.3676 83.3157 42.9915 83.5497C42.6149 83.7839 42.3097 84.0768 42.1661 84.4705L42.401 84.5562ZM46.9429 82.0145C47.4989 81.4965 48.0111 81.2237 48.7474 81.0951C49.4937 80.9647 50.4707 80.9822 51.96 81.0572L51.9726 80.8075C50.4883 80.7328 49.483 80.7128 48.7044 80.8488C47.9157 80.9866 47.3603 81.284 46.7725 81.8315L46.9429 82.0145ZM51.9599 81.0572C53.4697 81.1347 54.9173 80.7674 56.221 80.2889C56.8731 80.0496 57.4909 79.7817 58.0632 79.5269C58.637 79.2714 59.1621 79.0303 59.6353 78.8411L59.5425 78.609C59.0634 78.8006 58.5311 79.0449 57.9615 79.2985C57.3904 79.5528 56.7788 79.8179 56.1349 80.0542C54.8464 80.5271 53.435 80.8826 51.9727 80.8075L51.9599 81.0572ZM59.6355 78.841C60.5662 78.4677 61.8983 78.3533 63.2457 78.2771C64.5801 78.2017 65.9317 78.1639 66.8614 77.932L66.8009 77.6894C65.901 77.9139 64.5845 77.951 63.2316 78.0275C61.8919 78.1032 60.5176 78.2178 59.5424 78.609L59.6355 78.841ZM66.8617 77.9319C67.2842 77.8255 67.6126 77.9034 67.9047 78.077C68.2045 78.2551 68.4661 78.5335 68.75 78.8367C69.307 79.4316 69.9378 80.1125 71.0358 79.9911L71.0083 79.7426C70.0491 79.8487 69.4992 79.2711 68.9325 78.6658C68.6546 78.369 68.3685 78.0618 68.0325 77.8621C67.6887 77.6578 67.293 77.5655 66.8007 77.6895L66.8617 77.9319ZM71.0361 79.9911C72.0434 79.8775 72.7698 80.0261 73.3804 80.1953C73.9828 80.3623 74.5102 80.5644 75.0721 80.5243L75.0543 80.2749C74.5486 80.3111 74.084 80.1309 73.4471 79.9544C72.8184 79.7802 72.058 79.6243 71.0081 79.7426L71.0361 79.9911ZM75.0723 80.5243C75.3222 80.5061 75.4907 80.542 75.6202 80.6026C75.7518 80.6641 75.8532 80.7553 75.966 80.868C76.1933 81.0949 76.4455 81.388 77.0197 81.5096L77.0714 81.265C76.578 81.1606 76.3729 80.921 76.1427 80.6911C76.0268 80.5753 75.8995 80.4572 75.7261 80.3761C75.5507 80.2941 75.3379 80.2542 75.0541 80.2749L75.0723 80.5243ZM77.0192 81.5095C77.2697 81.5636 77.4344 81.6547 77.5372 81.7644C77.6383 81.8723 77.6891 82.0083 77.6934 82.1734C77.7022 82.5134 77.5126 82.9622 77.1733 83.4531L77.3789 83.5953C77.7254 83.094 77.9542 82.5896 77.9433 82.1669C77.9376 81.9505 77.8689 81.7528 77.7196 81.5934C77.5719 81.4358 77.3552 81.3263 77.0719 81.2651L77.0192 81.5095ZM77.1736 83.4527C77.0793 83.5879 77.0256 83.7193 77.0249 83.8502C77.0242 83.9842 77.079 84.0981 77.1633 84.1961C77.2457 84.2917 77.36 84.3766 77.4895 84.4576C77.6198 84.539 77.7738 84.6214 77.94 84.7092C78.6082 85.0623 79.5173 85.5275 80.2222 86.4921L80.424 86.3446C79.681 85.3279 78.7222 84.8398 78.0568 84.4882C77.8895 84.3998 77.7434 84.3215 77.622 84.2456C77.4998 84.1692 77.4106 84.1001 77.3527 84.0329C77.2968 83.968 77.2746 83.9103 77.2749 83.8515C77.2752 83.7897 77.3007 83.7074 77.3786 83.5957L77.1736 83.4527ZM80.2222 86.4921C80.5779 86.9789 80.755 87.3553 80.8369 87.6669C80.9183 87.9766 80.9077 88.2304 80.8757 88.4785C80.8443 88.7213 80.7868 88.9841 80.7882 89.269C80.7898 89.5627 80.852 89.8865 81.0512 90.2843L81.2748 90.1724C81.0922 89.8078 81.0396 89.5218 81.0382 89.2677C81.0369 89.0049 81.0886 88.7819 81.1236 88.5105C81.158 88.2444 81.1712 87.9554 81.0787 87.6033C80.9866 87.253 80.7922 86.8484 80.424 86.3446L80.2222 86.4921ZM81.0512 90.2842C81.2427 90.6673 81.4285 90.95 81.6317 91.113C81.7354 91.1963 81.8469 91.251 81.9682 91.2695C82.0896 91.2881 82.2114 91.2689 82.3331 91.2191C82.5708 91.1219 82.8202 90.9031 83.0987 90.5891C83.3797 90.2721 83.7023 89.844 84.0841 89.3104L83.8807 89.1649C83.4996 89.6976 83.1834 90.1167 82.9117 90.4232C82.6373 90.7326 82.4198 90.9136 82.2385 90.9877C82.1507 91.0236 82.0749 91.033 82.006 91.0224C81.9368 91.0118 81.8651 90.9798 81.7881 90.918C81.6297 90.7909 81.4637 90.5503 81.2748 90.1724L81.0512 90.2842ZM84.0841 89.3104C84.4544 88.7923 84.8305 88.4912 85.1878 88.3008C85.5469 88.1093 85.8918 88.0265 86.2115 87.9501C86.5236 87.8756 86.8306 87.8042 87.0688 87.6232C87.3166 87.4348 87.4752 87.1419 87.5352 86.6628L87.2871 86.6318C87.2326 87.0671 87.0958 87.2886 86.9175 87.4241C86.7294 87.5671 86.4793 87.6291 86.1534 87.707C85.835 87.7831 85.461 87.8718 85.0701 88.0802C84.6774 88.2896 84.2725 88.6169 83.8807 89.165L84.0841 89.3104ZM87.5352 86.6628C87.6466 85.7736 88.0942 84.8063 88.6411 84.1773C88.9149 83.8625 89.2047 83.6426 89.479 83.5524C89.7456 83.4648 89.9995 83.498 90.23 83.6954L90.3926 83.5056C90.0894 83.2458 89.7424 83.2027 89.401 83.3149C89.0672 83.4246 88.7417 83.6807 88.4525 84.0133C87.8735 84.679 87.4048 85.6924 87.2871 86.6318L87.5352 86.6628ZM90.2301 83.6956C90.3557 83.8028 90.4301 83.8962 90.4707 83.9815C90.5101 84.0643 90.5207 84.1455 90.5077 84.2358C90.4943 84.3292 90.4554 84.4347 90.3908 84.5623C90.3262 84.6898 90.2401 84.8318 90.1371 84.9991C89.7248 85.669 89.0858 86.6756 88.7393 88.452L88.9847 88.4999C89.3224 86.7687 89.9419 85.7933 90.35 85.1302C90.4522 84.9642 90.5438 84.8135 90.6138 84.6752C90.6838 84.5371 90.7362 84.4036 90.7552 84.2713C90.7746 84.1358 90.7585 84.0045 90.6965 83.8741C90.6356 83.7463 90.5338 83.6261 90.3925 83.5054L90.2301 83.6956ZM88.7393 88.452C88.5691 89.322 88.3682 89.8475 88.166 90.1654C87.9673 90.4779 87.7692 90.5873 87.5937 90.631C87.5023 90.6537 87.4118 90.6598 87.3198 90.6624C87.2329 90.6648 87.1323 90.6638 87.0445 90.6761C86.9523 90.6891 86.8557 90.7185 86.7737 90.7929C86.6921 90.8669 86.6388 90.9727 86.6066 91.1115L86.8501 91.168C86.8752 91.0598 86.91 91.0068 86.9417 90.9781C86.9728 90.9499 87.0143 90.9328 87.0793 90.9237C87.1487 90.9139 87.2244 90.9151 87.3268 90.9123C87.424 90.9096 87.536 90.9029 87.6541 90.8736C87.8977 90.813 88.1472 90.6608 88.377 90.2995C88.6034 89.9436 88.8119 89.3831 88.9846 88.5L88.7393 88.452ZM86.6066 91.1116C86.5294 91.4453 86.7693 91.7088 87.0712 91.8766C87.3815 92.049 87.8091 92.155 88.2387 92.1698C88.6678 92.1846 89.116 92.1091 89.4617 91.9006C89.8142 91.688 90.0545 91.3392 90.0545 90.8345H89.8045C89.8045 91.2448 89.616 91.5155 89.3326 91.6865C89.0422 91.8617 88.6471 91.9338 88.2473 91.92C87.848 91.9062 87.461 91.8072 87.1926 91.6581C86.9157 91.5042 86.8128 91.3295 86.8501 91.1679L86.6066 91.1116ZM90.0545 90.8345C90.0545 90.383 90.0922 89.999 90.1663 89.703C90.2415 89.4024 90.3488 89.2144 90.4699 89.1264C90.5774 89.0483 90.7214 89.0317 90.9323 89.1446C91.149 89.2606 91.4176 89.5057 91.7382 89.919L91.9358 89.7657C91.6074 89.3424 91.313 89.0647 91.0503 88.9242C90.7819 88.7805 90.5301 88.7736 90.323 88.9241C90.1295 89.0647 90.0034 89.3241 89.9238 89.6424C89.843 89.9653 89.8045 90.3715 89.8045 90.8345H90.0545ZM91.738 89.9186C92.0455 90.3179 92.1494 90.6916 92.1437 91.0385C92.1379 91.3891 92.02 91.7226 91.8661 92.0394C91.7892 92.1976 91.7045 92.3494 91.6216 92.4965C91.5393 92.6423 91.4578 92.7851 91.3911 92.9198C91.2622 93.1801 91.1634 93.456 91.2629 93.7034L91.4948 93.6101C91.4408 93.4758 91.4845 93.2944 91.6151 93.0308C91.6781 92.9035 91.7556 92.7677 91.8393 92.6193C91.9223 92.4723 92.0104 92.3145 92.091 92.1487C92.2518 91.8176 92.387 91.4457 92.3936 91.0426C92.4003 90.636 92.2761 90.2077 91.936 89.7661L91.738 89.9186ZM91.2627 93.7029C91.3091 93.8196 91.3804 93.9086 91.4741 93.9698C91.5664 94.0301 91.6726 94.0583 91.7822 94.067C91.9972 94.0841 92.2499 94.0274 92.4984 93.9555C92.6244 93.919 92.7538 93.8772 92.8809 93.8363C93.0086 93.7952 93.1342 93.7549 93.2558 93.7204C93.5026 93.6504 93.7164 93.609 93.8818 93.6255L93.9067 93.3768C93.6903 93.3551 93.4366 93.4092 93.1875 93.4799C93.0611 93.5158 92.9315 93.5573 92.8043 93.5983C92.6763 93.6395 92.5507 93.6801 92.4289 93.7153C92.1818 93.7869 91.9677 93.8309 91.802 93.8178C91.7213 93.8114 91.6587 93.7918 91.6108 93.7605C91.5643 93.7302 91.5242 93.6839 91.495 93.6105L91.2627 93.7029ZM93.8816 93.6255C94.1815 93.656 94.5266 93.8481 94.8776 94.1655C95.2258 94.4804 95.5668 94.907 95.8584 95.3815C96.1499 95.8558 96.3895 96.3738 96.5372 96.8694C96.6855 97.3668 96.7384 97.832 96.6672 98.205L96.9128 98.2518C96.9943 97.8242 96.931 97.3154 96.7768 96.798C96.622 96.2787 96.3727 95.7408 96.0714 95.2506C95.7703 94.7607 95.4148 94.3143 95.0453 93.9801C94.6786 93.6484 94.2847 93.4152 93.9069 93.3768L93.8816 93.6255ZM96.6672 98.2051C96.5177 98.9921 96.3183 99.8047 96.4969 100.58C96.6792 101.37 97.2458 102.101 98.5622 102.761L98.6742 102.537C97.4003 101.898 96.9008 101.219 96.7405 100.523C96.5767 99.8127 96.7584 99.0645 96.9128 98.2517L96.6672 98.2051ZM98.5624 102.761C99.8484 103.403 100.238 103.775 100.559 103.997C100.727 104.114 100.879 104.191 101.115 104.237C101.344 104.281 101.65 104.294 102.126 104.294V104.044C101.649 104.044 101.365 104.03 101.162 103.991C100.967 103.954 100.847 103.893 100.701 103.792C100.393 103.578 99.9812 103.19 98.674 102.537L98.5624 102.761ZM102.126 104.294C103.056 104.294 104.506 104.669 105.866 105.164C106.544 105.41 107.195 105.685 107.742 105.954C108.291 106.224 108.727 106.485 108.982 106.704L109.144 106.514C108.865 106.275 108.406 106.002 107.852 105.73C107.296 105.456 106.637 105.178 105.952 104.929C104.587 104.432 103.102 104.044 102.126 104.044V104.294ZM108.982 106.704C109.285 106.962 109.696 107.035 110.133 106.982C110.57 106.929 111.046 106.75 111.499 106.487C112.403 105.962 113.251 105.082 113.528 104.126L113.288 104.057C113.034 104.931 112.243 105.766 111.374 106.271C110.941 106.522 110.497 106.686 110.103 106.734C109.707 106.781 109.375 106.711 109.144 106.514L108.982 106.704ZM113.528 104.127C113.655 103.695 113.857 103.504 114.05 103.438C114.248 103.371 114.472 103.423 114.664 103.551C114.858 103.68 114.998 103.872 115.034 104.054C115.052 104.143 115.044 104.226 115.01 104.302C114.976 104.376 114.91 104.452 114.796 104.517L114.919 104.734C115.072 104.648 115.178 104.536 115.237 104.406C115.297 104.276 115.306 104.137 115.279 104.005C115.227 103.744 115.038 103.499 114.803 103.343C114.567 103.185 114.262 103.103 113.97 103.202C113.675 103.302 113.429 103.576 113.288 104.056L113.528 104.127ZM114.795 104.517C114.493 104.69 114.364 104.935 114.365 105.191C114.367 105.436 114.487 105.671 114.638 105.844C114.787 106.012 114.99 106.148 115.184 106.156C115.287 106.16 115.39 106.127 115.467 106.042C115.542 105.96 115.581 105.843 115.592 105.704L115.342 105.685C115.334 105.793 115.306 105.848 115.282 105.874C115.262 105.896 115.235 105.908 115.194 105.906C115.099 105.903 114.954 105.824 114.826 105.678C114.701 105.536 114.616 105.357 114.615 105.19C114.615 105.033 114.687 104.867 114.92 104.734L114.795 104.517ZM115.592 105.704C115.61 105.463 115.651 105.234 115.708 105.044C115.765 104.85 115.835 104.71 115.902 104.635C115.935 104.599 115.959 104.588 115.972 104.585C115.98 104.583 115.993 104.582 116.018 104.598C116.045 104.618 116.084 104.658 116.128 104.734C116.171 104.809 116.217 104.912 116.263 105.05L116.5 104.971C116.451 104.823 116.399 104.702 116.344 104.608C116.29 104.515 116.229 104.44 116.159 104.392C116.086 104.342 116.002 104.322 115.917 104.341C115.836 104.359 115.769 104.409 115.716 104.468C115.612 104.583 115.529 104.766 115.468 104.972C115.406 105.182 115.362 105.429 115.342 105.685L115.592 105.704ZM116.263 105.05C116.47 105.669 116.948 105.974 117.407 106.231C117.878 106.496 118.316 106.707 118.562 107.128L118.778 107.002C118.49 106.508 117.974 106.263 117.53 106.013C117.073 105.758 116.674 105.492 116.5 104.971L116.263 105.05ZM118.562 107.128C118.83 107.587 119.124 108.003 119.359 108.207C119.419 108.259 119.481 108.303 119.543 108.329C119.605 108.355 119.683 108.37 119.759 108.337C119.836 108.303 119.879 108.234 119.903 108.163C119.927 108.093 119.937 108.005 119.937 107.903H119.687C119.687 107.992 119.678 108.049 119.666 108.083C119.655 108.117 119.647 108.113 119.658 108.108C119.669 108.103 119.668 108.111 119.64 108.099C119.612 108.087 119.573 108.062 119.523 108.019C119.321 107.843 119.044 107.459 118.777 107.002L118.562 107.128ZM119.937 107.903C119.937 107.539 120.01 107.205 120.219 106.909C120.43 106.611 120.787 106.338 121.382 106.115L121.294 105.881C120.668 106.116 120.263 106.414 120.015 106.764C119.767 107.116 119.687 107.505 119.687 107.903H119.937ZM121.382 106.115C122.007 105.879 122.514 105.546 123.024 105.142C123.279 104.94 123.536 104.719 123.808 104.483C124.081 104.247 124.371 103.996 124.693 103.73L124.534 103.537C124.209 103.805 123.917 104.059 123.645 104.294C123.372 104.53 123.119 104.747 122.869 104.946C122.37 105.342 121.886 105.658 121.294 105.881L121.382 106.115ZM124.693 103.73C124.994 103.483 125.546 103.274 126.236 103.103C126.92 102.934 127.719 102.806 128.498 102.711C130.056 102.521 131.519 102.464 131.78 102.464V102.214C131.508 102.214 130.035 102.272 128.468 102.463C127.684 102.558 126.873 102.688 126.175 102.861C125.483 103.032 124.882 103.251 124.534 103.537L124.693 103.73ZM131.78 102.464C131.861 102.464 131.924 102.42 131.969 102.372C132.013 102.325 132.05 102.261 132.083 102.191C132.148 102.05 132.207 101.852 132.262 101.617C132.372 101.145 132.47 100.495 132.561 99.7757C132.651 99.0555 132.735 98.2616 132.815 97.5012C132.894 96.74 132.97 96.0129 133.046 95.4235L132.798 95.3917C132.722 95.9845 132.646 96.715 132.566 97.4751C132.486 98.236 132.403 99.0273 132.313 99.7444C132.222 100.463 132.125 101.102 132.019 101.56C131.965 101.79 131.91 101.968 131.856 102.086C131.828 102.145 131.804 102.182 131.785 102.202C131.766 102.223 131.765 102.214 131.78 102.214V102.464ZM133.046 95.4236C133.194 94.281 133.743 93.6199 134.316 92.9145C134.889 92.2074 135.481 91.4602 135.638 90.1656L135.39 90.1355C135.242 91.355 134.691 92.0548 134.121 92.757C133.55 93.461 132.956 94.1714 132.798 95.3916L133.046 95.4236ZM135.638 90.1656C135.788 88.9325 136.521 87.1589 137.311 85.6567C137.705 84.9077 138.109 84.2315 138.457 83.7299C138.631 83.4789 138.789 83.2738 138.924 83.1257C138.991 83.0516 139.05 82.9936 139.101 82.9517C139.154 82.9085 139.191 82.8883 139.212 82.8812L139.134 82.6437C139.07 82.6649 139.005 82.7075 138.943 82.7585C138.879 82.8107 138.811 82.8782 138.739 82.9578C138.594 83.1169 138.429 83.3317 138.252 83.5875C137.897 84.0995 137.487 84.7848 137.09 85.5403C136.298 87.0471 135.545 88.8546 135.39 90.1355L135.638 90.1656ZM139.213 82.881C139.909 82.6476 141.279 81.9378 141.355 80.4058L141.106 80.3934C141.038 81.7585 139.812 82.4165 139.133 82.644L139.213 82.881ZM141.355 80.4063C141.373 80.0669 141.49 79.7117 141.663 79.3366C141.835 78.9611 142.058 78.5761 142.284 78.1731C142.729 77.3765 143.185 76.511 143.185 75.599H142.935C142.935 76.4363 142.515 77.2469 142.065 78.0511C141.843 78.4485 141.613 78.8452 141.436 79.2322C141.258 79.6196 141.126 80.008 141.106 80.3929L141.355 80.4063ZM143.185 75.599C143.185 74.7424 143.429 73.8054 143.658 73.0049C143.772 72.6081 143.883 72.2415 143.955 71.9432C143.992 71.7936 144.019 71.657 144.032 71.5389C144.045 71.4233 144.046 71.3133 144.02 71.2229L143.78 71.2925C143.792 71.335 143.796 71.4054 143.784 71.5109C143.772 71.6139 143.748 71.7389 143.712 71.8843C143.642 72.1759 143.533 72.5329 143.418 72.936C143.189 73.7352 142.935 74.7032 142.935 75.599H143.185ZM144.02 71.223C143.941 70.9503 143.756 70.4136 143.728 69.7929C143.7 69.1753 143.829 68.4881 144.371 67.9121L144.189 67.7407C143.586 68.3813 143.448 69.1434 143.478 69.8041C143.508 70.4617 143.705 71.0324 143.78 71.2925L144.02 71.223ZM144.371 67.912C144.995 67.2486 144.864 66.5199 144.68 65.9375C144.634 65.7926 144.583 65.6519 144.54 65.5259C144.497 65.3975 144.46 65.2833 144.439 65.1815C144.394 64.9737 144.42 64.8655 144.511 64.7973L144.361 64.5975C144.147 64.7582 144.145 65.0028 144.194 65.2336C144.219 65.3512 144.26 65.4776 144.304 65.6067C144.349 65.7381 144.397 65.8716 144.442 66.0129C144.619 66.5748 144.715 67.1816 144.189 67.7408L144.371 67.912ZM68.1799 5.02504C68.1492 4.84103 67.9902 4.73404 67.817 4.67269C67.6384 4.60945 67.4035 4.57855 67.1421 4.57076C66.617 4.5551 65.95 4.63192 65.3276 4.766C64.7077 4.89956 64.1163 5.09328 63.7495 5.31935C63.5702 5.42989 63.419 5.56338 63.3665 5.72329C63.3386 5.80821 63.3399 5.89712 63.3753 5.9839C63.4095 6.06799 63.4726 6.14239 63.5557 6.20875L63.7117 6.01344C63.6501 5.96423 63.62 5.92202 63.6067 5.8895C63.5946 5.85967 63.5939 5.83196 63.604 5.80129C63.6274 5.73001 63.7116 5.6364 63.8807 5.53217C64.2109 5.32868 64.7689 5.1421 65.3803 5.01039C65.9892 4.87919 66.6353 4.80576 67.1346 4.82065C67.3854 4.82813 67.5905 4.85771 67.7335 4.90835C67.8818 4.96089 67.9258 5.02122 67.9333 5.06616L68.1799 5.02504ZM63.5559 6.20891C63.6738 6.30272 63.8392 6.36252 64.0245 6.39981C64.2121 6.43756 64.4318 6.45451 64.6682 6.45452C65.1411 6.45455 65.6935 6.38671 66.2152 6.27111C66.736 6.15574 67.2345 5.99095 67.5967 5.79294C67.7773 5.6942 67.9314 5.58323 68.0364 5.45988C68.1424 5.33545 68.2068 5.18767 68.1799 5.0252L67.9333 5.066C67.9442 5.13211 67.9226 5.20805 67.8461 5.29775C67.7688 5.38853 67.644 5.4821 67.4767 5.57358C67.1431 5.756 66.6696 5.91437 66.1612 6.02703C65.6537 6.13946 65.1197 6.20455 64.6682 6.20452C64.4423 6.20451 64.2402 6.1882 64.0738 6.15472C63.9052 6.12078 63.7845 6.07137 63.7115 6.01329L63.5559 6.20891ZM85.1244 95.3432C85.3593 95.5562 85.7197 95.6903 86.119 95.761C86.5216 95.8323 86.979 95.8418 87.4226 95.7931C87.8659 95.7445 88.3015 95.6373 88.6587 95.4708C89.0133 95.3056 89.3073 95.0741 89.4392 94.7672L89.2095 94.6685C89.1124 94.8944 88.8822 95.0909 88.5531 95.2442C88.2266 95.3963 87.819 95.4982 87.3954 95.5446C86.9721 95.591 86.5388 95.5814 86.1626 95.5148C85.7832 95.4477 85.4767 95.3252 85.2924 95.158L85.1244 95.3432ZM89.4393 94.7671C89.4759 94.6817 89.4886 94.5938 89.4659 94.5086C89.4433 94.4235 89.3895 94.3572 89.3229 94.307C89.1951 94.211 88.9999 94.1591 88.7835 94.132C88.3435 94.0768 87.731 94.1149 87.1362 94.2063C86.5408 94.2978 85.9486 94.4451 85.5488 94.6159C85.3531 94.6995 85.1843 94.7966 85.0913 94.9094C85.0429 94.9681 85.0058 95.0422 85.0107 95.128C85.0156 95.2148 85.0619 95.2868 85.1247 95.3434L85.2921 95.1578C85.2608 95.1295 85.2603 95.1147 85.2603 95.1139C85.2602 95.112 85.2599 95.0978 85.2841 95.0685C85.3364 95.0051 85.4565 94.9272 85.647 94.8458C86.0198 94.6865 86.5892 94.5433 87.1741 94.4534C87.7596 94.3634 88.3458 94.3291 88.7524 94.3801C88.9594 94.406 89.0995 94.4519 89.1726 94.5069C89.2064 94.5323 89.2195 94.5548 89.2243 94.5729C89.2292 94.5911 89.23 94.6208 89.2095 94.6686L89.4393 94.7671ZM119.648 116.303C119.157 116.358 118.595 116.275 118.012 116.115C117.43 115.956 116.835 115.724 116.276 115.489C115.722 115.255 115.196 115.015 114.771 114.849C114.557 114.766 114.363 114.699 114.197 114.659C114.035 114.62 113.881 114.603 113.758 114.637L113.825 114.878C113.883 114.861 113.984 114.865 114.138 114.902C114.288 114.938 114.47 115 114.68 115.082C115.102 115.247 115.613 115.481 116.179 115.719C116.741 115.955 117.348 116.193 117.946 116.356C118.543 116.52 119.139 116.612 119.676 116.551L119.648 116.303ZM113.759 114.636C113.665 114.662 113.601 114.725 113.567 114.809C113.536 114.887 113.531 114.978 113.539 115.07C113.554 115.255 113.623 115.498 113.721 115.772C113.917 116.322 114.247 117.051 114.564 117.803C114.883 118.56 115.192 119.344 115.355 120.023C115.436 120.362 115.48 120.668 115.473 120.929C115.465 121.189 115.407 121.392 115.296 121.534L115.493 121.688C115.649 121.488 115.714 121.226 115.723 120.936C115.731 120.645 115.682 120.314 115.598 119.964C115.429 119.264 115.113 118.463 114.794 117.706C114.472 116.943 114.149 116.23 113.956 115.688C113.86 115.416 113.8 115.2 113.788 115.05C113.782 114.974 113.789 114.928 113.799 114.903C113.806 114.884 113.813 114.881 113.824 114.878L113.759 114.636ZM115.296 121.534C114.982 121.937 115.073 122.49 115.343 123.046C115.617 123.609 116.096 124.223 116.648 124.794C117.201 125.366 117.834 125.903 118.421 126.311C119.003 126.716 119.557 127.007 119.949 127.069L119.988 126.822C119.656 126.77 119.143 126.509 118.564 126.106C117.991 125.707 117.37 125.181 116.828 124.62C116.284 124.058 115.825 123.466 115.568 122.937C115.306 122.399 115.273 121.971 115.493 121.688L115.296 121.534ZM119.95 127.069C120.334 127.129 120.608 127.066 120.81 126.917C121.007 126.772 121.118 126.559 121.205 126.367C121.296 126.163 121.359 125.991 121.459 125.864C121.505 125.804 121.557 125.761 121.618 125.732C121.679 125.705 121.757 125.689 121.864 125.697L121.883 125.447C121.741 125.437 121.619 125.457 121.514 125.505C121.408 125.554 121.327 125.626 121.262 125.71C121.137 125.868 121.056 126.087 120.977 126.264C120.892 126.453 120.803 126.612 120.662 126.715C120.527 126.814 120.326 126.875 119.988 126.822L119.95 127.069ZM121.864 125.697C122.133 125.718 122.335 125.663 122.476 125.529C122.613 125.398 122.669 125.214 122.694 125.027C122.719 124.841 122.717 124.628 122.718 124.427C122.719 124.22 122.724 124.021 122.76 123.844L122.514 123.795C122.474 123.999 122.469 124.22 122.468 124.425C122.467 124.636 122.469 124.828 122.446 124.994C122.424 125.16 122.379 125.276 122.304 125.348C122.232 125.416 122.111 125.465 121.883 125.447L121.864 125.697ZM122.76 123.844C122.776 123.762 122.799 123.742 122.803 123.74C122.804 123.739 122.806 123.737 122.814 123.737C122.822 123.736 122.837 123.737 122.859 123.743C122.906 123.757 122.967 123.787 123.046 123.834C123.123 123.881 123.207 123.938 123.302 124.001C123.486 124.124 123.706 124.266 123.937 124.346C124.17 124.427 124.429 124.448 124.679 124.311L124.559 124.092C124.391 124.184 124.211 124.176 124.018 124.11C123.822 124.042 123.627 123.918 123.44 123.793C123.349 123.732 123.258 123.671 123.175 123.62C123.093 123.57 123.008 123.525 122.927 123.503C122.846 123.48 122.747 123.474 122.661 123.534C122.578 123.591 122.536 123.688 122.514 123.795L122.76 123.844ZM124.679 124.311C124.818 124.235 124.909 124.105 124.968 123.956C125.028 123.807 125.061 123.628 125.08 123.437C125.118 123.056 125.101 122.593 125.096 122.161C125.092 121.72 125.1 121.313 125.179 121.018C125.219 120.871 125.273 120.765 125.341 120.696C125.405 120.63 125.49 120.591 125.611 120.591V120.341C125.427 120.341 125.277 120.404 125.163 120.52C125.053 120.632 124.983 120.785 124.938 120.953C124.848 121.287 124.842 121.728 124.846 122.163C124.851 122.608 124.867 123.049 124.831 123.412C124.813 123.593 124.783 123.745 124.736 123.863C124.689 123.98 124.63 124.053 124.559 124.092L124.679 124.311ZM125.611 120.591C125.803 120.591 125.956 120.511 126.067 120.372C126.174 120.238 126.239 120.056 126.277 119.851C126.354 119.44 126.33 118.889 126.258 118.31C126.114 117.149 125.769 115.829 125.578 115.178L125.338 115.249C125.528 115.894 125.869 117.2 126.01 118.341C126.081 118.914 126.101 119.433 126.032 119.805C125.997 119.991 125.943 120.128 125.872 120.215C125.806 120.298 125.723 120.341 125.611 120.341V120.591ZM125.578 115.178C125.52 114.983 125.402 114.848 125.236 114.771C125.075 114.696 124.88 114.681 124.669 114.7C124.249 114.737 123.715 114.915 123.144 115.133C122.562 115.356 121.953 115.616 121.339 115.843C120.731 116.068 120.147 116.249 119.648 116.303L119.676 116.552C120.207 116.494 120.814 116.304 121.426 116.078C122.033 115.853 122.672 115.581 123.233 115.366C123.806 115.147 124.31 114.982 124.691 114.949C124.881 114.932 125.027 114.949 125.131 114.997C125.229 115.043 125.3 115.119 125.338 115.249L125.578 115.178Z" fill="#868686"/>
</g>
<defs>
<filter id="filter0_d_6252_1298" x="0.181641" y="0.0375977" width="148.651" height="133.054" filterUnits="userSpaceOnUse" color-interpolation-filters="sRGB">
<feFlood flood-opacity="0" result="BackgroundImageFix"/>
<feColorMatrix in="SourceAlpha" type="matrix" values="0 0 0 0 0 0 0 0 0 0 0 0 0 0 0 0 0 0 127 0" result="hardAlpha"/>
<feOffset dy="2"/>
<feGaussianBlur stdDeviation="2"/>
<feColorMatrix type="matrix" values="0 0 0 0 0 0 0 0 0 0 0 0 0 0 0 0 0 0 0.01 0"/>
<feBlend mode="normal" in2="BackgroundImageFix" result="effect1_dropShadow_6252_1298"/>
<feBlend mode="normal" in="SourceGraphic" in2="effect1_dropShadow_6252_1298" result="shape"/>
</filter>
</defs>
</svg>
