<svg width="24" height="28" viewBox="0 0 24 28" fill="none" xmlns="http://www.w3.org/2000/svg">
<g filter="url(#filter0_d_6252_1079)">
<path fill-rule="evenodd" clip-rule="evenodd" d="M19.1643 18.4356C18.5578 15.0689 18.2171 11.8019 17.7737 11.8019C17.1569 11.8019 16.3361 14.6829 15.3067 14.4745C14.2744 14.2705 14.2744 10.7746 15.5108 10.7746C16.7472 10.7746 18.1863 8.09761 18.1863 7.2728C18.1863 6.45239 16.9543 6.45239 15.7179 6.45239C14.4785 6.45239 11.8045 6.6564 11.8045 6.6564C11.8045 6.6564 10.1525 6.04146 10.1525 5.00971C10.1525 3.9809 9.53874 3.15609 7.88823 3.15609C6.24359 3.15609 6.24359 1.51234 5.00571 3.15609C3.77077 4.80278 7.68412 4.80278 7.27149 6.04146C6.86033 7.2728 5.62539 6.45239 5.41834 7.47827C5.21129 8.50561 5.62832 11.1826 6.24359 12.6238C6.71643 13.7348 7.43008 16.5438 7.45505 18.9097C8.41246 18.7262 8.86326 18.2815 9.75166 18.2815C10.8691 18.2815 12.3934 18.1303 12.4961 16.9592C12.596 15.7924 13.8691 14.9294 14.5769 15.2831C15.2906 15.6398 16.3566 18.4855 16.4066 19.9561C16.4242 20.4272 16.6254 21.0495 16.9425 21.6923C17.5108 21.1317 18.1731 20.6855 18.1731 20.6855C18.1731 20.6855 18.5931 19.121 19.1643 18.4356Z" fill="white"/>
<path fill-rule="evenodd" clip-rule="evenodd" d="M19.1643 18.4356C18.5578 15.0689 18.2171 11.8019 17.7737 11.8019C17.1569 11.8019 16.3361 14.6829 15.3067 14.4745C14.2744 14.2705 14.2744 10.7746 15.5108 10.7746C16.7472 10.7746 18.1863 8.09761 18.1863 7.2728C18.1863 6.45239 16.9543 6.45239 15.7179 6.45239C14.4785 6.45239 11.8045 6.6564 11.8045 6.6564C11.8045 6.6564 10.1525 6.04146 10.1525 5.00971C10.1525 3.9809 9.53874 3.15609 7.88823 3.15609C6.24359 3.15609 6.24359 1.51234 5.00571 3.15609C3.77077 4.80278 7.68412 4.80278 7.27149 6.04146C6.86033 7.2728 5.62539 6.45239 5.41834 7.47827C5.21129 8.50561 5.62832 11.1826 6.24359 12.6238C6.71643 13.7348 7.43008 16.5438 7.45505 18.9097C8.41246 18.7262 8.86326 18.2815 9.75166 18.2815C10.8691 18.2815 12.3934 18.1303 12.4961 16.9592C12.596 15.7924 13.8691 14.9294 14.5769 15.2831C15.2906 15.6398 16.3566 18.4855 16.4066 19.9561C16.4242 20.4272 16.6254 21.0495 16.9425 21.6923C17.5108 21.1317 18.1731 20.6855 18.1731 20.6855C18.1731 20.6855 18.5931 19.121 19.1643 18.4356Z" stroke="#868686" stroke-width="0.25"/>
</g>
<defs>
<filter id="filter0_d_6252_1079" x="0.638672" y="0.300415" width="22.6592" height="27.6024" filterUnits="userSpaceOnUse" color-interpolation-filters="sRGB">
<feFlood flood-opacity="0" result="BackgroundImageFix"/>
<feColorMatrix in="SourceAlpha" type="matrix" values="0 0 0 0 0 0 0 0 0 0 0 0 0 0 0 0 0 0 127 0" result="hardAlpha"/>
<feOffset dy="2"/>
<feGaussianBlur stdDeviation="2"/>
<feColorMatrix type="matrix" values="0 0 0 0 0 0 0 0 0 0 0 0 0 0 0 0 0 0 0.01 0"/>
<feBlend mode="normal" in2="BackgroundImageFix" result="effect1_dropShadow_6252_1079"/>
<feBlend mode="normal" in="SourceGraphic" in2="effect1_dropShadow_6252_1079" result="shape"/>
</filter>
</defs>
</svg>
