<svg width="23" height="19" viewBox="0 0 23 19" fill="none" xmlns="http://www.w3.org/2000/svg">
<g filter="url(#filter0_d_6252_1110)">
<path fill-rule="evenodd" clip-rule="evenodd" d="M5.50987 5.2302C5.58623 5.76589 6.42617 7.06034 6.72867 6.52906C7.0341 5.99484 7.79768 7.21444 8.48197 7.59603C9.16919 7.97614 10.5392 8.43258 10.6171 8.89048C10.6934 9.34838 10.9225 10.3376 11.6082 10.0338C12.294 9.7285 13.1325 8.66153 13.1325 9.26913C13.1325 9.87819 13.3615 11.0215 14.1207 10.8688C14.8858 10.7162 15.1134 12.1662 15.877 12.0107C16.015 11.9857 16.2059 11.9696 16.4276 11.9622C16.3322 10.2378 16.9504 9.4247 17.6273 9.04751C17.7859 8.74372 18.2411 8.42524 18.3145 8.05099C18.4159 7.54466 17.2999 6.52906 17.3982 5.91852C17.4041 5.8877 17.41 5.84514 17.4129 5.80992C17.1618 5.61619 16.9034 5.39898 16.664 5.15829C15.7316 4.22781 14.7991 4.07518 14.178 3.4529C13.5568 2.83062 12.4687 2.52242 11.8461 3.14323C11.2265 3.76551 9.51868 4.22781 8.58623 4.22781C8.37184 4.22781 7.9225 4.05463 7.35862 3.79779C6.62588 4.219 5.84468 4.62407 5.06494 4.77964C5.22059 4.98951 5.45848 4.87797 5.50987 5.2302Z" fill="white"/>
<path fill-rule="evenodd" clip-rule="evenodd" d="M5.50987 5.2302C5.58623 5.76589 6.42617 7.06034 6.72867 6.52906C7.0341 5.99484 7.79768 7.21444 8.48197 7.59603C9.16919 7.97614 10.5392 8.43258 10.6171 8.89048C10.6934 9.34838 10.9225 10.3376 11.6082 10.0338C12.294 9.7285 13.1325 8.66153 13.1325 9.26913C13.1325 9.87819 13.3615 11.0215 14.1207 10.8688C14.8858 10.7162 15.1134 12.1662 15.877 12.0107C16.015 11.9857 16.2059 11.9696 16.4276 11.9622C16.3322 10.2378 16.9504 9.4247 17.6273 9.04751C17.7859 8.74372 18.2411 8.42524 18.3145 8.05099C18.4159 7.54466 17.2999 6.52906 17.3982 5.91852C17.4041 5.8877 17.41 5.84514 17.4129 5.80992C17.1618 5.61619 16.9034 5.39898 16.664 5.15829C15.7316 4.22781 14.7991 4.07518 14.178 3.4529C13.5568 2.83062 12.4687 2.52242 11.8461 3.14323C11.2265 3.76551 9.51868 4.22781 8.58623 4.22781C8.37184 4.22781 7.9225 4.05463 7.35862 3.79779C6.62588 4.219 5.84468 4.62407 5.06494 4.77964C5.22059 4.98951 5.45848 4.87797 5.50987 5.2302Z" stroke="#868686" stroke-width="0.25"/>
</g>
<defs>
<filter id="filter0_d_6252_1110" x="0.847168" y="0.679321" width="21.5986" height="17.4681" filterUnits="userSpaceOnUse" color-interpolation-filters="sRGB">
<feFlood flood-opacity="0" result="BackgroundImageFix"/>
<feColorMatrix in="SourceAlpha" type="matrix" values="0 0 0 0 0 0 0 0 0 0 0 0 0 0 0 0 0 0 127 0" result="hardAlpha"/>
<feOffset dy="2"/>
<feGaussianBlur stdDeviation="2"/>
<feColorMatrix type="matrix" values="0 0 0 0 0 0 0 0 0 0 0 0 0 0 0 0 0 0 0.01 0"/>
<feBlend mode="normal" in2="BackgroundImageFix" result="effect1_dropShadow_6252_1110"/>
<feBlend mode="normal" in="SourceGraphic" in2="effect1_dropShadow_6252_1110" result="shape"/>
</filter>
</defs>
</svg>
