<svg width="37" height="28" viewBox="0 0 37 28" fill="none" xmlns="http://www.w3.org/2000/svg">
<g filter="url(#filter0_d_6252_1065)">
<path fill-rule="evenodd" clip-rule="evenodd" d="M32.3024 13.5458C31.7855 13.0702 31.0895 12.9235 30.9089 12.9235C30.6034 12.9235 30.8325 11.2474 30.6813 11.017C30.5271 10.791 29.5374 11.4749 28.928 11.2474C28.3156 11.017 28.0895 10.0278 27.555 10.0278C27.0205 10.0278 26.9441 9.4173 26.9441 8.73045C26.9441 8.0436 25.9559 7.35968 25.345 6.90471C24.7341 6.44681 24.5844 5.15236 24.2011 4.92194C23.9823 4.79132 24.0675 3.85644 24.1761 3.0786C23.229 3.06392 22.2892 2.96265 22.0381 2.71169C21.5315 2.20389 20.8193 2.91569 19.4992 3.83002C18.1791 4.74583 16.5535 4.44203 16.5535 5.04816C16.5535 5.65869 15.9412 5.96543 15.2334 5.75849C14.5183 5.55889 13.9104 5.45469 13.6049 6.5745C13.2995 7.69283 12.185 6.97663 12.0822 8.19917C11.9779 9.41583 10.8634 8.60423 9.94563 8.09937C9.0308 7.59157 8.82816 10.6354 8.82816 10.6354C8.82816 10.6354 8.21876 11.3487 7.70922 12.7679C7.20261 14.193 5.47427 13.785 4.96473 13.9904C4.45666 14.193 5.47427 15.6136 5.16884 16.2256C4.98529 16.5955 4.57119 17.6874 4.20996 18.8689C4.96179 18.9921 5.66811 19.6306 5.8825 19.9828C6.18793 20.4921 8.01759 22.4205 8.93242 21.4049C9.84725 20.3879 12.3847 20.2881 12.997 20.8986C13.6049 21.5091 14.0146 21.2039 14.1145 20.5933C14.2158 19.9828 13.0998 17.7476 13.5051 17.137C13.9089 16.5309 21.8369 16.8347 22.1424 17.3425C22.4463 17.8518 22.4463 16.3269 23.464 16.4267C24.4816 16.5309 26.0058 17.0372 26.6152 16.8347C27.2261 16.6292 27.9353 15.5124 28.5462 15.5124C29.1556 15.5124 30.9838 15.4126 31.3905 14.9062C31.7973 14.3955 32.5095 14.3955 32.3053 13.5883C32.3053 13.5736 32.3053 13.5619 32.3024 13.5458Z" fill="white"/>
<path fill-rule="evenodd" clip-rule="evenodd" d="M32.3024 13.5458C31.7855 13.0702 31.0895 12.9235 30.9089 12.9235C30.6034 12.9235 30.8325 11.2474 30.6813 11.017C30.5271 10.791 29.5374 11.4749 28.928 11.2474C28.3156 11.017 28.0895 10.0278 27.555 10.0278C27.0205 10.0278 26.9441 9.4173 26.9441 8.73045C26.9441 8.0436 25.9559 7.35968 25.345 6.90471C24.7341 6.44681 24.5844 5.15236 24.2011 4.92194C23.9823 4.79132 24.0675 3.85644 24.1761 3.0786C23.229 3.06392 22.2892 2.96265 22.0381 2.71169C21.5315 2.20389 20.8193 2.91569 19.4992 3.83002C18.1791 4.74583 16.5535 4.44203 16.5535 5.04816C16.5535 5.65869 15.9412 5.96543 15.2334 5.75849C14.5183 5.55889 13.9104 5.45469 13.6049 6.5745C13.2995 7.69283 12.185 6.97663 12.0822 8.19917C11.9779 9.41583 10.8634 8.60423 9.94563 8.09937C9.0308 7.59157 8.82816 10.6354 8.82816 10.6354C8.82816 10.6354 8.21876 11.3487 7.70922 12.7679C7.20261 14.193 5.47427 13.785 4.96473 13.9904C4.45666 14.193 5.47427 15.6136 5.16884 16.2256C4.98529 16.5955 4.57119 17.6874 4.20996 18.8689C4.96179 18.9921 5.66811 19.6306 5.8825 19.9828C6.18793 20.4921 8.01759 22.4205 8.93242 21.4049C9.84725 20.3879 12.3847 20.2881 12.997 20.8986C13.6049 21.5091 14.0146 21.2039 14.1145 20.5933C14.2158 19.9828 13.0998 17.7476 13.5051 17.137C13.9089 16.5309 21.8369 16.8347 22.1424 17.3425C22.4463 17.8518 22.4463 16.3269 23.464 16.4267C24.4816 16.5309 26.0058 17.0372 26.6152 16.8347C27.2261 16.6292 27.9353 15.5124 28.5462 15.5124C29.1556 15.5124 30.9838 15.4126 31.3905 14.9062C31.7973 14.3955 32.5095 14.3955 32.3053 13.5883C32.3053 13.5736 32.3053 13.5619 32.3024 13.5458Z" stroke="#868686" stroke-width="0.25"/>
</g>
<defs>
<filter id="filter0_d_6252_1065" x="0.0488281" y="0.41748" width="36.4175" height="27.4034" filterUnits="userSpaceOnUse" color-interpolation-filters="sRGB">
<feFlood flood-opacity="0" result="BackgroundImageFix"/>
<feColorMatrix in="SourceAlpha" type="matrix" values="0 0 0 0 0 0 0 0 0 0 0 0 0 0 0 0 0 0 127 0" result="hardAlpha"/>
<feOffset dy="2"/>
<feGaussianBlur stdDeviation="2"/>
<feColorMatrix type="matrix" values="0 0 0 0 0 0 0 0 0 0 0 0 0 0 0 0 0 0 0.01 0"/>
<feBlend mode="normal" in2="BackgroundImageFix" result="effect1_dropShadow_6252_1065"/>
<feBlend mode="normal" in="SourceGraphic" in2="effect1_dropShadow_6252_1065" result="shape"/>
</filter>
</defs>
</svg>
