<svg width="15" height="16" viewBox="0 0 15 16" fill="none" xmlns="http://www.w3.org/2000/svg">
<g filter="url(#filter0_d_6252_1344)">
<path fill-rule="evenodd" clip-rule="evenodd" d="M5.40721 5.88076C5.67447 6.48689 5.94613 7.87967 6.26037 9.45151C6.94025 9.01415 7.49531 8.67953 7.73026 8.58414C8.60985 8.23337 10.5438 4.54228 10.5438 4.54228L9.66418 4.0154C9.66418 4.0154 9.75816 3.24342 9.52468 2.20874C8.7376 2.30267 7.905 2.25717 7.905 2.25717C7.905 2.25717 8.08122 3.66023 6.14583 3.30946C5.83746 3.25516 5.44246 3.22141 5.01221 3.2038C5.13996 3.2581 5.23688 3.27424 5.23688 3.27424L5.40721 5.88076Z" fill="white"/>
<path fill-rule="evenodd" clip-rule="evenodd" d="M5.40721 5.88076C5.67447 6.48689 5.94613 7.87967 6.26037 9.45151C6.94025 9.01415 7.49531 8.67953 7.73026 8.58414C8.60985 8.23337 10.5438 4.54228 10.5438 4.54228L9.66418 4.0154C9.66418 4.0154 9.75816 3.24342 9.52468 2.20874C8.7376 2.30267 7.905 2.25717 7.905 2.25717C7.905 2.25717 8.08122 3.66023 6.14583 3.30946C5.83746 3.25516 5.44246 3.22141 5.01221 3.2038C5.13996 3.2581 5.23688 3.27424 5.23688 3.27424L5.40721 5.88076Z" stroke="#868686" stroke-width="0.25"/>
</g>
<defs>
<filter id="filter0_d_6252_1344" x="0.963379" y="0.0712891" width="13.7461" height="15.5846" filterUnits="userSpaceOnUse" color-interpolation-filters="sRGB">
<feFlood flood-opacity="0" result="BackgroundImageFix"/>
<feColorMatrix in="SourceAlpha" type="matrix" values="0 0 0 0 0 0 0 0 0 0 0 0 0 0 0 0 0 0 127 0" result="hardAlpha"/>
<feOffset dy="2"/>
<feGaussianBlur stdDeviation="2"/>
<feColorMatrix type="matrix" values="0 0 0 0 0 0 0 0 0 0 0 0 0 0 0 0 0 0 0.01 0"/>
<feBlend mode="normal" in2="BackgroundImageFix" result="effect1_dropShadow_6252_1344"/>
<feBlend mode="normal" in="SourceGraphic" in2="effect1_dropShadow_6252_1344" result="shape"/>
</filter>
</defs>
</svg>
