<svg width="51" height="56" viewBox="0 0 51 56" fill="none" xmlns="http://www.w3.org/2000/svg">
<g filter="url(#filter0_d_6252_1153)">
<path fill-rule="evenodd" clip-rule="evenodd" d="M46.2337 30.6081C45.7242 29.0833 44.2029 28.8778 44.2029 27.2561C44.2029 25.6299 43.5905 25.4289 41.3556 25.5257C39.1207 25.6285 37.6963 25.1207 37.595 23.7998C37.4936 22.4789 36.1706 21.4619 37.1897 20.9555C38.2044 20.4492 36.476 19.5349 36.6801 18.3138C36.8813 17.0957 36.0707 16.5864 35.36 15.9788C34.6478 15.3697 31.5965 16.2841 31.5965 15.1642C31.5965 14.0474 29.7683 13.8448 28.7536 13.8448C27.7374 13.8448 28.4481 12.5269 27.3292 12.6282C26.2117 12.725 26.4144 11.9149 24.8887 12.1189C23.363 12.3214 22.4496 11.6096 20.8241 9.67971C19.1985 7.75124 19.3997 3.99116 19.7051 2.97409C20.0106 1.95996 17.7756 2.77449 16.4555 2.77449C15.1325 2.77449 13.8109 3.78716 12.3865 4.60316C10.9651 5.4177 10.153 5.41476 9.44085 6.12363C8.7272 6.83397 7.61119 7.24197 6.49519 6.83397C6.18241 6.72243 5.78007 6.6329 5.34394 6.57419C5.94453 8.07118 7.3924 10.5221 7.71398 11.4071C8.12074 12.5254 7.20591 12.8292 6.79915 13.2343C6.3924 13.6379 7.00033 17.2967 7.10312 18.1098C7.20444 18.9214 5.67875 20.4477 6.28814 20.9541C6.89901 21.4619 5.4761 22.9882 5.4761 23.9011C5.4761 24.8169 6.79769 24.8169 6.79769 25.5243C6.79769 26.2375 5.67728 27.8622 4.96803 28.2673C4.59358 28.4815 4.58624 29.0569 4.67728 29.6791C4.8902 29.6087 5.03998 30.5333 6.08403 31.3141C7.30429 32.2299 5.88139 33.7533 6.89754 34.9699C7.91369 36.1896 9.03263 36.2938 8.32191 36.9028C7.60972 37.5134 8.42176 38.7286 7.60972 39.3376C6.79768 39.9511 7.91516 41.7798 8.82999 42.1848C9.74481 42.5899 9.13542 44.4171 10.0502 45.3329C10.9651 46.2443 10.5583 48.3812 10.8623 49.0915C11.1677 49.8018 13.9122 48.0788 15.5392 46.35C17.1662 44.6226 17.0649 46.0447 18.5891 46.2458C20.1134 46.4512 21.8417 46.4512 22.5524 47.8734C23.2646 49.2955 24.0766 46.4498 24.5847 45.8407C25.0943 45.2331 28.548 46.0447 29.1589 45.8407C29.7683 45.6367 30.2763 41.2734 30.175 40.5587C30.0737 39.8469 31.5965 38.121 32.8167 37.3094C34.037 36.4934 35.968 37.1068 36.9856 36.5961C38.0003 36.0883 39.5259 36.1896 40.9503 36.1896C42.3718 36.1896 43.3894 37.6161 44.2029 37.6161C45.0149 37.6161 46.0325 36.2952 45.8284 35.0756C45.6243 33.856 46.7433 32.1301 46.2337 30.6081Z" fill="white"/>
<path fill-rule="evenodd" clip-rule="evenodd" d="M46.2337 30.6081C45.7242 29.0833 44.2029 28.8778 44.2029 27.2561C44.2029 25.6299 43.5905 25.4289 41.3556 25.5257C39.1207 25.6285 37.6963 25.1207 37.595 23.7998C37.4936 22.4789 36.1706 21.4619 37.1897 20.9555C38.2044 20.4492 36.476 19.5349 36.6801 18.3138C36.8813 17.0957 36.0707 16.5864 35.36 15.9788C34.6478 15.3697 31.5965 16.2841 31.5965 15.1642C31.5965 14.0474 29.7683 13.8448 28.7536 13.8448C27.7374 13.8448 28.4481 12.5269 27.3292 12.6282C26.2117 12.725 26.4144 11.9149 24.8887 12.1189C23.363 12.3214 22.4496 11.6096 20.8241 9.67971C19.1985 7.75124 19.3997 3.99116 19.7051 2.97409C20.0106 1.95996 17.7756 2.77449 16.4555 2.77449C15.1325 2.77449 13.8109 3.78716 12.3865 4.60316C10.9651 5.4177 10.153 5.41476 9.44085 6.12363C8.7272 6.83397 7.61119 7.24197 6.49519 6.83397C6.18241 6.72243 5.78007 6.6329 5.34394 6.57419C5.94453 8.07118 7.3924 10.5221 7.71398 11.4071C8.12074 12.5254 7.20591 12.8292 6.79915 13.2343C6.3924 13.6379 7.00033 17.2967 7.10312 18.1098C7.20444 18.9214 5.67875 20.4477 6.28814 20.9541C6.89901 21.4619 5.4761 22.9882 5.4761 23.9011C5.4761 24.8169 6.79769 24.8169 6.79769 25.5243C6.79769 26.2375 5.67728 27.8622 4.96803 28.2673C4.59358 28.4815 4.58624 29.0569 4.67728 29.6791C4.8902 29.6087 5.03998 30.5333 6.08403 31.3141C7.30429 32.2299 5.88139 33.7533 6.89754 34.9699C7.91369 36.1896 9.03263 36.2938 8.32191 36.9028C7.60972 37.5134 8.42176 38.7286 7.60972 39.3376C6.79768 39.9511 7.91516 41.7798 8.82999 42.1848C9.74481 42.5899 9.13542 44.4171 10.0502 45.3329C10.9651 46.2443 10.5583 48.3812 10.8623 49.0915C11.1677 49.8018 13.9122 48.0788 15.5392 46.35C17.1662 44.6226 17.0649 46.0447 18.5891 46.2458C20.1134 46.4512 21.8417 46.4512 22.5524 47.8734C23.2646 49.2955 24.0766 46.4498 24.5847 45.8407C25.0943 45.2331 28.548 46.0447 29.1589 45.8407C29.7683 45.6367 30.2763 41.2734 30.175 40.5587C30.0737 39.8469 31.5965 38.121 32.8167 37.3094C34.037 36.4934 35.968 37.1068 36.9856 36.5961C38.0003 36.0883 39.5259 36.1896 40.9503 36.1896C42.3718 36.1896 43.3894 37.6161 44.2029 37.6161C45.0149 37.6161 46.0325 36.2952 45.8284 35.0756C45.6243 33.856 46.7433 32.1301 46.2337 30.6081Z" stroke="#868686" stroke-width="0.25"/>
</g>
<defs>
<filter id="filter0_d_6252_1153" x="0.503906" y="0.340088" width="49.9893" height="55.0404" filterUnits="userSpaceOnUse" color-interpolation-filters="sRGB">
<feFlood flood-opacity="0" result="BackgroundImageFix"/>
<feColorMatrix in="SourceAlpha" type="matrix" values="0 0 0 0 0 0 0 0 0 0 0 0 0 0 0 0 0 0 127 0" result="hardAlpha"/>
<feOffset dy="2"/>
<feGaussianBlur stdDeviation="2"/>
<feColorMatrix type="matrix" values="0 0 0 0 0 0 0 0 0 0 0 0 0 0 0 0 0 0 0.01 0"/>
<feBlend mode="normal" in2="BackgroundImageFix" result="effect1_dropShadow_6252_1153"/>
<feBlend mode="normal" in="SourceGraphic" in2="effect1_dropShadow_6252_1153" result="shape"/>
</filter>
</defs>
</svg>
