<svg width="12" height="15" viewBox="0 0 12 15" fill="none" xmlns="http://www.w3.org/2000/svg">
<g filter="url(#filter0_d_6252_1350)">
<path fill-rule="evenodd" clip-rule="evenodd" d="M7.14538 8.21174C6.92659 8.66377 5.7959 7.62762 5.76653 6.83363C5.7357 6.04405 4.59326 5.89582 4.59326 4.52211C4.59326 3.14107 5.15126 2.3192 5.85464 3.52119C6.55801 4.72465 6.08959 5.51423 6.20559 6.10129C6.32307 6.68687 7.52718 7.42069 7.14538 8.21174Z" fill="white"/>
<path fill-rule="evenodd" clip-rule="evenodd" d="M7.14538 8.21174C6.92659 8.66377 5.7959 7.62762 5.76653 6.83363C5.7357 6.04405 4.59326 5.89582 4.59326 4.52211C4.59326 3.14107 5.15126 2.3192 5.85464 3.52119C6.55801 4.72465 6.08959 5.51423 6.20559 6.10129C6.32307 6.68687 7.52718 7.42069 7.14538 8.21174Z" stroke="#868686" stroke-width="0.25"/>
</g>
<defs>
<filter id="filter0_d_6252_1350" x="0.468262" y="0.814453" width="10.877" height="13.6323" filterUnits="userSpaceOnUse" color-interpolation-filters="sRGB">
<feFlood flood-opacity="0" result="BackgroundImageFix"/>
<feColorMatrix in="SourceAlpha" type="matrix" values="0 0 0 0 0 0 0 0 0 0 0 0 0 0 0 0 0 0 127 0" result="hardAlpha"/>
<feOffset dy="2"/>
<feGaussianBlur stdDeviation="2"/>
<feColorMatrix type="matrix" values="0 0 0 0 0 0 0 0 0 0 0 0 0 0 0 0 0 0 0.01 0"/>
<feBlend mode="normal" in2="BackgroundImageFix" result="effect1_dropShadow_6252_1350"/>
<feBlend mode="normal" in="SourceGraphic" in2="effect1_dropShadow_6252_1350" result="shape"/>
</filter>
</defs>
</svg>
