<svg width="20" height="14" viewBox="0 0 20 14" fill="none" xmlns="http://www.w3.org/2000/svg">
<g filter="url(#filter0_d_6252_1094)">
<path fill-rule="evenodd" clip-rule="evenodd" d="M14.9717 4.09308C12.9247 2.21304 12.3711 3.7291 11.0025 3.00996C9.55611 2.24679 8.87035 2.02078 8.1846 2.55206C7.49591 3.08628 6.4313 3.00996 5.74261 4.68306C5.52087 5.23489 5.23894 5.74856 4.97021 6.13602C5.20516 6.64676 5.5708 7.00633 5.86155 6.93294C6.4034 6.79499 7.08181 7.74895 8.16551 7.4745C9.25214 7.20299 9.93202 8.15548 11.4269 7.74895C12.9159 7.33948 14.2742 8.2905 14.8189 7.33948C15.3623 6.39139 14.4107 4.35872 14.4107 4.35872C14.4107 4.35872 14.6604 4.23397 14.9717 4.09308Z" fill="white"/>
<path fill-rule="evenodd" clip-rule="evenodd" d="M14.9717 4.09308C12.9247 2.21304 12.3711 3.7291 11.0025 3.00996C9.55611 2.24679 8.87035 2.02078 8.1846 2.55206C7.49591 3.08628 6.4313 3.00996 5.74261 4.68306C5.52087 5.23489 5.23894 5.74856 4.97021 6.13602C5.20516 6.64676 5.5708 7.00633 5.86155 6.93294C6.4034 6.79499 7.08181 7.74895 8.16551 7.4745C9.25214 7.20299 9.93202 8.15548 11.4269 7.74895C12.9159 7.33948 14.2742 8.2905 14.8189 7.33948C15.3623 6.39139 14.4107 4.35872 14.4107 4.35872C14.4107 4.35872 14.6604 4.23397 14.9717 4.09308Z" stroke="#868686" stroke-width="0.25"/>
</g>
<defs>
<filter id="filter0_d_6252_1094" x="0.82666" y="0.137207" width="18.3687" height="13.8392" filterUnits="userSpaceOnUse" color-interpolation-filters="sRGB">
<feFlood flood-opacity="0" result="BackgroundImageFix"/>
<feColorMatrix in="SourceAlpha" type="matrix" values="0 0 0 0 0 0 0 0 0 0 0 0 0 0 0 0 0 0 127 0" result="hardAlpha"/>
<feOffset dy="2"/>
<feGaussianBlur stdDeviation="2"/>
<feColorMatrix type="matrix" values="0 0 0 0 0 0 0 0 0 0 0 0 0 0 0 0 0 0 0.01 0"/>
<feBlend mode="normal" in2="BackgroundImageFix" result="effect1_dropShadow_6252_1094"/>
<feBlend mode="normal" in="SourceGraphic" in2="effect1_dropShadow_6252_1094" result="shape"/>
</filter>
</defs>
</svg>
