<svg width="39" height="42" viewBox="0 0 39 42" fill="none" xmlns="http://www.w3.org/2000/svg">
<g filter="url(#filter0_d_6252_1035)">
<path fill-rule="evenodd" clip-rule="evenodd" d="M32.3559 15.9313C31.3119 15.968 29.9521 14.5591 29.9521 13.5288C29.9521 12.4971 28.5747 11.64 28.5747 10.9502C28.5747 10.2619 26.3413 9.06136 25.1357 8.54769C23.9316 8.02962 23.7612 4.42217 23.2473 4.42217C22.8582 4.42217 21.7965 3.35961 21.2884 2.46582C20.4411 2.66982 19.5322 2.90758 18.9786 2.90758C17.9624 2.90758 16.9433 3.92465 16.5381 4.43245C16.1313 4.94318 15.3207 3.51665 14.7113 3.11451C14.1005 2.70651 11.5601 4.02885 10.8464 4.23138C10.1357 4.43685 7.59534 4.63498 7.59534 4.63498C7.59534 4.63498 7.59534 15.0977 7.59534 16.4186C7.59534 17.7409 4.13867 16.9293 4.13867 17.7409C4.13867 18.1181 4.13867 22.8145 4.13867 27.8441C4.8861 28.1142 5.59388 28.4752 5.76569 28.914C6.17244 29.9282 7.08727 32.1663 6.88316 32.7724C6.68052 33.3844 6.17391 32.9779 6.17391 33.587C6.17391 34.1975 5.76716 35.1118 6.78477 35.1118C7.79799 35.1118 9.52632 35.7194 10.2385 34.9049C10.9492 34.0948 13.2884 32.2646 13.3912 31.3503C13.4911 30.4374 13.9977 28.4077 15.7245 29.526C17.4558 30.64 17.5586 30.844 19.7936 30.844C22.03 30.844 22.6394 30.7398 23.0446 29.3206C23.4529 27.8955 23.0461 26.7816 24.3662 26.7816C25.6878 26.7816 27.3134 25.559 27.3134 24.6476C27.3134 23.7318 27.9228 22.3126 28.7377 22.3126C29.5512 22.3126 31.2766 21.2955 31.4822 20.277C31.6849 19.2614 33.1078 19.6694 33.6158 19.0603C33.864 18.7624 34.3574 18.0506 34.7965 17.4004C34.7965 17.3946 34.7832 17.3916 34.7832 17.3916C34.7803 16.7752 34.5527 15.8594 32.3559 15.9313Z" fill="white"/>
<path fill-rule="evenodd" clip-rule="evenodd" d="M32.3559 15.9313C31.3119 15.968 29.9521 14.5591 29.9521 13.5288C29.9521 12.4971 28.5747 11.64 28.5747 10.9502C28.5747 10.2619 26.3413 9.06136 25.1357 8.54769C23.9316 8.02962 23.7612 4.42217 23.2473 4.42217C22.8582 4.42217 21.7965 3.35961 21.2884 2.46582C20.4411 2.66982 19.5322 2.90758 18.9786 2.90758C17.9624 2.90758 16.9433 3.92465 16.5381 4.43245C16.1313 4.94318 15.3207 3.51665 14.7113 3.11451C14.1005 2.70651 11.5601 4.02885 10.8464 4.23138C10.1357 4.43685 7.59534 4.63498 7.59534 4.63498C7.59534 4.63498 7.59534 15.0977 7.59534 16.4186C7.59534 17.7409 4.13867 16.9293 4.13867 17.7409C4.13867 18.1181 4.13867 22.8145 4.13867 27.8441C4.8861 28.1142 5.59388 28.4752 5.76569 28.914C6.17244 29.9282 7.08727 32.1663 6.88316 32.7724C6.68052 33.3844 6.17391 32.9779 6.17391 33.587C6.17391 34.1975 5.76716 35.1118 6.78477 35.1118C7.79799 35.1118 9.52632 35.7194 10.2385 34.9049C10.9492 34.0948 13.2884 32.2646 13.3912 31.3503C13.4911 30.4374 13.9977 28.4077 15.7245 29.526C17.4558 30.64 17.5586 30.844 19.7936 30.844C22.03 30.844 22.6394 30.7398 23.0446 29.3206C23.4529 27.8955 23.0461 26.7816 24.3662 26.7816C25.6878 26.7816 27.3134 25.559 27.3134 24.6476C27.3134 23.7318 27.9228 22.3126 28.7377 22.3126C29.5512 22.3126 31.2766 21.2955 31.4822 20.277C31.6849 19.2614 33.1078 19.6694 33.6158 19.0603C33.864 18.7624 34.3574 18.0506 34.7965 17.4004C34.7965 17.3946 34.7832 17.3916 34.7832 17.3916C34.7803 16.7752 34.5527 15.8594 32.3559 15.9313Z" stroke="#868686" stroke-width="0.25"/>
</g>
<defs>
<filter id="filter0_d_6252_1035" x="0.0136719" y="0.322266" width="38.9077" height="41.1324" filterUnits="userSpaceOnUse" color-interpolation-filters="sRGB">
<feFlood flood-opacity="0" result="BackgroundImageFix"/>
<feColorMatrix in="SourceAlpha" type="matrix" values="0 0 0 0 0 0 0 0 0 0 0 0 0 0 0 0 0 0 127 0" result="hardAlpha"/>
<feOffset dy="2"/>
<feGaussianBlur stdDeviation="2"/>
<feColorMatrix type="matrix" values="0 0 0 0 0 0 0 0 0 0 0 0 0 0 0 0 0 0 0.01 0"/>
<feBlend mode="normal" in2="BackgroundImageFix" result="effect1_dropShadow_6252_1035"/>
<feBlend mode="normal" in="SourceGraphic" in2="effect1_dropShadow_6252_1035" result="shape"/>
</filter>
</defs>
</svg>
