<svg width="73" height="74" viewBox="0 0 73 74" fill="none" xmlns="http://www.w3.org/2000/svg">
<g filter="url(#filter0_d_6252_1343)">
<path fill-rule="evenodd" clip-rule="evenodd" d="M62.6114 45.2809C60.9344 44.3666 60.2472 32.8618 61.0842 32.5595C61.1944 32.5213 61.3001 32.6431 61.4073 32.8809L61.2384 30.2729C61.2384 30.2729 61.1415 30.2568 61.0137 30.2025C60.7435 30.0968 60.3236 29.8297 60.3236 29.2074C60.3236 28.296 61.0857 28.2168 61.0857 28.2168C61.0857 28.2168 60.9359 26.3118 61.7744 26.0065C61.9433 25.9478 62.0784 25.826 62.1929 25.6822C62.6613 25.1054 62.7656 23.9826 62.7656 23.1857C62.7656 22.198 62.9917 21.0547 63.3735 20.2167C63.7568 19.3801 63.6026 18.2354 64.2149 17.7775C64.8228 17.324 64.7479 16.1029 65.5086 15.8754C66.2736 15.645 66.883 15.3412 66.9565 14.8833C67.0343 14.424 67.9491 13.8149 67.9491 13.1324C67.9491 12.4471 66.8067 12.293 66.8067 11.4564C66.8067 10.6154 67.1106 8.48298 67.1106 8.48298C67.1106 8.48298 67.1415 8.4727 67.1606 8.46683C65.5174 6.96398 63.6231 5.40535 63.1885 5.11916C62.5541 4.69649 61.4895 5.54625 61.4895 5.54625C61.4895 5.54625 60.4264 4.48074 59.5761 5.33197C58.7289 6.1788 57.4528 5.33197 57.4528 5.33197C57.4528 5.33197 56.3897 4.69502 55.9638 3.63098C55.7935 3.20097 55.4734 2.9412 55.0754 2.73133L55.1283 2.87222L52.585 3.29636C52.585 3.29636 49.4058 1.60272 48.7715 2.87222C48.1342 4.14466 47.4984 3.29636 46.0138 3.29636C44.5292 3.29636 43.259 3.93478 42.4088 4.35453C41.5615 4.78161 40.2913 3.93478 39.654 4.35453C39.0182 4.78161 38.5938 6.68953 38.5938 6.68953L32.0241 5.41709C32.0241 5.41709 30.751 3.5077 29.2664 3.5077C27.7803 3.5077 25.6629 6.26392 25.6629 6.26392V8.5681C25.9184 9.94768 25.5939 11.3948 25.1519 12.1286C24.5146 13.1911 23.8758 13.6182 23.8758 15.739C23.8758 17.8656 21.3251 21.2631 21.3251 22.9626C21.3251 24.6592 18.3501 25.7218 18.3501 26.7844C18.3501 27.8455 18.1387 30.1805 18.1387 32.5169C18.1387 34.8534 16.8626 32.9411 16.8626 35.0633C16.8626 37.1899 15.7995 35.9145 14.7407 36.98C13.6776 38.0411 13.2517 38.2554 13.2517 37.1943C13.2517 36.1288 11.7628 35.916 10.4882 36.98C9.21357 38.0411 8.78773 36.98 8.15337 36.7657C7.80094 36.6498 6.34573 37.5069 4.93164 38.4711C5.56894 39.7861 5.8964 41.1011 6.15337 42.262C6.17833 42.3721 6.20917 42.488 6.24441 42.6084C6.99331 42.0771 7.75102 41.6104 8.1842 41.5487C9.25322 41.3961 19.3134 41.5487 19.3134 41.5487C19.3134 41.5487 20.2282 43.0721 19.9228 44.4473C19.6188 45.8151 20.5351 45.2076 21.2958 47.0377C22.0608 48.8634 22.6702 49.6281 24.1959 49.1702C25.7172 48.7137 27.5483 48.4055 28.1592 48.5596C28.7671 48.7137 28.6173 45.9692 29.5307 45.5128C30.4441 45.0534 32.2752 45.5128 32.2752 45.5128C32.2752 45.5128 32.4279 46.2731 33.9521 46.2731C35.4778 46.2731 36.2399 45.664 36.2399 46.7324C36.2399 47.8009 36.3912 49.019 36.8493 49.474C37.306 49.9333 35.6305 53.7389 36.3897 54.3509C37.1548 54.9614 38.2208 56.3293 38.0696 57.0939C37.9169 57.8556 37.4573 59.6843 38.0696 59.8369C38.6805 59.991 38.8317 58.9226 39.8978 58.9226C40.9668 58.9226 41.8802 59.0737 42.9462 58.6158C43.2987 58.4676 43.6085 58.5234 43.8772 58.6525C44.4249 58.9196 44.7774 59.5302 44.7774 59.5302C44.7774 59.5302 45.0813 60.5986 45.6922 60.2948C46.3001 59.991 47.9785 59.5302 47.8258 60.1407C47.6731 60.7527 48.284 62.1235 48.8934 61.8167C49.5028 61.5129 51.027 62.7311 51.7906 62.7311C52.5541 62.7311 53.3148 62.7311 53.3148 62.2732C53.3148 61.8153 54.2281 61.055 54.538 61.6626C54.8405 62.2732 55.6041 63.6454 56.3632 63.6454C57.1268 63.6454 58.955 63.6454 58.955 64.256C58.955 64.8665 59.5659 66.544 60.328 67.1516C61.0901 67.7607 62.7685 67.1516 62.7685 67.1516C62.7685 67.1516 63.3764 66.6922 63.3764 65.6282C63.3764 64.5612 63.3764 63.189 62.9183 63.189C62.4616 63.189 61.701 64.2574 60.6334 63.9522C59.5644 63.6469 58.8038 61.5144 58.3456 61.2077C57.886 60.9039 59.1092 58.924 59.1092 58.0097C59.1092 57.0954 59.8728 54.5065 59.2604 54.1968C58.651 53.8945 58.955 52.9801 59.7186 52.3725C60.4836 51.762 59.4146 50.0874 60.6349 50.0874C61.7788 50.0874 64.1092 50.2107 64.7714 49.471C64.817 49.4226 64.8713 49.38 64.9021 49.3213C64.9873 49.154 65.0593 48.9735 65.1224 48.793C64.3353 47.5073 63.5556 45.7975 62.6114 45.2809Z" fill="white"/>
<path fill-rule="evenodd" clip-rule="evenodd" d="M62.6114 45.2809C60.9344 44.3666 60.2472 32.8618 61.0842 32.5595C61.1944 32.5213 61.3001 32.6431 61.4073 32.8809L61.2384 30.2729C61.2384 30.2729 61.1415 30.2568 61.0137 30.2025C60.7435 30.0968 60.3236 29.8297 60.3236 29.2074C60.3236 28.296 61.0857 28.2168 61.0857 28.2168C61.0857 28.2168 60.9359 26.3118 61.7744 26.0065C61.9433 25.9478 62.0784 25.826 62.1929 25.6822C62.6613 25.1054 62.7656 23.9826 62.7656 23.1857C62.7656 22.198 62.9917 21.0547 63.3735 20.2167C63.7568 19.3801 63.6026 18.2354 64.2149 17.7775C64.8228 17.324 64.7479 16.1029 65.5086 15.8754C66.2736 15.645 66.883 15.3412 66.9565 14.8833C67.0343 14.424 67.9491 13.8149 67.9491 13.1324C67.9491 12.4471 66.8067 12.293 66.8067 11.4564C66.8067 10.6154 67.1106 8.48298 67.1106 8.48298C67.1106 8.48298 67.1415 8.4727 67.1606 8.46683C65.5174 6.96398 63.6231 5.40535 63.1885 5.11916C62.5541 4.69649 61.4895 5.54625 61.4895 5.54625C61.4895 5.54625 60.4264 4.48074 59.5761 5.33197C58.7289 6.1788 57.4528 5.33197 57.4528 5.33197C57.4528 5.33197 56.3897 4.69502 55.9638 3.63098C55.7935 3.20097 55.4734 2.9412 55.0754 2.73133L55.1283 2.87222L52.585 3.29636C52.585 3.29636 49.4058 1.60272 48.7715 2.87222C48.1342 4.14466 47.4984 3.29636 46.0138 3.29636C44.5292 3.29636 43.259 3.93478 42.4088 4.35453C41.5615 4.78161 40.2913 3.93478 39.654 4.35453C39.0182 4.78161 38.5938 6.68953 38.5938 6.68953L32.0241 5.41709C32.0241 5.41709 30.751 3.5077 29.2664 3.5077C27.7803 3.5077 25.6629 6.26392 25.6629 6.26392V8.5681C25.9184 9.94768 25.5939 11.3948 25.1519 12.1286C24.5146 13.1911 23.8758 13.6182 23.8758 15.739C23.8758 17.8656 21.3251 21.2631 21.3251 22.9626C21.3251 24.6592 18.3501 25.7218 18.3501 26.7844C18.3501 27.8455 18.1387 30.1805 18.1387 32.5169C18.1387 34.8534 16.8626 32.9411 16.8626 35.0633C16.8626 37.1899 15.7995 35.9145 14.7407 36.98C13.6776 38.0411 13.2517 38.2554 13.2517 37.1943C13.2517 36.1288 11.7628 35.916 10.4882 36.98C9.21357 38.0411 8.78773 36.98 8.15337 36.7657C7.80094 36.6498 6.34573 37.5069 4.93164 38.4711C5.56894 39.7861 5.8964 41.1011 6.15337 42.262C6.17833 42.3721 6.20917 42.488 6.24441 42.6084C6.99331 42.0771 7.75102 41.6104 8.1842 41.5487C9.25322 41.3961 19.3134 41.5487 19.3134 41.5487C19.3134 41.5487 20.2282 43.0721 19.9228 44.4473C19.6188 45.8151 20.5351 45.2076 21.2958 47.0377C22.0608 48.8634 22.6702 49.6281 24.1959 49.1702C25.7172 48.7137 27.5483 48.4055 28.1592 48.5596C28.7671 48.7137 28.6173 45.9692 29.5307 45.5128C30.4441 45.0534 32.2752 45.5128 32.2752 45.5128C32.2752 45.5128 32.4279 46.2731 33.9521 46.2731C35.4778 46.2731 36.2399 45.664 36.2399 46.7324C36.2399 47.8009 36.3912 49.019 36.8493 49.474C37.306 49.9333 35.6305 53.7389 36.3897 54.3509C37.1548 54.9614 38.2208 56.3293 38.0696 57.0939C37.9169 57.8556 37.4573 59.6843 38.0696 59.8369C38.6805 59.991 38.8317 58.9226 39.8978 58.9226C40.9668 58.9226 41.8802 59.0737 42.9462 58.6158C43.2987 58.4676 43.6085 58.5234 43.8772 58.6525C44.4249 58.9196 44.7774 59.5302 44.7774 59.5302C44.7774 59.5302 45.0813 60.5986 45.6922 60.2948C46.3001 59.991 47.9785 59.5302 47.8258 60.1407C47.6731 60.7527 48.284 62.1235 48.8934 61.8167C49.5028 61.5129 51.027 62.7311 51.7906 62.7311C52.5541 62.7311 53.3148 62.7311 53.3148 62.2732C53.3148 61.8153 54.2281 61.055 54.538 61.6626C54.8405 62.2732 55.6041 63.6454 56.3632 63.6454C57.1268 63.6454 58.955 63.6454 58.955 64.256C58.955 64.8665 59.5659 66.544 60.328 67.1516C61.0901 67.7607 62.7685 67.1516 62.7685 67.1516C62.7685 67.1516 63.3764 66.6922 63.3764 65.6282C63.3764 64.5612 63.3764 63.189 62.9183 63.189C62.4616 63.189 61.701 64.2574 60.6334 63.9522C59.5644 63.6469 58.8038 61.5144 58.3456 61.2077C57.886 60.9039 59.1092 58.924 59.1092 58.0097C59.1092 57.0954 59.8728 54.5065 59.2604 54.1968C58.651 53.8945 58.955 52.9801 59.7186 52.3725C60.4836 51.762 59.4146 50.0874 60.6349 50.0874C61.7788 50.0874 64.1092 50.2107 64.7714 49.471C64.817 49.4226 64.8713 49.38 64.9021 49.3213C64.9873 49.154 65.0593 48.9735 65.1224 48.793C64.3353 47.5073 63.5556 45.7975 62.6114 45.2809Z" stroke="#868686" stroke-width="0.25"/>
</g>
<defs>
<filter id="filter0_d_6252_1343" x="0.771973" y="0.275269" width="71.3022" height="73.272" filterUnits="userSpaceOnUse" color-interpolation-filters="sRGB">
<feFlood flood-opacity="0" result="BackgroundImageFix"/>
<feColorMatrix in="SourceAlpha" type="matrix" values="0 0 0 0 0 0 0 0 0 0 0 0 0 0 0 0 0 0 127 0" result="hardAlpha"/>
<feOffset dy="2"/>
<feGaussianBlur stdDeviation="2"/>
<feColorMatrix type="matrix" values="0 0 0 0 0 0 0 0 0 0 0 0 0 0 0 0 0 0 0.01 0"/>
<feBlend mode="normal" in2="BackgroundImageFix" result="effect1_dropShadow_6252_1343"/>
<feBlend mode="normal" in="SourceGraphic" in2="effect1_dropShadow_6252_1343" result="shape"/>
</filter>
</defs>
</svg>
