<svg width="30" height="31" viewBox="0 0 30 31" fill="none" xmlns="http://www.w3.org/2000/svg">
<g filter="url(#filter0_d_6252_1057)">
<path fill-rule="evenodd" clip-rule="evenodd" d="M24.6797 21.0078C24.2216 20.3958 23.1555 17.8054 23.2304 17.1978C23.3067 16.5887 24.6033 14.7586 24.5285 13.8443C24.4521 12.9314 25.8251 12.3223 25.8251 11.5562C25.8251 10.9765 25.4668 8.10142 24.6268 6.22431C24.4506 6.23459 24.2377 6.14359 23.9954 5.89703C23.3831 5.2865 20.8456 5.38483 19.9308 6.40337C19.0145 7.41897 17.1849 5.4905 16.8809 4.98123C16.5755 4.47196 15.2539 3.35803 14.2377 4.06983C13.2186 4.7787 12.9176 4.57469 13.0175 3.66183C13.1203 2.74602 11.4918 3.04982 11.2891 3.86583C11.0894 4.67743 9.76638 5.3863 9.35962 4.78016C8.95287 4.16816 8.03951 3.35803 7.63129 4.27089C7.34935 4.90638 6.8677 4.85061 6.46829 4.55121C6.20985 5.68276 5.89708 6.97721 6.46095 7.29128C7.1467 7.6714 7.22453 8.43163 7.07328 8.891C6.9191 9.3489 8.21425 10.4922 7.68268 11.0249C7.14817 11.5548 6.46242 10.4922 6.0821 11.2524C5.70177 12.0127 6.84421 12.6995 6.38753 13.3115C5.93085 13.9191 5.24509 13.9969 5.39781 15.215C5.54906 16.4317 5.47123 17.2697 5.01602 17.6542C4.55787 18.0344 5.09091 18.0344 6.15992 18.7197C7.22747 19.4037 8.9793 20.1668 8.82805 21.3101C8.69002 22.3507 8.23334 22.5914 7.80896 24.514C9.87798 24.5565 13.5872 23.0522 17.9499 22.2993C20.6782 21.8341 22.9837 22.2171 24.621 22.6912C24.7928 22.0454 24.9102 21.3145 24.6797 21.0078Z" fill="white"/>
<path fill-rule="evenodd" clip-rule="evenodd" d="M24.6797 21.0078C24.2216 20.3958 23.1555 17.8054 23.2304 17.1978C23.3067 16.5887 24.6033 14.7586 24.5285 13.8443C24.4521 12.9314 25.8251 12.3223 25.8251 11.5562C25.8251 10.9765 25.4668 8.10142 24.6268 6.22431C24.4506 6.23459 24.2377 6.14359 23.9954 5.89703C23.3831 5.2865 20.8456 5.38483 19.9308 6.40337C19.0145 7.41897 17.1849 5.4905 16.8809 4.98123C16.5755 4.47196 15.2539 3.35803 14.2377 4.06983C13.2186 4.7787 12.9176 4.57469 13.0175 3.66183C13.1203 2.74602 11.4918 3.04982 11.2891 3.86583C11.0894 4.67743 9.76638 5.3863 9.35962 4.78016C8.95287 4.16816 8.03951 3.35803 7.63129 4.27089C7.34935 4.90638 6.8677 4.85061 6.46829 4.55121C6.20985 5.68276 5.89708 6.97721 6.46095 7.29128C7.1467 7.6714 7.22453 8.43163 7.07328 8.891C6.9191 9.3489 8.21425 10.4922 7.68268 11.0249C7.14817 11.5548 6.46242 10.4922 6.0821 11.2524C5.70177 12.0127 6.84421 12.6995 6.38753 13.3115C5.93085 13.9191 5.24509 13.9969 5.39781 15.215C5.54906 16.4317 5.47123 17.2697 5.01602 17.6542C4.55787 18.0344 5.09091 18.0344 6.15992 18.7197C7.22747 19.4037 8.9793 20.1668 8.82805 21.3101C8.69002 22.3507 8.23334 22.5914 7.80896 24.514C9.87798 24.5565 13.5872 23.0522 17.9499 22.2993C20.6782 21.8341 22.9837 22.2171 24.621 22.6912C24.7928 22.0454 24.9102 21.3145 24.6797 21.0078Z" stroke="#868686" stroke-width="0.25"/>
</g>
<defs>
<filter id="filter0_d_6252_1057" x="0.726074" y="0.975708" width="29.2241" height="29.6642" filterUnits="userSpaceOnUse" color-interpolation-filters="sRGB">
<feFlood flood-opacity="0" result="BackgroundImageFix"/>
<feColorMatrix in="SourceAlpha" type="matrix" values="0 0 0 0 0 0 0 0 0 0 0 0 0 0 0 0 0 0 127 0" result="hardAlpha"/>
<feOffset dy="2"/>
<feGaussianBlur stdDeviation="2"/>
<feColorMatrix type="matrix" values="0 0 0 0 0 0 0 0 0 0 0 0 0 0 0 0 0 0 0.01 0"/>
<feBlend mode="normal" in2="BackgroundImageFix" result="effect1_dropShadow_6252_1057"/>
<feBlend mode="normal" in="SourceGraphic" in2="effect1_dropShadow_6252_1057" result="shape"/>
</filter>
</defs>
</svg>
