<svg width="35" height="49" viewBox="0 0 35 49" fill="none" xmlns="http://www.w3.org/2000/svg">
<g filter="url(#filter0_d_6252_1056)">
<path fill-rule="evenodd" clip-rule="evenodd" d="M15.6158 40.0399C15.6158 40.0399 23.6745 40.4641 24.7318 40.2513C25.792 40.0399 29.6069 41.9464 29.6069 41.9464C29.6069 41.9464 29.7875 40.0282 30.4572 38.879C30.1958 38.7396 29.9359 38.5473 29.8654 38.3022C29.7112 37.768 28.1855 36.7774 27.6554 36.092C27.1194 35.4066 26.8918 34.9502 26.8918 34.9502C26.8918 34.9502 27.0445 33.8054 26.3588 32.8925C25.6716 31.9782 25.3676 31.3706 25.3676 30.1481C25.3676 28.9314 24.9109 28.0156 24.9109 27.3317C24.9109 26.6448 26.1297 25.3489 26.5864 23.9048C26.8551 23.0609 27.6583 22.377 28.3191 21.765C27.9829 21.2381 27.6113 20.29 27.3 19.2817C26.8933 17.9609 25.7773 17.5558 24.4528 16.3391C23.1341 15.1166 23.6422 14.4062 23.6422 13.8999C23.6422 13.3921 25.3691 13.3877 26.5879 13.4934C27.8066 13.5946 28.5188 13.2894 28.0152 12.9841C27.5012 12.6788 26.488 10.3424 26.5879 8.72064C26.6892 7.09157 26.0798 6.58817 26.1811 5.66943C26.2839 4.75656 25.0636 2.41862 24.046 2.41862C23.977 2.41862 23.9168 2.40688 23.8551 2.39514C23.6804 3.12602 23.6422 3.95817 23.6422 4.24876C23.6422 4.75656 24.4528 5.46543 25.0636 5.66943C25.673 5.87343 25.3691 6.89197 25.2692 7.8019C25.1679 8.72064 23.5409 8.51223 23.234 8.92024C22.93 9.32677 21.1003 12.171 21.2031 12.6803C21.3045 13.191 20.8977 14.713 20.3911 14.9155C19.8801 15.118 19.9843 16.2364 19.9843 16.7427C19.9843 17.2505 18.3559 17.9609 18.3559 18.7754C18.3559 19.5885 16.4278 22.9376 15.817 24.0574C15.2061 25.1743 14.5967 26.5993 14.3926 25.5823C14.1899 24.5681 12.6642 23.35 11.9521 23.8563C11.2399 24.3627 10.3294 24.0574 9.91976 24.1616C9.513 24.2629 5.98291 27.9158 5.98291 27.9158C5.98291 27.9158 5.71419 29.6432 4.98291 31.5996C5.43372 31.8799 5.91242 32.7883 6.41462 33.506C7.12681 34.5231 8.49685 33.7599 9.05632 34.0652C9.61432 34.3719 10.2267 36.7598 10.0196 37.4173C9.82578 38.0542 8.9829 39.6671 9.37203 40.467H14.1341L15.6158 40.0399Z" fill="white"/>
<path fill-rule="evenodd" clip-rule="evenodd" d="M15.6158 40.0399C15.6158 40.0399 23.6745 40.4641 24.7318 40.2513C25.792 40.0399 29.6069 41.9464 29.6069 41.9464C29.6069 41.9464 29.7875 40.0282 30.4572 38.879C30.1958 38.7396 29.9359 38.5473 29.8654 38.3022C29.7112 37.768 28.1855 36.7774 27.6554 36.092C27.1194 35.4066 26.8918 34.9502 26.8918 34.9502C26.8918 34.9502 27.0445 33.8054 26.3588 32.8925C25.6716 31.9782 25.3676 31.3706 25.3676 30.1481C25.3676 28.9314 24.9109 28.0156 24.9109 27.3317C24.9109 26.6448 26.1297 25.3489 26.5864 23.9048C26.8551 23.0609 27.6583 22.377 28.3191 21.765C27.9829 21.2381 27.6113 20.29 27.3 19.2817C26.8933 17.9609 25.7773 17.5558 24.4528 16.3391C23.1341 15.1166 23.6422 14.4062 23.6422 13.8999C23.6422 13.3921 25.3691 13.3877 26.5879 13.4934C27.8066 13.5946 28.5188 13.2894 28.0152 12.9841C27.5012 12.6788 26.488 10.3424 26.5879 8.72064C26.6892 7.09157 26.0798 6.58817 26.1811 5.66943C26.2839 4.75656 25.0636 2.41862 24.046 2.41862C23.977 2.41862 23.9168 2.40688 23.8551 2.39514C23.6804 3.12602 23.6422 3.95817 23.6422 4.24876C23.6422 4.75656 24.4528 5.46543 25.0636 5.66943C25.673 5.87343 25.3691 6.89197 25.2692 7.8019C25.1679 8.72064 23.5409 8.51223 23.234 8.92024C22.93 9.32677 21.1003 12.171 21.2031 12.6803C21.3045 13.191 20.8977 14.713 20.3911 14.9155C19.8801 15.118 19.9843 16.2364 19.9843 16.7427C19.9843 17.2505 18.3559 17.9609 18.3559 18.7754C18.3559 19.5885 16.4278 22.9376 15.817 24.0574C15.2061 25.1743 14.5967 26.5993 14.3926 25.5823C14.1899 24.5681 12.6642 23.35 11.9521 23.8563C11.2399 24.3627 10.3294 24.0574 9.91976 24.1616C9.513 24.2629 5.98291 27.9158 5.98291 27.9158C5.98291 27.9158 5.71419 29.6432 4.98291 31.5996C5.43372 31.8799 5.91242 32.7883 6.41462 33.506C7.12681 34.5231 8.49685 33.7599 9.05632 34.0652C9.61432 34.3719 10.2267 36.7598 10.0196 37.4173C9.82578 38.0542 8.9829 39.6671 9.37203 40.467H14.1341L15.6158 40.0399Z" stroke="#868686" stroke-width="0.25"/>
</g>
<defs>
<filter id="filter0_d_6252_1056" x="0.830078" y="0.25" width="33.8003" height="47.8898" filterUnits="userSpaceOnUse" color-interpolation-filters="sRGB">
<feFlood flood-opacity="0" result="BackgroundImageFix"/>
<feColorMatrix in="SourceAlpha" type="matrix" values="0 0 0 0 0 0 0 0 0 0 0 0 0 0 0 0 0 0 127 0" result="hardAlpha"/>
<feOffset dy="2"/>
<feGaussianBlur stdDeviation="2"/>
<feColorMatrix type="matrix" values="0 0 0 0 0 0 0 0 0 0 0 0 0 0 0 0 0 0 0.01 0"/>
<feBlend mode="normal" in2="BackgroundImageFix" result="effect1_dropShadow_6252_1056"/>
<feBlend mode="normal" in="SourceGraphic" in2="effect1_dropShadow_6252_1056" result="shape"/>
</filter>
</defs>
</svg>
