<svg width="20" height="19" viewBox="0 0 20 19" fill="none" xmlns="http://www.w3.org/2000/svg">
<g filter="url(#filter0_d_6252_1150)">
<path fill-rule="evenodd" clip-rule="evenodd" d="M14.9727 10.1977C14.8597 9.80002 14.9258 8.78735 15.497 8.01391C14.2488 6.66955 12.8465 4.8585 12.0976 3.77538C11.3839 3.86931 10.7628 3.86491 10.3957 3.58606C9.63943 3.02102 7.74957 3.3982 6.99333 3.02102C6.60273 2.82289 5.84502 2.85077 5.09759 2.90801C5.27674 3.47305 5.19157 4.01901 4.83621 4.26117C4.15046 4.7176 4.07557 6.54627 5.75251 7.22872C7.42798 7.91411 6.89494 6.84861 7.73195 6.84861C8.57188 6.84861 8.49553 8.14453 9.25764 8.14453C10.0212 8.14453 11.7731 9.05739 11.6967 10.2755C11.6218 11.4937 12.3061 12.0264 13.6805 12.0264C13.9302 12.0264 14.215 12.0514 14.5117 12.091C14.7466 11.2779 15.0932 10.6175 14.9727 10.1977Z" fill="white"/>
<path fill-rule="evenodd" clip-rule="evenodd" d="M14.9727 10.1977C14.8597 9.80002 14.9258 8.78735 15.497 8.01391C14.2488 6.66955 12.8465 4.8585 12.0976 3.77538C11.3839 3.86931 10.7628 3.86491 10.3957 3.58606C9.63943 3.02102 7.74957 3.3982 6.99333 3.02102C6.60273 2.82289 5.84502 2.85077 5.09759 2.90801C5.27674 3.47305 5.19157 4.01901 4.83621 4.26117C4.15046 4.7176 4.07557 6.54627 5.75251 7.22872C7.42798 7.91411 6.89494 6.84861 7.73195 6.84861C8.57188 6.84861 8.49553 8.14453 9.25764 8.14453C10.0212 8.14453 11.7731 9.05739 11.6967 10.2755C11.6218 11.4937 12.3061 12.0264 13.6805 12.0264C13.9302 12.0264 14.215 12.0514 14.5117 12.091C14.7466 11.2779 15.0932 10.6175 14.9727 10.1977Z" stroke="#868686" stroke-width="0.25"/>
</g>
<defs>
<filter id="filter0_d_6252_1150" x="0.254395" y="0.740967" width="19.4048" height="17.4882" filterUnits="userSpaceOnUse" color-interpolation-filters="sRGB">
<feFlood flood-opacity="0" result="BackgroundImageFix"/>
<feColorMatrix in="SourceAlpha" type="matrix" values="0 0 0 0 0 0 0 0 0 0 0 0 0 0 0 0 0 0 127 0" result="hardAlpha"/>
<feOffset dy="2"/>
<feGaussianBlur stdDeviation="2"/>
<feColorMatrix type="matrix" values="0 0 0 0 0 0 0 0 0 0 0 0 0 0 0 0 0 0 0.01 0"/>
<feBlend mode="normal" in2="BackgroundImageFix" result="effect1_dropShadow_6252_1150"/>
<feBlend mode="normal" in="SourceGraphic" in2="effect1_dropShadow_6252_1150" result="shape"/>
</filter>
</defs>
</svg>
