<svg width="53" height="41" viewBox="0 0 53 41" fill="none" xmlns="http://www.w3.org/2000/svg">
<g filter="url(#filter0_d_6252_1219)">
<path fill-rule="evenodd" clip-rule="evenodd" d="M47.5982 8.66092C46.3735 8.6345 45.005 8.76512 44.0681 8.55819C42.955 8.31309 40.6041 8.18834 39.9874 7.57047C39.3677 6.95407 38.3794 6.45947 38.3794 7.19769C38.3794 7.94472 36.6482 8.06653 35.6599 7.44572C34.6687 6.82638 33.0637 6.33766 32.3207 5.83866C31.9286 5.58036 31.1269 5.25014 30.3648 4.87003C29.3339 5.07109 26.3706 3.98211 24.4191 4.2228C22.3354 4.47523 15.6761 3.91607 13.0843 4.12153C10.494 4.32407 10.3398 3.05457 8.91694 3.05457C7.4955 3.05457 8.1049 4.77903 6.0726 4.8304C4.03883 4.88324 3.83912 6.15127 5.30902 7.32244C6.14749 7.98875 6.04617 9.39034 5.92869 10.6789C6.35013 10.6261 6.66144 10.5101 6.84352 10.2885C7.46026 9.55031 8.07847 9.66772 8.07847 10.4133C8.07847 11.1574 9.43823 10.9093 10.1813 10.9093C10.9228 10.9093 10.6746 11.5287 11.5425 10.9093C12.4059 10.2885 13.6453 10.538 13.6453 11.2792C13.6453 12.0203 15.4984 11.649 14.5102 12.6397C13.5205 13.6274 12.2811 13.8769 12.2811 14.6151C12.2811 15.3592 13.3956 16.9633 12.5278 17.8278C11.6658 18.6951 12.7774 20.1789 11.914 20.1789C11.0462 20.1789 10.0564 20.5473 11.0462 21.5365C12.0373 22.5286 12.7774 23.393 12.0373 23.393C11.2943 23.393 10.7995 24.8768 11.171 25.2481C11.5425 25.618 13.2738 26.7319 11.9155 26.977C10.5528 27.225 10.5528 28.336 10.5528 29.0801C10.5528 29.356 10.773 29.7728 11.052 30.197C11.6835 30.0854 12.3061 30.0663 12.8802 30.3335C14.3031 30.9924 15.1269 34.5324 17.0461 34.2946C17.8611 34.1919 17.4544 33.5843 17.8611 33.1733C18.2693 32.7697 19.0285 33.0765 19.8435 33.0765C20.6541 33.0765 21.0638 31.9053 22.9918 31.8569C24.9242 31.807 26.1445 31.6499 27.3633 31.7042C28.5836 31.7541 29.5498 31.3476 29.8523 30.4846C30.1562 29.6217 31.1753 28.8614 32.5468 28.6574C33.9183 28.4534 33.7157 27.0313 33.8156 26.2211C33.9183 25.4066 36.2062 24.1855 36.3559 23.5779C36.5101 22.9659 35.0329 20.6309 36.4059 18.5484C37.7788 16.4658 39.2531 16.366 39.2531 15.1963C39.2531 14.1264 40.676 13.7257 42.4044 13.5173C44.1327 13.3177 44.6907 12.148 46.1665 11.5375C47.4073 11.0223 47.8478 10.1124 47.5982 8.66092ZM47.897 19.7652C47.6415 18.0364 44.1496 20.2804 44.897 20.7808C46.4242 21.7979 48.1496 21.4941 47.897 19.7652Z" fill="white"/>
<path d="M47.5982 8.66092L47.7214 8.63974L47.7039 8.53817L47.6009 8.53595L47.5982 8.66092ZM44.0681 8.55819L44.0951 8.43613L44.095 8.43611L44.0681 8.55819ZM39.9874 7.57047L40.0758 7.48216L40.0755 7.48185L39.9874 7.57047ZM35.6599 7.44572L35.7264 7.33987L35.7261 7.33972L35.6599 7.44572ZM32.3207 5.83866L32.3904 5.73489L32.3895 5.73428L32.3207 5.83866ZM30.3648 4.87003L30.4205 4.75817L30.3825 4.73921L30.3408 4.74734L30.3648 4.87003ZM24.4191 4.2228L24.4341 4.34689L24.4344 4.34686L24.4191 4.2228ZM13.0843 4.12153L13.0941 4.24615L13.0942 4.24614L13.0843 4.12153ZM6.0726 4.8304L6.06944 4.70544L6.06935 4.70544L6.0726 4.8304ZM5.30902 7.32244L5.23112 7.4202L5.23125 7.4203L5.30902 7.32244ZM5.92869 10.6789L5.80421 10.6676L5.7901 10.8223L5.94424 10.8029L5.92869 10.6789ZM6.84352 10.2885L6.74759 10.2084L6.74694 10.2092L6.84352 10.2885ZM11.5425 10.9093L11.6151 11.0111L11.6155 11.0108L11.5425 10.9093ZM14.5102 12.6397L14.5985 12.7282L14.5987 12.728L14.5102 12.6397ZM12.5278 17.8278L12.4396 17.7392L12.4391 17.7396L12.5278 17.8278ZM11.0462 21.5365L11.1346 21.4481L11.1345 21.4481L11.0462 21.5365ZM11.171 25.2481L11.0826 25.3365L11.0828 25.3367L11.171 25.2481ZM11.9155 26.977L11.8933 26.854L11.8931 26.854L11.9155 26.977ZM11.052 30.197L10.9476 30.2657L10.9928 30.3344L11.0738 30.3201L11.052 30.197ZM12.8802 30.3335L12.8275 30.4468L12.8277 30.4469L12.8802 30.3335ZM17.0461 34.2946L17.0615 34.4186L17.0618 34.4186L17.0461 34.2946ZM17.8611 33.1733L17.7732 33.0844L17.7723 33.0854L17.8611 33.1733ZM22.9918 31.8569L22.9949 31.9818L22.995 31.9818L22.9918 31.8569ZM27.3633 31.7042L27.3577 31.8291L27.3582 31.8291L27.3633 31.7042ZM29.8523 30.4846L29.7344 30.4431L29.7343 30.4433L29.8523 30.4846ZM33.8156 26.2211L33.6915 26.2055L33.6915 26.2059L33.8156 26.2211ZM36.3559 23.5779L36.2347 23.5474L36.2346 23.548L36.3559 23.5779ZM42.4044 13.5173L42.39 13.3931L42.3894 13.3932L42.4044 13.5173ZM46.1665 11.5375L46.2143 11.653L46.2144 11.6529L46.1665 11.5375ZM47.897 19.7652L48.0207 19.7472L48.0207 19.747L47.897 19.7652ZM44.897 20.7808L44.8275 20.8847L44.8277 20.8849L44.897 20.7808ZM47.6009 8.53595C46.987 8.52271 46.3301 8.5488 45.7245 8.55225C45.1126 8.55574 44.5486 8.53631 44.0951 8.43613L44.0411 8.68025C44.5245 8.787 45.1131 8.80574 45.7259 8.80225C46.345 8.79872 46.9847 8.77272 47.5955 8.78589L47.6009 8.53595ZM44.095 8.43611C43.8115 8.37369 43.4513 8.31934 43.0655 8.26363C42.6779 8.20766 42.2627 8.1501 41.8629 8.08095C41.4629 8.01175 41.0828 7.9317 40.7662 7.8318C40.4456 7.7306 40.2076 7.61422 40.0758 7.48216L39.8989 7.65878C40.0754 7.83566 40.3626 7.96658 40.691 8.07021C41.0235 8.17513 41.4164 8.25743 41.8203 8.32729C42.2245 8.3972 42.6443 8.4554 43.0298 8.51106C43.4171 8.56699 43.7682 8.62014 44.0412 8.68026L44.095 8.43611ZM40.0755 7.48185C39.7575 7.16555 39.3396 6.87413 38.9906 6.75754C38.8197 6.70043 38.6376 6.6759 38.4906 6.74457C38.3279 6.82058 38.2544 6.98571 38.2544 7.19769H38.5044C38.5044 7.04056 38.5544 6.99069 38.5964 6.97107C38.6541 6.94412 38.7578 6.94334 38.9114 6.99466C39.2115 7.09491 39.5975 7.35899 39.8992 7.65909L40.0755 7.48185ZM38.2544 7.19769C38.2544 7.32718 38.1823 7.43971 38.0291 7.53175C37.8736 7.62518 37.6471 7.68788 37.3799 7.71007C36.8452 7.7545 36.1935 7.63329 35.7264 7.33987L35.5934 7.55157C36.1146 7.87896 36.8226 8.00725 37.4006 7.95922C37.6898 7.93518 37.9579 7.86616 38.1578 7.74605C38.3601 7.62455 38.5044 7.44172 38.5044 7.19769H38.2544ZM35.7261 7.33972C35.2205 7.02379 34.5617 6.74294 33.946 6.48198C33.3229 6.21783 32.7495 5.97608 32.3904 5.73489L32.251 5.94244C32.6349 6.20024 33.2356 6.45235 33.8485 6.71215C34.4689 6.97513 35.1081 7.24831 35.5937 7.55173L35.7261 7.33972ZM32.3895 5.73428C32.1847 5.5994 31.8781 5.44863 31.5348 5.28694C31.1879 5.12358 30.7999 4.9474 30.4205 4.75817L30.309 4.98189C30.6917 5.17277 31.0856 5.35175 31.4282 5.51311C31.7744 5.67613 32.0646 5.81963 32.2519 5.94305L32.3895 5.73428ZM30.3408 4.74734C30.107 4.79294 29.7485 4.76652 29.2944 4.69634C28.8443 4.62678 28.3204 4.51787 27.7611 4.40886C26.6509 4.19251 25.4026 3.97556 24.4038 4.09874L24.4344 4.34686C25.3872 4.22935 26.5962 4.43655 27.7133 4.65425C28.2676 4.76227 28.7997 4.87286 29.2562 4.94341C29.7087 5.01334 30.1071 5.04764 30.3887 4.99272L30.3408 4.74734ZM24.4041 4.09871C23.3747 4.22341 21.2023 4.14765 18.9468 4.06486C16.7018 3.98247 14.3795 3.89346 13.0744 3.99693L13.0942 4.24614C14.3809 4.14414 16.6841 4.23198 18.9377 4.3147C21.1807 4.39702 23.3798 4.47463 24.4341 4.34689L24.4041 4.09871ZM13.0746 3.99691C11.8057 4.09613 11.1434 3.83578 10.6223 3.55404C10.1002 3.27177 9.66888 2.92957 8.91694 2.92957V3.17957C9.5879 3.17957 9.9451 3.47211 10.5034 3.77396C11.0627 4.07634 11.7727 4.34947 13.0941 4.24615L13.0746 3.99691ZM8.91694 2.92957C8.5316 2.92957 8.27227 3.04824 8.07346 3.23333C7.88387 3.40984 7.75177 3.6472 7.61849 3.85595C7.48103 4.07124 7.33352 4.27352 7.10471 4.42756C6.87744 4.58057 6.55886 4.69307 6.06944 4.70544L6.07576 4.95536C6.60249 4.94205 6.96984 4.81973 7.24432 4.63495C7.51725 4.45121 7.68729 4.21274 7.8292 3.99049C7.97528 3.7617 8.08437 3.56474 8.24381 3.4163C8.39403 3.27645 8.59156 3.17957 8.91694 3.17957V2.92957ZM6.06935 4.70544C5.04329 4.7321 4.39901 5.06719 4.25584 5.62602C4.18545 5.9008 4.24633 6.20375 4.41265 6.50658C4.57903 6.80951 4.85487 7.12041 5.23112 7.4202L5.38691 7.22468C5.02822 6.93888 4.77781 6.6521 4.63178 6.38623C4.4857 6.12026 4.44801 5.8833 4.49802 5.68807C4.59568 5.30688 5.06814 4.98154 6.07584 4.95536L6.06935 4.70544ZM5.23125 7.4203C5.61258 7.72333 5.78985 8.20056 5.85307 8.78086C5.91629 9.36122 5.86311 10.0214 5.80421 10.6676L6.05318 10.6903C6.11175 10.0478 6.16796 9.36295 6.1016 8.75379C6.03523 8.14458 5.84393 7.58786 5.38678 7.22458L5.23125 7.4203ZM5.94424 10.8029C6.37466 10.749 6.72676 10.6275 6.9401 10.3679L6.74694 10.2092C6.59611 10.3927 6.3256 10.5032 5.91314 10.5549L5.94424 10.8029ZM6.93945 10.3687C7.23939 10.0096 7.50962 9.89668 7.67607 9.91843C7.75389 9.9286 7.81874 9.96842 7.86733 10.0434C7.9179 10.1215 7.95347 10.2427 7.95347 10.4133H8.20347C8.20347 10.2111 8.16175 10.0381 8.07714 9.90747C7.99054 9.77382 7.8623 9.69064 7.70847 9.67054C7.41164 9.63175 7.06439 9.82919 6.74759 10.2084L6.93945 10.3687ZM7.95347 10.4133C7.95347 10.6474 8.06528 10.8107 8.23941 10.9126C8.40377 11.0088 8.62041 11.0491 8.84229 11.065C9.06689 11.0811 9.31308 11.073 9.54549 11.0613C9.78132 11.0495 9.99967 11.0343 10.1813 11.0343V10.7843C9.99132 10.7843 9.76107 10.8002 9.53297 10.8116C9.30145 10.8232 9.06838 10.8306 8.86016 10.8157C8.64922 10.8005 8.47948 10.7634 8.36567 10.6968C8.26162 10.6359 8.20347 10.5512 8.20347 10.4133H7.95347ZM10.1813 11.0343C10.3472 11.0343 10.4512 11.0685 10.5278 11.1077C10.5676 11.1281 10.6023 11.1509 10.6382 11.1756C10.6719 11.1989 10.7123 11.2278 10.7537 11.2508C10.848 11.3033 10.9545 11.3297 11.0998 11.2915C11.233 11.2565 11.3955 11.1678 11.6151 11.0111L11.4699 10.8076C11.2556 10.9605 11.1236 11.0267 11.0362 11.0497C10.9607 11.0696 10.9201 11.0573 10.8753 11.0324C10.8471 11.0167 10.8199 10.9972 10.7799 10.9697C10.7419 10.9435 10.6964 10.9132 10.6417 10.8851C10.5292 10.8276 10.3861 10.7843 10.1813 10.7843V11.0343ZM11.6155 11.0108C12.019 10.7207 12.51 10.6351 12.8949 10.7064C13.2854 10.7788 13.5203 10.9964 13.5203 11.2792H13.7703C13.7703 10.8208 13.3854 10.5431 12.9404 10.4606C12.4898 10.3771 11.9294 10.4772 11.4695 10.8078L11.6155 11.0108ZM13.5203 11.2792C13.5203 11.5317 13.6843 11.6809 13.8603 11.7753C14.029 11.8657 14.2512 11.9272 14.4056 11.9833C14.4885 12.0135 14.5544 12.0424 14.6022 12.0737C14.6497 12.105 14.6666 12.1304 14.6722 12.1492C14.6774 12.1665 14.6802 12.202 14.6454 12.2704C14.6099 12.3399 14.541 12.4318 14.4217 12.5514L14.5987 12.728C14.7264 12.5999 14.8157 12.4867 14.8681 12.384C14.921 12.2801 14.9413 12.1764 14.9117 12.0775C14.8826 11.9803 14.8126 11.9129 14.7394 11.8648C14.6665 11.8169 14.578 11.7801 14.4911 11.7484C14.3057 11.6809 14.1264 11.6343 13.9785 11.555C13.8379 11.4796 13.7703 11.3973 13.7703 11.2792H13.5203ZM14.4219 12.5512C13.9393 13.0328 13.3984 13.3326 12.957 13.6157C12.7399 13.755 12.5419 13.8936 12.3984 14.0491C12.252 14.2077 12.1561 14.3906 12.1561 14.6151H12.4061C12.4061 14.4705 12.4651 14.3454 12.5821 14.2187C12.7019 14.0889 12.8756 13.965 13.092 13.8262C13.5176 13.5531 14.0913 13.2342 14.5985 12.7282L14.4219 12.5512ZM12.1561 14.6151C12.1561 14.8248 12.2332 15.0836 12.3233 15.3495C12.4161 15.6237 12.5257 15.9133 12.6096 16.2103C12.7792 16.8106 12.8193 17.3609 12.4396 17.7392L12.616 17.9163C13.1041 17.4301 13.0208 16.7462 12.8502 16.1423C12.764 15.8372 12.6491 15.5323 12.5601 15.2693C12.4683 14.9982 12.4061 14.7774 12.4061 14.6151H12.1561ZM12.4391 17.7396C11.9595 18.2223 12.0363 18.8737 12.0975 19.3447C12.1133 19.4664 12.1282 19.5752 12.1357 19.6732C12.1433 19.7718 12.1423 19.8495 12.1304 19.9089C12.1188 19.9664 12.0991 19.9968 12.0758 20.0151C12.0514 20.0342 12.0052 20.0539 11.914 20.0539V20.3039C12.0386 20.3039 12.1466 20.2772 12.23 20.2118C12.3146 20.1456 12.3564 20.0533 12.3755 19.9581C12.3942 19.8648 12.3931 19.7599 12.385 19.6541C12.3769 19.5478 12.3607 19.4305 12.3454 19.3125C12.2821 18.8248 12.2341 18.3006 12.6165 17.9159L12.4391 17.7396ZM11.914 20.0539C11.689 20.0539 11.4539 20.0777 11.2427 20.1307C11.0337 20.1831 10.8364 20.2669 10.6984 20.3952C10.5544 20.529 10.4777 20.7099 10.5194 20.9303C10.559 21.14 10.7031 21.3703 10.9578 21.6249L11.1345 21.4481C10.8944 21.208 10.791 21.0214 10.765 20.8838C10.741 20.7569 10.7804 20.6602 10.8686 20.5783C10.9627 20.4908 11.1138 20.4207 11.3035 20.3732C11.491 20.3261 11.7051 20.3039 11.914 20.3039V20.0539ZM10.9577 21.6248C11.4548 22.1224 11.8776 22.5772 12.0855 22.9039C12.1369 22.9847 12.1724 23.0534 12.1928 23.1097C12.2137 23.1677 12.2148 23.2015 12.2115 23.2181C12.2097 23.2273 12.2069 23.2343 12.1897 23.2433C12.1666 23.2555 12.1203 23.268 12.0373 23.268V23.518C12.1394 23.518 12.2319 23.5036 12.306 23.4646C12.3862 23.4225 12.4393 23.3542 12.4567 23.2668C12.4726 23.1868 12.4562 23.1029 12.4278 23.0246C12.3989 22.9448 12.3532 22.859 12.2964 22.7697C12.0715 22.4161 11.6287 21.9427 11.1346 21.4481L10.9577 21.6248ZM12.0373 23.268C11.8077 23.268 11.6075 23.3828 11.4479 23.5422C11.2882 23.7018 11.1601 23.9143 11.0705 24.1341C10.9808 24.3541 10.9265 24.5891 10.9202 24.7978C10.9141 25.0003 10.9527 25.2067 11.0826 25.3365L11.2593 25.1597C11.2035 25.1039 11.1646 24.9856 11.1701 24.8054C11.1753 24.6314 11.2215 24.4259 11.302 24.2285C11.3825 24.031 11.4942 23.8494 11.6246 23.7191C11.7552 23.5887 11.8955 23.518 12.0373 23.518V23.268ZM11.0828 25.3367C11.181 25.4345 11.3681 25.5809 11.5553 25.736C11.7483 25.8961 11.9501 26.0721 12.0976 26.2414C12.1713 26.3261 12.2278 26.4049 12.2628 26.4754C12.2984 26.5468 12.3068 26.5991 12.3009 26.6359C12.292 26.6925 12.2282 26.7935 11.8933 26.854L11.9377 27.1C12.2819 27.0379 12.511 26.9078 12.5479 26.675C12.5649 26.5671 12.5345 26.4602 12.4867 26.3641C12.4385 26.2672 12.3672 26.1703 12.2862 26.0772C12.1242 25.8912 11.9084 25.7041 11.7148 25.5436C11.5153 25.3782 11.3467 25.2466 11.2592 25.1595L11.0828 25.3367ZM11.8931 26.854C11.1719 26.9853 10.7954 27.3517 10.608 27.7937C10.4261 28.2228 10.4278 28.7126 10.4278 29.0801H10.6778C10.6778 28.7035 10.6794 28.2658 10.8382 27.8913C10.9915 27.5298 11.2963 27.2167 11.9378 27.1L11.8931 26.854ZM10.4278 29.0801C10.4278 29.2463 10.4926 29.4399 10.5846 29.636C10.6781 29.8353 10.8065 30.0511 10.9476 30.2657L11.1565 30.1283C11.0186 29.9187 10.8973 29.714 10.8109 29.5299C10.7231 29.3426 10.6778 29.1898 10.6778 29.0801H10.4278ZM11.0738 30.3201C11.696 30.2101 12.2879 30.1958 12.8275 30.4468L12.9329 30.2201C12.3242 29.9369 11.6709 29.9607 11.0303 30.0739L11.0738 30.3201ZM12.8277 30.4469C13.1527 30.5974 13.4552 30.9194 13.7606 31.3375C14.0663 31.7561 14.3558 32.2427 14.673 32.7195C14.9857 33.1896 15.3213 33.6435 15.7055 33.9645C16.0925 34.2881 16.5373 34.4836 17.0615 34.4186L17.0308 34.1705C16.5953 34.2245 16.2174 34.0667 15.8658 33.7727C15.5112 33.4764 15.1922 33.0487 14.8811 32.5811C14.5746 32.1202 14.2714 31.6132 13.9625 31.1901C13.6532 30.7666 13.3192 30.399 12.9327 30.22L12.8277 30.4469ZM17.0618 34.4186C17.281 34.391 17.437 34.3271 17.5457 34.2249C17.6546 34.1226 17.7005 33.9961 17.7284 33.8783C17.7421 33.8201 17.7524 33.7592 17.7624 33.7038C17.7727 33.6466 17.783 33.5928 17.7974 33.5404C17.8255 33.4374 17.868 33.3441 17.95 33.2613L17.7723 33.0854C17.6509 33.2081 17.5917 33.3448 17.5562 33.4745C17.5387 33.5384 17.5268 33.6016 17.5164 33.6594C17.5057 33.7189 17.4968 33.7709 17.4851 33.8208C17.4619 33.9191 17.4312 33.9895 17.3745 34.0427C17.3176 34.0962 17.2188 34.1468 17.0305 34.1706L17.0618 34.4186ZM17.949 33.2622C18.1106 33.1025 18.3504 33.0722 18.6902 33.0982C18.8583 33.111 19.0367 33.1361 19.2328 33.159C19.4263 33.1816 19.6324 33.2015 19.8435 33.2015V32.9515C19.6471 32.9515 19.4526 32.933 19.2618 32.9107C19.0737 32.8887 18.884 32.8623 18.7093 32.8489C18.3637 32.8225 18.0199 32.8406 17.7732 33.0844L17.949 33.2622ZM19.8435 33.2015C20.0785 33.2015 20.2791 33.1159 20.471 32.9996C20.5666 32.9417 20.6625 32.8747 20.76 32.8051C20.8586 32.7349 20.959 32.662 21.0683 32.5886C21.4993 32.299 22.061 32.0053 22.9949 31.9818L22.9887 31.7319C21.9946 31.7569 21.3874 32.073 20.9289 32.3811C20.8158 32.457 20.7113 32.5328 20.6149 32.6016C20.5175 32.671 20.4284 32.7332 20.3415 32.7858C20.1683 32.8907 20.0138 32.9515 19.8435 32.9515V33.2015ZM22.995 31.9818C23.9636 31.9568 24.7544 31.9049 25.4521 31.8663C26.1508 31.8276 26.7551 31.8022 27.3577 31.8291L27.3689 31.5793C26.7527 31.5519 26.1375 31.5779 25.4383 31.6167C24.738 31.6554 23.9524 31.707 22.9886 31.7319L22.995 31.9818ZM27.3582 31.8291C28.5977 31.8798 29.64 31.4681 29.9702 30.526L29.7343 30.4433C29.4596 31.2271 28.5695 31.6284 27.3684 31.5793L27.3582 31.8291ZM29.9702 30.5261C30.2539 29.7208 31.2228 28.9807 32.5652 28.7811L32.5284 28.5338C31.1278 28.7421 30.0586 29.5225 29.7344 30.4431L29.9702 30.5261ZM32.5652 28.7811C32.9308 28.7267 33.201 28.5892 33.3978 28.3932C33.5934 28.1985 33.7082 27.9544 33.7786 27.6999C33.8487 27.446 33.8762 27.1756 33.8928 26.9231C33.9098 26.6649 33.9152 26.4345 33.9396 26.2364L33.6915 26.2059C33.666 26.4129 33.6593 26.664 33.6433 26.9067C33.627 27.1551 33.6007 27.4048 33.5376 27.6333C33.4746 27.8611 33.3767 28.0614 33.2214 28.216C33.0674 28.3694 32.8486 28.4862 32.5284 28.5338L32.5652 28.7811ZM33.9396 26.2368C33.9492 26.1605 33.9859 26.0704 34.0531 25.9665C34.1197 25.8633 34.2121 25.7529 34.3245 25.637C34.5497 25.4048 34.8443 25.1612 35.1462 24.9195C35.4454 24.6801 35.7531 24.4415 35.9937 24.2258C36.1143 24.1176 36.2215 24.0122 36.3043 23.9123C36.3853 23.8144 36.4518 23.7113 36.4773 23.6079L36.2346 23.548C36.2226 23.5964 36.1849 23.6644 36.1117 23.7528C36.0403 23.8391 35.9434 23.9352 35.8268 24.0397C35.5931 24.2492 35.2944 24.4807 34.99 24.7244C34.6884 24.9657 34.3825 25.2181 34.1451 25.4629C34.0262 25.5855 33.9218 25.7089 33.8431 25.8308C33.7649 25.9519 33.7076 26.0782 33.6915 26.2055L33.9396 26.2368ZM36.4771 23.6085C36.5033 23.5047 36.4926 23.379 36.469 23.2492C36.4449 23.1162 36.4037 22.9615 36.356 22.7928C36.2597 22.452 36.1345 22.0445 36.0466 21.5908C35.8711 20.6854 35.8494 19.6195 36.5102 18.6172L36.3015 18.4796C35.5893 19.5598 35.6198 20.7027 35.8011 21.6384C35.8916 22.1053 36.021 22.5265 36.1154 22.8607C36.1631 23.0295 36.2013 23.1739 36.223 23.2939C36.2454 23.4171 36.2471 23.4982 36.2347 23.5474L36.4771 23.6085ZM36.5102 18.6172C37.1849 17.5939 37.8826 17.0588 38.4224 16.6277C38.9555 16.2018 39.3781 15.8493 39.3781 15.1963H39.1281C39.1281 15.713 38.8136 15.9952 38.2663 16.4323C37.7257 16.8642 36.9998 17.4203 36.3015 18.4796L36.5102 18.6172ZM39.3781 15.1963C39.3781 14.7328 39.6804 14.3985 40.2324 14.1475C40.7856 13.896 41.5571 13.7454 42.4193 13.6414L42.3894 13.3932C41.5233 13.4976 40.7192 13.6515 40.1289 13.92C39.5374 14.1889 39.1281 14.5899 39.1281 15.1963H39.3781ZM42.4187 13.6415C43.3135 13.5382 43.9058 13.182 44.4538 12.7825C45.0037 12.3816 45.4944 11.9508 46.2143 11.653L46.1187 11.422C45.3628 11.7347 44.8367 12.194 44.3065 12.5805C43.7745 12.9684 43.2236 13.2969 42.39 13.3931L42.4187 13.6415ZM46.2144 11.6529C46.8545 11.3872 47.3024 11.0132 47.5533 10.5057C47.8032 10.0003 47.8488 9.38051 47.7214 8.63974L47.475 8.68211C47.5972 9.39283 47.5474 9.95371 47.3292 10.3949C47.1121 10.8341 46.7193 11.1726 46.1186 11.422L46.2144 11.6529ZM48.0207 19.747C47.9853 19.5078 47.8915 19.3242 47.7462 19.1977C47.6018 19.072 47.4189 19.0133 47.2242 18.9995C46.8396 18.9722 46.3784 19.1176 45.9648 19.3253C45.549 19.5341 45.1606 19.8162 44.9212 20.0847C44.803 20.2173 44.7105 20.3582 44.6791 20.4945C44.6628 20.5646 44.6617 20.6386 44.6869 20.7097C44.7125 20.7819 44.7615 20.8405 44.8275 20.8847L44.9666 20.677C44.9391 20.6586 44.9278 20.641 44.9225 20.6262C44.9169 20.6103 44.9144 20.5864 44.9226 20.5507C44.9401 20.4753 44.9997 20.3723 45.1078 20.2511C45.3209 20.0121 45.6813 19.7474 46.077 19.5487C46.4749 19.349 46.8878 19.2263 47.2065 19.2489C47.3634 19.26 47.4894 19.3057 47.582 19.3863C47.6736 19.466 47.7448 19.5905 47.7733 19.7835L48.0207 19.747ZM44.8277 20.8849C45.6096 21.4056 46.4604 21.6012 47.098 21.4232C47.4199 21.3333 47.6886 21.1471 47.8574 20.8596C48.0254 20.5733 48.0868 20.1996 48.0207 19.7472L47.7733 19.7833C47.8335 20.1953 47.7739 20.508 47.6418 20.733C47.5103 20.9569 47.2996 21.1073 47.0308 21.1824C46.487 21.3342 45.7116 21.1732 44.9663 20.6768L44.8277 20.8849Z" fill="#868686"/>
</g>
<defs>
<filter id="filter0_d_6252_1219" x="0.227051" y="0.929565" width="51.8198" height="39.5015" filterUnits="userSpaceOnUse" color-interpolation-filters="sRGB">
<feFlood flood-opacity="0" result="BackgroundImageFix"/>
<feColorMatrix in="SourceAlpha" type="matrix" values="0 0 0 0 0 0 0 0 0 0 0 0 0 0 0 0 0 0 127 0" result="hardAlpha"/>
<feOffset dy="2"/>
<feGaussianBlur stdDeviation="2"/>
<feColorMatrix type="matrix" values="0 0 0 0 0 0 0 0 0 0 0 0 0 0 0 0 0 0 0.01 0"/>
<feBlend mode="normal" in2="BackgroundImageFix" result="effect1_dropShadow_6252_1219"/>
<feBlend mode="normal" in="SourceGraphic" in2="effect1_dropShadow_6252_1219" result="shape"/>
</filter>
</defs>
</svg>
