<svg width="45" height="67" viewBox="0 0 45 67" fill="none" xmlns="http://www.w3.org/2000/svg">
<g filter="url(#filter0_d_6252_1121)">
<path fill-rule="evenodd" clip-rule="evenodd" d="M35.2028 50.8774C36.0178 49.0488 39.6712 47.6369 40.288 46.002C40.5905 45.186 40.6918 44.7809 39.3717 43.256C38.0501 41.7326 35.1044 40.717 34.9987 39.9054C34.8974 39.0894 37.2366 38.9911 37.1338 37.974C37.0325 36.9569 35.8166 36.9613 35.3027 36.1468C34.796 35.3337 35.915 34.823 35.8137 34.4194C35.7123 34.0143 34.1866 33.8103 34.0853 33.2996C33.984 32.7933 35.1029 32.8945 34.8974 32.2869C34.6933 31.6779 33.68 30.5566 34.3908 29.6452C35.1029 28.7309 36.6272 29.6452 35.5068 27.614C34.3908 25.5828 32.661 23.0423 32.2557 22.4303C31.8475 21.8212 32.661 20.8056 33.2733 20.4035C33.8827 19.9955 35.4054 18.4721 35.4054 17.8616C35.4054 17.2525 33.4759 15.6249 32.9679 15.3226C32.4568 15.0173 31.3423 15.12 30.8342 14.1015C30.3218 13.0874 29.8181 12.7836 30.3218 12.173C30.8342 11.564 30.8342 10.9549 30.8342 10.3429C30.8342 9.73383 31.9517 10.2416 32.1499 9.32729C32.2425 8.91195 32.5376 8.45552 32.9121 8.0754C32.915 7.38268 32.9899 6.63712 32.9121 6.16308C32.7491 5.18123 29.9737 4.85542 29.3218 3.7136C28.6654 2.57472 27.034 3.06197 26.542 3.7136C26.0545 4.3667 23.1133 3.55216 23.1133 4.53254C23.1133 5.51145 20.9928 5.67582 20.9928 6.81617C20.9928 7.95946 21.9723 9.91581 20.3394 9.75437C18.7065 9.59 19.8489 10.406 18.8695 11.7107C17.8886 13.0169 17.8886 10.8933 16.9092 11.2205C15.9327 11.5478 14.7888 10.2416 14.2968 11.0576C13.8078 11.8766 12.1764 11.2205 10.5406 10.8947C8.90624 10.5689 8.09273 8.28674 6.78437 8.1209C5.918 8.01376 4.98995 8.70502 4.50537 9.79694C5.76969 10.6144 6.59935 11.7753 8.25279 12.5297C10.0501 13.3457 13.3159 14.3216 13.1573 15.4664C12.9914 16.6082 12.4995 18.2402 13.3159 18.7319C14.1338 19.2191 13.1573 21.3428 14.1338 21.833C15.1133 22.3246 14.7873 24.7683 13.9708 24.7683C13.1573 24.7683 14.1338 26.073 14.6258 26.5602C14.846 26.7863 15.0266 27.4496 15.1074 28.2568C16.1118 28.499 17.0017 29.0053 17.8739 29.3942C19.2469 30.0033 19.0413 30.9661 19.0942 32.033C19.1426 33.0985 19.1926 33.7061 18.4848 33.2512C17.7741 32.7947 17.0105 33.2512 16.6037 34.7775C16.1955 36.2994 14.2645 38.1296 13.0957 38.2309C11.9253 38.3321 12.0281 39.5503 11.0619 39.8041C10.0986 40.0581 9.18377 40.6172 9.23517 41.6827C9.28363 42.7497 7.81226 42.851 6.84457 42.851C5.87982 42.851 6.08246 44.5769 5.32035 45.0333C4.55823 45.4927 4.70948 46.1018 5.4202 47.0161C6.13239 47.9319 5.52299 48.7435 5.77556 49.4039C6.03253 50.0644 7.15 51.5878 6.38496 53.2623C5.62431 54.9398 4.81227 57.0224 5.47306 56.8199C6.13092 56.6174 7.65661 58.1936 8.6757 58.0909C9.69038 57.9866 9.79464 59.5086 10.7579 59.2063C11.7212 58.9025 11.7212 60.1177 14.52 60.0208C17.3159 59.9181 22.9547 57.5831 25.1925 57.5831C26.4613 57.5831 27.4745 57.4304 28.2748 57.2323C28.7549 56.5102 29.3364 55.7265 29.9194 55.1438C31.3423 53.7188 34.3908 52.7061 35.2028 50.8774Z" fill="white"/>
<path fill-rule="evenodd" clip-rule="evenodd" d="M35.2028 50.8774C36.0178 49.0488 39.6712 47.6369 40.288 46.002C40.5905 45.186 40.6918 44.7809 39.3717 43.256C38.0501 41.7326 35.1044 40.717 34.9987 39.9054C34.8974 39.0894 37.2366 38.9911 37.1338 37.974C37.0325 36.9569 35.8166 36.9613 35.3027 36.1468C34.796 35.3337 35.915 34.823 35.8137 34.4194C35.7123 34.0143 34.1866 33.8103 34.0853 33.2996C33.984 32.7933 35.1029 32.8945 34.8974 32.2869C34.6933 31.6779 33.68 30.5566 34.3908 29.6452C35.1029 28.7309 36.6272 29.6452 35.5068 27.614C34.3908 25.5828 32.661 23.0423 32.2557 22.4303C31.8475 21.8212 32.661 20.8056 33.2733 20.4035C33.8827 19.9955 35.4054 18.4721 35.4054 17.8616C35.4054 17.2525 33.4759 15.6249 32.9679 15.3226C32.4568 15.0173 31.3423 15.12 30.8342 14.1015C30.3218 13.0874 29.8181 12.7836 30.3218 12.173C30.8342 11.564 30.8342 10.9549 30.8342 10.3429C30.8342 9.73383 31.9517 10.2416 32.1499 9.32729C32.2425 8.91195 32.5376 8.45552 32.9121 8.0754C32.915 7.38268 32.9899 6.63712 32.9121 6.16308C32.7491 5.18123 29.9737 4.85542 29.3218 3.7136C28.6654 2.57472 27.034 3.06197 26.542 3.7136C26.0545 4.3667 23.1133 3.55216 23.1133 4.53254C23.1133 5.51145 20.9928 5.67582 20.9928 6.81617C20.9928 7.95946 21.9723 9.91581 20.3394 9.75437C18.7065 9.59 19.8489 10.406 18.8695 11.7107C17.8886 13.0169 17.8886 10.8933 16.9092 11.2205C15.9327 11.5478 14.7888 10.2416 14.2968 11.0576C13.8078 11.8766 12.1764 11.2205 10.5406 10.8947C8.90624 10.5689 8.09273 8.28674 6.78437 8.1209C5.918 8.01376 4.98995 8.70502 4.50537 9.79694C5.76969 10.6144 6.59935 11.7753 8.25279 12.5297C10.0501 13.3457 13.3159 14.3216 13.1573 15.4664C12.9914 16.6082 12.4995 18.2402 13.3159 18.7319C14.1338 19.2191 13.1573 21.3428 14.1338 21.833C15.1133 22.3246 14.7873 24.7683 13.9708 24.7683C13.1573 24.7683 14.1338 26.073 14.6258 26.5602C14.846 26.7863 15.0266 27.4496 15.1074 28.2568C16.1118 28.499 17.0017 29.0053 17.8739 29.3942C19.2469 30.0033 19.0413 30.9661 19.0942 32.033C19.1426 33.0985 19.1926 33.7061 18.4848 33.2512C17.7741 32.7947 17.0105 33.2512 16.6037 34.7775C16.1955 36.2994 14.2645 38.1296 13.0957 38.2309C11.9253 38.3321 12.0281 39.5503 11.0619 39.8041C10.0986 40.0581 9.18377 40.6172 9.23517 41.6827C9.28363 42.7497 7.81226 42.851 6.84457 42.851C5.87982 42.851 6.08246 44.5769 5.32035 45.0333C4.55823 45.4927 4.70948 46.1018 5.4202 47.0161C6.13239 47.9319 5.52299 48.7435 5.77556 49.4039C6.03253 50.0644 7.15 51.5878 6.38496 53.2623C5.62431 54.9398 4.81227 57.0224 5.47306 56.8199C6.13092 56.6174 7.65661 58.1936 8.6757 58.0909C9.69038 57.9866 9.79464 59.5086 10.7579 59.2063C11.7212 58.9025 11.7212 60.1177 14.52 60.0208C17.3159 59.9181 22.9547 57.5831 25.1925 57.5831C26.4613 57.5831 27.4745 57.4304 28.2748 57.2323C28.7549 56.5102 29.3364 55.7265 29.9194 55.1438C31.3423 53.7188 34.3908 52.7061 35.2028 50.8774Z" stroke="#868686" stroke-width="0.25"/>
</g>
<defs>
<filter id="filter0_d_6252_1121" x="0.347656" y="0.905273" width="44.2568" height="65.246" filterUnits="userSpaceOnUse" color-interpolation-filters="sRGB">
<feFlood flood-opacity="0" result="BackgroundImageFix"/>
<feColorMatrix in="SourceAlpha" type="matrix" values="0 0 0 0 0 0 0 0 0 0 0 0 0 0 0 0 0 0 127 0" result="hardAlpha"/>
<feOffset dy="2"/>
<feGaussianBlur stdDeviation="2"/>
<feColorMatrix type="matrix" values="0 0 0 0 0 0 0 0 0 0 0 0 0 0 0 0 0 0 0.01 0"/>
<feBlend mode="normal" in2="BackgroundImageFix" result="effect1_dropShadow_6252_1121"/>
<feBlend mode="normal" in="SourceGraphic" in2="effect1_dropShadow_6252_1121" result="shape"/>
</filter>
</defs>
</svg>
