<svg width="59" height="51" viewBox="0 0 59 51" fill="none" xmlns="http://www.w3.org/2000/svg">
<g filter="url(#filter0_d_6252_1132)">
<path fill-rule="evenodd" clip-rule="evenodd" d="M48.4981 12.2975C48.0414 12.3753 47.6582 11.687 46.667 11.687C45.6787 11.687 44.9166 11.2305 44.457 10.6215C44.0003 10.0095 41.6406 9.85977 40.877 10.0095C40.1134 10.1636 39.8858 8.71502 39.1208 8.86765C38.3601 9.02029 38.1325 7.877 38.1325 7.26793C38.1325 6.66033 37.294 7.7273 36.6083 8.03257C35.9225 8.33637 35.692 7.34572 35.6171 6.88928C35.5407 6.43138 34.1692 5.97495 33.482 5.59483C32.7962 5.21325 32.0341 3.99365 31.7287 4.52786C31.4262 5.05915 30.5863 3.76469 30.5099 3.22901C30.46 2.87824 30.2206 2.98832 30.0664 2.77698C29.8051 2.82981 29.5466 2.8621 29.2896 2.84889C28.0694 2.79899 27.0033 3.76469 27.2089 5.79883C27.4101 7.8271 25.7317 8.0311 23.6494 8.18374C21.5657 8.33637 22.2779 9.96104 21.4145 10.6215C20.551 11.2834 17.4997 10.2678 17.0944 9.15091C16.6891 8.03404 13.9446 9.15091 15.112 10.4674C16.2823 11.7897 16.2295 13.6184 15.5716 14.1247C14.9108 14.634 13.4865 13.3131 12.5702 13.9721C11.6553 14.6325 11.6054 13.363 10.4894 12.9609C9.37046 12.5514 8.91084 13.4643 7.13404 13.3131C5.35284 13.1605 4.33816 14.1746 4.99895 14.9363C5.65828 15.698 4.89763 16.4083 5.40424 17.0703C5.91378 17.7307 8.25005 17.6265 9.97692 18.5438C11.7067 19.4552 12.1105 18.6949 12.9769 19.3568C13.8418 20.0173 14.0459 19.6093 14.0944 20.8817C14.1472 22.1497 15.1105 23.3664 16.7875 23.8272C18.4659 24.2851 17.1942 25.4005 17.7023 26.5203C18.2104 27.6372 16.9402 29.2604 17.1942 30.6326C17.4497 32.0049 16.3807 36.421 15.5701 36.829C15.5173 36.8583 15.4336 36.8583 15.366 36.8686C16.1281 37.2487 16.9284 37.5789 17.322 37.8373C18.065 38.3363 19.67 38.825 20.6612 39.4443C21.648 40.0651 23.3807 39.9433 23.3807 39.1963C23.3807 38.4581 24.369 38.9527 24.9886 39.5691C25.6054 40.1869 27.9563 40.3117 29.0694 40.5568C30.0077 40.7652 31.3748 40.6346 32.5995 40.6595C32.551 40.3821 32.4908 40.093 32.3924 39.776C31.783 37.7947 33.5598 36.6265 35.2368 36.3711C36.9122 36.1187 40.5745 37.1343 41.5407 37.7419C42.504 38.3539 43.8285 38.2012 45.5055 36.4225C46.3513 35.5257 47.0444 35.1985 47.6582 35.0223C47.7037 34.6246 47.9107 34.2181 48.0444 33.86C48.2734 33.2494 47.2059 33.4006 46.4423 33.3243C45.6802 33.2494 45.1486 32.4877 45.6802 31.6482C46.2147 30.8102 45.2235 30.7339 44.689 29.8974C44.1545 29.0608 44.9166 29.2883 45.3733 29.0608C45.8315 28.8319 46.4423 27.9161 46.0591 27.6886C45.6802 27.4611 45.3733 26.9269 45.6802 26.0125C45.9856 25.0953 45.0708 25.019 45.0708 24.3336C45.0708 23.6482 44.2323 23.3429 43.5451 24.1809C42.8594 25.0175 42.6288 24.4099 43.0855 23.0391C43.5451 21.6639 45.1457 21.0563 45.297 20.2961C45.4482 19.5329 46.3645 18.8476 47.0488 18.8476C47.736 18.8476 47.5818 17.2493 47.8138 16.2572C48.0414 15.268 48.1942 14.2773 49.1868 13.4393C50.1765 12.6057 48.9563 12.2227 48.4981 12.2975ZM53.9383 38.1527C53.3774 38.1028 53.2247 39.114 51.8047 39.9828C50.3818 40.8458 51.815 44.7438 53.2247 44.5515C54.6975 44.349 54.4949 38.204 53.9383 38.1527Z" fill="white"/>
<path d="M48.4981 12.2975L48.478 12.1741L48.4771 12.1743L48.4981 12.2975ZM44.457 10.6215L44.3568 10.6962L44.3572 10.6968L44.457 10.6215ZM40.877 10.0095L40.8529 9.8868L40.8523 9.88694L40.877 10.0095ZM39.1208 8.86765L39.0963 8.74507L39.0962 8.7451L39.1208 8.86765ZM36.6083 8.03257L36.6589 8.14686L36.6591 8.14677L36.6083 8.03257ZM35.6171 6.88928L35.7404 6.86905L35.7404 6.86872L35.6171 6.88928ZM33.482 5.59483L33.4212 5.70406L33.4215 5.70421L33.482 5.59483ZM31.7287 4.52786L31.6202 4.46582L31.6201 4.46601L31.7287 4.52786ZM30.5099 3.22901L30.3862 3.24662L30.3862 3.24665L30.5099 3.22901ZM30.0664 2.77698L30.1674 2.70331L30.1202 2.63858L30.0417 2.65446L30.0664 2.77698ZM29.2896 2.84889L29.2961 2.72405L29.2948 2.724L29.2896 2.84889ZM27.2089 5.79883L27.3333 5.7865L27.3333 5.78626L27.2089 5.79883ZM23.6494 8.18374L23.6586 8.3084L23.6586 8.3084L23.6494 8.18374ZM21.4145 10.6215L21.3385 10.5222L21.3384 10.5223L21.4145 10.6215ZM15.112 10.4674L15.2056 10.3845L15.2055 10.3844L15.112 10.4674ZM15.5716 14.1247L15.4954 14.0257L15.4953 14.0257L15.5716 14.1247ZM12.5702 13.9721L12.4972 13.8706L12.497 13.8707L12.5702 13.9721ZM10.4894 12.9609L10.4464 13.0783L10.447 13.0785L10.4894 12.9609ZM7.13404 13.3131L7.12337 13.4377L7.12345 13.4377L7.13404 13.3131ZM4.99895 14.9363L5.09347 14.8545L5.09337 14.8544L4.99895 14.9363ZM5.40424 17.0703L5.30498 17.1462L5.30527 17.1466L5.40424 17.0703ZM9.97692 18.5438L9.91828 18.6541L9.91865 18.6543L9.97692 18.5438ZM12.9769 19.3568L12.901 19.4562L12.901 19.4562L12.9769 19.3568ZM14.0944 20.8817L13.9695 20.8865L13.9695 20.8869L14.0944 20.8817ZM16.7875 23.8272L16.7543 23.9478L16.7546 23.9478L16.7875 23.8272ZM17.7023 26.5203L17.5885 26.572L17.5885 26.5721L17.7023 26.5203ZM17.1942 30.6326L17.0713 30.6554L17.0713 30.6555L17.1942 30.6326ZM15.5701 36.829L15.5139 36.7172L15.5095 36.7197L15.5701 36.829ZM15.366 36.8686L15.3472 36.745L14.9572 36.8044L15.3102 36.9805L15.366 36.8686ZM17.322 37.8373L17.3917 37.7335L17.3906 37.7328L17.322 37.8373ZM20.6612 39.4443L20.7277 39.3385L20.7274 39.3383L20.6612 39.4443ZM24.9886 39.5691L25.0771 39.4808L25.0768 39.4804L24.9886 39.5691ZM29.0694 40.5568L29.0965 40.4348L29.0963 40.4347L29.0694 40.5568ZM32.5995 40.6595L32.5969 40.7845L32.7487 40.7876L32.7226 40.638L32.5995 40.6595ZM32.3924 39.776L32.273 39.8127L32.273 39.813L32.3924 39.776ZM35.2368 36.3711L35.2181 36.2475L35.218 36.2475L35.2368 36.3711ZM41.5407 37.7419L41.6077 37.6363L41.6073 37.636L41.5407 37.7419ZM45.5055 36.4225L45.4145 36.3367L45.4145 36.3367L45.5055 36.4225ZM47.6582 35.0223L47.6927 35.1425L47.7729 35.1195L47.7824 35.0365L47.6582 35.0223ZM48.0444 33.86L47.9273 33.8161L47.9273 33.8163L48.0444 33.86ZM46.4423 33.3243L46.4548 33.1999L46.4545 33.1999L46.4423 33.3243ZM45.6802 31.6482L45.5748 31.581L45.5746 31.5814L45.6802 31.6482ZM45.3733 29.0608L45.429 29.1727L45.4292 29.1726L45.3733 29.0608ZM46.0591 27.6886L45.9947 27.7957L45.9953 27.7961L46.0591 27.6886ZM45.6802 26.0125L45.7987 26.0523L45.7988 26.052L45.6802 26.0125ZM43.5451 24.1809L43.4485 24.1017L43.4484 24.1017L43.5451 24.1809ZM43.0855 23.0391L42.9669 22.9995L42.9669 22.9996L43.0855 23.0391ZM45.297 20.2961L45.4195 20.3205L45.4196 20.3204L45.297 20.2961ZM47.8138 16.2572L47.9355 16.2856L47.9356 16.2852L47.8138 16.2572ZM49.1868 13.4393L49.1063 13.3437L49.1062 13.3438L49.1868 13.4393ZM53.9383 38.1527L53.9498 38.0282L53.9494 38.0282L53.9383 38.1527ZM51.8047 39.9828L51.8695 40.0897L51.87 40.0894L51.8047 39.9828ZM53.2247 44.5515L53.2416 44.6754L53.2417 44.6754L53.2247 44.5515ZM48.4771 12.1743C48.3982 12.1877 48.3158 12.1699 48.2113 12.1215C48.1029 12.0713 47.9918 11.999 47.8462 11.9136C47.5618 11.7468 47.1952 11.562 46.667 11.562V11.812C47.13 11.812 47.4506 11.9714 47.7197 12.1292C47.851 12.2062 47.9832 12.2914 48.1062 12.3483C48.2329 12.4071 48.3697 12.4462 48.5191 12.4207L48.4771 12.1743ZM46.667 11.562C45.72 11.562 44.994 11.1256 44.5568 10.5462L44.3572 10.6968C44.8392 11.3355 45.6375 11.812 46.667 11.812V11.562ZM44.5572 10.5467C44.4184 10.3607 44.1525 10.2268 43.8514 10.1279C43.5438 10.0268 43.1737 9.95403 42.798 9.90585C42.0499 9.80991 41.2538 9.80822 40.8529 9.88681L40.901 10.1321C41.2638 10.061 42.0294 10.0593 42.7662 10.1538C43.1329 10.2008 43.4861 10.2709 43.7733 10.3654C44.067 10.4619 44.2673 10.5762 44.3568 10.6962L44.5572 10.5467ZM40.8523 9.88694C40.7074 9.91617 40.5866 9.87273 40.4658 9.77673C40.3396 9.67648 40.2252 9.52829 40.0987 9.36311C39.9772 9.20447 39.8436 9.02889 39.6883 8.90548C39.5277 8.77784 39.3335 8.69774 39.0963 8.74507L39.1452 8.99024C39.2905 8.96125 39.4117 9.00498 39.5328 9.1012C39.6592 9.20165 39.7737 9.34996 39.9002 9.51512C40.0217 9.67373 40.1551 9.84924 40.3103 9.97249C40.4708 10.1 40.6647 10.1798 40.9017 10.132L40.8523 9.88694ZM39.0962 8.7451C38.941 8.77623 38.8201 8.74172 38.7199 8.66737C38.6154 8.58978 38.5269 8.46342 38.4557 8.30278C38.313 7.98097 38.2575 7.56165 38.2575 7.26793H38.0075C38.0075 7.58328 38.0658 8.04014 38.2271 8.40409C38.3079 8.58632 38.4189 8.75523 38.5709 8.86811C38.7274 8.98423 38.9202 9.03539 39.1453 8.99021L39.0962 8.7451ZM38.2575 7.26793C38.2575 7.18486 38.2446 7.09632 38.1901 7.03258C38.1249 6.95631 38.0344 6.95081 37.9643 6.96598C37.898 6.98035 37.8293 7.01609 37.7648 7.05635C37.6983 7.09791 37.6259 7.15105 37.551 7.20914C37.4759 7.26735 37.3954 7.33275 37.3134 7.39904C37.2308 7.46575 37.1459 7.5339 37.06 7.59946C36.8867 7.73159 36.7151 7.84819 36.5574 7.91837L36.6591 8.14677C36.8443 8.06431 37.0347 7.93307 37.2115 7.79827C37.3006 7.73038 37.3878 7.66029 37.4705 7.59351C37.5536 7.52632 37.6316 7.46298 37.7041 7.40672C37.7769 7.35033 37.8414 7.30325 37.8973 7.26839C37.9552 7.23221 37.9942 7.2153 38.0173 7.21031C38.0365 7.20614 38.0168 7.21458 38.0001 7.19506C37.9942 7.18808 38.0075 7.19911 38.0075 7.26793H38.2575ZM36.5576 7.91828C36.4144 7.98176 36.3101 7.97269 36.2288 7.93361C36.1416 7.89172 36.0621 7.80625 35.9921 7.68391C35.8514 7.43814 35.7776 7.0958 35.7404 6.86905L35.4937 6.90952C35.5314 7.13921 35.6104 7.52041 35.7751 7.80812C35.8578 7.95252 35.9693 8.08628 36.1205 8.15895C36.2776 8.23445 36.4593 8.23528 36.6589 8.14686L36.5576 7.91828ZM35.7404 6.86872C35.7127 6.70284 35.5762 6.56287 35.4232 6.44749C35.2638 6.32732 35.0554 6.21139 34.8345 6.10105C34.6128 5.99039 34.3719 5.88221 34.1467 5.77936C33.9198 5.6757 33.7095 5.5778 33.5425 5.48545L33.4215 5.70421C33.5982 5.80192 33.817 5.90362 34.0429 6.00676C34.2705 6.11071 34.5061 6.21653 34.7228 6.32472C34.9401 6.43325 35.132 6.54104 35.2727 6.64712C35.4197 6.75799 35.4833 6.84678 35.4938 6.90984L35.7404 6.86872ZM33.5428 5.4856C33.3851 5.39787 33.218 5.25874 33.0466 5.10024C32.9615 5.02154 32.8771 4.93979 32.7933 4.8588C32.71 4.77827 32.627 4.69836 32.5468 4.62543C32.3907 4.48356 32.2288 4.3526 32.0775 4.29797C31.9989 4.26958 31.9111 4.25726 31.8243 4.28602C31.736 4.31529 31.6691 4.38023 31.6202 4.46582L31.8372 4.58991C31.8646 4.54194 31.8884 4.52814 31.9029 4.52334C31.9189 4.51803 31.9462 4.51634 31.9926 4.53311C32.0916 4.56884 32.2203 4.66646 32.3786 4.81042C32.4556 4.88039 32.5359 4.95771 32.6196 5.03858C32.7028 5.11899 32.7893 5.20284 32.8768 5.28379C33.0507 5.44459 33.236 5.60101 33.4212 5.70406L33.5428 5.4856ZM31.6201 4.46601C31.5941 4.51167 31.5716 4.52267 31.5593 4.52609C31.5446 4.53015 31.5177 4.5306 31.4726 4.51036C31.3784 4.46805 31.258 4.35909 31.1324 4.20083C31.0097 4.04629 30.8926 3.85834 30.8018 3.67675C30.7099 3.49298 30.65 3.3257 30.6337 3.21137L30.3862 3.24665C30.408 3.40016 30.4817 3.59557 30.5782 3.78857C30.6758 3.98375 30.8019 4.18664 30.9366 4.35627C31.0683 4.52217 31.2194 4.67069 31.3702 4.73841C31.4476 4.77318 31.5365 4.79178 31.6259 4.76704C31.7177 4.74164 31.7877 4.67688 31.8373 4.58971L31.6201 4.46601ZM30.6337 3.21139C30.6191 3.10905 30.589 3.02851 30.5411 2.96491C30.4929 2.901 30.4346 2.86464 30.3832 2.83894C30.2736 2.78405 30.221 2.77681 30.1674 2.70331L29.9655 2.85065C30.066 2.98849 30.2102 3.03187 30.2713 3.06248C30.3053 3.07953 30.3258 3.09462 30.3414 3.11533C30.3572 3.13635 30.3758 3.17358 30.3862 3.24662L30.6337 3.21139ZM30.0417 2.65446C29.7858 2.70618 29.5386 2.73652 29.2961 2.72406L29.2832 2.97373C29.5546 2.98768 29.8243 2.95344 30.0912 2.8995L30.0417 2.65446ZM29.2948 2.724C28.6489 2.69759 28.0377 2.94072 27.6171 3.46404C27.1977 3.98601 26.9794 4.77175 27.0845 5.8114L27.3333 5.78626C27.2327 4.79178 27.4448 4.07759 27.812 3.62065C28.1782 3.16506 28.7101 2.9503 29.2845 2.97379L29.2948 2.724ZM27.0845 5.81117C27.1331 6.30137 27.0669 6.66819 26.9198 6.94742C26.7732 7.22573 26.5396 7.42959 26.23 7.58259C25.6015 7.89326 24.688 7.98227 23.6403 8.05907L23.6586 8.3084C24.693 8.23257 25.6599 8.14326 26.3408 7.80671C26.686 7.63609 26.9644 7.39911 27.141 7.06395C27.3171 6.72971 27.3852 6.31043 27.3333 5.7865L27.0845 5.81117ZM23.6403 8.05907C23.1031 8.09842 22.7311 8.23379 22.4664 8.43701C22.2013 8.64061 22.057 8.90235 21.9573 9.16831C21.9077 9.30058 21.8684 9.436 21.8314 9.56594C21.794 9.69744 21.7591 9.82253 21.717 9.94189C21.6333 10.1796 21.5264 10.3785 21.3385 10.5222L21.4904 10.7208C21.7342 10.5343 21.8621 10.2824 21.9528 10.025C21.998 9.89674 22.0352 9.76316 22.0719 9.63441C22.109 9.5041 22.1458 9.37768 22.1914 9.25605C22.2821 9.01421 22.4044 8.79989 22.6187 8.63529C22.8335 8.47032 23.1539 8.34537 23.6586 8.3084L23.6403 8.05907ZM21.3384 10.5223C21.1587 10.66 20.8439 10.7223 20.4381 10.7031C20.0384 10.6842 19.575 10.5874 19.1226 10.4348C18.6702 10.2822 18.2345 10.0758 17.8891 9.84151C17.54 9.60462 17.2997 9.35032 17.2119 9.10827L16.9769 9.19355C17.0917 9.50993 17.3848 9.8014 17.7488 10.0484C18.1165 10.2979 18.5736 10.5135 19.0427 10.6717C19.5117 10.8298 19.9983 10.9326 20.4263 10.9529C20.8482 10.9728 21.2385 10.9139 21.4905 10.7207L21.3384 10.5223ZM17.2119 9.10827C17.0892 8.77029 16.7896 8.61109 16.4628 8.57601C16.1383 8.54117 15.7693 8.62434 15.4562 8.7855C15.1443 8.94606 14.8688 9.19425 14.7548 9.50636C14.637 9.82906 14.7016 10.1929 15.0185 10.5503L15.2055 10.3844C14.9387 10.0836 14.9086 9.81417 14.9897 9.59211C15.0746 9.35945 15.2917 9.15138 15.5706 9.00778C15.8484 8.86478 16.1686 8.79586 16.4361 8.82458C16.7014 8.85307 16.8969 8.97309 16.9769 9.19355L17.2119 9.10827ZM15.0184 10.5502C15.5842 11.1895 15.8538 11.9508 15.9027 12.6113C15.9272 12.9415 15.8963 13.2433 15.8222 13.4896C15.7477 13.7373 15.6325 13.9202 15.4954 14.0257L15.6479 14.2238C15.8397 14.0761 15.9778 13.8405 16.0616 13.5616C16.1459 13.2813 16.1784 12.9483 16.152 12.5928C16.0993 11.8818 15.8102 11.0676 15.2056 10.3845L15.0184 10.5502ZM15.4953 14.0257C15.3716 14.121 15.2024 14.1396 14.9742 14.0999C14.7452 14.06 14.4886 13.9677 14.2062 13.8737C13.93 13.7817 13.6326 13.6896 13.3434 13.665C13.0512 13.6401 12.7577 13.6832 12.4972 13.8706L12.6431 14.0736C12.8407 13.9314 13.0689 13.8925 13.3222 13.9141C13.5784 13.9359 13.8502 14.0186 14.1272 14.1109C14.398 14.201 14.6787 14.3022 14.9313 14.3462C15.1846 14.3903 15.4412 14.383 15.6479 14.2237L15.4953 14.0257ZM12.497 13.8707C12.2826 14.0255 12.1443 14.049 12.0423 14.027C11.9326 14.0035 11.8287 13.9211 11.6966 13.7796C11.4438 13.509 11.1261 13.0575 10.5318 12.8433L10.447 13.0785C10.9687 13.2664 11.234 13.6507 11.5139 13.9503C11.648 14.0939 11.7979 14.2302 11.9897 14.2715C12.1893 14.3144 12.4003 14.2489 12.6433 14.0734L12.497 13.8707ZM10.5324 12.8435C9.92919 12.6228 9.4976 12.7628 9.01907 12.9215C8.54574 13.0785 8.00669 13.2619 7.14464 13.1886L7.12345 13.4377C8.0382 13.5155 8.61735 13.3181 9.09776 13.1588C9.57297 13.0012 9.93066 12.8895 10.4464 13.0783L10.5324 12.8435ZM7.14472 13.1886C6.23196 13.1104 5.49677 13.3291 5.0705 13.686C4.85684 13.8649 4.7154 14.0838 4.6797 14.3213C4.64353 14.5619 4.71862 14.8039 4.90453 15.0182L5.09337 14.8544C4.9489 14.6879 4.90302 14.5175 4.92692 14.3585C4.95128 14.1964 5.05095 14.0284 5.231 13.8777C5.59218 13.5753 6.25493 13.3632 7.12337 13.4377L7.14472 13.1886ZM4.90444 15.0181C5.19716 15.3563 5.17841 15.6764 5.13483 16.0252C5.09203 16.3678 5.01505 16.7674 5.30498 17.1462L5.5035 16.9943C5.28683 16.7112 5.33686 16.4247 5.3829 16.0562C5.42816 15.694 5.46007 15.278 5.09347 14.8545L4.90444 15.0181ZM5.30527 17.1466C5.45843 17.3451 5.73419 17.4715 6.05419 17.5696C6.3793 17.6693 6.78018 17.7482 7.20978 17.8333C8.07644 18.0051 9.07379 18.2056 9.91828 18.6541L10.0356 18.4334C9.15318 17.9647 8.11896 17.7586 7.25838 17.5881C6.82436 17.5021 6.43771 17.4258 6.1275 17.3306C5.81217 17.2339 5.60482 17.1256 5.50321 16.9939L5.30527 17.1466ZM9.91865 18.6543C10.8046 19.1212 11.3583 19.162 11.7988 19.1688C12.0187 19.1723 12.1893 19.1681 12.3622 19.2014C12.529 19.2336 12.699 19.3018 12.901 19.4562L13.0528 19.2575C12.8217 19.0809 12.6163 18.9959 12.4096 18.956C12.2091 18.9173 12.0082 18.9221 11.8026 18.9189C11.3921 18.9125 10.879 18.8778 10.0352 18.4332L9.91865 18.6543ZM12.901 19.4562C13.1247 19.627 13.3062 19.729 13.4513 19.8054C13.6022 19.8848 13.692 19.9269 13.7611 19.9852C13.8783 20.0842 13.9449 20.2415 13.9695 20.8865L14.2193 20.8769C14.1954 20.2495 14.1357 19.9745 13.9225 19.7943C13.8264 19.7131 13.7 19.6538 13.5678 19.5842C13.4299 19.5116 13.2615 19.4169 13.0528 19.2575L12.901 19.4562ZM13.9695 20.8869C14.025 22.2189 15.035 23.4753 16.7543 23.9478L16.8206 23.7067C15.1861 23.2575 14.2695 22.0805 14.2193 20.8765L13.9695 20.8869ZM16.7546 23.9478C17.1605 24.0586 17.3623 24.2025 17.4632 24.3532C17.5637 24.5035 17.5807 24.6852 17.5593 24.9139C17.5486 25.0281 17.5291 25.1478 17.5086 25.2774C17.4885 25.4054 17.4676 25.5416 17.4564 25.6815C17.434 25.9625 17.4495 26.2657 17.5885 26.572L17.8161 26.4687C17.7011 26.2151 17.685 25.959 17.7056 25.7015C17.716 25.5722 17.7354 25.4445 17.7556 25.3163C17.7755 25.1898 17.7966 25.0611 17.8082 24.9372C17.8314 24.6899 17.8199 24.4368 17.6709 24.2142C17.5223 23.9921 17.2536 23.8248 16.8204 23.7066L16.7546 23.9478ZM17.5885 26.5721C17.7023 26.8222 17.7196 27.107 17.6776 27.4247C17.6355 27.7435 17.5355 28.0845 17.4241 28.4437C17.3139 28.7994 17.1925 29.1729 17.1155 29.5428C17.0384 29.9136 17.0037 30.2901 17.0713 30.6554L17.3171 30.6099C17.2577 30.289 17.2866 29.9481 17.3603 29.5937C17.4342 29.2384 17.5509 28.879 17.6629 28.5177C17.7738 28.16 17.8802 27.8 17.9255 27.4575C17.9708 27.1139 17.9563 26.7769 17.8161 26.4686L17.5885 26.5721ZM17.0713 30.6555C17.1315 30.9784 17.1149 31.4955 17.0382 32.1068C16.962 32.7143 16.828 33.4026 16.6608 34.0617C16.4935 34.7211 16.2937 35.3476 16.0868 35.8326C15.9833 36.0753 15.8793 36.2794 15.7785 36.4334C15.6753 36.5913 15.5849 36.6816 15.5139 36.7173L15.6263 36.9406C15.7581 36.8743 15.8784 36.7375 15.9877 36.5703C16.0995 36.3994 16.2101 36.1808 16.3168 35.9307C16.5303 35.43 16.7338 34.7903 16.9031 34.1232C17.0725 33.4556 17.2086 32.7571 17.2863 32.1379C17.3635 31.5226 17.3847 30.973 17.3171 30.6098L17.0713 30.6555ZM15.5095 36.7197C15.5045 36.7225 15.49 36.7275 15.4566 36.7321C15.441 36.7343 15.4249 36.7359 15.406 36.7379C15.388 36.7398 15.3674 36.742 15.3472 36.745L15.3848 36.9922C15.3984 36.9901 15.4136 36.9885 15.432 36.9865C15.4495 36.9847 15.4702 36.9826 15.4906 36.9798C15.5291 36.9745 15.5829 36.9649 15.6308 36.9383L15.5095 36.7197ZM15.3102 36.9805C15.693 37.1714 16.0865 37.3503 16.4289 37.5117C16.7748 37.6747 17.0652 37.8182 17.2534 37.9418L17.3906 37.7328C17.1852 37.598 16.8787 37.4472 16.5355 37.2855C16.1889 37.1222 15.8012 36.946 15.4218 36.7568L15.3102 36.9805ZM17.2523 37.941C17.6362 38.1988 18.2368 38.4509 18.8497 38.7107C19.4701 38.9737 20.1094 39.2469 20.5949 39.5503L20.7274 39.3383C20.2218 39.0224 19.563 38.7415 18.9473 38.4806C18.3241 38.2164 17.7508 37.9747 17.3917 37.7335L17.2523 37.941ZM20.5946 39.5501C21.1151 39.8776 21.8232 40.0058 22.4013 39.9578C22.6906 39.9338 22.9588 39.8648 23.1589 39.7447C23.3612 39.6232 23.5057 39.4404 23.5057 39.1963H23.2557C23.2557 39.3257 23.1836 39.4383 23.0302 39.5303C22.8745 39.6238 22.6479 39.6865 22.3806 39.7087C21.8457 39.7531 21.194 39.6319 20.7277 39.3385L20.5946 39.5501ZM23.5057 39.1963C23.5057 39.0392 23.5557 38.9893 23.5977 38.9697C23.6554 38.9427 23.7591 38.9419 23.9127 38.9932C24.2128 39.0935 24.5988 39.3576 24.9005 39.6577L25.0768 39.4804C24.7588 39.1641 24.3409 38.8727 23.9919 38.7561C23.821 38.699 23.6389 38.6745 23.4919 38.7432C23.3292 38.8192 23.2557 38.9843 23.2557 39.1963H23.5057ZM24.9002 39.6574C25.0767 39.8342 25.3639 39.9652 25.6923 40.0688C26.0248 40.1737 26.4177 40.256 26.8216 40.3259C27.2258 40.3958 27.6456 40.454 28.0311 40.5097C28.4184 40.5656 28.7695 40.6187 29.0425 40.6789L29.0963 40.4347C28.8128 40.3723 28.4526 40.3179 28.0668 40.2622C27.6792 40.2062 27.264 40.1487 26.8642 40.0795C26.4641 40.0103 26.0841 39.9303 25.7675 39.8304C25.4469 39.7292 25.2089 39.6128 25.0771 39.4808L24.9002 39.6574ZM29.0423 40.6788C29.5264 40.7863 30.1151 40.8054 30.7278 40.8019C31.3469 40.7984 31.9859 40.772 32.5969 40.7845L32.602 40.5345C31.9884 40.522 31.3315 40.5485 30.7263 40.5519C30.1147 40.5554 29.5507 40.5356 29.0965 40.4348L29.0423 40.6788ZM32.7226 40.638C32.6736 40.3577 32.6124 40.0629 32.5118 39.7389L32.273 39.813C32.3693 40.1231 32.4284 40.4066 32.4763 40.681L32.7226 40.638ZM32.5119 39.7393C32.222 38.7968 32.4977 38.0569 33.0451 37.5152C33.5989 36.9671 34.4352 36.6196 35.2556 36.4947L35.218 36.2475C34.3614 36.3779 33.4708 36.7422 32.8693 37.3375C32.2615 37.939 31.9534 38.7739 32.273 39.8127L32.5119 39.7393ZM35.2554 36.4947C36.0673 36.3724 37.3811 36.5575 38.6256 36.8555C39.2448 37.0038 39.8414 37.1787 40.3425 37.3538C40.8459 37.5299 41.245 37.7036 41.4742 37.8477L41.6073 37.636C41.3533 37.4763 40.9323 37.2952 40.425 37.1179C39.9152 36.9396 39.3104 36.7624 38.6838 36.6124C37.4368 36.3138 36.0818 36.1174 35.2181 36.2475L35.2554 36.4947ZM41.4737 37.8474C41.9844 38.1718 42.5928 38.2929 43.289 38.0991C43.9802 37.9068 44.7493 37.4067 45.5964 36.5082L45.4145 36.3367C44.5847 37.2169 43.8531 37.6826 43.222 37.8583C42.5958 38.0325 42.0603 37.9239 41.6077 37.6364L41.4737 37.8474ZM45.5964 36.5082C46.4266 35.628 47.1002 35.3125 47.6927 35.1425L47.6237 34.9022C46.9886 35.0844 46.2759 35.4235 45.4145 36.3367L45.5964 36.5082ZM47.7824 35.0365C47.8034 34.853 47.8623 34.6633 47.9352 34.4705C47.9715 34.3744 48.0106 34.2792 48.0497 34.1842C48.0884 34.0899 48.1272 33.9954 48.1615 33.9037L47.9273 33.8163C47.8947 33.9035 47.8575 33.9942 47.8184 34.0892C47.7797 34.1836 47.7391 34.2821 47.7013 34.3821C47.6259 34.5815 47.5585 34.7939 47.534 35.0081L47.7824 35.0365ZM48.1614 33.9039C48.195 33.8143 48.2093 33.7272 48.196 33.6449C48.1824 33.5602 48.1412 33.4909 48.0824 33.4371C47.9724 33.3367 47.8027 33.2925 47.6334 33.2681C47.4584 33.2429 47.2535 33.2354 47.0507 33.2294C46.8449 33.2232 46.6403 33.2184 46.4548 33.1999L46.4299 33.4487C46.6262 33.4683 46.8413 33.4732 47.0433 33.4793C47.2483 33.4854 47.4391 33.4927 47.5978 33.5155C47.7622 33.5392 47.8641 33.5764 47.9138 33.6217C47.9347 33.6409 47.9453 33.6605 47.9492 33.6846C47.9535 33.7113 47.951 33.7531 47.9273 33.8161L48.1614 33.9039ZM46.4545 33.1999C46.111 33.1661 45.8267 32.9786 45.6866 32.7144C45.5485 32.4543 45.5409 32.1019 45.7858 31.7151L45.5746 31.5814C45.288 32.0341 45.2803 32.4823 45.4657 32.8316C45.6489 33.1769 46.0115 33.4076 46.4301 33.4487L46.4545 33.1999ZM45.7856 31.7155C45.9282 31.4919 45.9832 31.2971 45.9488 31.1155C45.915 30.9369 45.7996 30.7996 45.6702 30.6803C45.6047 30.62 45.5313 30.5604 45.4567 30.5006C45.3812 30.4399 45.304 30.3785 45.2262 30.3114C45.0713 30.1776 44.919 30.0251 44.7944 29.8301L44.5837 29.9647C44.7263 30.1879 44.8983 30.3586 45.0629 30.5006C45.1448 30.5714 45.2261 30.636 45.3002 30.6955C45.3752 30.7557 45.4424 30.8103 45.5008 30.8642C45.6192 30.9733 45.6847 31.0645 45.7032 31.162C45.7211 31.2565 45.6995 31.3856 45.5748 31.581L45.7856 31.7155ZM44.7944 29.8301C44.6622 29.6233 44.6291 29.5088 44.6312 29.45C44.632 29.4263 44.6384 29.4144 44.6458 29.4056C44.6552 29.3945 44.6732 29.3805 44.708 29.3659C44.7825 29.3345 44.8855 29.3181 45.0215 29.2927C45.1484 29.2691 45.2975 29.2382 45.429 29.1727L45.3176 28.9489C45.2208 28.9971 45.1034 29.0232 44.9757 29.047C44.857 29.0691 44.7173 29.0907 44.611 29.1355C44.5553 29.1589 44.4985 29.1925 44.4547 29.2444C44.4089 29.2987 44.3839 29.3653 44.3813 29.4414C44.3765 29.5824 44.4486 29.7532 44.5837 29.9647L44.7944 29.8301ZM45.4292 29.1726C45.6877 29.0434 45.9709 28.735 46.1405 28.4358C46.2257 28.2853 46.2898 28.1243 46.3026 27.9776C46.3156 27.8273 46.2742 27.6709 46.1229 27.5811L45.9953 27.7961C46.0356 27.82 46.0615 27.8633 46.0535 27.956C46.0452 28.0521 45.9998 28.177 45.923 28.3125C45.7684 28.5853 45.517 28.8493 45.3174 28.949L45.4292 29.1726ZM46.1234 27.5814C45.9587 27.4825 45.8079 27.3163 45.7319 27.0711C45.6556 26.8254 45.6516 26.4907 45.7987 26.0523L45.5617 25.9728C45.402 26.4487 45.3979 26.8383 45.4931 27.1452C45.5885 27.4525 45.7806 27.6671 45.9947 27.7957L46.1234 27.5814ZM45.7988 26.052C45.8816 25.8033 45.8851 25.6002 45.8339 25.4246C45.7834 25.2515 45.6834 25.1181 45.5844 25.0041C45.3761 24.7642 45.1958 24.6172 45.1958 24.3336H44.9458C44.9458 24.7353 45.2229 24.9691 45.3957 25.1681C45.4872 25.2735 45.5587 25.374 45.5938 25.4946C45.6283 25.6127 45.6315 25.7631 45.5616 25.973L45.7988 26.052ZM45.1958 24.3336C45.1958 23.9345 44.9471 23.6325 44.5894 23.5633C44.2355 23.4947 43.8114 23.6591 43.4485 24.1017L43.6418 24.2602C43.9661 23.8648 44.3048 23.7628 44.5419 23.8087C44.7753 23.8539 44.9458 24.0473 44.9458 24.3336H45.1958ZM43.4484 24.1017C43.2792 24.3081 43.1546 24.4033 43.0781 24.4304C43.0438 24.4425 43.0327 24.4364 43.0324 24.4362C43.0308 24.4354 43.0176 24.4285 43.0032 24.3919C42.9723 24.3137 42.9608 24.1622 42.9921 23.9302C43.0227 23.7034 43.0916 23.4163 43.2041 23.0786L42.9669 22.9996C42.8511 23.3473 42.7776 23.6502 42.7443 23.8968C42.7118 24.138 42.7152 24.3432 42.7706 24.4836C42.7993 24.5564 42.8471 24.6243 42.9235 24.6612C43.001 24.6988 43.0848 24.6932 43.1615 24.666C43.3068 24.6146 43.4681 24.472 43.6418 24.2602L43.4484 24.1017ZM43.2041 23.0787C43.4222 22.426 43.9132 21.9495 44.3894 21.5309C44.6235 21.3251 44.859 21.1291 45.0423 20.9388C45.2249 20.7491 45.3745 20.5469 45.4195 20.3205L45.1744 20.2717C45.1438 20.4254 45.0365 20.5843 44.8622 20.7653C44.6885 20.9457 44.4667 21.1301 44.2243 21.3431C43.7475 21.7622 43.2084 22.2771 42.9669 22.9995L43.2041 23.0787ZM45.4196 20.3204C45.4877 19.9767 45.7322 19.6383 46.0511 19.3833C46.3705 19.1278 46.7439 18.9726 47.0488 18.9726V18.7226C46.6694 18.7226 46.2425 18.91 45.8949 19.188C45.5467 19.4665 45.2575 19.8523 45.1743 20.2718L45.4196 20.3204ZM47.0488 18.9726C47.2832 18.9726 47.4378 18.8303 47.5366 18.6399C47.6326 18.4548 47.6872 18.2063 47.7257 17.9425C47.7644 17.6769 47.7889 17.3789 47.8174 17.0929C47.8463 16.8037 47.8796 16.525 47.9355 16.2856L47.6921 16.2287C47.6321 16.4854 47.5976 16.7785 47.5687 17.0681C47.5394 17.3608 47.516 17.6483 47.4783 17.9064C47.4404 18.1661 47.3902 18.3792 47.3147 18.5247C47.2418 18.6651 47.1579 18.7226 47.0488 18.7226V18.9726ZM47.9356 16.2852C48.1654 15.2868 48.3122 14.3413 49.2674 13.5348L49.1062 13.3438C48.0761 14.2134 47.9175 15.2492 47.692 16.2292L47.9356 16.2852ZM49.2673 13.5349C49.5241 13.3187 49.6623 13.112 49.6853 12.9131C49.7095 12.7048 49.6042 12.5425 49.4634 12.4301C49.3247 12.3193 49.1409 12.2464 48.9668 12.2054C48.793 12.1646 48.6135 12.152 48.478 12.1741L48.5183 12.4209C48.6118 12.4056 48.7567 12.4128 48.9096 12.4488C49.0622 12.4847 49.2075 12.5456 49.3074 12.6254C49.4053 12.7036 49.4481 12.7887 49.437 12.8843C49.4248 12.9894 49.3444 13.1432 49.1063 13.3437L49.2673 13.5349ZM53.9494 38.0282C53.7637 38.0116 53.6164 38.0865 53.4855 38.2015C53.3598 38.3119 53.2354 38.472 53.0963 38.6448C52.8135 38.9962 52.4311 39.453 51.7395 39.8762L51.87 40.0894C52.5983 39.6438 53.0022 39.1605 53.2911 38.8016C53.4378 38.6193 53.5454 38.4816 53.6505 38.3893C53.7503 38.3016 53.8325 38.2687 53.9273 38.2772L53.9494 38.0282ZM51.7399 39.8759C51.3365 40.1206 51.1491 40.5725 51.1036 41.0765C51.0579 41.5821 51.1518 42.1621 51.334 42.7028C51.5163 43.2436 51.7903 43.7555 52.1143 44.1228C52.4346 44.486 52.8268 44.732 53.2416 44.6754L53.2078 44.4277C52.9177 44.4673 52.6022 44.298 52.3018 43.9575C52.005 43.621 51.7454 43.1405 51.5709 42.623C51.3965 42.1053 51.3108 41.561 51.3526 41.099C51.3944 40.6355 51.5615 40.2765 51.8695 40.0897L51.7399 39.8759ZM53.2417 44.6754C53.4719 44.6437 53.6567 44.497 53.8027 44.2933C53.9484 44.09 54.064 43.8184 54.1557 43.509C54.3393 42.8895 54.4353 42.0892 54.4674 41.3005C54.4996 40.5107 54.468 39.7244 54.3927 39.13C54.3552 38.8336 54.3062 38.5798 54.2468 38.3957C54.2174 38.3043 54.1832 38.2233 54.1425 38.1618C54.1047 38.1048 54.0428 38.0368 53.9498 38.0282L53.9269 38.2771C53.9035 38.275 53.9083 38.261 53.934 38.2998C53.9566 38.334 53.9825 38.3905 54.0089 38.4724C54.0614 38.635 54.108 38.8713 54.1447 39.1614C54.218 39.7399 54.2493 40.5121 54.2176 41.2903C54.1859 42.0696 54.0912 42.8467 53.916 43.438C53.8282 43.734 53.7224 43.9761 53.5994 44.1478C53.4767 44.3191 53.3457 44.4087 53.2077 44.4277L53.2417 44.6754Z" fill="#868686"/>
</g>
<defs>
<filter id="filter0_d_6252_1132" x="0.670898" y="0.63855" width="57.8091" height="50.0449" filterUnits="userSpaceOnUse" color-interpolation-filters="sRGB">
<feFlood flood-opacity="0" result="BackgroundImageFix"/>
<feColorMatrix in="SourceAlpha" type="matrix" values="0 0 0 0 0 0 0 0 0 0 0 0 0 0 0 0 0 0 127 0" result="hardAlpha"/>
<feOffset dy="2"/>
<feGaussianBlur stdDeviation="2"/>
<feColorMatrix type="matrix" values="0 0 0 0 0 0 0 0 0 0 0 0 0 0 0 0 0 0 0.01 0"/>
<feBlend mode="normal" in2="BackgroundImageFix" result="effect1_dropShadow_6252_1132"/>
<feBlend mode="normal" in="SourceGraphic" in2="effect1_dropShadow_6252_1132" result="shape"/>
</filter>
</defs>
</svg>
