<svg width="43" height="61" viewBox="0 0 43 61" fill="none" xmlns="http://www.w3.org/2000/svg">
<g filter="url(#filter0_d_6252_1234)">
<path fill-rule="evenodd" clip-rule="evenodd" d="M10.8158 30.4494C9.52945 29.2093 7.87307 31.1524 6.51478 31.1319C6.29451 32.1225 5.93769 32.8343 5.57939 33.0897C5.04048 33.4742 4.04342 34.9316 4.8114 35.0872C5.57939 35.2398 6.80552 36.4667 6.96265 35.5465C7.11243 34.6249 7.65281 33.395 8.95677 34.9301C9.2666 35.297 9.66602 35.6449 10.0933 35.9633C10.3048 35.2662 11.9098 35.1473 12.7438 34.3093C13.7615 33.2937 12.2372 31.8202 10.8158 30.4494ZM38.6114 43.0449C38.7157 41.5201 35.3603 40.4546 35.0021 41.2647C34.6482 42.0778 33.8846 41.9794 33.3236 41.0666C32.7656 40.1493 33.8347 39.2863 33.2767 39.1851C32.7142 39.0838 32.005 37.8128 32.1607 37.3065C32.3119 36.7987 31.2943 33.5479 29.5674 33.1414C27.8376 32.7363 27.585 30.2971 27.2796 28.9777C26.9742 27.6568 25.8538 28.3642 24.9933 27.2488C24.1284 26.132 22.6541 26.6911 21.892 26.741C21.1313 26.7924 21.892 25.3159 23.1107 24.5058C24.331 23.6927 25.7568 19.3735 25.7568 18.5135C25.7568 17.6476 20.4206 17.6975 19.403 18.2082C18.3854 18.7145 17.3707 17.4465 18.2326 17.0899C19.0975 16.7347 20.9287 14.9574 20.8259 14.2456C20.726 13.5353 22.099 12.8748 21.3354 12.2144C20.5733 11.5554 20.4705 13.0803 19.8097 13.5866C19.1504 14.0944 17.6746 13.9433 16.099 13.638C14.5234 13.3327 13.914 15.5665 13.9639 16.5322C14.0168 17.4979 12.1343 18.0556 12.4368 18.8686C12.7422 19.6817 12.0829 20.2893 11.5763 19.8314C11.0697 19.375 10.5102 18.2581 9.49257 19.0697C8.47495 19.8842 10.6614 20.9512 11.9816 21.1053C13.3031 21.2565 10.9683 22.2222 10.7128 23.6399C10.4603 25.0665 12.4382 24.4559 12.544 25.4701C12.6467 26.4857 9.69668 26.6383 9.69668 27.6025C9.69668 28.5712 11.3751 27.1446 12.1357 26.741C12.8993 26.333 11.7319 29.1259 13.5616 28.8236C15.3898 28.5183 14.8802 26.0307 15.541 26.132C16.2033 26.2303 15.2371 27.4499 15.7965 28.5183C16.3516 29.5838 14.4735 31.2114 14.5748 31.9731C14.6761 32.7363 18.3354 32.7363 19.5043 31.5152C20.6746 30.2956 21.2297 31.6165 20.4191 32.5308C19.6056 33.4437 19.9595 34.3096 20.9786 34.6648C21.9947 35.0199 22.353 35.1227 21.8949 35.9313C21.4367 36.7473 21.842 38.2678 21.588 39.0295C21.3354 39.7912 18.1842 39.6899 18.0814 39.1821C17.9801 38.6743 16.657 39.0295 17.0153 39.7384C17.3707 40.4516 15.8949 41.2133 15.9977 41.8752C16.102 42.5371 17.9801 42.383 18.03 43.1961C18.0799 44.0077 16.657 44.9705 14.729 45.5311C12.7965 46.0888 15.1328 47.6152 16.0476 46.9533C16.9625 46.2943 16.7613 47.4097 18.0814 47.4097C19.403 47.4097 20.2194 48.4781 21.6893 47.9204C23.1636 47.3613 23.1137 47.9204 21.9962 48.7819C20.8758 49.6493 19.2003 48.7335 18.1842 49.2912C17.168 49.8489 13.0329 53.7249 13.8141 54.6774C14.2723 55.2336 14.8802 53.8643 16.3531 53.2538C17.8288 52.6447 18.0814 53.6589 18.8964 53.7601C19.7099 53.8643 19.7583 52.0856 20.4206 52.2367C21.0814 52.3894 21.6893 51.679 22.9081 51.883C24.1298 52.087 24.9933 51.6291 25.6027 51.1213C26.2121 50.6135 27.8361 52.134 28.3486 51.7818C28.8538 51.4237 31.0916 51.0171 32.2106 51.067C33.3251 51.1213 36.2238 49.799 36.9844 49.0872C37.748 48.3769 36.5263 48.2257 35.5131 48.3769C34.4954 48.531 34.6981 47.3627 35.7671 46.3457C36.8332 45.333 38.5116 44.5684 38.6114 43.0449ZM8.07111 17.5475C9.44408 17.4976 11.0182 15.1611 10.3589 14.4977C9.69665 13.8388 7.04908 17.5827 8.07111 17.5475ZM27.7399 6.52408C28.6018 5.66405 29.618 2.36187 28.2993 2.71704C26.9763 3.07368 27.361 6.90273 27.7399 6.52408Z" fill="white"/>
<path d="M10.8158 30.4494L10.9026 30.3595L10.9026 30.3595L10.8158 30.4494ZM6.51478 31.1319L6.51667 31.0069L6.41486 31.0054L6.39276 31.1048L6.51478 31.1319ZM5.57939 33.0897L5.50684 32.9879L5.50679 32.988L5.57939 33.0897ZM4.8114 35.0872L4.78659 35.2097L4.78704 35.2098L4.8114 35.0872ZM6.96265 35.5465L7.08587 35.5676L7.08603 35.5666L6.96265 35.5465ZM8.95677 34.9301L9.05227 34.8495L9.05204 34.8492L8.95677 34.9301ZM10.0933 35.9633L10.0186 36.0636L10.1613 36.1699L10.2129 35.9996L10.0933 35.9633ZM12.7438 34.3093L12.6555 34.2208L12.6552 34.2211L12.7438 34.3093ZM38.6114 43.0449L38.4867 43.0364L38.4867 43.0368L38.6114 43.0449ZM35.0021 41.2647L34.8877 41.2142L34.8874 41.2148L35.0021 41.2647ZM33.3236 41.0666L33.2169 41.1315L33.2171 41.132L33.3236 41.0666ZM33.2767 39.1851L33.299 39.0621L33.2988 39.0621L33.2767 39.1851ZM32.1607 37.3065L32.2801 37.3432L32.2805 37.3422L32.1607 37.3065ZM29.5674 33.1414L29.5961 33.0197L29.5959 33.0197L29.5674 33.1414ZM27.2796 28.9777L27.1578 29.0059L27.1578 29.0059L27.2796 28.9777ZM24.9933 27.2488L25.0922 27.1725L25.0921 27.1723L24.9933 27.2488ZM21.892 26.741L21.8838 26.6163L21.8835 26.6163L21.892 26.741ZM23.1107 24.5058L23.1799 24.6099L23.1801 24.6098L23.1107 24.5058ZM19.403 18.2082L19.4587 18.3201L19.459 18.3199L19.403 18.2082ZM18.2326 17.0899L18.1852 16.9742L18.1848 16.9744L18.2326 17.0899ZM20.8259 14.2456L20.7021 14.263L20.7022 14.2635L20.8259 14.2456ZM21.3354 12.2144L21.4172 12.1199L21.4172 12.1198L21.3354 12.2144ZM19.8097 13.5866L19.7337 13.4874L19.7335 13.4876L19.8097 13.5866ZM13.9639 16.5322L13.8391 16.5386L13.8391 16.539L13.9639 16.5322ZM12.4368 18.8686L12.3196 18.9122L12.3197 18.9126L12.4368 18.8686ZM11.5763 19.8314L11.6601 19.7387L11.6599 19.7385L11.5763 19.8314ZM9.49257 19.0697L9.41463 18.972L9.41446 18.9721L9.49257 19.0697ZM11.9816 21.1053L11.9671 21.2295L11.9673 21.2295L11.9816 21.1053ZM10.7128 23.6399L10.5898 23.6177L10.5897 23.6181L10.7128 23.6399ZM12.544 25.4701L12.6683 25.4575L12.6683 25.4571L12.544 25.4701ZM12.1357 26.741L12.1943 26.8514L12.1946 26.8513L12.1357 26.741ZM13.5616 28.8236L13.582 28.9469L13.5822 28.9469L13.5616 28.8236ZM15.541 26.132L15.5221 26.2555L15.5227 26.2556L15.541 26.132ZM15.7965 28.5183L15.9074 28.4606L15.9073 28.4603L15.7965 28.5183ZM14.5748 31.9731L14.6987 31.9567L14.6987 31.9566L14.5748 31.9731ZM19.5043 31.5152L19.4141 31.4287L19.414 31.4288L19.5043 31.5152ZM20.4191 32.5308L20.5124 32.614L20.5127 32.6138L20.4191 32.5308ZM20.9786 34.6648L21.0198 34.5468L21.0197 34.5467L20.9786 34.6648ZM21.8949 35.9313L21.7861 35.8697L21.7859 35.8701L21.8949 35.9313ZM21.588 39.0295L21.4694 38.99L21.4693 38.9902L21.588 39.0295ZM18.0814 39.1821L17.9588 39.2066L17.9589 39.2069L18.0814 39.1821ZM17.0153 39.7384L17.1272 39.6826L17.1269 39.682L17.0153 39.7384ZM15.9977 41.8752L15.8742 41.8944L15.8742 41.8947L15.9977 41.8752ZM18.03 43.1961L17.9052 43.2038L17.9052 43.2038L18.03 43.1961ZM14.729 45.5311L14.7636 45.6512L14.7639 45.6511L14.729 45.5311ZM16.0476 46.9533L15.9746 46.8518L15.9743 46.852L16.0476 46.9533ZM21.6893 47.9204L21.645 47.8035L21.645 47.8036L21.6893 47.9204ZM21.9962 48.7819L21.9199 48.6829L21.9197 48.6831L21.9962 48.7819ZM13.8141 54.6774L13.7175 54.7567L13.7177 54.7569L13.8141 54.6774ZM16.3531 53.2538L16.3054 53.1383L16.3052 53.1383L16.3531 53.2538ZM18.8964 53.7601L18.9122 53.6361L18.9118 53.6361L18.8964 53.7601ZM20.4206 52.2367L20.4487 52.1149L20.4484 52.1149L20.4206 52.2367ZM22.9081 51.883L22.8875 52.0063L22.8875 52.0063L22.9081 51.883ZM28.3486 51.7818L28.4194 51.8848L28.4209 51.8837L28.3486 51.7818ZM32.2106 51.067L32.2167 50.9422L32.2161 50.9422L32.2106 51.067ZM36.9844 49.0872L36.8993 48.9957L36.899 48.9959L36.9844 49.0872ZM35.5131 48.3769L35.4946 48.2532L35.4944 48.2533L35.5131 48.3769ZM35.7671 46.3457L35.681 46.255L35.6809 46.2551L35.7671 46.3457ZM8.07111 17.5475L8.07541 17.6724L8.07565 17.6724L8.07111 17.5475ZM10.3589 14.4977L10.4476 14.4096L10.4471 14.4091L10.3589 14.4977ZM27.7399 6.52408L27.6516 6.43559L27.6515 6.43567L27.7399 6.52408ZM28.2993 2.71704L28.2668 2.59634L28.2668 2.59635L28.2993 2.71704ZM10.9026 30.3595C10.5561 30.0255 10.1789 29.9027 9.78949 29.9108C9.40665 29.9188 9.01803 30.0531 8.64186 30.2189C8.45297 30.3022 8.26391 30.3949 8.07842 30.4857C7.89204 30.577 7.70923 30.6663 7.52895 30.745C7.16634 30.9032 6.82847 31.0116 6.51667 31.0069L6.51289 31.2569C6.88023 31.2624 7.25877 31.1357 7.62895 30.9741C7.81506 30.8929 8.00274 30.8011 8.18834 30.7103C8.37482 30.619 8.55923 30.5286 8.74268 30.4477C9.11118 30.2853 9.46274 30.1677 9.7947 30.1608C10.1201 30.154 10.4323 30.2533 10.729 30.5394L10.9026 30.3595ZM6.39276 31.1048C6.28423 31.5929 6.14275 32.0089 5.98633 32.3321C5.82847 32.6582 5.66098 32.8781 5.50684 32.9879L5.65194 33.1915C5.85609 33.046 6.04616 32.7823 6.21136 32.441C6.378 32.0967 6.52506 31.6616 6.6368 31.159L6.39276 31.1048ZM5.50679 32.988C5.21729 33.1945 4.82141 33.6723 4.594 34.1174C4.48101 34.3386 4.39939 34.5709 4.40671 34.7681C4.41047 34.8696 4.43812 34.9694 4.50487 35.0514C4.57218 35.134 4.66886 35.1858 4.78659 35.2097L4.83622 34.9647C4.76194 34.9496 4.72179 34.9218 4.69873 34.8935C4.67512 34.8645 4.65887 34.8219 4.65654 34.7589C4.65165 34.6271 4.70898 34.4419 4.81662 34.2312C5.03047 33.8126 5.40258 33.3694 5.65199 33.1915L5.50679 32.988ZM4.78704 35.2098C4.95865 35.2439 5.16457 35.3406 5.38989 35.4626C5.60675 35.5801 5.84792 35.725 6.06026 35.831C6.26984 35.9356 6.49059 36.0241 6.67825 36.009C6.77896 36.0009 6.87383 35.9629 6.94844 35.8821C7.02054 35.804 7.06382 35.6967 7.08586 35.5676L6.83943 35.5255C6.82219 35.6264 6.79279 35.6821 6.76476 35.7125C6.73924 35.7401 6.70654 35.7559 6.6582 35.7598C6.54777 35.7687 6.38453 35.7135 6.17194 35.6073C5.9621 35.5026 5.74292 35.3696 5.50898 35.2428C5.28349 35.1207 5.04815 35.0068 4.83577 34.9646L4.78704 35.2098ZM7.08603 35.5666C7.12242 35.3426 7.18213 35.103 7.26942 34.8936C7.35762 34.682 7.46874 34.514 7.60049 34.4181C7.72449 34.3277 7.87518 34.2944 8.07332 34.3666C8.28013 34.442 8.54141 34.6342 8.8615 35.0111L9.05204 34.8492C8.72014 34.4585 8.42489 34.2287 8.15896 34.1318C7.88436 34.0316 7.6461 34.0755 7.45329 34.216C7.26822 34.3508 7.13467 34.5671 7.03867 34.7974C6.94176 35.0299 6.87776 35.2896 6.83926 35.5265L7.08603 35.5666ZM8.86126 35.0108C9.17948 35.3876 9.58701 35.7419 10.0186 36.0636L10.168 35.8631C9.74503 35.5479 9.35373 35.2065 9.05227 34.8495L8.86126 35.0108ZM10.2129 35.9996C10.2529 35.8678 10.3628 35.7504 10.5462 35.6343C10.7291 35.5186 10.9657 35.416 11.2332 35.3046C11.7571 35.0863 12.394 34.838 12.8324 34.3975L12.6552 34.2211C12.2596 34.6187 11.677 34.8488 11.137 35.0738C10.8725 35.184 10.6162 35.2942 10.4125 35.423C10.2095 35.5515 10.0394 35.7103 9.97371 35.9271L10.2129 35.9996ZM12.8321 34.3978C13.1117 34.1188 13.2211 33.8009 13.1964 33.4614C13.1723 33.129 13.0203 32.7859 12.7994 32.4446C12.3583 31.7633 11.6097 31.0414 10.9026 30.3595L10.729 30.5394C11.4433 31.2282 12.1675 31.9285 12.5895 32.5805C12.8002 32.9059 12.9273 33.2073 12.9471 33.4796C12.9664 33.7449 12.8848 33.9921 12.6555 34.2208L12.8321 34.3978ZM38.7362 43.0535C38.7656 42.6223 38.5494 42.2364 38.2297 41.9206C37.9093 41.6043 37.4731 41.3456 37.0275 41.1635C36.582 40.9815 36.1172 40.872 35.7352 40.8617C35.5446 40.8566 35.3675 40.8759 35.2219 40.9285C35.0754 40.9813 34.9506 41.072 34.8877 41.2142L35.1164 41.3153C35.1431 41.2549 35.2015 41.2016 35.3067 41.1636C35.4127 41.1254 35.5558 41.107 35.7285 41.1116C36.0731 41.1209 36.5078 41.2212 36.9329 41.3949C37.3579 41.5686 37.7633 41.8115 38.054 42.0985C38.3453 42.3861 38.5094 42.7052 38.4867 43.0364L38.7362 43.0535ZM34.8874 41.2148C34.7247 41.5888 34.4885 41.7171 34.2556 41.6888C34.0053 41.6584 33.7019 41.4434 33.4301 41.0011L33.2171 41.132C33.5063 41.6026 33.8652 41.8932 34.2254 41.937C34.603 41.9828 34.9256 41.7537 35.1167 41.3146L34.8874 41.2148ZM33.4304 41.0016C33.1839 40.5964 33.2912 40.2021 33.4173 39.8634C33.4472 39.7831 33.4818 39.6966 33.5073 39.6251C33.5334 39.5521 33.5568 39.4771 33.5651 39.4076C33.5733 39.3379 33.5687 39.2555 33.5174 39.1843C33.4659 39.1127 33.3855 39.0778 33.299 39.0621L33.2543 39.3081C33.2803 39.3128 33.2959 39.3187 33.3047 39.3234C33.309 39.3256 33.3114 39.3275 33.3127 39.3285C33.3139 39.3296 33.3144 39.3302 33.3146 39.3304C33.3147 39.3306 33.315 39.3311 33.3154 39.3321C33.3159 39.3332 33.3166 39.3353 33.3172 39.3389C33.3185 39.3464 33.3191 39.3588 33.3168 39.378C33.3121 39.418 33.297 39.4707 33.2719 39.541C33.2463 39.6128 33.217 39.685 33.183 39.7762C33.0536 40.1237 32.9054 40.6195 33.2169 41.1315L33.4304 41.0016ZM33.2988 39.0621C33.1948 39.0433 33.0671 38.9655 32.9309 38.8311C32.7974 38.6992 32.6673 38.5245 32.5575 38.335C32.4478 38.1456 32.3608 37.9459 32.3107 37.7659C32.2595 37.5817 32.2518 37.4355 32.2801 37.3432L32.0412 37.2698C31.9917 37.4307 32.0143 37.6332 32.0698 37.8329C32.1266 38.0368 32.2228 38.2561 32.3412 38.4604C32.4596 38.6646 32.6026 38.8582 32.7553 39.009C32.9054 39.1572 33.0773 39.2762 33.2545 39.3081L33.2988 39.0621ZM32.2805 37.3422C32.3073 37.2521 32.3045 37.1235 32.2876 36.9834C32.27 36.8379 32.2345 36.6618 32.183 36.4667C32.0798 36.0764 31.91 35.6021 31.6807 35.1312C31.4517 34.6608 31.1612 34.1895 30.8149 33.8082C30.4693 33.4276 30.0611 33.1292 29.5961 33.0197L29.5388 33.263C29.9371 33.3568 30.3037 33.6172 30.6299 33.9763C30.9554 34.3348 31.2336 34.7841 31.4559 35.2407C31.678 35.6968 31.8422 36.1559 31.9413 36.5306C31.9908 36.718 32.0235 36.8824 32.0394 37.0134C32.0559 37.1499 32.0518 37.2339 32.0409 37.2708L32.2805 37.3422ZM29.5959 33.0197C28.7919 32.8314 28.3184 32.1695 28.006 31.3575C27.6926 30.543 27.5574 29.6234 27.4014 28.9495L27.1578 29.0059C27.3073 29.6514 27.451 30.6111 27.7727 31.4473C28.0954 32.286 28.6131 33.0463 29.5389 33.2631L29.5959 33.0197ZM27.4014 28.9495C27.3204 28.5993 27.1817 28.3698 26.9953 28.2118C26.8126 28.0569 26.5948 27.9807 26.3805 27.9165C25.9479 27.7868 25.4941 27.6933 25.0922 27.1725L24.8943 27.3252C25.353 27.9197 25.8896 28.0303 26.3087 28.1559C26.5202 28.2194 26.6936 28.2838 26.8337 28.4025C26.9702 28.5183 27.0861 28.6957 27.1578 29.0059L27.4014 28.9495ZM25.0921 27.1723C24.6268 26.5714 23.9966 26.4257 23.4027 26.4324C23.1069 26.4357 22.8165 26.4767 22.5564 26.5189C22.2917 26.5618 22.0664 26.6043 21.8838 26.6163L21.9001 26.8658C22.0985 26.8528 22.3433 26.8067 22.5964 26.7656C22.8541 26.7238 23.1293 26.6855 23.4055 26.6824C23.9555 26.6762 24.4948 26.8093 24.8944 27.3254L25.0921 27.1723ZM21.8835 26.6163C21.8062 26.6215 21.7683 26.6059 21.7507 26.5928C21.7354 26.5814 21.7197 26.5601 21.7143 26.513C21.7022 26.4087 21.7483 26.2323 21.8694 26.0053C22.1066 25.5604 22.587 25.004 23.1799 24.6099L23.0416 24.4017C22.4157 24.8177 21.9064 25.4046 21.6488 25.8877C21.5224 26.1246 21.4447 26.3583 21.4659 26.5417C21.4771 26.6385 21.5172 26.7305 21.6012 26.7931C21.6829 26.8541 21.7876 26.8734 21.9004 26.8657L21.8835 26.6163ZM23.1801 24.6098C23.5111 24.3893 23.841 23.9444 24.1475 23.4096C24.4567 22.8699 24.7518 22.221 25.0077 21.5732C25.2636 20.925 25.4813 20.2751 25.6353 19.7324C25.7875 19.1954 25.8818 18.7483 25.8818 18.5135H25.6318C25.6318 18.7087 25.5479 19.124 25.3947 19.6642C25.2432 20.1986 25.0282 20.8406 24.7751 21.4813C24.522 22.1224 24.2318 22.7595 23.9305 23.2853C23.6265 23.8159 23.3206 24.2158 23.0414 24.4018L23.1801 24.6098ZM25.8818 18.5135C25.8818 18.3328 25.7427 18.2067 25.5853 18.121C25.4217 18.0319 25.1954 17.9618 24.933 17.9064C24.4059 17.7949 23.6982 17.7357 22.9642 17.7196C22.2292 17.7036 21.4617 17.7308 20.8129 17.7943C20.4885 17.826 20.1923 17.867 19.9437 17.9166C19.6975 17.9657 19.4895 18.0249 19.3469 18.0965L19.459 18.3199C19.5709 18.2638 19.7522 18.2097 19.9926 18.1618C20.2306 18.1143 20.5182 18.0743 20.8372 18.0431C21.4752 17.9806 22.2326 17.9537 22.9588 17.9696C23.6861 17.9855 24.3761 18.0442 24.8813 18.1509C25.135 18.2046 25.3337 18.2687 25.4658 18.3406C25.6043 18.416 25.6318 18.4777 25.6318 18.5135H25.8818ZM19.3473 18.0963C18.8972 18.3202 18.4477 18.1532 18.2052 17.8882C18.0832 17.7551 18.0261 17.6108 18.0335 17.4942C18.0402 17.3883 18.1015 17.2794 18.2804 17.2054L18.1848 16.9744C17.9328 17.0786 17.7977 17.262 17.784 17.4784C17.771 17.684 17.8696 17.8919 18.0208 18.0571C18.3245 18.3887 18.8911 18.6025 19.4587 18.3201L19.3473 18.0963ZM18.2801 17.2055C18.512 17.1103 18.7992 16.9244 19.0941 16.6942C19.3907 16.4627 19.702 16.1809 19.9824 15.8879C20.2625 15.5954 20.5148 15.2886 20.6916 15.0068C20.7799 14.8659 20.8512 14.7283 20.8972 14.5996C20.9426 14.4723 20.9665 14.3448 20.9496 14.2277L20.7022 14.2635C20.711 14.3244 20.7001 14.4081 20.6617 14.5156C20.6238 14.6218 20.5621 14.7426 20.4798 14.874C20.3151 15.1366 20.0749 15.4299 19.8018 15.715C19.5293 15.9997 19.227 16.2734 18.9403 16.4972C18.6518 16.7224 18.3857 16.8919 18.1852 16.9742L18.2801 17.2055ZM20.9497 14.2282C20.9307 14.0933 20.9802 13.9495 21.0781 13.7855C21.1783 13.6177 21.3063 13.4627 21.432 13.2829C21.5502 13.1139 21.6642 12.9249 21.688 12.7253C21.7135 12.5112 21.6338 12.3072 21.4172 12.1199L21.2536 12.3089C21.4188 12.4518 21.4538 12.578 21.4398 12.6957C21.424 12.8279 21.3442 12.9722 21.2271 13.1396C21.1175 13.2963 20.9687 13.4809 20.8634 13.6574C20.7558 13.8376 20.6711 14.0428 20.7021 14.263L20.9497 14.2282ZM21.4172 12.1198C21.2087 11.9396 21.0071 11.8786 20.8164 11.9659C20.6483 12.0429 20.5265 12.2228 20.4256 12.4023C20.3731 12.4958 20.3216 12.5981 20.2703 12.6999C20.2185 12.8027 20.1664 12.9056 20.1107 13.0047C19.9983 13.2049 19.8781 13.3768 19.7337 13.4874L19.8858 13.6859C20.0717 13.5433 20.2121 13.3347 20.3287 13.1271C20.3875 13.0224 20.442 12.9147 20.4935 12.8125C20.5456 12.7093 20.5943 12.6124 20.6435 12.5248C20.7462 12.3422 20.8343 12.2327 20.9205 12.1933C20.984 12.1642 21.0811 12.1597 21.2537 12.3089L21.4172 12.1198ZM19.7335 13.4876C19.4398 13.7137 18.9441 13.8046 18.3004 13.7922C17.663 13.78 16.9086 13.6675 16.1228 13.5153L16.0752 13.7607C16.865 13.9137 17.6363 14.0295 18.2956 14.0422C18.9484 14.0548 19.5203 13.9673 19.886 13.6857L19.7335 13.4876ZM16.1228 13.5153C15.6961 13.4326 15.3296 13.5222 15.0253 13.721C14.7242 13.9177 14.4894 14.2175 14.3117 14.5495C13.9576 15.2111 13.813 16.0337 13.8391 16.5386L14.0888 16.5257C14.0649 16.0649 14.2001 15.2878 14.5321 14.6675C14.6975 14.3584 14.9073 14.0967 15.162 13.9303C15.4136 13.7659 15.7142 13.6908 16.0752 13.7607L16.1228 13.5153ZM13.8391 16.539C13.8499 16.7362 13.7631 16.9221 13.6083 17.1111C13.4527 17.3013 13.2415 17.4793 13.0258 17.6623C12.8157 17.8407 12.5979 18.0265 12.4544 18.2225C12.3078 18.4226 12.2237 18.6544 12.3196 18.9122L12.5539 18.8251C12.4986 18.6764 12.5364 18.5336 12.656 18.3702C12.7787 18.2027 12.9715 18.0364 13.1876 17.8529C13.3981 17.6743 13.6288 17.4809 13.8018 17.2695C13.9757 17.057 14.1044 16.8109 14.0887 16.5253L13.8391 16.539ZM12.3197 18.9126C12.4586 19.2821 12.3719 19.584 12.2212 19.7397C12.1457 19.8177 12.0547 19.8598 11.9623 19.8636C11.8709 19.8674 11.7657 19.8341 11.6601 19.7387L11.4924 19.9241C11.6401 20.0576 11.8074 20.1202 11.9725 20.1134C12.1367 20.1066 12.2863 20.0319 12.4009 19.9136C12.6301 19.6767 12.7204 19.2682 12.5538 18.8247L12.3197 18.9126ZM11.6599 19.7385C11.5399 19.6304 11.4175 19.4838 11.2733 19.3224C11.1331 19.1656 10.976 18.9993 10.7985 18.8732C10.6196 18.7461 10.413 18.6545 10.1748 18.6571C9.93623 18.6598 9.68434 18.7569 9.41463 18.972L9.57051 19.1674C9.80961 18.9767 10.0093 18.909 10.1776 18.9071C10.3464 18.9052 10.5021 18.9692 10.6536 19.0769C10.8065 19.1856 10.9478 19.3334 11.0869 19.489C11.2218 19.6401 11.3593 19.8042 11.4926 19.9243L11.6599 19.7385ZM9.41446 18.9721C9.27394 19.0846 9.17892 19.2093 9.13436 19.346C9.08928 19.4843 9.09977 19.6229 9.14969 19.7542C9.2465 20.0088 9.4932 20.2415 9.7913 20.4393C10.393 20.8386 11.2886 21.1503 11.9671 21.2295L11.996 20.9812C11.3544 20.9062 10.4966 20.6074 9.92953 20.231C9.64319 20.041 9.45156 19.8447 9.38336 19.6653C9.35077 19.5796 9.34709 19.5 9.37205 19.4235C9.39754 19.3453 9.4568 19.2585 9.57068 19.1673L9.41446 18.9721ZM11.9673 21.2295C12.1291 21.248 12.2102 21.2772 12.2451 21.3018C12.2595 21.3119 12.2597 21.3168 12.2589 21.3144C12.2582 21.3125 12.2607 21.3165 12.2563 21.3324C12.2458 21.3705 12.2092 21.4307 12.1337 21.5182C12.061 21.6024 11.9644 21.6983 11.8515 21.808C11.6285 22.0246 11.3473 22.2891 11.1072 22.5889C10.867 22.8886 10.659 23.234 10.5898 23.6177L10.8359 23.6621C10.8944 23.3369 11.0741 23.03 11.3023 22.7452C11.5304 22.4604 11.7982 22.2083 12.0257 21.9873C12.138 21.8782 12.242 21.7752 12.3229 21.6816C12.4009 21.5913 12.4708 21.4949 12.4973 21.3991C12.5114 21.348 12.515 21.2907 12.4954 21.2333C12.4755 21.1755 12.4365 21.1307 12.3888 21.0972C12.2995 21.0344 12.1644 21.0004 11.9958 20.9811L11.9673 21.2295ZM10.5897 23.6181C10.5214 24.0042 10.6019 24.2768 10.787 24.4713C10.9628 24.6559 11.2184 24.7526 11.4559 24.8287C11.7057 24.9087 11.9352 24.9664 12.1176 25.0665C12.2898 25.1609 12.3987 25.282 12.4196 25.483L12.6683 25.4571C12.6364 25.151 12.4584 24.9682 12.2378 24.8473C12.0275 24.7319 11.7585 24.6631 11.5322 24.5906C11.2936 24.5142 11.0954 24.4326 10.9681 24.2989C10.85 24.1749 10.778 23.9889 10.8359 23.6617L10.5897 23.6181ZM12.4196 25.4826C12.4379 25.6638 12.3257 25.8261 12.0738 25.9916C11.8246 26.1554 11.4784 26.2952 11.113 26.4393C10.7546 26.5805 10.3775 26.7259 10.0915 26.8983C9.81116 27.0673 9.57168 27.29 9.57168 27.6025H9.82168C9.82168 27.4329 9.95096 27.2749 10.2206 27.1124C10.4845 26.9533 10.8384 26.8162 11.2047 26.6718C11.564 26.5302 11.9361 26.3812 12.2111 26.2006C12.4834 26.0217 12.7014 25.7841 12.6683 25.4575L12.4196 25.4826ZM9.57168 27.6025C9.57168 27.7385 9.60069 27.8581 9.67717 27.9436C9.75667 28.0323 9.866 28.0607 9.97365 28.0583C10.0792 28.0559 10.1955 28.0242 10.3131 27.9785C10.4321 27.9323 10.5603 27.8686 10.6917 27.7956C10.9541 27.6498 11.2394 27.4611 11.5028 27.2863C11.7695 27.1094 12.0109 26.9488 12.1943 26.8514L12.0771 26.6306C11.8802 26.7351 11.6266 26.9041 11.3646 27.078C11.0995 27.2539 10.8225 27.4369 10.5703 27.5771C10.4443 27.6471 10.327 27.7049 10.2226 27.7455C10.1168 27.7866 10.0317 27.8069 9.96799 27.8083C9.90641 27.8097 9.87866 27.7938 9.86341 27.7768C9.84513 27.7564 9.82168 27.7087 9.82168 27.6025H9.57168ZM12.1946 26.8513C12.2767 26.8074 12.2777 26.8354 12.2619 26.8224C12.261 26.8217 12.268 26.8272 12.2769 26.8512C12.2857 26.8748 12.2935 26.9082 12.2995 26.9533C12.3115 27.0441 12.314 27.1616 12.315 27.3013C12.316 27.4381 12.3158 27.5933 12.3241 27.7493C12.3403 28.0561 12.3902 28.398 12.5743 28.6434C12.6689 28.7694 12.7974 28.8682 12.968 28.9231C13.1367 28.9775 13.3396 28.987 13.582 28.9469L13.5412 28.7003C13.3261 28.7358 13.1653 28.7241 13.0447 28.6852C12.9258 28.6469 12.8395 28.5802 12.7743 28.4933C12.6388 28.3128 12.5897 28.0387 12.5737 27.7361C12.5658 27.5873 12.5661 27.4395 12.565 27.2994C12.564 27.1623 12.5617 27.0292 12.5473 26.9204C12.54 26.8656 12.529 26.8118 12.5112 26.764C12.4936 26.7166 12.4661 26.6666 12.4205 26.6292C12.3152 26.5427 12.1857 26.5726 12.0768 26.6308L12.1946 26.8513ZM13.5822 28.9469C14.5719 28.7816 14.9225 28.0178 15.1093 27.3594C15.1562 27.1944 15.1937 27.0327 15.228 26.8874C15.2628 26.7402 15.2939 26.6119 15.3288 26.506C15.3644 26.3978 15.3994 26.3284 15.4343 26.2895C15.4621 26.2584 15.4856 26.2499 15.5221 26.2555L15.5599 26.0084C15.4312 25.9887 15.3261 26.0357 15.2482 26.1225C15.1773 26.2015 15.1294 26.3122 15.0913 26.4278C15.0525 26.5456 15.019 26.6847 14.9847 26.8299C14.95 26.9769 14.9138 27.1326 14.8688 27.2912C14.6882 27.9276 14.3795 28.5603 13.541 28.7003L13.5822 28.9469ZM15.5227 26.2556C15.5842 26.2647 15.6105 26.284 15.6239 26.2998C15.6387 26.3172 15.6525 26.348 15.657 26.4058C15.6666 26.529 15.6309 26.7026 15.5847 26.9372C15.4965 27.3845 15.3832 27.9985 15.6858 28.5763L15.9073 28.4603C15.6504 27.9697 15.7404 27.4397 15.83 26.9855C15.8726 26.7694 15.9192 26.5528 15.9063 26.3863C15.8995 26.2993 15.8758 26.2102 15.8145 26.138C15.7518 26.0641 15.6633 26.0237 15.5594 26.0083L15.5227 26.2556ZM15.6857 28.5761C15.8034 28.8021 15.7974 29.0662 15.706 29.3639C15.6145 29.6623 15.442 29.9783 15.2491 30.2946C15.0601 30.6044 14.8461 30.9226 14.6917 31.2012C14.6135 31.3423 14.5466 31.4799 14.5026 31.6095C14.4589 31.7381 14.4347 31.8677 14.4509 31.9896L14.6987 31.9566C14.6896 31.8881 14.7019 31.8002 14.7393 31.6899C14.7765 31.5805 14.8354 31.4576 14.9103 31.3224C15.0622 31.0483 15.264 30.7503 15.4625 30.4247C15.6571 30.1058 15.8437 29.7674 15.945 29.4372C16.0466 29.1062 16.0672 28.7673 15.9074 28.4606L15.6857 28.5761ZM14.4509 31.9896C14.4705 32.1373 14.5739 32.2482 14.7011 32.3284C14.8295 32.4093 15.0001 32.4712 15.1948 32.5169C15.5854 32.6087 16.1014 32.6421 16.6459 32.6131C17.1912 32.584 17.7719 32.492 18.2926 32.3285C18.8112 32.1657 19.2817 31.9285 19.5946 31.6017L19.414 31.4288C19.1424 31.7125 18.7172 31.9332 18.2178 32.09C17.7204 32.2461 17.1609 32.3353 16.6326 32.3634C16.1034 32.3917 15.6126 32.3583 15.252 32.2736C15.0711 32.2311 14.9301 32.1773 14.8344 32.1169C14.7375 32.0558 14.7044 31.9997 14.6987 31.9567L14.4509 31.9896ZM19.5945 31.6018C19.8787 31.3056 20.1096 31.1813 20.2752 31.1542C20.4297 31.1289 20.5337 31.186 20.5987 31.2894C20.669 31.401 20.6997 31.5792 20.6599 31.7919C20.6205 32.0021 20.5138 32.2356 20.3256 32.4479L20.5127 32.6138C20.7297 32.3689 20.8576 32.0944 20.9056 31.8379C20.9531 31.5839 20.9238 31.3366 20.8104 31.1562C20.6916 30.9675 20.4881 30.866 20.2348 30.9075C19.9924 30.9471 19.7151 31.115 19.4141 31.4287L19.5945 31.6018ZM20.3258 32.4477C19.9007 32.9247 19.7611 33.4133 19.8921 33.8433C20.0218 34.2696 20.4053 34.5973 20.9375 34.7828L21.0197 34.5467C20.5328 34.377 20.2298 34.0943 20.1312 33.7705C20.0338 33.4506 20.124 33.0499 20.5124 32.614L20.3258 32.4477ZM20.9373 34.7828C21.1936 34.8723 21.4014 34.9436 21.5658 35.0138C21.7321 35.0847 21.8372 35.1478 21.8981 35.2132C21.9517 35.2708 21.9747 35.3337 21.9637 35.4278C21.9517 35.5313 21.8984 35.6716 21.7861 35.8697L22.0036 35.993C22.1205 35.7868 22.1941 35.611 22.2121 35.4566C22.2311 35.2929 22.1868 35.1564 22.0811 35.0428C21.9826 34.9371 21.8363 34.8573 21.6639 34.7838C21.4897 34.7095 21.2717 34.6348 21.0198 34.5468L20.9373 34.7828ZM21.7859 35.8701C21.6599 36.0945 21.5965 36.361 21.5652 36.6385C21.5338 36.9165 21.5338 37.2139 21.5399 37.5034C21.5462 37.7962 21.5585 38.0774 21.5537 38.3365C21.5489 38.5959 21.5267 38.8181 21.4694 38.99L21.7066 39.0691C21.7763 38.86 21.7987 38.6066 21.8037 38.3412C21.8086 38.0754 21.7959 37.7827 21.7899 37.4981C21.7837 37.2103 21.7842 36.927 21.8136 36.6666C21.8431 36.4057 21.9008 36.1762 22.0039 35.9925L21.7859 35.8701ZM21.4693 38.9902C21.4504 39.0474 21.3998 39.1089 21.3027 39.1696C21.2064 39.2299 21.075 39.2824 20.9154 39.3254C20.5967 39.4114 20.1874 39.4537 19.7776 39.4569C19.3681 39.4601 18.9664 39.424 18.664 39.3576C18.5121 39.3242 18.3914 39.2844 18.3086 39.2416C18.2185 39.195 18.2048 39.1615 18.2039 39.1573L17.9589 39.2069C17.9837 39.3297 18.0909 39.4105 18.1938 39.4637C18.304 39.5206 18.4484 39.5661 18.6103 39.6017C18.9356 39.6732 19.3568 39.7101 19.7795 39.7069C20.2019 39.7036 20.6342 39.6602 20.9805 39.5668C21.1535 39.5201 21.3105 39.4596 21.4353 39.3816C21.5593 39.304 21.6625 39.2021 21.7066 39.0688L21.4693 38.9902ZM18.204 39.1577C18.1654 38.9642 18.0088 38.8657 17.8466 38.8327C17.686 38.7999 17.498 38.8237 17.3314 38.8872C17.1652 38.9506 17.0034 39.0603 16.9094 39.2166C16.811 39.38 16.7956 39.5808 16.9038 39.7948L17.1269 39.682C17.0559 39.5415 17.0715 39.4321 17.1236 39.3454C17.1801 39.2516 17.2882 39.1713 17.4205 39.1208C17.5527 39.0704 17.692 39.0563 17.7967 39.0776C17.8999 39.0987 17.9468 39.1462 17.9588 39.2066L18.204 39.1577ZM16.9034 39.7941C16.9693 39.9263 16.9557 40.0652 16.8789 40.2263C16.8002 40.3914 16.6629 40.5627 16.5065 40.7446C16.3546 40.9211 16.1834 41.109 16.0596 41.2926C15.937 41.4746 15.8409 41.6804 15.8742 41.8944L16.1212 41.8561C16.1031 41.7391 16.1529 41.6015 16.267 41.4323C16.3799 41.2646 16.5361 41.0934 16.696 40.9076C16.8512 40.7272 17.0098 40.5329 17.1046 40.3339C17.2013 40.1309 17.239 39.9071 17.1272 39.6826L16.9034 39.7941ZM15.8742 41.8947C15.9105 42.1247 16.0988 42.2641 16.2984 42.3594C16.5011 42.456 16.7596 42.5275 16.9985 42.5988C17.2448 42.6723 17.4727 42.7461 17.642 42.8471C17.8085 42.9465 17.8963 43.0584 17.9052 43.2038L18.1548 43.1885C18.1387 42.9273 17.973 42.7535 17.7701 42.6325C17.57 42.513 17.3124 42.4316 17.07 42.3592C16.82 42.2846 16.5864 42.2197 16.406 42.1337C16.2226 42.0462 16.1371 41.9567 16.1212 41.8558L15.8742 41.8947ZM17.9052 43.2038C17.9153 43.3678 17.8517 43.5517 17.7056 43.7505C17.5599 43.9491 17.338 44.154 17.0497 44.3552C16.4733 44.7576 15.649 45.1334 14.6941 45.4111L14.7639 45.6511C15.737 45.3682 16.5881 44.9823 17.1928 44.5602C17.495 44.3493 17.7399 44.1262 17.9072 43.8985C18.0741 43.6711 18.1696 43.4303 18.1548 43.1884L17.9052 43.2038ZM14.6943 45.411C14.2017 45.5532 13.9202 45.7734 13.8681 46.0593C13.8169 46.3408 14.004 46.6048 14.2421 46.7968C14.4874 46.9947 14.8241 47.1493 15.1612 47.2116C15.4959 47.2735 15.8534 47.2481 16.1209 47.0545L15.9743 46.852C15.7844 46.9894 15.5068 47.0213 15.2066 46.9658C14.9087 46.9107 14.6106 46.7729 14.3991 46.6022C14.1803 46.4258 14.0885 46.2449 14.1141 46.1041C14.1389 45.9677 14.29 45.7879 14.7636 45.6512L14.6943 45.411ZM16.1207 47.0547C16.3414 46.8957 16.4693 46.8633 16.5543 46.8711C16.6405 46.8789 16.7148 46.9294 16.8311 47.0292C16.9415 47.1239 17.0809 47.2541 17.2776 47.3566C17.4774 47.4606 17.7323 47.5347 18.0814 47.5347V47.2847C17.7704 47.2847 17.5554 47.2193 17.3931 47.1348C17.2277 47.0487 17.1127 46.9413 16.9939 46.8395C16.8812 46.7428 16.7517 46.638 16.5771 46.6221C16.4012 46.606 16.2112 46.6813 15.9746 46.8518L16.1207 47.0547ZM18.0814 47.5347C18.7139 47.5347 19.2173 47.7883 19.7877 47.9919C20.3536 48.1939 20.9589 48.3312 21.7337 48.0373L21.645 47.8036C20.9498 48.0673 20.4119 47.9493 19.8718 47.7565C19.3361 47.5653 18.7705 47.2847 18.0814 47.2847V47.5347ZM21.7336 48.0373C22.0987 47.8988 22.3583 47.8342 22.525 47.8227C22.6092 47.8169 22.6573 47.8257 22.6808 47.8355C22.6913 47.8399 22.6936 47.8431 22.6929 47.8422C22.6916 47.8408 22.6914 47.8393 22.6917 47.8407C22.6928 47.8472 22.6931 47.8738 22.6665 47.9287C22.641 47.9811 22.597 48.0468 22.5314 48.1247C22.4005 48.2802 22.1954 48.4705 21.9199 48.6829L22.0725 48.8809C22.3558 48.6626 22.576 48.4599 22.7226 48.2857C22.7958 48.1988 22.8537 48.1155 22.8913 48.0379C22.9279 47.9628 22.9526 47.8785 22.9377 47.7962C22.9209 47.7034 22.859 47.6389 22.7771 47.6048C22.7018 47.5734 22.6088 47.5663 22.5078 47.5733C22.3041 47.5873 22.0171 47.6624 21.645 47.8035L21.7336 48.0373ZM21.9197 48.6831C21.4015 49.0842 20.7492 49.0791 20.0603 49.028C19.7228 49.003 19.3737 48.9671 19.0485 48.9733C18.7217 48.9796 18.4033 49.0283 18.124 49.1816L18.2443 49.4008C18.4731 49.2752 18.7452 49.2292 19.0534 49.2233C19.3632 49.2173 19.6935 49.2515 20.0419 49.2773C20.7249 49.3279 21.4705 49.347 22.0727 48.8808L21.9197 48.6831ZM18.124 49.1816C17.8566 49.3284 17.3985 49.6836 16.8802 50.1403C16.3589 50.5996 15.7679 51.1693 15.2331 51.7517C14.6993 52.333 14.2168 52.932 13.9164 53.4497C13.7665 53.7079 13.6576 53.9531 13.6135 54.1705C13.5694 54.3875 13.5864 54.5968 13.7175 54.7567L13.9108 54.5981C13.8466 54.5199 13.822 54.3997 13.8584 54.2203C13.8949 54.0411 13.9888 53.8229 14.1326 53.5751C14.4196 53.0807 14.8879 52.4973 15.4172 51.9208C15.9455 51.3455 16.5301 50.782 17.0455 50.3279C17.5638 49.8712 18.0036 49.5329 18.2443 49.4008L18.124 49.1816ZM13.7177 54.7569C13.7874 54.8415 13.8692 54.9004 13.9663 54.9228C14.0627 54.945 14.1571 54.9272 14.2448 54.891C14.4125 54.8217 14.5936 54.6674 14.7861 54.4966C15.1832 54.1441 15.6875 53.665 16.4009 53.3693L16.3052 53.1383C15.5457 53.4531 15.0097 53.9639 14.6201 54.3097C14.4192 54.488 14.2704 54.6099 14.1493 54.66C14.0925 54.6834 14.0528 54.6862 14.0224 54.6792C13.9928 54.6723 13.9555 54.6524 13.9106 54.5979L13.7177 54.7569ZM16.4007 53.3694C16.7573 53.2222 17.0314 53.1766 17.2528 53.1866C17.473 53.1965 17.6499 53.2618 17.8128 53.3504C17.8951 53.3951 17.9735 53.4457 18.0533 53.4989C18.1318 53.5511 18.2139 53.6076 18.2969 53.659C18.465 53.7629 18.6515 53.8557 18.881 53.8842L18.9118 53.6361C18.7337 53.614 18.583 53.542 18.4284 53.4463C18.3502 53.3979 18.2746 53.3459 18.1919 53.2908C18.1107 53.2367 18.0247 53.1811 17.9322 53.1308C17.7456 53.0293 17.5317 52.9489 17.2641 52.9369C16.9976 52.9248 16.6867 52.9809 16.3054 53.1383L16.4007 53.3694ZM18.8805 53.8841C19.1392 53.9173 19.333 53.7958 19.4792 53.6265C19.6213 53.4619 19.7309 53.2385 19.8281 53.0346C19.9292 52.8222 20.0163 52.6325 20.1166 52.5017C20.1656 52.4378 20.2116 52.3967 20.2553 52.3743C20.2958 52.3536 20.339 52.3463 20.3928 52.3586L20.4484 52.1149C20.3366 52.0894 20.2334 52.1046 20.1413 52.1518C20.0524 52.1974 19.9796 52.2696 19.9183 52.3496C19.7978 52.5066 19.6978 52.7267 19.6023 52.9271C19.5029 53.136 19.4065 53.3282 19.29 53.4631C19.1776 53.5933 19.0603 53.6551 18.9122 53.6361L18.8805 53.8841ZM20.3925 52.3585C20.5837 52.4027 20.767 52.3831 20.9468 52.3385C21.1228 52.2948 21.3088 52.2231 21.4957 52.1588C21.8749 52.0285 22.3082 51.9094 22.8875 52.0063L22.9287 51.7597C22.2892 51.6527 21.8091 51.7867 21.4145 51.9224C21.2144 51.9912 21.0484 52.0557 20.8865 52.0959C20.7284 52.1351 20.5879 52.1471 20.4487 52.1149L20.3925 52.3585ZM22.8875 52.0063C24.1562 52.2182 25.0552 51.7402 25.6827 51.2174L25.5226 51.0253C24.9313 51.518 24.1035 51.9559 22.9287 51.7597L22.8875 52.0063ZM25.6827 51.2174C25.7862 51.1311 25.9484 51.1176 26.1845 51.1806C26.4164 51.2425 26.6818 51.3681 26.9562 51.5051C27.2248 51.6391 27.5038 51.785 27.7463 51.8732C27.8682 51.9176 27.9883 51.9503 28.0994 51.9584C28.2108 51.9664 28.324 51.9504 28.4194 51.8848L28.2778 51.6787C28.2452 51.7012 28.1954 51.7147 28.1175 51.709C28.0393 51.7033 27.9438 51.679 27.8318 51.6383C27.6066 51.5564 27.3454 51.4199 27.0678 51.2814C26.7959 51.1457 26.509 51.0084 26.249 50.9391C25.9932 50.8708 25.7239 50.8576 25.5226 51.0253L25.6827 51.2174ZM28.4209 51.8837C28.5286 51.8074 28.7452 51.7195 29.0431 51.6319C29.3361 51.5458 29.6938 51.4639 30.072 51.3943C30.8306 51.2549 31.6592 51.1676 32.205 51.1919L32.2161 50.9422C31.643 50.9166 30.7932 51.0076 30.0268 51.1485C29.6426 51.2191 29.2761 51.3028 28.9726 51.3921C28.6738 51.4799 28.4212 51.5771 28.2763 51.6798L28.4209 51.8837ZM32.2045 51.1919C32.5046 51.2065 32.9111 51.1291 33.3545 51.0008C33.8011 50.8715 34.2967 50.6871 34.7796 50.4792C35.2627 50.2713 35.7352 50.039 36.1357 49.8134C36.534 49.589 36.8684 49.3669 37.0698 49.1785L36.899 48.9959C36.7201 49.1633 36.407 49.3736 36.013 49.5956C35.6212 49.8163 35.1568 50.0447 34.6808 50.2496C34.2047 50.4545 33.7191 50.635 33.285 50.7606C32.8476 50.8872 32.4738 50.9547 32.2167 50.9422L32.2045 51.1919ZM37.0696 49.1787C37.2644 48.9975 37.379 48.8119 37.3416 48.6301C37.3038 48.4464 37.128 48.3458 36.9531 48.2899C36.5892 48.1735 36.0078 48.1767 35.4946 48.2532L35.5315 48.5005C36.0316 48.4259 36.5676 48.4291 36.877 48.528C37.0387 48.5798 37.0885 48.6408 37.0967 48.6805C37.1053 48.722 37.0862 48.8218 36.8993 48.9957L37.0696 49.1787ZM35.4944 48.2533C35.2586 48.289 35.1275 48.2429 35.06 48.1776C34.9928 48.1128 34.9558 47.9973 34.9813 47.8181C35.0328 47.4576 35.3286 46.9353 35.8533 46.4362L35.6809 46.2551C35.1365 46.773 34.7966 47.3435 34.7339 47.7828C34.7023 48.0035 34.7386 48.2148 34.8863 48.3574C35.0335 48.4997 35.2587 48.5418 35.5318 48.5005L35.4944 48.2533ZM35.8532 46.4363C36.1144 46.1882 36.4142 45.9542 36.7235 45.716C37.031 45.4791 37.3482 45.2377 37.6352 44.9798C38.2089 44.4641 38.683 43.8638 38.7362 43.0531L38.4867 43.0368C38.44 43.7495 38.025 44.2932 37.468 44.7939C37.1897 45.0441 36.8811 45.279 36.571 45.5179C36.2626 45.7554 35.9529 45.9968 35.681 46.255L35.8532 46.4363ZM8.07565 17.6724C8.45214 17.6587 8.83149 17.4894 9.17327 17.2448C9.51627 16.9994 9.83054 16.6716 10.0787 16.3255C10.3263 15.9801 10.5129 15.6098 10.5941 15.2767C10.6738 14.9496 10.6591 14.6225 10.4476 14.4096L10.2703 14.5859C10.3884 14.7047 10.4241 14.9184 10.3512 15.2175C10.2798 15.5107 10.1106 15.8519 9.87554 16.1798C9.64096 16.507 9.34547 16.8142 9.02777 17.0415C8.70885 17.2698 8.37656 17.4113 8.06657 17.4226L8.07565 17.6724ZM10.4471 14.4091C10.3204 14.283 10.1525 14.2744 9.99337 14.3211C9.83702 14.3669 9.66844 14.4703 9.50071 14.6032C9.16321 14.8706 8.79448 15.2855 8.48227 15.7152C8.1706 16.1443 7.90665 16.6 7.78601 16.9527C7.72719 17.1247 7.69422 17.2948 7.72746 17.4295C7.74522 17.5014 7.78331 17.5684 7.84996 17.6146C7.91512 17.6597 7.99374 17.6752 8.07541 17.6724L8.0668 17.4225C8.02072 17.4241 8.00026 17.4146 7.99224 17.409C7.98571 17.4045 7.97653 17.3953 7.97017 17.3696C7.95517 17.3088 7.96654 17.1974 8.02255 17.0336C8.13158 16.7148 8.37929 16.2823 8.68453 15.8622C8.98925 15.4427 9.34271 15.0474 9.65595 14.7992C9.8136 14.6743 9.95252 14.5936 10.0637 14.561C10.1721 14.5292 10.2319 14.5477 10.2707 14.5863L10.4471 14.4091ZM27.8281 6.61257C28.0592 6.38199 28.2918 5.99855 28.4899 5.56878C28.6891 5.13645 28.8588 4.6457 28.9594 4.19191C29.0588 3.74339 29.0952 3.31152 29.0098 3.00731C28.9663 2.85273 28.8871 2.71627 28.7535 2.63617C28.6186 2.5553 28.4525 2.54632 28.2668 2.59634L28.3318 2.83774C28.4758 2.79897 28.5664 2.81549 28.625 2.85059C28.6848 2.88645 28.7358 2.95642 28.7691 3.07492C28.837 3.31685 28.8128 3.69768 28.7153 4.13781C28.6189 4.57268 28.4553 5.04653 28.2628 5.46414C28.0692 5.88432 27.8515 6.23615 27.6516 6.43559L27.8281 6.61257ZM28.2668 2.59635C27.8759 2.70171 27.6314 3.05742 27.4828 3.47354C27.3325 3.89412 27.2675 4.40906 27.2564 4.89343C27.2453 5.37831 27.288 5.84289 27.3593 6.16605C27.3942 6.32436 27.4389 6.46247 27.4955 6.55115C27.5225 6.59336 27.5657 6.64613 27.6317 6.66688C27.7125 6.69231 27.7826 6.65809 27.8282 6.61249L27.6515 6.43567C27.6498 6.4374 27.6725 6.41764 27.7067 6.42841C27.726 6.43449 27.7234 6.44348 27.7062 6.41653C27.6745 6.36689 27.6372 6.26519 27.6035 6.1122C27.5374 5.81276 27.4956 5.36879 27.5063 4.89915C27.5171 4.42901 27.5803 3.94349 27.7182 3.55765C27.8576 3.16735 28.0612 2.91069 28.3319 2.83773L28.2668 2.59635Z" fill="#868686"/>
</g>
<defs>
<filter id="filter0_d_6252_1234" x="0.40625" y="0.56543" width="42.3325" height="60.3672" filterUnits="userSpaceOnUse" color-interpolation-filters="sRGB">
<feFlood flood-opacity="0" result="BackgroundImageFix"/>
<feColorMatrix in="SourceAlpha" type="matrix" values="0 0 0 0 0 0 0 0 0 0 0 0 0 0 0 0 0 0 127 0" result="hardAlpha"/>
<feOffset dy="2"/>
<feGaussianBlur stdDeviation="2"/>
<feColorMatrix type="matrix" values="0 0 0 0 0 0 0 0 0 0 0 0 0 0 0 0 0 0 0.01 0"/>
<feBlend mode="normal" in2="BackgroundImageFix" result="effect1_dropShadow_6252_1234"/>
<feBlend mode="normal" in="SourceGraphic" in2="effect1_dropShadow_6252_1234" result="shape"/>
</filter>
</defs>
</svg>
