<svg width="30" height="20" viewBox="0 0 30 20" fill="none" xmlns="http://www.w3.org/2000/svg">
<g filter="url(#filter0_d_6252_1136)">
<path fill-rule="evenodd" clip-rule="evenodd" d="M13.505 11.9243C13.6518 11.6307 12.621 9.93709 14.6078 9.79032C16.596 9.64356 18.0659 9.42342 18.3611 8.17299C18.6562 6.92404 21.0101 7.51109 21.6724 7.43771C22.2201 7.37754 23.9734 5.76167 25.6885 5.82625C25.7135 4.15315 23.4389 4.6947 21.8691 3.12287C20.1922 1.44977 16.5329 2.21147 14.552 2.97024C12.5696 3.73194 10.2833 2.13368 8.14964 3.35182C8.12174 3.36356 8.10119 3.3753 8.07622 3.38851C7.60926 3.97556 6.96903 4.69911 6.22013 5.30377C4.78255 6.46907 5.18049 7.6197 4.65186 7.95285C5.19811 8.15832 5.72234 8.39901 6.14671 8.68813C7.76639 9.78886 9.31117 8.8349 9.90001 9.64209C10.0982 9.91654 10.0351 10.8147 9.8677 11.8846C10.1673 11.641 10.3963 11.4708 10.8941 11.8846C11.3405 12.2545 11.2598 12.7197 11.2025 13.1747L12.4756 12.8797C12.4742 12.8826 13.3581 12.2207 13.505 11.9243Z" fill="white"/>
<path fill-rule="evenodd" clip-rule="evenodd" d="M13.505 11.9243C13.6518 11.6307 12.621 9.93709 14.6078 9.79032C16.596 9.64356 18.0659 9.42342 18.3611 8.17299C18.6562 6.92404 21.0101 7.51109 21.6724 7.43771C22.2201 7.37754 23.9734 5.76167 25.6885 5.82625C25.7135 4.15315 23.4389 4.6947 21.8691 3.12287C20.1922 1.44977 16.5329 2.21147 14.552 2.97024C12.5696 3.73194 10.2833 2.13368 8.14964 3.35182C8.12174 3.36356 8.10119 3.3753 8.07622 3.38851C7.60926 3.97556 6.96903 4.69911 6.22013 5.30377C4.78255 6.46907 5.18049 7.6197 4.65186 7.95285C5.19811 8.15832 5.72234 8.39901 6.14671 8.68813C7.76639 9.78886 9.31117 8.8349 9.90001 9.64209C10.0982 9.91654 10.0351 10.8147 9.8677 11.8846C10.1673 11.641 10.3963 11.4708 10.8941 11.8846C11.3405 12.2545 11.2598 12.7197 11.2025 13.1747L12.4756 12.8797C12.4742 12.8826 13.3581 12.2207 13.505 11.9243Z" stroke="#868686" stroke-width="0.25"/>
</g>
<defs>
<filter id="filter0_d_6252_1136" x="0.372559" y="-0.00415039" width="29.4409" height="19.3411" filterUnits="userSpaceOnUse" color-interpolation-filters="sRGB">
<feFlood flood-opacity="0" result="BackgroundImageFix"/>
<feColorMatrix in="SourceAlpha" type="matrix" values="0 0 0 0 0 0 0 0 0 0 0 0 0 0 0 0 0 0 127 0" result="hardAlpha"/>
<feOffset dy="2"/>
<feGaussianBlur stdDeviation="2"/>
<feColorMatrix type="matrix" values="0 0 0 0 0 0 0 0 0 0 0 0 0 0 0 0 0 0 0.01 0"/>
<feBlend mode="normal" in2="BackgroundImageFix" result="effect1_dropShadow_6252_1136"/>
<feBlend mode="normal" in="SourceGraphic" in2="effect1_dropShadow_6252_1136" result="shape"/>
</filter>
</defs>
</svg>
