<svg width="28" height="26" viewBox="0 0 28 26" fill="none" xmlns="http://www.w3.org/2000/svg">
<g filter="url(#filter0_d_6252_1101)">
<path fill-rule="evenodd" clip-rule="evenodd" d="M15.2189 15.7678C15.2937 15.1616 12.4098 13.4915 12.4098 12.3541C12.4098 11.2196 10.9692 10.7602 10.8165 10.0029C10.6638 9.24268 11.6521 8.56463 12.3334 9.09298C13.0162 9.62426 13.7754 8.33275 14.536 8.63655C15.2937 8.94181 19.8459 9.16489 19.8459 9.16489C19.8459 9.16489 21.2526 9.56262 22.9457 10.7338C22.9105 10.4183 22.8561 10.1541 22.7871 9.99704C22.3804 9.03868 22.7871 7.94823 21.6961 7.53876C21.1322 7.32742 20.8987 6.35438 20.7989 5.46059C20.2835 5.61616 19.8503 5.74531 19.6109 5.80548C18.7034 6.0315 16.7739 5.91702 16.0926 5.01003C15.5845 4.33345 14.0089 3.34279 13.235 2.88196C12.9164 3.15787 11.7064 4.19402 11.1792 4.25713C10.5684 4.33491 10.9531 5.9361 10.3407 5.9361C9.73282 5.9361 9.2732 7.0016 9.12049 7.46097C8.96924 7.91594 7.60066 7.15277 6.98686 7.38172C6.55221 7.54609 5.26587 7.74716 4.56543 7.84843C4.67262 8.54409 4.63151 9.31019 5.18657 9.31019C6.10287 9.31019 7.77981 9.21333 7.82974 10.43C7.87673 11.6481 10.0647 14.3412 10.8753 15.257C11.6888 16.1728 13.5199 15.9674 13.6197 16.7305C13.7225 17.4908 15.0441 18.2026 16.5698 18.3038C16.9824 18.3317 17.4802 18.5695 18.0133 18.907C16.9472 17.3499 15.1645 16.1934 15.2189 15.7678Z" fill="white"/>
<path fill-rule="evenodd" clip-rule="evenodd" d="M15.2189 15.7678C15.2937 15.1616 12.4098 13.4915 12.4098 12.3541C12.4098 11.2196 10.9692 10.7602 10.8165 10.0029C10.6638 9.24268 11.6521 8.56463 12.3334 9.09298C13.0162 9.62426 13.7754 8.33275 14.536 8.63655C15.2937 8.94181 19.8459 9.16489 19.8459 9.16489C19.8459 9.16489 21.2526 9.56262 22.9457 10.7338C22.9105 10.4183 22.8561 10.1541 22.7871 9.99704C22.3804 9.03868 22.7871 7.94823 21.6961 7.53876C21.1322 7.32742 20.8987 6.35438 20.7989 5.46059C20.2835 5.61616 19.8503 5.74531 19.6109 5.80548C18.7034 6.0315 16.7739 5.91702 16.0926 5.01003C15.5845 4.33345 14.0089 3.34279 13.235 2.88196C12.9164 3.15787 11.7064 4.19402 11.1792 4.25713C10.5684 4.33491 10.9531 5.9361 10.3407 5.9361C9.73282 5.9361 9.2732 7.0016 9.12049 7.46097C8.96924 7.91594 7.60066 7.15277 6.98686 7.38172C6.55221 7.54609 5.26587 7.74716 4.56543 7.84843C4.67262 8.54409 4.63151 9.31019 5.18657 9.31019C6.10287 9.31019 7.77981 9.21333 7.82974 10.43C7.87673 11.6481 10.0647 14.3412 10.8753 15.257C11.6888 16.1728 13.5199 15.9674 13.6197 16.7305C13.7225 17.4908 15.0441 18.2026 16.5698 18.3038C16.9824 18.3317 17.4802 18.5695 18.0133 18.907C16.9472 17.3499 15.1645 16.1934 15.2189 15.7678Z" stroke="#868686" stroke-width="0.25"/>
</g>
<defs>
<filter id="filter0_d_6252_1101" x="0.422852" y="0.728394" width="26.6777" height="24.2843" filterUnits="userSpaceOnUse" color-interpolation-filters="sRGB">
<feFlood flood-opacity="0" result="BackgroundImageFix"/>
<feColorMatrix in="SourceAlpha" type="matrix" values="0 0 0 0 0 0 0 0 0 0 0 0 0 0 0 0 0 0 127 0" result="hardAlpha"/>
<feOffset dy="2"/>
<feGaussianBlur stdDeviation="2"/>
<feColorMatrix type="matrix" values="0 0 0 0 0 0 0 0 0 0 0 0 0 0 0 0 0 0 0.01 0"/>
<feBlend mode="normal" in2="BackgroundImageFix" result="effect1_dropShadow_6252_1101"/>
<feBlend mode="normal" in="SourceGraphic" in2="effect1_dropShadow_6252_1101" result="shape"/>
</filter>
</defs>
</svg>
