<svg width="43" height="42" viewBox="0 0 43 42" fill="none" xmlns="http://www.w3.org/2000/svg">
<g filter="url(#filter0_d_6252_1130)">
<path fill-rule="evenodd" clip-rule="evenodd" d="M33.3078 32.638C33.7483 32.1786 33.8232 31.5329 34.879 31.3788C35.7116 31.257 36.2343 31.8014 37.1521 32.6556C37.5016 32.3151 38.0919 32.0128 38.6543 31.8513C37.7351 30.9003 36.6338 29.8025 36.7145 29.148C36.8511 28.0634 35.6294 27.5204 35.4928 26.8408C35.3577 26.1643 36.3092 25.0797 35.7645 24.5367C35.2211 23.9951 35.086 22.6375 34.1404 22.5025C33.1874 22.3646 30.1991 20.8735 30.3357 19.9239C30.4722 18.9743 29.252 18.2963 28.7101 18.0262C28.1683 17.7533 27.6235 15.3111 28.3034 14.9046C28.9803 14.501 28.8452 12.1924 29.6602 12.1924C30.4737 12.1924 29.7953 10.9713 30.0655 10.1568C30.3372 9.3452 29.39 8.9372 28.7101 8.9372C28.0303 8.9372 26.81 7.84968 26.81 6.89866C26.81 5.95057 25.4502 4.59594 25.5883 4.18941C25.3548 5.97992 22.7704 3.20903 21.9583 3.61556C21.1463 4.0221 20.5339 2.80543 18.9084 3.00356C17.8688 3.13711 17.9055 3.68307 17.3783 4.16739L17.4429 4.18941L15.4077 5.68199C15.4077 5.68199 13.6441 6.21914 13.2373 7.30666C12.8306 8.39124 14.0523 9.47729 13.509 10.1553C12.9642 10.8304 13.1008 12.3245 13.2373 12.8661C13.3724 13.412 12.4194 14.9031 12.4194 14.9031C12.4194 14.9031 8.38126 17.0738 5.01416 18.7953C5.07437 19.4249 5.161 20.0325 5.29022 20.4787C5.50461 21.2316 5.83207 22.6669 6.09492 23.8542C7.40182 23.8425 7.59271 23.7265 8.75718 23.8542C9.98037 23.9922 14.4576 27.2474 15.5457 27.7889C16.6294 28.3305 22.6 32.8053 23.8247 33.8928C25.0464 34.9803 27.0802 35.2519 27.8937 35.2519C28.3607 35.2519 30.3078 35.4735 31.879 35.6657C32.3562 34.5107 33.0376 32.9286 33.3078 32.638Z" fill="white"/>
<path fill-rule="evenodd" clip-rule="evenodd" d="M33.3078 32.638C33.7483 32.1786 33.8232 31.5329 34.879 31.3788C35.7116 31.257 36.2343 31.8014 37.1521 32.6556C37.5016 32.3151 38.0919 32.0128 38.6543 31.8513C37.7351 30.9003 36.6338 29.8025 36.7145 29.148C36.8511 28.0634 35.6294 27.5204 35.4928 26.8408C35.3577 26.1643 36.3092 25.0797 35.7645 24.5367C35.2211 23.9951 35.086 22.6375 34.1404 22.5025C33.1874 22.3646 30.1991 20.8735 30.3357 19.9239C30.4722 18.9743 29.252 18.2963 28.7101 18.0262C28.1683 17.7533 27.6235 15.3111 28.3034 14.9046C28.9803 14.501 28.8452 12.1924 29.6602 12.1924C30.4737 12.1924 29.7953 10.9713 30.0655 10.1568C30.3372 9.3452 29.39 8.9372 28.7101 8.9372C28.0303 8.9372 26.81 7.84968 26.81 6.89866C26.81 5.95057 25.4502 4.59594 25.5883 4.18941C25.3548 5.97992 22.7704 3.20903 21.9583 3.61556C21.1463 4.0221 20.5339 2.80543 18.9084 3.00356C17.8688 3.13711 17.9055 3.68307 17.3783 4.16739L17.4429 4.18941L15.4077 5.68199C15.4077 5.68199 13.6441 6.21914 13.2373 7.30666C12.8306 8.39124 14.0523 9.47729 13.509 10.1553C12.9642 10.8304 13.1008 12.3245 13.2373 12.8661C13.3724 13.412 12.4194 14.9031 12.4194 14.9031C12.4194 14.9031 8.38126 17.0738 5.01416 18.7953C5.07437 19.4249 5.161 20.0325 5.29022 20.4787C5.50461 21.2316 5.83207 22.6669 6.09492 23.8542C7.40182 23.8425 7.59271 23.7265 8.75718 23.8542C9.98037 23.9922 14.4576 27.2474 15.5457 27.7889C16.6294 28.3305 22.6 32.8053 23.8247 33.8928C25.0464 34.9803 27.0802 35.2519 27.8937 35.2519C28.3607 35.2519 30.3078 35.4735 31.879 35.6657C32.3562 34.5107 33.0376 32.9286 33.3078 32.638Z" stroke="#868686" stroke-width="0.25"/>
</g>
<defs>
<filter id="filter0_d_6252_1130" x="0.881836" y="0.856567" width="42.0068" height="40.9448" filterUnits="userSpaceOnUse" color-interpolation-filters="sRGB">
<feFlood flood-opacity="0" result="BackgroundImageFix"/>
<feColorMatrix in="SourceAlpha" type="matrix" values="0 0 0 0 0 0 0 0 0 0 0 0 0 0 0 0 0 0 127 0" result="hardAlpha"/>
<feOffset dy="2"/>
<feGaussianBlur stdDeviation="2"/>
<feColorMatrix type="matrix" values="0 0 0 0 0 0 0 0 0 0 0 0 0 0 0 0 0 0 0.01 0"/>
<feBlend mode="normal" in2="BackgroundImageFix" result="effect1_dropShadow_6252_1130"/>
<feBlend mode="normal" in="SourceGraphic" in2="effect1_dropShadow_6252_1130" result="shape"/>
</filter>
</defs>
</svg>
