<svg width="24" height="25" viewBox="0 0 24 25" fill="none" xmlns="http://www.w3.org/2000/svg">
<g filter="url(#filter0_d_6252_1084)">
<path fill-rule="evenodd" clip-rule="evenodd" d="M18.0142 2.79846C15.86 3.90212 13.9863 4.81939 13.6148 4.87369C12.6633 5.01165 10.3578 6.63779 10.3578 6.63779L7.23596 5.01165L6.96284 3.78765L6.89969 3.76416C6.77047 4.93387 6.60601 6.28702 6.49735 6.71557C6.29323 7.53011 6.29323 11.594 5.68384 12.4071C5.31526 12.8972 4.87033 15.3232 4.58252 17.3882C5.70586 17.9973 7.01423 18.6416 7.64272 18.712C8.86592 18.8426 10.3578 17.488 10.3578 16.6749C10.3578 15.8619 11.443 15.7254 12.5296 15.7254C13.6163 15.7254 13.7514 14.5043 14.5649 14.0978C15.3799 13.6898 12.8013 11.3856 11.9863 11.1155C11.1713 10.8455 12.6633 9.0814 15.3799 8.94491C18.095 8.80842 17.4151 7.85886 18.907 7.85886C18.9775 7.85886 19.0304 7.85886 19.0964 7.85886C18.8336 6.67154 18.5061 5.2362 18.2917 4.4833C18.1596 4.03421 18.0744 3.42661 18.0142 2.79846Z" fill="white"/>
<path fill-rule="evenodd" clip-rule="evenodd" d="M18.0142 2.79846C15.86 3.90212 13.9863 4.81939 13.6148 4.87369C12.6633 5.01165 10.3578 6.63779 10.3578 6.63779L7.23596 5.01165L6.96284 3.78765L6.89969 3.76416C6.77047 4.93387 6.60601 6.28702 6.49735 6.71557C6.29323 7.53011 6.29323 11.594 5.68384 12.4071C5.31526 12.8972 4.87033 15.3232 4.58252 17.3882C5.70586 17.9973 7.01423 18.6416 7.64272 18.712C8.86592 18.8426 10.3578 17.488 10.3578 16.6749C10.3578 15.8619 11.443 15.7254 12.5296 15.7254C13.6163 15.7254 13.7514 14.5043 14.5649 14.0978C15.3799 13.6898 12.8013 11.3856 11.9863 11.1155C11.1713 10.8455 12.6633 9.0814 15.3799 8.94491C18.095 8.80842 17.4151 7.85886 18.907 7.85886C18.9775 7.85886 19.0304 7.85886 19.0964 7.85886C18.8336 6.67154 18.5061 5.2362 18.2917 4.4833C18.1596 4.03421 18.0744 3.42661 18.0142 2.79846Z" stroke="#868686" stroke-width="0.25"/>
</g>
<defs>
<filter id="filter0_d_6252_1084" x="0.446777" y="0.603271" width="22.8052" height="24.2426" filterUnits="userSpaceOnUse" color-interpolation-filters="sRGB">
<feFlood flood-opacity="0" result="BackgroundImageFix"/>
<feColorMatrix in="SourceAlpha" type="matrix" values="0 0 0 0 0 0 0 0 0 0 0 0 0 0 0 0 0 0 127 0" result="hardAlpha"/>
<feOffset dy="2"/>
<feGaussianBlur stdDeviation="2"/>
<feColorMatrix type="matrix" values="0 0 0 0 0 0 0 0 0 0 0 0 0 0 0 0 0 0 0.01 0"/>
<feBlend mode="normal" in2="BackgroundImageFix" result="effect1_dropShadow_6252_1084"/>
<feBlend mode="normal" in="SourceGraphic" in2="effect1_dropShadow_6252_1084" result="shape"/>
</filter>
</defs>
</svg>
