<svg width="33" height="31" viewBox="0 0 33 31" fill="none" xmlns="http://www.w3.org/2000/svg">
<g filter="url(#filter0_d_6252_1091)">
<path fill-rule="evenodd" clip-rule="evenodd" d="M27.3395 3.99905C26.0106 4.44375 25.5671 2.89099 24.4584 2.89099C23.3512 2.89099 23.5715 5.55181 22.4687 5.55181C21.3601 5.55181 21.5803 7.09723 20.0311 7.31737C18.4819 7.53898 18.037 7.53898 18.7022 8.64705C19.3674 9.75364 17.8182 9.31188 16.4893 9.31188C15.1589 9.31188 15.1589 8.42543 14.2734 8.42543C13.388 8.42543 12.7242 9.97525 12.0605 10.8573C11.3953 11.7452 6.96801 13.7353 5.63909 14.3987C5.26024 14.5895 4.93865 15.1736 4.66699 15.9104C6.25436 16.041 7.89019 16.948 8.6009 17.8447C9.56713 19.0658 7.48049 20.4365 6.5686 21.5519C5.65231 22.6703 7.1266 22.7216 7.17653 23.636C7.22939 24.5474 8.45112 25.3105 8.90927 24.5004C9.36302 23.6888 10.1251 23.9897 11.551 23.9897C11.9651 23.9897 12.1985 24.1878 12.363 24.4549C13.153 23.8165 14.0752 23.2427 14.3865 22.9345C14.9298 22.39 16.2852 22.2549 17.5069 22.2549C18.2617 22.2549 18.7653 22.0172 19.3219 21.5696C18.0282 20.1606 16.7624 19.0071 16.2764 18.7091C15.1075 17.9988 15.8182 16.0146 17.2396 15.6623C18.667 15.3057 22.1692 12.6126 23.2382 12.005C24.3057 11.3945 23.5935 9.41462 24.4584 7.83985C24.9063 7.01651 26.595 5.44761 28.2822 4.13554C27.9224 3.98291 27.5906 3.91246 27.3395 3.99905Z" fill="white"/>
<path fill-rule="evenodd" clip-rule="evenodd" d="M27.3395 3.99905C26.0106 4.44375 25.5671 2.89099 24.4584 2.89099C23.3512 2.89099 23.5715 5.55181 22.4687 5.55181C21.3601 5.55181 21.5803 7.09723 20.0311 7.31737C18.4819 7.53898 18.037 7.53898 18.7022 8.64705C19.3674 9.75364 17.8182 9.31188 16.4893 9.31188C15.1589 9.31188 15.1589 8.42543 14.2734 8.42543C13.388 8.42543 12.7242 9.97525 12.0605 10.8573C11.3953 11.7452 6.96801 13.7353 5.63909 14.3987C5.26024 14.5895 4.93865 15.1736 4.66699 15.9104C6.25436 16.041 7.89019 16.948 8.6009 17.8447C9.56713 19.0658 7.48049 20.4365 6.5686 21.5519C5.65231 22.6703 7.1266 22.7216 7.17653 23.636C7.22939 24.5474 8.45112 25.3105 8.90927 24.5004C9.36302 23.6888 10.1251 23.9897 11.551 23.9897C11.9651 23.9897 12.1985 24.1878 12.363 24.4549C13.153 23.8165 14.0752 23.2427 14.3865 22.9345C14.9298 22.39 16.2852 22.2549 17.5069 22.2549C18.2617 22.2549 18.7653 22.0172 19.3219 21.5696C18.0282 20.1606 16.7624 19.0071 16.2764 18.7091C15.1075 17.9988 15.8182 16.0146 17.2396 15.6623C18.667 15.3057 22.1692 12.6126 23.2382 12.005C24.3057 11.3945 23.5935 9.41462 24.4584 7.83985C24.9063 7.01651 26.595 5.44761 28.2822 4.13554C27.9224 3.98291 27.5906 3.91246 27.3395 3.99905Z" stroke="#868686" stroke-width="0.25"/>
</g>
<defs>
<filter id="filter0_d_6252_1091" x="0.492676" y="0.765991" width="32.0342" height="30.2023" filterUnits="userSpaceOnUse" color-interpolation-filters="sRGB">
<feFlood flood-opacity="0" result="BackgroundImageFix"/>
<feColorMatrix in="SourceAlpha" type="matrix" values="0 0 0 0 0 0 0 0 0 0 0 0 0 0 0 0 0 0 127 0" result="hardAlpha"/>
<feOffset dy="2"/>
<feGaussianBlur stdDeviation="2"/>
<feColorMatrix type="matrix" values="0 0 0 0 0 0 0 0 0 0 0 0 0 0 0 0 0 0 0.01 0"/>
<feBlend mode="normal" in2="BackgroundImageFix" result="effect1_dropShadow_6252_1091"/>
<feBlend mode="normal" in="SourceGraphic" in2="effect1_dropShadow_6252_1091" result="shape"/>
</filter>
</defs>
</svg>
