<svg width="29" height="22" viewBox="0 0 29 22" fill="none" xmlns="http://www.w3.org/2000/svg">
<g filter="url(#filter0_d_6252_1118)">
<path fill-rule="evenodd" clip-rule="evenodd" d="M7.61729 8.9652C7.99761 9.49941 9.21787 9.95732 9.67602 9.72983C10.1327 9.50088 11.5806 10.2611 11.5806 10.8702C11.5806 11.4807 11.2002 13.3109 11.5806 13.3109C11.9242 13.3109 14.1209 13.9918 14.2722 14.9091C15.256 14.9341 16.3735 14.9825 16.7905 15.0882C17.607 15.2892 18.1107 14.7844 18.5174 14.2736C18.9242 13.7658 20.3471 13.5648 20.7523 13.5648C21.1606 13.5648 21.1606 12.445 21.2619 11.9357C21.3632 11.4323 22.3808 10.5165 22.9917 10.314C23.6011 10.1129 23.4983 9.40108 24.1092 9.40108C24.7186 9.40108 24.6172 8.58508 24.5159 8.07875C24.4557 7.76908 24.5262 7.38309 24.7626 6.99563C24.1092 6.61552 23.5174 6.2853 23.0225 5.87143C22.0886 5.09358 20.5336 4.00607 19.7597 4.1587C18.9814 4.31867 18.9814 2.91855 17.7406 3.38672C16.4969 3.8505 14.3192 3.38672 13.3867 3.38672C12.4572 3.38672 9.50274 2.60888 8.41611 3.38672C7.7935 3.82848 6.7098 4.01634 5.69365 4.09559C6.38675 5.51479 6.13271 6.94867 5.35297 7.82631C4.80085 8.45006 5.1239 8.53224 5.52772 8.77881C6.36619 8.69809 7.31038 8.53812 7.61729 8.9652Z" fill="white"/>
<path fill-rule="evenodd" clip-rule="evenodd" d="M7.61729 8.9652C7.99761 9.49941 9.21787 9.95732 9.67602 9.72983C10.1327 9.50088 11.5806 10.2611 11.5806 10.8702C11.5806 11.4807 11.2002 13.3109 11.5806 13.3109C11.9242 13.3109 14.1209 13.9918 14.2722 14.9091C15.256 14.9341 16.3735 14.9825 16.7905 15.0882C17.607 15.2892 18.1107 14.7844 18.5174 14.2736C18.9242 13.7658 20.3471 13.5648 20.7523 13.5648C21.1606 13.5648 21.1606 12.445 21.2619 11.9357C21.3632 11.4323 22.3808 10.5165 22.9917 10.314C23.6011 10.1129 23.4983 9.40108 24.1092 9.40108C24.7186 9.40108 24.6172 8.58508 24.5159 8.07875C24.4557 7.76908 24.5262 7.38309 24.7626 6.99563C24.1092 6.61552 23.5174 6.2853 23.0225 5.87143C22.0886 5.09358 20.5336 4.00607 19.7597 4.1587C18.9814 4.31867 18.9814 2.91855 17.7406 3.38672C16.4969 3.8505 14.3192 3.38672 13.3867 3.38672C12.4572 3.38672 9.50274 2.60888 8.41611 3.38672C7.7935 3.82848 6.7098 4.01634 5.69365 4.09559C6.38675 5.51479 6.13271 6.94867 5.35297 7.82631C4.80085 8.45006 5.1239 8.53224 5.52772 8.77881C6.36619 8.69809 7.31038 8.53812 7.61729 8.9652Z" stroke="#868686" stroke-width="0.25"/>
</g>
<defs>
<filter id="filter0_d_6252_1118" x="0.934082" y="0.916016" width="28.002" height="20.3424" filterUnits="userSpaceOnUse" color-interpolation-filters="sRGB">
<feFlood flood-opacity="0" result="BackgroundImageFix"/>
<feColorMatrix in="SourceAlpha" type="matrix" values="0 0 0 0 0 0 0 0 0 0 0 0 0 0 0 0 0 0 127 0" result="hardAlpha"/>
<feOffset dy="2"/>
<feGaussianBlur stdDeviation="2"/>
<feColorMatrix type="matrix" values="0 0 0 0 0 0 0 0 0 0 0 0 0 0 0 0 0 0 0.01 0"/>
<feBlend mode="normal" in2="BackgroundImageFix" result="effect1_dropShadow_6252_1118"/>
<feBlend mode="normal" in="SourceGraphic" in2="effect1_dropShadow_6252_1118" result="shape"/>
</filter>
</defs>
</svg>
