<svg width="20" height="22" viewBox="0 0 20 22" fill="none" xmlns="http://www.w3.org/2000/svg">
<g filter="url(#filter0_d_6252_1112)">
<path fill-rule="evenodd" clip-rule="evenodd" d="M11.9514 5.53081C11.5432 4.21141 10.2245 3.70067 9.51085 3.70067C8.80013 3.70067 7.57987 2.07894 6.76636 2.17727C6.32437 2.23304 5.22599 2.49868 4.26123 2.81422C5.14522 4.47999 6.08942 6.17657 6.52701 6.68877C7.45652 7.77335 9.47708 10.7248 8.70322 11.5011C8.09382 12.1102 8.34492 14.6008 9.29646 15.3713C9.73846 14.796 11.2363 12.9086 11.2363 12.3377C11.2363 11.7301 11.3405 10.509 12.5564 10.8143C13.7781 11.1196 14.8956 11.6274 14.8956 11.2208C14.8956 10.8143 14.5901 9.49342 14.0835 8.98415C13.5784 8.47929 12.3596 6.85168 11.9514 5.53081Z" fill="white"/>
<path fill-rule="evenodd" clip-rule="evenodd" d="M11.9514 5.53081C11.5432 4.21141 10.2245 3.70067 9.51085 3.70067C8.80013 3.70067 7.57987 2.07894 6.76636 2.17727C6.32437 2.23304 5.22599 2.49868 4.26123 2.81422C5.14522 4.47999 6.08942 6.17657 6.52701 6.68877C7.45652 7.77335 9.47708 10.7248 8.70322 11.5011C8.09382 12.1102 8.34492 14.6008 9.29646 15.3713C9.73846 14.796 11.2363 12.9086 11.2363 12.3377C11.2363 11.7301 11.3405 10.509 12.5564 10.8143C13.7781 11.1196 14.8956 11.6274 14.8956 11.2208C14.8956 10.8143 14.5901 9.49342 14.0835 8.98415C13.5784 8.47929 12.3596 6.85168 11.9514 5.53081Z" stroke="#868686" stroke-width="0.25"/>
</g>
<defs>
<filter id="filter0_d_6252_1112" x="0.0810547" y="0.0479736" width="18.9395" height="21.5011" filterUnits="userSpaceOnUse" color-interpolation-filters="sRGB">
<feFlood flood-opacity="0" result="BackgroundImageFix"/>
<feColorMatrix in="SourceAlpha" type="matrix" values="0 0 0 0 0 0 0 0 0 0 0 0 0 0 0 0 0 0 127 0" result="hardAlpha"/>
<feOffset dy="2"/>
<feGaussianBlur stdDeviation="2"/>
<feColorMatrix type="matrix" values="0 0 0 0 0 0 0 0 0 0 0 0 0 0 0 0 0 0 0.01 0"/>
<feBlend mode="normal" in2="BackgroundImageFix" result="effect1_dropShadow_6252_1112"/>
<feBlend mode="normal" in="SourceGraphic" in2="effect1_dropShadow_6252_1112" result="shape"/>
</filter>
</defs>
</svg>
