<svg width="18" height="16" viewBox="0 0 18 16" fill="none" xmlns="http://www.w3.org/2000/svg">
<g filter="url(#filter0_d_6252_1114)">
<path fill-rule="evenodd" clip-rule="evenodd" d="M6.63363 9.02018C6.66593 8.99523 6.71146 8.97909 6.76432 8.96294C6.7746 8.96148 6.78047 8.95707 6.79516 8.95414C6.84802 8.94093 6.91557 8.93212 6.98605 8.92625C6.99633 8.92185 7.00661 8.92185 7.01542 8.92185C7.31057 8.89543 7.70852 8.91304 8.11674 8.89984C8.1417 8.89837 8.17107 8.89837 8.20044 8.89837C8.29295 8.89397 8.37959 8.88663 8.47357 8.88076C8.50734 8.87489 8.54552 8.87489 8.58076 8.87048C8.69824 8.85434 8.81571 8.83673 8.92437 8.80738C9.83773 8.58136 10.0683 7.59071 10.5235 7.81672C10.9831 8.04421 13.4222 6.80259 13.7261 6.34616C13.7658 6.29185 13.7849 6.24195 13.7907 6.19059C13.8407 5.83982 13.1843 5.62995 13.1167 5.22782C13.0404 4.77285 11.4413 3.24652 11.2107 3.01903C11.1637 2.9706 11.1446 2.88548 11.1358 2.78421C11.1358 2.77394 11.1299 2.76366 11.1299 2.75486C11.1241 2.64625 11.1299 2.52004 11.1446 2.38208C8.75991 2.72697 5.22394 3.46373 5.22394 3.46373C5.22394 3.46373 5.1373 3.39915 5.01983 3.3199C4.65566 4.47933 4.41631 6.07024 4.64832 6.88478C4.87299 7.6861 5.59986 8.2438 6.63363 9.02018Z" fill="white"/>
<path fill-rule="evenodd" clip-rule="evenodd" d="M6.63363 9.02018C6.66593 8.99523 6.71146 8.97909 6.76432 8.96294C6.7746 8.96148 6.78047 8.95707 6.79516 8.95414C6.84802 8.94093 6.91557 8.93212 6.98605 8.92625C6.99633 8.92185 7.00661 8.92185 7.01542 8.92185C7.31057 8.89543 7.70852 8.91304 8.11674 8.89984C8.1417 8.89837 8.17107 8.89837 8.20044 8.89837C8.29295 8.89397 8.37959 8.88663 8.47357 8.88076C8.50734 8.87489 8.54552 8.87489 8.58076 8.87048C8.69824 8.85434 8.81571 8.83673 8.92437 8.80738C9.83773 8.58136 10.0683 7.59071 10.5235 7.81672C10.9831 8.04421 13.4222 6.80259 13.7261 6.34616C13.7658 6.29185 13.7849 6.24195 13.7907 6.19059C13.8407 5.83982 13.1843 5.62995 13.1167 5.22782C13.0404 4.77285 11.4413 3.24652 11.2107 3.01903C11.1637 2.9706 11.1446 2.88548 11.1358 2.78421C11.1358 2.77394 11.1299 2.76366 11.1299 2.75486C11.1241 2.64625 11.1299 2.52004 11.1446 2.38208C8.75991 2.72697 5.22394 3.46373 5.22394 3.46373C5.22394 3.46373 5.1373 3.39915 5.01983 3.3199C4.65566 4.47933 4.41631 6.07024 4.64832 6.88478C4.87299 7.6861 5.59986 8.2438 6.63363 9.02018Z" stroke="#868686" stroke-width="0.25"/>
</g>
<defs>
<filter id="filter0_d_6252_1114" x="0.431641" y="0.235352" width="17.4868" height="14.8848" filterUnits="userSpaceOnUse" color-interpolation-filters="sRGB">
<feFlood flood-opacity="0" result="BackgroundImageFix"/>
<feColorMatrix in="SourceAlpha" type="matrix" values="0 0 0 0 0 0 0 0 0 0 0 0 0 0 0 0 0 0 127 0" result="hardAlpha"/>
<feOffset dy="2"/>
<feGaussianBlur stdDeviation="2"/>
<feColorMatrix type="matrix" values="0 0 0 0 0 0 0 0 0 0 0 0 0 0 0 0 0 0 0.01 0"/>
<feBlend mode="normal" in2="BackgroundImageFix" result="effect1_dropShadow_6252_1114"/>
<feBlend mode="normal" in="SourceGraphic" in2="effect1_dropShadow_6252_1114" result="shape"/>
</filter>
</defs>
</svg>
