<svg width="51" height="54" viewBox="0 0 51 54" fill="none" xmlns="http://www.w3.org/2000/svg">
<g filter="url(#filter0_d_6252_1063)">
<path fill-rule="evenodd" clip-rule="evenodd" d="M7.66483 41.6161C8.87188 41.8612 10.8073 41.6161 10.8073 41.6161C10.8073 41.6161 12.496 40.8925 13.4651 41.3754C14.4299 41.8612 15.3946 43.0646 15.3946 43.0646H16.6031C16.6031 43.0646 17.5708 45.7255 19.0202 46.2054C19.8542 46.4857 20.3623 47.2371 20.6472 47.8271C21.681 47.8036 22.4827 47.4631 22.4827 46.719C22.4827 45.7944 22.9467 44.5631 24.4856 45.9515C26.029 47.3354 26.029 46.1012 26.3359 45.6403C26.6457 45.1795 27.725 45.7944 28.6486 45.7944C29.5737 45.7944 30.8072 45.178 30.8072 45.178C30.8072 45.178 43.6045 45.3321 44.2213 45.0239C44.8365 44.7157 44.6838 42.0975 44.6838 42.0975L43.606 41.0217L40.3681 10.6637H46.1581C39.9775 6.58076 34.6765 3.11274 34.004 2.72822C33.6369 2.51835 33.4474 2.31288 33.33 2.11182C33.3902 4.50699 33.4254 6.94326 33.2521 7.06067C32.9159 7.28375 21.7103 7.06067 21.7103 7.06067C21.7103 7.06067 21.7103 15.4585 21.7103 16.2422C21.7103 17.0259 18.1215 18.0327 18.1215 18.8179C18.1215 19.6016 18.1215 24.1953 18.1215 24.1953H4.56646C4.37116 26.4085 5.72064 27.1907 6.49303 28.0742C7.56057 29.2909 5.68099 31.4234 7.25661 33.6102C8.82929 35.7911 6.89978 39.1461 6.13767 40.3671C5.72357 41.032 5.68099 42.1782 5.55471 43.3538C5.61785 43.3391 5.69127 43.32 5.72945 43.3097C6.69714 43.0661 6.45632 41.3754 7.66483 41.6161Z" fill="white"/>
<path fill-rule="evenodd" clip-rule="evenodd" d="M7.66483 41.6161C8.87188 41.8612 10.8073 41.6161 10.8073 41.6161C10.8073 41.6161 12.496 40.8925 13.4651 41.3754C14.4299 41.8612 15.3946 43.0646 15.3946 43.0646H16.6031C16.6031 43.0646 17.5708 45.7255 19.0202 46.2054C19.8542 46.4857 20.3623 47.2371 20.6472 47.8271C21.681 47.8036 22.4827 47.4631 22.4827 46.719C22.4827 45.7944 22.9467 44.5631 24.4856 45.9515C26.029 47.3354 26.029 46.1012 26.3359 45.6403C26.6457 45.1795 27.725 45.7944 28.6486 45.7944C29.5737 45.7944 30.8072 45.178 30.8072 45.178C30.8072 45.178 43.6045 45.3321 44.2213 45.0239C44.8365 44.7157 44.6838 42.0975 44.6838 42.0975L43.606 41.0217L40.3681 10.6637H46.1581C39.9775 6.58076 34.6765 3.11274 34.004 2.72822C33.6369 2.51835 33.4474 2.31288 33.33 2.11182C33.3902 4.50699 33.4254 6.94326 33.2521 7.06067C32.9159 7.28375 21.7103 7.06067 21.7103 7.06067C21.7103 7.06067 21.7103 15.4585 21.7103 16.2422C21.7103 17.0259 18.1215 18.0327 18.1215 18.8179C18.1215 19.6016 18.1215 24.1953 18.1215 24.1953H4.56646C4.37116 26.4085 5.72064 27.1907 6.49303 28.0742C7.56057 29.2909 5.68099 31.4234 7.25661 33.6102C8.82929 35.7911 6.89978 39.1461 6.13767 40.3671C5.72357 41.032 5.68099 42.1782 5.55471 43.3538C5.61785 43.3391 5.69127 43.32 5.72945 43.3097C6.69714 43.0661 6.45632 41.3754 7.66483 41.6161Z" stroke="#868686" stroke-width="0.25"/>
</g>
<defs>
<filter id="filter0_d_6252_1063" x="0.422363" y="0.0487061" width="50.1519" height="53.9052" filterUnits="userSpaceOnUse" color-interpolation-filters="sRGB">
<feFlood flood-opacity="0" result="BackgroundImageFix"/>
<feColorMatrix in="SourceAlpha" type="matrix" values="0 0 0 0 0 0 0 0 0 0 0 0 0 0 0 0 0 0 127 0" result="hardAlpha"/>
<feOffset dy="2"/>
<feGaussianBlur stdDeviation="2"/>
<feColorMatrix type="matrix" values="0 0 0 0 0 0 0 0 0 0 0 0 0 0 0 0 0 0 0.01 0"/>
<feBlend mode="normal" in2="BackgroundImageFix" result="effect1_dropShadow_6252_1063"/>
<feBlend mode="normal" in="SourceGraphic" in2="effect1_dropShadow_6252_1063" result="shape"/>
</filter>
</defs>
</svg>
