<svg width="63" height="50" viewBox="0 0 63 50" fill="none" xmlns="http://www.w3.org/2000/svg">
<g filter="url(#filter0_d_6252_1066)">
<path fill-rule="evenodd" clip-rule="evenodd" d="M55.9965 8.3343C55.9965 7.83824 55.8805 5.58983 55.7939 3.9182L53.067 5.39463C53.067 5.39463 52.3416 4.18824 50.8908 3.22107C49.4444 2.25684 45.8188 2.25684 45.8188 2.25684L31.0744 11.4383L24.7925 16.5075C24.7925 16.5075 20.6838 17.9561 19.4753 18.1997C19.3358 18.2276 19.1787 18.257 19.0172 18.2922C19.0568 20.8077 19.1229 27.1875 18.7969 27.4341C18.3901 27.7379 18.0847 29.5665 17.675 29.9701C17.2697 30.3781 16.7617 31.4965 15.5414 31.4965C14.3211 31.4965 11.3755 32.2068 10.1567 32.0043C8.93641 31.8047 7.92026 32.7146 7.41219 32.9186C7.15375 33.0214 6.15962 33.0991 5.17725 33.0815C5.06858 33.8594 4.98341 34.7943 5.20221 34.9249C5.58547 35.1538 5.73525 36.4497 6.34611 36.9076C6.95845 37.3641 7.94523 38.0465 7.94523 38.7334C7.94523 39.4202 8.02159 40.0308 8.55609 40.0308C9.0906 40.0308 9.3182 41.02 9.92907 41.2504C10.5385 41.4764 11.5267 40.7925 11.6824 41.02C11.8336 41.2504 11.606 42.9264 11.91 42.9264C12.0921 42.9264 12.7866 43.0732 13.3035 43.5487C13.1214 42.74 13.5238 41.6598 14.5282 41.9607C15.5443 42.2645 14.7294 43.1832 15.6442 43.5898C16.559 43.9934 17.07 43.6881 17.07 42.9778C17.07 42.2645 18.2903 40.8453 18.5957 40.54C18.8982 40.2362 18.7984 38.3078 19.4078 37.7956C20.0186 37.2878 21.8453 37.6972 22.5575 37.7956C23.2682 37.8983 23.7778 36.3734 24.5928 37.0852C25.4019 37.7956 26.7264 37.188 27.3373 37.8998C27.9452 38.6101 28.2506 40.3375 29.2682 39.727C30.2829 39.1135 31.5017 38.9154 32.114 38.9154C32.7234 38.9154 34.1449 40.132 34.7572 40.3375C35.3651 40.5415 37.3989 40.744 38.1096 40.3375C38.8203 39.9295 39.7352 38.6101 40.6485 38.7114C41.5648 38.8112 44.4106 38.5074 45.02 38.8112C45.6309 39.1135 46.9525 39.8297 47.8658 39.5215C48.7821 39.2177 49.5942 37.4918 50.3064 37.2892C50.5296 37.2247 50.6735 37.2393 50.7953 37.2804C50.8071 36.8827 50.8144 36.5055 50.8144 36.1709C50.8144 34.3422 51.2212 35.0526 51.5252 33.2283C51.8306 31.3982 56.6074 26.6225 57.0156 26.3143C57.4209 26.0119 57.4179 18.8 57.4179 17.7844C57.4179 16.7688 57.6235 15.5521 58.0259 14.1256C58.4326 12.7034 57.3181 12.8091 57.4179 11.4868C57.5193 10.1659 55.9965 9.1459 55.9965 8.3343Z" fill="white"/>
<path fill-rule="evenodd" clip-rule="evenodd" d="M55.9965 8.3343C55.9965 7.83824 55.8805 5.58983 55.7939 3.9182L53.067 5.39463C53.067 5.39463 52.3416 4.18824 50.8908 3.22107C49.4444 2.25684 45.8188 2.25684 45.8188 2.25684L31.0744 11.4383L24.7925 16.5075C24.7925 16.5075 20.6838 17.9561 19.4753 18.1997C19.3358 18.2276 19.1787 18.257 19.0172 18.2922C19.0568 20.8077 19.1229 27.1875 18.7969 27.4341C18.3901 27.7379 18.0847 29.5665 17.675 29.9701C17.2697 30.3781 16.7617 31.4965 15.5414 31.4965C14.3211 31.4965 11.3755 32.2068 10.1567 32.0043C8.93641 31.8047 7.92026 32.7146 7.41219 32.9186C7.15375 33.0214 6.15962 33.0991 5.17725 33.0815C5.06858 33.8594 4.98341 34.7943 5.20221 34.9249C5.58547 35.1538 5.73525 36.4497 6.34611 36.9076C6.95845 37.3641 7.94523 38.0465 7.94523 38.7334C7.94523 39.4202 8.02159 40.0308 8.55609 40.0308C9.0906 40.0308 9.3182 41.02 9.92907 41.2504C10.5385 41.4764 11.5267 40.7925 11.6824 41.02C11.8336 41.2504 11.606 42.9264 11.91 42.9264C12.0921 42.9264 12.7866 43.0732 13.3035 43.5487C13.1214 42.74 13.5238 41.6598 14.5282 41.9607C15.5443 42.2645 14.7294 43.1832 15.6442 43.5898C16.559 43.9934 17.07 43.6881 17.07 42.9778C17.07 42.2645 18.2903 40.8453 18.5957 40.54C18.8982 40.2362 18.7984 38.3078 19.4078 37.7956C20.0186 37.2878 21.8453 37.6972 22.5575 37.7956C23.2682 37.8983 23.7778 36.3734 24.5928 37.0852C25.4019 37.7956 26.7264 37.188 27.3373 37.8998C27.9452 38.6101 28.2506 40.3375 29.2682 39.727C30.2829 39.1135 31.5017 38.9154 32.114 38.9154C32.7234 38.9154 34.1449 40.132 34.7572 40.3375C35.3651 40.5415 37.3989 40.744 38.1096 40.3375C38.8203 39.9295 39.7352 38.6101 40.6485 38.7114C41.5648 38.8112 44.4106 38.5074 45.02 38.8112C45.6309 39.1135 46.9525 39.8297 47.8658 39.5215C48.7821 39.2177 49.5942 37.4918 50.3064 37.2892C50.5296 37.2247 50.6735 37.2393 50.7953 37.2804C50.8071 36.8827 50.8144 36.5055 50.8144 36.1709C50.8144 34.3422 51.2212 35.0526 51.5252 33.2283C51.8306 31.3982 56.6074 26.6225 57.0156 26.3143C57.4209 26.0119 57.4179 18.8 57.4179 17.7844C57.4179 16.7688 57.6235 15.5521 58.0259 14.1256C58.4326 12.7034 57.3181 12.8091 57.4179 11.4868C57.5193 10.1659 55.9965 9.1459 55.9965 8.3343Z" stroke="#868686" stroke-width="0.25"/>
</g>
<defs>
<filter id="filter0_d_6252_1066" x="0.940918" y="0.131836" width="61.2998" height="49.7798" filterUnits="userSpaceOnUse" color-interpolation-filters="sRGB">
<feFlood flood-opacity="0" result="BackgroundImageFix"/>
<feColorMatrix in="SourceAlpha" type="matrix" values="0 0 0 0 0 0 0 0 0 0 0 0 0 0 0 0 0 0 127 0" result="hardAlpha"/>
<feOffset dy="2"/>
<feGaussianBlur stdDeviation="2"/>
<feColorMatrix type="matrix" values="0 0 0 0 0 0 0 0 0 0 0 0 0 0 0 0 0 0 0.01 0"/>
<feBlend mode="normal" in2="BackgroundImageFix" result="effect1_dropShadow_6252_1066"/>
<feBlend mode="normal" in="SourceGraphic" in2="effect1_dropShadow_6252_1066" result="shape"/>
</filter>
</defs>
</svg>
