<svg width="53" height="74" viewBox="0 0 53 74" fill="none" xmlns="http://www.w3.org/2000/svg">
<g filter="url(#filter0_d_6252_1154)">
<path fill-rule="evenodd" clip-rule="evenodd" d="M45.5619 63.7937C45.6045 63.7232 45.6442 63.6909 45.6794 63.6807C45.5884 63.0584 45.5957 62.4831 45.9702 62.2688C46.6794 61.8637 47.7998 60.2391 47.7998 59.5258C47.7998 58.8184 46.4782 58.8184 46.4782 57.9026C46.4782 56.9897 47.8997 55.4634 47.2903 54.9556C46.6809 54.4493 48.2066 52.9229 48.1052 52.1113C48.0025 51.2968 47.3945 47.6394 47.8013 47.2358C48.2066 46.8308 49.1229 46.527 48.7161 45.4086C48.3945 44.5237 46.9467 42.0727 46.3461 40.5757C45.2139 40.4158 43.8307 40.4407 43.023 40.7357C41.9056 41.1422 42.211 37.5847 42.211 36.2653C42.211 34.9444 41.0935 35.6548 40.6868 36.5706C40.2785 37.4834 38.6545 37.0769 37.0274 37.0769C35.399 37.0769 36.2139 35.0442 35.1978 35.1455C34.1816 35.2497 33.3681 34.8417 33.4709 33.8276C33.5708 32.8105 32.7573 31.9989 32.0465 30.8805C31.3358 29.7622 30.5209 28.6483 31.1317 27.9365C31.7426 27.2232 30.7279 26.6156 31.6413 25.7013C32.5561 24.7869 33.4724 25.0907 33.167 23.8726C32.863 22.6545 34.1816 21.9441 34.2844 20.6218C34.3857 19.3009 35.91 19.706 37.3329 18.5921C38.7558 17.4708 40.2785 18.0813 41.4988 17.0657C42.6456 16.1118 43.4312 16.9366 44.28 16.8735C43.769 16.1631 42.5194 15.808 42.2345 15.2459C41.8762 14.5238 43.5502 13.2103 44.0289 12.3708C44.5076 11.5386 42.1141 10.5788 41.5164 10.3381C40.9173 10.1018 39.8409 10.8151 39.2418 10.4584C38.6442 10.1018 37.6868 10.3381 37.2095 10.6991C36.7323 11.0558 33.1405 11.2965 33.2609 10.2192C33.3799 9.14344 31.8248 8.78681 31.9452 8.06473C32.0656 7.35146 31.1068 6.03206 29.791 5.91465C28.4753 5.79577 28.7147 3.64276 27.7587 3.0469C27.214 2.70494 25.8659 2.906 24.7984 3.13936C25.9467 4.43528 26.3564 4.97537 25.5958 5.5859C24.5855 6.39457 25.5958 6.53693 23.6897 9.0774C21.7823 11.6237 18.5238 12.2548 16.9335 12.7347C15.3461 13.2103 14.7088 16.1441 13.8351 18.2134C12.9614 20.2769 12.2463 19.5622 11.3726 18.3704C10.4989 17.1773 9.78228 18.6082 8.74851 17.6572C7.7162 16.7076 8.19344 16.7076 8.74851 15.9107C9.04953 15.4836 8.7162 14.7997 8.08331 14.1437C6.94969 14.377 5.80138 15.9474 5.2375 17.1435C4.62664 18.4409 6.30505 20.9535 6.53412 21.8664C6.7632 22.7822 5.61929 21.9441 5.46658 22.7822C5.31386 23.6172 7.98199 24.8368 9.20078 25.7497C10.4225 26.6655 11.4886 29.2588 12.631 30.4755C13.7749 31.6951 13.8528 32.7606 15.0715 35.7325C16.2918 38.703 18.7309 43.7326 20.4078 45.8651C22.0862 47.9975 22.8469 49.6751 22.4665 50.2856C22.0862 50.8961 22.5429 52.5722 23.7617 53.4102C24.982 54.2453 25.9717 55.619 29.1743 57.2202C32.3755 58.8199 38.2448 61.8652 39.0847 63.3152C39.9232 64.7594 42.6677 66.1316 43.2007 66.4384C43.3461 66.522 43.3916 66.7612 43.3945 67.0797C43.7103 66.8199 43.9746 66.6203 44.142 66.5396C45.1552 66.0304 45.2565 64.3044 45.5619 63.7937Z" fill="white"/>
<path fill-rule="evenodd" clip-rule="evenodd" d="M45.5619 63.7937C45.6045 63.7232 45.6442 63.6909 45.6794 63.6807C45.5884 63.0584 45.5957 62.4831 45.9702 62.2688C46.6794 61.8637 47.7998 60.2391 47.7998 59.5258C47.7998 58.8184 46.4782 58.8184 46.4782 57.9026C46.4782 56.9897 47.8997 55.4634 47.2903 54.9556C46.6809 54.4493 48.2066 52.9229 48.1052 52.1113C48.0025 51.2968 47.3945 47.6394 47.8013 47.2358C48.2066 46.8308 49.1229 46.527 48.7161 45.4086C48.3945 44.5237 46.9467 42.0727 46.3461 40.5757C45.2139 40.4158 43.8307 40.4407 43.023 40.7357C41.9056 41.1422 42.211 37.5847 42.211 36.2653C42.211 34.9444 41.0935 35.6548 40.6868 36.5706C40.2785 37.4834 38.6545 37.0769 37.0274 37.0769C35.399 37.0769 36.2139 35.0442 35.1978 35.1455C34.1816 35.2497 33.3681 34.8417 33.4709 33.8276C33.5708 32.8105 32.7573 31.9989 32.0465 30.8805C31.3358 29.7622 30.5209 28.6483 31.1317 27.9365C31.7426 27.2232 30.7279 26.6156 31.6413 25.7013C32.5561 24.7869 33.4724 25.0907 33.167 23.8726C32.863 22.6545 34.1816 21.9441 34.2844 20.6218C34.3857 19.3009 35.91 19.706 37.3329 18.5921C38.7558 17.4708 40.2785 18.0813 41.4988 17.0657C42.6456 16.1118 43.4312 16.9366 44.28 16.8735C43.769 16.1631 42.5194 15.808 42.2345 15.2459C41.8762 14.5238 43.5502 13.2103 44.0289 12.3708C44.5076 11.5386 42.1141 10.5788 41.5164 10.3381C40.9173 10.1018 39.8409 10.8151 39.2418 10.4584C38.6442 10.1018 37.6868 10.3381 37.2095 10.6991C36.7323 11.0558 33.1405 11.2965 33.2609 10.2192C33.3799 9.14344 31.8248 8.78681 31.9452 8.06473C32.0656 7.35146 31.1068 6.03206 29.791 5.91465C28.4753 5.79577 28.7147 3.64276 27.7587 3.0469C27.214 2.70494 25.8659 2.906 24.7984 3.13936C25.9467 4.43528 26.3564 4.97537 25.5958 5.5859C24.5855 6.39457 25.5958 6.53693 23.6897 9.0774C21.7823 11.6237 18.5238 12.2548 16.9335 12.7347C15.3461 13.2103 14.7088 16.1441 13.8351 18.2134C12.9614 20.2769 12.2463 19.5622 11.3726 18.3704C10.4989 17.1773 9.78228 18.6082 8.74851 17.6572C7.7162 16.7076 8.19344 16.7076 8.74851 15.9107C9.04953 15.4836 8.7162 14.7997 8.08331 14.1437C6.94969 14.377 5.80138 15.9474 5.2375 17.1435C4.62664 18.4409 6.30505 20.9535 6.53412 21.8664C6.7632 22.7822 5.61929 21.9441 5.46658 22.7822C5.31386 23.6172 7.98199 24.8368 9.20078 25.7497C10.4225 26.6655 11.4886 29.2588 12.631 30.4755C13.7749 31.6951 13.8528 32.7606 15.0715 35.7325C16.2918 38.703 18.7309 43.7326 20.4078 45.8651C22.0862 47.9975 22.8469 49.6751 22.4665 50.2856C22.0862 50.8961 22.5429 52.5722 23.7617 53.4102C24.982 54.2453 25.9717 55.619 29.1743 57.2202C32.3755 58.8199 38.2448 61.8652 39.0847 63.3152C39.9232 64.7594 42.6677 66.1316 43.2007 66.4384C43.3461 66.522 43.3916 66.7612 43.3945 67.0797C43.7103 66.8199 43.9746 66.6203 44.142 66.5396C45.1552 66.0304 45.2565 64.3044 45.5619 63.7937Z" stroke="#868686" stroke-width="0.25"/>
</g>
<defs>
<filter id="filter0_d_6252_1154" x="0.979492" y="0.739258" width="51.9634" height="72.6031" filterUnits="userSpaceOnUse" color-interpolation-filters="sRGB">
<feFlood flood-opacity="0" result="BackgroundImageFix"/>
<feColorMatrix in="SourceAlpha" type="matrix" values="0 0 0 0 0 0 0 0 0 0 0 0 0 0 0 0 0 0 127 0" result="hardAlpha"/>
<feOffset dy="2"/>
<feGaussianBlur stdDeviation="2"/>
<feColorMatrix type="matrix" values="0 0 0 0 0 0 0 0 0 0 0 0 0 0 0 0 0 0 0.01 0"/>
<feBlend mode="normal" in2="BackgroundImageFix" result="effect1_dropShadow_6252_1154"/>
<feBlend mode="normal" in="SourceGraphic" in2="effect1_dropShadow_6252_1154" result="shape"/>
</filter>
</defs>
</svg>
