<svg width="42" height="36" viewBox="0 0 42 36" fill="none" xmlns="http://www.w3.org/2000/svg">
<g filter="url(#filter0_d_6252_1099)">
<path fill-rule="evenodd" clip-rule="evenodd" d="M5.45173 8.12877C5.68081 8.73637 5.91135 10.8688 5.37684 11.7083C4.84527 12.5463 5.07288 12.7753 5.60445 13.0776C6.13896 13.3858 6.36803 14.1461 6.36803 14.7566C6.36803 15.3657 6.74982 15.2908 6.82765 16.5867C6.90254 17.8797 7.20797 18.7941 7.66612 19.3268C8.02148 19.7436 7.95687 20.3864 7.76891 20.8664C8.40914 21.3389 9.1272 21.7939 9.75569 22.0184C11.346 22.5879 11.9157 23.0414 12.0259 23.6094C12.1419 24.1759 13.5046 25.2003 13.8453 24.4033C14.1845 23.6123 15.0934 24.0643 15.7748 24.0643C16.4561 24.0643 16.5706 24.8583 16.6793 25.3118C16.7953 25.7668 18.3842 25.5408 18.9539 25.8798C19.5207 26.2203 19.7469 27.4692 20.5427 27.9242C21.3386 28.3762 22.017 27.3562 22.5883 27.6967C23.1536 28.0372 24.6323 28.3762 25.5398 28.0372C26.4458 27.6967 27.0156 28.3748 28.1492 28.2647C29.2813 28.1502 30.76 28.6008 31.1007 28.9442C31.2813 29.1218 32.2402 29.2994 33.1139 29.4315C33.3415 28.9662 32.901 27.5294 32.97 27.1757C33.0464 26.7971 35.7145 24.4342 36.1727 23.9014C36.6293 23.3687 37.3151 23.3687 37.6954 22.6833C38.0787 21.9964 36.6279 19.7862 36.3239 19.3297C36.0199 18.8748 35.8672 17.0461 36.0963 16.2829C36.3239 15.5212 34.9539 15.0633 34.9539 14.532C34.9539 13.9978 36.249 13.082 36.9362 12.7797C37.6235 12.4744 37.3944 10.3405 36.7835 9.80774C36.1741 9.27499 35.8702 8.28727 36.2505 7.21737C36.6308 6.15333 33.9641 5.31532 33.5838 5.31532C33.5207 5.31532 33.4825 5.24634 33.4575 5.15534C31.0758 5.59857 24.9818 4.96308 24.5192 4.77963C24.2182 4.65928 23.4473 4.3819 22.7821 4.14414C22.4796 4.64901 21.8482 5.10985 20.9025 5.10985C19.4297 5.10985 19.3284 3.63634 19.2784 2.97738C19.2314 2.31694 13.3328 3.53654 11.7557 5.10985C10.1815 6.68462 6.52221 6.07408 6.42383 6.93705C6.346 7.56373 5.79681 7.88954 5.43999 7.71489C5.41209 7.86313 5.40768 8.00695 5.45173 8.12877Z" fill="white"/>
<path fill-rule="evenodd" clip-rule="evenodd" d="M5.45173 8.12877C5.68081 8.73637 5.91135 10.8688 5.37684 11.7083C4.84527 12.5463 5.07288 12.7753 5.60445 13.0776C6.13896 13.3858 6.36803 14.1461 6.36803 14.7566C6.36803 15.3657 6.74982 15.2908 6.82765 16.5867C6.90254 17.8797 7.20797 18.7941 7.66612 19.3268C8.02148 19.7436 7.95687 20.3864 7.76891 20.8664C8.40914 21.3389 9.1272 21.7939 9.75569 22.0184C11.346 22.5879 11.9157 23.0414 12.0259 23.6094C12.1419 24.1759 13.5046 25.2003 13.8453 24.4033C14.1845 23.6123 15.0934 24.0643 15.7748 24.0643C16.4561 24.0643 16.5706 24.8583 16.6793 25.3118C16.7953 25.7668 18.3842 25.5408 18.9539 25.8798C19.5207 26.2203 19.7469 27.4692 20.5427 27.9242C21.3386 28.3762 22.017 27.3562 22.5883 27.6967C23.1536 28.0372 24.6323 28.3762 25.5398 28.0372C26.4458 27.6967 27.0156 28.3748 28.1492 28.2647C29.2813 28.1502 30.76 28.6008 31.1007 28.9442C31.2813 29.1218 32.2402 29.2994 33.1139 29.4315C33.3415 28.9662 32.901 27.5294 32.97 27.1757C33.0464 26.7971 35.7145 24.4342 36.1727 23.9014C36.6293 23.3687 37.3151 23.3687 37.6954 22.6833C38.0787 21.9964 36.6279 19.7862 36.3239 19.3297C36.0199 18.8748 35.8672 17.0461 36.0963 16.2829C36.3239 15.5212 34.9539 15.0633 34.9539 14.532C34.9539 13.9978 36.249 13.082 36.9362 12.7797C37.6235 12.4744 37.3944 10.3405 36.7835 9.80774C36.1741 9.27499 35.8702 8.28727 36.2505 7.21737C36.6308 6.15333 33.9641 5.31532 33.5838 5.31532C33.5207 5.31532 33.4825 5.24634 33.4575 5.15534C31.0758 5.59857 24.9818 4.96308 24.5192 4.77963C24.2182 4.65928 23.4473 4.3819 22.7821 4.14414C22.4796 4.64901 21.8482 5.10985 20.9025 5.10985C19.4297 5.10985 19.3284 3.63634 19.2784 2.97738C19.2314 2.31694 13.3328 3.53654 11.7557 5.10985C10.1815 6.68462 6.52221 6.07408 6.42383 6.93705C6.346 7.56373 5.79681 7.88954 5.43999 7.71489C5.41209 7.86313 5.40768 8.00695 5.45173 8.12877Z" stroke="#868686" stroke-width="0.25"/>
</g>
<defs>
<filter id="filter0_d_6252_1099" x="0.949219" y="0.669067" width="40.9351" height="34.8997" filterUnits="userSpaceOnUse" color-interpolation-filters="sRGB">
<feFlood flood-opacity="0" result="BackgroundImageFix"/>
<feColorMatrix in="SourceAlpha" type="matrix" values="0 0 0 0 0 0 0 0 0 0 0 0 0 0 0 0 0 0 127 0" result="hardAlpha"/>
<feOffset dy="2"/>
<feGaussianBlur stdDeviation="2"/>
<feColorMatrix type="matrix" values="0 0 0 0 0 0 0 0 0 0 0 0 0 0 0 0 0 0 0.01 0"/>
<feBlend mode="normal" in2="BackgroundImageFix" result="effect1_dropShadow_6252_1099"/>
<feBlend mode="normal" in="SourceGraphic" in2="effect1_dropShadow_6252_1099" result="shape"/>
</filter>
</defs>
</svg>
