<svg width="11" height="14" viewBox="0 0 11 14" fill="none" xmlns="http://www.w3.org/2000/svg">
<g filter="url(#filter0_d_6252_1082)">
<path fill-rule="evenodd" clip-rule="evenodd" d="M5.57501 3.07126C5.05519 3.27967 4.85107 5.24629 4.85107 5.5545C4.85107 5.77758 5.1756 6.7697 6.12126 7.73393C6.31803 6.23107 6.36502 4.25271 6.49865 3.71408C6.53242 3.57466 6.57501 3.3369 6.61612 3.04484C6.10511 3.01696 5.72332 3.01402 5.57501 3.07126Z" fill="white"/>
<path fill-rule="evenodd" clip-rule="evenodd" d="M5.57501 3.07126C5.05519 3.27967 4.85107 5.24629 4.85107 5.5545C4.85107 5.77758 5.1756 6.7697 6.12126 7.73393C6.31803 6.23107 6.36502 4.25271 6.49865 3.71408C6.53242 3.57466 6.57501 3.3369 6.61612 3.04484C6.10511 3.01696 5.72332 3.01402 5.57501 3.07126Z" stroke="#868686" stroke-width="0.25"/>
</g>
<defs>
<filter id="filter0_d_6252_1082" x="0.726074" y="0.900513" width="10.0327" height="13.1044" filterUnits="userSpaceOnUse" color-interpolation-filters="sRGB">
<feFlood flood-opacity="0" result="BackgroundImageFix"/>
<feColorMatrix in="SourceAlpha" type="matrix" values="0 0 0 0 0 0 0 0 0 0 0 0 0 0 0 0 0 0 127 0" result="hardAlpha"/>
<feOffset dy="2"/>
<feGaussianBlur stdDeviation="2"/>
<feColorMatrix type="matrix" values="0 0 0 0 0 0 0 0 0 0 0 0 0 0 0 0 0 0 0.01 0"/>
<feBlend mode="normal" in2="BackgroundImageFix" result="effect1_dropShadow_6252_1082"/>
<feBlend mode="normal" in="SourceGraphic" in2="effect1_dropShadow_6252_1082" result="shape"/>
</filter>
</defs>
</svg>
