<svg width="23" height="26" viewBox="0 0 23 26" fill="none" xmlns="http://www.w3.org/2000/svg">
<g filter="url(#filter0_d_6252_1382)">
<path fill-rule="evenodd" clip-rule="evenodd" d="M17.2848 13.7649C16.5198 13.0751 16.5991 11.8614 17.2848 11.4035C17.9706 10.9441 17.3612 10.335 17.3612 9.57479C17.3612 8.81162 14.0851 8.58414 13.5477 8.43297C13.0161 8.28034 13.931 6.29904 13.0925 6.29904C12.2526 6.29904 11.9486 5.69144 11.9486 5.0809C11.9486 4.47037 10.652 3.47971 10.7283 3.09813C10.7401 3.04676 10.7768 2.99393 10.8223 2.94403C10.3524 2.87358 9.99118 2.81488 9.85608 2.78699C9.29074 2.67545 8.38179 2.33496 8.38179 2.33496C8.38179 2.33496 6.26725 3.01741 4.79883 3.46504C4.89868 4.35883 5.13363 5.33187 5.69604 5.54321C6.78708 5.95121 6.38032 7.04166 6.78708 8.00149C7.19677 8.95692 7.06167 13.3246 6.51395 13.3246C6.28341 13.3246 5.7533 13.8926 5.23348 14.6C5.98238 15.3485 7.1439 16.7134 7.93098 17.6835C7.96769 17.6732 8.0044 17.6526 8.03671 17.6526C8.71806 17.6526 11.2188 19.471 11.2188 19.471C11.2188 19.471 14.7548 18.7343 17.1395 18.3894C17.1732 18.0254 17.2496 17.6057 17.2056 17.3488C17.1307 16.8909 17.6652 15.9781 18.3495 15.9781C19.0367 15.9737 18.0455 14.4503 17.2848 13.7649Z" fill="white"/>
<path fill-rule="evenodd" clip-rule="evenodd" d="M17.2848 13.7649C16.5198 13.0751 16.5991 11.8614 17.2848 11.4035C17.9706 10.9441 17.3612 10.335 17.3612 9.57479C17.3612 8.81162 14.0851 8.58414 13.5477 8.43297C13.0161 8.28034 13.931 6.29904 13.0925 6.29904C12.2526 6.29904 11.9486 5.69144 11.9486 5.0809C11.9486 4.47037 10.652 3.47971 10.7283 3.09813C10.7401 3.04676 10.7768 2.99393 10.8223 2.94403C10.3524 2.87358 9.99118 2.81488 9.85608 2.78699C9.29074 2.67545 8.38179 2.33496 8.38179 2.33496C8.38179 2.33496 6.26725 3.01741 4.79883 3.46504C4.89868 4.35883 5.13363 5.33187 5.69604 5.54321C6.78708 5.95121 6.38032 7.04166 6.78708 8.00149C7.19677 8.95692 7.06167 13.3246 6.51395 13.3246C6.28341 13.3246 5.7533 13.8926 5.23348 14.6C5.98238 15.3485 7.1439 16.7134 7.93098 17.6835C7.96769 17.6732 8.0044 17.6526 8.03671 17.6526C8.71806 17.6526 11.2188 19.471 11.2188 19.471C11.2188 19.471 14.7548 18.7343 17.1395 18.3894C17.1732 18.0254 17.2496 17.6057 17.2056 17.3488C17.1307 16.8909 17.6652 15.9781 18.3495 15.9781C19.0367 15.9737 18.0455 14.4503 17.2848 13.7649Z" stroke="#868686" stroke-width="0.25"/>
</g>
<defs>
<filter id="filter0_d_6252_1382" x="0.663086" y="0.202637" width="22.0425" height="25.4021" filterUnits="userSpaceOnUse" color-interpolation-filters="sRGB">
<feFlood flood-opacity="0" result="BackgroundImageFix"/>
<feColorMatrix in="SourceAlpha" type="matrix" values="0 0 0 0 0 0 0 0 0 0 0 0 0 0 0 0 0 0 127 0" result="hardAlpha"/>
<feOffset dy="2"/>
<feGaussianBlur stdDeviation="2"/>
<feColorMatrix type="matrix" values="0 0 0 0 0 0 0 0 0 0 0 0 0 0 0 0 0 0 0.01 0"/>
<feBlend mode="normal" in2="BackgroundImageFix" result="effect1_dropShadow_6252_1382"/>
<feBlend mode="normal" in="SourceGraphic" in2="effect1_dropShadow_6252_1382" result="shape"/>
</filter>
</defs>
</svg>
