<svg width="82" height="67" viewBox="0 0 82 67" fill="none" xmlns="http://www.w3.org/2000/svg">
<g filter="url(#filter0_d_6252_1122)">
<path fill-rule="evenodd" clip-rule="evenodd" d="M48.0035 14.9285C48.0035 14.9285 42.7098 14.2534 41.8948 14.2534C41.0799 14.2534 39.0476 13.9819 37.8258 12.8944C36.6012 11.8069 30.632 7.33207 29.5468 6.79051C28.4587 6.24895 23.9815 2.99374 22.7583 2.85579C21.5366 2.72076 21.403 2.85579 19.9081 2.85579C18.4147 2.85579 19.0946 3.80534 16.3809 3.94183C13.6644 4.07832 12.1739 5.84242 12.9874 6.11246C13.8024 6.38398 16.3809 8.68669 15.566 9.09469C14.7525 9.50123 14.6174 10.7223 13.5307 10.7223C12.4441 10.7223 11.3589 10.8603 11.3589 11.6719C11.3589 12.4835 9.86701 13.8395 8.64381 13.7089C7.94631 13.6297 6.41621 12.8489 5.22678 12.1914L4.87142 13.1762L4.73633 14.1067C4.97715 14.8258 4.62032 17.7875 5.31636 18.0194C6.077 18.2718 6.48375 19.644 8.10783 21.4228C9.73485 23.1972 13.0359 27.9758 13.0887 29.1396C13.1387 30.3108 13.6981 31.5803 15.729 32.9511C17.7642 34.3233 17.7642 35.9949 18.8303 36.8139C19.8978 37.6255 19.6453 38.5882 19.6966 40.6224C19.7451 42.655 20.6614 45.2953 22.4925 46.4151C24.3192 47.5305 25.5909 48.7472 26.4543 50.9354C27.3178 53.1163 28.4382 54.9964 29.6056 56.1675C30.773 57.3314 30.1137 57.9419 30.773 58.8064C31.1122 59.2481 31.5821 60.0069 31.9051 60.7979C32.8082 60.3679 33.4382 60.0348 33.494 59.935C33.6863 59.5402 33.099 58.4585 33.3956 58.0652C33.6863 57.6733 34.2766 56.985 34.8684 56.7898C35.4543 56.5932 36.1415 57.3813 37.4205 57.1861C38.6966 56.9879 41.3486 57.2815 41.6437 57.575C41.9345 57.8729 45.5732 57.6748 46.4543 58.3646C47.3398 59.0514 48.2237 58.8548 48.814 57.4796C49.4014 56.1059 53.5248 53.1604 54.1151 52.8624C54.7024 52.5689 59.1253 52.8624 60.8933 52.4706C62.6598 52.0773 74.2501 48.348 74.742 47.9561C75.2325 47.5658 77.0974 41.478 77.0974 40.7897C77.0974 40.1028 76.2149 38.236 75.3294 38.3343C74.4425 38.4312 67.1767 37.6475 66.6848 37.3554C66.2883 37.1162 64.3603 35.6632 64.0915 33.6643C63.5203 33.227 62.8625 32.2848 62.6686 31.4658C61.8302 31.5744 60.5233 31.3807 59.7949 29.4904C59.1209 29.0295 57.3353 26.4949 57.9594 25.7861C58.7215 24.926 57.5541 23.0959 56.4337 22.0803C55.3177 21.0647 53.0299 19.1847 52.9256 18.0179C52.9007 17.6936 52.7274 17.1652 52.4954 16.5591L49.7612 16.4182L48.0035 14.9285Z" fill="white"/>
<path fill-rule="evenodd" clip-rule="evenodd" d="M48.0035 14.9285C48.0035 14.9285 42.7098 14.2534 41.8948 14.2534C41.0799 14.2534 39.0476 13.9819 37.8258 12.8944C36.6012 11.8069 30.632 7.33207 29.5468 6.79051C28.4587 6.24895 23.9815 2.99374 22.7583 2.85579C21.5366 2.72076 21.403 2.85579 19.9081 2.85579C18.4147 2.85579 19.0946 3.80534 16.3809 3.94183C13.6644 4.07832 12.1739 5.84242 12.9874 6.11246C13.8024 6.38398 16.3809 8.68669 15.566 9.09469C14.7525 9.50123 14.6174 10.7223 13.5307 10.7223C12.4441 10.7223 11.3589 10.8603 11.3589 11.6719C11.3589 12.4835 9.86701 13.8395 8.64381 13.7089C7.94631 13.6297 6.41621 12.8489 5.22678 12.1914L4.87142 13.1762L4.73633 14.1067C4.97715 14.8258 4.62032 17.7875 5.31636 18.0194C6.077 18.2718 6.48375 19.644 8.10783 21.4228C9.73485 23.1972 13.0359 27.9758 13.0887 29.1396C13.1387 30.3108 13.6981 31.5803 15.729 32.9511C17.7642 34.3233 17.7642 35.9949 18.8303 36.8139C19.8978 37.6255 19.6453 38.5882 19.6966 40.6224C19.7451 42.655 20.6614 45.2953 22.4925 46.4151C24.3192 47.5305 25.5909 48.7472 26.4543 50.9354C27.3178 53.1163 28.4382 54.9964 29.6056 56.1675C30.773 57.3314 30.1137 57.9419 30.773 58.8064C31.1122 59.2481 31.5821 60.0069 31.9051 60.7979C32.8082 60.3679 33.4382 60.0348 33.494 59.935C33.6863 59.5402 33.099 58.4585 33.3956 58.0652C33.6863 57.6733 34.2766 56.985 34.8684 56.7898C35.4543 56.5932 36.1415 57.3813 37.4205 57.1861C38.6966 56.9879 41.3486 57.2815 41.6437 57.575C41.9345 57.8729 45.5732 57.6748 46.4543 58.3646C47.3398 59.0514 48.2237 58.8548 48.814 57.4796C49.4014 56.1059 53.5248 53.1604 54.1151 52.8624C54.7024 52.5689 59.1253 52.8624 60.8933 52.4706C62.6598 52.0773 74.2501 48.348 74.742 47.9561C75.2325 47.5658 77.0974 41.478 77.0974 40.7897C77.0974 40.1028 76.2149 38.236 75.3294 38.3343C74.4425 38.4312 67.1767 37.6475 66.6848 37.3554C66.2883 37.1162 64.3603 35.6632 64.0915 33.6643C63.5203 33.227 62.8625 32.2848 62.6686 31.4658C61.8302 31.5744 60.5233 31.3807 59.7949 29.4904C59.1209 29.0295 57.3353 26.4949 57.9594 25.7861C58.7215 24.926 57.5541 23.0959 56.4337 22.0803C55.3177 21.0647 53.0299 19.1847 52.9256 18.0179C52.9007 17.6936 52.7274 17.1652 52.4954 16.5591L49.7612 16.4182L48.0035 14.9285Z" stroke="#868686" stroke-width="0.25"/>
</g>
<defs>
<filter id="filter0_d_6252_1122" x="0.608398" y="0.670776" width="80.6138" height="66.2969" filterUnits="userSpaceOnUse" color-interpolation-filters="sRGB">
<feFlood flood-opacity="0" result="BackgroundImageFix"/>
<feColorMatrix in="SourceAlpha" type="matrix" values="0 0 0 0 0 0 0 0 0 0 0 0 0 0 0 0 0 0 127 0" result="hardAlpha"/>
<feOffset dy="2"/>
<feGaussianBlur stdDeviation="2"/>
<feColorMatrix type="matrix" values="0 0 0 0 0 0 0 0 0 0 0 0 0 0 0 0 0 0 0.01 0"/>
<feBlend mode="normal" in2="BackgroundImageFix" result="effect1_dropShadow_6252_1122"/>
<feBlend mode="normal" in="SourceGraphic" in2="effect1_dropShadow_6252_1122" result="shape"/>
</filter>
</defs>
</svg>
