<svg width="52" height="83" viewBox="0 0 52 83" fill="none" xmlns="http://www.w3.org/2000/svg">
<g filter="url(#filter0_d_6252_1242)">
<path fill-rule="evenodd" clip-rule="evenodd" d="M46.6261 19.5589C46.1342 19.0717 45.1577 17.7669 45.9712 17.7669C46.7891 17.7669 47.1136 15.3219 46.1342 14.8317C45.1577 14.3415 46.1342 12.2178 45.3163 11.7306C44.4983 11.2404 44.9903 9.60691 45.1577 8.46509C45.3163 7.32034 42.0505 6.34436 40.2531 5.52836C38.4587 4.71089 37.6437 3.40616 36.1738 2.59016C34.7054 1.77416 34.2135 3.89342 34.2135 5.20255C34.2135 6.50727 32.9081 6.67018 31.9272 5.85271C30.9462 5.03524 29.8053 5.85271 28.3354 5.20255C26.8655 4.54798 27.5204 6.67018 27.5204 7.64909C27.5204 8.62653 25.8846 8.62653 24.9066 8.62653C23.9257 8.62653 22.2958 9.444 22.2958 10.5858C22.2958 11.7262 20.8259 12.3807 21.3134 13.0353C21.8038 13.6869 21.1518 14.3415 20.4969 14.8317C19.845 15.3189 19.193 16.9495 18.701 17.4411C18.2106 17.9299 19.027 18.7459 18.0491 19.399C17.0711 20.0491 15.9257 19.5589 15.4382 20.0491C14.9478 20.5393 15.4382 21.6841 15.2767 23.1546C15.1107 24.6193 13.9668 26.2528 12.9874 27.5575C12.0109 28.8652 13.3149 29.1925 13.8068 29.3524C14.2943 29.5183 14.2943 30.3343 13.8068 31.3117C13.3149 32.295 12.1724 31.639 11.519 31.479C10.867 31.3117 9.06965 32.1292 8.09021 33.7627C7.1093 35.3947 7.43529 36.3736 7.75981 37.1896C8.08727 38.0056 6.94484 38.986 7.75981 40.618C8.57772 42.25 7.43382 42.5758 7.59975 43.882C7.75981 45.1867 9.72163 45.0238 9.88609 46.3285C10.0491 47.6333 9.23264 48.1235 8.57772 48.1235C7.92574 48.1235 8.09021 49.4282 8.74366 49.7555C9.39417 50.0842 9.23117 52.3664 8.90518 53.0224C8.57626 53.674 6.45585 53.0224 6.61738 53.8355C6.78037 54.653 6.12692 55.9577 6.12692 56.6123C6.12692 57.2639 5.96393 59.3861 5.31048 58.8944C5.0535 58.7036 4.64235 58.6889 4.23706 58.7432C4.24 58.846 4.24 58.9473 4.23706 59.0661C4.18713 60.3342 4.64528 61.6066 5.76129 62.518C6.88023 63.4353 6.01532 64.8031 6.98008 66.0741C7.9463 67.3465 7.64087 68.2594 8.70842 69.1752C9.77596 70.0881 9.87875 70.5973 9.41913 71.7641C8.96245 72.9338 10.3354 72.6271 10.3839 73.3374C10.4382 74.0521 10.0829 75.5227 10.4382 76.2345C10.7921 76.9448 11.5058 76.2345 13.1298 76.1846C14.7554 76.1347 14.3516 75.1162 14.4 74.1505C14.4485 73.1877 15.2649 73.6427 15.4676 73.0351C15.6702 72.4245 17.1445 72.2719 18.3134 72.7768C19.4808 73.289 20.0887 72.4245 20.2958 71.2049C20.4969 69.9868 21.1563 71.4588 21.5145 71.7113C21.8684 71.9666 22.9389 69.8342 23.4426 68.4634C23.9521 67.0882 23.3941 67.3465 22.2238 68.663C21.0564 69.9853 21.7172 67.3465 22.1753 66.2781C22.6306 65.2111 22.5821 62.11 22.7333 61.4026C22.8875 60.6908 23.1915 59.6238 24.6643 59.32C26.1372 59.0148 28.0696 57.1861 27.7656 56.4273C27.4587 55.6627 29.7979 54.3961 29.7979 53.633C29.7979 52.8698 27.3574 50.5333 26.5454 50.0255C25.7304 49.5192 23.9536 49.9242 24.1063 49.3665C24.2576 48.8074 23.9007 46.6235 23.6996 45.5052C23.4955 44.3854 24.9683 43.2201 24.9683 42.1517C24.9683 41.0847 24.9184 39.8666 25.8816 39.5114C26.8479 39.1577 26.2399 38.2448 27.5116 37.9381C28.7774 37.6343 28.5263 35.8056 29.8993 35.2465C31.2722 34.6888 31.3692 34.2279 33.1504 33.3694C34.9301 32.5034 37.9271 30.4722 38.4381 29.4053C38.9448 28.3398 36.6056 27.22 38.0813 26.1031C39.5556 24.9862 38.3354 23.7153 39.4014 23.3102C40.469 22.9022 40.8757 22.346 41.6393 21.5344C42.4 20.7213 43.4146 21.4845 45.2443 21.1792C45.9124 21.0677 46.5262 21.122 47.1048 21.2628C47.0284 20.4483 46.8478 19.7864 46.6261 19.5589ZM29.4442 64.2425C27.5162 64.2953 26.6102 68.0921 27.105 68.7158C27.5162 69.2222 31.3737 64.1911 29.4442 64.2425Z" fill="white"/>
<path d="M46.6261 19.5589L46.7156 19.4717L46.7141 19.4701L46.6261 19.5589ZM46.1342 14.8317L46.0781 14.9434L46.0782 14.9435L46.1342 14.8317ZM45.3163 11.7306L45.252 11.8378L45.2523 11.838L45.3163 11.7306ZM45.1577 8.46509L45.2813 8.48323L45.2815 8.48225L45.1577 8.46509ZM40.2531 5.52836L40.2013 5.64211L40.2014 5.64218L40.2531 5.52836ZM36.1738 2.59016L36.1131 2.69942L36.1132 2.69945L36.1738 2.59016ZM28.3354 5.20255L28.2845 5.31674L28.2848 5.31686L28.3354 5.20255ZM21.3134 13.0353L21.2131 13.11L21.2135 13.1105L21.3134 13.0353ZM20.4969 14.8317L20.5718 14.9318L20.5718 14.9318L20.4969 14.8317ZM18.701 17.4411L18.7893 17.5297L18.7894 17.5295L18.701 17.4411ZM18.0491 19.399L18.1183 19.5031L18.1185 19.5029L18.0491 19.399ZM15.4382 20.0491L15.5266 20.1375L15.5268 20.1373L15.4382 20.0491ZM15.2767 23.1546L15.4009 23.1687L15.4009 23.1683L15.2767 23.1546ZM12.9874 27.5575L12.8874 27.4825L12.8872 27.4827L12.9874 27.5575ZM13.8068 29.3524L13.847 29.2341L13.8454 29.2336L13.8068 29.3524ZM13.8068 31.3117L13.9186 31.3677L13.9186 31.3675L13.8068 31.3117ZM11.519 31.479L11.4879 31.6001L11.4893 31.6005L11.519 31.479ZM8.09021 33.7627L8.19735 33.8271L8.19741 33.827L8.09021 33.7627ZM7.75981 37.1896L7.64366 37.2358L7.6438 37.2362L7.75981 37.1896ZM7.75981 40.618L7.64798 40.6738L7.64806 40.674L7.75981 40.618ZM7.59975 43.882L7.72382 43.8668L7.72376 43.8663L7.59975 43.882ZM9.88609 46.3285L10.0101 46.3131L10.0101 46.3129L9.88609 46.3285ZM8.74366 49.7555L8.80004 49.6439L8.79963 49.6437L8.74366 49.7555ZM8.90518 53.0224L9.01678 53.0788L9.01713 53.078L8.90518 53.0224ZM6.61738 53.8355L6.49477 53.8598L6.49479 53.8599L6.61738 53.8355ZM5.31048 58.8944L5.38563 58.7945L5.38499 58.7941L5.31048 58.8944ZM4.23706 58.7432L4.22046 58.6194L4.10889 58.6343L4.11211 58.7468L4.23706 58.7432ZM4.23706 59.0661L4.36198 59.0711L4.36202 59.0692L4.23706 59.0661ZM5.76129 62.518L5.84053 62.4213L5.84035 62.4212L5.76129 62.518ZM6.98008 66.0741L6.88051 66.1497L6.88053 66.1497L6.98008 66.0741ZM8.70842 69.1752L8.62703 69.2701L8.62718 69.2702L8.70842 69.1752ZM9.41913 71.7641L9.30283 71.7183L9.30269 71.7186L9.41913 71.7641ZM10.3839 73.3374L10.2592 73.3459L10.2592 73.3469L10.3839 73.3374ZM10.4382 76.2345L10.5501 76.1788L10.5501 76.1787L10.4382 76.2345ZM13.1298 76.1846L13.126 76.0597H13.126L13.1298 76.1846ZM14.4 74.1505L14.2752 74.1442L14.2752 74.1442L14.4 74.1505ZM15.4676 73.0351L15.5862 73.0746L15.5862 73.0744L15.4676 73.0351ZM18.3134 72.7768L18.3636 72.6623L18.3629 72.662L18.3134 72.7768ZM20.2958 71.2049L20.419 71.2258L20.4191 71.2253L20.2958 71.2049ZM21.5145 71.7113L21.5877 71.6099L21.5865 71.6091L21.5145 71.7113ZM23.4426 68.4634L23.3254 68.42L23.3253 68.4203L23.4426 68.4634ZM22.2238 68.663L22.1304 68.5799L22.1301 68.5803L22.2238 68.663ZM22.1753 66.2781L22.2902 66.3273L22.2903 66.3271L22.1753 66.2781ZM22.7333 61.4026L22.6112 61.3761L22.6111 61.3765L22.7333 61.4026ZM24.6643 59.32L24.6896 59.4425L24.6897 59.4424L24.6643 59.32ZM27.7656 56.4273L27.8817 56.3808L27.8816 56.3808L27.7656 56.4273ZM26.5454 50.0255L26.6117 49.9195L26.6113 49.9193L26.5454 50.0255ZM24.1063 49.3665L24.2269 49.3996L24.227 49.3992L24.1063 49.3665ZM23.6996 45.5052L23.8226 45.4831L23.8225 45.4828L23.6996 45.5052ZM25.8816 39.5114L25.8387 39.394L25.8384 39.3941L25.8816 39.5114ZM27.5116 37.9381L27.4824 37.8165L27.4823 37.8166L27.5116 37.9381ZM29.8993 35.2465L29.8522 35.1306L29.8521 35.1307L29.8993 35.2465ZM33.1504 33.3694L33.2046 33.482L33.205 33.4818L33.1504 33.3694ZM38.4381 29.4053L38.5509 29.4593L38.551 29.4589L38.4381 29.4053ZM38.0813 26.1031L38.1568 26.2028L38.1568 26.2027L38.0813 26.1031ZM39.4014 23.3102L39.4458 23.427L39.4461 23.427L39.4014 23.3102ZM41.6393 21.5344L41.7304 21.62L41.7306 21.6198L41.6393 21.5344ZM45.2443 21.1792L45.2649 21.3025L45.2649 21.3025L45.2443 21.1792ZM47.1048 21.2628L47.0752 21.3843L47.2456 21.4258L47.2293 21.2512L47.1048 21.2628ZM29.4442 64.2425L29.4409 64.1175L29.4408 64.1175L29.4442 64.2425ZM27.105 68.7158L27.0071 68.7935L27.008 68.7946L27.105 68.7158ZM46.7141 19.4701C46.4743 19.2326 46.1161 18.7947 45.9197 18.422C45.871 18.3295 45.8338 18.244 45.8107 18.1687C45.7871 18.0922 45.7805 18.0339 45.7853 17.9929C45.7896 17.9557 45.8023 17.9373 45.8193 17.9249C45.8401 17.9097 45.884 17.8919 45.9712 17.8919V17.6419C45.8549 17.6419 45.7514 17.6649 45.6719 17.723C45.5884 17.7839 45.5478 17.8712 45.537 17.9639C45.5266 18.0529 45.5429 18.1487 45.5717 18.2422C45.6008 18.337 45.6452 18.4374 45.6985 18.5385C45.91 18.9399 46.286 19.398 46.5381 19.6477L46.7141 19.4701ZM45.9712 17.8919C46.2448 17.8919 46.4512 17.6883 46.589 17.4374C46.7296 17.1815 46.8196 16.8427 46.8512 16.4944C46.8828 16.1456 46.8567 15.7767 46.7561 15.4593C46.6558 15.1431 46.4762 14.8631 46.1901 14.7199L46.0782 14.9435C46.2818 15.0454 46.429 15.2548 46.5178 15.5349C46.6062 15.8138 46.6315 16.1482 46.6022 16.4719C46.5728 16.7961 46.4896 17.0992 46.3699 17.3171C46.2474 17.54 46.1065 17.6419 45.9712 17.6419V17.8919ZM46.1902 14.72C45.9928 14.6208 45.8859 14.438 45.8317 14.1829C45.7768 13.9243 45.7807 13.6126 45.7907 13.2838C45.8004 12.9625 45.8162 12.6228 45.7756 12.3343C45.735 12.0458 45.6336 11.7742 45.3802 11.6232L45.2523 11.838C45.4078 11.9306 45.4911 12.1072 45.528 12.3692C45.5649 12.6312 45.5509 12.9445 45.5408 13.2762C45.531 13.6005 45.525 13.9421 45.5872 14.2348C45.6501 14.531 45.7873 14.7974 46.0781 14.9434L46.1902 14.72ZM45.3805 11.6234C45.2105 11.5215 45.1035 11.3586 45.0434 11.1408C44.9825 10.9205 44.9718 10.6508 44.9922 10.3507C45.0125 10.0515 45.0631 9.73048 45.1199 9.40988C45.1762 9.09193 45.2391 8.77108 45.2813 8.48323L45.034 8.44696C44.9925 8.73002 44.9312 9.04153 44.8737 9.36631C44.8167 9.68844 44.7641 10.0205 44.7428 10.3337C44.7215 10.6459 44.7307 10.9479 44.8024 11.2074C44.8748 11.4695 45.013 11.6946 45.252 11.8378L45.3805 11.6234ZM45.2815 8.48225C45.3303 8.12963 45.1121 7.81499 44.792 7.54281C44.4674 7.26684 44.006 7.00645 43.4929 6.76071C42.9782 6.51424 42.403 6.27863 41.8467 6.05455C41.2887 5.82978 40.751 5.61711 40.3048 5.41454L40.2014 5.64218C40.6539 5.84761 41.1984 6.06294 41.7533 6.28644C42.3099 6.51063 42.8783 6.74357 43.3849 6.98619C43.893 7.22953 44.3307 7.47877 44.63 7.73327C44.9338 7.99154 45.0643 8.22818 45.0338 8.44794L45.2815 8.48225ZM40.3049 5.41461C39.4247 5.01359 38.7834 4.49283 38.1737 3.96426C37.5664 3.43777 36.9836 2.89674 36.2345 2.48087L36.1132 2.69945C36.834 3.09959 37.3937 3.61892 38.0099 4.15316C38.6238 4.68532 39.2872 5.22566 40.2013 5.64211L40.3049 5.41461ZM36.2346 2.4809C35.8437 2.26372 35.4972 2.23181 35.2003 2.35447C34.9093 2.47473 34.692 2.73319 34.532 3.04191C34.2125 3.65852 34.0885 4.53837 34.0885 5.20255H34.3385C34.3385 4.5576 34.4605 3.72325 34.754 3.15695C34.9005 2.87422 35.0816 2.67403 35.2958 2.58552C35.5042 2.49942 35.7697 2.5086 36.1131 2.69942L36.2346 2.4809ZM34.0885 5.20255C34.0885 5.50789 34.0123 5.73502 33.8937 5.89514C33.7756 6.05467 33.6089 6.15664 33.4106 6.20154C33.0097 6.29228 32.4768 6.14803 32.0072 5.75668L31.8471 5.94873C32.3585 6.37486 32.9687 6.55789 33.4658 6.44537C33.7164 6.38863 33.9374 6.25633 34.0946 6.04391C34.2515 5.83207 34.3385 5.54956 34.3385 5.20255H34.0885ZM32.0072 5.75668C31.4766 5.31449 30.9005 5.3191 30.3102 5.33996C29.715 5.361 29.0908 5.4 28.386 5.08823L28.2848 5.31686C29.0499 5.65526 29.7311 5.61059 30.3191 5.58981C30.912 5.56885 31.3968 5.57345 31.8471 5.94873L32.0072 5.75668ZM28.3862 5.08836C28.0078 4.91984 27.7105 4.90457 27.5075 5.07535C27.4104 5.15703 27.3497 5.27058 27.312 5.39445C27.2742 5.51835 27.257 5.66024 27.2518 5.80889C27.2414 6.10544 27.2786 6.4513 27.3169 6.77641C27.3558 7.10712 27.3954 7.4137 27.3954 7.64909H27.6454C27.6454 7.39502 27.6031 7.06924 27.5652 6.74717C27.5266 6.41951 27.492 6.09218 27.5016 5.81764C27.5064 5.68074 27.5221 5.56261 27.5511 5.46732C27.5802 5.372 27.6202 5.3072 27.6684 5.26668C27.7559 5.19305 27.928 5.15797 28.2845 5.31674L28.3862 5.08836ZM27.3954 7.64909C27.3954 7.85243 27.3129 8.0013 27.1706 8.11728C27.0232 8.23735 26.8095 8.32336 26.5522 8.38253C26.0375 8.50093 25.399 8.50153 24.9066 8.50153V8.75153C25.3922 8.75153 26.0606 8.75213 26.6083 8.62617C26.8822 8.56317 27.1385 8.4659 27.3285 8.31107C27.5235 8.15214 27.6454 7.93447 27.6454 7.64909H27.3954ZM24.9066 8.50153C24.3878 8.50153 23.7116 8.71541 23.1649 9.07342C22.6208 9.42967 22.1708 9.95244 22.1708 10.5858H22.4208C22.4208 10.0774 22.7857 9.62051 23.3018 9.28257C23.8153 8.94639 24.4445 8.75153 24.9066 8.75153V8.50153ZM22.1708 10.5858C22.1708 11.1047 21.837 11.5187 21.5237 11.9152C21.3733 12.1056 21.2226 12.2989 21.1453 12.4899C21.1057 12.588 21.0826 12.6914 21.091 12.7986C21.0995 12.9071 21.1395 13.0111 21.2131 13.11L21.4136 12.9606C21.3654 12.8959 21.3447 12.8362 21.3402 12.7792C21.3357 12.7208 21.3475 12.6568 21.3771 12.5837C21.4383 12.4322 21.5637 12.2679 21.7198 12.0702C22.0196 11.6908 22.4208 11.2073 22.4208 10.5858H22.1708ZM21.2135 13.1105C21.321 13.2534 21.3618 13.3898 21.3598 13.5201C21.3579 13.6526 21.3116 13.7893 21.2274 13.9298C21.0572 14.2139 20.7475 14.488 20.422 14.7316L20.5718 14.9318C20.9013 14.6852 21.245 14.3869 21.4419 14.0583C21.5413 13.8924 21.607 13.7127 21.6098 13.5238C21.6126 13.3328 21.5509 13.1431 21.4132 12.9601L21.2135 13.1105ZM20.4221 14.7316C20.243 14.8654 20.0708 15.0718 19.9081 15.3041C19.7442 15.538 19.5839 15.8069 19.4307 16.0723C19.2764 16.3396 19.1303 16.6015 18.9909 16.8293C18.8506 17.0585 18.7242 17.2412 18.6127 17.3527L18.7894 17.5295C18.9238 17.3952 19.0634 17.1898 19.2041 16.9597C19.3457 16.7283 19.4956 16.4599 19.6472 16.1973C19.8 15.9327 19.9557 15.6718 20.1128 15.4476C20.271 15.2217 20.4249 15.0416 20.5718 14.9318L20.4221 14.7316ZM18.6128 17.3526C18.4614 17.5035 18.4136 17.6798 18.4049 17.8552C18.3968 18.019 18.4238 18.2092 18.4331 18.3658C18.443 18.5328 18.437 18.6899 18.3781 18.8408C18.3202 18.9893 18.2063 19.1437 17.9796 19.295L18.1185 19.5029C18.3808 19.3277 18.5316 19.1351 18.611 18.9317C18.6894 18.7307 18.6933 18.5308 18.6827 18.351C18.6714 18.1609 18.6473 18.0146 18.6546 17.8676C18.6614 17.7321 18.6955 17.6232 18.7893 17.5297L18.6128 17.3526ZM17.9799 19.2949C17.5223 19.599 17.0232 19.6392 16.5544 19.6591C16.3246 19.6689 16.0943 19.6741 15.893 19.709C15.6894 19.7443 15.4973 19.8124 15.3496 19.961L15.5268 20.1373C15.6229 20.0407 15.7567 19.9863 15.9356 19.9553C16.1167 19.9239 16.3253 19.9191 16.565 19.9089C17.0353 19.8889 17.5978 19.849 18.1183 19.5031L17.9799 19.2949ZM15.3498 19.9607C15.2007 20.1097 15.1323 20.3034 15.1048 20.5185C15.0775 20.7317 15.0889 20.9781 15.1095 21.2439C15.1511 21.7819 15.2316 22.4205 15.1524 23.141L15.4009 23.1683C15.4833 22.4182 15.3993 21.7492 15.3587 21.2246C15.3382 20.9591 15.329 20.7355 15.3528 20.5502C15.3762 20.3668 15.4305 20.2336 15.5266 20.1375L15.3498 19.9607ZM15.1525 23.1406C15.0723 23.8484 14.7542 24.6058 14.3285 25.3543C13.9034 26.1015 13.3766 26.8308 12.8874 27.4825L13.0874 27.6326C13.5776 26.9795 14.1125 26.2397 14.5458 25.4779C14.9783 24.7173 15.3151 23.9255 15.4009 23.1687L15.1525 23.1406ZM12.8872 27.4827C12.635 27.8205 12.518 28.1105 12.5094 28.3629C12.5006 28.6207 12.6055 28.8213 12.7581 28.9738C12.9075 29.1231 13.1033 29.2275 13.2857 29.3037C13.4681 29.3799 13.6498 29.4328 13.7681 29.4713L13.8454 29.2336C13.7178 29.1921 13.5521 29.1441 13.3821 29.0731C13.2121 29.002 13.0508 28.9129 12.9348 28.797C12.8219 28.6842 12.7532 28.5478 12.7592 28.3714C12.7654 28.1896 12.8515 27.9484 13.0876 27.6323L12.8872 27.4827ZM13.7665 29.4708C13.936 29.5284 14.0474 29.7043 14.0474 30.0277C14.0474 30.3486 13.9336 30.7774 13.6949 31.2559L13.9186 31.3675C14.1675 30.8687 14.2974 30.4007 14.2974 30.0277C14.2974 29.6574 14.165 29.3423 13.847 29.2341L13.7665 29.4708ZM13.695 31.2558C13.5842 31.4772 13.4425 31.5973 13.2874 31.6591C13.1288 31.7222 12.9438 31.7292 12.7411 31.7004C12.5385 31.6715 12.328 31.6083 12.1223 31.54C11.9216 31.4734 11.7186 31.3992 11.5487 31.3576L11.4893 31.6005C11.6461 31.6389 11.8309 31.7067 12.0436 31.7773C12.2513 31.8463 12.4797 31.9156 12.7058 31.9479C12.9319 31.9801 13.1656 31.9767 13.3799 31.8913C13.5979 31.8045 13.7834 31.6379 13.9186 31.3677L13.695 31.2558ZM11.5501 31.358C11.3553 31.308 11.0952 31.3344 10.8116 31.4154C10.5241 31.4974 10.1979 31.6397 9.8636 31.8381C9.19529 32.2346 8.48493 32.8613 7.983 33.6984L8.19741 33.827C8.67492 33.0306 9.35296 32.4318 9.99118 32.0531C10.3102 31.8638 10.6167 31.731 10.8802 31.6558C11.1476 31.5795 11.3566 31.5664 11.4879 31.6001L11.5501 31.358ZM7.98307 33.6983C7.48339 34.5296 7.31105 35.2043 7.31047 35.782C7.3099 36.3581 7.48054 36.8256 7.64366 37.2358L7.87596 37.1434C7.71456 36.7376 7.55995 36.3077 7.56047 35.7823C7.561 35.2585 7.71612 34.6277 8.19735 33.8271L7.98307 33.6983ZM7.6438 37.2362C7.71236 37.407 7.70716 37.5927 7.66098 37.8146C7.6379 37.9255 7.60538 38.0419 7.5688 38.1677C7.53259 38.2923 7.49229 38.4263 7.45599 38.5664C7.30887 39.1342 7.22216 39.8211 7.64798 40.6738L7.87164 40.5621C7.48249 39.7829 7.55951 39.1636 7.698 38.6291C7.7331 38.4937 7.77182 38.3649 7.80886 38.2375C7.84553 38.1114 7.88049 37.9868 7.90573 37.8655C7.95619 37.6231 7.97099 37.3802 7.87582 37.143L7.6438 37.2362ZM7.64806 40.674C7.84649 41.0699 7.92205 41.3788 7.93161 41.6374C7.94116 41.8957 7.88536 42.1132 7.80679 42.3295C7.65113 42.758 7.38787 43.206 7.47575 43.8978L7.72376 43.8663C7.64571 43.2519 7.87143 42.8838 8.04176 42.4149C8.12619 42.1824 8.19263 41.9309 8.18144 41.6282C8.17026 41.3259 8.08209 40.9821 7.87156 40.562L7.64806 40.674ZM7.47568 43.8972C7.56479 44.6235 8.16302 44.9363 8.68209 45.2154C9.2251 45.5073 9.68913 45.7655 9.76207 46.3442L10.0101 46.3129C9.91859 45.5869 9.31948 45.2742 8.80046 44.9952C8.25748 44.7033 7.79478 44.4452 7.72382 43.8668L7.47568 43.8972ZM9.76206 46.344C9.83994 46.9675 9.6826 47.3769 9.44708 47.6302C9.20882 47.8864 8.87626 47.9985 8.57772 47.9985V48.2485C8.93411 48.2485 9.33723 48.1154 9.63017 47.8004C9.92585 47.4824 10.0952 46.9943 10.0101 46.3131L9.76206 46.344ZM8.57772 47.9985C8.36345 47.9985 8.21108 48.1103 8.12573 48.2749C8.04436 48.4319 8.02465 48.6326 8.04694 48.8307C8.091 49.2224 8.30972 49.6779 8.68768 49.8672L8.79963 49.6437C8.52414 49.5057 8.3339 49.1453 8.29537 48.8028C8.27636 48.6338 8.29694 48.4879 8.34768 48.39C8.39445 48.2998 8.46601 48.2485 8.57772 48.2485V47.9985ZM8.68728 49.867C8.79887 49.9234 8.89884 50.08 8.96828 50.3442C9.03564 50.6003 9.0657 50.9252 9.06561 51.2662C9.06552 51.6062 9.03547 51.9565 8.98559 52.2612C8.93524 52.5689 8.86632 52.8197 8.79324 52.9668L9.01713 53.078C9.10704 52.8971 9.18074 52.6167 9.23231 52.3016C9.28435 51.9837 9.31552 51.6199 9.31561 51.2662C9.3157 50.9136 9.28492 50.5653 9.21006 50.2806C9.1373 50.0038 9.0137 49.7519 8.80004 49.6439L8.68728 49.867ZM8.79359 52.9661C8.74045 53.0714 8.60257 53.1445 8.36429 53.187C8.13274 53.2283 7.85349 53.2332 7.57279 53.2435C7.30199 53.2534 7.0216 53.2682 6.81915 53.3391C6.71611 53.3752 6.61782 53.4307 6.55363 53.5218C6.48658 53.617 6.46948 53.7325 6.49477 53.8598L6.73998 53.8111C6.7249 53.7352 6.73873 53.6932 6.758 53.6658C6.78014 53.6344 6.82357 53.6024 6.90174 53.5751C7.06172 53.5191 7.3017 53.5036 7.58193 53.4933C7.85226 53.4834 8.15468 53.4783 8.40818 53.4331C8.65494 53.3891 8.90546 53.2993 9.01677 53.0787L8.79359 52.9661ZM6.49479 53.8599C6.56951 54.2347 6.4572 54.7364 6.31291 55.2512C6.24269 55.5018 6.16447 55.7576 6.10546 55.9859C6.04646 56.2141 6.00192 56.4316 6.00192 56.6123H6.25192C6.25192 56.4656 6.28906 56.2745 6.3475 56.0485C6.40591 55.8225 6.48087 55.5783 6.55364 55.3187C6.69532 54.8132 6.82824 54.2538 6.73996 53.811L6.49479 53.8599ZM6.00192 56.6123C6.00192 56.9325 5.96153 57.6162 5.84173 58.1549C5.78091 58.4284 5.70374 58.6443 5.61447 58.7609C5.57109 58.8176 5.53555 58.8367 5.51069 58.8413C5.48861 58.8453 5.44936 58.8425 5.38563 58.7945L5.23533 58.9943C5.33496 59.0693 5.44374 59.1077 5.55565 59.0872C5.66478 59.0673 5.74919 58.9962 5.81298 58.9129C5.93805 58.7495 6.02415 58.4863 6.08576 58.2092C6.21082 57.6468 6.25192 56.9436 6.25192 56.6123H6.00192ZM5.38499 58.7941C5.23255 58.6809 5.04158 58.6249 4.84326 58.6027C4.64422 58.5805 4.42923 58.5914 4.22046 58.6194L4.25366 58.8671C4.45018 58.8408 4.64341 58.8319 4.81551 58.8512C4.98834 58.8705 5.13143 58.9172 5.23596 58.9948L5.38499 58.7941ZM4.11211 58.7468C4.11498 58.847 4.11499 58.9461 4.1121 59.063L4.36202 59.0692C4.36501 58.9485 4.36502 58.8449 4.36201 58.7397L4.11211 58.7468ZM4.11216 59.0612C4.06088 60.3635 4.53215 61.6756 5.68222 62.6148L5.84035 62.4212C4.75841 61.5376 4.31339 60.3048 4.36196 59.071L4.11216 59.0612ZM5.68204 62.6147C6.19682 63.0367 6.2596 63.557 6.30382 64.1724C6.34765 64.7821 6.37229 65.4801 6.88051 66.1497L7.07964 65.9985C6.62312 65.3971 6.59783 64.7756 6.55318 64.1544C6.50893 63.5388 6.44469 62.9166 5.84053 62.4213L5.68204 62.6147ZM6.88053 66.1497C7.34995 66.7679 7.50948 67.2953 7.68843 67.8001C7.86879 68.3089 8.06841 68.7908 8.62703 69.2701L8.7898 69.0803C8.28087 68.6437 8.09944 68.2113 7.92407 67.7166C7.74729 67.2179 7.57643 66.6527 7.07963 65.9985L6.88053 66.1497ZM8.62718 69.2702C9.15793 69.724 9.42422 70.0583 9.51556 70.4062C9.60648 70.7524 9.53103 71.139 9.30283 71.7183L9.53543 71.8099C9.76685 71.2224 9.86982 70.771 9.75736 70.3427C9.64532 69.916 9.32644 69.5392 8.78965 69.0802L8.62718 69.2702ZM9.30269 71.7186C9.1822 72.0273 9.17202 72.2649 9.25617 72.4543C9.339 72.6406 9.50105 72.7508 9.65254 72.8329C9.72802 72.8738 9.81028 72.9124 9.88117 72.9477C9.95487 72.9845 10.0207 73.0197 10.077 73.059C10.1863 73.135 10.2505 73.2186 10.2592 73.3459L10.5086 73.3289C10.4931 73.101 10.3675 72.9566 10.2199 72.8538C10.1479 72.8036 10.0686 72.7618 9.99268 72.724C9.914 72.6848 9.84226 72.6514 9.77163 72.6131C9.6309 72.5368 9.53231 72.46 9.48463 72.3527C9.43827 72.2484 9.42773 72.0858 9.53557 71.8095L9.30269 71.7186ZM10.2592 73.3469C10.272 73.5148 10.2609 73.7319 10.2407 73.9814C10.221 74.2261 10.1923 74.5055 10.1735 74.7785C10.1545 75.0535 10.1447 75.3331 10.1628 75.5908C10.1808 75.8472 10.227 76.0913 10.3264 76.2903L10.5501 76.1787C10.4717 76.0218 10.4291 75.8151 10.4121 75.5733C10.3952 75.3327 10.4042 75.0666 10.4229 74.7956C10.4417 74.5226 10.4694 74.2559 10.4899 74.0015C10.51 73.7521 10.5229 73.5174 10.5085 73.3279L10.2592 73.3469ZM10.3263 76.2902C10.4279 76.4941 10.5661 76.6127 10.7518 76.6552C10.9241 76.6947 11.1223 76.6641 11.3349 76.6166C11.7714 76.5192 12.3372 76.334 13.1337 76.3095L13.126 76.0597C12.2984 76.0851 11.6953 76.28 11.2805 76.3726C11.0675 76.4202 10.9194 76.4371 10.8076 76.4115C10.7092 76.389 10.6255 76.33 10.5501 76.1788L10.3263 76.2902ZM13.1337 76.3095C13.5511 76.2967 13.8552 76.2216 14.0727 76.088C14.2949 75.9516 14.4153 75.7611 14.4766 75.5451C14.5363 75.3345 14.5403 75.0985 14.5347 74.8656C14.5289 74.6265 14.5131 74.392 14.5249 74.1567L14.2752 74.1442C14.2628 74.3918 14.2793 74.6467 14.2847 74.8717C14.2904 75.103 14.2846 75.3058 14.2361 75.4768C14.1891 75.6424 14.1026 75.7763 13.9419 75.875C13.7763 75.9766 13.5214 76.0475 13.126 76.0597L13.1337 76.3095ZM14.5249 74.1567C14.5361 73.934 14.5907 73.8113 14.6542 73.7362C14.7188 73.6599 14.8058 73.6166 14.9173 73.5775C15.1236 73.5052 15.4608 73.4506 15.5862 73.0746L15.349 72.9955C15.2718 73.2271 15.0994 73.2488 14.8346 73.3416C14.7107 73.3851 14.5718 73.4465 14.4634 73.5747C14.3539 73.7041 14.2882 73.8856 14.2752 74.1442L14.5249 74.1567ZM15.5862 73.0744C15.6226 72.9649 15.7209 72.8619 15.8892 72.778C16.0564 72.6946 16.2801 72.6368 16.54 72.6121C17.0596 72.5626 17.6993 72.6477 18.2638 72.8915L18.3629 72.662C17.7586 72.401 17.0767 72.3099 16.5163 72.3632C16.2362 72.3898 15.9803 72.4532 15.7776 72.5543C15.5759 72.6549 15.4139 72.7999 15.3489 72.9957L15.5862 73.0744ZM18.2632 72.8912C18.5703 73.026 18.85 73.0743 19.102 73.0428C19.3553 73.0111 19.5712 72.8999 19.7503 72.7313C20.1038 72.3989 20.3139 71.8451 20.419 71.2258L20.1725 71.184C20.0706 71.7844 19.8732 72.2726 19.5791 72.5492C19.4345 72.6852 19.2665 72.7703 19.071 72.7947C18.8742 72.8193 18.6402 72.7837 18.3636 72.6623L18.2632 72.8912ZM20.4191 71.2253C20.4433 71.0786 20.473 70.9823 20.503 70.9226C20.5331 70.8623 20.5553 70.8548 20.5573 70.8541C20.5591 70.8536 20.5741 70.8494 20.6134 70.8718C20.6526 70.8942 20.7002 70.9344 20.7556 70.9927C20.8665 71.1095 20.983 71.2709 21.1011 71.4291C21.1588 71.5065 21.2168 71.5827 21.2723 71.648C21.3267 71.712 21.3844 71.7725 21.4426 71.8134L21.5865 71.6091C21.5551 71.5869 21.5139 71.5462 21.4628 71.4861C21.4129 71.4274 21.359 71.3567 21.3014 71.2796C21.1888 71.1288 21.0608 70.9511 20.9369 70.8206C20.8748 70.7552 20.8075 70.6947 20.7372 70.6547C20.6671 70.6147 20.578 70.5863 20.484 70.6151C20.3904 70.6439 20.3252 70.7192 20.2794 70.8106C20.2334 70.9025 20.1985 71.0267 20.1724 71.1846L20.4191 71.2253ZM21.4414 71.8126C21.5433 71.8861 21.6569 71.8574 21.7402 71.8098C21.8233 71.7625 21.9073 71.6817 21.9894 71.5853C22.1555 71.3904 22.343 71.0963 22.5316 70.758C22.9099 70.0792 23.3061 69.1974 23.5599 68.5065L23.3253 68.4203C23.0755 69.1001 22.6846 69.9699 22.3132 70.6363C22.127 70.9705 21.949 71.2473 21.7991 71.4232C21.7232 71.5123 21.6616 71.5669 21.6164 71.5926C21.5716 71.6182 21.5743 71.6002 21.5877 71.6099L21.4414 71.8126ZM23.5598 68.5068C23.6873 68.1626 23.7555 67.9027 23.7567 67.7302C23.7573 67.6465 23.7427 67.5527 23.6786 67.4875C23.6059 67.4136 23.5091 67.4129 23.432 67.4328C23.3556 67.4524 23.2729 67.4972 23.1876 67.5555C23.1006 67.6149 23.0029 67.694 22.896 67.7901C22.6822 67.9823 22.4244 68.2492 22.1304 68.5799L22.3172 68.746C22.6083 68.4186 22.8592 68.1594 23.0632 67.976C23.1652 67.8842 23.2539 67.813 23.3286 67.7619C23.4051 67.7097 23.4596 67.6838 23.4943 67.6749C23.5283 67.6661 23.5162 67.6789 23.5003 67.6627C23.493 67.6552 23.5072 67.6634 23.5067 67.7284C23.5058 67.853 23.4526 68.0766 23.3254 68.42L23.5598 68.5068ZM22.1301 68.5803C21.9869 68.7424 21.8807 68.8332 21.8064 68.8751C21.7697 68.8958 21.7484 68.9002 21.7395 68.9007C21.7357 68.9009 21.7351 68.9004 21.7363 68.9008C21.7377 68.9012 21.7387 68.9019 21.7387 68.9019C21.733 68.8972 21.709 68.8643 21.6991 68.7595C21.6901 68.6635 21.6954 68.5352 21.7141 68.3822C21.7889 67.7685 22.0647 66.8533 22.2902 66.3273L22.0605 66.2288C21.8278 66.7713 21.5442 67.7097 21.4659 68.3519C21.4463 68.5129 21.4388 68.6613 21.4502 68.7829C21.4608 68.8958 21.4905 69.0215 21.5799 69.095C21.6874 69.1833 21.8193 69.1548 21.9292 69.0929C22.0404 69.0301 22.1688 68.9141 22.3175 68.7457L22.1301 68.5803ZM22.2903 66.3271C22.4111 66.0441 22.4951 65.6362 22.5571 65.1826C22.6196 64.7263 22.6612 64.213 22.6931 63.7135C22.7249 63.2153 22.7475 62.724 22.7711 62.3201C22.7952 61.9101 22.8202 61.5943 22.8556 61.4287L22.6111 61.3765C22.5709 61.5646 22.5452 61.9017 22.5216 62.3055C22.4976 62.7154 22.4755 63.1986 22.4436 63.6975C22.4118 64.1951 22.3707 64.7013 22.3095 65.1487C22.2479 65.5988 22.1672 65.9786 22.0604 66.229L22.2903 66.3271ZM22.8555 61.4291C22.9321 61.0756 23.0425 60.6523 23.3063 60.2807C23.5669 59.9134 23.9833 59.5881 24.6896 59.4425L24.6391 59.1976C23.8725 59.3557 23.4006 59.7158 23.1024 60.136C22.8074 60.5517 22.6888 61.0178 22.6112 61.3761L22.8555 61.4291ZM24.6897 59.4424C25.4569 59.2834 26.3283 58.7338 26.9668 58.1349C27.2871 57.8345 27.5554 57.5156 27.725 57.2184C27.8902 56.9289 27.9802 56.6269 27.8817 56.3808L27.6496 56.4738C27.703 56.6071 27.6655 56.8182 27.5078 57.0945C27.3545 57.3632 27.1047 57.6629 26.7958 57.9526C26.1759 58.534 25.3445 59.0514 24.639 59.1976L24.6897 59.4424ZM27.8816 56.3808C27.8317 56.2563 27.8804 56.0848 28.0542 55.8498C28.2224 55.6223 28.4775 55.376 28.7518 55.1212C29.022 54.8702 29.3108 54.611 29.5301 54.3677C29.6402 54.2456 29.7366 54.1232 29.8061 54.0035C29.875 53.8848 29.9229 53.7593 29.9229 53.633H29.6729C29.6729 53.6974 29.6477 53.7784 29.5899 53.878C29.5327 53.9766 29.4488 54.0844 29.3444 54.2003C29.1347 54.433 28.8578 54.6814 28.5816 54.938C28.3095 55.1908 28.0373 55.4522 27.8532 55.7011C27.6747 55.9425 27.5461 56.216 27.6496 56.4739L27.8816 56.3808ZM29.9229 53.633C29.9229 53.5085 29.8746 53.3677 29.8035 53.2242C29.731 53.0778 29.6283 52.9158 29.5052 52.7455C29.2591 52.4048 28.9243 52.0207 28.5664 51.647C27.853 50.9021 27.0312 50.1819 26.6117 49.9195L26.4791 50.1315C26.8716 50.3769 27.6761 51.0788 28.3859 51.8199C28.7396 52.1893 29.0658 52.5641 29.3026 52.8919C29.4211 53.056 29.5153 53.2056 29.5795 53.3351C29.645 53.4675 29.6729 53.5666 29.6729 53.633H29.9229ZM26.6113 49.9193C26.3861 49.7794 26.1023 49.7066 25.8176 49.6638C25.5319 49.6208 25.2314 49.6062 24.9705 49.5905C24.7024 49.5744 24.4856 49.5572 24.345 49.5141C24.2745 49.4925 24.2427 49.4698 24.2304 49.4549C24.225 49.4483 24.2165 49.4373 24.2269 49.3996L23.9858 49.3335C23.9579 49.4352 23.9716 49.5336 24.0373 49.6136C24.0961 49.6852 24.1844 49.7263 24.2718 49.7531C24.4468 49.8067 24.6966 49.8245 24.9554 49.8401C25.2215 49.8561 25.5085 49.8701 25.7804 49.911C26.0533 49.952 26.2972 50.0185 26.4794 50.1317L26.6113 49.9193ZM24.227 49.3992C24.2706 49.2379 24.275 48.978 24.2597 48.6782C24.2442 48.373 24.207 48.0092 24.1591 47.6299C24.0633 46.8711 23.9233 46.0431 23.8226 45.4831L23.5765 45.5273C23.677 46.0857 23.816 46.9087 23.9111 47.6612C23.9586 48.0376 23.9949 48.3945 24.01 48.6909C24.0254 48.9928 24.0177 49.2156 23.9857 49.3339L24.227 49.3992ZM23.8225 45.4828C23.7771 45.2335 23.8237 44.9752 23.9283 44.7041C24.0333 44.4321 24.1928 44.1566 24.3643 43.874C24.5336 43.5949 24.7156 43.3073 24.8537 43.0237C24.992 42.7397 25.0933 42.4464 25.0933 42.1517H24.8433C24.8433 42.3911 24.7604 42.6442 24.629 42.9142C24.4973 43.1845 24.3239 43.4586 24.1505 43.7443C23.9792 44.0266 23.8089 44.3192 23.6951 44.614C23.581 44.9098 23.52 45.217 23.5766 45.5276L23.8225 45.4828ZM25.0933 42.1517C25.0933 41.6115 25.0816 41.0573 25.1857 40.5919C25.2885 40.1324 25.4981 39.786 25.9249 39.6287L25.8384 39.3941C25.3019 39.5919 25.0548 40.0322 24.9418 40.5373C24.83 41.0365 24.8433 41.6249 24.8433 42.1517H25.0933ZM25.9246 39.6288C26.1892 39.5319 26.3534 39.3931 26.4673 39.2315C26.5765 39.0766 26.6375 38.9011 26.6977 38.7547C26.7601 38.603 26.8257 38.4687 26.9438 38.3528C27.061 38.238 27.2394 38.1323 27.5409 38.0596L27.4823 37.8166C27.1479 37.8972 26.9255 38.0207 26.7688 38.1743C26.6131 38.327 26.5319 38.5005 26.4665 38.6596C26.3989 38.824 26.3513 38.9622 26.263 39.0875C26.1794 39.2061 26.0572 39.314 25.8387 39.394L25.9246 39.6288ZM27.5408 38.0596C28.2407 37.8917 28.5162 37.2958 28.7782 36.7415C29.0481 36.1705 29.3111 35.6209 29.9464 35.3622L29.8521 35.1307C29.1144 35.4311 28.8165 36.0755 28.5522 36.6346C28.2801 37.2104 28.0483 37.6807 27.4824 37.8165L27.5408 38.0596ZM29.9463 35.3623C30.6458 35.0781 31.0224 34.8171 31.4433 34.5232C31.8597 34.2325 32.3229 33.907 33.2046 33.482L33.0961 33.2568C32.1966 33.6903 31.7208 34.0245 31.3002 34.3182C30.8841 34.6088 30.5257 34.8571 29.8522 35.1306L29.9463 35.3623ZM33.205 33.4818C34.1026 33.0451 35.303 32.3168 36.3433 31.564C36.8637 31.1874 37.3462 30.8032 37.7318 30.4446C38.1142 30.0889 38.4124 29.7485 38.5509 29.4593L38.3254 29.3513C38.2084 29.5955 37.9403 29.9092 37.5615 30.2615C37.1858 30.6109 36.712 30.9886 36.1967 31.3614C35.1659 32.1074 33.9779 32.8277 33.0957 33.257L33.205 33.4818ZM38.551 29.4589C38.7006 29.1443 38.6342 28.8322 38.5022 28.5447C38.3732 28.2638 38.1638 27.9721 38.003 27.7084C37.8352 27.433 37.7141 27.1806 37.7107 26.9387C37.7076 26.7097 37.8106 26.4647 38.1568 26.2028L38.0059 26.0034C37.6141 26.2999 37.4562 26.6137 37.4607 26.9421C37.4651 27.2576 37.6204 27.5611 37.7896 27.8385C37.9658 28.1275 38.1539 28.3854 38.275 28.649C38.393 28.9061 38.429 29.1335 38.3253 29.3516L38.551 29.4589ZM38.1568 26.2027C38.5424 25.9107 38.7576 25.6035 38.8762 25.2977C38.9939 24.9942 39.0131 24.7 39.0194 24.4428C39.026 24.1763 39.0202 23.9692 39.0724 23.7966C39.0971 23.7149 39.134 23.6457 39.19 23.5865C39.2462 23.5271 39.3266 23.4723 39.4458 23.427L39.357 23.1933C39.2097 23.2493 39.0951 23.3229 39.0083 23.4148C38.9211 23.507 38.8669 23.6123 38.8331 23.7242C38.7682 23.9388 38.7754 24.1951 38.7695 24.4367C38.7633 24.6874 38.7446 24.9457 38.6431 25.2073C38.5425 25.4666 38.3574 25.7371 38.0058 26.0035L38.1568 26.2027ZM39.4461 23.427C40.5462 23.0065 40.9738 22.4242 41.7304 21.62L41.5483 21.4487C40.7777 22.2677 40.3918 22.7979 39.3568 23.1934L39.4461 23.427ZM41.7306 21.6198C42.0676 21.2595 42.456 21.2402 43.0299 21.2909C43.5997 21.3412 44.3304 21.4584 45.2649 21.3025L45.2237 21.0559C44.3285 21.2053 43.6371 21.0935 43.0519 21.0418C42.4709 20.9905 41.9716 20.9962 41.548 21.449L41.7306 21.6198ZM45.2649 21.3025C45.9133 21.1942 46.5098 21.2466 47.0752 21.3843L47.1344 21.1414C46.5427 20.9973 45.9116 20.9411 45.2237 21.0559L45.2649 21.3025ZM47.2293 21.2512C47.1906 20.8386 47.1253 20.4618 47.0404 20.1572C46.9572 19.8587 46.85 19.6095 46.7156 19.4717L46.5366 19.6462C46.6239 19.7358 46.7179 19.9314 46.7995 20.2243C46.8795 20.5111 46.9427 20.8726 46.9803 21.2745L47.2293 21.2512ZM29.4408 64.1175C28.9149 64.1319 28.4672 64.402 28.1044 64.7907C27.7419 65.179 27.4561 65.6933 27.2497 66.2194C27.043 66.7461 26.913 67.2919 26.8663 67.7484C26.8429 67.9766 26.84 68.1858 26.8602 68.361C26.8799 68.5321 26.9233 68.688 27.0071 68.7935L27.2029 68.6381C27.163 68.5878 27.1265 68.4885 27.1085 68.3324C27.0911 68.1804 27.0928 67.9902 27.115 67.7739C27.1592 67.3414 27.2834 66.8178 27.4824 66.3107C27.6816 65.8031 27.9529 65.3193 28.2871 64.9613C28.6209 64.6038 29.0095 64.3794 29.4476 64.3674L29.4408 64.1175ZM27.008 68.7946C27.0721 68.8736 27.1647 68.8854 27.2423 68.8715C27.3161 68.8583 27.3937 68.8203 27.4694 68.7726C27.6229 68.6757 27.8079 68.5126 28.0048 68.3105C28.4007 67.9042 28.8661 67.3178 29.2571 66.718C29.646 66.1215 29.9711 65.4972 30.0728 65.0169C30.1232 64.7792 30.1249 64.5497 30.022 64.3768C29.9121 64.1922 29.7082 64.1104 29.4409 64.1175L29.4475 64.3674C29.6626 64.3617 29.7603 64.4259 29.8071 64.5047C29.861 64.5951 29.8746 64.7462 29.8283 64.9651C29.7366 65.3978 29.4333 65.99 29.0477 66.5815C28.6641 67.1698 28.2086 67.743 27.8258 68.136C27.6334 68.3335 27.4646 68.48 27.336 68.5612C27.2706 68.6024 27.2251 68.6206 27.1982 68.6254C27.175 68.6296 27.1893 68.6214 27.202 68.637L27.008 68.7946Z" fill="#868686"/>
</g>
<defs>
<filter id="filter0_d_6252_1242" x="0.108398" y="0.283325" width="51.1372" height="82.39" filterUnits="userSpaceOnUse" color-interpolation-filters="sRGB">
<feFlood flood-opacity="0" result="BackgroundImageFix"/>
<feColorMatrix in="SourceAlpha" type="matrix" values="0 0 0 0 0 0 0 0 0 0 0 0 0 0 0 0 0 0 127 0" result="hardAlpha"/>
<feOffset dy="2"/>
<feGaussianBlur stdDeviation="2"/>
<feColorMatrix type="matrix" values="0 0 0 0 0 0 0 0 0 0 0 0 0 0 0 0 0 0 0.01 0"/>
<feBlend mode="normal" in2="BackgroundImageFix" result="effect1_dropShadow_6252_1242"/>
<feBlend mode="normal" in="SourceGraphic" in2="effect1_dropShadow_6252_1242" result="shape"/>
</filter>
</defs>
</svg>
