<svg width="21" height="15" viewBox="0 0 21 15" fill="none" xmlns="http://www.w3.org/2000/svg">
<g filter="url(#filter0_d_6252_1222)">
<path fill-rule="evenodd" clip-rule="evenodd" d="M4.77077 8.10587C5.59162 7.77712 6.51379 7.64503 6.9646 7.82701C7.36254 7.98552 7.4903 8.40379 7.56225 8.84995C8.26416 8.74869 9.5505 8.54762 9.98368 8.38325C10.5975 8.1543 11.9675 8.916 12.1173 8.4625C12.27 8.00313 12.7296 6.93763 13.3376 6.93763C13.9499 6.93763 13.5652 5.33644 14.176 5.25866C14.7854 5.18381 16.3097 3.81304 16.3097 3.81304C16.3097 3.81304 15.7017 2.59637 15.4727 2.51712C15.2436 2.4408 14.4815 3.27882 13.11 3.27882C11.7384 3.27882 10.7487 4.34726 10.1393 4.34726C9.52994 4.34726 7.62392 3.73672 6.32877 3.66187C5.87062 3.63546 5.39338 3.5973 4.95139 3.5518C4.8251 4.70243 4.6856 6.47826 4.77077 8.10587Z" fill="white"/>
<path fill-rule="evenodd" clip-rule="evenodd" d="M4.77077 8.10587C5.59162 7.77712 6.51379 7.64503 6.9646 7.82701C7.36254 7.98552 7.4903 8.40379 7.56225 8.84995C8.26416 8.74869 9.5505 8.54762 9.98368 8.38325C10.5975 8.1543 11.9675 8.916 12.1173 8.4625C12.27 8.00313 12.7296 6.93763 13.3376 6.93763C13.9499 6.93763 13.5652 5.33644 14.176 5.25866C14.7854 5.18381 16.3097 3.81304 16.3097 3.81304C16.3097 3.81304 15.7017 2.59637 15.4727 2.51712C15.2436 2.4408 14.4815 3.27882 13.11 3.27882C11.7384 3.27882 10.7487 4.34726 10.1393 4.34726C9.52994 4.34726 7.62392 3.73672 6.32877 3.66187C5.87062 3.63546 5.39338 3.5973 4.95139 3.5518C4.8251 4.70243 4.6856 6.47826 4.77077 8.10587Z" stroke="#868686" stroke-width="0.25"/>
</g>
<defs>
<filter id="filter0_d_6252_1222" x="0.619629" y="0.387207" width="19.8442" height="14.604" filterUnits="userSpaceOnUse" color-interpolation-filters="sRGB">
<feFlood flood-opacity="0" result="BackgroundImageFix"/>
<feColorMatrix in="SourceAlpha" type="matrix" values="0 0 0 0 0 0 0 0 0 0 0 0 0 0 0 0 0 0 127 0" result="hardAlpha"/>
<feOffset dy="2"/>
<feGaussianBlur stdDeviation="2"/>
<feColorMatrix type="matrix" values="0 0 0 0 0 0 0 0 0 0 0 0 0 0 0 0 0 0 0.01 0"/>
<feBlend mode="normal" in2="BackgroundImageFix" result="effect1_dropShadow_6252_1222"/>
<feBlend mode="normal" in="SourceGraphic" in2="effect1_dropShadow_6252_1222" result="shape"/>
</filter>
</defs>
</svg>
