<svg width="45" height="57" viewBox="0 0 45 57" fill="none" xmlns="http://www.w3.org/2000/svg">
<g filter="url(#filter0_d_6252_1044)">
<path fill-rule="evenodd" clip-rule="evenodd" d="M13.0236 11.6837C13.633 11.9904 14.6257 13.5901 15.3129 13.7413C16.0001 13.8925 19.8107 15.1869 22.2498 16.1791C24.6873 17.1697 26.2145 17.2475 26.9751 17.2475C27.7402 17.2475 28.8841 17.4735 28.1954 18.0077C27.5082 18.5419 20.0398 26.0841 19.0486 27.1496C18.0559 28.2195 17.4465 27.8394 15.2366 27.8394C13.0251 27.8394 11.3511 30.2742 10.7417 30.2008C10.3775 30.1553 9.07798 30.3769 7.9561 30.6308L6.3144 33.0348L4.73291 35.4975L4.90912 47.8065L6.61396 50.507C7.95757 48.7121 11.5743 45.2543 14.2454 42.4438C17.144 39.397 18.6183 38.6867 20.2424 37.8721C21.868 37.0605 25.984 33.0466 28.7813 29.4934C30.542 27.2538 32.4891 24.7647 32.7446 23.143C32.9957 21.5168 34.6227 19.3829 35.843 17.8081C37.0632 16.2363 39.097 12.2194 39.0471 11.0027C38.9971 9.78458 40.0632 7.19127 40.2159 5.00743C40.3687 2.82653 38.5375 2.62253 37.981 3.8392C37.4186 5.0588 33.053 5.87334 30.2541 5.92177C27.4597 5.9702 25.7843 6.22997 24.7666 7.19127C23.7475 8.15844 21.2086 6.9403 20.2938 8.00581C19.3819 9.07571 15.7696 9.98711 14.6007 7.5479C14.1088 6.52056 13.4568 5.94818 12.8401 5.58861C11.8548 6.59394 10.6771 8.08066 10.8915 8.56057C11.1954 9.24889 12.4157 11.3814 13.0236 11.6837Z" fill="white"/>
<path fill-rule="evenodd" clip-rule="evenodd" d="M13.0236 11.6837C13.633 11.9904 14.6257 13.5901 15.3129 13.7413C16.0001 13.8925 19.8107 15.1869 22.2498 16.1791C24.6873 17.1697 26.2145 17.2475 26.9751 17.2475C27.7402 17.2475 28.8841 17.4735 28.1954 18.0077C27.5082 18.5419 20.0398 26.0841 19.0486 27.1496C18.0559 28.2195 17.4465 27.8394 15.2366 27.8394C13.0251 27.8394 11.3511 30.2742 10.7417 30.2008C10.3775 30.1553 9.07798 30.3769 7.9561 30.6308L6.3144 33.0348L4.73291 35.4975L4.90912 47.8065L6.61396 50.507C7.95757 48.7121 11.5743 45.2543 14.2454 42.4438C17.144 39.397 18.6183 38.6867 20.2424 37.8721C21.868 37.0605 25.984 33.0466 28.7813 29.4934C30.542 27.2538 32.4891 24.7647 32.7446 23.143C32.9957 21.5168 34.6227 19.3829 35.843 17.8081C37.0632 16.2363 39.097 12.2194 39.0471 11.0027C38.9971 9.78458 40.0632 7.19127 40.2159 5.00743C40.3687 2.82653 38.5375 2.62253 37.981 3.8392C37.4186 5.0588 33.053 5.87334 30.2541 5.92177C27.4597 5.9702 25.7843 6.22997 24.7666 7.19127C23.7475 8.15844 21.2086 6.9403 20.2938 8.00581C19.3819 9.07571 15.7696 9.98711 14.6007 7.5479C14.1088 6.52056 13.4568 5.94818 12.8401 5.58861C11.8548 6.59394 10.6771 8.08066 10.8915 8.56057C11.1954 9.24889 12.4157 11.3814 13.0236 11.6837Z" stroke="#868686" stroke-width="0.25"/>
</g>
<defs>
<filter id="filter0_d_6252_1044" x="0.607422" y="0.971436" width="43.7427" height="55.7559" filterUnits="userSpaceOnUse" color-interpolation-filters="sRGB">
<feFlood flood-opacity="0" result="BackgroundImageFix"/>
<feColorMatrix in="SourceAlpha" type="matrix" values="0 0 0 0 0 0 0 0 0 0 0 0 0 0 0 0 0 0 127 0" result="hardAlpha"/>
<feOffset dy="2"/>
<feGaussianBlur stdDeviation="2"/>
<feColorMatrix type="matrix" values="0 0 0 0 0 0 0 0 0 0 0 0 0 0 0 0 0 0 0.01 0"/>
<feBlend mode="normal" in2="BackgroundImageFix" result="effect1_dropShadow_6252_1044"/>
<feBlend mode="normal" in="SourceGraphic" in2="effect1_dropShadow_6252_1044" result="shape"/>
</filter>
</defs>
</svg>
