<svg width="35" height="26" viewBox="0 0 35 26" fill="none" xmlns="http://www.w3.org/2000/svg">
<g filter="url(#filter0_d_6252_1349)">
<path fill-rule="evenodd" clip-rule="evenodd" d="M25.8507 16.4967C26.6128 16.9531 26.4586 17.5651 27.1694 17.4609C27.7538 17.3802 28.9814 17.6429 29.5717 18.2153C30.1972 18.0641 30.7171 18.0039 30.7171 18.0039C30.7171 18.0039 30.1752 14.4772 30.0372 13.3912C29.9036 12.3066 26.6422 11.2205 26.6422 11.2205L26.1003 8.23684C26.1003 8.23684 22.3001 8.78133 21.6231 8.51129C20.9447 8.23684 19.4513 8.91636 18.7744 7.96827C18.096 7.01871 16.8728 8.64631 15.6525 7.83178C14.4322 7.01724 10.9021 8.10476 10.7641 7.42524C10.6305 6.74573 12.2575 5.25461 13.209 5.3911C13.4352 5.42339 13.817 5.4322 14.2678 5.42045C14.7142 4.70278 15.723 3.0018 15.4792 2.60113C15.1753 2.09186 13.9565 2.49987 13.1415 3.10747C12.3265 3.718 10.8052 2.80367 10.4983 3.718C10.1929 4.63234 9.79054 5.54667 8.87424 5.54667C7.95941 5.54667 8.67013 7.07154 7.75677 7.47661C6.83901 7.88314 4.70538 7.78188 4.50421 8.69621C4.30157 9.60908 6.83901 10.2181 6.6393 11.3365C6.43519 12.4563 7.95795 13.673 7.04458 14.3833C6.26191 14.9924 5.55854 15.9815 5.62462 17.9687C6.28688 18.3929 6.91977 18.77 7.23401 18.139C7.78027 17.0544 10.7626 18.139 10.7626 17.1909C10.7626 16.2384 14.024 16.5099 14.024 15.5618C14.024 14.6137 15.9212 12.4431 17.1429 12.5796C18.3647 12.7131 17.0093 14.7502 18.5012 15.4268C19.9946 16.1048 17.8228 18.5455 18.6378 19.4951C18.9418 19.8488 19.535 19.7886 20.2604 19.5758C20.814 19.4187 21.4469 19.1722 22.093 18.9594C23.4293 17.7823 25.2442 16.1327 25.8507 16.4967Z" fill="white"/>
<path fill-rule="evenodd" clip-rule="evenodd" d="M25.8507 16.4967C26.6128 16.9531 26.4586 17.5651 27.1694 17.4609C27.7538 17.3802 28.9814 17.6429 29.5717 18.2153C30.1972 18.0641 30.7171 18.0039 30.7171 18.0039C30.7171 18.0039 30.1752 14.4772 30.0372 13.3912C29.9036 12.3066 26.6422 11.2205 26.6422 11.2205L26.1003 8.23684C26.1003 8.23684 22.3001 8.78133 21.6231 8.51129C20.9447 8.23684 19.4513 8.91636 18.7744 7.96827C18.096 7.01871 16.8728 8.64631 15.6525 7.83178C14.4322 7.01724 10.9021 8.10476 10.7641 7.42524C10.6305 6.74573 12.2575 5.25461 13.209 5.3911C13.4352 5.42339 13.817 5.4322 14.2678 5.42045C14.7142 4.70278 15.723 3.0018 15.4792 2.60113C15.1753 2.09186 13.9565 2.49987 13.1415 3.10747C12.3265 3.718 10.8052 2.80367 10.4983 3.718C10.1929 4.63234 9.79054 5.54667 8.87424 5.54667C7.95941 5.54667 8.67013 7.07154 7.75677 7.47661C6.83901 7.88314 4.70538 7.78188 4.50421 8.69621C4.30157 9.60908 6.83901 10.2181 6.6393 11.3365C6.43519 12.4563 7.95795 13.673 7.04458 14.3833C6.26191 14.9924 5.55854 15.9815 5.62462 17.9687C6.28688 18.3929 6.91977 18.77 7.23401 18.139C7.78027 17.0544 10.7626 18.139 10.7626 17.1909C10.7626 16.2384 14.024 16.5099 14.024 15.5618C14.024 14.6137 15.9212 12.4431 17.1429 12.5796C18.3647 12.7131 17.0093 14.7502 18.5012 15.4268C19.9946 16.1048 17.8228 18.5455 18.6378 19.4951C18.9418 19.8488 19.535 19.7886 20.2604 19.5758C20.814 19.4187 21.4469 19.1722 22.093 18.9594C23.4293 17.7823 25.2442 16.1327 25.8507 16.4967Z" stroke="#868686" stroke-width="0.25"/>
</g>
<defs>
<filter id="filter0_d_6252_1349" x="0.367676" y="0.245483" width="34.4927" height="25.6274" filterUnits="userSpaceOnUse" color-interpolation-filters="sRGB">
<feFlood flood-opacity="0" result="BackgroundImageFix"/>
<feColorMatrix in="SourceAlpha" type="matrix" values="0 0 0 0 0 0 0 0 0 0 0 0 0 0 0 0 0 0 127 0" result="hardAlpha"/>
<feOffset dy="2"/>
<feGaussianBlur stdDeviation="2"/>
<feColorMatrix type="matrix" values="0 0 0 0 0 0 0 0 0 0 0 0 0 0 0 0 0 0 0.01 0"/>
<feBlend mode="normal" in2="BackgroundImageFix" result="effect1_dropShadow_6252_1349"/>
<feBlend mode="normal" in="SourceGraphic" in2="effect1_dropShadow_6252_1349" result="shape"/>
</filter>
</defs>
</svg>
