<svg width="46" height="48" viewBox="0 0 46 48" fill="none" xmlns="http://www.w3.org/2000/svg">
<g filter="url(#filter0_d_6252_1346)">
<path fill-rule="evenodd" clip-rule="evenodd" d="M39.2191 33.4523C39.1177 31.3698 37.8975 31.3698 37.9489 29.9447C38.0017 28.527 38.1016 27.2545 37.5935 27.1004C37.084 26.9463 37.3894 25.7282 38.2014 24.51C39.0179 23.2934 36.7315 23.1363 36.3733 21.6144C36.2235 20.9643 36.9503 18.7789 37.8872 16.3926C35.0399 14.4289 32.1192 12.2964 32.1192 12.2964L32.294 10.1845L19.3057 3.29689C19.2191 4.88046 18.5715 6.10447 17.645 6.53155C16.6523 6.98505 19.0194 8.4336 17.874 8.66402C16.7331 8.88857 14.1398 7.59558 12.3087 8.35435C11.0811 8.87096 11.3351 5.7948 12.2911 3.09729L9.42324 3.32918C9.42324 3.32918 8.64644 3.52437 7.80357 3.76066L8.36744 5.26058C8.36744 5.26058 9.07229 6.66657 8.89608 7.54862C8.81531 7.94782 8.18389 8.12687 7.5231 8.20465C7.75658 9.23933 7.6626 10.0113 7.6626 10.0113L8.54219 10.5382C8.54219 10.5382 6.60827 14.2293 5.72868 14.58C5.49373 14.674 4.93867 15.0101 4.25879 15.4474C4.77714 18.0451 5.4115 21.1286 6.36304 21.9945C8.11634 23.5942 7.81238 25.4229 8.18976 26.4899C8.57302 27.5554 10.0987 28.7765 9.03117 29.23C8.34248 29.5264 7.72868 28.7897 7.11634 27.7873C7.0532 27.9678 6.97978 28.1483 6.89608 28.3156C6.86524 28.3743 6.81091 28.4154 6.76539 28.4653C7.69931 29.1536 8.78741 29.8787 9.24703 29.8787C10.1266 29.8787 11.5334 30.9324 12.413 31.11C13.2925 31.2817 16.4306 32.538 16.8109 33.0414C16.8784 33.1339 16.9548 33.2498 17.0326 33.3819C17.7815 33.3452 18.7668 33.3144 19.3483 33.3892C19.4746 33.2762 19.6273 33.1896 19.852 33.1896C21.0135 33.1896 22.3865 37.5925 22.3263 40.1521C23.0194 40.2445 23.968 40.3546 24.2749 40.3546C24.7859 40.3546 25.3953 39.6457 26.3101 39.9495C27.225 40.2533 26.6126 40.9637 27.4261 40.9637C28.2411 40.9637 29.8667 40.4559 30.3747 40.5557C30.8857 40.6569 32.3072 40.9637 32.4085 40.3546C32.5084 39.747 32.8182 38.8312 33.5289 39.0367C34.2382 39.2392 34.7448 39.8468 35.5583 39.135C36.3747 38.4232 37.6948 39.135 38.0003 38.5245C38.1574 38.2075 39.9665 37.3313 41.6464 36.5696C41.5524 34.6176 39.3189 35.4894 39.2191 33.4523Z" fill="white"/>
<path fill-rule="evenodd" clip-rule="evenodd" d="M39.2191 33.4523C39.1177 31.3698 37.8975 31.3698 37.9489 29.9447C38.0017 28.527 38.1016 27.2545 37.5935 27.1004C37.084 26.9463 37.3894 25.7282 38.2014 24.51C39.0179 23.2934 36.7315 23.1363 36.3733 21.6144C36.2235 20.9643 36.9503 18.7789 37.8872 16.3926C35.0399 14.4289 32.1192 12.2964 32.1192 12.2964L32.294 10.1845L19.3057 3.29689C19.2191 4.88046 18.5715 6.10447 17.645 6.53155C16.6523 6.98505 19.0194 8.4336 17.874 8.66402C16.7331 8.88857 14.1398 7.59558 12.3087 8.35435C11.0811 8.87096 11.3351 5.7948 12.2911 3.09729L9.42324 3.32918C9.42324 3.32918 8.64644 3.52437 7.80357 3.76066L8.36744 5.26058C8.36744 5.26058 9.07229 6.66657 8.89608 7.54862C8.81531 7.94782 8.18389 8.12687 7.5231 8.20465C7.75658 9.23933 7.6626 10.0113 7.6626 10.0113L8.54219 10.5382C8.54219 10.5382 6.60827 14.2293 5.72868 14.58C5.49373 14.674 4.93867 15.0101 4.25879 15.4474C4.77714 18.0451 5.4115 21.1286 6.36304 21.9945C8.11634 23.5942 7.81238 25.4229 8.18976 26.4899C8.57302 27.5554 10.0987 28.7765 9.03117 29.23C8.34248 29.5264 7.72868 28.7897 7.11634 27.7873C7.0532 27.9678 6.97978 28.1483 6.89608 28.3156C6.86524 28.3743 6.81091 28.4154 6.76539 28.4653C7.69931 29.1536 8.78741 29.8787 9.24703 29.8787C10.1266 29.8787 11.5334 30.9324 12.413 31.11C13.2925 31.2817 16.4306 32.538 16.8109 33.0414C16.8784 33.1339 16.9548 33.2498 17.0326 33.3819C17.7815 33.3452 18.7668 33.3144 19.3483 33.3892C19.4746 33.2762 19.6273 33.1896 19.852 33.1896C21.0135 33.1896 22.3865 37.5925 22.3263 40.1521C23.0194 40.2445 23.968 40.3546 24.2749 40.3546C24.7859 40.3546 25.3953 39.6457 26.3101 39.9495C27.225 40.2533 26.6126 40.9637 27.4261 40.9637C28.2411 40.9637 29.8667 40.4559 30.3747 40.5557C30.8857 40.6569 32.3072 40.9637 32.4085 40.3546C32.5084 39.747 32.8182 38.8312 33.5289 39.0367C34.2382 39.2392 34.7448 39.8468 35.5583 39.135C36.3747 38.4232 37.6948 39.135 38.0003 38.5245C38.1574 38.2075 39.9665 37.3313 41.6464 36.5696C41.5524 34.6176 39.3189 35.4894 39.2191 33.4523Z" stroke="#868686" stroke-width="0.25"/>
</g>
<defs>
<filter id="filter0_d_6252_1346" x="0.119629" y="0.957153" width="45.6558" height="46.1315" filterUnits="userSpaceOnUse" color-interpolation-filters="sRGB">
<feFlood flood-opacity="0" result="BackgroundImageFix"/>
<feColorMatrix in="SourceAlpha" type="matrix" values="0 0 0 0 0 0 0 0 0 0 0 0 0 0 0 0 0 0 127 0" result="hardAlpha"/>
<feOffset dy="2"/>
<feGaussianBlur stdDeviation="2"/>
<feColorMatrix type="matrix" values="0 0 0 0 0 0 0 0 0 0 0 0 0 0 0 0 0 0 0.01 0"/>
<feBlend mode="normal" in2="BackgroundImageFix" result="effect1_dropShadow_6252_1346"/>
<feBlend mode="normal" in="SourceGraphic" in2="effect1_dropShadow_6252_1346" result="shape"/>
</filter>
</defs>
</svg>
