<svg width="29" height="28" viewBox="0 0 29 28" fill="none" xmlns="http://www.w3.org/2000/svg">
<g filter="url(#filter0_d_6252_1250)">
<path fill-rule="evenodd" clip-rule="evenodd" d="M22.5643 6.26324L22.2134 3.80056L20.648 2.37695C20.187 2.76588 19.535 3.12985 19.4851 3.49382C19.4072 4.02364 17.9623 3.95026 17.3514 3.64499C16.742 3.33972 15.1415 4.0251 14.8346 4.48154C14.5306 4.93944 13.4616 3.64499 12.7009 3.71984C11.9388 3.79762 10.1092 4.48154 10.1092 4.48154C10.1092 4.48154 9.8052 6.61401 9.8052 7.45496C9.8052 8.29004 10.9476 8.44561 10.9476 9.131C10.9476 9.81492 10.0328 10.424 9.95498 10.8819C9.88009 11.3398 9.27069 11.6436 8.50711 11.874C7.74647 12.1015 7.82136 13.3226 7.21343 13.7761C6.60109 14.2354 6.75381 15.3787 6.37202 16.2153C5.99023 17.0533 5.76409 18.198 5.76409 19.1843C5.76409 19.9812 5.6613 21.1054 5.19141 21.6807C6.16497 21.782 6.41754 21.6294 6.90653 21.3813C7.6099 21.035 10.4249 20.329 10.4249 20.329L13.2927 20.0971C13.9285 18.3008 14.8683 16.6717 15.9006 16.3679C17.2384 15.976 19.0577 16.1316 20.4865 16.4853C20.8786 15.4477 21.2472 14.6126 21.5056 14.3514C22.3881 13.4708 23.6187 11.7126 23.7964 10.3066C23.9696 8.89911 23.9696 7.49312 23.9696 7.49312L22.5643 6.26324Z" fill="white"/>
<path fill-rule="evenodd" clip-rule="evenodd" d="M22.5643 6.26324L22.2134 3.80056L20.648 2.37695C20.187 2.76588 19.535 3.12985 19.4851 3.49382C19.4072 4.02364 17.9623 3.95026 17.3514 3.64499C16.742 3.33972 15.1415 4.0251 14.8346 4.48154C14.5306 4.93944 13.4616 3.64499 12.7009 3.71984C11.9388 3.79762 10.1092 4.48154 10.1092 4.48154C10.1092 4.48154 9.8052 6.61401 9.8052 7.45496C9.8052 8.29004 10.9476 8.44561 10.9476 9.131C10.9476 9.81492 10.0328 10.424 9.95498 10.8819C9.88009 11.3398 9.27069 11.6436 8.50711 11.874C7.74647 12.1015 7.82136 13.3226 7.21343 13.7761C6.60109 14.2354 6.75381 15.3787 6.37202 16.2153C5.99023 17.0533 5.76409 18.198 5.76409 19.1843C5.76409 19.9812 5.6613 21.1054 5.19141 21.6807C6.16497 21.782 6.41754 21.6294 6.90653 21.3813C7.6099 21.035 10.4249 20.329 10.4249 20.329L13.2927 20.0971C13.9285 18.3008 14.8683 16.6717 15.9006 16.3679C17.2384 15.976 19.0577 16.1316 20.4865 16.4853C20.8786 15.4477 21.2472 14.6126 21.5056 14.3514C22.3881 13.4708 23.6187 11.7126 23.7964 10.3066C23.9696 8.89911 23.9696 7.49312 23.9696 7.49312L22.5643 6.26324Z" stroke="#868686" stroke-width="0.25"/>
</g>
<defs>
<filter id="filter0_d_6252_1250" x="0.948242" y="0.210815" width="27.1465" height="27.6266" filterUnits="userSpaceOnUse" color-interpolation-filters="sRGB">
<feFlood flood-opacity="0" result="BackgroundImageFix"/>
<feColorMatrix in="SourceAlpha" type="matrix" values="0 0 0 0 0 0 0 0 0 0 0 0 0 0 0 0 0 0 127 0" result="hardAlpha"/>
<feOffset dy="2"/>
<feGaussianBlur stdDeviation="2"/>
<feColorMatrix type="matrix" values="0 0 0 0 0 0 0 0 0 0 0 0 0 0 0 0 0 0 0.01 0"/>
<feBlend mode="normal" in2="BackgroundImageFix" result="effect1_dropShadow_6252_1250"/>
<feBlend mode="normal" in="SourceGraphic" in2="effect1_dropShadow_6252_1250" result="shape"/>
</filter>
</defs>
</svg>
