<svg width="49" height="51" viewBox="0 0 49 51" fill="none" xmlns="http://www.w3.org/2000/svg">
<g filter="url(#filter0_d_6252_1041)">
<path fill-rule="evenodd" clip-rule="evenodd" d="M6.93427 41.614C7.7933 41.614 7.27641 42.8145 8.47905 42.2994C9.68316 41.7857 10.7125 41.7857 11.7463 42.477C12.7757 43.1609 13.6376 43.3311 14.8403 43.3311C16.0414 43.3311 26.6993 43.3311 26.6993 43.3311L27.9034 44.5346C27.9034 44.5346 34.4335 44.0194 35.4643 44.5346C36.4966 45.0497 39.7594 44.5346 40.7917 44.1912C40.9694 44.131 41.3072 44.0503 41.7345 43.9666L37.8138 38.6098L38.1647 27.1813L43.2675 27.3574L44.1471 26.4768L44.874 19.6523C44.6052 19.5217 44.2954 19.4674 43.943 19.6157C42.8754 20.0736 41.9621 19.9224 40.8945 19.9224C39.827 19.9224 39.6772 20.9923 39.0663 20.8367C38.454 20.6841 38.9136 18.8539 39.0663 18.0937C39.2191 17.3291 38.1515 15.9612 37.3865 15.3507C36.6258 14.7387 38.3013 10.9317 37.8461 10.4738C37.3865 10.0173 37.2367 8.7992 37.2367 7.73223C37.2367 6.66526 36.4746 7.27286 34.9489 7.27286C33.4247 7.27286 33.2719 6.51263 33.2719 6.51263C33.2719 6.51263 31.4408 6.05326 30.5275 6.51263C29.6141 6.97053 29.7639 9.715 29.1559 9.55943C28.5451 9.40533 26.714 9.71353 25.1927 10.17C23.667 10.6279 23.059 9.86323 22.2925 8.0375C21.5319 6.20736 20.6156 6.81496 20.9195 5.44712C21.225 4.07195 20.3102 2.54855 20.3102 2.54855C20.3102 2.54855 10.2485 2.39592 9.18096 2.54855C8.74777 2.61019 7.9886 3.07543 7.24117 3.60818C7.86231 5.95052 9.81238 9.86323 10.25 10.7805C10.7081 11.7447 9.69197 12.6048 9.69197 14.3835C9.69197 16.1638 11.623 19.4161 11.8256 21.597C12.0297 23.7823 10.6053 25.1501 9.38507 26.5766C8.16481 27.9988 6.89903 31.1953 6.89903 33.178C6.89903 35.1593 5.0679 37.0893 5.11636 38.0051C5.17069 38.9194 4.86526 41.6111 4.65968 42.6237C4.65234 42.6663 4.65674 42.7162 4.65527 42.7587L5.72722 42.4784C5.72869 42.477 6.07377 41.614 6.93427 41.614Z" fill="white"/>
<path fill-rule="evenodd" clip-rule="evenodd" d="M6.93427 41.614C7.7933 41.614 7.27641 42.8145 8.47905 42.2994C9.68316 41.7857 10.7125 41.7857 11.7463 42.477C12.7757 43.1609 13.6376 43.3311 14.8403 43.3311C16.0414 43.3311 26.6993 43.3311 26.6993 43.3311L27.9034 44.5346C27.9034 44.5346 34.4335 44.0194 35.4643 44.5346C36.4966 45.0497 39.7594 44.5346 40.7917 44.1912C40.9694 44.131 41.3072 44.0503 41.7345 43.9666L37.8138 38.6098L38.1647 27.1813L43.2675 27.3574L44.1471 26.4768L44.874 19.6523C44.6052 19.5217 44.2954 19.4674 43.943 19.6157C42.8754 20.0736 41.9621 19.9224 40.8945 19.9224C39.827 19.9224 39.6772 20.9923 39.0663 20.8367C38.454 20.6841 38.9136 18.8539 39.0663 18.0937C39.2191 17.3291 38.1515 15.9612 37.3865 15.3507C36.6258 14.7387 38.3013 10.9317 37.8461 10.4738C37.3865 10.0173 37.2367 8.7992 37.2367 7.73223C37.2367 6.66526 36.4746 7.27286 34.9489 7.27286C33.4247 7.27286 33.2719 6.51263 33.2719 6.51263C33.2719 6.51263 31.4408 6.05326 30.5275 6.51263C29.6141 6.97053 29.7639 9.715 29.1559 9.55943C28.5451 9.40533 26.714 9.71353 25.1927 10.17C23.667 10.6279 23.059 9.86323 22.2925 8.0375C21.5319 6.20736 20.6156 6.81496 20.9195 5.44712C21.225 4.07195 20.3102 2.54855 20.3102 2.54855C20.3102 2.54855 10.2485 2.39592 9.18096 2.54855C8.74777 2.61019 7.9886 3.07543 7.24117 3.60818C7.86231 5.95052 9.81238 9.86323 10.25 10.7805C10.7081 11.7447 9.69197 12.6048 9.69197 14.3835C9.69197 16.1638 11.623 19.4161 11.8256 21.597C12.0297 23.7823 10.6053 25.1501 9.38507 26.5766C8.16481 27.9988 6.89903 31.1953 6.89903 33.178C6.89903 35.1593 5.0679 37.0893 5.11636 38.0051C5.17069 38.9194 4.86526 41.6111 4.65968 42.6237C4.65234 42.6663 4.65674 42.7162 4.65527 42.7587L5.72722 42.4784C5.72869 42.477 6.07377 41.614 6.93427 41.614Z" stroke="#868686" stroke-width="0.25"/>
</g>
<defs>
<filter id="filter0_d_6252_1041" x="0.524414" y="0.355713" width="48.4829" height="50.5219" filterUnits="userSpaceOnUse" color-interpolation-filters="sRGB">
<feFlood flood-opacity="0" result="BackgroundImageFix"/>
<feColorMatrix in="SourceAlpha" type="matrix" values="0 0 0 0 0 0 0 0 0 0 0 0 0 0 0 0 0 0 127 0" result="hardAlpha"/>
<feOffset dy="2"/>
<feGaussianBlur stdDeviation="2"/>
<feColorMatrix type="matrix" values="0 0 0 0 0 0 0 0 0 0 0 0 0 0 0 0 0 0 0.01 0"/>
<feBlend mode="normal" in2="BackgroundImageFix" result="effect1_dropShadow_6252_1041"/>
<feBlend mode="normal" in="SourceGraphic" in2="effect1_dropShadow_6252_1041" result="shape"/>
</filter>
</defs>
</svg>
