<svg width="31" height="21" viewBox="0 0 31 21" fill="none" xmlns="http://www.w3.org/2000/svg">
<g filter="url(#filter0_d_6252_1113)">
<path fill-rule="evenodd" clip-rule="evenodd" d="M21.3468 3.17303C20.5333 3.07323 17.9915 3.17303 17.2778 3.8863C16.5671 4.59517 15.6537 5.00317 14.8417 4.90044C14.0282 4.79917 11.6904 4.6979 11.1824 4.79917C10.6743 4.90044 7.92981 4.2899 7.52452 4.3941C7.16329 4.48363 6.48782 3.23027 5.56565 3.07764C5.52012 3.19211 5.43936 3.30072 5.28664 3.40345C4.60089 3.86282 4.5216 5.07655 5.28664 5.76487C6.04876 6.45172 7.03848 7.97513 6.35419 7.97513C5.6699 7.97513 5.1354 8.88799 5.21029 9.3459C5.28811 9.80526 4.98268 10.793 5.21029 11.0234C5.44083 11.2509 7.03994 12.7772 7.1163 13.2322C7.18385 13.6343 7.84024 13.8442 7.79031 14.195C9.07078 14.101 11.7874 13.9425 12.4026 14.2493C13.2161 14.6573 16.0634 14.8583 16.0634 14.8583C16.874 14.8583 17.5876 14.5531 17.3835 14.0467C17.2132 13.6182 18.2705 13.3349 19.034 13.2542C18.9019 12.786 18.8123 12.4 19.0091 12.3164C19.3879 12.1637 21.6023 11.86 22.5142 12.3164C22.9782 12.5512 23.5025 12.3296 23.9033 12.0581C23.7829 11.631 23.664 11.2934 23.429 11.2494C22.8681 11.1496 22.0076 8.81315 22.7198 8.65904C23.429 8.50641 24.3453 6.0672 25.4628 5.7135C25.9092 5.57261 26.0986 5.3055 26.1779 4.97675C25.2088 4.65094 24.2514 4.25321 24.0928 3.98757C23.7844 3.4783 22.1574 3.27577 21.3468 3.17303Z" fill="white"/>
<path fill-rule="evenodd" clip-rule="evenodd" d="M21.3468 3.17303C20.5333 3.07323 17.9915 3.17303 17.2778 3.8863C16.5671 4.59517 15.6537 5.00317 14.8417 4.90044C14.0282 4.79917 11.6904 4.6979 11.1824 4.79917C10.6743 4.90044 7.92981 4.2899 7.52452 4.3941C7.16329 4.48363 6.48782 3.23027 5.56565 3.07764C5.52012 3.19211 5.43936 3.30072 5.28664 3.40345C4.60089 3.86282 4.5216 5.07655 5.28664 5.76487C6.04876 6.45172 7.03848 7.97513 6.35419 7.97513C5.6699 7.97513 5.1354 8.88799 5.21029 9.3459C5.28811 9.80526 4.98268 10.793 5.21029 11.0234C5.44083 11.2509 7.03994 12.7772 7.1163 13.2322C7.18385 13.6343 7.84024 13.8442 7.79031 14.195C9.07078 14.101 11.7874 13.9425 12.4026 14.2493C13.2161 14.6573 16.0634 14.8583 16.0634 14.8583C16.874 14.8583 17.5876 14.5531 17.3835 14.0467C17.2132 13.6182 18.2705 13.3349 19.034 13.2542C18.9019 12.786 18.8123 12.4 19.0091 12.3164C19.3879 12.1637 21.6023 11.86 22.5142 12.3164C22.9782 12.5512 23.5025 12.3296 23.9033 12.0581C23.7829 11.631 23.664 11.2934 23.429 11.2494C22.8681 11.1496 22.0076 8.81315 22.7198 8.65904C23.429 8.50641 24.3453 6.0672 25.4628 5.7135C25.9092 5.57261 26.0986 5.3055 26.1779 4.97675C25.2088 4.65094 24.2514 4.25321 24.0928 3.98757C23.7844 3.4783 22.1574 3.27577 21.3468 3.17303Z" stroke="#868686" stroke-width="0.25"/>
</g>
<defs>
<filter id="filter0_d_6252_1113" x="0.617188" y="0.937866" width="29.709" height="20.0454" filterUnits="userSpaceOnUse" color-interpolation-filters="sRGB">
<feFlood flood-opacity="0" result="BackgroundImageFix"/>
<feColorMatrix in="SourceAlpha" type="matrix" values="0 0 0 0 0 0 0 0 0 0 0 0 0 0 0 0 0 0 127 0" result="hardAlpha"/>
<feOffset dy="2"/>
<feGaussianBlur stdDeviation="2"/>
<feColorMatrix type="matrix" values="0 0 0 0 0 0 0 0 0 0 0 0 0 0 0 0 0 0 0.01 0"/>
<feBlend mode="normal" in2="BackgroundImageFix" result="effect1_dropShadow_6252_1113"/>
<feBlend mode="normal" in="SourceGraphic" in2="effect1_dropShadow_6252_1113" result="shape"/>
</filter>
</defs>
</svg>
