<svg width="145" height="149" viewBox="0 0 145 149" fill="none" xmlns="http://www.w3.org/2000/svg">
<g filter="url(#filter0_d_6252_1143)">
<path fill-rule="evenodd" clip-rule="evenodd" d="M77.1898 140.511C79.3249 138.984 78.7919 138.073 79.7801 136.246C80.7728 134.416 79.9343 133.655 81.6127 132.054C83.2897 130.456 81.3073 129.389 83.4409 128.398C85.5775 127.408 85.272 129.314 83.5187 131.521C81.7654 133.733 81.46 134.341 83.7463 132.665C86.0327 130.989 86.8711 128.626 88.1678 125.959C89.4629 123.292 90.4556 122.456 91.598 122.302C92.739 122.151 92.739 119.333 92.5877 117.353C92.435 115.369 91.8256 113.541 92.6626 112.246C93.5011 110.951 92.6626 109.734 93.7316 109.734C94.7992 109.734 96.3998 108.132 98.0752 106.456C99.7536 104.781 100.821 104.629 102.573 104.474C104.326 104.322 103.337 103.711 104.479 103.409C105.621 103.105 106.385 102.037 107.147 101.35C107.909 100.666 111.034 101.428 112.864 101.428C114.695 101.428 115.912 101.58 115.912 100.438C115.912 99.2952 116.751 98.3794 117.82 98.3794C118.884 98.3794 119.344 98.0785 119.344 96.5521C119.344 95.0302 119.801 94.1144 120.714 93.4276C121.63 92.7436 121.783 91.2202 122.088 90.2296C122.394 89.2389 123.382 89.8451 123.382 88.4024C123.382 86.9538 123.917 85.3556 123.917 84.2108C123.917 83.0705 125.135 83.2187 125.67 82.3807C126.204 81.5441 125.212 80.4801 126.05 78.1158C126.889 75.7543 126.05 73.5455 126.05 71.4131C126.05 69.2791 126.05 67.0689 126.814 66.3806C127.577 65.6966 127.196 65.3165 126.586 65.0083C125.975 64.706 126.663 63.868 127.196 64.0221C127.729 64.1718 128.338 65.3165 129.331 64.706C130.322 64.0955 131.235 61.5051 132.074 59.3726C132.914 57.2387 134.285 57.3165 135.351 56.86C136.42 56.4007 138.708 53.8118 140.154 50.0766C141.602 46.3444 140.077 42.6886 139.467 40.0997C138.856 37.5049 138.018 38.0391 136.497 38.1154C134.971 38.1932 132.074 37.8116 128.263 33.6964C124.453 29.5811 120.715 29.8864 118.201 30.5733C115.685 31.2601 113.094 29.3537 111.416 28.9735C109.739 28.592 108.138 30.7244 106.92 31.1823C105.698 31.6388 107.529 29.3537 107.605 27.9066C107.682 26.458 103.031 24.4019 99.5246 23.0311C96.0194 21.6589 94.4937 22.3457 94.4937 24.5545C94.4937 26.7648 93.1222 23.8676 92.0547 26.2335C90.9857 28.5934 89.0033 27.0686 90.3014 26.3083C91.5965 25.5466 92.8153 23.7913 93.2735 22.3472C93.7316 20.9001 88.2427 19.7524 86.3381 20.5185C84.4306 21.2802 85.6494 24.0232 84.1267 23.1852C82.601 22.3472 83.8212 20.2866 85.0415 20.3659C86.2618 20.4422 87.6347 17.9281 88.4717 16.0995C89.3102 14.2693 87.0239 13.9626 85.6509 12.4421C84.2955 10.9349 84.576 6.53931 83.1854 5.84365C81.692 7.32009 79.6876 9.62721 79.1223 11.3209C78.3983 13.4871 77.4703 12.2469 75.5099 12.8692C73.5496 13.4871 72.6201 12.6579 72.1047 11.8375C71.5892 11.0068 69.626 11.8375 68.2868 11.7333C66.9446 11.6291 67.7684 13.3829 66.8404 13.9024C65.9123 14.4161 63.5379 12.8707 62.7126 13.7997C61.8874 14.7272 61.3719 13.7997 60.9593 14.6245C60.5452 15.4478 59.1003 14.9342 58.6877 15.4478C58.2736 15.9644 56.8316 16.2726 54.9711 14.2092C53.115 12.1515 53.4234 8.74369 54.2501 8.12582C55.0739 7.50795 55.0739 5.75266 53.9388 5.23459C52.8037 4.72238 53.9388 2.55322 52.4968 2.34922C51.0504 2.14375 51.2574 3.99884 50.3294 4.30704C49.4013 4.61671 47.1297 6.16653 46.0974 5.9596C45.0651 5.75119 43.7229 6.16653 43.7229 7.29808C43.7229 8.43402 42.5893 8.12435 42.3823 7.19828C42.1767 6.26927 40.0093 6.78294 39.3911 6.16653C38.7714 5.54719 35.8816 5.85539 37.1194 6.57747C38.3573 7.29808 38.4616 8.02015 38.4616 9.1561C38.4616 10.292 39.3911 9.97944 39.3911 11.3238C39.3911 12.6608 40.4219 11.7347 41.1444 11.7347C41.8669 11.7347 41.8669 12.9763 40.7332 13.1774C39.5981 13.3843 39.0812 14.0008 38.7714 15.0384C38.4616 16.0686 37.4307 15.3436 36.5027 16.1699C35.5732 16.9977 34.7479 17.821 34.1268 17.4071C33.5086 16.9991 32.9932 17.3073 32.2707 17.7183C31.5482 18.1292 31.2384 17.7183 30.2061 16.8935C29.4337 16.2741 28.9491 14.783 27.5791 13.4254C26.7626 13.8129 25.1048 14.4117 24.2134 14.4117C23.0093 14.4117 19.2267 14.1358 19.0211 14.7918C18.8155 15.442 19.2972 16.5427 19.9154 16.6762C20.535 16.8171 21.8405 17.1943 20.6041 18.0881C19.3662 18.9775 18.2649 17.7799 18.2649 19.9417C18.2649 22.108 21.0431 23.5125 20.466 25.5114C20.1679 26.5402 19.7597 29.1834 19.7597 30.1975C19.7597 31.2132 19.3559 34.6665 18.4411 34.8661C17.5262 35.073 16.7127 34.0589 15.4925 35.073C14.2722 36.0886 12.7494 35.4781 11.3265 36.5994C9.90364 37.7133 8.37942 37.3068 8.27809 38.6291C8.1753 39.95 6.85666 40.6618 7.16062 41.8799C7.46606 43.098 6.54976 42.7942 5.63493 43.7086C4.72157 44.6229 5.73625 45.2305 5.12539 45.9438C4.51452 46.6556 5.3295 47.7695 6.04021 48.8878C6.75093 50.0062 7.56591 50.8163 7.46459 51.8349C7.3618 52.849 8.17384 53.2585 9.19145 53.1528C10.2076 53.053 9.39263 55.0842 11.0211 55.0842C12.6467 55.0842 14.2722 55.4907 14.6804 54.5779C15.0872 53.6621 16.2047 52.9517 16.2047 54.2726C16.2047 55.5905 15.8992 59.1495 17.0167 58.743C18.1356 58.3365 20.372 58.4333 21.491 58.8413C22.607 59.2479 23.7245 58.8413 24.4366 58.131C25.1488 57.4221 25.9609 57.4251 27.3823 56.6105C28.8067 55.7945 30.1268 54.7819 31.4513 54.7819C32.7714 54.7819 35.0078 53.9659 34.7009 54.9815C34.3955 55.9985 34.1943 59.7586 35.8199 61.6871C37.4454 63.617 38.3588 64.3288 39.8845 64.1263C41.4102 63.9208 41.2061 64.7324 42.325 64.6355C43.4425 64.5343 42.7318 65.8522 43.7494 65.8522C44.7641 65.8522 46.5922 66.0562 46.5922 67.1716C46.5922 68.2914 49.6436 67.3771 50.3558 67.9862C51.0665 68.5938 51.8786 69.103 51.6759 70.3212C51.4704 71.5422 53.2002 72.4566 52.1855 72.9629C51.1664 73.4707 52.4894 74.4863 52.5908 75.8072C52.6906 77.1266 54.115 77.6358 56.3514 77.5331C58.5863 77.4362 59.1987 77.6358 59.1987 79.2634C59.1987 80.8852 60.7214 81.0906 61.2295 82.6155C61.7391 84.1375 60.6201 85.8634 60.8242 87.0845C60.9784 88.0208 60.4131 89.0115 59.7772 89.4209C60.5614 90.4204 60.626 90.8695 59.9226 91.2569C58.996 91.7721 61.0592 93.2148 60.5438 95.4822C60.0283 97.7556 59.9255 98.1651 62.3 98.2678C64.67 98.372 64.4645 99.0926 65.2897 98.576C66.1164 98.0594 67.3528 100.33 67.6627 101.47C67.9725 102.602 68.9006 105.28 69.3132 105.28C69.7288 105.28 70.9652 104.041 72.203 104.664C73.3543 105.238 71.9196 109.112 71.8785 110.81C72.739 110.779 73.7919 110.782 74.1399 110.957C74.7581 111.27 75.0665 115.435 74.7596 116.208C74.4497 116.977 71.8991 117.671 70.5878 118.521C69.2765 119.371 66.1091 122.381 64.6407 124.775C63.7728 126.194 62.5026 127.365 61.6098 128.388C62.0342 128.45 62.3925 128.434 62.6333 128.326C63.3279 128.015 64.4101 128.015 65.5687 129.404C66.7288 130.795 66.6509 131.877 67.1135 131.8C67.5775 131.72 68.1194 129.947 69.0445 131.26C69.971 132.571 72.3646 133.575 72.905 134.193C73.4453 134.81 75.2221 135.274 75.2221 136.894C75.2221 138.054 74.6744 140.248 75.5834 142.106C76.021 141.537 76.5187 140.989 77.1898 140.511Z" fill="white"/>
<path fill-rule="evenodd" clip-rule="evenodd" d="M77.1898 140.511C79.3249 138.984 78.7919 138.073 79.7801 136.246C80.7728 134.416 79.9343 133.655 81.6127 132.054C83.2897 130.456 81.3073 129.389 83.4409 128.398C85.5775 127.408 85.272 129.314 83.5187 131.521C81.7654 133.733 81.46 134.341 83.7463 132.665C86.0327 130.989 86.8711 128.626 88.1678 125.959C89.4629 123.292 90.4556 122.456 91.598 122.302C92.739 122.151 92.739 119.333 92.5877 117.353C92.435 115.369 91.8256 113.541 92.6626 112.246C93.5011 110.951 92.6626 109.734 93.7316 109.734C94.7992 109.734 96.3998 108.132 98.0752 106.456C99.7536 104.781 100.821 104.629 102.573 104.474C104.326 104.322 103.337 103.711 104.479 103.409C105.621 103.105 106.385 102.037 107.147 101.35C107.909 100.666 111.034 101.428 112.864 101.428C114.695 101.428 115.912 101.58 115.912 100.438C115.912 99.2952 116.751 98.3794 117.82 98.3794C118.884 98.3794 119.344 98.0785 119.344 96.5521C119.344 95.0302 119.801 94.1144 120.714 93.4276C121.63 92.7436 121.783 91.2202 122.088 90.2296C122.394 89.2389 123.382 89.8451 123.382 88.4024C123.382 86.9538 123.917 85.3556 123.917 84.2108C123.917 83.0705 125.135 83.2187 125.67 82.3807C126.204 81.5441 125.212 80.4801 126.05 78.1158C126.889 75.7543 126.05 73.5455 126.05 71.4131C126.05 69.2791 126.05 67.0689 126.814 66.3806C127.577 65.6966 127.196 65.3165 126.586 65.0083C125.975 64.706 126.663 63.868 127.196 64.0221C127.729 64.1718 128.338 65.3165 129.331 64.706C130.322 64.0955 131.235 61.5051 132.074 59.3726C132.914 57.2387 134.285 57.3165 135.351 56.86C136.42 56.4007 138.708 53.8118 140.154 50.0766C141.602 46.3444 140.077 42.6886 139.467 40.0997C138.856 37.5049 138.018 38.0391 136.497 38.1154C134.971 38.1932 132.074 37.8116 128.263 33.6964C124.453 29.5811 120.715 29.8864 118.201 30.5733C115.685 31.2601 113.094 29.3537 111.416 28.9735C109.739 28.592 108.138 30.7244 106.92 31.1823C105.698 31.6388 107.529 29.3537 107.605 27.9066C107.682 26.458 103.031 24.4019 99.5246 23.0311C96.0194 21.6589 94.4937 22.3457 94.4937 24.5545C94.4937 26.7648 93.1222 23.8676 92.0547 26.2335C90.9857 28.5934 89.0033 27.0686 90.3014 26.3083C91.5965 25.5466 92.8153 23.7913 93.2735 22.3472C93.7316 20.9001 88.2427 19.7524 86.3381 20.5185C84.4306 21.2802 85.6494 24.0232 84.1267 23.1852C82.601 22.3472 83.8212 20.2866 85.0415 20.3659C86.2618 20.4422 87.6347 17.9281 88.4717 16.0995C89.3102 14.2693 87.0239 13.9626 85.6509 12.4421C84.2955 10.9349 84.576 6.53931 83.1854 5.84365C81.692 7.32009 79.6876 9.62721 79.1223 11.3209C78.3983 13.4871 77.4703 12.2469 75.5099 12.8692C73.5496 13.4871 72.6201 12.6579 72.1047 11.8375C71.5892 11.0068 69.626 11.8375 68.2868 11.7333C66.9446 11.6291 67.7684 13.3829 66.8404 13.9024C65.9123 14.4161 63.5379 12.8707 62.7126 13.7997C61.8874 14.7272 61.3719 13.7997 60.9593 14.6245C60.5452 15.4478 59.1003 14.9342 58.6877 15.4478C58.2736 15.9644 56.8316 16.2726 54.9711 14.2092C53.115 12.1515 53.4234 8.74369 54.2501 8.12582C55.0739 7.50795 55.0739 5.75266 53.9388 5.23459C52.8037 4.72238 53.9388 2.55322 52.4968 2.34922C51.0504 2.14375 51.2574 3.99884 50.3294 4.30704C49.4013 4.61671 47.1297 6.16653 46.0974 5.9596C45.0651 5.75119 43.7229 6.16653 43.7229 7.29808C43.7229 8.43402 42.5893 8.12435 42.3823 7.19828C42.1767 6.26927 40.0093 6.78294 39.3911 6.16653C38.7714 5.54719 35.8816 5.85539 37.1194 6.57747C38.3573 7.29808 38.4616 8.02015 38.4616 9.1561C38.4616 10.292 39.3911 9.97944 39.3911 11.3238C39.3911 12.6608 40.4219 11.7347 41.1444 11.7347C41.8669 11.7347 41.8669 12.9763 40.7332 13.1774C39.5981 13.3843 39.0812 14.0008 38.7714 15.0384C38.4616 16.0686 37.4307 15.3436 36.5027 16.1699C35.5732 16.9977 34.7479 17.821 34.1268 17.4071C33.5086 16.9991 32.9932 17.3073 32.2707 17.7183C31.5482 18.1292 31.2384 17.7183 30.2061 16.8935C29.4337 16.2741 28.9491 14.783 27.5791 13.4254C26.7626 13.8129 25.1048 14.4117 24.2134 14.4117C23.0093 14.4117 19.2267 14.1358 19.0211 14.7918C18.8155 15.442 19.2972 16.5427 19.9154 16.6762C20.535 16.8171 21.8405 17.1943 20.6041 18.0881C19.3662 18.9775 18.2649 17.7799 18.2649 19.9417C18.2649 22.108 21.0431 23.5125 20.466 25.5114C20.1679 26.5402 19.7597 29.1834 19.7597 30.1975C19.7597 31.2132 19.3559 34.6665 18.4411 34.8661C17.5262 35.073 16.7127 34.0589 15.4925 35.073C14.2722 36.0886 12.7494 35.4781 11.3265 36.5994C9.90364 37.7133 8.37942 37.3068 8.27809 38.6291C8.1753 39.95 6.85666 40.6618 7.16062 41.8799C7.46606 43.098 6.54976 42.7942 5.63493 43.7086C4.72157 44.6229 5.73625 45.2305 5.12539 45.9438C4.51452 46.6556 5.3295 47.7695 6.04021 48.8878C6.75093 50.0062 7.56591 50.8163 7.46459 51.8349C7.3618 52.849 8.17384 53.2585 9.19145 53.1528C10.2076 53.053 9.39263 55.0842 11.0211 55.0842C12.6467 55.0842 14.2722 55.4907 14.6804 54.5779C15.0872 53.6621 16.2047 52.9517 16.2047 54.2726C16.2047 55.5905 15.8992 59.1495 17.0167 58.743C18.1356 58.3365 20.372 58.4333 21.491 58.8413C22.607 59.2479 23.7245 58.8413 24.4366 58.131C25.1488 57.4221 25.9609 57.4251 27.3823 56.6105C28.8067 55.7945 30.1268 54.7819 31.4513 54.7819C32.7714 54.7819 35.0078 53.9659 34.7009 54.9815C34.3955 55.9985 34.1943 59.7586 35.8199 61.6871C37.4454 63.617 38.3588 64.3288 39.8845 64.1263C41.4102 63.9208 41.2061 64.7324 42.325 64.6355C43.4425 64.5343 42.7318 65.8522 43.7494 65.8522C44.7641 65.8522 46.5922 66.0562 46.5922 67.1716C46.5922 68.2914 49.6436 67.3771 50.3558 67.9862C51.0665 68.5938 51.8786 69.103 51.6759 70.3212C51.4704 71.5422 53.2002 72.4566 52.1855 72.9629C51.1664 73.4707 52.4894 74.4863 52.5908 75.8072C52.6906 77.1266 54.115 77.6358 56.3514 77.5331C58.5863 77.4362 59.1987 77.6358 59.1987 79.2634C59.1987 80.8852 60.7214 81.0906 61.2295 82.6155C61.7391 84.1375 60.6201 85.8634 60.8242 87.0845C60.9784 88.0208 60.4131 89.0115 59.7772 89.4209C60.5614 90.4204 60.626 90.8695 59.9226 91.2569C58.996 91.7721 61.0592 93.2148 60.5438 95.4822C60.0283 97.7556 59.9255 98.1651 62.3 98.2678C64.67 98.372 64.4645 99.0926 65.2897 98.576C66.1164 98.0594 67.3528 100.33 67.6627 101.47C67.9725 102.602 68.9006 105.28 69.3132 105.28C69.7288 105.28 70.9652 104.041 72.203 104.664C73.3543 105.238 71.9196 109.112 71.8785 110.81C72.739 110.779 73.7919 110.782 74.1399 110.957C74.7581 111.27 75.0665 115.435 74.7596 116.208C74.4497 116.977 71.8991 117.671 70.5878 118.521C69.2765 119.371 66.1091 122.381 64.6407 124.775C63.7728 126.194 62.5026 127.365 61.6098 128.388C62.0342 128.45 62.3925 128.434 62.6333 128.326C63.3279 128.015 64.4101 128.015 65.5687 129.404C66.7288 130.795 66.6509 131.877 67.1135 131.8C67.5775 131.72 68.1194 129.947 69.0445 131.26C69.971 132.571 72.3646 133.575 72.905 134.193C73.4453 134.81 75.2221 135.274 75.2221 136.894C75.2221 138.054 74.6744 140.248 75.5834 142.106C76.021 141.537 76.5187 140.989 77.1898 140.511Z" stroke="#868686" stroke-width="0.25"/>
</g>
<defs>
<filter id="filter0_d_6252_1143" x="0.785645" y="0.208374" width="144.099" height="148.134" filterUnits="userSpaceOnUse" color-interpolation-filters="sRGB">
<feFlood flood-opacity="0" result="BackgroundImageFix"/>
<feColorMatrix in="SourceAlpha" type="matrix" values="0 0 0 0 0 0 0 0 0 0 0 0 0 0 0 0 0 0 127 0" result="hardAlpha"/>
<feOffset dy="2"/>
<feGaussianBlur stdDeviation="2"/>
<feColorMatrix type="matrix" values="0 0 0 0 0 0 0 0 0 0 0 0 0 0 0 0 0 0 0.01 0"/>
<feBlend mode="normal" in2="BackgroundImageFix" result="effect1_dropShadow_6252_1143"/>
<feBlend mode="normal" in="SourceGraphic" in2="effect1_dropShadow_6252_1143" result="shape"/>
</filter>
</defs>
</svg>
