<svg width="33" height="39" viewBox="0 0 33 39" fill="none" xmlns="http://www.w3.org/2000/svg">
<g filter="url(#filter0_d_6252_1071)">
<path fill-rule="evenodd" clip-rule="evenodd" d="M11.1522 30.7642C11.7865 30.9785 12.2124 32.0381 13.487 30.9785C14.7615 29.913 16.2505 30.1272 16.2505 31.1927C16.2505 32.2553 16.6764 32.0396 17.7395 30.9785C18.7997 29.913 19.8614 31.1898 19.8614 29.0617C19.8614 26.9395 21.1374 28.8504 21.1374 26.5154C21.1374 24.1804 21.3489 21.8424 21.3489 20.7828C21.3489 19.7202 24.3239 18.6591 24.3239 16.9611C24.3239 15.2616 26.8746 11.864 26.8746 9.73741C26.8746 7.61668 27.5148 7.18959 28.1506 6.12703C28.5926 5.39321 28.9157 3.94759 28.6617 2.56655V2.59297L25.691 2.16882L24.2109 2.59297L22.3019 3.01271C22.3019 3.01271 22.5163 4.49942 21.6661 5.55612C20.8173 6.61869 20.6059 8.94635 20.6059 8.94635C20.6059 8.94635 16.7894 7.0399 15.7307 7.25124C15.2784 7.34223 13.5545 7.31875 11.7234 7.25857C11.5501 8.67631 11.3592 10.3347 11.3592 10.8C11.3592 11.6468 13.6984 9.94874 14.7601 10.8C15.8232 11.6468 15.6132 12.9251 14.3372 13.5591C13.0611 14.1975 13.9099 15.6828 14.9745 16.3241C16.0376 16.9626 15.8232 18.2321 15.8232 19.9345C15.8232 21.6311 15.8232 23.7562 14.7601 23.9705C13.6969 24.1804 13.0611 23.3321 12.2109 23.5434C11.3592 23.7562 11.1507 21.4212 10.299 21.4212C9.44878 21.4212 9.8761 23.3336 8.81149 23.3336C7.74982 23.3336 6.04938 23.1193 6.68521 24.8173C7.32544 26.5168 7.96127 27.5794 6.26083 27.5794C5.4576 27.5794 4.94659 28.0564 4.62207 28.5613C4.73661 28.6537 4.85114 28.7477 4.9833 28.8475C6.40768 29.9482 7.31369 31.2059 7.9275 32.4725C9.34453 31.5053 10.7997 30.6482 11.1522 30.7642Z" fill="white"/>
<path fill-rule="evenodd" clip-rule="evenodd" d="M11.1522 30.7642C11.7865 30.9785 12.2124 32.0381 13.487 30.9785C14.7615 29.913 16.2505 30.1272 16.2505 31.1927C16.2505 32.2553 16.6764 32.0396 17.7395 30.9785C18.7997 29.913 19.8614 31.1898 19.8614 29.0617C19.8614 26.9395 21.1374 28.8504 21.1374 26.5154C21.1374 24.1804 21.3489 21.8424 21.3489 20.7828C21.3489 19.7202 24.3239 18.6591 24.3239 16.9611C24.3239 15.2616 26.8746 11.864 26.8746 9.73741C26.8746 7.61668 27.5148 7.18959 28.1506 6.12703C28.5926 5.39321 28.9157 3.94759 28.6617 2.56655V2.59297L25.691 2.16882L24.2109 2.59297L22.3019 3.01271C22.3019 3.01271 22.5163 4.49942 21.6661 5.55612C20.8173 6.61869 20.6059 8.94635 20.6059 8.94635C20.6059 8.94635 16.7894 7.0399 15.7307 7.25124C15.2784 7.34223 13.5545 7.31875 11.7234 7.25857C11.5501 8.67631 11.3592 10.3347 11.3592 10.8C11.3592 11.6468 13.6984 9.94874 14.7601 10.8C15.8232 11.6468 15.6132 12.9251 14.3372 13.5591C13.0611 14.1975 13.9099 15.6828 14.9745 16.3241C16.0376 16.9626 15.8232 18.2321 15.8232 19.9345C15.8232 21.6311 15.8232 23.7562 14.7601 23.9705C13.6969 24.1804 13.0611 23.3321 12.2109 23.5434C11.3592 23.7562 11.1507 21.4212 10.299 21.4212C9.44878 21.4212 9.8761 23.3336 8.81149 23.3336C7.74982 23.3336 6.04938 23.1193 6.68521 24.8173C7.32544 26.5168 7.96127 27.5794 6.26083 27.5794C5.4576 27.5794 4.94659 28.0564 4.62207 28.5613C4.73661 28.6537 4.85114 28.7477 4.9833 28.8475C6.40768 29.9482 7.31369 31.2059 7.9275 32.4725C9.34453 31.5053 10.7997 30.6482 11.1522 30.7642Z" stroke="#868686" stroke-width="0.25"/>
</g>
<defs>
<filter id="filter0_d_6252_1071" x="0.456055" y="0.0412598" width="32.4199" height="38.6162" filterUnits="userSpaceOnUse" color-interpolation-filters="sRGB">
<feFlood flood-opacity="0" result="BackgroundImageFix"/>
<feColorMatrix in="SourceAlpha" type="matrix" values="0 0 0 0 0 0 0 0 0 0 0 0 0 0 0 0 0 0 127 0" result="hardAlpha"/>
<feOffset dy="2"/>
<feGaussianBlur stdDeviation="2"/>
<feColorMatrix type="matrix" values="0 0 0 0 0 0 0 0 0 0 0 0 0 0 0 0 0 0 0.01 0"/>
<feBlend mode="normal" in2="BackgroundImageFix" result="effect1_dropShadow_6252_1071"/>
<feBlend mode="normal" in="SourceGraphic" in2="effect1_dropShadow_6252_1071" result="shape"/>
</filter>
</defs>
</svg>
