<svg width="31" height="21" viewBox="0 0 31 21" fill="none" xmlns="http://www.w3.org/2000/svg">
<g filter="url(#filter0_d_6252_1105)">
<path fill-rule="evenodd" clip-rule="evenodd" d="M24.9556 7.8783C24.3859 7.54075 22.797 7.76529 22.681 7.31033C22.5724 6.85683 22.4578 6.06284 21.7765 6.06284C21.0937 6.06284 20.1862 5.61081 19.847 6.40186C19.5063 7.19879 18.1436 6.17438 18.0276 5.60787C17.9175 5.0399 17.3477 4.5864 15.7574 4.01696C15.1289 3.79241 14.4109 3.33745 13.7706 2.86487C13.7178 3.00283 13.6561 3.13051 13.5885 3.22884C13.2846 3.68821 12.217 2.84872 11.7604 3.30809C11.3007 3.76599 9.77652 3.83938 8.94098 4.60255C8.10104 5.36571 6.34628 5.74436 5.35656 5.97478C4.36684 6.2052 5.20531 7.1166 5.58563 7.80492C5.96742 8.4859 5.96742 10.1649 6.72953 10.7006C7.49312 11.2318 10.0071 12.833 10.311 13.3658C10.3624 13.4568 10.3316 13.5419 10.2684 13.6226C11.3257 13.9073 12.9747 13.9147 13.2596 13.4392C13.6003 12.8727 13.8294 11.8497 13.8294 11.8497C13.8294 11.8497 16.0996 11.8497 17.007 12.8727C17.916 13.8927 19.6194 13.2117 19.6194 13.2117C19.6194 13.2117 19.7133 13.5008 19.8675 13.9044C20.1128 13.3423 20.4329 12.8506 20.822 12.7919C21.7794 12.6569 23.1436 12.519 24.0995 11.1541C24.5959 10.4511 25.4123 9.89336 26.0907 9.51618C25.6326 8.95554 25.3947 8.14394 24.9556 7.8783Z" fill="white"/>
<path fill-rule="evenodd" clip-rule="evenodd" d="M24.9556 7.8783C24.3859 7.54075 22.797 7.76529 22.681 7.31033C22.5724 6.85683 22.4578 6.06284 21.7765 6.06284C21.0937 6.06284 20.1862 5.61081 19.847 6.40186C19.5063 7.19879 18.1436 6.17438 18.0276 5.60787C17.9175 5.0399 17.3477 4.5864 15.7574 4.01696C15.1289 3.79241 14.4109 3.33745 13.7706 2.86487C13.7178 3.00283 13.6561 3.13051 13.5885 3.22884C13.2846 3.68821 12.217 2.84872 11.7604 3.30809C11.3007 3.76599 9.77652 3.83938 8.94098 4.60255C8.10104 5.36571 6.34628 5.74436 5.35656 5.97478C4.36684 6.2052 5.20531 7.1166 5.58563 7.80492C5.96742 8.4859 5.96742 10.1649 6.72953 10.7006C7.49312 11.2318 10.0071 12.833 10.311 13.3658C10.3624 13.4568 10.3316 13.5419 10.2684 13.6226C11.3257 13.9073 12.9747 13.9147 13.2596 13.4392C13.6003 12.8727 13.8294 11.8497 13.8294 11.8497C13.8294 11.8497 16.0996 11.8497 17.007 12.8727C17.916 13.8927 19.6194 13.2117 19.6194 13.2117C19.6194 13.2117 19.7133 13.5008 19.8675 13.9044C20.1128 13.3423 20.4329 12.8506 20.822 12.7919C21.7794 12.6569 23.1436 12.519 24.0995 11.1541C24.5959 10.4511 25.4123 9.89336 26.0907 9.51618C25.6326 8.95554 25.3947 8.14394 24.9556 7.8783Z" stroke="#868686" stroke-width="0.25"/>
</g>
<defs>
<filter id="filter0_d_6252_1105" x="0.766113" y="0.666748" width="29.5161" height="19.5679" filterUnits="userSpaceOnUse" color-interpolation-filters="sRGB">
<feFlood flood-opacity="0" result="BackgroundImageFix"/>
<feColorMatrix in="SourceAlpha" type="matrix" values="0 0 0 0 0 0 0 0 0 0 0 0 0 0 0 0 0 0 127 0" result="hardAlpha"/>
<feOffset dy="2"/>
<feGaussianBlur stdDeviation="2"/>
<feColorMatrix type="matrix" values="0 0 0 0 0 0 0 0 0 0 0 0 0 0 0 0 0 0 0.01 0"/>
<feBlend mode="normal" in2="BackgroundImageFix" result="effect1_dropShadow_6252_1105"/>
<feBlend mode="normal" in="SourceGraphic" in2="effect1_dropShadow_6252_1105" result="shape"/>
</filter>
</defs>
</svg>
