<svg width="40" height="44" viewBox="0 0 40 44" fill="none" xmlns="http://www.w3.org/2000/svg">
<g filter="url(#filter0_d_6252_1120)">
<path fill-rule="evenodd" clip-rule="evenodd" d="M8.26606 12.0664C7.44962 13.2816 6.33509 13.3843 6.53479 13.6867C6.74184 13.9919 7.9621 15.009 7.6552 15.5168C7.34977 16.0261 6.94301 15.7223 6.94301 16.6351C6.94301 17.5495 5.51864 17.5495 5.0135 17.5495C4.50249 17.5495 5.11336 18.4653 4.80939 19.1741C4.50249 19.883 4.50249 21.3066 4.40117 21.9157C4.30279 22.5262 5.41879 23.5418 5.31747 24.0481C5.21908 24.5589 4.40117 24.9639 4.60969 25.3675C4.79764 25.7565 5.53039 26.3362 5.69485 28.2133C6.04581 28.316 6.33362 28.4481 6.4599 28.6184C6.91952 29.2274 7.68163 29.6839 8.66988 29.6839C9.66107 29.6839 10.0458 30.3722 10.501 30.2944C10.9592 30.2181 12.1794 30.6026 11.1897 31.4377C10.1985 32.2757 10.0458 33.2663 9.81672 34.2555C9.66694 34.8984 9.67575 35.7892 9.51716 36.3396C10.4849 36.4247 11.9151 36.4951 12.4335 36.2383C13.247 35.8332 13.7536 35.8332 14.7697 36.1385C15.3762 36.319 16.1882 36.7153 16.755 37.0044C16.8167 36.7989 16.9254 36.6434 17.1309 36.6184C17.8196 36.5436 18.6596 37.9129 19.1148 37.1497C19.5744 36.388 20.639 36.5436 21.1721 36.8459C21.7066 37.1497 22.545 37.3053 23.1559 36.6933C23.7653 36.0842 26.128 35.7804 26.6625 36.0079C27.197 36.2368 28.567 36.8444 28.034 35.0158C27.501 33.1886 29.1764 33.5701 29.407 32.8833C29.6346 32.1979 31.617 31.8956 31.313 31.3614C31.009 30.8286 28.4936 29.2274 27.7315 28.6961C26.9679 28.1619 26.9679 26.4815 26.5876 25.8005C26.2073 25.1122 25.3673 24.1993 26.3585 23.9704C27.3497 23.7414 29.103 23.3613 29.943 22.5981C30.7785 21.835 32.3027 21.7616 32.7623 21.3037C33.2205 20.8443 34.2866 21.6853 34.5905 21.2244C34.896 20.768 35.1221 19.8536 34.6698 19.3209C34.2102 18.7881 33.9048 17.8738 33.8313 16.5808C33.7535 15.2849 33.3717 15.3598 33.3717 14.7507C33.3717 14.1402 33.1441 13.3799 32.6081 13.0717C32.0766 12.7694 31.8475 12.5419 32.3805 11.7024C32.9151 10.8629 32.6845 8.73046 32.4554 8.12286C32.4114 8.00105 32.4158 7.85722 32.4407 7.70605C32.3027 7.64148 32.1941 7.50646 32.1529 7.28338C32.0002 6.47031 31.4437 6.16651 30.1206 6.16651C28.7976 6.16651 30.9327 4.84564 30.4231 4.18374C29.9165 3.52624 28.5949 5.40187 27.3776 4.99534C26.1559 4.59321 24.5832 6.42188 23.5157 7.23201C22.4466 8.04654 20.9224 7.08084 21.7359 5.91114C22.548 4.74437 21.7359 4.84417 20.5142 5.30501C19.2954 5.76144 17.8226 5.20227 17.9738 4.08394C18.0135 3.80215 17.9224 3.54091 17.7741 3.29288C17.1779 3.37654 16.7198 3.39415 16.501 3.32224C15.9562 3.14318 14.7154 3.04485 13.363 3.01697C13.7668 3.60696 14.2044 4.1852 13.9591 4.6431C13.5039 5.50901 14.2147 6.32208 14.874 7.59011C15.5362 8.86108 13.454 8.14928 13.4026 8.96235C13.3498 9.77542 11.4731 8.91098 10.8608 8.60425C10.2528 8.30191 8.21908 8.50445 8.27047 9.01225C8.28956 9.21625 8.25725 9.49363 8.16768 9.73285C8.4364 10.7176 8.55828 11.6232 8.26606 12.0664Z" fill="white"/>
<path fill-rule="evenodd" clip-rule="evenodd" d="M8.26606 12.0664C7.44962 13.2816 6.33509 13.3843 6.53479 13.6867C6.74184 13.9919 7.9621 15.009 7.6552 15.5168C7.34977 16.0261 6.94301 15.7223 6.94301 16.6351C6.94301 17.5495 5.51864 17.5495 5.0135 17.5495C4.50249 17.5495 5.11336 18.4653 4.80939 19.1741C4.50249 19.883 4.50249 21.3066 4.40117 21.9157C4.30279 22.5262 5.41879 23.5418 5.31747 24.0481C5.21908 24.5589 4.40117 24.9639 4.60969 25.3675C4.79764 25.7565 5.53039 26.3362 5.69485 28.2133C6.04581 28.316 6.33362 28.4481 6.4599 28.6184C6.91952 29.2274 7.68163 29.6839 8.66988 29.6839C9.66107 29.6839 10.0458 30.3722 10.501 30.2944C10.9592 30.2181 12.1794 30.6026 11.1897 31.4377C10.1985 32.2757 10.0458 33.2663 9.81672 34.2555C9.66694 34.8984 9.67575 35.7892 9.51716 36.3396C10.4849 36.4247 11.9151 36.4951 12.4335 36.2383C13.247 35.8332 13.7536 35.8332 14.7697 36.1385C15.3762 36.319 16.1882 36.7153 16.755 37.0044C16.8167 36.7989 16.9254 36.6434 17.1309 36.6184C17.8196 36.5436 18.6596 37.9129 19.1148 37.1497C19.5744 36.388 20.639 36.5436 21.1721 36.8459C21.7066 37.1497 22.545 37.3053 23.1559 36.6933C23.7653 36.0842 26.128 35.7804 26.6625 36.0079C27.197 36.2368 28.567 36.8444 28.034 35.0158C27.501 33.1886 29.1764 33.5701 29.407 32.8833C29.6346 32.1979 31.617 31.8956 31.313 31.3614C31.009 30.8286 28.4936 29.2274 27.7315 28.6961C26.9679 28.1619 26.9679 26.4815 26.5876 25.8005C26.2073 25.1122 25.3673 24.1993 26.3585 23.9704C27.3497 23.7414 29.103 23.3613 29.943 22.5981C30.7785 21.835 32.3027 21.7616 32.7623 21.3037C33.2205 20.8443 34.2866 21.6853 34.5905 21.2244C34.896 20.768 35.1221 19.8536 34.6698 19.3209C34.2102 18.7881 33.9048 17.8738 33.8313 16.5808C33.7535 15.2849 33.3717 15.3598 33.3717 14.7507C33.3717 14.1402 33.1441 13.3799 32.6081 13.0717C32.0766 12.7694 31.8475 12.5419 32.3805 11.7024C32.9151 10.8629 32.6845 8.73046 32.4554 8.12286C32.4114 8.00105 32.4158 7.85722 32.4407 7.70605C32.3027 7.64148 32.1941 7.50646 32.1529 7.28338C32.0002 6.47031 31.4437 6.16651 30.1206 6.16651C28.7976 6.16651 30.9327 4.84564 30.4231 4.18374C29.9165 3.52624 28.5949 5.40187 27.3776 4.99534C26.1559 4.59321 24.5832 6.42188 23.5157 7.23201C22.4466 8.04654 20.9224 7.08084 21.7359 5.91114C22.548 4.74437 21.7359 4.84417 20.5142 5.30501C19.2954 5.76144 17.8226 5.20227 17.9738 4.08394C18.0135 3.80215 17.9224 3.54091 17.7741 3.29288C17.1779 3.37654 16.7198 3.39415 16.501 3.32224C15.9562 3.14318 14.7154 3.04485 13.363 3.01697C13.7668 3.60696 14.2044 4.1852 13.9591 4.6431C13.5039 5.50901 14.2147 6.32208 14.874 7.59011C15.5362 8.86108 13.454 8.14928 13.4026 8.96235C13.3498 9.77542 11.4731 8.91098 10.8608 8.60425C10.2528 8.30191 8.21908 8.50445 8.27047 9.01225C8.28956 9.21625 8.25725 9.49363 8.16768 9.73285C8.4364 10.7176 8.55828 11.6232 8.26606 12.0664Z" stroke="#868686" stroke-width="0.25"/>
</g>
<defs>
<filter id="filter0_d_6252_1120" x="0.27002" y="0.886963" width="38.7803" height="42.6199" filterUnits="userSpaceOnUse" color-interpolation-filters="sRGB">
<feFlood flood-opacity="0" result="BackgroundImageFix"/>
<feColorMatrix in="SourceAlpha" type="matrix" values="0 0 0 0 0 0 0 0 0 0 0 0 0 0 0 0 0 0 127 0" result="hardAlpha"/>
<feOffset dy="2"/>
<feGaussianBlur stdDeviation="2"/>
<feColorMatrix type="matrix" values="0 0 0 0 0 0 0 0 0 0 0 0 0 0 0 0 0 0 0.01 0"/>
<feBlend mode="normal" in2="BackgroundImageFix" result="effect1_dropShadow_6252_1120"/>
<feBlend mode="normal" in="SourceGraphic" in2="effect1_dropShadow_6252_1120" result="shape"/>
</filter>
</defs>
</svg>
