<svg width="25" height="25" viewBox="0 0 25 25" fill="none" xmlns="http://www.w3.org/2000/svg">
<g filter="url(#filter0_d_6252_1239)">
<path fill-rule="evenodd" clip-rule="evenodd" d="M12.3421 8.49026C11.8311 8.23929 11.6285 6.61022 12.2379 6.10536C12.8472 5.59755 13.1042 3.66322 12.5947 3.15688C12.0895 2.64761 10.2555 3.15688 10.1028 4.52765C9.95151 5.89989 8.47868 5.28935 8.07193 5.59462C7.66518 5.89989 8.88397 6.50896 8.22318 7.11949C7.56239 7.73003 7.30835 6.20516 6.24227 6.10682C5.17326 6.00262 5.07194 7.72856 4.5154 8.59446C3.95446 9.45743 4.30982 11.2861 4.5154 12.5057C4.71805 13.7224 6.19234 14.4855 5.83405 15.5011C5.67105 15.9737 6.00292 16.505 6.35681 17.0231C7.70923 17.051 8.95005 17.1493 9.49483 17.3283C9.71363 17.4017 10.1703 17.3826 10.768 17.299C10.3201 16.5725 9.31715 15.9811 9.39351 15.4498C9.49483 14.7438 10.4596 15.1929 11.1732 15.8035C11.881 16.4125 13.4596 16.5153 13.6094 15.7536C13.7033 15.2854 13.3583 13.1118 12.3906 13.6211C11.4243 14.1304 11.1718 13.9264 10.8149 13.4171C10.4581 12.9078 11.5257 12.0977 11.7812 11.2846C12.0323 10.4701 13.7107 10.7724 13.9662 10.1149C14.2246 9.45596 12.8472 8.74563 12.3421 8.49026ZM20.018 11.5884C19.6098 11.3331 19.3058 12.2988 18.8477 12.4015C18.3895 12.5042 17.8829 10.4716 17.6773 11.5884C17.4732 12.7082 16.4586 11.132 15.4424 12.5512C14.4248 13.9778 16.0518 15.2443 16.7625 15.7037C17.4732 16.1601 16.7126 16.8191 15.7978 16.6166C14.8829 16.414 15.4424 17.933 16.7126 18.14C17.9813 18.3425 19.3543 15.9062 19.203 15.2957C19.0489 14.6881 20.4982 11.8878 20.018 11.5884Z" fill="white"/>
<path d="M12.3421 8.49026L12.3985 8.3787L12.3972 8.37806L12.3421 8.49026ZM12.2379 6.10536L12.3176 6.20161L12.3179 6.20139L12.2379 6.10536ZM12.5947 3.15688L12.5059 3.24491L12.5066 3.24555L12.5947 3.15688ZM10.1028 4.52765L9.97853 4.51381L9.97851 4.51396L10.1028 4.52765ZM6.24227 6.10682L6.23014 6.23124L6.23079 6.2313L6.24227 6.10682ZM4.5154 8.59446L4.62021 8.66259L4.62056 8.66205L4.5154 8.59446ZM4.5154 12.5057L4.6387 12.4852L4.63866 12.4849L4.5154 12.5057ZM5.83405 15.5011L5.71617 15.4596L5.71588 15.4604L5.83405 15.5011ZM6.35681 17.0231L6.25359 17.0936L6.28989 17.1467L6.35423 17.148L6.35681 17.0231ZM9.49483 17.3283L9.53458 17.2098L9.53386 17.2096L9.49483 17.3283ZM10.768 17.299L10.7853 17.4228L10.9748 17.3963L10.8744 17.2334L10.768 17.299ZM9.39351 15.4498L9.51724 15.4676L9.51724 15.4675L9.39351 15.4498ZM11.1732 15.8035L11.2548 15.7087L11.2545 15.7085L11.1732 15.8035ZM13.6094 15.7536L13.4868 15.729L13.4867 15.7295L13.6094 15.7536ZM12.3906 13.6211L12.3324 13.5105L12.3323 13.5105L12.3906 13.6211ZM11.7812 11.2846L11.9004 11.3221L11.9006 11.3215L11.7812 11.2846ZM13.9662 10.1149L13.8498 10.0693L13.8497 10.0697L13.9662 10.1149ZM20.018 11.5884L19.9517 11.6944L19.9519 11.6945L20.018 11.5884ZM17.6773 11.5884L17.5544 11.5658L17.5544 11.566L17.6773 11.5884ZM15.4424 12.5512L15.3408 12.4784L15.3406 12.4786L15.4424 12.5512ZM16.7625 15.7037L16.6947 15.8087L16.695 15.8089L16.7625 15.7037ZM16.7126 18.14L16.6925 18.2633L16.6929 18.2634L16.7126 18.14ZM19.203 15.2957L19.3244 15.2656L19.3242 15.2649L19.203 15.2957ZM12.3972 8.37806C12.3106 8.33552 12.2174 8.22136 12.14 8.03481C12.0646 7.8533 12.0128 7.62372 11.9945 7.38349C11.9761 7.14335 11.9916 6.89867 12.0462 6.68691C12.1012 6.47379 12.1928 6.30503 12.3176 6.20161L12.1581 6.0091C11.9782 6.15812 11.8666 6.38231 11.8042 6.62448C11.7413 6.86801 11.7252 7.14094 11.7452 7.40255C11.7652 7.66407 11.8218 7.92036 11.9091 8.13067C11.9943 8.33593 12.1181 8.51951 12.287 8.60246L12.3972 8.37806ZM12.3179 6.20139C12.4938 6.0548 12.6337 5.816 12.7388 5.54711C12.8449 5.2754 12.9204 4.95992 12.9599 4.64616C12.9993 4.33263 13.0033 4.01586 12.9633 3.74172C12.9239 3.47211 12.839 3.22345 12.6828 3.06821L12.5066 3.24555C12.6051 3.34348 12.6792 3.52649 12.7159 3.77784C12.7519 4.02466 12.7492 4.31815 12.7118 4.61498C12.6746 4.91157 12.6034 5.20653 12.5059 5.45615C12.4073 5.7086 12.2866 5.90201 12.1578 6.00933L12.3179 6.20139ZM12.6834 3.06885C12.5243 2.90842 12.2763 2.84107 12.0149 2.83846C11.75 2.83581 11.4512 2.89897 11.1667 3.02261C10.5995 3.26911 10.0614 3.77007 9.97853 4.51381L10.227 4.54149C10.2968 3.91446 10.7521 3.4754 11.2664 3.25189C11.5226 3.14053 11.7867 3.08619 12.0124 3.08845C12.2418 3.09074 12.4125 3.15071 12.5059 3.24491L12.6834 3.06885ZM9.97851 4.51396C9.94339 4.83264 9.83419 5.01953 9.69799 5.13501C9.55865 5.25317 9.37524 5.31017 9.16701 5.3373C8.9557 5.36483 8.74263 5.35968 8.53507 5.36717C8.43463 5.3708 8.33543 5.37759 8.24629 5.39464C8.15792 5.41154 8.06933 5.44028 7.9969 5.49464L8.14696 5.6946C8.17622 5.67264 8.22263 5.65369 8.29325 5.64019C8.3631 5.62683 8.44688 5.62052 8.54408 5.61701C8.73181 5.61024 8.97267 5.61473 9.19931 5.5852C9.42904 5.55527 9.66762 5.48854 9.85968 5.32569C10.0549 5.16017 10.1865 4.90878 10.227 4.54135L9.97851 4.51396ZM7.9969 5.49464C7.9241 5.54928 7.87749 5.61984 7.86507 5.70463C7.85343 5.7841 7.87432 5.86016 7.90191 5.92485C7.92977 5.99016 7.96987 6.05606 8.01052 6.11848C8.05615 6.18855 8.09232 6.23954 8.13763 6.31011C8.2223 6.44199 8.285 6.56328 8.29675 6.6792C8.30734 6.78358 8.27799 6.89866 8.13835 7.02768L8.308 7.2113C8.49876 7.03505 8.56486 6.84505 8.54548 6.65398C8.52727 6.47444 8.43459 6.30991 8.348 6.17505C8.30769 6.11225 8.25426 6.03464 8.22001 5.98205C8.18079 5.92182 8.15074 5.87102 8.13186 5.82676C8.11272 5.78189 8.11028 5.75551 8.11243 5.74086C8.11379 5.73153 8.11807 5.71628 8.14696 5.6946L7.9969 5.49464ZM8.13835 7.02768C8.06614 7.0944 8.00876 7.12325 7.96417 7.13345C7.92187 7.14314 7.88102 7.13841 7.83511 7.11823C7.7318 7.07281 7.62295 6.96036 7.47851 6.79636C7.20832 6.48959 6.84547 6.03693 6.25375 5.98235L6.23079 6.2313C6.70515 6.27505 7.00236 6.63399 7.2909 6.9616C7.42583 7.1148 7.57102 7.27523 7.73451 7.34709C7.82199 7.38555 7.91773 7.40055 8.01996 7.37715C8.11991 7.35427 8.21502 7.29722 8.308 7.2113L8.13835 7.02768ZM6.2544 5.98241C5.94756 5.9525 5.7057 6.05603 5.51346 6.23932C5.32645 6.41764 5.18813 6.66941 5.07199 6.9371C4.95593 7.20458 4.85494 7.50581 4.75247 7.78238C4.64821 8.06379 4.54142 8.32279 4.41025 8.52688L4.62056 8.66205C4.76765 8.43318 4.88223 8.15173 4.9869 7.86924C5.09335 7.58192 5.18886 7.29582 5.30133 7.03661C5.41371 6.7776 5.53595 6.56331 5.68598 6.42026C5.83079 6.28218 6.00247 6.20904 6.23014 6.23123L6.2544 5.98241ZM4.4106 8.52634C4.10601 8.99493 4.05869 9.70514 4.1032 10.4241C4.14813 11.1498 4.28989 11.9199 4.39214 12.5265L4.63866 12.4849C4.53533 11.8719 4.39663 11.1179 4.35272 10.4086C4.30839 9.69257 4.36386 9.05696 4.62021 8.66259L4.4106 8.52634ZM4.3921 12.5262C4.49964 13.1719 4.9447 13.6958 5.28475 14.1534C5.63902 14.6301 5.87055 15.022 5.71617 15.4596L5.95193 15.5427C6.15584 14.9647 5.82937 14.4672 5.48541 14.0043C5.12722 13.5222 4.73381 13.0562 4.6387 12.4852L4.3921 12.5262ZM5.71588 15.4604C5.6203 15.7375 5.67355 16.0225 5.78619 16.2931C5.89858 16.5631 6.07705 16.8351 6.25359 17.0936L6.46003 16.9526C6.28268 16.6929 6.11827 16.4403 6.017 16.197C5.91599 15.9543 5.8848 15.7374 5.95222 15.5419L5.71588 15.4604ZM6.35423 17.148C7.0285 17.162 7.67369 17.1934 8.21721 17.2435C8.76383 17.2939 9.19794 17.3623 9.4558 17.4471L9.53386 17.2096C9.24694 17.1153 8.78824 17.0451 8.24016 16.9945C7.68897 16.9437 7.03754 16.9121 6.35939 16.8981L6.35423 17.148ZM9.45509 17.4469C9.5865 17.4909 9.77398 17.5036 9.99282 17.4975C10.2154 17.4913 10.484 17.465 10.7853 17.4228L10.7506 17.1752C10.4543 17.2167 10.1957 17.2417 9.98583 17.2476C9.77222 17.2536 9.62196 17.2391 9.53458 17.2098L9.45509 17.4469ZM10.8744 17.2334C10.6409 16.8547 10.2621 16.5101 9.97369 16.214C9.82567 16.062 9.70132 15.9233 9.61845 15.7935C9.53521 15.663 9.50431 15.5575 9.51724 15.4676L9.26978 15.432C9.24453 15.6077 9.31037 15.7754 9.40769 15.9279C9.50539 16.0811 9.64546 16.2353 9.79461 16.3884C10.1005 16.7025 10.4471 17.0168 10.6616 17.3646L10.8744 17.2334ZM9.51724 15.4675C9.53788 15.3237 9.59601 15.2639 9.66151 15.237C9.73861 15.2053 9.85769 15.2058 10.0187 15.2529C10.3375 15.3462 10.7414 15.5985 11.092 15.8985L11.2545 15.7085C10.8915 15.3979 10.4561 15.1204 10.0888 15.013C9.90675 14.9597 9.72104 14.9422 9.56645 15.0058C9.40026 15.0741 9.2998 15.2228 9.26978 15.432L9.51724 15.4675ZM11.0917 15.8982C11.4729 16.2263 12.0752 16.4107 12.5989 16.4176C12.8619 16.421 13.1166 16.38 13.3199 16.2807C13.5261 16.18 13.6853 16.0155 13.732 15.7777L13.4867 15.7295C13.4586 15.8725 13.3643 15.9808 13.2102 16.056C13.0533 16.1327 12.841 16.1707 12.6022 16.1676C12.1223 16.1613 11.5814 15.9898 11.2548 15.7087L11.0917 15.8982ZM13.7319 15.7782C13.7597 15.6399 13.7532 15.3992 13.7186 15.135C13.6834 14.8665 13.6171 14.5576 13.5156 14.2781C13.4154 14.0022 13.2751 13.7385 13.0826 13.5777C12.9843 13.4956 12.8696 13.438 12.7388 13.4231C12.6077 13.4082 12.4714 13.4373 12.3324 13.5105L12.4488 13.7317C12.5517 13.6776 12.6378 13.6632 12.7105 13.6715C12.7834 13.6798 12.8536 13.7122 12.9223 13.7695C13.0638 13.8877 13.1853 14.1012 13.2806 14.3635C13.3746 14.6222 13.4374 14.9127 13.4707 15.1675C13.5046 15.4266 13.506 15.6331 13.4868 15.729L13.7319 15.7782ZM12.3323 13.5105C11.8513 13.764 11.5825 13.8194 11.4015 13.7791C11.2254 13.7398 11.0975 13.6026 10.9173 13.3454L10.7126 13.4888C10.8892 13.7409 11.066 13.9603 11.347 14.0231C11.623 14.0847 11.9636 13.9874 12.4489 13.7317L12.3323 13.5105ZM10.9173 13.3454C10.859 13.2621 10.8514 13.1615 10.8979 13.0232C10.9457 12.8812 11.0444 12.7194 11.1713 12.5359C11.2931 12.3595 11.4462 12.1562 11.5767 11.9579C11.7093 11.7564 11.8314 11.5419 11.9004 11.3221L11.6619 11.2472C11.6032 11.4339 11.4961 11.6256 11.3678 11.8205C11.2374 12.0188 11.0979 12.2022 10.9656 12.3937C10.8382 12.578 10.721 12.7651 10.661 12.9436C10.5997 13.1258 10.5925 13.3175 10.7126 13.4888L10.9173 13.3454ZM11.9006 11.3215C11.9496 11.1626 12.0687 11.0507 12.2476 10.9629C12.4292 10.8739 12.6566 10.8174 12.8994 10.7629C13.1356 10.7098 13.3893 10.6582 13.5977 10.577C13.8056 10.496 13.9996 10.3741 14.0827 10.1602L13.8497 10.0697C13.8051 10.1845 13.6934 10.2714 13.5069 10.3441C13.3209 10.4166 13.0914 10.4635 12.8446 10.5189C12.6045 10.5728 12.3493 10.6346 12.1375 10.7385C11.9231 10.8436 11.7383 10.9994 11.6617 11.2478L11.9006 11.3215ZM14.0826 10.1606C14.1663 9.94697 14.1121 9.73699 13.9989 9.55337C13.8868 9.37166 13.7097 9.20232 13.5172 9.05258C13.1313 8.75234 12.6505 8.50609 12.3985 8.3787L12.2857 8.60181C12.5389 8.7298 12.9993 8.96639 13.3637 9.2499C13.5464 9.39204 13.6968 9.5398 13.7861 9.6846C13.8742 9.82748 13.8953 9.95341 13.8498 10.0693L14.0826 10.1606ZM20.0843 11.4825C20.0142 11.4386 19.94 11.4176 19.8637 11.421C19.7889 11.4243 19.7216 11.4507 19.6627 11.4863C19.5492 11.5549 19.4464 11.671 19.3553 11.7809C19.2587 11.8975 19.1716 12.0116 19.0773 12.1076C18.9828 12.2037 18.8989 12.2619 18.8203 12.2795L18.875 12.5235C19.0255 12.4897 19.1515 12.3887 19.2556 12.2829C19.3598 12.1768 19.4601 12.0462 19.5478 11.9405C19.641 11.828 19.7194 11.7442 19.792 11.7003C19.8262 11.6796 19.8531 11.6717 19.8749 11.6707C19.8952 11.6698 19.9198 11.6744 19.9517 11.6944L20.0843 11.4825ZM18.8203 12.2795C18.8132 12.2811 18.7925 12.2827 18.7493 12.2503C18.706 12.2178 18.6565 12.163 18.6016 12.0873C18.4911 11.9351 18.3843 11.7359 18.2755 11.5512C18.2228 11.4617 18.1692 11.3753 18.1166 11.3063C18.0683 11.2427 18.0048 11.1716 17.9271 11.142C17.8825 11.125 17.8296 11.1202 17.7763 11.1414C17.7258 11.1614 17.6897 11.1989 17.6639 11.2375C17.6145 11.3115 17.5806 11.4234 17.5544 11.5658L17.8003 11.6111C17.8255 11.4742 17.8524 11.4054 17.8718 11.3764C17.8804 11.3635 17.8808 11.3689 17.8686 11.3737C17.8535 11.3797 17.8407 11.3766 17.8379 11.3755C17.8375 11.3754 17.8395 11.3761 17.8441 11.3792C17.8486 11.3823 17.8547 11.3871 17.8623 11.3942C17.8779 11.4087 17.8963 11.4296 17.9177 11.4577C17.9607 11.5142 18.008 11.5898 18.0601 11.6781C18.1609 11.8492 18.2795 12.0691 18.3993 12.2342C18.4595 12.3172 18.5264 12.3956 18.5993 12.4503C18.6723 12.505 18.7677 12.5476 18.875 12.5235L18.8203 12.2795ZM17.5544 11.566C17.5306 11.6963 17.4973 11.7734 17.4638 11.8189C17.4331 11.8606 17.3991 11.8803 17.3571 11.8899C17.31 11.9006 17.249 11.8993 17.1665 11.8873C17.0823 11.875 16.9956 11.8551 16.8876 11.8347C16.6802 11.7956 16.4276 11.7617 16.1571 11.8394C15.8834 11.918 15.6076 12.1057 15.3408 12.4784L15.544 12.624C15.7853 12.2871 16.0174 12.1396 16.2261 12.0797C16.438 12.0188 16.6423 12.0428 16.8412 12.0804C16.9363 12.0983 17.0399 12.1215 17.1304 12.1347C17.2224 12.1481 17.3201 12.1547 17.4127 12.1336C17.5104 12.1113 17.5972 12.0593 17.665 11.9673C17.73 11.8791 17.773 11.7605 17.8003 11.6109L17.5544 11.566ZM15.3406 12.4786C15.0709 12.8568 14.9722 13.2315 14.9947 13.5889C15.017 13.9437 15.158 14.2711 15.3503 14.5595C15.7332 15.1336 16.3353 15.5764 16.6947 15.8087L16.8304 15.5987C16.4791 15.3716 15.9122 14.9514 15.5583 14.4208C15.3822 14.1567 15.2629 13.8713 15.2442 13.5732C15.2256 13.2775 15.3051 12.9589 15.5442 12.6238L15.3406 12.4786ZM16.695 15.8089C16.8545 15.9113 16.9077 16.0096 16.9161 16.0819C16.9244 16.153 16.8935 16.2347 16.8055 16.3148C16.6265 16.478 16.252 16.5891 15.8248 16.4945L15.7707 16.7386C16.2583 16.8465 16.7216 16.7295 16.9739 16.4996C17.1016 16.3833 17.1848 16.2273 17.1644 16.0529C17.1442 15.8795 17.0258 15.7242 16.8301 15.5985L16.695 15.8089ZM15.8248 16.4945C15.6972 16.4663 15.5818 16.4648 15.4839 16.4964C15.3823 16.5293 15.3068 16.5957 15.2635 16.6859C15.182 16.8554 15.2258 17.078 15.3233 17.2792C15.5237 17.6927 16.0136 18.1527 16.6925 18.2633L16.7327 18.0166C16.1414 17.9202 15.7165 17.5173 15.5483 17.1702C15.4615 16.9911 15.4576 16.859 15.4888 16.7942C15.5018 16.7672 15.5228 16.7466 15.5608 16.7343C15.6024 16.7208 15.6696 16.7162 15.7707 16.7386L15.8248 16.4945ZM16.6929 18.2634C17.0537 18.321 17.4098 18.1892 17.729 17.9699C18.049 17.7499 18.3445 17.4337 18.5912 17.0965C18.8383 16.7588 19.0405 16.3945 19.1718 16.0735C19.2375 15.913 19.2864 15.7609 19.3139 15.6266C19.3409 15.4952 19.3499 15.3687 19.3244 15.2656L19.0817 15.3257C19.094 15.3753 19.0932 15.4585 19.069 15.5764C19.0455 15.6914 19.0021 15.8282 18.9404 15.9788C18.8172 16.2799 18.6253 16.6266 18.3894 16.9489C18.1532 17.2718 17.877 17.5648 17.5874 17.7638C17.2971 17.9634 17.0059 18.0602 16.7323 18.0165L16.6929 18.2634ZM19.3242 15.2649C19.3119 15.2163 19.3131 15.1285 19.3366 14.996C19.3593 14.8678 19.3997 14.7128 19.4525 14.5384C19.5582 14.189 19.7083 13.7771 19.8508 13.3676C19.9921 12.9617 20.1261 12.5573 20.1939 12.2342C20.2277 12.0734 20.247 11.9242 20.2393 11.801C20.2319 11.6828 20.1971 11.5528 20.0842 11.4824L19.9519 11.6945C19.959 11.699 19.9839 11.7219 19.9898 11.8165C19.9954 11.9062 19.9814 12.0296 19.9492 12.1829C19.8852 12.488 19.7565 12.8779 19.6147 13.2854C19.4742 13.6893 19.3209 14.1101 19.2132 14.466C19.1593 14.6443 19.1156 14.8101 19.0904 14.9524C19.066 15.0906 19.0557 15.2232 19.0819 15.3264L19.3242 15.2649Z" fill="#868686"/>
</g>
<defs>
<filter id="filter0_d_6252_1239" x="0.0888672" y="0.838379" width="24.1523" height="23.4385" filterUnits="userSpaceOnUse" color-interpolation-filters="sRGB">
<feFlood flood-opacity="0" result="BackgroundImageFix"/>
<feColorMatrix in="SourceAlpha" type="matrix" values="0 0 0 0 0 0 0 0 0 0 0 0 0 0 0 0 0 0 127 0" result="hardAlpha"/>
<feOffset dy="2"/>
<feGaussianBlur stdDeviation="2"/>
<feColorMatrix type="matrix" values="0 0 0 0 0 0 0 0 0 0 0 0 0 0 0 0 0 0 0.01 0"/>
<feBlend mode="normal" in2="BackgroundImageFix" result="effect1_dropShadow_6252_1239"/>
<feBlend mode="normal" in="SourceGraphic" in2="effect1_dropShadow_6252_1239" result="shape"/>
</filter>
</defs>
</svg>
