<svg width="66" height="32" viewBox="0 0 66 32" fill="none" xmlns="http://www.w3.org/2000/svg">
<g filter="url(#filter0_d_6252_1165)">
<path fill-rule="evenodd" clip-rule="evenodd" d="M59.6416 8.966C58.3685 7.53212 57.4963 6.66035 57.1791 7.05661C56.8604 7.4558 55.508 7.61431 54.5565 7.05661C53.602 6.50184 53.1248 5.46716 52.4096 5.46716C51.7445 5.46716 49.4464 4.16537 48.1659 3.09106C48.1527 3.25837 48.1483 3.42275 48.163 3.56217C48.2393 4.24609 47.0954 4.70399 45.8003 4.77884C44.5051 4.85663 44.6578 6.30518 44.6578 7.29143C44.6578 8.28355 43.5888 8.28355 43.1321 9.35052C42.6755 10.416 43.2849 10.6464 42.2173 11.1807C41.1498 11.7105 40.8458 12.6292 41.4537 13.5421C42.0631 14.4535 41.3774 15.293 41.2261 15.8257C41.0749 16.3599 42.1424 16.5903 43.2085 17.5781C44.2775 18.5702 44.4288 17.1965 44.8869 17.9582C45.3436 18.7228 44.5815 20.0951 43.3612 20.0951C43.2687 20.0951 43.1747 20.12 43.0807 20.1406C43.7136 20.7966 44.047 21.4805 43.7459 21.9076C43.1909 22.7045 42.7136 22.7045 43.7459 23.6541C44.7797 24.6051 45.4963 23.1756 46.37 24.3673C47.2437 25.559 47.9589 26.2738 48.8326 24.2103C49.7063 22.1409 50.3436 19.2071 51.9309 18.7316C53.5212 18.2517 56.7797 17.6206 58.6872 15.0743C60.5932 12.5353 59.5844 12.3915 60.5932 11.5828C61.3905 10.9517 60.9148 10.3955 59.6416 8.966ZM5.39955 7.98131C3.87532 10.2679 6.90322 12.4972 7.53317 11.4845C8.29675 10.2679 6.92524 5.6962 5.39955 7.98131Z" fill="white"/>
<path d="M59.6416 8.966L59.5482 9.04899L59.5483 9.04913L59.6416 8.966ZM57.1791 7.05661L57.0815 6.97849L57.0814 6.97863L57.1791 7.05661ZM54.5565 7.05661L54.6197 6.94876L54.6193 6.94854L54.5565 7.05661ZM48.1659 3.09106L48.2462 2.9953L48.0604 2.83938L48.0413 3.08122L48.1659 3.09106ZM48.163 3.56217L48.0387 3.57527L48.0387 3.57604L48.163 3.56217ZM45.8003 4.77884L45.7931 4.65405L45.7928 4.65407L45.8003 4.77884ZM43.1321 9.35052L43.247 9.39976L43.2471 9.3997L43.1321 9.35052ZM42.2173 11.1807L42.2729 11.2926L42.2733 11.2924L42.2173 11.1807ZM41.4537 13.5421L41.3497 13.6114L41.3498 13.6116L41.4537 13.5421ZM41.2261 15.8257L41.1059 15.7916L41.1059 15.7917L41.2261 15.8257ZM43.2085 17.5781L43.2935 17.4864L43.2934 17.4864L43.2085 17.5781ZM44.8869 17.9582L44.9942 17.8941L44.994 17.8938L44.8869 17.9582ZM43.0807 20.1406L43.054 20.0184L42.8354 20.0662L42.9908 20.2273L43.0807 20.1406ZM43.7459 21.9076L43.6438 21.8356L43.6434 21.8361L43.7459 21.9076ZM43.7459 23.6541L43.8306 23.5621L43.8306 23.5621L43.7459 23.6541ZM48.8326 24.2103L48.9477 24.259L48.9477 24.2589L48.8326 24.2103ZM51.9309 18.7316L51.9668 18.8514L51.9671 18.8513L51.9309 18.7316ZM58.6872 15.0743L58.5872 14.9992L58.5871 14.9993L58.6872 15.0743ZM60.5932 11.5828L60.5156 11.4848L60.515 11.4853L60.5932 11.5828ZM5.39955 7.98131L5.29559 7.9119L5.29554 7.91198L5.39955 7.98131ZM7.53317 11.4845L7.42729 11.4181L7.42703 11.4185L7.53317 11.4845ZM59.7351 8.883C59.0994 8.16707 58.5571 7.5836 58.132 7.229C57.9208 7.05295 57.7274 6.92357 57.5579 6.86747C57.4718 6.83897 57.3839 6.82665 57.2994 6.84348C57.2119 6.86089 57.1383 6.90754 57.0815 6.97849L57.2767 7.13472C57.2992 7.10661 57.3222 7.09382 57.3482 7.08866C57.377 7.08292 57.4192 7.0849 57.4794 7.10481C57.6024 7.14553 57.7661 7.24941 57.9718 7.421C58.3803 7.76169 58.9107 8.33104 59.5482 9.04899L59.7351 8.883ZM57.0814 6.97863C57.0235 7.05111 56.9058 7.12587 56.7291 7.18488C56.5557 7.24279 56.339 7.28102 56.1001 7.29054C55.6212 7.30964 55.0702 7.21283 54.6197 6.94877L54.4933 7.16445C54.9943 7.45809 55.5953 7.56087 56.1101 7.54034C56.3681 7.53006 56.6087 7.48867 56.8083 7.42201C57.0045 7.35645 57.1753 7.26171 57.2768 7.13459L57.0814 6.97863ZM54.6193 6.94854C54.1599 6.6815 53.8161 6.29983 53.4817 5.96546C53.3173 5.80105 53.1531 5.64639 52.9814 5.53315C52.8082 5.4189 52.6205 5.34216 52.4096 5.34216V5.59216C52.5564 5.59216 52.6965 5.64476 52.8437 5.74185C52.9925 5.83994 53.1413 5.97863 53.3049 6.14224C53.6266 6.4639 53.9986 6.87695 54.4937 7.16468L54.6193 6.94854ZM52.4096 5.34216C52.2714 5.34216 52.0242 5.2709 51.6946 5.1318C51.3713 4.99536 50.986 4.80141 50.5798 4.57302C49.7668 4.11595 48.879 3.52619 48.2462 2.9953L48.0856 3.18682C48.7333 3.73025 49.6348 4.32853 50.4572 4.79094C50.8687 5.02228 51.2628 5.22092 51.5974 5.36214C51.9258 5.5007 52.2153 5.59216 52.4096 5.59216V5.34216ZM48.0413 3.08122C48.0278 3.25152 48.0228 3.42467 48.0387 3.57527L48.2873 3.54908C48.2738 3.42083 48.2775 3.26523 48.2905 3.10091L48.0413 3.08122ZM48.0387 3.57604C48.0673 3.83229 47.8712 4.08118 47.4421 4.28611C47.0229 4.48626 46.4304 4.61721 45.7931 4.65405L45.8075 4.90363C46.4652 4.86562 47.0923 4.7302 47.5498 4.51171C47.9973 4.298 48.3349 3.97597 48.2872 3.5483L48.0387 3.57604ZM45.7928 4.65407C45.444 4.67501 45.181 4.7897 44.9885 4.97567C44.7981 5.1596 44.6873 5.40312 44.6221 5.66416C44.4935 6.17889 44.5328 6.81196 44.5328 7.29143H44.7828C44.7828 6.78465 44.7458 6.20032 44.8646 5.72476C44.9231 5.49066 45.017 5.29581 45.1622 5.15545C45.3054 5.01711 45.509 4.92156 45.8078 4.90362L45.7928 4.65407ZM44.5328 7.29143C44.5328 7.51419 44.4737 7.67552 44.3806 7.81086C44.2849 7.95019 44.1504 8.06657 43.9885 8.19499C43.6699 8.44788 43.2602 8.73356 43.0172 9.30133L43.2471 9.3997C43.4607 8.9005 43.8139 8.6527 44.1439 8.39082C44.3064 8.26186 44.4677 8.12552 44.5867 7.95247C44.7084 7.77544 44.7828 7.56473 44.7828 7.29143H44.5328ZM43.0172 9.30127C42.7805 9.85373 42.8144 10.2156 42.7802 10.4465C42.7636 10.5584 42.7327 10.6458 42.6527 10.7364C42.5683 10.832 42.423 10.938 42.1614 11.0689L42.2733 11.2924C42.5454 11.1562 42.7243 11.0331 42.8401 10.9019C42.9604 10.7657 43.0059 10.6288 43.0274 10.4831C43.0696 10.1989 43.0271 9.91281 43.247 9.39976L43.0172 9.30127ZM42.1617 11.0687C41.6076 11.3437 41.2351 11.7281 41.0884 12.179C40.9407 12.6326 41.0291 13.1299 41.3497 13.6114L41.5578 13.4728C41.2704 13.0413 41.2068 12.6229 41.3261 12.2564C41.4462 11.8873 41.7595 11.5474 42.2729 11.2926L42.1617 11.0687ZM41.3498 13.6116C41.6278 14.0274 41.6125 14.4238 41.5052 14.7908C41.4508 14.9767 41.3734 15.1529 41.2973 15.3207C41.2233 15.4843 41.1469 15.6471 41.1059 15.7916L41.3464 15.8598C41.381 15.7379 41.4471 15.5961 41.5251 15.4239C41.6011 15.256 41.6853 15.0655 41.7451 14.861C41.8662 14.4472 41.889 13.9682 41.5576 13.4726L41.3498 13.6116ZM41.1059 15.7917C41.0537 15.9758 41.1124 16.1324 41.227 16.267C41.3357 16.3948 41.5031 16.5134 41.6927 16.6366C42.0801 16.8885 42.6006 17.1853 43.1235 17.6698L43.2934 17.4864C42.7503 16.9831 42.204 16.6708 41.8289 16.427C41.6373 16.3025 41.4995 16.2015 41.4173 16.105C41.341 16.0153 41.3229 15.9427 41.3464 15.8598L41.1059 15.7917ZM43.1235 17.6697C43.401 17.9272 43.6339 18.0455 43.841 18.0728C44.0511 18.1005 44.2128 18.0315 44.3364 17.9644C44.3668 17.9479 44.3959 17.9309 44.4218 17.9159C44.4485 17.9005 44.4717 17.8872 44.4938 17.8758C44.5392 17.8523 44.5683 17.8431 44.5898 17.8417C44.6118 17.8403 44.6715 17.8426 44.7798 18.0226L44.994 17.8938C44.8732 17.6929 44.7422 17.5813 44.5736 17.5922C44.4998 17.597 44.4336 17.6255 44.379 17.6537C44.351 17.6682 44.3231 17.6842 44.2967 17.6995C44.2696 17.7152 44.2439 17.7301 44.2171 17.7447C44.1121 17.8017 44.0069 17.8425 43.8736 17.825C43.7374 17.807 43.5505 17.7249 43.2935 17.4864L43.1235 17.6697ZM44.7796 18.0223C44.9749 18.3494 44.9186 18.8304 44.6482 19.2451C44.3809 19.6551 43.9216 19.9701 43.3612 19.9701V20.2201C44.0211 20.2201 44.553 19.8489 44.8576 19.3816C45.1592 18.9191 45.2556 18.3316 44.9942 17.8941L44.7796 18.0223ZM43.3612 19.9701C43.2514 19.9701 43.1393 19.9998 43.054 20.0184L43.1074 20.2627C43.2101 20.2402 43.286 20.2201 43.3612 20.2201V19.9701ZM42.9908 20.2273C43.3013 20.5492 43.5312 20.871 43.6478 21.1571C43.7648 21.4441 43.7594 21.6715 43.6438 21.8356L43.8481 21.9796C44.0335 21.7166 44.012 21.3884 43.8793 21.0628C43.7462 20.7361 43.4931 20.3879 43.1707 20.0538L42.9908 20.2273ZM43.6434 21.8361C43.5088 22.0294 43.3801 22.1728 43.2709 22.3027C43.1666 22.4268 43.0682 22.5511 43.0301 22.6906C42.9884 22.8433 43.0224 22.9934 43.1265 23.1592C43.2277 23.3201 43.402 23.5075 43.6613 23.7461L43.8306 23.5621C43.5738 23.3258 43.4206 23.1572 43.3382 23.0261C43.2589 22.8999 43.2533 22.8221 43.2713 22.7565C43.2928 22.6778 43.3533 22.5933 43.4623 22.4636C43.5664 22.3397 43.7056 22.1843 43.8485 21.979L43.6434 21.8361ZM43.6613 23.7461C43.9387 24.0013 44.2031 24.103 44.4591 24.1237C44.7076 24.1439 44.9417 24.0861 45.1442 24.0427C45.3543 23.9976 45.5325 23.9673 45.7082 24.0086C45.8779 24.0484 46.0632 24.1603 46.2692 24.4412L46.4708 24.2934C46.2399 23.9785 46.008 23.8222 45.7654 23.7652C45.5287 23.7096 45.2993 23.7537 45.0918 23.7982C44.8768 23.8443 44.6832 23.8911 44.4793 23.8745C44.2829 23.8586 44.07 23.7824 43.8306 23.5621L43.6613 23.7461ZM46.2692 24.4412C46.4879 24.7396 46.7014 25.0146 46.9124 25.2244C47.1213 25.4321 47.3426 25.591 47.5797 25.6326C47.8283 25.6763 48.0661 25.5868 48.2907 25.3611C48.511 25.1397 48.727 24.7801 48.9477 24.259L48.7175 24.1616C48.5012 24.6722 48.3002 24.9971 48.1135 25.1848C47.9309 25.3682 47.7715 25.4125 47.6229 25.3864C47.4627 25.3583 47.2868 25.2441 47.0886 25.0471C46.8926 24.8522 46.689 24.5909 46.4708 24.2934L46.2692 24.4412ZM48.9477 24.2589C49.1677 23.7378 49.3727 23.1628 49.5796 22.5906C49.7871 22.0168 49.9969 21.4452 50.2284 20.924C50.46 20.4024 50.7108 19.9373 50.998 19.5749C51.285 19.2128 51.6026 18.9605 51.9668 18.8514L51.8951 18.6119C51.4656 18.7405 51.1083 19.0332 50.8021 19.4196C50.496 19.8058 50.2352 20.2926 49.9999 20.8225C49.7644 21.3529 49.5518 21.9325 49.3445 22.5056C49.1366 23.0804 48.9343 23.6481 48.7174 24.1617L48.9477 24.2589ZM51.9671 18.8513C53.5378 18.3773 56.849 17.7366 58.7872 15.1492L58.5871 14.9993C56.7104 17.5047 53.5047 18.1261 51.8948 18.612L51.9671 18.8513ZM58.7871 15.1493C59.7486 13.8686 59.9812 13.1828 60.098 12.7096C60.1572 12.4695 60.1809 12.3173 60.2513 12.1649C60.3178 12.0207 60.4291 11.8746 60.6714 11.6803L60.515 11.4853C60.2529 11.6954 60.1119 11.8704 60.0243 12.06C59.9406 12.2413 59.9082 12.4354 59.8553 12.6497C59.7478 13.0853 59.5318 13.741 58.5872 14.9992L58.7871 15.1493ZM60.6708 11.6808C60.8803 11.515 61.0221 11.3419 61.0799 11.1437C61.1385 10.9428 61.1047 10.7379 61.0078 10.5225C60.9119 10.3093 60.7499 10.076 60.537 9.81093C60.3235 9.54493 60.0527 9.23963 59.735 8.88286L59.5483 9.04913C59.8671 9.4071 60.1333 9.70739 60.3421 9.96744C60.5516 10.2284 60.6973 10.4416 60.7798 10.6251C60.8614 10.8063 60.8766 10.9481 60.8399 11.0737C60.8025 11.2019 60.7048 11.335 60.5156 11.4848L60.6708 11.6808ZM5.29554 7.91198C4.49282 9.11618 4.89417 10.308 5.56565 11.0538C5.90032 11.4255 6.30919 11.6957 6.68449 11.8059C7.0556 11.9148 7.43786 11.8744 7.63931 11.5506L7.42703 11.4185C7.3135 11.601 7.08105 11.6617 6.75489 11.566C6.43291 11.4715 6.06195 11.2314 5.75144 10.8865C5.13254 10.1991 4.78206 9.13301 5.50356 8.05064L5.29554 7.91198ZM7.63905 11.551C7.85239 11.2111 7.90659 10.6624 7.86108 10.0926C7.81503 9.51587 7.66444 8.88819 7.4395 8.36999C7.32698 8.11077 7.19438 7.87551 7.04425 7.68691C6.89479 7.49916 6.72241 7.35069 6.52849 7.27677C6.32985 7.20104 6.11762 7.20724 5.90454 7.31413C5.69599 7.41875 5.49293 7.61634 5.29559 7.9119L5.50351 8.05072C5.68759 7.775 5.86114 7.61559 6.01664 7.53759C6.1676 7.46186 6.30687 7.45983 6.43943 7.51037C6.57671 7.5627 6.71523 7.675 6.84865 7.84261C6.98139 8.00936 7.10362 8.22407 7.21018 8.46954C7.42338 8.9607 7.56785 9.56124 7.61188 10.1125C7.65645 10.6706 7.59574 11.1497 7.4273 11.4181L7.63905 11.551Z" fill="#868686"/>
</g>
<defs>
<filter id="filter0_d_6252_1165" x="0.850586" y="0.839355" width="64.2583" height="30.804" filterUnits="userSpaceOnUse" color-interpolation-filters="sRGB">
<feFlood flood-opacity="0" result="BackgroundImageFix"/>
<feColorMatrix in="SourceAlpha" type="matrix" values="0 0 0 0 0 0 0 0 0 0 0 0 0 0 0 0 0 0 127 0" result="hardAlpha"/>
<feOffset dy="2"/>
<feGaussianBlur stdDeviation="2"/>
<feColorMatrix type="matrix" values="0 0 0 0 0 0 0 0 0 0 0 0 0 0 0 0 0 0 0.01 0"/>
<feBlend mode="normal" in2="BackgroundImageFix" result="effect1_dropShadow_6252_1165"/>
<feBlend mode="normal" in="SourceGraphic" in2="effect1_dropShadow_6252_1165" result="shape"/>
</filter>
</defs>
</svg>
