<svg width="46" height="47" viewBox="0 0 46 47" fill="none" xmlns="http://www.w3.org/2000/svg">
<g filter="url(#filter0_d_6252_1068)">
<path fill-rule="evenodd" clip-rule="evenodd" d="M39.3719 10.7953L36.9049 4.74722C36.7287 5.02314 36.5936 5.2154 36.5187 5.28731C36.1135 5.69531 34.4336 4.67971 32.8594 5.08331C31.2838 5.49131 30.0635 4.93214 28.5393 4.17191C27.0151 3.40874 22.0357 4.37151 21.3719 5.33868C20.7141 6.30438 19.0342 6.30438 17.5114 5.69531C15.9887 5.08331 14.0048 4.17191 11.2104 3.91654C8.5981 3.68025 6.49678 3.30454 6.02248 2.67639C5.91088 2.96992 5.80809 3.25757 5.70971 3.53202C4.85949 5.86409 6.34553 6.49811 5.28533 7.76908C4.22366 9.03858 5.28533 10.5238 5.28533 12.8544C5.28533 14.4629 5.28533 29.9083 5.28533 39.3188H26.2515C26.2515 39.3188 26.8624 38.9122 27.4718 38.5042C28.0826 38.0992 29.0988 39.1133 29.0988 39.1133H33.5687C33.5687 39.1133 34.3851 40.1318 35.3998 40.1318C36.4145 40.1318 35.8051 38.5042 37.435 38.5042C39.0562 38.5042 38.6524 36.0621 39.6685 36.0621C40.6847 36.0621 40.4835 36.2705 41.4982 34.8469C41.529 34.8043 41.5789 34.75 41.6112 34.7031C41.5334 34.2628 41.5261 33.8019 41.5995 33.3235C41.855 31.7003 40.7346 31.7986 40.0268 29.515C39.3161 27.2284 36.4673 23.8264 36.369 22.5041C36.2647 21.1891 34.6891 20.4245 34.7405 18.9994C34.7889 17.5787 33.9784 17.4261 32.4013 15.1909C30.8271 12.9572 30.366 9.04445 30.8271 8.89182C31.2853 8.74065 32.6054 12.194 33.1135 13.3123C33.623 14.4321 35.3484 17.8341 36.5701 17.8341C37.7919 17.8341 38.2515 12.7033 38.6553 12.9572C38.692 12.9806 38.717 13.0364 38.739 13.1083L38.8741 12.1778L39.3719 10.7953Z" fill="white"/>
<path fill-rule="evenodd" clip-rule="evenodd" d="M39.3719 10.7953L36.9049 4.74722C36.7287 5.02314 36.5936 5.2154 36.5187 5.28731C36.1135 5.69531 34.4336 4.67971 32.8594 5.08331C31.2838 5.49131 30.0635 4.93214 28.5393 4.17191C27.0151 3.40874 22.0357 4.37151 21.3719 5.33868C20.7141 6.30438 19.0342 6.30438 17.5114 5.69531C15.9887 5.08331 14.0048 4.17191 11.2104 3.91654C8.5981 3.68025 6.49678 3.30454 6.02248 2.67639C5.91088 2.96992 5.80809 3.25757 5.70971 3.53202C4.85949 5.86409 6.34553 6.49811 5.28533 7.76908C4.22366 9.03858 5.28533 10.5238 5.28533 12.8544C5.28533 14.4629 5.28533 29.9083 5.28533 39.3188H26.2515C26.2515 39.3188 26.8624 38.9122 27.4718 38.5042C28.0826 38.0992 29.0988 39.1133 29.0988 39.1133H33.5687C33.5687 39.1133 34.3851 40.1318 35.3998 40.1318C36.4145 40.1318 35.8051 38.5042 37.435 38.5042C39.0562 38.5042 38.6524 36.0621 39.6685 36.0621C40.6847 36.0621 40.4835 36.2705 41.4982 34.8469C41.529 34.8043 41.5789 34.75 41.6112 34.7031C41.5334 34.2628 41.5261 33.8019 41.5995 33.3235C41.855 31.7003 40.7346 31.7986 40.0268 29.515C39.3161 27.2284 36.4673 23.8264 36.369 22.5041C36.2647 21.1891 34.6891 20.4245 34.7405 18.9994C34.7889 17.5787 33.9784 17.4261 32.4013 15.1909C30.8271 12.9572 30.366 9.04445 30.8271 8.89182C31.2853 8.74065 32.6054 12.194 33.1135 13.3123C33.623 14.4321 35.3484 17.8341 36.5701 17.8341C37.7919 17.8341 38.2515 12.7033 38.6553 12.9572C38.692 12.9806 38.717 13.0364 38.739 13.1083L38.8741 12.1778L39.3719 10.7953Z" stroke="#868686" stroke-width="0.25"/>
</g>
<defs>
<filter id="filter0_d_6252_1068" x="0.688477" y="0.420654" width="45.0732" height="45.8362" filterUnits="userSpaceOnUse" color-interpolation-filters="sRGB">
<feFlood flood-opacity="0" result="BackgroundImageFix"/>
<feColorMatrix in="SourceAlpha" type="matrix" values="0 0 0 0 0 0 0 0 0 0 0 0 0 0 0 0 0 0 127 0" result="hardAlpha"/>
<feOffset dy="2"/>
<feGaussianBlur stdDeviation="2"/>
<feColorMatrix type="matrix" values="0 0 0 0 0 0 0 0 0 0 0 0 0 0 0 0 0 0 0.01 0"/>
<feBlend mode="normal" in2="BackgroundImageFix" result="effect1_dropShadow_6252_1068"/>
<feBlend mode="normal" in="SourceGraphic" in2="effect1_dropShadow_6252_1068" result="shape"/>
</filter>
</defs>
</svg>
