<svg width="60" height="49" viewBox="0 0 60 49" fill="none" xmlns="http://www.w3.org/2000/svg">
<g filter="url(#filter0_d_6252_1075)">
<path fill-rule="evenodd" clip-rule="evenodd" d="M7.64191 28.3461C8.06335 29.4116 9.97818 30.4698 10.6155 32.1693C11.2513 33.8703 12.9532 34.7186 13.802 34.7186C14.4363 34.7186 14.0061 35.7855 13.7462 37.736C14.1485 37.8989 14.5846 38.0442 14.8695 38.2071C15.404 38.5109 17.6155 38.2071 18.3776 38.891C19.1397 39.5794 21.5787 41.1791 22.3408 41.1791C23.1059 41.1791 25.8474 41.5563 26.3041 41.863C26.7637 42.1697 27.3717 40.7212 28.5919 40.0329C29.8122 39.3489 31.3379 38.8925 31.567 39.4253C31.7916 39.9595 32.6345 40.4174 33.2424 40.115C33.4921 39.9874 34.1837 39.8024 34.9561 39.6293C36.0794 39.3754 37.3775 39.1537 37.7417 39.1992C38.3496 39.2726 40.0251 36.8378 42.2365 36.8378C44.4465 36.8378 45.0559 37.2179 46.0486 36.148C47.0412 35.0825 54.5096 27.5418 55.1954 27.0062C55.8841 26.4734 54.7387 26.2459 53.9751 26.2459C53.2145 26.2459 51.6873 26.1681 49.2497 25.1775C46.8107 24.1854 43.0001 22.8909 42.3129 22.7397C41.6257 22.5886 40.633 20.9889 40.0236 20.6821C39.4157 20.3798 38.1954 18.2473 37.89 17.5575C37.7872 17.3227 38.0295 16.834 38.4142 16.2792C37.6653 15.5792 37.2894 15.3869 36.7916 15.7186C36.1499 16.1457 35.078 16.2572 34.8636 15.8243C34.6492 15.3986 34.2204 13.7887 34.9722 12.9345C35.7226 12.0774 36.6859 10.4718 36.6859 10.4718C36.6859 10.4718 30.1485 3.50936 29.3966 3.40222C28.6477 3.29802 26.5068 3.61943 25.9708 3.40222C25.4348 3.18941 25.542 2.86947 24.4715 3.40222C23.3981 3.93937 22.9708 3.08228 22.3291 2.54953C21.6845 2.01237 21.0428 1.90524 20.7212 2.97661C20.3981 4.04504 20.1852 4.57779 19.6507 4.04504C19.3849 3.78381 18.0545 3.80288 16.774 3.89388C16.774 3.90415 16.777 3.91296 16.7799 3.92176C16.9899 5.40847 15.5009 7.10799 15.5009 7.95628C15.5009 8.80751 14.6566 9.65874 14.0163 9.65874C13.3761 9.65874 12.7403 11.3568 11.8915 12.2051C11.0398 13.0548 11.6801 14.9628 10.8284 15.6041C9.97818 16.2425 8.70358 16.4524 9.33941 17.0894C9.97818 17.7278 8.27627 19.0032 8.27627 20.2741C8.27627 21.5539 8.06188 23.8845 7.85043 24.0973C7.64044 24.3116 5.09126 23.6732 5.09126 24.7357C5.09126 25.7968 4.02518 25.7968 4.45102 26.6495C4.87687 27.5022 7.21313 27.285 7.64191 28.3461Z" fill="white"/>
<path fill-rule="evenodd" clip-rule="evenodd" d="M7.64191 28.3461C8.06335 29.4116 9.97818 30.4698 10.6155 32.1693C11.2513 33.8703 12.9532 34.7186 13.802 34.7186C14.4363 34.7186 14.0061 35.7855 13.7462 37.736C14.1485 37.8989 14.5846 38.0442 14.8695 38.2071C15.404 38.5109 17.6155 38.2071 18.3776 38.891C19.1397 39.5794 21.5787 41.1791 22.3408 41.1791C23.1059 41.1791 25.8474 41.5563 26.3041 41.863C26.7637 42.1697 27.3717 40.7212 28.5919 40.0329C29.8122 39.3489 31.3379 38.8925 31.567 39.4253C31.7916 39.9595 32.6345 40.4174 33.2424 40.115C33.4921 39.9874 34.1837 39.8024 34.9561 39.6293C36.0794 39.3754 37.3775 39.1537 37.7417 39.1992C38.3496 39.2726 40.0251 36.8378 42.2365 36.8378C44.4465 36.8378 45.0559 37.2179 46.0486 36.148C47.0412 35.0825 54.5096 27.5418 55.1954 27.0062C55.8841 26.4734 54.7387 26.2459 53.9751 26.2459C53.2145 26.2459 51.6873 26.1681 49.2497 25.1775C46.8107 24.1854 43.0001 22.8909 42.3129 22.7397C41.6257 22.5886 40.633 20.9889 40.0236 20.6821C39.4157 20.3798 38.1954 18.2473 37.89 17.5575C37.7872 17.3227 38.0295 16.834 38.4142 16.2792C37.6653 15.5792 37.2894 15.3869 36.7916 15.7186C36.1499 16.1457 35.078 16.2572 34.8636 15.8243C34.6492 15.3986 34.2204 13.7887 34.9722 12.9345C35.7226 12.0774 36.6859 10.4718 36.6859 10.4718C36.6859 10.4718 30.1485 3.50936 29.3966 3.40222C28.6477 3.29802 26.5068 3.61943 25.9708 3.40222C25.4348 3.18941 25.542 2.86947 24.4715 3.40222C23.3981 3.93937 22.9708 3.08228 22.3291 2.54953C21.6845 2.01237 21.0428 1.90524 20.7212 2.97661C20.3981 4.04504 20.1852 4.57779 19.6507 4.04504C19.3849 3.78381 18.0545 3.80288 16.774 3.89388C16.774 3.90415 16.777 3.91296 16.7799 3.92176C16.9899 5.40847 15.5009 7.10799 15.5009 7.95628C15.5009 8.80751 14.6566 9.65874 14.0163 9.65874C13.3761 9.65874 12.7403 11.3568 11.8915 12.2051C11.0398 13.0548 11.6801 14.9628 10.8284 15.6041C9.97818 16.2425 8.70358 16.4524 9.33941 17.0894C9.97818 17.7278 8.27627 19.0032 8.27627 20.2741C8.27627 21.5539 8.06188 23.8845 7.85043 24.0973C7.64044 24.3116 5.09126 23.6732 5.09126 24.7357C5.09126 25.7968 4.02518 25.7968 4.45102 26.6495C4.87687 27.5022 7.21313 27.285 7.64191 28.3461Z" stroke="#868686" stroke-width="0.25"/>
</g>
<defs>
<filter id="filter0_d_6252_1075" x="0.225586" y="0.0288086" width="59.3071" height="48.0012" filterUnits="userSpaceOnUse" color-interpolation-filters="sRGB">
<feFlood flood-opacity="0" result="BackgroundImageFix"/>
<feColorMatrix in="SourceAlpha" type="matrix" values="0 0 0 0 0 0 0 0 0 0 0 0 0 0 0 0 0 0 127 0" result="hardAlpha"/>
<feOffset dy="2"/>
<feGaussianBlur stdDeviation="2"/>
<feColorMatrix type="matrix" values="0 0 0 0 0 0 0 0 0 0 0 0 0 0 0 0 0 0 0.01 0"/>
<feBlend mode="normal" in2="BackgroundImageFix" result="effect1_dropShadow_6252_1075"/>
<feBlend mode="normal" in="SourceGraphic" in2="effect1_dropShadow_6252_1075" result="shape"/>
</filter>
</defs>
</svg>
