<svg width="18" height="16" viewBox="0 0 18 16" fill="none" xmlns="http://www.w3.org/2000/svg">
<g filter="url(#filter0_d_6252_1307)">
<path fill-rule="evenodd" clip-rule="evenodd" d="M4.68098 8.73748C5.9776 9.95855 8.56643 9.88223 8.64132 7.67198C8.72061 5.46026 3.52533 7.6529 4.68098 8.73748ZM9.40501 4.69864C10.2464 5.00538 12.988 4.09251 12.988 2.79512C12.9894 1.50214 8.1407 4.24221 9.40501 4.69864Z" fill="white"/>
<path d="M4.68098 8.73748L4.76667 8.64648L4.76652 8.64634L4.68098 8.73748ZM8.64132 7.67198L8.5164 7.6675L8.51639 7.66775L8.64132 7.67198ZM9.40501 4.69864L9.44783 4.5812L9.44746 4.58107L9.40501 4.69864ZM12.988 2.79512L12.863 2.79498V2.79512H12.988ZM4.59528 8.82848C5.27161 9.46541 6.28247 9.76426 7.14077 9.61462C7.57203 9.53943 7.97001 9.34992 8.26548 9.02701C8.56179 8.70318 8.74666 8.25425 8.76625 7.67621L8.51639 7.66775C8.49853 8.19484 8.33171 8.58429 8.08104 8.85825C7.82952 9.13312 7.48521 9.3008 7.09783 9.36834C6.31883 9.50415 5.38696 9.23063 4.76667 8.64648L4.59528 8.82848ZM8.76624 7.67646C8.77705 7.37479 8.69773 7.13376 8.54018 6.95549C8.38424 6.77906 8.1638 6.67783 7.91718 6.63015C7.42773 6.53552 6.7971 6.64392 6.21561 6.85085C5.63282 7.05824 5.07577 7.37303 4.73497 7.71406C4.56532 7.88382 4.4381 8.0712 4.39994 8.26551C4.3598 8.46997 4.42172 8.6656 4.59544 8.82863L4.76652 8.64634C4.65132 8.53822 4.6228 8.42808 4.64526 8.31367C4.66972 8.18911 4.75816 8.04453 4.91181 7.89078C5.21762 7.58476 5.73775 7.28626 6.29942 7.08638C6.86239 6.88604 7.44348 6.7932 7.86973 6.8756C8.08096 6.91644 8.24436 6.9983 8.35285 7.12105C8.45973 7.24198 8.52541 7.41624 8.5164 7.6675L8.76624 7.67646ZM9.3622 4.81608C9.60381 4.90416 9.95945 4.90001 10.3404 4.83635C10.7267 4.77182 11.1584 4.64275 11.5629 4.46262C11.9667 4.2828 12.3496 4.0493 12.6337 3.77255C12.9171 3.49638 13.113 3.16583 13.113 2.79512H12.863C12.863 3.07311 12.7161 3.34318 12.4592 3.59349C12.2029 3.8432 11.8479 4.062 11.4612 4.23424C11.0751 4.40616 10.6637 4.52888 10.2992 4.58977C9.92951 4.65155 9.62692 4.64649 9.44783 4.5812L9.3622 4.81608ZM13.113 2.79526C13.1131 2.69463 13.0894 2.60332 13.0369 2.52736C12.9844 2.45131 12.9099 2.4007 12.8258 2.36968C12.6634 2.30977 12.4515 2.31775 12.2277 2.36006C11.7746 2.44574 11.195 2.68819 10.6626 2.98136C10.1307 3.27432 9.62969 3.62692 9.33968 3.94221C9.19832 4.09588 9.08753 4.26121 9.07165 4.42036C9.06312 4.50589 9.08207 4.5904 9.13726 4.66329C9.19045 4.73355 9.26936 4.78256 9.36257 4.81621L9.44746 4.58107C9.38263 4.55766 9.35126 4.53178 9.33658 4.51239C9.32388 4.49562 9.31737 4.47573 9.32042 4.44518C9.3277 4.37217 9.38828 4.25865 9.52367 4.11146C9.78716 3.82501 10.2612 3.48782 10.7832 3.20034C11.3049 2.91306 11.8581 2.68439 12.2742 2.60571C12.4851 2.56582 12.6419 2.5683 12.7393 2.60424C12.7852 2.62116 12.8135 2.64381 12.8312 2.66945C12.849 2.69519 12.863 2.73398 12.863 2.79498L13.113 2.79526Z" fill="#868686"/>
</g>
<defs>
<filter id="filter0_d_6252_1307" x="0.388184" y="0.326538" width="16.7246" height="15.326" filterUnits="userSpaceOnUse" color-interpolation-filters="sRGB">
<feFlood flood-opacity="0" result="BackgroundImageFix"/>
<feColorMatrix in="SourceAlpha" type="matrix" values="0 0 0 0 0 0 0 0 0 0 0 0 0 0 0 0 0 0 127 0" result="hardAlpha"/>
<feOffset dy="2"/>
<feGaussianBlur stdDeviation="2"/>
<feColorMatrix type="matrix" values="0 0 0 0 0 0 0 0 0 0 0 0 0 0 0 0 0 0 0.01 0"/>
<feBlend mode="normal" in2="BackgroundImageFix" result="effect1_dropShadow_6252_1307"/>
<feBlend mode="normal" in="SourceGraphic" in2="effect1_dropShadow_6252_1307" result="shape"/>
</filter>
</defs>
</svg>
