<svg width="219" height="166" viewBox="0 0 219 166" fill="none" xmlns="http://www.w3.org/2000/svg">
<g filter="url(#filter0_d_6252_1168)">
<path fill-rule="evenodd" clip-rule="evenodd" d="M202.902 17.3092C199.14 17.3092 196.091 17.9197 195.89 20.56C195.684 23.2017 190.908 20.0522 188.875 20.9665C186.841 21.8823 187.859 18.8326 185.827 19.8467C183.793 20.8638 181.56 23.303 179.119 24.3186C176.68 25.3327 174.85 27.8732 173.326 28.0757C171.799 28.2812 176.579 23.4043 179.018 20.9665C181.457 18.5288 180.135 15.683 176.883 15.9883C173.63 16.2936 174.342 18.3248 172.511 18.7328C170.68 19.1393 161.941 23.5055 161.535 22.1861C161.128 20.8652 168.752 18.63 168.651 17.7142C168.548 16.7999 158.993 16.7001 154.727 17.3106C150.457 17.9212 142.936 20.3589 142.834 19.1408C142.731 17.9212 151.577 16.1923 156.049 15.686C160.621 15.1664 168.753 15.9912 172.209 14.5691C175.665 13.1455 180.847 13.0457 181.764 11.9274C182.677 10.8105 177.799 9.2871 175.361 9.38836C172.921 9.48963 170.482 9.18436 170.683 7.96476C170.887 6.74516 166.924 6.43989 166.517 5.52702C166.11 4.61269 158.488 5.32449 156.862 4.30742C155.235 3.29328 150.457 2.78255 146.394 3.08782C142.328 3.39308 133.993 3.29328 132.062 3.49435C130.132 3.69688 128.911 4.41015 127.184 4.30742C125.457 4.20762 122.812 4.81669 123.83 5.93355C125.67 7.95595 121.085 8.77783 121.391 7.25442C121.696 5.73102 117.426 5.01775 116.104 6.13609C114.599 7.40999 107.768 4.81669 106.754 6.13609C105.737 7.45696 97.7066 7.05042 95.3703 7.45696C93.0326 7.86349 99.0311 9.58943 98.827 10.6065C98.6243 11.6221 91.2029 10.6065 92.7301 12.4352C94.2543 14.2638 99.1324 15.5832 101.469 17.9212C103.806 20.2547 99.6405 18.834 96.9973 17.1052C94.3556 15.3792 91.0003 15.9883 89.3762 14.2624C87.7477 12.535 81.6508 11.217 80.1266 12.2297C78.3116 13.442 84.2925 15.6845 84.2925 17.0068C84.2925 18.3248 80.2279 16.7001 79.5172 17.2094C78.805 17.7186 75.2485 13.7546 73.2162 13.7546C71.1824 13.7546 72.9107 15.5832 72.9107 18.1222C72.9107 20.6627 68.9475 22.1876 70.0649 20.4587C71.1809 18.7328 70.3704 14.2624 68.2353 13.4493C66.1017 12.6377 60.6127 15.1796 57.7669 15.0754C54.9211 14.9756 51.1619 15.887 53.5995 17.3106C56.0415 18.7328 53.4996 19.5444 51.3645 18.021C49.2309 16.4961 42.2177 18.021 43.6406 19.0366C45.0635 20.0536 45.5716 22.9992 44.6568 24.2173C43.7419 25.4355 40.7933 22.9977 38.0489 23.2003C35.3058 23.4057 21.6862 29.9044 22.4997 31.6347C23.3103 33.3607 29.1061 31.9385 30.9358 32.9512C32.7655 33.9683 30.3249 37.7269 28.09 39.2518C25.8536 40.7766 17.5188 39.353 17.3162 41.1802C17.1135 43.0074 4.20459 43.3142 4.20459 46.2612C4.20459 47.378 4.81399 48.4934 6.23689 48.7987C8.06361 49.1935 10.303 48.5976 11.93 50.4263C13.5555 52.255 18.1297 52.3577 21.2794 51.1381C24.4307 49.9185 26.7684 51.3406 26.6656 53.1678C26.5643 54.998 19.5526 52.456 17.4189 53.7799C15.2839 55.0993 8.67594 53.9809 8.98138 55.4045C9.28681 56.8267 12.5394 56.5214 15.1825 57.0277C17.8242 57.537 15.3852 58.6539 15.2839 59.7707C15.1825 60.8891 16.7053 60.6836 19.3485 62.0045C21.9902 63.3268 26.3617 64.1384 24.9388 62.615C23.5173 61.0901 27.6832 61.2927 28.3954 62.2085C29.1076 63.1228 31.0386 60.8891 32.9696 61.3969C34.9005 61.9047 35.6127 59.5682 37.1355 60.5853C38.6627 61.6023 45.7772 62.2085 48.2148 63.5308C50.6553 64.8517 54.0092 65.1569 53.7052 67.0854C53.3998 69.0153 55.7346 70.4375 58.4791 71.6556C61.2235 72.8752 61.7331 75.5184 61.6303 77.2444C61.529 78.9718 64.5774 80.1899 64.0693 81.0044C63.5613 81.816 63.968 82.9329 65.7977 84.559C67.6259 86.1852 62.9519 87.4033 64.0693 88.8254C65.1868 90.2505 62.4423 92.9906 65.6964 93.4999C68.9489 94.0077 68.4394 91.2647 70.8814 91.2647C73.319 91.2647 70.7786 93.3986 72.1002 94.7195C73.4203 96.0389 76.1648 95.7336 78.7081 97.8675C81.247 100.001 79.6229 101.017 77.2822 99.2911C74.946 97.5637 68.1369 97.9717 68.1369 98.5793C68.1369 99.1884 75.6582 103.455 77.3865 102.846C79.1119 102.237 81.4496 105.388 80.4335 106.402C79.4159 107.416 79.9269 109.959 79.7198 111.176C79.5187 112.396 76.9768 111.176 75.3513 111.38C73.7257 111.584 72.6068 112.09 72.6068 113.816C72.6068 115.547 70.0649 116.763 69.761 118.896C69.4555 121.028 71.7903 120.931 73.1134 121.843C74.435 122.76 70.6758 123.366 70.4732 124.893C70.269 126.414 73.9269 129.159 75.2485 129.869C76.5686 130.578 75.3498 134.036 75.8579 135.762C76.3659 137.489 78.0943 135.351 77.8902 137.589C77.6875 139.824 79.5172 139.723 79.62 141.044C79.7213 142.363 82.8696 142.161 82.2631 143.988C81.6508 145.82 83.1765 147.139 83.8887 148.152C84.6009 149.17 87.2426 150.898 87.7492 152.217C88.2572 153.536 89.7829 155.262 91.6111 154.756C93.4423 154.247 93.5436 155.976 94.965 155.77C96.3879 155.569 98.6258 156.379 99.034 157.499C99.4408 158.617 103.808 159.631 105.028 159.834C106.25 160.038 106.454 157.803 107.573 157.195C108.687 156.586 108.284 152.114 109.3 151.809C110.316 151.505 110.011 146.834 108.994 146.427C107.978 146.019 108.383 144.394 110.724 144.7C113.06 145.005 112.25 142.667 113.364 142.363C114.482 142.058 113.975 139.925 114.787 139.721C115.601 139.517 115.501 138.094 114.89 137.285C114.281 136.472 114.993 135.863 116.213 135.659C117.433 135.455 117.128 133.731 115.502 133.119C113.874 132.51 114.383 130.682 116.009 131.799C117.636 132.915 118.855 132.103 117.94 130.885C117.025 129.665 119.059 129.056 121.193 128.854C123.326 128.65 124.447 127.533 124.038 125.905C123.63 124.282 126.477 124.382 125.765 125.807C125.055 127.229 125.46 128.651 126.477 127.636C127.494 126.62 129.425 127.332 132.883 126.315C136.336 125.301 139.692 122.453 140.502 119.712C141.317 116.969 145.281 117.274 144.774 115.445C144.266 113.617 145.485 112.906 148.024 114.126C150.567 115.344 148.535 113.313 151.379 113.313C154.225 113.313 153.718 112.294 156.463 112.196C159.206 112.095 166.319 110.877 168.761 108.842C171.2 106.81 176.382 105.084 178.517 103.763C180.652 102.441 181.162 101.325 179.84 102.037C178.517 102.749 175.772 102.847 173.74 102.342C171.708 101.835 168.454 100.107 166.116 101.427C163.781 102.749 165.203 99.4966 167.134 99.1913C169.065 98.8861 168.251 97.9732 167.743 95.942C167.236 93.9108 170.996 95.2302 172.623 97.5667C174.248 99.9031 177.397 100.919 180.142 100.107C182.887 99.2941 180.245 97.0589 181.363 95.5369C182.48 94.0121 172.927 89.2379 172.417 87.6132C171.912 85.9856 174.856 87.1054 177.501 88.2223C180.143 89.3391 180.753 86.0898 180.753 84.6676C180.753 83.247 175.062 83.1428 172.52 84.5649C169.978 85.9856 167.539 82.7362 170.996 82.3312C174.452 81.9261 171.3 80.501 172.319 79.4869C173.333 78.4698 177.702 82.431 179.94 81.7192C182.175 81.0103 183.802 81.8219 185.733 80.297C187.665 78.7751 182.276 77.353 181.16 76.0306C180.041 74.7083 186.747 75.219 188.783 75.3188C190.814 75.4216 191.322 72.3748 189.698 72.9824C188.069 73.5929 182.276 70.9526 183.496 69.1239C184.718 67.2953 186.953 69.4292 189.492 68.1069C192.034 66.786 189.698 61.8093 187.868 61.8093C186.04 61.8093 181.77 61.2002 181.77 60.2844C181.77 59.3701 178.212 58.557 179.228 57.6427C180.244 56.7269 181.568 58.7625 183.905 57.0321C186.242 55.3062 191.119 57.4401 193.256 57.0321C195.389 56.6285 192.341 52.6659 191.119 53.3763C189.899 54.0881 185.734 54.2891 185.429 52.1566C185.125 50.0242 189.394 52.1566 190.104 51.1425C190.815 50.1254 184.21 47.4852 183.192 49.6176C182.175 51.7516 178.517 51.0398 180.449 49.8202C182.38 48.602 182.789 45.1472 182.583 43.4213C182.38 41.6939 189.498 41.5941 188.683 38.7484C187.869 35.9041 192.035 35.2935 194.376 35.2935C196.711 35.2935 194.272 32.2467 192.035 32.552C189.8 32.8573 187.463 35.3948 186.345 34.3821C185.229 33.3651 188.987 31.5364 191.022 31.5364C193.054 31.5364 197.934 31.3339 199.659 30.3168C201.386 29.3041 196.611 28.3869 193.358 28.7934C190.106 29.1999 190.106 27.7778 194.985 27.6765C199.865 27.5738 199.05 26.5567 202.508 26.1531C205.965 25.7451 204.841 24.3245 206.977 24.2217C209.113 24.1219 214.703 21.784 214.703 20.6657C214.703 19.5473 206.661 17.3092 202.902 17.3092ZM76.2588 105.788C76.3587 104.165 74.5305 105.179 73.5144 103.249C72.4982 101.319 67.3103 100.522 66.8081 102.031C66.6039 102.64 64.9784 103.555 66.2985 104.975C67.6186 106.4 68.5335 105.788 70.0592 107.209C71.5819 108.633 76.1546 107.412 76.2588 105.788Z" fill="white"/>
<path d="M195.89 20.56L196.014 20.5697L196.015 20.5695L195.89 20.56ZM188.875 20.9665L188.824 20.8525L188.824 20.8525L188.875 20.9665ZM185.827 19.8467L185.771 19.7349L185.771 19.7349L185.827 19.8467ZM179.119 24.3186L179.167 24.434L179.167 24.434L179.119 24.3186ZM173.326 28.0757L173.31 27.9518L173.309 27.9518L173.326 28.0757ZM172.511 18.7328L172.538 18.8548L172.538 18.8548L172.511 18.7328ZM161.535 22.1861L161.415 22.2229L161.415 22.2229L161.535 22.1861ZM168.651 17.7142L168.775 17.7005L168.775 17.7003L168.651 17.7142ZM154.727 17.3106L154.745 17.4344L154.745 17.4344L154.727 17.3106ZM142.834 19.1408L142.959 19.1304L142.959 19.1303L142.834 19.1408ZM156.049 15.686L156.063 15.8102L156.063 15.8102L156.049 15.686ZM172.209 14.5691L172.256 14.6847L172.256 14.6847L172.209 14.5691ZM181.764 11.9274L181.86 12.0066L181.86 12.0065L181.764 11.9274ZM175.361 9.38836L175.366 9.51326V9.51325L175.361 9.38836ZM170.683 7.96476L170.56 7.94413L170.56 7.94441L170.683 7.96476ZM166.517 5.52702L166.403 5.57783L166.403 5.5779L166.517 5.52702ZM156.862 4.30742L156.928 4.20145L156.928 4.20134L156.862 4.30742ZM146.394 3.08782L146.403 3.21246V3.21246L146.394 3.08782ZM132.062 3.49435L132.049 3.37002L132.049 3.37003L132.062 3.49435ZM127.184 4.30742L127.191 4.18264L127.191 4.18263L127.184 4.30742ZM123.83 5.93355L123.922 5.84944L123.922 5.84937L123.83 5.93355ZM116.104 6.13609L116.024 6.04067L116.024 6.04068L116.104 6.13609ZM106.754 6.13609L106.853 6.21231L106.853 6.21229L106.754 6.13609ZM95.3703 7.45696L95.3917 7.58011L95.3917 7.58011L95.3703 7.45696ZM98.827 10.6065L98.7044 10.5819L98.7044 10.582L98.827 10.6065ZM92.7301 12.4352L92.8261 12.3551L92.826 12.355L92.7301 12.4352ZM101.469 17.9212L101.38 18.0095L101.38 18.0096L101.469 17.9212ZM96.9973 17.1052L97.0657 17.0006L97.0657 17.0005L96.9973 17.1052ZM89.3762 14.2624L89.4672 14.1767L89.4671 14.1766L89.3762 14.2624ZM80.1266 12.2297L80.0574 12.1256L80.0572 12.1258L80.1266 12.2297ZM79.5172 17.2094L79.5899 17.3111L79.59 17.311L79.5172 17.2094ZM70.0649 20.4587L69.96 20.3908L69.96 20.3909L70.0649 20.4587ZM68.2353 13.4493L68.2798 13.3325L68.2797 13.3325L68.2353 13.4493ZM57.7669 15.0754L57.7714 14.9505L57.7712 14.9505L57.7669 15.0754ZM53.5995 17.3106L53.5364 17.4186L53.5366 17.4187L53.5995 17.3106ZM51.3645 18.021L51.2919 18.1227L51.2919 18.1227L51.3645 18.021ZM43.6406 19.0366L43.7133 18.9349L43.7132 18.9348L43.6406 19.0366ZM38.0489 23.2003L38.0397 23.0756L38.0395 23.0756L38.0489 23.2003ZM22.4997 31.6347L22.6128 31.5816L22.6128 31.5816L22.4997 31.6347ZM30.9358 32.9512L30.9965 32.842L30.9963 32.8418L30.9358 32.9512ZM28.09 39.2518L28.1604 39.355L28.1604 39.355L28.09 39.2518ZM6.23689 48.7987L6.2633 48.6765L6.26311 48.6765L6.23689 48.7987ZM11.93 50.4263L12.0234 50.3433L12.0234 50.3432L11.93 50.4263ZM21.2794 51.1381L21.2343 51.0215L21.2343 51.0215L21.2794 51.1381ZM26.6656 53.1678L26.5408 53.1608L26.5408 53.1609L26.6656 53.1678ZM17.4189 53.7799L17.4847 53.8862L17.4848 53.8861L17.4189 53.7799ZM8.98138 55.4045L8.85916 55.4307L8.85916 55.4308L8.98138 55.4045ZM15.1825 57.0277L15.2062 56.905L15.2061 56.905L15.1825 57.0277ZM15.2839 59.7707L15.1594 59.7594L15.1594 59.7594L15.2839 59.7707ZM19.3485 62.0045L19.4044 61.8927L19.4043 61.8926L19.3485 62.0045ZM24.9388 62.615L24.8473 62.7002L24.8474 62.7003L24.9388 62.615ZM28.3954 62.2085L28.2968 62.2852L28.2968 62.2853L28.3954 62.2085ZM37.1355 60.5853L37.0661 60.6892L37.0662 60.6893L37.1355 60.5853ZM48.2148 63.5308L48.1552 63.6407L48.1553 63.6407L48.2148 63.5308ZM53.7052 67.0854L53.8287 67.1049L53.8287 67.1049L53.7052 67.0854ZM58.4791 71.6556L58.5298 71.5414L58.5298 71.5414L58.4791 71.6556ZM61.6303 77.2444L61.5055 77.2369L61.5055 77.237L61.6303 77.2444ZM64.0693 81.0044L64.1753 81.0708L64.1754 81.0706L64.0693 81.0044ZM65.7977 84.559L65.8808 84.4656L65.8807 84.4656L65.7977 84.559ZM64.0693 88.8254L64.1677 88.7483L64.1676 88.7482L64.0693 88.8254ZM65.6964 93.4999L65.677 93.6234H65.6771L65.6964 93.4999ZM72.1002 94.7195L72.1885 94.6311L72.1002 94.7195ZM78.7081 97.8675L78.7885 97.7718L78.7884 97.7718L78.7081 97.8675ZM77.2822 99.2911L77.2079 99.3917L77.2081 99.3917L77.2822 99.2911ZM77.3865 102.846L77.428 102.964L77.4281 102.964L77.3865 102.846ZM80.4335 106.402L80.5217 106.49L80.5218 106.49L80.4335 106.402ZM79.7198 111.176L79.5966 111.155L79.5965 111.156L79.7198 111.176ZM69.761 118.896L69.8847 118.913L69.8847 118.913L69.761 118.896ZM73.1134 121.843L73.1847 121.74L73.1843 121.74L73.1134 121.843ZM70.4732 124.893L70.597 124.909L70.5971 124.909L70.4732 124.893ZM75.2485 129.869L75.1893 129.979L75.1893 129.979L75.2485 129.869ZM75.8579 135.762L75.9778 135.727L75.9778 135.727L75.8579 135.762ZM77.8902 137.589L77.7657 137.578L77.7657 137.578L77.8902 137.589ZM79.62 141.044L79.7446 141.034L79.7446 141.034L79.62 141.044ZM82.2631 143.988L82.3817 144.028L82.3818 144.027L82.2631 143.988ZM83.8887 148.152L83.9911 148.08L83.9909 148.08L83.8887 148.152ZM87.7492 152.217L87.6325 152.262L87.6325 152.262L87.7492 152.217ZM91.6111 154.756L91.6445 154.876L91.6446 154.876L91.6111 154.756ZM94.965 155.77L94.9475 155.646L94.9471 155.646L94.965 155.77ZM99.034 157.499L99.1515 157.456L99.1515 157.456L99.034 157.499ZM105.028 159.834L105.049 159.711L105.049 159.711L105.028 159.834ZM107.573 157.195L107.633 157.305L107.633 157.305L107.573 157.195ZM109.3 151.809L109.264 151.689L109.264 151.689L109.3 151.809ZM108.994 146.427L108.948 146.543L108.948 146.543L108.994 146.427ZM110.724 144.7L110.74 144.576H110.74L110.724 144.7ZM113.364 142.363L113.397 142.484L113.397 142.484L113.364 142.363ZM114.787 139.721L114.757 139.6L114.757 139.6L114.787 139.721ZM114.89 137.285L114.79 137.36L114.79 137.361L114.89 137.285ZM115.502 133.119L115.546 133.002L115.546 133.002L115.502 133.119ZM116.009 131.799L115.938 131.902L115.938 131.902L116.009 131.799ZM117.94 130.885L117.84 130.96L117.84 130.96L117.94 130.885ZM121.193 128.854L121.204 128.978L121.204 128.978L121.193 128.854ZM124.038 125.905L124.16 125.875L124.16 125.875L124.038 125.905ZM125.765 125.807L125.653 125.751L125.765 125.807ZM126.477 127.636L126.566 127.724L126.566 127.724L126.477 127.636ZM132.883 126.315L132.847 126.195L132.847 126.195L132.883 126.315ZM140.502 119.712L140.383 119.676L140.382 119.676L140.502 119.712ZM144.774 115.445L144.894 115.412L144.894 115.412L144.774 115.445ZM148.024 114.126L147.969 114.239L147.97 114.239L148.024 114.126ZM156.463 112.196L156.467 112.321H156.467L156.463 112.196ZM168.761 108.842L168.841 108.939L168.841 108.939L168.761 108.842ZM178.517 103.763L178.583 103.869L178.583 103.869L178.517 103.763ZM179.84 102.037L179.899 102.147L179.899 102.147L179.84 102.037ZM173.74 102.342L173.71 102.464L173.71 102.464L173.74 102.342ZM166.116 101.427L166.055 101.318L166.054 101.318L166.116 101.427ZM167.743 95.942L167.622 95.9723L167.622 95.9723L167.743 95.942ZM172.623 97.5667L172.725 97.4953L172.725 97.4952L172.623 97.5667ZM180.142 100.107L180.178 100.227L180.178 100.227L180.142 100.107ZM181.363 95.5369L181.464 95.6109L181.464 95.6108L181.363 95.5369ZM172.417 87.6132L172.298 87.6502L172.298 87.6506L172.417 87.6132ZM177.501 88.2223L177.549 88.1071L177.549 88.1071L177.501 88.2223ZM172.52 84.5649L172.581 84.674L172.581 84.674L172.52 84.5649ZM172.319 79.4869L172.407 79.5755L172.407 79.5752L172.319 79.4869ZM179.94 81.7192L179.902 81.6L179.902 81.6001L179.94 81.7192ZM185.733 80.297L185.655 80.1988L185.655 80.1989L185.733 80.297ZM181.16 76.0306L181.256 75.95L181.256 75.9499L181.16 76.0306ZM188.783 75.3188L188.789 75.194L188.789 75.194L188.783 75.3188ZM189.698 72.9824L189.654 72.8653L189.654 72.8653L189.698 72.9824ZM183.496 69.1239L183.392 69.0545L183.392 69.0546L183.496 69.1239ZM189.492 68.1069L189.434 67.996L189.434 67.996L189.492 68.1069ZM179.228 57.6427L179.311 57.7356L179.311 57.7355L179.228 57.6427ZM183.905 57.0321L183.83 56.9316L183.83 56.9317L183.905 57.0321ZM193.256 57.0321L193.232 56.9093L193.232 56.9093L193.256 57.0321ZM191.119 53.3763L191.056 53.2682L191.056 53.2683L191.119 53.3763ZM185.429 52.1566L185.305 52.1743V52.1744L185.429 52.1566ZM190.104 51.1425L190.207 51.2142L190.207 51.2141L190.104 51.1425ZM183.192 49.6176L183.08 49.5638L183.08 49.5638L183.192 49.6176ZM180.449 49.8202L180.383 49.7145L180.383 49.7145L180.449 49.8202ZM182.583 43.4213L182.459 43.4359L182.459 43.4361L182.583 43.4213ZM188.683 38.7484L188.563 38.7827L188.563 38.7828L188.683 38.7484ZM192.035 32.552L192.018 32.4282H192.018L192.035 32.552ZM186.345 34.3821L186.261 34.4745L186.261 34.4748L186.345 34.3821ZM199.659 30.3168L199.596 30.209L199.596 30.2091L199.659 30.3168ZM194.985 27.6765L194.988 27.8015H194.988L194.985 27.6765ZM202.508 26.1531L202.523 26.2773L202.523 26.2773L202.508 26.1531ZM206.977 24.2217L206.971 24.0969L206.97 24.0969L206.977 24.2217ZM76.2588 105.788L76.3836 105.796L76.3836 105.796L76.2588 105.788ZM66.8081 102.031L66.9266 102.071L66.9267 102.071L66.8081 102.031ZM66.2985 104.975L66.3902 104.89L66.3901 104.89L66.2985 104.975ZM70.0592 107.209L70.1445 107.118L70.1443 107.118L70.0592 107.209ZM202.902 17.1842C201.018 17.1842 199.296 17.3364 198.016 17.8278C197.374 18.074 196.837 18.4078 196.447 18.8561C196.055 19.3061 195.817 19.8651 195.765 20.5505L196.015 20.5695C196.063 19.9347 196.281 19.4274 196.636 19.0202C196.991 18.6115 197.489 18.2976 198.105 18.0612C199.34 17.5872 201.023 17.4342 202.902 17.4342V17.1842ZM195.765 20.5503C195.741 20.8609 195.651 21.0715 195.521 21.214C195.39 21.3566 195.207 21.4444 194.971 21.4863C194.491 21.5717 193.836 21.4614 193.096 21.2893C192.368 21.1199 191.562 20.8917 190.821 20.7655C190.081 20.6396 189.369 20.6075 188.824 20.8525L188.926 21.0805C189.398 20.8684 190.045 20.8871 190.779 21.012C191.511 21.1366 192.294 21.3593 193.039 21.5328C193.773 21.7036 194.478 21.8281 195.015 21.7325C195.288 21.6839 195.527 21.5772 195.705 21.3828C195.883 21.1884 195.987 20.9195 196.014 20.5697L195.765 20.5503ZM188.824 20.8525C188.333 21.0734 188.065 21.0387 187.894 20.9298C187.707 20.8112 187.594 20.585 187.463 20.315C187.341 20.0639 187.199 19.7663 186.937 19.6145C186.661 19.4542 186.294 19.474 185.771 19.7349L185.883 19.9586C186.376 19.7124 186.644 19.7331 186.812 19.8307C186.995 19.9369 187.107 20.1544 187.238 20.4245C187.36 20.6757 187.502 20.9768 187.76 21.1408C188.033 21.3145 188.4 21.3175 188.927 21.0805L188.824 20.8525ZM185.771 19.7349C184.74 20.2504 183.661 21.1247 182.549 21.9843C181.43 22.8489 180.274 23.7026 179.071 24.2032L179.167 24.434C180.405 23.919 181.585 23.0453 182.702 22.1821C183.825 21.3139 184.88 20.4601 185.883 19.9585L185.771 19.7349ZM179.071 24.2032C177.831 24.7187 176.75 25.6205 175.8 26.4051C175.322 26.7997 174.88 27.1636 174.462 27.4418C174.043 27.7208 173.662 27.905 173.31 27.9518L173.343 28.1996C173.752 28.1452 174.171 27.9359 174.601 27.6499C175.031 27.3631 175.484 26.9905 175.959 26.5979C176.915 25.8081 177.968 24.9326 179.167 24.434L179.071 24.2032ZM173.309 27.9518C173.224 27.9634 173.184 27.9531 173.169 27.9456C173.165 27.9434 173.159 27.9422 173.157 27.918C173.154 27.886 173.162 27.8313 173.192 27.7484C173.222 27.6677 173.27 27.5704 173.336 27.4573C173.601 27.0023 174.124 26.3437 174.779 25.5946C176.084 24.0999 177.886 22.2739 179.106 21.0549L178.929 20.8781C177.71 22.0969 175.902 23.9283 174.59 25.4301C173.936 26.1792 173.398 26.8537 173.12 27.3315C173.05 27.4516 172.995 27.5625 172.958 27.6613C172.922 27.7579 172.9 27.854 172.908 27.9405C172.916 28.0347 172.962 28.1196 173.054 28.1675C173.136 28.21 173.238 28.2138 173.343 28.1996L173.309 27.9518ZM179.106 21.0549C180.349 19.8127 180.658 18.4385 180.199 17.3983C179.739 16.3567 178.533 15.7078 176.871 15.8639L176.894 16.1128C178.485 15.9635 179.566 16.5849 179.97 17.4993C180.375 18.4151 180.125 19.6826 178.929 20.8781L179.106 21.0549ZM176.871 15.8639C176.044 15.9414 175.461 16.1295 175.023 16.38C174.584 16.631 174.299 16.9401 174.065 17.246C173.591 17.8641 173.343 18.4193 172.484 18.6108L172.538 18.8548C173.51 18.6383 173.822 17.9739 174.263 17.398C174.486 17.107 174.747 16.8256 175.147 16.5971C175.547 16.3681 176.094 16.1878 176.894 16.1128L176.871 15.8639ZM172.484 18.6108C172.013 18.7153 171.112 19.0698 170.033 19.5138C168.948 19.9605 167.674 20.5021 166.443 20.9905C165.211 21.4791 164.03 21.9112 163.133 22.1392C162.683 22.2535 162.315 22.314 162.051 22.3083C161.918 22.3054 161.822 22.286 161.758 22.2559C161.697 22.2275 161.667 22.1919 161.654 22.1493L161.415 22.2229C161.453 22.3452 161.539 22.4301 161.652 22.4826C161.761 22.5332 161.896 22.555 162.045 22.5582C162.344 22.5647 162.739 22.4973 163.195 22.3815C164.108 22.1492 165.302 21.7117 166.535 21.2229C167.768 20.7338 169.047 20.1901 170.128 19.745C171.216 19.2973 172.093 18.9535 172.538 18.8548L172.484 18.6108ZM161.654 22.1493C161.623 22.049 161.66 21.9153 161.821 21.7356C161.978 21.5596 162.231 21.3678 162.555 21.165C163.203 20.7603 164.108 20.3316 165.03 19.9121C165.948 19.4943 166.884 19.0855 167.582 18.7246C167.93 18.5443 168.226 18.3727 168.433 18.2145C168.536 18.1355 168.623 18.0559 168.683 17.9758C168.742 17.897 168.786 17.8029 168.775 17.7005L168.526 17.728C168.528 17.74 168.524 17.7707 168.483 17.8259C168.442 17.8799 168.376 17.9434 168.281 18.0158C168.092 18.1603 167.812 18.3238 167.467 18.5025C166.776 18.8596 165.851 19.2639 164.926 19.6845C164.006 20.1033 163.087 20.5383 162.423 20.9529C162.092 21.1597 161.816 21.3664 161.635 21.569C161.457 21.7679 161.344 21.9931 161.415 22.2229L161.654 22.1493ZM168.775 17.7003C168.762 17.5876 168.68 17.5059 168.593 17.4481C168.503 17.3881 168.38 17.3363 168.236 17.2902C167.946 17.1978 167.539 17.1202 167.048 17.0557C166.064 16.9264 164.722 16.8471 163.253 16.8156C160.314 16.7527 156.852 16.8803 154.709 17.1869L154.745 17.4344C156.868 17.1305 160.316 17.0027 163.247 17.0656C164.713 17.097 166.045 17.176 167.015 17.3035C167.501 17.3674 167.891 17.4428 168.16 17.5284C168.295 17.5715 168.392 17.6149 168.455 17.6565C168.521 17.7003 168.526 17.7266 168.526 17.7282L168.775 17.7003ZM154.709 17.1869C152.568 17.493 149.609 18.2577 147.19 18.7894C145.977 19.0562 144.901 19.264 144.124 19.33C143.734 19.3632 143.431 19.3594 143.226 19.3148C143.124 19.2925 143.056 19.2621 143.015 19.2297C142.978 19.2003 142.962 19.1691 142.959 19.1304L142.71 19.1511C142.719 19.2647 142.774 19.3572 142.86 19.4256C142.942 19.491 143.051 19.5326 143.173 19.5591C143.415 19.6119 143.749 19.6128 144.145 19.5791C144.941 19.5116 146.031 19.3002 147.244 19.0335C149.679 18.4983 152.616 17.7388 154.745 17.4344L154.709 17.1869ZM142.959 19.1303C142.956 19.0945 142.968 19.0462 143.016 18.9819C143.065 18.917 143.145 18.8445 143.26 18.7661C143.489 18.6093 143.833 18.4438 144.272 18.2743C145.148 17.9359 146.378 17.5911 147.755 17.2676C150.507 16.6208 153.832 16.0628 156.063 15.8102L156.035 15.5618C153.794 15.8155 150.46 16.3751 147.697 17.0242C146.317 17.3486 145.075 17.6964 144.182 18.041C143.736 18.213 143.371 18.3867 143.118 18.5598C142.992 18.6463 142.888 18.7365 142.817 18.8312C142.745 18.9264 142.7 19.0346 142.71 19.1513L142.959 19.1303ZM156.063 15.8102C158.341 15.5514 161.504 15.6276 164.549 15.591C166.068 15.5727 167.556 15.5262 168.881 15.3949C170.205 15.2638 171.375 15.0472 172.256 14.6847L172.161 14.4535C171.314 14.802 170.173 15.0157 168.857 15.1461C167.542 15.2764 166.063 15.3228 164.546 15.341C161.518 15.3774 158.329 15.3011 156.034 15.5618L156.063 15.8102ZM172.256 14.6847C173.97 13.9789 176.115 13.6002 177.962 13.2567C178.882 13.0855 179.729 12.9227 180.404 12.732C180.742 12.6366 181.04 12.5332 181.286 12.4164C181.529 12.3003 181.729 12.1668 181.86 12.0066L181.667 11.8481C181.569 11.9675 181.407 12.0818 181.178 12.1907C180.951 12.299 180.667 12.398 180.336 12.4914C179.674 12.6785 178.838 12.8393 177.916 13.0109C176.078 13.3527 173.904 13.7357 172.161 14.4535L172.256 14.6847ZM181.86 12.0065C182.001 11.835 182.034 11.6442 181.969 11.453C181.907 11.2723 181.761 11.1034 181.57 10.9482C181.187 10.6365 180.57 10.3388 179.861 10.0835C178.442 9.57214 176.596 9.21196 175.356 9.26347L175.366 9.51325C176.564 9.4635 178.376 9.81438 179.777 10.3187C180.478 10.5711 181.062 10.8574 181.413 11.1422C181.589 11.2853 181.693 11.418 181.732 11.5339C181.769 11.6394 181.755 11.7405 181.667 11.8482L181.86 12.0065ZM175.356 9.26347C174.14 9.31394 172.934 9.26242 172.061 9.05042C171.623 8.94412 171.283 8.80049 171.066 8.61989C170.855 8.4447 170.764 8.23904 170.806 7.9851L170.56 7.94441C170.501 8.30028 170.639 8.59013 170.906 8.81203C171.166 9.02851 171.55 9.18354 172.002 9.29335C172.909 9.51357 174.142 9.56406 175.366 9.51326L175.356 9.26347ZM170.806 7.98539C170.871 7.59841 170.597 7.30982 170.241 7.09119C169.878 6.86842 169.376 6.68351 168.869 6.51242C168.356 6.33923 167.836 6.17994 167.416 6.00602C167.206 5.91935 167.028 5.83142 166.891 5.73988C166.752 5.64714 166.668 5.55874 166.631 5.47615L166.403 5.5779C166.468 5.72352 166.597 5.84435 166.752 5.94779C166.908 6.05244 167.104 6.14765 167.32 6.23703C167.751 6.41521 168.286 6.57963 168.789 6.7493C169.298 6.92109 169.774 7.09823 170.11 7.30424C170.452 7.51438 170.597 7.7213 170.56 7.94413L170.806 7.98539ZM166.631 5.47621C166.591 5.38498 166.512 5.31726 166.422 5.26551C166.331 5.21303 166.216 5.16991 166.086 5.13343C165.824 5.06042 165.478 5.00842 165.078 4.96934C164.275 4.89109 163.228 4.86248 162.15 4.8308C161.07 4.79904 159.956 4.76416 159.011 4.67404C158.539 4.62899 158.112 4.57038 157.754 4.49221C157.393 4.41355 157.113 4.31712 156.928 4.20145L156.796 4.41339C157.017 4.55198 157.331 4.65579 157.7 4.73645C158.072 4.8176 158.51 4.87738 158.987 4.92291C159.942 5.01396 161.064 5.04898 162.143 5.08069C163.225 5.11248 164.261 5.14093 165.053 5.21816C165.45 5.25682 165.779 5.30716 166.018 5.3742C166.138 5.40775 166.231 5.44409 166.297 5.48213C166.364 5.52091 166.393 5.55477 166.403 5.57783L166.631 5.47621ZM156.928 4.20134C156.505 3.93764 155.887 3.71175 155.142 3.52485C154.395 3.33743 153.512 3.18722 152.556 3.07864C150.642 2.86148 148.424 2.80993 146.384 2.96317L146.403 3.21246C148.427 3.06043 150.629 3.11162 152.527 3.32704C153.476 3.43475 154.347 3.5833 155.081 3.76733C155.817 3.95188 156.406 4.17013 156.796 4.4135L156.928 4.20134ZM146.384 2.96317C144.356 3.11545 141.26 3.16681 138.425 3.20517C135.597 3.24344 133.022 3.26872 132.049 3.37002L132.075 3.61868C133.033 3.51891 135.59 3.49356 138.429 3.45515C141.261 3.41682 144.365 3.36545 146.403 3.21246L146.384 2.96317ZM132.049 3.37003C131.073 3.47246 130.274 3.70452 129.516 3.8941C128.757 4.08416 128.035 4.23283 127.191 4.18264L127.176 4.4322C128.059 4.48474 128.812 4.32814 129.577 4.13662C130.344 3.94461 131.121 3.71877 132.075 3.61867L132.049 3.37003ZM127.191 4.18263C126.314 4.13196 125.203 4.26037 124.434 4.5471C124.054 4.68878 123.73 4.87862 123.576 5.12839C123.495 5.25796 123.46 5.40385 123.488 5.56059C123.515 5.71442 123.6 5.8669 123.737 6.01774L123.922 5.84937C123.805 5.72099 123.75 5.61013 123.734 5.51726C123.718 5.42731 123.737 5.34315 123.788 5.26013C123.897 5.08469 124.152 4.91909 124.521 4.78137C125.251 4.5093 126.326 4.38307 127.177 4.43221L127.191 4.18263ZM123.737 6.01767C124.177 6.50061 124.206 6.87671 124.07 7.15214C123.926 7.44458 123.574 7.67443 123.149 7.80411C122.727 7.93291 122.266 7.95216 121.937 7.85523C121.773 7.80691 121.653 7.73311 121.582 7.64142C121.514 7.55383 121.481 7.4379 121.513 7.279L121.268 7.22985C121.224 7.4518 121.267 7.64343 121.385 7.79458C121.499 7.94163 121.672 8.03776 121.866 8.09502C122.254 8.20924 122.766 8.18227 123.222 8.04322C123.675 7.90505 124.106 7.64545 124.294 7.26259C124.491 6.86273 124.403 6.3777 123.922 5.84944L123.737 6.01767ZM121.513 7.279C121.604 6.82772 121.348 6.45401 120.951 6.1772C120.553 5.89986 119.988 5.69814 119.381 5.58184C118.773 5.46522 118.112 5.43244 117.517 5.50061C116.925 5.5684 116.381 5.73793 116.024 6.04067L116.185 6.23151C116.488 5.97508 116.974 5.81439 117.545 5.74899C118.113 5.68398 118.748 5.71504 119.334 5.82737C119.922 5.94002 120.45 6.13235 120.808 6.38226C121.167 6.63271 121.33 6.91943 121.268 7.22985L121.513 7.279ZM116.024 6.04068C115.86 6.179 115.615 6.27243 115.292 6.32431C114.972 6.37595 114.587 6.3846 114.157 6.36313C113.298 6.32018 112.278 6.15798 111.265 5.9956C110.256 5.83391 109.252 5.67182 108.437 5.63374C108.029 5.61471 107.662 5.62621 107.36 5.68699C107.061 5.74735 106.808 5.86011 106.654 6.05989L106.853 6.21229C106.953 6.08222 107.135 5.9874 107.41 5.93206C107.682 5.87715 108.026 5.86483 108.425 5.88347C109.223 5.92075 110.211 6.07998 111.225 6.24245C112.235 6.40424 113.269 6.56905 114.145 6.61282C114.583 6.63472 114.987 6.62666 115.332 6.57113C115.675 6.51585 115.972 6.41166 116.185 6.2315L116.024 6.04068ZM106.654 6.05987C106.55 6.19591 106.341 6.32397 106.026 6.43784C105.715 6.55027 105.317 6.64282 104.854 6.71922C103.93 6.87195 102.764 6.95743 101.551 7.01454C100.338 7.07165 99.087 7.10011 97.9871 7.13989C96.8918 7.17952 95.9429 7.23044 95.3489 7.33381L95.3917 7.58011C95.9658 7.48021 96.8969 7.4295 97.9962 7.38973C99.0909 7.35013 100.349 7.32144 101.563 7.26426C102.777 7.20707 103.955 7.12111 104.895 6.96588C105.365 6.88829 105.779 6.79272 106.111 6.67297C106.439 6.55466 106.703 6.40648 106.853 6.21231L106.654 6.05987ZM95.3489 7.33381C95.1979 7.36006 95.0744 7.39262 94.978 7.43276C94.8836 7.47212 94.8025 7.52399 94.7528 7.59684C94.6982 7.67688 94.6919 7.76657 94.7201 7.85102C94.7462 7.92891 94.8003 8.00054 94.8636 8.0651C94.991 8.19488 95.1917 8.33186 95.4267 8.47144C95.6639 8.61235 95.9455 8.7614 96.2412 8.91388C96.8361 9.22062 97.4866 9.54086 97.9779 9.84843C98.2239 10.0024 98.4219 10.1484 98.5511 10.2825C98.6856 10.4222 98.717 10.5191 98.7044 10.5819L98.9495 10.6311C98.988 10.4396 98.8766 10.2601 98.7312 10.1091C98.5805 9.95265 98.3617 9.79376 98.1106 9.63652C97.6077 9.32172 96.9428 8.99437 96.3558 8.69168C96.0606 8.53944 95.7846 8.39331 95.5544 8.25651C95.3218 8.11837 95.1452 7.99509 95.0421 7.89001C94.9902 7.83714 94.9659 7.79768 94.9573 7.77182C94.9508 7.75251 94.9538 7.7458 94.9593 7.73775C94.9697 7.72251 94.9996 7.69462 95.0742 7.66353C95.1469 7.63324 95.2505 7.60467 95.3917 7.58011L95.3489 7.33381ZM98.7044 10.582C98.6996 10.606 98.6827 10.6373 98.6334 10.6743C98.5833 10.7118 98.5079 10.7487 98.4047 10.7831C98.1985 10.8517 97.9088 10.9014 97.5606 10.9393C96.864 11.015 95.9737 11.04 95.1223 11.0912C94.2813 11.1417 93.4713 11.2182 92.9669 11.4034C92.7188 11.4946 92.5064 11.6253 92.4285 11.8285C92.3466 12.0424 92.4337 12.2753 92.6341 12.5153L92.826 12.355C92.6446 12.1378 92.6296 12.0025 92.662 11.9179C92.6985 11.8227 92.8169 11.7248 93.053 11.6381C93.5169 11.4678 94.2886 11.3918 95.1374 11.3407C95.9758 11.2903 96.8834 11.2644 97.5876 11.1878C97.9398 11.1495 98.2512 11.0976 98.4837 11.0203C98.5998 10.9816 98.7032 10.9344 98.7833 10.8743C98.8642 10.8137 98.929 10.734 98.9496 10.631L98.7044 10.582ZM92.634 12.5152C93.0293 12.9894 93.6352 13.4235 94.3465 13.8427C95.0592 14.2628 95.8893 14.6744 96.739 15.099C98.446 15.9522 100.229 16.8578 101.38 18.0095L101.557 17.8328C100.372 16.6467 98.5479 15.7236 96.8507 14.8754C95.9983 14.4494 95.1771 14.0421 94.4734 13.6274C93.7684 13.2119 93.193 12.7953 92.8261 12.3551L92.634 12.5152ZM101.38 18.0096C101.67 18.2986 101.851 18.5225 101.948 18.6895C102.05 18.8665 102.033 18.9366 102.021 18.9559C102.015 18.966 102 18.982 101.959 18.9959C101.918 19.0101 101.858 19.0192 101.778 19.0193C101.617 19.0196 101.398 18.9844 101.132 18.9156C100.069 18.6403 98.3792 17.8597 97.0657 17.0006L96.9289 17.2098C98.2586 18.0795 99.9734 18.8737 101.069 19.1576C101.344 19.2286 101.586 19.2697 101.778 19.2693C101.874 19.2692 101.964 19.2587 102.04 19.2324C102.118 19.2059 102.189 19.1605 102.234 19.0867C102.326 18.938 102.271 18.7497 102.164 18.5645C102.052 18.3693 101.852 18.1271 101.557 17.8327L101.38 18.0096ZM97.0657 17.0005C95.7212 16.1221 94.1968 15.8394 92.8301 15.5613C91.4493 15.2803 90.2473 15.0057 89.4672 14.1767L89.2852 14.348C90.1291 15.2449 91.4169 15.5288 92.7802 15.8063C94.1576 16.0866 95.6318 16.3623 96.9289 17.2098L97.0657 17.0005ZM89.4671 14.1766C89.0423 13.7259 88.3369 13.3115 87.5072 12.9586C86.6744 12.6044 85.7044 12.3072 84.739 12.0964C83.7737 11.8856 82.8091 11.7604 81.9871 11.7522C81.1728 11.744 80.4722 11.85 80.0574 12.1256L80.1957 12.3338C80.543 12.1031 81.1762 11.9941 81.9846 12.0022C82.7854 12.0102 83.7325 12.1325 84.6856 12.3406C85.6385 12.5487 86.5933 12.8415 87.4093 13.1886C88.2284 13.537 88.8959 13.9351 89.2852 14.3481L89.4671 14.1766ZM80.0572 12.1258C79.8095 12.2912 79.6728 12.4903 79.6597 12.7217C79.6471 12.9454 79.7525 13.1672 79.9123 13.3773C80.2318 13.797 80.8263 14.2429 81.4578 14.6798C82.0978 15.1226 82.7808 15.5593 83.3095 15.9716C83.5731 16.1772 83.7917 16.3717 83.9434 16.5521C84.0977 16.7356 84.1675 16.8865 84.1675 17.0068H84.4175C84.4175 16.7966 84.3004 16.5882 84.1347 16.3912C83.9664 16.1911 83.7319 15.984 83.4632 15.7745C82.9272 15.3565 82.2284 14.9089 81.6 14.4742C80.9632 14.0336 80.4028 13.6089 80.1113 13.2259C79.9657 13.0346 79.9016 12.872 79.9093 12.7358C79.9165 12.6075 79.9899 12.4713 80.196 12.3336L80.0572 12.1258ZM84.1675 17.0068C84.1675 17.1336 84.1215 17.2142 84.0424 17.2723C83.956 17.3358 83.8203 17.379 83.6333 17.3986C83.2598 17.4376 82.7449 17.377 82.1912 17.2879C81.6461 17.2002 81.0619 17.0846 80.5787 17.0242C80.3357 16.9938 80.1108 16.9763 79.9216 16.9836C79.7374 16.9907 79.5645 17.0217 79.4444 17.1078L79.59 17.311C79.6475 17.2698 79.7572 17.2401 79.9312 17.2334C80.1003 17.2269 80.3096 17.2425 80.5477 17.2723C81.0264 17.3321 81.5917 17.4447 82.1515 17.5348C82.7028 17.6235 83.2485 17.6901 83.6593 17.6472C83.8644 17.6258 84.0519 17.5757 84.1905 17.4738C84.3365 17.3665 84.4175 17.2095 84.4175 17.0068H84.1675ZM79.4445 17.1077C79.4089 17.1331 79.3297 17.1466 79.1668 17.0892C79.0116 17.0346 78.8161 16.9279 78.5857 16.7794C78.1254 16.4826 77.5564 16.0393 76.9369 15.5731C76.3207 15.1093 75.658 14.6256 75.0204 14.2577C74.3867 13.8921 73.759 13.6296 73.2162 13.6296V13.8796C73.6895 13.8796 74.2685 14.1126 74.8955 14.4743C75.5185 14.8338 76.1705 15.3092 76.7866 15.7728C77.3993 16.234 77.9799 16.6862 78.4503 16.9895C78.6852 17.1409 78.9003 17.2604 79.0838 17.325C79.2597 17.387 79.4474 17.4129 79.5899 17.3111L79.4445 17.1077ZM73.2162 13.6296C72.699 13.6296 72.3626 13.7443 72.2027 14.0167C72.1251 14.1488 72.0987 14.3036 72.1008 14.4687C72.1029 14.6335 72.1337 14.8174 72.179 15.0143C72.3623 15.8126 72.7857 16.8714 72.7857 18.1222H73.0357C73.0357 16.834 72.595 15.7091 72.4226 14.9583C72.3789 14.7679 72.3526 14.6041 72.3508 14.4654C72.349 14.3269 72.3718 14.2223 72.4182 14.1433C72.5062 13.9934 72.7165 13.8796 73.2162 13.8796V13.6296ZM72.7857 18.1222C72.7857 19.3275 71.8403 20.3103 71.0071 20.7828C70.8011 20.8996 70.6065 20.9824 70.4407 21.0287C70.271 21.076 70.1465 21.0809 70.0721 21.06C70.0373 21.0501 70.0196 21.0365 70.0102 21.0247C70.0013 21.0136 69.9918 20.9942 69.9914 20.9574C69.9904 20.8765 70.0338 20.7371 70.1699 20.5266L69.96 20.3909C69.8167 20.6125 69.7395 20.8037 69.7414 20.9604C69.7424 21.0424 69.7652 21.1186 69.815 21.1809C69.8643 21.2425 69.9318 21.2801 70.0042 21.3006C70.1443 21.3401 70.3222 21.3213 70.5079 21.2694C70.6974 21.2165 70.9109 21.1247 71.1304 21.0002C71.9996 20.5073 73.0357 19.4574 73.0357 18.1222H72.7857ZM70.1699 20.5266C70.4646 20.0708 70.6264 19.4445 70.6748 18.7585C70.7233 18.0705 70.6586 17.3121 70.4911 16.5837C70.3236 15.8555 70.0523 15.1525 69.6841 14.5774C69.3164 14.0031 68.8467 13.5484 68.2798 13.3325L68.1908 13.5661C68.6914 13.7568 69.1237 14.1657 69.4736 14.7122C69.823 15.258 70.0849 15.9329 70.2474 16.6397C70.4099 17.3462 70.4721 18.0798 70.4254 18.7409C70.3786 19.4039 70.2232 19.9837 69.96 20.3908L70.1699 20.5266ZM68.2797 13.3325C67.7148 13.1176 66.9446 13.1289 66.082 13.2519C65.2151 13.3756 64.2339 13.6157 63.2365 13.8762C62.2366 14.1373 61.2211 14.4189 60.2759 14.6292C59.3298 14.8397 58.4661 14.976 57.7714 14.9505L57.7623 15.2004C58.4905 15.227 59.3801 15.0846 60.3302 14.8732C61.2813 14.6616 62.305 14.3779 63.2997 14.118C64.2971 13.8575 65.266 13.6208 66.1173 13.4994C66.9729 13.3773 67.6889 13.3752 68.1908 13.5661L68.2797 13.3325ZM57.7712 14.9505C56.3388 14.9003 54.6685 15.1036 53.6558 15.5056C53.4017 15.6064 53.1829 15.7222 53.0184 15.8539C52.8546 15.9851 52.734 16.141 52.6993 16.3234C52.6638 16.51 52.7229 16.6976 52.8632 16.8784C53.0019 17.0571 53.225 17.2367 53.5364 17.4186L53.6625 17.2027C53.3646 17.0287 53.1719 16.8683 53.0607 16.7251C52.9512 16.5841 52.9263 16.4676 52.9449 16.3702C52.9642 16.2685 53.0359 16.1602 53.1746 16.0491C53.3127 15.9385 53.5067 15.8337 53.748 15.7379C54.7169 15.3533 56.3492 15.1508 57.7625 15.2004L57.7712 14.9505ZM53.5366 17.4187C53.8362 17.5931 54.0545 17.7555 54.2051 17.9017C54.3567 18.0488 54.4329 18.173 54.4605 18.27C54.4865 18.3615 54.4705 18.4306 54.4282 18.4873C54.3821 18.5492 54.2954 18.6083 54.1605 18.6513C53.8907 18.7372 53.4736 18.7438 52.9861 18.6309C52.5014 18.5186 51.9573 18.2904 51.4371 17.9192L51.2919 18.1227C51.8393 18.5133 52.4136 18.7549 52.9297 18.8744C53.443 18.9933 53.909 18.9938 54.2364 18.8895C54.4 18.8374 54.5403 18.7553 54.6287 18.6367C54.7208 18.5131 54.7467 18.3624 54.701 18.2016C54.6568 18.0464 54.5476 17.8857 54.3792 17.7223C54.2097 17.5577 53.9733 17.3837 53.6624 17.2026L53.5366 17.4187ZM51.4372 17.9193C50.8744 17.517 50.0067 17.3248 49.0649 17.2688C48.1182 17.2125 47.0763 17.2928 46.1476 17.4529C45.2215 17.6126 44.3963 17.8535 43.8883 18.1247C43.6399 18.2573 43.44 18.4111 43.362 18.5885C43.3202 18.6837 43.3134 18.7861 43.3532 18.8869C43.3914 18.9837 43.4676 19.0666 43.568 19.1383L43.7132 18.9348C43.6358 18.8796 43.6001 18.8315 43.5857 18.7952C43.5729 18.7628 43.573 18.7298 43.5909 18.6891C43.6324 18.5947 43.7637 18.4746 44.006 18.3453C44.4794 18.0926 45.2741 17.8572 46.1901 17.6993C47.1036 17.5418 48.1261 17.4634 49.05 17.5183C49.9788 17.5735 50.7879 17.7625 51.2919 18.1227L51.4372 17.9193ZM43.5679 19.1383C44.2428 19.6207 44.7151 20.5754 44.9025 21.5746C45.0904 22.5765 44.9832 23.5745 44.5568 24.1423L44.7567 24.2924C45.2451 23.642 45.3413 22.5582 45.1482 21.5285C44.9546 20.4962 44.4613 19.4696 43.7133 18.9349L43.5679 19.1383ZM44.5568 24.1423C44.3674 24.3945 44.0684 24.4715 43.6393 24.4197C43.2079 24.3677 42.6814 24.189 42.0814 23.9721C40.8961 23.5436 39.4444 22.9719 38.0397 23.0756L38.0581 23.3249C39.3978 23.226 40.7926 23.772 41.9964 24.2072C42.5911 24.4222 43.1447 24.6118 43.6093 24.6679C44.0761 24.7243 44.4887 24.6492 44.7567 24.2924L44.5568 24.1423ZM38.0395 23.0756C37.6812 23.1024 37.1567 23.2304 36.522 23.4315C35.8847 23.6335 35.1277 23.9122 34.3009 24.2456C32.6473 24.9123 30.7097 25.7995 28.8836 26.7344C27.0584 27.6689 25.3404 28.653 24.128 29.5138C23.5227 29.9436 23.0372 30.3469 22.7276 30.7018C22.573 30.8789 22.4568 31.0501 22.3937 31.2116C22.3301 31.3744 22.3165 31.5389 22.3866 31.6879L22.6128 31.5816C22.5812 31.5143 22.5787 31.4252 22.6266 31.3026C22.6749 31.1788 22.7706 31.0327 22.9159 30.8661C23.2061 30.5336 23.6726 30.1437 24.2727 29.7177C25.4709 28.8669 27.1767 27.8891 28.9975 26.9569C30.8176 26.0252 32.7484 25.1411 34.3944 24.4774C35.2175 24.1456 35.9682 23.8693 36.5976 23.6699C37.2296 23.4695 37.7307 23.3494 38.0582 23.3249L38.0395 23.0756ZM22.3866 31.6879C22.6173 32.1793 23.1895 32.4231 23.8801 32.5491C24.579 32.6767 25.4475 32.692 26.3365 32.6854C27.2305 32.6788 28.1452 32.65 28.9542 32.6859C29.7675 32.7219 30.446 32.823 30.8753 33.0606L30.9963 32.8418C30.5108 32.5731 29.7787 32.4722 28.9653 32.4361C28.1477 32.3999 27.2197 32.4289 26.3347 32.4355C25.4446 32.4421 24.5979 32.426 23.925 32.3032C23.2437 32.1788 22.7873 31.9532 22.6128 31.5816L22.3866 31.6879ZM30.8751 33.0605C31.2839 33.2877 31.4583 33.6649 31.4523 34.1488C31.4463 34.6398 31.2526 35.2323 30.9265 35.8529C30.2748 37.0929 29.1195 38.398 28.0195 39.1485L28.1604 39.355C29.2955 38.5806 30.4778 37.244 31.1478 35.9692C31.4824 35.3324 31.6955 34.6992 31.7023 34.1519C31.7092 33.5973 31.5026 33.1232 30.9965 32.842L30.8751 33.0605ZM28.0196 39.1485C27.4895 39.5099 26.5788 39.7055 25.4792 39.815C24.3859 39.924 23.1338 39.946 21.9371 39.9777C20.745 40.0092 19.6046 40.0502 18.7491 40.1993C18.3219 40.2738 17.9549 40.377 17.6851 40.5259C17.4139 40.6756 17.2234 40.8825 17.1919 41.1664L17.4404 41.194C17.4596 41.0212 17.5739 40.8728 17.806 40.7447C18.0395 40.6158 18.3744 40.5185 18.792 40.4456C19.6262 40.3002 20.7473 40.2592 21.9437 40.2276C23.1356 40.1961 24.3992 40.1739 25.504 40.0638C26.6025 39.9543 27.5723 39.756 28.1604 39.355L28.0196 39.1485ZM17.1919 41.1664C17.1835 41.2428 17.1409 41.3259 17.0481 41.4166C16.955 41.5077 16.8182 41.5993 16.638 41.6908C16.2776 41.8738 15.7669 42.0445 15.1496 42.2098C13.9156 42.5403 12.2899 42.8407 10.659 43.1784C9.03349 43.5149 7.40387 43.8884 6.17948 44.3644C5.56769 44.6023 5.04822 44.869 4.67972 45.1756C4.31061 45.4827 4.07959 45.8417 4.07959 46.2612H4.32959C4.32959 45.9439 4.50197 45.6487 4.83961 45.3678C5.17786 45.0864 5.66848 44.8313 6.27007 44.5975C7.47244 44.13 9.08272 43.7601 10.7097 43.4232C12.3314 43.0874 13.971 42.7843 15.2143 42.4513C15.8358 42.2849 16.3669 42.1088 16.7512 41.9137C16.9433 41.8162 17.1047 41.711 17.2229 41.5954C17.3415 41.4794 17.4235 41.3461 17.4404 41.194L17.1919 41.1664ZM4.07959 46.2612C4.07959 47.4251 4.71929 48.601 6.21067 48.9209L6.26311 48.6765C4.90868 48.3859 4.32959 47.331 4.32959 46.2612H4.07959ZM6.21048 48.9209C6.67753 49.0218 7.16854 49.059 7.66113 49.0872C8.15658 49.1156 8.6522 49.135 9.1422 49.1988C10.1171 49.3256 11.0504 49.6258 11.8366 50.5094L12.0234 50.3432C11.1825 49.3981 10.1826 49.082 9.17444 48.9508C8.67289 48.8856 8.16447 48.8657 7.67544 48.8376C7.18354 48.8094 6.70961 48.773 6.2633 48.6765L6.21048 48.9209ZM11.8366 50.5094C12.6831 51.4617 14.2756 51.9477 16.0258 52.0501C17.7828 52.1529 19.7318 51.8714 21.3246 51.2547L21.2343 51.0215C19.6774 51.6244 17.7644 51.9014 16.0404 51.8005C14.3097 51.6993 12.8024 51.2196 12.0234 50.3433L11.8366 50.5094ZM21.3246 51.2547C22.8762 50.6542 24.213 50.7095 25.1418 51.1245C26.0701 51.5394 26.5887 52.3093 26.5408 53.1608L26.7904 53.1749C26.8453 52.1992 26.2465 51.3444 25.2438 50.8963C24.2416 50.4484 22.834 50.4024 21.2343 51.0215L21.3246 51.2547ZM26.5408 53.1609C26.531 53.3386 26.442 53.4633 26.2685 53.5547C26.0868 53.6503 25.8179 53.705 25.4711 53.7246C24.7793 53.7636 23.8385 53.6606 22.8191 53.5396C21.8054 53.4193 20.7189 53.2819 19.7527 53.2581C18.7928 53.2346 17.9206 53.3215 17.353 53.6736L17.4848 53.8861C17.9841 53.5763 18.7885 53.4845 19.7465 53.5081C20.6983 53.5314 21.771 53.6669 22.7897 53.7878C23.8026 53.9081 24.7671 54.0147 25.4852 53.9742C25.8433 53.954 26.1554 53.8967 26.385 53.7759C26.6226 53.6508 26.7749 53.4546 26.7904 53.1748L26.5408 53.1609ZM17.3532 53.6735C16.8449 53.9876 16.056 54.1632 15.1429 54.2659C14.2339 54.3682 13.223 54.3965 12.2808 54.4282C11.3436 54.4597 10.4687 54.4947 9.8473 54.6128C9.53833 54.6716 9.27533 54.7536 9.09729 54.8775C9.0066 54.9406 8.93255 55.0182 8.88865 55.1142C8.84406 55.2118 8.8351 55.3186 8.85916 55.4307L9.1036 55.3783C9.08947 55.3125 9.09634 55.2612 9.11604 55.2181C9.13642 55.1735 9.17511 55.1279 9.24004 55.0827C9.37324 54.9901 9.59306 54.9156 9.894 54.8584C10.4924 54.7446 11.3457 54.7098 12.2892 54.678C13.2276 54.6465 14.2499 54.618 15.1709 54.5143C16.0877 54.4112 16.9254 54.2318 17.4847 53.8862L17.3532 53.6735ZM8.85916 55.4308C8.94694 55.8395 9.24654 56.1122 9.65517 56.3004C10.0618 56.4877 10.5947 56.6006 11.188 56.6833C11.7825 56.7662 12.451 56.8204 13.1296 56.8849C13.8106 56.9497 14.5044 57.0251 15.159 57.1505L15.2061 56.905C14.5391 56.7772 13.8352 56.7009 13.1533 56.636C12.4692 56.571 11.8098 56.5176 11.2226 56.4357C10.6342 56.3537 10.1315 56.2446 9.75977 56.0734C9.39003 55.903 9.16853 55.6806 9.10359 55.3783L8.85916 55.4308ZM15.1589 57.1505C15.4841 57.2132 15.7251 57.2841 15.8993 57.3605C16.0745 57.4372 16.1735 57.5155 16.2261 57.5877C16.319 57.7152 16.2966 57.8727 16.1549 58.1066C16.0861 58.2202 15.9957 58.3405 15.8946 58.469C15.7952 58.5953 15.6841 58.7313 15.5821 58.8677C15.3801 59.138 15.1882 59.442 15.1594 59.7594L15.4083 59.782C15.4302 59.541 15.5811 59.2866 15.7824 59.0174C15.882 58.8841 15.9876 58.7551 16.0911 58.6236C16.1929 58.4942 16.2915 58.3637 16.3687 58.2361C16.5193 57.9876 16.6177 57.7005 16.4281 57.4405C16.3395 57.3189 16.1964 57.2177 15.9997 57.1315C15.8021 57.0449 15.5414 56.9696 15.2062 56.905L15.1589 57.1505ZM15.1594 59.7594C15.1309 60.0733 15.2183 60.3095 15.4192 60.4971C15.6096 60.675 15.8954 60.8025 16.2443 60.9291C16.953 61.1864 17.9796 61.4601 19.2926 62.1163L19.4043 61.8926C18.0742 61.2279 17.0178 60.944 16.3296 60.6941C15.9802 60.5673 15.7391 60.4539 15.5898 60.3145C15.4511 60.1848 15.3861 60.0273 15.4083 59.782L15.1594 59.7594ZM19.2925 62.1162C20.6252 62.7833 22.3914 63.3209 23.6502 63.5006C23.9655 63.5456 24.2519 63.5687 24.4937 63.5649C24.7323 63.5613 24.9403 63.5315 25.09 63.4615C25.1663 63.4258 25.2343 63.3765 25.2809 63.3081C25.3289 63.2376 25.3481 63.1558 25.3399 63.0686C25.3243 62.9041 25.2117 62.7241 25.0301 62.5297L24.8474 62.7003C25.0215 62.8867 25.0836 63.0146 25.091 63.0922C25.0942 63.126 25.087 63.1487 25.0743 63.1672C25.0603 63.1879 25.0333 63.212 24.9841 63.235C24.8828 63.2824 24.7175 63.3115 24.4899 63.315C24.2654 63.3184 23.9928 63.297 23.6855 63.2531C22.4538 63.0773 20.7134 62.5479 19.4044 61.8927L19.2925 62.1162ZM25.0302 62.5298C24.8598 62.347 24.7889 62.206 24.7736 62.1037C24.7598 62.0114 24.7891 61.9383 24.8625 61.8724C24.9417 61.8013 25.072 61.7403 25.2502 61.6961C25.4262 61.6524 25.6382 61.6276 25.8703 61.6214C26.3347 61.609 26.8659 61.6711 27.323 61.792C27.5514 61.8525 27.7584 61.9268 27.9279 62.0121C28.099 62.0982 28.2237 62.1913 28.2968 62.2852L28.4941 62.1317C28.3891 61.9967 28.2278 61.8831 28.0403 61.7888C27.8513 61.6937 27.6271 61.6139 27.3869 61.5504C26.9071 61.4234 26.3521 61.3585 25.8636 61.3715C25.6193 61.3781 25.3883 61.4042 25.1899 61.4535C24.9936 61.5022 24.8182 61.5763 24.6955 61.6864C24.5672 61.8016 24.4987 61.9557 24.5263 62.1407C24.5525 62.3155 24.6623 62.5018 24.8473 62.7002L25.0302 62.5298ZM28.2968 62.2853C28.4036 62.4224 28.537 62.5036 28.6904 62.5374C28.8402 62.5703 29.002 62.5564 29.1675 62.5177C29.4948 62.4411 29.8777 62.2559 30.2785 62.0683C31.0987 61.6843 32.0228 61.2771 32.9378 61.5177L33.0014 61.276C31.9854 61.0088 30.9784 61.4646 30.1725 61.8419C29.76 62.035 29.406 62.2051 29.1105 62.2743C28.9647 62.3084 28.8437 62.3151 28.7441 62.2932C28.6481 62.2721 28.5653 62.2231 28.494 62.1317L28.2968 62.2853ZM32.9378 61.5177C33.9634 61.7875 34.6695 61.2948 35.2734 60.9051C35.581 60.7066 35.8548 60.539 36.1404 60.4765C36.4158 60.4162 36.7114 60.4523 37.0661 60.6892L37.2049 60.4813C36.7982 60.2096 36.4337 60.1564 36.087 60.2323C35.7504 60.306 35.44 60.5001 35.1378 60.6951C34.5222 61.0924 33.9067 61.5141 33.0014 61.276L32.9378 61.5177ZM37.0662 60.6893C37.2708 60.8256 37.5613 60.9504 37.9101 61.068C38.2605 61.1862 38.6773 61.2995 39.139 61.4102C40.062 61.6315 41.1739 61.8445 42.3098 62.0662C43.4472 62.2883 44.6097 62.5192 45.6397 62.777C46.672 63.0353 47.5606 63.3181 48.1552 63.6407L48.2744 63.4209C47.6502 63.0823 46.7353 62.7935 45.7004 62.5345C44.6631 62.2749 43.4944 62.0428 42.3577 61.8209C41.2193 61.5986 40.1139 61.3868 39.1973 61.1671C38.7391 61.0572 38.3304 60.946 37.99 60.8312C37.6479 60.7158 37.382 60.5992 37.2048 60.4812L37.0662 60.6893ZM48.1553 63.6407C48.7734 63.9753 49.4473 64.2445 50.1011 64.4893C50.7581 64.7354 51.3905 64.9553 51.9392 65.1948C52.4887 65.4346 52.9368 65.687 53.2289 65.9891C53.5149 66.2848 53.6509 66.6272 53.5817 67.0659L53.8287 67.1049C53.9115 66.5794 53.7423 66.1604 53.4086 65.8153C53.0811 65.4765 52.5952 65.2083 52.0392 64.9657C51.4823 64.7227 50.8376 64.4982 50.1888 64.2552C49.5369 64.0111 48.8764 63.7468 48.2743 63.4209L48.1553 63.6407ZM53.5817 67.0659C53.419 68.0943 53.9652 68.9721 54.8678 69.733C55.7708 70.4941 57.0544 71.16 58.4283 71.7699L58.5298 71.5414C57.1592 70.9331 55.9032 70.2788 55.029 69.5419C54.1545 68.8047 53.686 68.0065 53.8287 67.1049L53.5817 67.0659ZM58.4283 71.7698C61.1037 72.9587 61.6069 75.5348 61.5055 77.2369L61.7551 77.2518C61.8593 75.5021 61.3434 72.7917 58.5298 71.5414L58.4283 71.7698ZM61.5055 77.237C61.4779 77.7082 61.6658 78.1363 61.9383 78.5186C62.2105 78.9005 62.5752 79.2479 62.9184 79.5593C63.267 79.8756 63.5868 80.1493 63.7923 80.3961C63.8945 80.519 63.9592 80.6249 63.9866 80.7159C64.0123 80.8014 64.005 80.8714 63.9633 80.9383L64.1754 81.0706C64.2607 80.9339 64.2693 80.7876 64.2259 80.6438C64.1843 80.5056 64.095 80.3691 63.9844 80.2363C63.7643 79.9717 63.4237 79.6802 63.0863 79.3741C62.7436 79.0632 62.397 78.7314 62.1419 78.3735C61.8872 78.0162 61.7321 77.6443 61.7551 77.2517L61.5055 77.237ZM63.9634 80.9381C63.6826 81.3866 63.6626 81.9143 63.9432 82.5283C64.2208 83.1356 64.795 83.8351 65.7146 84.6525L65.8807 84.4656C64.9707 83.6568 64.4267 82.9849 64.1706 82.4243C63.9174 81.8704 63.948 81.4339 64.1753 81.0708L63.9634 80.9381ZM65.7146 84.6524C65.9309 84.8448 66.0401 85.0215 66.0814 85.1821C66.1223 85.3409 66.1005 85.4982 66.0277 85.6606C65.8774 85.9958 65.5229 86.3276 65.1187 86.6738C64.7263 87.01 64.288 87.3588 64.0247 87.713C63.8916 87.8921 63.7938 88.0841 63.7734 88.2881C63.7525 88.4967 63.814 88.7028 63.9711 88.9027L64.1676 88.7482C64.0453 88.5926 64.0085 88.4495 64.0221 88.313C64.0363 88.1717 64.1061 88.0226 64.2254 87.8621C64.467 87.5371 64.8735 87.2131 65.2814 86.8637C65.6774 86.5244 66.0788 86.1578 66.2558 85.7628C66.3467 85.5601 66.3813 85.3444 66.3235 85.1198C66.2662 84.8969 66.1215 84.6798 65.8808 84.4656L65.7146 84.6524ZM63.971 88.9026C64.2205 89.2207 64.2611 89.6189 64.2131 90.0722C64.1891 90.2982 64.1438 90.5323 64.0948 90.7713C64.0461 91.0084 63.9936 91.2516 63.958 91.4874C63.8874 91.956 63.8776 92.43 64.1203 92.821C64.3657 93.2162 64.8472 93.4935 65.677 93.6234L65.7157 93.3764C64.9186 93.2516 64.5228 92.9954 64.3327 92.6891C64.1399 92.3786 64.1362 91.983 64.2052 91.5247C64.2395 91.2972 64.2902 91.0627 64.3397 90.8216C64.3887 90.5824 64.4364 90.3378 64.4617 90.0986C64.5123 89.6214 64.477 89.1427 64.1677 88.7483L63.971 88.9026ZM65.6771 93.6234C66.5071 93.753 67.1094 93.6768 67.5832 93.4803C68.0559 93.2842 68.3882 92.9732 68.6839 92.6583C69.2779 92.0258 69.724 91.3897 70.8814 91.3897V91.1397C69.5968 91.1397 69.0766 91.875 68.5017 92.4871C68.213 92.7945 67.9102 93.074 67.4874 93.2494C67.0657 93.4243 66.5119 93.5007 65.7156 93.3764L65.6771 93.6234ZM70.8814 91.3897C71.4847 91.3897 71.7167 91.5238 71.8056 91.6804C71.8523 91.7626 71.8709 91.8684 71.8649 92.0039C71.8588 92.1398 71.8286 92.2945 71.7876 92.468C71.7076 92.8066 71.5849 93.2159 71.5701 93.6178C71.5549 94.0284 71.6506 94.4468 72.0118 94.8079L72.1885 94.6311C71.889 94.3317 71.8066 93.988 71.8199 93.627C71.8335 93.2573 71.9458 92.8855 72.0309 92.5255C72.0725 92.3497 72.1075 92.1757 72.1146 92.0151C72.1218 91.8541 72.1016 91.6955 72.023 91.557C71.8614 91.2723 71.4968 91.1397 70.8814 91.1397V91.3897ZM72.0118 94.8079C72.3589 95.1548 72.7956 95.3908 73.2861 95.5842C73.7749 95.7769 74.3289 95.9313 74.9091 96.1076C76.0744 96.4619 77.3762 96.9132 78.6277 97.9633L78.7884 97.7718C77.4967 96.6879 76.1545 96.2249 74.9818 95.8685C74.3929 95.6895 73.8543 95.5394 73.3778 95.3516C72.9029 95.1644 72.5015 94.9439 72.1885 94.6311L72.0118 94.8079ZM78.6277 97.9632C79.256 98.4914 79.6147 98.9407 79.7719 99.2849C79.9298 99.6307 79.8716 99.8295 79.7469 99.9292C79.6038 100.044 79.3117 100.087 78.8808 99.9759C78.4583 99.8667 77.9322 99.6151 77.3564 99.1905L77.2081 99.3917C77.8026 99.8301 78.3573 100.099 78.8183 100.218C79.2708 100.335 79.6649 100.315 79.9031 100.124C80.1596 99.9192 80.1777 99.5719 79.9993 99.181C79.82 98.7885 79.4296 98.3107 78.7885 97.7718L78.6277 97.9632ZM77.3566 99.1906C76.7506 98.7426 75.8657 98.4397 74.8924 98.2432C73.9163 98.0462 72.8383 97.9537 71.8358 97.9346C70.8335 97.9156 69.9025 97.9697 69.2196 98.0676C68.8791 98.1164 68.5949 98.1768 68.3932 98.2465C68.2931 98.2811 68.206 98.3204 68.1414 98.3664C68.0811 98.4094 68.0119 98.4791 68.0119 98.5793H68.2619C68.2619 98.6036 68.2459 98.599 68.2865 98.57C68.3228 98.5442 68.3842 98.5141 68.4749 98.4828C68.6546 98.4206 68.9207 98.363 69.255 98.315C69.9218 98.2195 70.8391 98.1657 71.8311 98.1846C72.823 98.2035 73.8853 98.295 74.8429 98.4883C75.8034 98.6821 76.6458 98.976 77.2079 99.3917L77.3566 99.1906ZM68.0119 98.5793C68.0119 98.6285 68.03 98.6728 68.049 98.7072C68.0689 98.7433 68.096 98.7798 68.127 98.8158C68.189 98.888 68.2767 98.9698 68.3835 99.0586C68.598 99.2369 68.9031 99.4542 69.271 99.6934C70.0074 100.172 71.0055 100.746 72.0569 101.281C73.1079 101.816 74.2159 102.314 75.1717 102.64C75.6494 102.803 76.0924 102.925 76.473 102.986C76.8498 103.046 77.1818 103.05 77.428 102.964L77.345 102.728C77.1591 102.793 76.878 102.797 76.5126 102.739C76.1512 102.681 75.7229 102.564 75.2525 102.403C74.312 102.082 73.2156 101.59 72.1702 101.058C71.1253 100.526 70.135 99.9571 69.4072 99.4838C69.0429 99.2469 68.747 99.0357 68.5434 98.8664C68.4412 98.7814 68.3655 98.7098 68.3166 98.6528C68.292 98.6243 68.2767 98.6023 68.268 98.5866C68.2584 98.5692 68.2619 98.5683 68.2619 98.5793H68.0119ZM77.4281 102.964C77.8169 102.826 78.25 102.897 78.677 103.113C79.1037 103.329 79.5126 103.685 79.8406 104.093C80.1688 104.502 80.4093 104.956 80.5072 105.362C80.6057 105.771 80.5548 106.104 80.3452 106.313L80.5218 106.49C80.8203 106.192 80.8582 105.751 80.7502 105.303C80.6416 104.853 80.3804 104.366 80.0355 103.937C79.6904 103.507 79.2549 103.126 78.7898 102.89C78.325 102.655 77.8188 102.561 77.3449 102.728L77.4281 102.964ZM80.3452 106.313C80.0687 106.589 79.9019 106.962 79.8004 107.375C79.6989 107.787 79.6605 108.249 79.6477 108.71C79.635 109.17 79.6477 109.638 79.6506 110.06C79.6535 110.486 79.6463 110.863 79.5966 111.155L79.8431 111.197C79.8969 110.881 79.9035 110.483 79.9006 110.059C79.8977 109.63 79.8851 109.171 79.8976 108.716C79.9102 108.263 79.9478 107.822 80.0432 107.434C80.1386 107.047 80.2895 106.722 80.5217 106.49L80.3452 106.313ZM79.5965 111.156C79.5753 111.284 79.5254 111.372 79.4568 111.434C79.3865 111.498 79.2875 111.544 79.1557 111.571C78.8876 111.627 78.5201 111.599 78.0879 111.535C77.8738 111.504 77.6485 111.464 77.4161 111.424C77.1843 111.384 76.946 111.343 76.7089 111.31C76.2361 111.243 75.7591 111.203 75.3357 111.256L75.3668 111.504C75.7562 111.455 76.2065 111.491 76.6738 111.557C76.9067 111.59 77.1416 111.631 77.3735 111.671C77.6048 111.711 77.8336 111.751 78.0515 111.783C78.483 111.846 78.8903 111.881 79.2063 111.816C79.3664 111.783 79.5117 111.722 79.6252 111.619C79.7405 111.514 79.814 111.373 79.8432 111.196L79.5965 111.156ZM75.3357 111.256C74.5186 111.359 73.8043 111.539 73.2937 111.928C72.7738 112.324 72.4818 112.922 72.4818 113.816H72.7318C72.7318 112.984 72.9992 112.467 73.4452 112.127C73.9005 111.78 74.5584 111.606 75.3668 111.504L75.3357 111.256ZM72.4818 113.816C72.4818 114.217 72.3349 114.594 72.0987 114.974C71.8617 115.355 71.5413 115.729 71.2029 116.124C70.534 116.906 69.7952 117.77 69.6372 118.878L69.8847 118.913C70.0307 117.889 70.7148 117.079 71.3928 116.287C71.7279 115.895 72.062 115.506 72.311 115.106C72.5609 114.704 72.7318 114.281 72.7318 113.816H72.4818ZM69.6372 118.878C69.5575 119.435 69.6488 119.86 69.8648 120.195C70.0788 120.527 70.406 120.756 70.7705 120.939C71.1334 121.121 71.5494 121.264 71.944 121.415C72.3435 121.567 72.7251 121.727 73.0425 121.946L73.1843 121.74C72.8401 121.503 72.4338 121.334 72.0329 121.181C71.6271 121.026 71.2305 120.89 70.8825 120.715C70.5361 120.542 70.2542 120.338 70.0749 120.06C69.8978 119.785 69.8117 119.423 69.8847 118.913L69.6372 118.878ZM73.0421 121.945C73.197 122.053 73.2521 122.139 73.2655 122.201C73.2777 122.257 73.2618 122.324 73.1897 122.413C73.1168 122.503 72.9988 122.6 72.8424 122.705C72.6874 122.809 72.503 122.916 72.3028 123.031C71.9064 123.257 71.4488 123.51 71.0793 123.803C70.7117 124.095 70.4065 124.445 70.3492 124.876L70.5971 124.909C70.6412 124.577 70.8818 124.279 71.2347 123.999C71.5858 123.721 72.0234 123.478 72.4269 123.248C72.6266 123.134 72.8184 123.022 72.982 122.912C73.1442 122.803 73.2872 122.69 73.384 122.57C73.4817 122.45 73.5443 122.307 73.5098 122.148C73.4767 121.995 73.3602 121.862 73.1847 121.74L73.0421 121.945ZM70.3493 124.876C70.2917 125.305 70.5062 125.796 70.8447 126.284C71.187 126.777 71.6738 127.292 72.2043 127.777C73.2648 128.748 74.518 129.619 75.1893 129.979L75.3076 129.759C74.6574 129.41 73.4209 128.552 72.3731 127.593C71.8494 127.114 71.3775 126.613 71.05 126.141C70.7187 125.664 70.5526 125.241 70.597 124.909L70.3493 124.876ZM75.1893 129.979C75.4697 130.13 75.6294 130.433 75.7061 130.868C75.7825 131.303 75.771 131.842 75.7329 132.426C75.6954 133.003 75.6313 133.629 75.609 134.208C75.5868 134.788 75.6049 135.345 75.738 135.797L75.9778 135.727C75.8568 135.316 75.8368 134.793 75.8589 134.217C75.881 133.641 75.9438 133.034 75.9824 132.442C76.0205 131.857 76.0344 131.292 75.9523 130.825C75.8702 130.358 75.6873 129.963 75.3076 129.759L75.1893 129.979ZM75.738 135.797C75.8733 136.257 76.1001 136.486 76.3786 136.58C76.6396 136.668 76.9294 136.627 77.1514 136.608C77.2687 136.599 77.3681 136.594 77.4531 136.607C77.5354 136.618 77.5957 136.645 77.6418 136.691C77.6888 136.738 77.7334 136.818 77.7593 136.961C77.7852 137.105 77.7907 137.304 77.7657 137.578L78.0147 137.6C78.0407 137.315 78.0368 137.091 78.0053 136.917C77.9737 136.741 77.9128 136.608 77.8186 136.514C77.7234 136.419 77.6067 136.376 77.4885 136.359C77.373 136.343 77.2486 136.35 77.1308 136.359C76.8827 136.38 76.6579 136.41 76.4583 136.343C76.2763 136.282 76.0965 136.13 75.9778 135.727L75.738 135.797ZM77.7657 137.578C77.7134 138.154 77.7916 138.589 77.9463 138.937C78.1006 139.284 78.327 139.536 78.5548 139.75C78.7895 139.971 79.0055 140.138 79.1833 140.343C79.3534 140.539 79.4722 140.756 79.4953 141.054L79.7446 141.034C79.7163 140.671 79.5679 140.405 79.3723 140.179C79.1845 139.962 78.9365 139.766 78.7262 139.568C78.5092 139.364 78.3097 139.139 78.1747 138.835C78.0401 138.532 77.9656 138.142 78.0147 137.6L77.7657 137.578ZM79.4953 141.053C79.5251 141.441 79.7803 141.705 80.0928 141.908C80.4022 142.11 80.8016 142.272 81.1535 142.438C81.516 142.61 81.8317 142.787 82.0235 143.022C82.1173 143.136 82.1803 143.264 82.2045 143.411C82.2288 143.559 82.2153 143.735 82.1445 143.949L82.3818 144.027C82.4626 143.784 82.4833 143.566 82.4512 143.371C82.4189 143.174 82.3347 143.007 82.217 142.863C81.9858 142.581 81.6219 142.384 81.2605 142.212C80.8884 142.036 80.5197 141.888 80.2292 141.699C79.9418 141.512 79.7655 141.306 79.7446 141.034L79.4953 141.053ZM82.1446 143.948C81.8233 144.909 82.066 145.735 82.4708 146.439C82.6725 146.79 82.9156 147.113 83.1502 147.409C83.3872 147.708 83.6111 147.974 83.7864 148.223L83.9909 148.08C83.8101 147.823 83.5763 147.544 83.3461 147.254C83.1135 146.96 82.8798 146.649 82.6876 146.315C82.3046 145.648 82.0906 144.898 82.3817 144.028L82.1446 143.948ZM83.7862 148.223C83.973 148.49 84.2809 148.797 84.6367 149.123C84.9927 149.449 85.4097 149.806 85.8129 150.165C86.2186 150.526 86.6145 150.894 86.9399 151.252C87.2668 151.612 87.5143 151.954 87.6325 152.262L87.8659 152.172C87.7308 151.82 87.4581 151.451 87.1249 151.084C86.7903 150.716 86.3862 150.341 85.9792 149.978C85.5695 149.613 85.1609 149.264 84.8055 148.939C84.4498 148.613 84.1605 148.322 83.9911 148.08L83.7862 148.223ZM87.6325 152.262C87.8938 152.94 88.4148 153.721 89.1075 154.269C89.8019 154.819 90.6808 155.143 91.6445 154.876L91.5778 154.635C90.7133 154.875 89.9152 154.59 89.2627 154.073C88.6085 153.555 88.1126 152.813 87.8658 152.172L87.6325 152.262ZM91.6446 154.876C92.0833 154.754 92.4085 154.769 92.6717 154.848C92.9373 154.928 93.1508 155.078 93.364 155.247C93.7837 155.58 94.2089 156.006 94.9829 155.894L94.9471 155.646C94.2997 155.74 93.9635 155.404 93.5194 155.051C93.3007 154.878 93.0567 154.703 92.7439 154.609C92.4286 154.514 92.0546 154.503 91.5776 154.635L91.6446 154.876ZM94.9825 155.894C95.6668 155.797 96.5595 155.944 97.3333 156.255C97.7191 156.41 98.0704 156.605 98.3483 156.826C98.6271 157.048 98.8251 157.291 98.9166 157.542L99.1515 157.456C99.0388 157.147 98.804 156.869 98.5039 156.63C98.203 156.391 97.8293 156.185 97.4267 156.023C96.6238 155.7 95.6861 155.542 94.9475 155.646L94.9825 155.894ZM98.9165 157.542C98.978 157.711 99.1092 157.866 99.2779 158.008C99.4479 158.151 99.665 158.288 99.9124 158.418C100.407 158.678 101.037 158.919 101.688 159.129C102.989 159.549 104.392 159.855 105.008 159.957L105.049 159.711C104.444 159.61 103.053 159.308 101.764 158.891C101.12 158.683 100.505 158.447 100.029 158.196C99.7905 158.071 99.5902 157.944 99.4388 157.816C99.286 157.688 99.1917 157.567 99.1515 157.456L98.9165 157.542ZM105.008 159.957C105.358 160.016 105.638 159.896 105.868 159.685C106.093 159.48 106.276 159.185 106.448 158.88C106.623 158.569 106.787 158.249 106.979 157.962C107.17 157.677 107.379 157.443 107.633 157.305L107.513 157.085C107.208 157.251 106.971 157.524 106.771 157.823C106.572 158.12 106.398 158.459 106.23 158.757C106.058 159.062 105.892 159.325 105.7 159.501C105.513 159.671 105.309 159.754 105.049 159.711L105.008 159.957ZM107.633 157.305C107.802 157.213 107.932 157.053 108.035 156.861C108.14 156.667 108.222 156.431 108.291 156.171C108.428 155.653 108.515 155.019 108.597 154.405C108.68 153.786 108.759 153.188 108.879 152.725C108.939 152.494 109.008 152.304 109.088 152.166C109.168 152.026 109.252 151.954 109.336 151.929L109.264 151.689C109.094 151.74 108.967 151.874 108.871 152.04C108.775 152.207 108.699 152.422 108.637 152.662C108.512 153.143 108.432 153.758 108.349 154.371C108.266 154.99 108.182 155.607 108.049 156.108C107.983 156.358 107.906 156.573 107.815 156.742C107.724 156.912 107.623 157.025 107.513 157.085L107.633 157.305ZM109.336 151.929C109.507 151.877 109.635 151.739 109.73 151.567C109.825 151.394 109.896 151.172 109.946 150.922C110.047 150.421 110.073 149.784 110.034 149.149C109.995 148.514 109.892 147.872 109.733 147.36C109.653 147.104 109.558 146.876 109.447 146.697C109.337 146.52 109.204 146.376 109.041 146.311L108.948 146.543C109.039 146.58 109.137 146.671 109.235 146.828C109.331 146.984 109.418 147.19 109.494 147.434C109.646 147.922 109.747 148.543 109.784 149.164C109.822 149.786 109.797 150.399 109.701 150.872C109.653 151.109 109.589 151.305 109.511 151.447C109.431 151.59 109.347 151.664 109.264 151.689L109.336 151.929ZM109.041 146.311C108.817 146.221 108.681 146.069 108.625 145.903C108.57 145.736 108.591 145.543 108.706 145.363C108.935 145.003 109.56 144.674 110.708 144.824L110.74 144.576C109.547 144.42 108.799 144.751 108.495 145.229C108.343 145.468 108.307 145.738 108.388 145.982C108.469 146.225 108.664 146.429 108.948 146.543L109.041 146.311ZM110.708 144.824C111.311 144.902 111.732 144.813 112.035 144.61C112.337 144.408 112.501 144.106 112.619 143.805C112.678 143.655 112.727 143.5 112.774 143.355C112.822 143.209 112.869 143.073 112.924 142.951C113.034 142.71 113.17 142.546 113.397 142.484L113.332 142.243C113.001 142.333 112.821 142.575 112.696 142.848C112.635 142.983 112.584 143.131 112.536 143.278C112.488 143.426 112.442 143.572 112.386 143.714C112.275 143.998 112.134 144.242 111.896 144.402C111.659 144.561 111.305 144.65 110.74 144.576L110.708 144.824ZM113.397 142.484C113.721 142.395 113.923 142.173 114.056 141.906C114.187 141.643 114.256 141.326 114.313 141.028C114.372 140.722 114.417 140.441 114.497 140.22C114.577 139.999 114.677 139.878 114.818 139.843L114.757 139.6C114.492 139.667 114.35 139.89 114.262 140.135C114.173 140.38 114.124 140.69 114.068 140.981C114.01 141.28 113.946 141.566 113.832 141.795C113.72 142.019 113.567 142.178 113.331 142.243L113.397 142.484ZM114.818 139.843C115.31 139.719 115.497 139.232 115.498 138.73C115.498 138.221 115.312 137.637 114.99 137.21L114.79 137.361C115.079 137.743 115.248 138.274 115.248 138.73C115.247 139.193 115.078 139.52 114.757 139.6L114.818 139.843ZM114.99 137.21C114.849 137.022 114.793 136.857 114.793 136.717C114.793 136.579 114.848 136.449 114.958 136.328C115.184 136.08 115.633 135.883 116.234 135.782L116.193 135.536C115.573 135.639 115.056 135.849 114.773 136.16C114.629 136.318 114.543 136.506 114.543 136.717C114.543 136.926 114.627 137.142 114.79 137.36L114.99 137.21ZM116.234 135.782C116.57 135.726 116.814 135.562 116.953 135.325C117.091 135.092 117.116 134.803 117.047 134.513C116.908 133.933 116.391 133.32 115.546 133.002L115.458 133.236C116.239 133.529 116.688 134.085 116.803 134.571C116.861 134.814 116.835 135.033 116.738 135.199C116.642 135.362 116.467 135.49 116.193 135.536L116.234 135.782ZM115.546 133.002C114.765 132.71 114.556 132.154 114.654 131.85C114.702 131.703 114.823 131.592 115.027 131.573C115.238 131.553 115.545 131.632 115.938 131.902L116.08 131.696C115.66 131.408 115.294 131.297 115.003 131.324C114.705 131.352 114.496 131.527 114.417 131.773C114.261 132.256 114.611 132.919 115.459 133.236L115.546 133.002ZM115.938 131.902C116.766 132.47 117.532 132.576 117.988 132.327C118.222 132.198 118.365 131.979 118.378 131.704C118.391 131.436 118.279 131.129 118.04 130.81L117.84 130.96C118.058 131.25 118.137 131.501 118.128 131.693C118.119 131.878 118.027 132.02 117.868 132.107C117.536 132.289 116.879 132.244 116.08 131.696L115.938 131.902ZM118.04 130.81C117.828 130.527 117.805 130.307 117.878 130.129C117.956 129.939 118.158 129.76 118.479 129.6C119.118 129.28 120.141 129.079 121.204 128.978L121.181 128.729C120.111 128.831 119.05 129.035 118.367 129.376C118.028 129.546 117.759 129.76 117.647 130.034C117.529 130.319 117.594 130.633 117.84 130.96L118.04 130.81ZM121.204 128.978C122.288 128.875 123.134 128.538 123.658 128.001C124.188 127.458 124.373 126.725 124.16 125.875L123.917 125.936C124.112 126.713 123.941 127.353 123.479 127.826C123.012 128.305 122.231 128.629 121.181 128.729L121.204 128.978ZM124.16 125.875C124.067 125.507 124.161 125.255 124.324 125.093C124.494 124.925 124.754 124.838 125.016 124.838C125.279 124.838 125.515 124.926 125.644 125.075C125.764 125.212 125.815 125.429 125.653 125.751L125.877 125.863C126.072 125.473 126.034 125.142 125.833 124.911C125.641 124.69 125.324 124.588 125.016 124.588C124.705 124.588 124.375 124.691 124.148 124.916C123.915 125.147 123.806 125.492 123.917 125.936L124.16 125.875ZM125.653 125.751C125.29 126.478 125.2 127.226 125.355 127.676C125.433 127.904 125.588 128.085 125.828 128.103C126.053 128.12 126.304 127.985 126.566 127.724L126.389 127.547C126.142 127.793 125.96 127.862 125.846 127.854C125.746 127.846 125.653 127.773 125.591 127.595C125.467 127.232 125.53 126.558 125.877 125.863L125.653 125.751ZM126.566 127.724C127.035 127.255 127.719 127.177 128.773 127.1C129.815 127.024 131.175 126.947 132.918 126.435L132.847 126.195C131.133 126.699 129.798 126.775 128.755 126.851C127.725 126.926 126.936 127 126.389 127.547L126.566 127.724ZM132.918 126.435C134.663 125.922 136.381 124.947 137.765 123.756C139.148 122.565 140.208 121.149 140.622 119.747L140.382 119.676C139.986 121.016 138.963 122.394 137.602 123.566C136.242 124.737 134.556 125.693 132.847 126.195L132.918 126.435ZM140.622 119.747C141.012 118.435 142.153 117.846 143.188 117.348C143.695 117.104 144.188 116.877 144.517 116.592C144.684 116.447 144.816 116.282 144.887 116.083C144.958 115.883 144.964 115.662 144.894 115.412L144.654 115.479C144.711 115.686 144.703 115.855 144.652 115.999C144.6 116.145 144.499 116.277 144.353 116.403C144.056 116.661 143.602 116.872 143.08 117.123C142.055 117.616 140.808 118.245 140.383 119.676L140.622 119.747ZM144.894 115.412C144.771 114.967 144.756 114.604 144.831 114.329C144.904 114.058 145.064 113.867 145.308 113.756C145.557 113.643 145.904 113.61 146.353 113.684C146.801 113.758 147.342 113.937 147.969 114.239L148.078 114.013C147.436 113.705 146.872 113.516 146.394 113.437C145.916 113.358 145.514 113.388 145.204 113.529C144.89 113.672 144.681 113.925 144.59 114.264C144.499 114.598 144.523 115.009 144.654 115.479L144.894 115.412ZM147.97 114.239C148.29 114.392 148.542 114.496 148.744 114.56C148.944 114.623 149.102 114.649 149.232 114.637C149.368 114.625 149.468 114.571 149.545 114.489C149.615 114.413 149.661 114.316 149.702 114.229C149.785 114.049 149.866 113.864 150.083 113.714C150.303 113.563 150.68 113.438 151.379 113.438V113.188C150.655 113.188 150.22 113.317 149.942 113.508C149.661 113.701 149.557 113.948 149.475 114.124C149.433 114.215 149.401 114.276 149.361 114.319C149.327 114.356 149.285 114.382 149.21 114.388C149.128 114.396 149.006 114.381 148.819 114.322C148.634 114.263 148.393 114.164 148.078 114.013L147.97 114.239ZM151.379 113.438C152.098 113.438 152.61 113.374 153.018 113.274C153.426 113.174 153.724 113.039 154.012 112.905C154.299 112.771 154.573 112.638 154.945 112.532C155.316 112.426 155.789 112.345 156.467 112.321L156.458 112.071C155.764 112.096 155.271 112.179 154.876 112.292C154.482 112.404 154.191 112.545 153.906 112.678C153.621 112.811 153.341 112.937 152.958 113.031C152.575 113.125 152.083 113.188 151.379 113.188V113.438ZM156.467 112.321C157.849 112.27 160.321 111.939 162.753 111.366C163.97 111.079 165.179 110.732 166.239 110.327C167.297 109.924 168.215 109.46 168.841 108.939L168.681 108.746C168.086 109.242 167.198 109.694 166.15 110.094C165.104 110.493 163.906 110.838 162.696 111.122C160.275 111.692 157.82 112.021 156.458 112.071L156.467 112.321ZM168.841 108.939C170.045 107.935 171.935 107.001 173.805 106.15C175.663 105.303 177.506 104.535 178.583 103.869L178.451 103.657C177.393 104.312 175.577 105.068 173.701 105.922C171.836 106.772 169.915 107.718 168.681 108.746L168.841 108.939ZM178.583 103.869C179.654 103.206 180.335 102.584 180.58 102.205C180.64 102.112 180.685 102.016 180.69 101.928C180.692 101.881 180.684 101.829 180.65 101.782C180.616 101.735 180.568 101.71 180.52 101.699C180.433 101.678 180.325 101.697 180.212 101.734C180.094 101.772 179.95 101.836 179.781 101.927L179.899 102.147C180.061 102.06 180.19 102.003 180.289 101.972C180.392 101.938 180.445 101.938 180.462 101.942C180.467 101.943 180.457 101.942 180.448 101.929C180.439 101.917 180.441 101.908 180.44 101.915C180.439 101.935 180.424 101.985 180.37 102.069C180.156 102.401 179.515 102.998 178.451 103.657L178.583 103.869ZM179.781 101.927C179.144 102.27 178.149 102.471 177.05 102.521C175.955 102.571 174.773 102.47 173.77 102.221L173.71 102.464C174.739 102.719 175.946 102.822 177.062 102.771C178.175 102.72 179.213 102.516 179.899 102.147L179.781 101.927ZM173.77 102.221C173.269 102.096 172.69 101.895 172.06 101.681C171.433 101.468 170.758 101.244 170.072 101.078C168.704 100.745 167.266 100.634 166.055 101.318L166.178 101.535C167.304 100.9 168.661 100.992 170.013 101.321C170.687 101.484 171.353 101.705 171.98 101.918C172.605 102.13 173.196 102.335 173.71 102.464L173.77 102.221ZM166.054 101.318C165.768 101.48 165.548 101.567 165.385 101.6C165.22 101.634 165.135 101.609 165.094 101.578C165.056 101.55 165.025 101.493 165.028 101.384C165.031 101.275 165.067 101.133 165.139 100.97C165.284 100.645 165.558 100.265 165.915 99.9488C166.271 99.6321 166.701 99.3863 167.153 99.3148L167.114 99.0679C166.601 99.149 166.129 99.4243 165.749 99.7619C165.369 100.1 165.071 100.507 164.911 100.869C164.831 101.048 164.782 101.224 164.778 101.378C164.774 101.532 164.817 101.683 164.944 101.778C165.067 101.871 165.239 101.885 165.435 101.845C165.634 101.804 165.88 101.704 166.178 101.535L166.054 101.318ZM167.153 99.3148C167.642 99.2376 167.982 99.119 168.196 98.9355C168.421 98.7433 168.492 98.4948 168.478 98.2078C168.464 97.9291 168.37 97.5999 168.253 97.2264C168.135 96.8479 167.99 96.4149 167.864 95.9117L167.622 95.9723C167.75 96.4847 167.898 96.9275 168.014 97.301C168.133 97.6795 168.216 97.9784 168.228 98.22C168.24 98.4533 168.184 98.6172 168.034 98.7455C167.874 98.8825 167.591 98.9925 167.114 99.0679L167.153 99.3148ZM167.864 95.9118C167.805 95.6721 167.812 95.4984 167.858 95.3766C167.902 95.2591 167.986 95.1771 168.11 95.1261C168.373 95.0186 168.809 95.0529 169.342 95.2348C170.399 95.5949 171.723 96.4935 172.52 97.6381L172.725 97.4952C171.895 96.3034 170.526 95.374 169.423 94.9981C168.877 94.812 168.366 94.7513 168.016 94.8947C167.834 94.9691 167.695 95.099 167.624 95.289C167.554 95.4747 167.555 95.7041 167.622 95.9723L167.864 95.9118ZM172.52 97.6381C174.178 100.021 177.383 101.053 180.178 100.227L180.107 99.9873C177.41 100.785 174.318 99.7849 172.725 97.4953L172.52 97.6381ZM180.178 100.227C180.883 100.018 181.272 99.7088 181.448 99.3152C181.621 98.9285 181.575 98.4906 181.485 98.0623C181.44 97.8477 181.382 97.6241 181.331 97.4086C181.279 97.1903 181.234 96.9755 181.211 96.7652C181.165 96.346 181.21 95.9567 181.464 95.6109L181.262 95.463C180.957 95.8781 180.913 96.339 180.962 96.7923C180.987 97.0183 181.035 97.2453 181.088 97.4662C181.141 97.6899 181.196 97.9027 181.24 98.1134C181.329 98.5358 181.358 98.9043 181.22 99.213C181.085 99.5146 180.774 99.7896 180.107 99.9873L180.178 100.227ZM181.464 95.6108C181.646 95.3615 181.594 95.061 181.429 94.7646C181.264 94.4671 180.969 94.1383 180.593 93.7921C179.839 93.0978 178.726 92.3026 177.571 91.5094C176.412 90.7138 175.209 89.9199 174.261 89.2216C173.788 88.8727 173.382 88.5504 173.079 88.2664C172.771 87.9774 172.589 87.7446 172.536 87.5758L172.298 87.6506C172.372 87.8879 172.6 88.1598 172.908 88.4487C173.221 88.7428 173.637 89.0719 174.113 89.4229C175.065 90.1244 176.276 90.924 177.429 91.7155C178.586 92.5096 179.684 93.2955 180.423 93.976C180.794 94.3171 181.065 94.6242 181.211 94.886C181.357 95.1489 181.359 95.3311 181.262 95.4631L181.464 95.6108ZM172.536 87.5761C172.477 87.3846 172.475 87.2519 172.502 87.1626C172.527 87.0797 172.582 87.0202 172.676 86.9794C172.775 86.9365 172.917 86.9156 173.103 86.9211C173.287 86.9266 173.505 86.9576 173.751 87.0107C174.741 87.2239 176.128 87.7781 177.452 88.3374L177.549 88.1071C176.229 87.5496 174.821 86.9854 173.804 86.7663C173.549 86.7114 173.315 86.6773 173.11 86.6712C172.907 86.6652 172.724 86.6864 172.577 86.7499C172.425 86.8155 172.312 86.9269 172.262 87.0899C172.215 87.2465 172.231 87.4349 172.298 87.6502L172.536 87.5761ZM177.452 88.3374C178.135 88.626 178.703 88.6389 179.169 88.4542C179.633 88.2705 179.976 87.8992 180.226 87.4588C180.724 86.5817 180.878 85.3891 180.878 84.6676H180.628C180.628 85.3683 180.477 86.5115 180.009 87.3354C179.776 87.7454 179.471 88.0659 179.077 88.2218C178.686 88.3767 178.188 88.3769 177.549 88.1071L177.452 88.3374ZM180.878 84.6676C180.878 84.4429 180.764 84.2538 180.585 84.1016C180.407 83.951 180.158 83.8297 179.863 83.7334C179.273 83.5407 178.468 83.4383 177.592 83.4252C175.841 83.3992 173.757 83.7294 172.459 84.4558L172.581 84.674C173.824 83.9782 175.858 83.6495 177.588 83.6752C178.452 83.688 179.229 83.7892 179.785 83.9711C180.064 84.0622 180.28 84.1709 180.423 84.2924C180.565 84.4123 180.628 84.5372 180.628 84.6676H180.878ZM172.459 84.4558C171.241 85.1365 170.066 84.6914 169.61 84.0595C169.383 83.7458 169.341 83.4027 169.523 83.1184C169.711 82.8255 170.161 82.5549 171.01 82.4553L170.981 82.207C170.102 82.31 169.56 82.5975 169.313 82.9834C169.06 83.3778 169.138 83.8342 169.407 84.2059C169.941 84.9448 171.257 85.414 172.581 84.674L172.459 84.4558ZM171.01 82.4553C171.447 82.4042 171.784 82.3363 172.042 82.2532C172.298 82.1704 172.483 82.0696 172.606 81.9469C172.732 81.8203 172.787 81.6755 172.79 81.5227C172.792 81.3755 172.746 81.2277 172.686 81.0882C172.626 80.9487 172.547 80.8042 172.474 80.6672C172.4 80.5271 172.332 80.3925 172.286 80.2611C172.241 80.1301 172.22 80.0105 172.235 79.9C172.249 79.7925 172.298 79.6842 172.407 79.5755L172.231 79.3983C172.085 79.5431 172.009 79.7012 171.987 79.8673C171.966 80.0305 171.997 80.1917 172.05 80.3433C172.103 80.4944 172.179 80.644 172.253 80.7842C172.329 80.9275 172.402 81.0593 172.456 81.1867C172.511 81.314 172.541 81.4235 172.54 81.5186C172.538 81.6079 172.509 81.6903 172.429 81.7701C172.345 81.8537 172.202 81.9387 171.965 82.0153C171.729 82.0916 171.409 82.1569 170.981 82.207L171.01 82.4553ZM172.407 79.5752C172.501 79.4817 172.64 79.4362 172.84 79.4449C173.042 79.4536 173.291 79.5171 173.58 79.624C174.158 79.8378 174.86 80.2105 175.613 80.5996C176.362 80.9863 177.157 81.3871 177.907 81.6458C178.653 81.9033 179.378 82.029 179.978 81.8383L179.902 81.6001C179.382 81.7653 178.722 81.6627 177.988 81.4095C177.258 81.1575 176.478 80.765 175.728 80.3775C174.982 79.9924 174.263 79.6101 173.666 79.3895C173.368 79.2792 173.091 79.2055 172.851 79.1951C172.61 79.1847 172.391 79.2379 172.23 79.3986L172.407 79.5752ZM179.978 81.8383C181.077 81.4895 182.018 81.5162 182.961 81.4387C183.901 81.3613 184.818 81.1787 185.81 80.3951L185.655 80.1989C184.717 80.9402 183.855 81.1143 182.94 81.1895C182.027 81.2646 181.037 81.2399 179.902 81.6L179.978 81.8383ZM185.81 80.3952C186.065 80.1945 186.217 79.9818 186.26 79.7542C186.303 79.5245 186.231 79.3055 186.094 79.1039C185.825 78.709 185.272 78.3349 184.652 77.9804C184.03 77.6253 183.3 77.2693 182.677 76.9312C182.042 76.5864 181.517 76.2597 181.256 75.95L181.065 76.1113C181.361 76.4627 181.929 76.8097 182.558 77.151C183.199 77.499 183.904 77.8416 184.528 78.1975C185.152 78.5542 185.655 78.9036 185.887 79.2447C186.001 79.4111 186.041 79.5632 186.014 79.7077C185.986 79.8544 185.884 80.0191 185.655 80.1988L185.81 80.3952ZM181.256 75.9499C181.194 75.8768 181.169 75.8214 181.162 75.7824C181.156 75.7481 181.163 75.7194 181.185 75.6889C181.209 75.6548 181.255 75.616 181.331 75.5763C181.407 75.5372 181.505 75.5009 181.626 75.4682C182.112 75.3362 182.895 75.279 183.79 75.2664C185.576 75.2414 187.755 75.3936 188.777 75.4437L188.789 75.194C187.775 75.1443 185.583 74.9912 183.787 75.0164C182.891 75.029 182.08 75.0858 181.56 75.2269C181.429 75.2624 181.313 75.3043 181.216 75.3544C181.12 75.404 181.037 75.4654 180.981 75.5436C180.923 75.6256 180.898 75.7214 180.916 75.8248C180.933 75.9236 180.987 76.0191 181.065 76.1114L181.256 75.9499ZM188.776 75.4437C189.866 75.4988 190.543 74.7073 190.732 73.9932C190.825 73.6393 190.807 73.2728 190.625 73.0305C190.532 72.9062 190.399 72.8201 190.23 72.7895C190.064 72.7594 189.871 72.7841 189.654 72.8653L189.741 73.0994C189.93 73.0287 190.076 73.0157 190.185 73.0355C190.292 73.0548 190.37 73.1063 190.425 73.1806C190.542 73.3354 190.574 73.6104 190.49 73.9293C190.323 74.5611 189.73 75.2416 188.789 75.194L188.776 75.4437ZM189.654 72.8653C189.473 72.933 189.224 72.9589 188.92 72.942C188.619 72.9253 188.272 72.8668 187.901 72.773C187.158 72.5855 186.329 72.2595 185.588 71.8579C184.845 71.4553 184.201 70.9825 183.819 70.506C183.628 70.2681 183.508 70.0362 183.469 69.8174C183.43 69.6025 183.466 69.3943 183.6 69.1933L183.392 69.0546C183.221 69.3108 183.172 69.5851 183.223 69.8622C183.272 70.1355 183.418 70.405 183.624 70.6623C184.036 71.1761 184.713 71.668 185.469 72.0778C186.227 72.4885 187.076 72.8224 187.839 73.0154C188.221 73.1119 188.585 73.1738 188.907 73.1917C189.227 73.2095 189.515 73.1843 189.741 73.0994L189.654 72.8653ZM183.6 69.1934C183.887 68.765 184.226 68.5742 184.614 68.5024C185.013 68.4289 185.466 68.4792 185.983 68.5494C187.006 68.6882 188.24 68.9 189.55 68.2177L189.434 67.996C188.205 68.6361 187.052 68.4421 186.017 68.3017C185.505 68.2323 185.013 68.1746 184.569 68.2566C184.116 68.3403 183.717 68.5686 183.392 69.0545L183.6 69.1934ZM189.55 68.2178C190.226 67.8663 190.576 67.2699 190.691 66.5864C190.805 65.907 190.689 65.1389 190.437 64.4213C190.185 63.703 189.793 63.0249 189.344 62.5241C188.9 62.028 188.379 61.6843 187.868 61.6843V61.9343C188.272 61.9343 188.729 62.2126 189.158 62.6909C189.582 63.1645 189.959 63.8132 190.201 64.5042C190.444 65.1959 190.55 65.9197 190.445 66.5449C190.34 67.166 190.029 67.6871 189.434 67.996L189.55 68.2178ZM187.868 61.6843C186.963 61.6843 185.447 61.5331 184.158 61.2678C183.513 61.1351 182.932 60.9752 182.515 60.7943C182.306 60.7037 182.145 60.6108 182.038 60.5184C181.931 60.425 181.895 60.3468 181.895 60.2844H181.645C181.645 60.4509 181.742 60.5921 181.875 60.7073C182.009 60.8235 182.196 60.9285 182.416 61.0237C182.856 61.2146 183.457 61.3787 184.108 61.5127C185.411 61.7809 186.944 61.9343 187.868 61.9343V61.6843ZM181.895 60.2844C181.895 60.1283 181.819 59.9876 181.714 59.8647C181.608 59.7412 181.463 59.6237 181.3 59.5116C180.977 59.2883 180.554 59.0673 180.179 58.8548C179.794 58.6368 179.465 58.4307 179.29 58.2305C179.205 58.132 179.17 58.0499 179.17 57.9811C179.17 57.9163 179.201 57.8349 179.311 57.7356L179.144 57.5497C179 57.679 178.92 57.823 178.92 57.9812C178.92 58.1355 178.997 58.2741 179.102 58.3946C179.309 58.6327 179.678 58.8584 180.056 59.0723C180.443 59.2916 180.847 59.5025 181.158 59.7174C181.314 59.8244 181.439 59.9275 181.524 60.0271C181.609 60.1272 181.645 60.2119 181.645 60.2844H181.895ZM179.311 57.7355C179.531 57.5373 179.765 57.4962 180.044 57.5284C180.187 57.5449 180.339 57.5803 180.506 57.6242C180.671 57.6673 180.853 57.7195 181.042 57.7645C181.425 57.8553 181.858 57.9224 182.349 57.8525C182.84 57.7824 183.38 57.5761 183.979 57.1326L183.83 56.9317C183.261 57.3534 182.759 57.5414 182.313 57.605C181.867 57.6686 181.468 57.6086 181.1 57.5212C180.914 57.4771 180.742 57.4275 180.57 57.3824C180.4 57.338 180.234 57.2986 180.073 57.2801C179.745 57.2422 179.432 57.2901 179.144 57.5498L179.311 57.7355ZM183.979 57.1327C184.536 56.721 185.253 56.5344 186.059 56.4861C186.865 56.4379 187.75 56.5285 188.637 56.6615C189.08 56.728 189.522 56.8047 189.953 56.8795C190.384 56.9542 190.805 57.0271 191.204 57.0852C191.998 57.2009 192.722 57.2612 193.279 57.1549L193.232 56.9093C192.721 57.007 192.034 56.9536 191.24 56.8378C190.845 56.7803 190.427 56.708 189.996 56.6332C189.565 56.5585 189.12 56.4812 188.674 56.4143C187.782 56.2805 186.877 56.1868 186.044 56.2366C185.212 56.2864 184.442 56.4803 183.83 56.9316L183.979 57.1327ZM193.279 57.1549C193.567 57.1005 193.782 56.9829 193.923 56.8089C194.065 56.6351 194.121 56.419 194.119 56.1893C194.113 55.7359 193.878 55.2002 193.549 54.7161C193.217 54.2291 192.777 53.775 192.337 53.4865C191.907 53.2047 191.428 53.0518 191.056 53.2682L191.182 53.4843C191.42 53.3456 191.781 53.4216 192.2 53.6956C192.608 53.9629 193.026 54.3915 193.342 54.8568C193.661 55.325 193.864 55.8112 193.869 56.1922C193.871 56.3796 193.825 56.5338 193.729 56.6511C193.634 56.7683 193.478 56.8628 193.232 56.9093L193.279 57.1549ZM191.056 53.2683C190.771 53.4347 190.299 53.5776 189.739 53.6623C189.182 53.7465 188.548 53.7712 187.944 53.7087C187.338 53.6461 186.77 53.4968 186.339 53.2396C185.911 52.9842 185.622 52.6263 185.553 52.1389L185.305 52.1744C185.388 52.7532 185.734 53.1698 186.211 53.4543C186.685 53.7369 187.292 53.8927 187.918 53.9574C188.545 54.0222 189.2 53.9965 189.777 53.9095C190.35 53.8228 190.857 53.6737 191.182 53.4842L191.056 53.2683ZM185.553 52.139C185.517 51.8903 185.551 51.7222 185.62 51.6069C185.689 51.4927 185.804 51.4121 185.969 51.3604C186.307 51.254 186.808 51.2839 187.371 51.3542C187.92 51.4229 188.524 51.5295 189.025 51.5538C189.277 51.566 189.515 51.5583 189.715 51.5115C189.916 51.4647 190.094 51.3755 190.207 51.2142L190.002 51.0708C189.937 51.163 189.826 51.229 189.659 51.2681C189.491 51.3071 189.28 51.3158 189.037 51.3041C188.548 51.2804 187.971 51.1773 187.402 51.1062C186.846 51.0367 186.292 50.9967 185.894 51.1219C185.69 51.186 185.515 51.2966 185.406 51.4779C185.298 51.6582 185.265 51.8899 185.305 52.1743L185.553 52.139ZM190.207 51.2141C190.339 51.0246 190.284 50.8111 190.156 50.6263C190.028 50.4419 189.809 50.2532 189.537 50.0713C188.989 49.7056 188.186 49.3424 187.333 49.0795C186.481 48.8169 185.567 48.651 184.796 48.6884C184.031 48.7255 183.365 48.9666 183.08 49.5638L183.305 49.6715C183.529 49.2025 184.07 48.9739 184.808 48.9381C185.539 48.9026 186.423 49.0605 187.26 49.3185C188.096 49.5763 188.875 49.9305 189.398 50.2793C189.661 50.4546 189.849 50.6224 189.95 50.7687C190.051 50.9147 190.047 51.0061 190.002 51.0709L190.207 51.2141ZM183.08 49.5638C182.6 50.5697 181.491 50.9129 180.725 50.8519C180.535 50.8368 180.373 50.7972 180.252 50.7413C180.129 50.6844 180.061 50.6171 180.035 50.5542C180.011 50.498 180.01 50.4217 180.077 50.3157C180.145 50.2059 180.282 50.0734 180.516 49.9259L180.383 49.7145C180.133 49.8718 179.962 50.0283 179.865 50.1827C179.766 50.3406 179.741 50.5034 179.805 50.652C179.865 50.794 179.994 50.8975 180.147 50.9682C180.302 51.0397 180.494 51.0843 180.705 51.1011C181.539 51.1674 182.767 50.7995 183.305 49.6714L183.08 49.5638ZM180.516 49.9259C181.522 49.2915 182.118 48.0856 182.438 46.8424C182.76 45.5957 182.812 44.285 182.707 43.4065L182.459 43.4361C182.56 44.2836 182.51 45.5632 182.196 46.7799C181.882 48.0002 181.308 49.1307 180.383 49.7145L180.516 49.9259ZM182.707 43.4067C182.688 43.2402 182.753 43.0855 182.909 42.9297C183.067 42.7712 183.31 42.6219 183.619 42.4755C184.238 42.1822 185.07 41.9232 185.905 41.6218C186.73 41.3238 187.555 40.9848 188.123 40.534C188.408 40.3075 188.635 40.0475 188.762 39.7435C188.89 39.437 188.912 39.0949 188.803 38.7139L188.563 38.7828C188.657 39.1133 188.636 39.3968 188.531 39.6472C188.426 39.9 188.232 40.1283 187.967 40.3383C187.436 40.7605 186.647 41.088 185.82 41.3866C185.003 41.6818 184.145 41.9495 183.512 42.2496C183.194 42.4 182.921 42.5641 182.732 42.7529C182.541 42.9442 182.428 43.1706 182.459 43.4359L182.707 43.4067ZM188.803 38.714C188.609 38.0349 188.714 37.5026 189.003 37.0792C189.297 36.6501 189.789 36.3193 190.394 36.0699C191.604 35.5709 193.212 35.4185 194.376 35.4185V35.1685C193.199 35.1685 191.554 35.3214 190.299 35.8388C189.671 36.0976 189.129 36.4527 188.797 36.938C188.461 37.4291 188.35 38.0397 188.563 38.7827L188.803 38.714ZM194.376 35.4185C194.679 35.4185 194.92 35.3694 195.097 35.2731C195.278 35.1746 195.39 35.0283 195.432 34.8503C195.471 34.6771 195.441 34.4873 195.367 34.2998C195.293 34.1114 195.172 33.9169 195.016 33.7287C194.401 32.9834 193.193 32.2679 192.018 32.4282L192.052 32.6759C193.114 32.5309 194.244 33.1861 194.823 33.8879C194.967 34.0615 195.073 34.2335 195.135 34.3914C195.197 34.5503 195.213 34.6865 195.188 34.7942C195.164 34.8971 195.101 34.9864 194.978 35.0534C194.85 35.1225 194.656 35.1685 194.376 35.1685V35.4185ZM192.018 32.4282C191.441 32.507 190.862 32.7292 190.306 32.9965C189.752 33.2633 189.208 33.5811 188.711 33.8515C188.209 34.1249 187.755 34.349 187.362 34.4449C186.972 34.54 186.666 34.5038 186.429 34.2895L186.261 34.4748C186.583 34.7668 186.989 34.7932 187.421 34.6878C187.85 34.5832 188.33 34.3437 188.831 34.0711C189.337 33.7956 189.867 33.485 190.415 33.2218C190.961 32.9591 191.512 32.7496 192.052 32.6759L192.018 32.4282ZM186.429 34.2898C186.311 34.1822 186.267 34.0744 186.267 33.9678C186.267 33.8563 186.315 33.7268 186.42 33.5816C186.631 33.2897 187.04 32.9765 187.562 32.6872C188.605 32.1096 190.032 31.6614 191.022 31.6614V31.4114C189.977 31.4114 188.508 31.8776 187.441 32.4685C186.909 32.7635 186.461 33.0983 186.218 33.4352C186.095 33.6045 186.017 33.7848 186.017 33.9679C186.017 34.156 186.1 34.3278 186.261 34.4745L186.429 34.2898ZM191.022 31.6614C192.041 31.6614 193.774 31.6107 195.469 31.4323C196.316 31.3432 197.157 31.2219 197.895 31.0585C198.63 30.8956 199.274 30.6889 199.723 30.4245L199.596 30.2091C199.182 30.4533 198.569 30.6532 197.841 30.8144C197.115 30.975 196.285 31.0951 195.443 31.1837C193.759 31.3609 192.035 31.4114 191.022 31.4114V31.6614ZM199.723 30.4246C199.946 30.2938 200.099 30.1457 200.14 29.9724C200.183 29.7859 200.087 29.6249 199.943 29.5C199.799 29.3748 199.585 29.2638 199.327 29.1657C199.067 29.0669 198.753 28.978 198.403 28.9008C197.005 28.5928 194.984 28.4642 193.343 28.6694L193.374 28.9174C194.985 28.716 196.978 28.8428 198.349 29.145C198.691 29.2204 198.992 29.3062 199.238 29.3994C199.485 29.4934 199.667 29.5919 199.779 29.6888C199.891 29.7859 199.909 29.8595 199.896 29.9155C199.88 29.9846 199.805 30.0867 199.596 30.209L199.723 30.4246ZM193.343 28.6694C192.536 28.7702 191.941 28.7561 191.579 28.6822C191.395 28.6445 191.288 28.5948 191.24 28.5522C191.219 28.5327 191.217 28.5217 191.217 28.5208C191.217 28.5199 191.216 28.5181 191.217 28.5144C191.218 28.5104 191.221 28.5032 191.228 28.4928C191.258 28.4455 191.344 28.3746 191.52 28.2957C191.691 28.2191 191.93 28.1424 192.242 28.073C192.867 27.9341 193.773 27.8267 194.988 27.8015L194.983 27.5516C193.758 27.577 192.834 27.6854 192.188 27.8289C191.865 27.9006 191.609 27.9818 191.417 28.0675C191.231 28.1509 191.088 28.2466 191.017 28.358C190.979 28.4171 190.958 28.4866 190.97 28.5605C190.982 28.6335 191.023 28.6928 191.074 28.7386C191.172 28.8265 191.333 28.887 191.529 28.9271C191.929 29.0087 192.554 29.0199 193.374 28.9174L193.343 28.6694ZM194.988 27.8015C197.439 27.7499 198.469 27.4682 199.324 27.1446C200.166 26.8256 200.812 26.4769 202.523 26.2773L202.494 26.029C200.746 26.2329 200.07 26.5946 199.235 26.9108C198.413 27.2222 197.412 27.5004 194.983 27.5516L194.988 27.8015ZM202.523 26.2773C203.396 26.1742 203.987 26.0064 204.417 25.8071C204.849 25.6067 205.111 25.3771 205.326 25.1612C205.545 24.9426 205.697 24.7597 205.929 24.6158C206.156 24.4757 206.464 24.3715 206.982 24.3466L206.97 24.0969C206.422 24.1233 206.069 24.2352 205.798 24.4032C205.533 24.5673 205.349 24.7843 205.149 24.9847C204.947 25.1878 204.708 25.3963 204.312 25.5803C203.913 25.7653 203.349 25.928 202.493 26.029L202.523 26.2773ZM206.982 24.3466C207.532 24.3209 208.294 24.1524 209.122 23.9008C209.951 23.6486 210.855 23.3102 211.692 22.9399C212.528 22.57 213.301 22.1663 213.867 21.7825C214.149 21.5909 214.385 21.4012 214.551 21.2199C214.713 21.043 214.828 20.8541 214.828 20.6657H214.578C214.578 20.7567 214.519 20.8856 214.367 21.0509C214.219 21.212 214.001 21.3892 213.726 21.5756C213.177 21.9478 212.419 22.3445 211.591 22.7113C210.763 23.0778 209.868 23.4125 209.049 23.6617C208.227 23.9115 207.489 24.0726 206.971 24.0969L206.982 24.3466ZM214.828 20.6657C214.828 20.5579 214.78 20.4572 214.711 20.3675C214.642 20.2771 214.544 20.1878 214.425 20.0999C214.187 19.9239 213.849 19.7405 213.439 19.5555C212.619 19.1848 211.489 18.7982 210.246 18.4477C207.762 17.7473 204.798 17.1842 202.902 17.1842V17.4342C204.764 17.4342 207.702 17.9902 210.178 18.6883C211.415 19.0372 212.532 19.4198 213.337 19.7833C213.74 19.9654 214.059 20.1403 214.276 20.3008C214.385 20.3811 214.463 20.4546 214.513 20.5198C214.564 20.5857 214.578 20.6336 214.578 20.6657H214.828ZM76.3836 105.796C76.4101 105.366 76.309 105.084 76.1008 104.887C75.9036 104.701 75.6235 104.608 75.3446 104.515C74.7777 104.326 74.1089 104.11 73.625 103.191L73.4037 103.308C73.936 104.318 74.6893 104.56 75.2656 104.752C75.5583 104.85 75.78 104.928 75.9293 105.069C76.0675 105.199 76.1575 105.399 76.1341 105.781L76.3836 105.796ZM73.625 103.191C73.3535 102.676 72.8122 102.249 72.1649 101.921C71.5148 101.592 70.743 101.355 69.9893 101.228C69.2366 101.1 68.4936 101.08 67.9019 101.191C67.3195 101.3 66.8379 101.546 66.6895 101.992L66.9267 102.071C67.0293 101.762 67.3846 101.542 67.9479 101.437C68.5019 101.333 69.2136 101.35 69.9476 101.474C70.6808 101.598 71.4279 101.828 72.052 102.144C72.6789 102.462 73.1671 102.858 73.4037 103.308L73.625 103.191ZM66.6895 101.991C66.6698 102.05 66.6305 102.119 66.5717 102.202C66.5133 102.283 66.4412 102.371 66.3605 102.469C66.2017 102.66 66.0125 102.885 65.8723 103.138C65.7311 103.394 65.6347 103.686 65.6681 104.014C65.7016 104.343 65.8635 104.691 66.2069 105.06L66.3901 104.89C66.0734 104.549 65.9435 104.25 65.9169 103.989C65.8902 103.727 65.9654 103.486 66.0911 103.259C66.2178 103.03 66.3908 102.824 66.5529 102.628C66.6327 102.532 66.7107 102.437 66.7752 102.347C66.8392 102.257 66.8952 102.164 66.9266 102.071L66.6895 101.991ZM66.2068 105.06C66.8877 105.795 67.4696 106.007 68.0608 106.212C68.6414 106.413 69.2309 106.609 69.974 107.3L70.1443 107.118C69.3617 106.389 68.7309 106.18 68.1427 105.976C67.565 105.775 67.0294 105.58 66.3902 104.89L66.2068 105.06ZM69.9738 107.3C70.3828 107.683 70.9855 107.879 71.6439 107.94C72.3047 108.002 73.0365 107.93 73.7207 107.763C74.4045 107.595 75.0483 107.33 75.531 106.998C76.0089 106.67 76.3538 106.26 76.3836 105.796L76.1341 105.78C76.1118 106.128 75.8459 106.479 75.3896 106.792C74.938 107.102 74.3239 107.357 73.6612 107.52C72.9988 107.682 72.2954 107.75 71.6673 107.691C71.0368 107.632 70.4969 107.447 70.1445 107.118L69.9738 107.3Z" fill="#868686"/>
</g>
<defs>
<filter id="filter0_d_6252_1168" x="0.0795898" y="0.875" width="218.749" height="165.097" filterUnits="userSpaceOnUse" color-interpolation-filters="sRGB">
<feFlood flood-opacity="0" result="BackgroundImageFix"/>
<feColorMatrix in="SourceAlpha" type="matrix" values="0 0 0 0 0 0 0 0 0 0 0 0 0 0 0 0 0 0 127 0" result="hardAlpha"/>
<feOffset dy="2"/>
<feGaussianBlur stdDeviation="2"/>
<feColorMatrix type="matrix" values="0 0 0 0 0 0 0 0 0 0 0 0 0 0 0 0 0 0 0.01 0"/>
<feBlend mode="normal" in2="BackgroundImageFix" result="effect1_dropShadow_6252_1168"/>
<feBlend mode="normal" in="SourceGraphic" in2="effect1_dropShadow_6252_1168" result="shape"/>
</filter>
</defs>
</svg>
