<svg width="26" height="34" viewBox="0 0 26 34" fill="none" xmlns="http://www.w3.org/2000/svg">
<g filter="url(#filter0_d_6252_1157)">
<path fill-rule="evenodd" clip-rule="evenodd" d="M8.71025 4.64815C7.84535 5.14127 6.6104 6.49883 7.47531 6.99342C8.34021 7.48802 8.5869 8.72376 6.98191 8.84704C5.37546 8.97032 5.25211 9.5882 5.37546 10.4526C5.50027 11.3156 4.26533 11.684 5.00541 12.3004C5.49587 12.7128 6.57957 14.1467 7.25798 15.0713C7.49733 14.6207 7.80717 14.2479 8.4988 14.3463C9.94079 14.5503 8.8057 16.7194 9.94079 17.2316C11.0759 17.7497 11.0759 19.505 10.2521 20.1229C9.42537 20.7407 9.117 24.1471 10.9731 26.2062C12.8336 28.2682 14.2756 27.96 14.6897 27.4449C15.1023 26.9312 16.5472 27.4449 16.9613 26.6215C17.374 25.7967 17.8894 26.7243 18.7146 25.7967C19.1919 25.2596 20.1831 25.5458 21.117 25.7894C20.3593 24.4905 19.3754 22.7353 19.0817 21.931C18.5913 20.5749 15.6251 18.9693 16.2433 18.3529C16.86 17.7365 16.6133 15.5116 17.6016 15.3883C18.5913 15.265 19.7014 14.7719 19.2066 13.7827C18.9584 13.2866 19.2726 12.475 19.5869 11.5842C18.6383 11.4902 17.2315 8.74284 16.421 8.74284C15.5047 8.74284 14.4386 7.98261 14.6677 6.68816C14.8967 5.3937 12.534 5.2396 11.2374 3.79398C10.932 3.44615 10.4841 3.19372 9.9731 3.00293C9.53844 3.83801 9.06414 4.44561 8.71025 4.64815Z" fill="white"/>
<path fill-rule="evenodd" clip-rule="evenodd" d="M8.71025 4.64815C7.84535 5.14127 6.6104 6.49883 7.47531 6.99342C8.34021 7.48802 8.5869 8.72376 6.98191 8.84704C5.37546 8.97032 5.25211 9.5882 5.37546 10.4526C5.50027 11.3156 4.26533 11.684 5.00541 12.3004C5.49587 12.7128 6.57957 14.1467 7.25798 15.0713C7.49733 14.6207 7.80717 14.2479 8.4988 14.3463C9.94079 14.5503 8.8057 16.7194 9.94079 17.2316C11.0759 17.7497 11.0759 19.505 10.2521 20.1229C9.42537 20.7407 9.117 24.1471 10.9731 26.2062C12.8336 28.2682 14.2756 27.96 14.6897 27.4449C15.1023 26.9312 16.5472 27.4449 16.9613 26.6215C17.374 25.7967 17.8894 26.7243 18.7146 25.7967C19.1919 25.2596 20.1831 25.5458 21.117 25.7894C20.3593 24.4905 19.3754 22.7353 19.0817 21.931C18.5913 20.5749 15.6251 18.9693 16.2433 18.3529C16.86 17.7365 16.6133 15.5116 17.6016 15.3883C18.5913 15.265 19.7014 14.7719 19.2066 13.7827C18.9584 13.2866 19.2726 12.475 19.5869 11.5842C18.6383 11.4902 17.2315 8.74284 16.421 8.74284C15.5047 8.74284 14.4386 7.98261 14.6677 6.68816C14.8967 5.3937 12.534 5.2396 11.2374 3.79398C10.932 3.44615 10.4841 3.19372 9.9731 3.00293C9.53844 3.83801 9.06414 4.44561 8.71025 4.64815Z" stroke="#868686" stroke-width="0.25"/>
</g>
<defs>
<filter id="filter0_d_6252_1157" x="0.642578" y="0.847168" width="24.7339" height="33.103" filterUnits="userSpaceOnUse" color-interpolation-filters="sRGB">
<feFlood flood-opacity="0" result="BackgroundImageFix"/>
<feColorMatrix in="SourceAlpha" type="matrix" values="0 0 0 0 0 0 0 0 0 0 0 0 0 0 0 0 0 0 127 0" result="hardAlpha"/>
<feOffset dy="2"/>
<feGaussianBlur stdDeviation="2"/>
<feColorMatrix type="matrix" values="0 0 0 0 0 0 0 0 0 0 0 0 0 0 0 0 0 0 0.01 0"/>
<feBlend mode="normal" in2="BackgroundImageFix" result="effect1_dropShadow_6252_1157"/>
<feBlend mode="normal" in="SourceGraphic" in2="effect1_dropShadow_6252_1157" result="shape"/>
</filter>
</defs>
</svg>
