<svg width="19" height="17" viewBox="0 0 19 17" fill="none" xmlns="http://www.w3.org/2000/svg">
<g filter="url(#filter0_d_6252_1140)">
<path fill-rule="evenodd" clip-rule="evenodd" d="M9.21403 2.8871C7.68834 3.95554 11.5004 6.24064 11.5004 7.60995C11.5004 8.98071 5.38291 7.35311 4.7926 8.83102C4.48717 9.59419 6.92769 10.6582 9.2155 9.89652C11.3432 9.18912 12.8058 9.92734 13.9849 10.5247C14.1553 8.21901 14.4196 5.61397 14.6604 3.84547C12.7265 3.35088 10.3227 2.10926 9.21403 2.8871Z" fill="white"/>
<path fill-rule="evenodd" clip-rule="evenodd" d="M9.21403 2.8871C7.68834 3.95554 11.5004 6.24064 11.5004 7.60995C11.5004 8.98071 5.38291 7.35311 4.7926 8.83102C4.48717 9.59419 6.92769 10.6582 9.2155 9.89652C11.3432 9.18912 12.8058 9.92734 13.9849 10.5247C14.1553 8.21901 14.4196 5.61397 14.6604 3.84547C12.7265 3.35088 10.3227 2.10926 9.21403 2.8871Z" stroke="#868686" stroke-width="0.25"/>
</g>
<defs>
<filter id="filter0_d_6252_1140" x="0.641113" y="0.512207" width="18.1582" height="16.2087" filterUnits="userSpaceOnUse" color-interpolation-filters="sRGB">
<feFlood flood-opacity="0" result="BackgroundImageFix"/>
<feColorMatrix in="SourceAlpha" type="matrix" values="0 0 0 0 0 0 0 0 0 0 0 0 0 0 0 0 0 0 127 0" result="hardAlpha"/>
<feOffset dy="2"/>
<feGaussianBlur stdDeviation="2"/>
<feColorMatrix type="matrix" values="0 0 0 0 0 0 0 0 0 0 0 0 0 0 0 0 0 0 0.01 0"/>
<feBlend mode="normal" in2="BackgroundImageFix" result="effect1_dropShadow_6252_1140"/>
<feBlend mode="normal" in="SourceGraphic" in2="effect1_dropShadow_6252_1140" result="shape"/>
</filter>
</defs>
</svg>
