<svg width="31" height="22" viewBox="0 0 31 22" fill="none" xmlns="http://www.w3.org/2000/svg">
<g filter="url(#filter0_d_6252_1104)">
<path fill-rule="evenodd" clip-rule="evenodd" d="M26.0457 4.72565C25.7829 4.63906 25.4936 4.45708 25.2396 4.23546C24.2836 4.02119 23.36 3.74087 23.0781 3.46055C22.5098 2.89258 20.2411 2.55209 19.8989 2.43908C19.5612 2.32314 17.4011 4.48056 16.7183 4.48056C16.037 4.48056 13.0854 4.82252 13.0854 5.61504C13.0854 6.4105 9.45401 6.52644 8.43198 5.61504C8.27046 5.47121 8.1148 5.27895 7.96796 5.07201C7.69483 5.33032 7.50834 5.63705 7.50834 5.98635C7.50834 7.0181 6.71393 6.93884 6.00027 6.85812C5.28221 6.78034 6.00027 7.73577 5.60233 8.20981C5.20438 8.68679 5.60233 9.64369 5.04433 9.71854C4.74624 9.7611 4.58618 10.1045 4.48779 10.5287C4.72715 10.6431 5.31305 11.8129 5.31305 11.8129C5.31305 11.8129 5.28221 11.8422 5.23522 11.8848C6.00908 12.3456 7.58617 13.3363 8.09278 14.0128C8.77559 14.9198 10.7036 15.0343 11.6111 14.8083C12.5201 14.5852 16.382 13.3333 16.382 13.3333C16.382 13.3333 17.291 13.6723 17.8563 13.7853C17.9914 13.8147 18.3527 13.8734 18.8226 13.9424C19.1001 13.6562 19.9532 13.4111 20.8637 12.4982C21.9312 11.4313 23.5318 7.62276 23.9885 7.32043C24.4481 7.01369 25.6684 6.32684 26.2778 5.87334C26.8842 5.41104 26.7344 4.9546 26.0457 4.72565Z" fill="white"/>
<path fill-rule="evenodd" clip-rule="evenodd" d="M26.0457 4.72565C25.7829 4.63906 25.4936 4.45708 25.2396 4.23546C24.2836 4.02119 23.36 3.74087 23.0781 3.46055C22.5098 2.89258 20.2411 2.55209 19.8989 2.43908C19.5612 2.32314 17.4011 4.48056 16.7183 4.48056C16.037 4.48056 13.0854 4.82252 13.0854 5.61504C13.0854 6.4105 9.45401 6.52644 8.43198 5.61504C8.27046 5.47121 8.1148 5.27895 7.96796 5.07201C7.69483 5.33032 7.50834 5.63705 7.50834 5.98635C7.50834 7.0181 6.71393 6.93884 6.00027 6.85812C5.28221 6.78034 6.00027 7.73577 5.60233 8.20981C5.20438 8.68679 5.60233 9.64369 5.04433 9.71854C4.74624 9.7611 4.58618 10.1045 4.48779 10.5287C4.72715 10.6431 5.31305 11.8129 5.31305 11.8129C5.31305 11.8129 5.28221 11.8422 5.23522 11.8848C6.00908 12.3456 7.58617 13.3363 8.09278 14.0128C8.77559 14.9198 10.7036 15.0343 11.6111 14.8083C12.5201 14.5852 16.382 13.3333 16.382 13.3333C16.382 13.3333 17.291 13.6723 17.8563 13.7853C17.9914 13.8147 18.3527 13.8734 18.8226 13.9424C19.1001 13.6562 19.9532 13.4111 20.8637 12.4982C21.9312 11.4313 23.5318 7.62276 23.9885 7.32043C24.4481 7.01369 25.6684 6.32684 26.2778 5.87334C26.8842 5.41104 26.7344 4.9546 26.0457 4.72565Z" stroke="#868686" stroke-width="0.25"/>
</g>
<defs>
<filter id="filter0_d_6252_1104" x="0.343262" y="0.30957" width="30.4399" height="20.7235" filterUnits="userSpaceOnUse" color-interpolation-filters="sRGB">
<feFlood flood-opacity="0" result="BackgroundImageFix"/>
<feColorMatrix in="SourceAlpha" type="matrix" values="0 0 0 0 0 0 0 0 0 0 0 0 0 0 0 0 0 0 127 0" result="hardAlpha"/>
<feOffset dy="2"/>
<feGaussianBlur stdDeviation="2"/>
<feColorMatrix type="matrix" values="0 0 0 0 0 0 0 0 0 0 0 0 0 0 0 0 0 0 0.01 0"/>
<feBlend mode="normal" in2="BackgroundImageFix" result="effect1_dropShadow_6252_1104"/>
<feBlend mode="normal" in="SourceGraphic" in2="effect1_dropShadow_6252_1104" result="shape"/>
</filter>
</defs>
</svg>
