<svg width="24" height="26" viewBox="0 0 24 26" fill="none" xmlns="http://www.w3.org/2000/svg">
<g filter="url(#filter0_d_6252_1228)">
<path fill-rule="evenodd" clip-rule="evenodd" d="M18.0936 7.96493C17.6663 7.64645 17.2669 7.29862 16.9571 6.93171C15.6516 5.39657 15.1127 6.62645 14.9629 7.54812C14.8058 8.46832 13.5797 7.23992 12.8117 7.08875C12.0452 6.93318 13.0422 5.47435 13.5797 5.0913C13.9394 4.83593 14.2948 4.12413 14.5151 3.13348C14.3712 3.13348 14.2287 3.1144 14.0892 3.05863C12.6678 2.50093 10.6825 2.50093 10.6326 3.77043C10.5812 5.03993 12.2067 4.5835 12.2581 5.39363C12.308 6.20817 10.6326 6.00123 9.46222 6.81724C8.29482 7.63177 7.02317 6.25954 5.80437 6.8686C4.58264 7.4762 7.12449 8.19094 6.20966 9.46044C5.29336 10.7314 6.25958 10.6786 7.78528 11.8967C9.31097 13.1163 6.87045 13.4216 6.87045 14.7938C6.87045 16.1631 4.99087 16.1132 4.58264 17.0276C4.17883 17.9419 6.20966 19.7691 7.98939 19.7691C9.25958 19.7691 12.2067 18.956 13.9365 17.3328C15.6619 15.7082 16.5782 17.28 18.1524 16.4699C19.7309 15.6568 18.7632 9.71434 18.1524 8.49327C18.0466 8.27606 18.0481 8.11022 18.0936 7.96493Z" fill="white"/>
<path fill-rule="evenodd" clip-rule="evenodd" d="M18.0936 7.96493C17.6663 7.64645 17.2669 7.29862 16.9571 6.93171C15.6516 5.39657 15.1127 6.62645 14.9629 7.54812C14.8058 8.46832 13.5797 7.23992 12.8117 7.08875C12.0452 6.93318 13.0422 5.47435 13.5797 5.0913C13.9394 4.83593 14.2948 4.12413 14.5151 3.13348C14.3712 3.13348 14.2287 3.1144 14.0892 3.05863C12.6678 2.50093 10.6825 2.50093 10.6326 3.77043C10.5812 5.03993 12.2067 4.5835 12.2581 5.39363C12.308 6.20817 10.6326 6.00123 9.46222 6.81724C8.29482 7.63177 7.02317 6.25954 5.80437 6.8686C4.58264 7.4762 7.12449 8.19094 6.20966 9.46044C5.29336 10.7314 6.25958 10.6786 7.78528 11.8967C9.31097 13.1163 6.87045 13.4216 6.87045 14.7938C6.87045 16.1631 4.99087 16.1132 4.58264 17.0276C4.17883 17.9419 6.20966 19.7691 7.98939 19.7691C9.25958 19.7691 12.2067 18.956 13.9365 17.3328C15.6619 15.7082 16.5782 17.28 18.1524 16.4699C19.7309 15.6568 18.7632 9.71434 18.1524 8.49327C18.0466 8.27606 18.0481 8.11022 18.0936 7.96493Z" stroke="#868686" stroke-width="0.25"/>
</g>
<defs>
<filter id="filter0_d_6252_1228" x="0.405762" y="0.577637" width="22.7295" height="25.3164" filterUnits="userSpaceOnUse" color-interpolation-filters="sRGB">
<feFlood flood-opacity="0" result="BackgroundImageFix"/>
<feColorMatrix in="SourceAlpha" type="matrix" values="0 0 0 0 0 0 0 0 0 0 0 0 0 0 0 0 0 0 127 0" result="hardAlpha"/>
<feOffset dy="2"/>
<feGaussianBlur stdDeviation="2"/>
<feColorMatrix type="matrix" values="0 0 0 0 0 0 0 0 0 0 0 0 0 0 0 0 0 0 0.01 0"/>
<feBlend mode="normal" in2="BackgroundImageFix" result="effect1_dropShadow_6252_1228"/>
<feBlend mode="normal" in="SourceGraphic" in2="effect1_dropShadow_6252_1228" result="shape"/>
</filter>
</defs>
</svg>
