<svg width="48" height="52" viewBox="0 0 48 52" fill="none" xmlns="http://www.w3.org/2000/svg">
<g filter="url(#filter0_d_6252_1377)">
<path fill-rule="evenodd" clip-rule="evenodd" d="M31.6719 40.1139C29.5867 40.5703 28.7262 40.723 27.5074 40.1139C26.2857 39.5048 24.3121 40.6687 24.6088 41.4832C24.8129 42.0453 25.6264 42.7542 28.1653 43.4161C30.7071 44.0736 31.0126 45.801 32.0786 45.8538C33.1462 45.9022 33.249 44.8852 32.9949 43.5144C32.7394 42.1436 34.2637 40.5689 34.4164 40.3135C34.5676 40.0625 33.7541 39.6589 31.6719 40.1139ZM12.0057 28.5842C10.8911 29.5499 9.96897 28.4169 9.51816 29.1933C8.95722 30.159 11.245 31.6311 10.7854 33.6109C10.3287 35.5922 11.0409 38.0813 12.2083 36.9145C13.3787 35.7478 13.9396 36.3069 14.596 35.4396C15.2568 34.5795 14.6988 31.3786 15.1584 29.8552C15.6151 28.3303 13.1231 27.6185 12.0057 28.5842ZM36.908 26.9583C35.5864 26.1482 36.4499 24.8259 34.3676 24.9242C32.2839 25.0299 29.7935 22.438 29.0314 19.4397C28.2693 16.4472 25.0196 16.2901 24.2047 14.5128C23.3912 12.7355 24.9668 12.533 24.2575 11.0609C23.8596 10.2405 24.7362 9.51553 25.7715 9.10606C25.6863 7.47846 25.8258 5.70262 25.9521 4.55053C25.1445 4.46688 24.4514 4.35093 24.2047 4.20417C23.8214 3.97669 23.7451 2.75562 23.5174 2.75562C23.2884 2.75562 21.1548 2.75562 20.773 3.13867C20.3926 3.51878 19.2473 4.20564 18.6379 3.82405C18.5072 3.74333 18.3618 3.66114 18.2135 3.58776L17.5468 4.20564C17.5468 4.20564 17.444 5.02017 17.0358 5.02017C16.632 5.02017 16.0226 4.71637 16.0226 5.42524C16.0226 6.13704 14.9022 5.93304 14.3956 5.83177C13.889 5.73051 13.1768 5.93157 13.1768 6.54211C13.1768 7.14971 13.074 8.47351 12.262 7.76318C11.4485 7.04991 10.632 5.22124 10.3295 5.42377C10.0241 5.6263 9.31337 7.86151 8.60265 7.86151C8.16213 7.86151 6.71279 7.97599 5.67021 8.06845C5.39708 8.94462 5.6893 9.46563 6.05934 9.69018C6.4426 9.91619 5.83173 10.832 5.37359 11.0624C4.91691 11.2899 4.15479 11.0624 4.6893 11.899C5.22381 12.7355 6.21499 12.8118 5.68049 13.6499C5.14745 14.4879 5.68049 15.251 6.4426 15.3259C7.20618 15.4037 8.27373 15.251 8.04465 15.8616C7.91102 16.2197 7.70398 16.6262 7.65846 17.0239C8.25904 16.8508 8.78767 16.8199 9.31484 16.544C10.3839 15.9893 9.9257 15.0221 11.7025 14.5128C13.4822 14.0065 15.82 15.4785 16.5321 16.544C17.2429 17.6125 17.447 17.7152 17.5997 18.5811C17.7539 19.4411 18.4132 21.1715 20.8508 22.7448C23.2898 24.3195 24.259 26.0954 25.5277 26.7543C26.7979 27.4177 28.0696 27.2651 28.8317 28.1794C29.5953 29.0923 30.6085 29.6016 31.8302 30.1607C33.049 30.7214 33.0989 32.0378 34.2678 32.1934C35.4352 32.3446 34.6745 33.3616 35.3867 34.2246C36.0945 35.0861 36.3016 36.9162 35.5394 37.9333C34.7759 38.9489 35.1826 40.6734 35.6922 40.6734C36.2002 40.6734 37.2663 38.8447 37.419 37.8306C37.5703 36.8135 38.5894 36.8678 39.4014 35.7979C40.2149 34.7309 38.1826 34.477 37.8287 33.1048C37.4719 31.7326 39.3529 30.513 41.1312 31.6313C42.9065 32.7482 43.6202 33.5113 43.72 31.7854C43.8199 30.0595 38.2267 27.7714 36.908 26.9583Z" fill="white"/>
<path d="M31.6719 40.1139L31.6452 39.9918L31.6452 39.9918L31.6719 40.1139ZM27.5074 40.1139L27.5633 40.0021L27.5632 40.002L27.5074 40.1139ZM24.6088 41.4832L24.7263 41.4405L24.7262 41.4404L24.6088 41.4832ZM28.1653 43.4161L28.1338 43.537L28.134 43.5371L28.1653 43.4161ZM32.0786 45.8538L32.0725 45.9787L32.073 45.9787L32.0786 45.8538ZM32.9949 43.5144L33.1178 43.4916L33.1178 43.4915L32.9949 43.5144ZM34.4164 40.3135L34.3093 40.249L34.3091 40.2493L34.4164 40.3135ZM12.0057 28.5842L11.9239 28.4897L11.9238 28.4898L12.0057 28.5842ZM9.51816 29.1933L9.62625 29.2561L9.62626 29.2561L9.51816 29.1933ZM10.7854 33.6109L10.6636 33.5826L10.6636 33.5828L10.7854 33.6109ZM12.2083 36.9145L12.1201 36.826L12.12 36.8261L12.2083 36.9145ZM14.596 35.4396L14.4969 35.3634L14.4963 35.3641L14.596 35.4396ZM15.1584 29.8552L15.2781 29.8913L15.2781 29.8911L15.1584 29.8552ZM36.908 26.9583L36.9736 26.8519L36.9733 26.8518L36.908 26.9583ZM34.3676 24.9242L34.3617 24.7993L34.3613 24.7994L34.3676 24.9242ZM29.0314 19.4397L29.1525 19.4089L29.1525 19.4088L29.0314 19.4397ZM24.2047 14.5128L24.091 14.5648L24.091 14.5649L24.2047 14.5128ZM24.2575 11.0609L24.3701 11.0067L24.37 11.0064L24.2575 11.0609ZM25.7715 9.10606L25.8175 9.2223L25.901 9.18925L25.8963 9.09953L25.7715 9.10606ZM25.9521 4.55053L26.0764 4.56415L26.0901 4.43915L25.965 4.4262L25.9521 4.55053ZM24.2047 4.20417L24.2686 4.09674L24.2685 4.09668L24.2047 4.20417ZM20.773 3.13867L20.8613 3.22708L20.8615 3.22691L20.773 3.13867ZM18.6379 3.82405L18.7042 3.71811L18.7036 3.7177L18.6379 3.82405ZM18.2135 3.58776L18.2689 3.47573L18.1917 3.43752L18.1285 3.49608L18.2135 3.58776ZM17.5468 4.20564L17.4619 4.11396L17.4285 4.14487L17.4228 4.18999L17.5468 4.20564ZM12.262 7.76318L12.1796 7.85717L12.1797 7.85726L12.262 7.76318ZM10.3295 5.42377L10.3986 5.52795L10.3991 5.52764L10.3295 5.42377ZM5.67021 8.06845L5.65917 7.94393L5.57578 7.95133L5.55087 8.03125L5.67021 8.06845ZM6.05934 9.69018L5.99449 9.79705L5.99584 9.79785L6.05934 9.69018ZM5.37359 11.0624L5.42932 11.1743L5.42975 11.1741L5.37359 11.0624ZM5.68049 13.6499L5.5751 13.5826L5.57501 13.5828L5.68049 13.6499ZM6.4426 15.3259L6.45527 15.2015L6.45482 15.2015L6.4426 15.3259ZM8.04465 15.8616L7.92762 15.8177L7.92754 15.8179L8.04465 15.8616ZM7.65846 17.0239L7.53427 17.0097L7.51295 17.196L7.69309 17.144L7.65846 17.0239ZM9.31484 16.544L9.25726 16.4331L9.25687 16.4333L9.31484 16.544ZM11.7025 14.5128L11.6683 14.3926L11.6681 14.3927L11.7025 14.5128ZM16.5321 16.544L16.6362 16.4748L16.6361 16.4746L16.5321 16.544ZM17.5997 18.5811L17.4766 18.6028L17.4767 18.6032L17.5997 18.5811ZM20.8508 22.7448L20.9186 22.6398L20.9186 22.6397L20.8508 22.7448ZM25.5277 26.7543L25.5856 26.6435L25.5853 26.6434L25.5277 26.7543ZM28.8317 28.1794L28.7357 28.2595L28.7358 28.2596L28.8317 28.1794ZM31.8302 30.1607L31.8824 30.0472L31.8822 30.0471L31.8302 30.1607ZM34.2678 32.1934L34.2513 32.3173L34.2517 32.3174L34.2678 32.1934ZM35.3867 34.2246L35.4833 34.1452L35.4831 34.145L35.3867 34.2246ZM35.5394 37.9333L35.6394 38.0084L35.6395 38.0083L35.5394 37.9333ZM37.419 37.8306L37.5426 37.8492L37.5427 37.849L37.419 37.8306ZM39.4014 35.7979L39.302 35.7221L39.3018 35.7223L39.4014 35.7979ZM37.8287 33.1048L37.9498 33.0736L37.9497 33.0733L37.8287 33.1048ZM41.1312 31.6313L41.1978 31.5255L41.1978 31.5255L41.1312 31.6313ZM31.6452 39.9918C30.5995 40.2207 29.8752 40.3699 29.261 40.3885C28.6544 40.4069 28.155 40.2978 27.5633 40.0021L27.4516 40.2257C28.0786 40.5391 28.6189 40.6581 29.2686 40.6384C29.9106 40.6189 30.6591 40.4636 31.6986 40.236L31.6452 39.9918ZM27.5632 40.002C26.9023 39.6726 26.0586 39.8275 25.4311 40.1538C25.115 40.3181 24.8416 40.5317 24.6651 40.7644C24.4899 40.9955 24.3966 41.2659 24.4913 41.526L24.7262 41.4404C24.6726 41.2932 24.7148 41.1127 24.8643 40.9155C25.0126 40.7199 25.2534 40.5279 25.5464 40.3756C26.1369 40.0686 26.8908 39.9462 27.4517 40.2258L27.5632 40.002ZM24.4913 41.5259C24.6064 41.8429 24.886 42.1802 25.4468 42.5192C26.0074 42.8581 26.8583 43.2045 28.1338 43.537L28.1968 43.2951C26.9334 42.9657 26.1081 42.6268 25.5761 42.3052C25.0444 41.9838 24.8152 41.6856 24.7263 41.4405L24.4913 41.5259ZM28.134 43.5371C29.3762 43.8584 30.0694 44.439 30.5876 44.9506C30.8435 45.2033 31.0715 45.4553 31.2954 45.6396C31.5247 45.8283 31.7687 45.9636 32.0725 45.9787L32.0848 45.729C31.8555 45.7176 31.6616 45.6172 31.4543 45.4466C31.2417 45.2716 31.0346 45.0407 30.7632 44.7727C30.2267 44.2431 29.4963 43.6312 28.1966 43.2951L28.134 43.5371ZM32.073 45.9787C32.3597 45.9917 32.5958 45.9336 32.78 45.8036C32.9642 45.6736 33.0825 45.4815 33.152 45.2526C33.2888 44.802 33.2452 44.1791 33.1178 43.4916L32.872 43.5372C32.9987 44.2205 33.0307 44.7915 32.9128 45.18C32.8549 45.3707 32.7632 45.5094 32.6358 45.5994C32.5084 45.6893 32.3313 45.7402 32.0843 45.7289L32.073 45.9787ZM33.1178 43.4915C32.9991 42.8548 33.2937 42.1535 33.659 41.5613C33.8396 41.2684 34.0333 41.0089 34.1924 40.8056C34.2722 40.7036 34.3421 40.6172 34.3988 40.5459C34.4527 40.4782 34.4993 40.4183 34.5237 40.3777L34.3091 40.2493C34.2952 40.2725 34.2609 40.3177 34.2031 40.3903C34.1482 40.4594 34.076 40.5487 33.9955 40.6516C33.8338 40.8583 33.6337 41.126 33.4462 41.4301C33.075 42.0318 32.7352 42.8033 32.8721 43.5373L33.1178 43.4915ZM34.5234 40.378C34.5609 40.3158 34.5697 40.2435 34.5454 40.1733C34.5227 40.1078 34.4751 40.0546 34.4194 40.0127C34.3088 39.9292 34.1335 39.8649 33.9026 39.8257C33.4364 39.7467 32.6952 39.7624 31.6452 39.9918L31.6986 40.236C32.7307 40.0105 33.4374 40.0004 33.8608 40.0722C34.0746 40.1085 34.2044 40.1636 34.2689 40.2123C34.3008 40.2363 34.3082 40.2523 34.3092 40.2551C34.3094 40.2559 34.3088 40.2542 34.3091 40.2511C34.3094 40.2482 34.3103 40.2473 34.3093 40.249L34.5234 40.378ZM11.9238 28.4898C11.6622 28.7165 11.4166 28.8165 11.1896 28.8543C10.96 28.8926 10.7426 28.8686 10.532 28.8362C10.3303 28.8052 10.1151 28.7618 9.92688 28.7821C9.82825 28.7928 9.7314 28.8209 9.64131 28.8786C9.55126 28.9363 9.47459 29.0194 9.41006 29.1305L9.62626 29.2561C9.67444 29.1731 9.7252 29.1218 9.77621 29.0891C9.8272 29.0564 9.88506 29.0381 9.9537 29.0307C10.1 29.0149 10.2695 29.0488 10.494 29.0833C10.7097 29.1165 10.9599 29.1461 11.2308 29.1009C11.5042 29.0554 11.7919 28.9348 12.0875 28.6787L11.9238 28.4898ZM9.41007 29.1305C9.24013 29.4231 9.29519 29.7436 9.42897 30.0611C9.56199 30.3768 9.78867 30.7251 10.0068 31.0864C10.4519 31.8238 10.8809 32.6466 10.6636 33.5826L10.9072 33.6392C11.1495 32.5953 10.6645 31.6922 10.2208 30.9572C9.99452 30.5823 9.78316 30.2578 9.65935 29.964C9.53628 29.672 9.51572 29.4464 9.62625 29.2561L9.41007 29.1305ZM10.6636 33.5828C10.4307 34.5934 10.494 35.7362 10.7705 36.4865C10.9072 36.8571 11.1069 37.1618 11.3782 37.2833C11.6685 37.4133 11.9858 37.3137 12.2967 37.0029L12.12 36.8261C11.8471 37.0988 11.6376 37.1255 11.4804 37.0551C11.3041 36.9761 11.1354 36.7534 11.0051 36.4C10.7479 35.7021 10.6835 34.6096 10.9072 33.639L10.6636 33.5828ZM12.2966 37.0031C12.863 36.4383 13.2757 36.2948 13.632 36.1841C13.8116 36.1283 13.9935 36.0768 14.1698 35.982C14.3499 35.885 14.5215 35.7451 14.6957 35.515L14.4963 35.3641C14.3422 35.5677 14.1976 35.6831 14.0513 35.7618C13.9013 35.8425 13.7467 35.8867 13.5578 35.9454C13.1769 36.0637 12.7239 36.224 12.1201 36.826L12.2966 37.0031ZM14.6951 35.5157C14.8833 35.2708 14.9743 34.8779 15.0223 34.4318C15.0709 33.9794 15.0773 33.4448 15.0776 32.8962C15.0779 32.345 15.0719 31.7792 15.0944 31.2549C15.117 30.7296 15.1678 30.2567 15.2781 29.8913L15.0387 29.8191C14.9191 30.2155 14.8674 30.714 14.8446 31.2442C14.8218 31.7754 14.8279 32.3491 14.8276 32.8961C14.8273 33.4456 14.8207 33.9677 14.7737 34.4051C14.7261 34.8485 14.639 35.1784 14.4969 35.3634L14.6951 35.5157ZM15.2781 29.8911C15.4033 29.4731 15.3267 29.103 15.1179 28.8057C14.912 28.5125 14.5836 28.2977 14.2138 28.1678C13.4794 27.9099 12.5262 27.9692 11.9239 28.4897L12.0874 28.6788C12.6027 28.2336 13.4541 28.166 14.1309 28.4037C14.4667 28.5216 14.7454 28.7104 14.9133 28.9494C15.0782 29.1842 15.1418 29.4749 15.0386 29.8194L15.2781 29.8911ZM36.9733 26.8518C36.3521 26.471 36.2569 25.989 36.0349 25.5447C35.9242 25.3231 35.7804 25.116 35.5155 24.9761C35.2549 24.8385 34.8928 24.7743 34.3617 24.7993L34.3735 25.0491C34.8836 25.025 35.1944 25.0892 35.3988 25.1972C35.599 25.3029 35.7123 25.4585 35.8113 25.6565C36.0085 26.0513 36.1423 26.6356 36.8427 27.0649L36.9733 26.8518ZM34.3613 24.7994C33.3713 24.8496 32.2606 24.2567 31.2937 23.259C30.3301 22.2647 29.5281 20.8863 29.1525 19.4089L28.9102 19.4705C29.2968 20.9914 30.121 22.4081 31.1142 23.4329C32.1039 24.4543 33.2803 25.1045 34.374 25.049L34.3613 24.7994ZM29.1525 19.4088C28.7593 17.8647 27.7216 17.055 26.7044 16.4148C26.1908 16.0914 25.696 15.8189 25.2687 15.5103C24.8451 15.2043 24.509 14.8767 24.3183 14.4607L24.091 14.5649C24.3078 15.0376 24.6836 15.3961 25.1223 15.713C25.5574 16.0272 26.0754 16.3142 26.5713 16.6263C27.5732 17.257 28.5414 18.0221 28.9103 19.4705L29.1525 19.4088ZM24.3183 14.4608C24.122 14.0319 24.0738 13.7072 24.0941 13.4402C24.1146 13.1713 24.205 12.9503 24.3062 12.7233C24.4055 12.5005 24.5197 12.2637 24.5579 11.9886C24.597 11.7073 24.5567 11.3939 24.3701 11.0067L24.1449 11.1152C24.313 11.4641 24.3417 11.728 24.3103 11.9542C24.278 12.1866 24.1821 12.3876 24.0778 12.6215C23.9754 12.8513 23.8688 13.1062 23.8448 13.4212C23.8207 13.738 23.8806 14.1051 24.091 14.5648L24.3183 14.4608ZM24.37 11.0064C24.2824 10.8258 24.2666 10.6555 24.3026 10.4942C24.3391 10.3308 24.4308 10.1691 24.5703 10.0126C24.851 9.69801 25.3089 9.42344 25.8175 9.2223L25.7255 8.98982C25.1988 9.19815 24.7008 9.49082 24.3838 9.84619C24.2245 10.0247 24.1069 10.2236 24.0586 10.4397C24.0099 10.6579 24.0337 10.8859 24.1451 11.1155L24.37 11.0064ZM25.8963 9.09953C25.8117 7.48183 25.9503 5.71372 26.0764 4.56415L25.8278 4.53691C25.7013 5.69152 25.561 7.47509 25.6467 9.11259L25.8963 9.09953ZM25.965 4.4262C25.5629 4.38455 25.1916 4.33508 24.8913 4.2782C24.5848 4.22015 24.3706 4.15743 24.2686 4.09674L24.1408 4.3116C24.2855 4.39767 24.5411 4.46631 24.8448 4.52383C25.1546 4.58253 25.5337 4.63286 25.9392 4.67486L25.965 4.4262ZM24.2685 4.09668C24.2085 4.06105 24.1449 3.97409 24.082 3.83141C24.0212 3.69368 23.9707 3.52727 23.9229 3.36021C23.8764 3.19766 23.8314 3.02995 23.7837 2.9053C23.76 2.84323 23.7321 2.78232 23.6977 2.73498C23.6655 2.69075 23.6069 2.63062 23.5174 2.63062V2.88062C23.4849 2.88062 23.4785 2.85864 23.4955 2.88207C23.5103 2.9024 23.5288 2.93867 23.5502 2.99463C23.5928 3.10603 23.6336 3.25781 23.6825 3.42896C23.7302 3.5956 23.7848 3.77711 23.8532 3.93231C23.9195 4.08257 24.0093 4.23354 24.1409 4.31166L24.2685 4.09668ZM23.5174 2.63062C23.4024 2.63062 22.8076 2.63059 22.1927 2.67888C21.8856 2.703 21.5699 2.73942 21.305 2.79487C21.1727 2.82258 21.05 2.85564 20.9462 2.89556C20.8446 2.93465 20.7504 2.98424 20.6844 3.05042L20.8615 3.22691C20.891 3.19733 20.947 3.16313 21.036 3.1289C21.1228 3.0955 21.2313 3.06572 21.3563 3.03956C21.606 2.98728 21.9096 2.95188 22.2123 2.92811C22.8168 2.88064 23.4034 2.88062 23.5174 2.88062V2.63062ZM20.6846 3.05026C20.5071 3.22769 20.1397 3.48578 19.7431 3.65168C19.5456 3.73431 19.3465 3.7916 19.1647 3.80683C18.9827 3.82207 18.8265 3.79469 18.7042 3.71811L18.5715 3.93C18.7539 4.04421 18.9694 4.07406 19.1855 4.05596C19.4017 4.03785 19.627 3.97122 19.8396 3.88232C20.2631 3.70516 20.6585 3.42976 20.8613 3.22708L20.6846 3.05026ZM18.7036 3.7177C18.57 3.63523 18.4212 3.55108 18.2689 3.47573L18.1581 3.6998C18.3024 3.77121 18.4443 3.85143 18.5722 3.9304L18.7036 3.7177ZM18.1285 3.49608L17.4619 4.11396L17.6318 4.29732L18.2985 3.67944L18.1285 3.49608ZM17.5468 4.20564C17.4228 4.18999 17.4228 4.18996 17.4228 4.18994C17.4228 4.18993 17.4228 4.18991 17.4228 4.1899C17.4228 4.18989 17.4228 4.18988 17.4228 4.18989C17.4228 4.18991 17.4228 4.18998 17.4228 4.19009C17.4228 4.19032 17.4227 4.19074 17.4226 4.19134C17.4225 4.19254 17.4222 4.19448 17.4218 4.1971C17.4211 4.20235 17.4199 4.21033 17.4182 4.22065C17.4149 4.24131 17.4096 4.27121 17.4021 4.30725C17.3868 4.37979 17.3628 4.47496 17.3274 4.56883C17.2916 4.66405 17.2469 4.75014 17.1939 4.81043C17.1424 4.86912 17.0911 4.89517 17.0358 4.89517V5.14517C17.1847 5.14517 17.2993 5.06941 17.3818 4.97537C17.463 4.88294 17.5205 4.76539 17.5614 4.65698C17.6027 4.54721 17.6299 4.43875 17.6467 4.35856C17.6552 4.31824 17.6611 4.28451 17.665 4.26062C17.6669 4.24867 17.6684 4.23915 17.6693 4.23247C17.6698 4.22912 17.6702 4.22649 17.6704 4.22461C17.6705 4.22367 17.6706 4.22292 17.6707 4.22236C17.6707 4.22208 17.6708 4.22186 17.6708 4.22168C17.6708 4.22159 17.6708 4.22151 17.6708 4.22144C17.6708 4.22141 17.6708 4.22137 17.6708 4.22136C17.6708 4.22132 17.6708 4.22129 17.5468 4.20564ZM17.0358 4.89517C16.9467 4.89517 16.8443 4.87829 16.726 4.86021C16.6138 4.84307 16.4869 4.82483 16.37 4.83212C16.2511 4.83954 16.1247 4.8744 16.0308 4.97974C15.9386 5.08323 15.8976 5.23284 15.8976 5.42524H16.1476C16.1476 5.26321 16.1828 5.18496 16.2175 5.14605C16.2505 5.10898 16.3016 5.08688 16.3856 5.08164C16.4715 5.07627 16.5726 5.08968 16.6883 5.10735C16.7978 5.12408 16.923 5.14517 17.0358 5.14517V4.89517ZM15.8976 5.42524C15.8976 5.56431 15.8459 5.64607 15.7677 5.70103C15.6817 5.76148 15.5523 5.79677 15.3899 5.80875C15.0659 5.83263 14.6753 5.7602 14.4201 5.7092L14.3711 5.95435C14.6225 6.00461 15.0454 6.08482 15.4083 6.05807C15.5893 6.04472 15.7716 6.00389 15.9115 5.90556C16.0592 5.80173 16.1476 5.64207 16.1476 5.42524H15.8976ZM14.4201 5.7092C14.144 5.654 13.8115 5.68017 13.5429 5.80697C13.2693 5.93608 13.0518 6.17686 13.0518 6.54211H13.3018C13.3018 6.29682 13.4404 6.1318 13.6496 6.03306C13.8637 5.93201 14.1406 5.90828 14.3711 5.95435L14.4201 5.7092ZM13.0518 6.54211C13.0518 6.84596 13.0252 7.30692 12.9078 7.60046C12.8481 7.74988 12.7795 7.81923 12.7147 7.83689C12.6529 7.8537 12.5376 7.83824 12.3443 7.66909L12.1797 7.85726C12.3923 8.04328 12.5944 8.12872 12.7803 8.07811C12.9631 8.02835 13.0725 7.86197 13.14 7.69328C13.277 7.3506 13.3018 6.84586 13.3018 6.54211H13.0518ZM12.3444 7.66919C11.9535 7.32646 11.5566 6.70913 11.2085 6.18123C11.0378 5.92248 10.8775 5.68351 10.7397 5.52231C10.6716 5.44268 10.6012 5.37261 10.5308 5.32997C10.4604 5.28735 10.3572 5.25481 10.26 5.3199L10.3991 5.52764C10.3775 5.5421 10.3659 5.5224 10.4013 5.54381C10.4366 5.5652 10.486 5.61034 10.5497 5.6848C10.6754 5.83181 10.8268 6.05661 10.9998 6.31887C11.3388 6.83299 11.7569 7.48662 12.1796 7.85717L12.3444 7.66919ZM10.2604 5.31959C10.197 5.36168 10.1401 5.44115 10.0906 5.52067C10.0376 5.60597 9.98 5.71387 9.9193 5.83359C9.79497 6.07881 9.66035 6.36726 9.50724 6.66078C9.35565 6.95138 9.19527 7.22801 9.03201 7.43068C8.95048 7.5319 8.87166 7.61029 8.79679 7.6626C8.72202 7.71484 8.65786 7.73651 8.60265 7.73651V7.98651C8.72512 7.98651 8.83864 7.93833 8.93997 7.86754C9.0412 7.79682 9.13689 7.69901 9.2267 7.58751C9.40614 7.36475 9.57579 7.06992 9.7289 6.7764C9.88048 6.4858 10.0252 6.17748 10.1423 5.94664C10.2023 5.82832 10.2559 5.72837 10.3029 5.65267C10.3536 5.57118 10.3857 5.53649 10.3986 5.52795L10.2604 5.31959ZM8.60265 7.73651C8.15519 7.73651 6.69902 7.85172 5.65917 7.94393L5.68125 8.19296C6.72656 8.10025 8.16906 7.98651 8.60265 7.98651V7.73651ZM5.55087 8.03125C5.40847 8.48807 5.40989 8.86414 5.50446 9.16155C5.59918 9.45942 5.78476 9.66977 5.99449 9.79704L6.12419 9.58332C5.96388 9.48604 5.81833 9.32361 5.74271 9.08579C5.66694 8.84752 5.65882 8.525 5.78954 8.10565L5.55087 8.03125ZM5.99584 9.79785C6.0359 9.82148 6.0618 9.86433 6.05377 9.95672C6.04544 10.0527 6.00005 10.1775 5.92324 10.313C5.76867 10.5858 5.51722 10.8503 5.31742 10.9507L5.42975 11.1741C5.6881 11.0442 5.97116 10.7355 6.14074 10.4363C6.226 10.2858 6.29011 10.1249 6.30284 9.97836C6.31587 9.82827 6.27441 9.67189 6.12284 9.58251L5.99584 9.79785ZM5.31785 10.9505C5.22106 10.9987 5.10365 11.0248 4.97593 11.0486C4.85729 11.0707 4.71754 11.0923 4.61124 11.1371C4.55557 11.1605 4.49875 11.1941 4.45496 11.246C4.40917 11.3003 4.38418 11.3669 4.38158 11.443C4.37675 11.584 4.44885 11.7548 4.58396 11.9663L4.79463 11.8317C4.6625 11.6249 4.62942 11.5104 4.63143 11.4516C4.63224 11.4279 4.63868 11.416 4.64606 11.4072C4.65543 11.3961 4.67353 11.3821 4.70826 11.3675C4.78276 11.3361 4.88576 11.3197 5.02175 11.2943C5.14866 11.2707 5.29777 11.2398 5.42932 11.1743L5.31785 10.9505ZM4.58396 11.9663C4.72662 12.1895 4.89862 12.3602 5.06315 12.5022C5.1451 12.573 5.2264 12.6376 5.30048 12.6971C5.3755 12.7573 5.44266 12.8119 5.50106 12.8658C5.61944 12.9749 5.68501 13.0661 5.70345 13.1636C5.72133 13.2582 5.69977 13.3872 5.5751 13.5826L5.78587 13.7171C5.92846 13.4935 5.98344 13.2987 5.9491 13.1172C5.91531 12.9385 5.7999 12.8012 5.67049 12.6819C5.60499 12.6216 5.53154 12.562 5.45701 12.5022C5.38152 12.4415 5.3043 12.3801 5.22651 12.313C5.07157 12.1792 4.91923 12.0267 4.79463 11.8317L4.58396 11.9663ZM5.57501 13.5828C5.28746 14.0348 5.27988 14.4832 5.46546 14.8327C5.64885 15.1781 6.01174 15.4092 6.43038 15.4503L6.45482 15.2015C6.11135 15.1678 5.82666 14.9799 5.68626 14.7154C5.54805 14.4551 5.54047 14.1029 5.78596 13.7169L5.57501 13.5828ZM6.42993 15.4502C6.62631 15.4703 6.84146 15.4754 7.04349 15.4815C7.24856 15.4877 7.43938 15.4949 7.59812 15.5177C7.76258 15.5413 7.86448 15.5783 7.91413 15.6236C7.93505 15.6427 7.94562 15.6623 7.94949 15.6863C7.95377 15.7129 7.95126 15.7546 7.92762 15.8177L8.16168 15.9055C8.19531 15.8159 8.20955 15.7288 8.19631 15.6466C8.18267 15.5618 8.14145 15.4926 8.08257 15.4389C7.97262 15.3386 7.80286 15.2945 7.63363 15.2702C7.45866 15.2451 7.25374 15.2377 7.05105 15.2316C6.84532 15.2254 6.64068 15.2204 6.45527 15.2015L6.42993 15.4502ZM7.92754 15.8179C7.89497 15.9052 7.85777 15.9958 7.81872 16.0908C7.77993 16.1852 7.73941 16.2837 7.70159 16.3837C7.62618 16.5831 7.55878 16.7955 7.53427 17.0097L7.78264 17.0382C7.80365 16.8546 7.86254 16.6649 7.93543 16.4721C7.97177 16.376 8.01091 16.2808 8.04995 16.1859C8.08872 16.0915 8.12752 15.9971 8.16176 15.9053L7.92754 15.8179ZM7.69309 17.144C7.98969 17.0585 8.26127 17.01 8.54263 16.9442C8.81973 16.8795 9.09551 16.7999 9.3728 16.6548L9.25687 16.4333C9.007 16.5641 8.75488 16.6379 8.48573 16.7008C8.22084 16.7627 7.92781 16.8162 7.62382 16.9038L7.69309 17.144ZM9.37242 16.655C9.94434 16.3582 10.1176 15.9376 10.3484 15.579C10.4645 15.3986 10.598 15.2254 10.8061 15.0663C11.0147 14.9068 11.3043 14.757 11.7369 14.633L11.6681 14.3927C11.2123 14.5233 10.8928 14.6853 10.6543 14.8677C10.4151 15.0506 10.2632 15.2494 10.1381 15.4437C9.88654 15.8347 9.75435 16.1751 9.25726 16.4331L9.37242 16.655ZM11.7367 14.633C12.5842 14.3919 13.5798 14.6197 14.4628 15.0513C15.3454 15.4827 16.0879 16.1043 16.4282 16.6135L16.6361 16.4746C16.2642 15.9182 15.4817 15.2711 14.5725 14.8267C13.6637 14.3825 12.6005 14.1274 11.6683 14.3926L11.7367 14.633ZM16.4281 16.6133C16.6067 16.8819 16.7537 17.0899 16.8749 17.263C16.9968 17.437 17.091 17.5733 17.1677 17.7024C17.3174 17.9542 17.4023 18.1813 17.4766 18.6028L17.7228 18.5594C17.6444 18.115 17.5509 17.8578 17.3826 17.5747C17.3004 17.4363 17.2008 17.2925 17.0797 17.1196C16.958 16.9459 16.8129 16.7404 16.6362 16.4748L16.4281 16.6133ZM17.4767 18.6032C17.6369 19.497 18.316 21.2575 20.783 22.8498L20.9186 22.6397C18.5104 21.0854 17.8709 19.3853 17.7227 18.559L17.4767 18.6032ZM20.783 22.8498C21.9905 23.6294 22.8347 24.459 23.5387 25.1803C24.2369 25.8958 24.8133 26.5241 25.4701 26.8653L25.5853 26.6434C24.9735 26.3256 24.4309 25.7366 23.7176 25.0057C23.01 24.2807 22.1501 23.4349 20.9186 22.6398L20.783 22.8498ZM25.4699 26.8651C26.1202 27.2048 26.7752 27.337 27.3367 27.4932C27.9048 27.6512 28.3806 27.8335 28.7357 28.2595L28.9277 28.0994C28.5206 27.611 27.9795 27.4125 27.4037 27.2523C26.8213 27.0904 26.2054 26.9673 25.5856 26.6435L25.4699 26.8651ZM28.7358 28.2596C29.5196 29.1967 30.5576 29.7157 31.7782 30.2744L31.8822 30.0471C30.6593 29.4874 29.6709 28.9879 28.9276 28.0992L28.7358 28.2596ZM31.778 30.2743C32.3532 30.5389 32.6523 30.9793 32.9674 31.4035C33.2789 31.8229 33.6109 32.2321 34.2513 32.3173L34.2843 32.0695C33.7558 31.9991 33.4785 31.6723 33.1681 31.2544C32.8613 30.8414 32.526 30.3432 31.8824 30.0472L31.778 30.2743ZM34.2517 32.3174C34.5246 32.3527 34.6606 32.4352 34.7373 32.5312C34.8177 32.6318 34.8518 32.769 34.8738 32.9567C34.9163 33.3179 34.9047 33.8369 35.2903 34.3042L35.4831 34.145C35.1565 33.7493 35.1692 33.3283 35.1221 32.9275C35.0994 32.7341 35.0602 32.5347 34.9326 32.3751C34.8014 32.211 34.5946 32.1097 34.2838 32.0694L34.2517 32.3174ZM35.2901 34.3039C35.623 34.7091 35.8458 35.3546 35.8896 36.0287C35.9333 36.7027 35.7968 37.3814 35.4394 37.8583L35.6395 38.0083C36.0442 37.4681 36.1852 36.7232 36.139 36.0125C36.0929 35.3019 35.8582 34.6016 35.4833 34.1452L35.2901 34.3039ZM35.4395 37.8582C35.0321 38.4001 34.9419 39.1212 35.0144 39.6997C35.0507 39.9899 35.129 40.2534 35.2365 40.4484C35.3387 40.6339 35.4918 40.7984 35.6922 40.7984V40.5484C35.6378 40.5484 35.5489 40.4973 35.4554 40.3277C35.3672 40.1676 35.296 39.9366 35.2624 39.6686C35.195 39.131 35.2832 38.4821 35.6394 38.0084L35.4395 37.8582ZM35.6922 40.7984C35.7912 40.7984 35.8881 40.7549 35.9752 40.6969C36.0643 40.6375 36.1557 40.5546 36.2465 40.4568C36.4282 40.261 36.6189 39.9928 36.7961 39.6964C37.1491 39.1061 37.4628 38.3792 37.5426 37.8492L37.2954 37.812C37.2225 38.296 36.9269 38.9906 36.5816 39.5681C36.4096 39.8557 36.229 40.1081 36.0632 40.2868C35.9802 40.3763 35.9037 40.4441 35.8367 40.4888C35.7677 40.5347 35.7201 40.5484 35.6922 40.5484V40.7984ZM37.5427 37.849C37.6101 37.3955 37.8632 37.181 38.2312 36.9384C38.5995 36.6957 39.0791 36.4293 39.501 35.8735L39.3018 35.7223C38.9117 36.2364 38.4757 36.4779 38.0936 36.7297C37.7113 36.9817 37.3792 37.2486 37.2954 37.8122L37.5427 37.849ZM39.5008 35.8737C39.6105 35.7299 39.6784 35.5917 39.7046 35.4558C39.7313 35.3181 39.7135 35.1903 39.664 35.0717C39.5686 34.8437 39.3547 34.6511 39.132 34.469C38.9004 34.2798 38.6487 34.0939 38.4277 33.8672C38.2092 33.6431 38.031 33.3884 37.9498 33.0736L37.7077 33.136C37.8034 33.5073 38.012 33.7989 38.2486 34.0417C38.4828 34.2819 38.7546 34.4835 38.9737 34.6626C39.2016 34.8489 39.3654 35.0056 39.4333 35.1682C39.4654 35.2449 39.4757 35.3227 39.4592 35.4084C39.4422 35.496 39.3957 35.5992 39.302 35.7221L39.5008 35.8737ZM37.9497 33.0733C37.7895 32.4574 38.127 31.8619 38.7369 31.545C39.3438 31.2297 40.2115 31.2005 41.0647 31.7371L41.1978 31.5255C40.2727 30.9437 39.3107 30.9652 38.6217 31.3232C37.9357 31.6795 37.5111 32.38 37.7077 33.1362L37.9497 33.0733ZM41.0646 31.7371C41.2855 31.876 41.49 32.0096 41.6795 32.1339C41.8686 32.2579 42.0436 32.3733 42.2037 32.4748C42.5202 32.6754 42.7937 32.8318 43.0205 32.8948C43.1357 32.9268 43.2495 32.9379 43.3561 32.9107C43.4661 32.8825 43.5558 32.8168 43.6251 32.7187C43.7563 32.5332 43.8199 32.2244 43.8448 31.7926L43.5953 31.7782C43.5703 32.2093 43.5072 32.4524 43.421 32.5743C43.3817 32.63 43.3399 32.6568 43.2942 32.6685C43.2449 32.6811 43.1785 32.6793 43.0874 32.654C42.9014 32.6023 42.6573 32.4664 42.3376 32.2637C42.1796 32.1635 42.0067 32.0496 41.8166 31.9248C41.6269 31.8004 41.4207 31.6658 41.1978 31.5255L41.0646 31.7371ZM43.8448 31.7926C43.8593 31.5418 43.7699 31.2912 43.6155 31.0487C43.461 30.8059 43.2364 30.563 42.9661 30.3238C42.4255 29.8453 41.6857 29.3671 40.9082 28.9211C40.1295 28.4745 39.3071 28.057 38.5989 27.7012C37.887 27.3436 37.2973 27.0515 36.9736 26.8519L36.8424 27.0647C37.1781 27.2717 37.782 27.5706 38.4866 27.9246C39.1949 28.2804 40.0117 28.6952 40.7838 29.138C41.5569 29.5814 42.2791 30.0496 42.8004 30.511C43.061 30.7416 43.2672 30.967 43.4046 31.1829C43.5422 31.399 43.6057 31.5975 43.5953 31.7782L43.8448 31.7926Z" fill="#868686"/>
</g>
<defs>
<filter id="filter0_d_6252_1377" x="0.381348" y="0.630615" width="47.4648" height="51.3499" filterUnits="userSpaceOnUse" color-interpolation-filters="sRGB">
<feFlood flood-opacity="0" result="BackgroundImageFix"/>
<feColorMatrix in="SourceAlpha" type="matrix" values="0 0 0 0 0 0 0 0 0 0 0 0 0 0 0 0 0 0 127 0" result="hardAlpha"/>
<feOffset dy="2"/>
<feGaussianBlur stdDeviation="2"/>
<feColorMatrix type="matrix" values="0 0 0 0 0 0 0 0 0 0 0 0 0 0 0 0 0 0 0.01 0"/>
<feBlend mode="normal" in2="BackgroundImageFix" result="effect1_dropShadow_6252_1377"/>
<feBlend mode="normal" in="SourceGraphic" in2="effect1_dropShadow_6252_1377" result="shape"/>
</filter>
</defs>
</svg>
