<svg width="37" height="43" viewBox="0 0 37 43" fill="none" xmlns="http://www.w3.org/2000/svg">
<g filter="url(#filter0_d_6252_1249)">
<path fill-rule="evenodd" clip-rule="evenodd" d="M28.7319 10.4943L30.3134 8.03159L31.9551 5.62761C31.1827 5.80079 30.4911 5.98571 30.2415 6.1134C29.6336 6.41573 28.7921 5.9593 28.566 5.42361C28.3369 4.89086 26.8112 5.34729 25.591 6.03121C24.3707 6.71953 23.7628 8.16808 23.3032 7.86135C22.845 7.55461 20.1035 7.17743 19.3399 7.17743C18.5763 7.17743 16.1373 5.57771 15.3766 4.88939C14.6145 4.20547 12.4045 4.50927 11.8685 4.20547C11.337 3.89727 10.2694 3.67126 9.88911 3.21335C9.50585 2.75545 8.59102 2.83324 7.82744 2.98294C7.0668 3.13704 5.23567 4.20547 5.08589 4.81454C5.0389 5.0112 4.86122 5.19613 4.64683 5.37518L6.21217 6.79878L6.56313 9.26147L7.96841 10.4928C7.96841 10.4928 7.96841 11.8988 7.79513 13.3063C7.61892 14.7123 6.38691 16.4705 5.50439 17.3511C5.24448 17.6123 4.8759 18.4474 4.4853 19.485C5.83185 19.8211 6.83625 20.3333 6.75989 20.7384C6.60865 21.5764 4.32231 21.1963 4.32231 22.9486C4.32231 23.066 4.31203 23.179 4.30469 23.295L17.2929 30.1826L17.1182 32.2945C17.1182 32.2945 20.0374 34.427 22.8861 36.3907C24.1534 33.1692 25.8157 29.5852 26.2503 28.9145C27.0124 27.7448 27.776 27.9488 28.4353 27.1343C29.0961 26.3227 29.3002 27.5408 30.3164 25.9162C30.3971 25.7914 30.4955 25.6447 30.6115 25.4994L28.9067 22.7989L28.7319 10.4943Z" fill="white"/>
<path fill-rule="evenodd" clip-rule="evenodd" d="M28.7319 10.4943L30.3134 8.03159L31.9551 5.62761C31.1827 5.80079 30.4911 5.98571 30.2415 6.1134C29.6336 6.41573 28.7921 5.9593 28.566 5.42361C28.3369 4.89086 26.8112 5.34729 25.591 6.03121C24.3707 6.71953 23.7628 8.16808 23.3032 7.86135C22.845 7.55461 20.1035 7.17743 19.3399 7.17743C18.5763 7.17743 16.1373 5.57771 15.3766 4.88939C14.6145 4.20547 12.4045 4.50927 11.8685 4.20547C11.337 3.89727 10.2694 3.67126 9.88911 3.21335C9.50585 2.75545 8.59102 2.83324 7.82744 2.98294C7.0668 3.13704 5.23567 4.20547 5.08589 4.81454C5.0389 5.0112 4.86122 5.19613 4.64683 5.37518L6.21217 6.79878L6.56313 9.26147L7.96841 10.4928C7.96841 10.4928 7.96841 11.8988 7.79513 13.3063C7.61892 14.7123 6.38691 16.4705 5.50439 17.3511C5.24448 17.6123 4.8759 18.4474 4.4853 19.485C5.83185 19.8211 6.83625 20.3333 6.75989 20.7384C6.60865 21.5764 4.32231 21.1963 4.32231 22.9486C4.32231 23.066 4.31203 23.179 4.30469 23.295L17.2929 30.1826L17.1182 32.2945C17.1182 32.2945 20.0374 34.427 22.8861 36.3907C24.1534 33.1692 25.8157 29.5852 26.2503 28.9145C27.0124 27.7448 27.776 27.9488 28.4353 27.1343C29.0961 26.3227 29.3002 27.5408 30.3164 25.9162C30.3971 25.7914 30.4955 25.6447 30.6115 25.4994L28.9067 22.7989L28.7319 10.4943Z" stroke="#868686" stroke-width="0.25"/>
</g>
<defs>
<filter id="filter0_d_6252_1249" x="0.174805" y="0.741577" width="36.0625" height="41.8413" filterUnits="userSpaceOnUse" color-interpolation-filters="sRGB">
<feFlood flood-opacity="0" result="BackgroundImageFix"/>
<feColorMatrix in="SourceAlpha" type="matrix" values="0 0 0 0 0 0 0 0 0 0 0 0 0 0 0 0 0 0 127 0" result="hardAlpha"/>
<feOffset dy="2"/>
<feGaussianBlur stdDeviation="2"/>
<feColorMatrix type="matrix" values="0 0 0 0 0 0 0 0 0 0 0 0 0 0 0 0 0 0 0.01 0"/>
<feBlend mode="normal" in2="BackgroundImageFix" result="effect1_dropShadow_6252_1249"/>
<feBlend mode="normal" in="SourceGraphic" in2="effect1_dropShadow_6252_1249" result="shape"/>
</filter>
</defs>
</svg>
