<svg width="47" height="25" viewBox="0 0 47 25" fill="none" xmlns="http://www.w3.org/2000/svg">
<g filter="url(#filter0_d_6252_1085)">
<path fill-rule="evenodd" clip-rule="evenodd" d="M39.3661 5.69329C38.0459 4.16989 37.6392 5.18109 36.115 4.77896C34.5878 4.37389 28.4909 3.76189 27.2706 4.26822C26.0519 4.77896 23.5085 3.35535 22.698 2.94882C21.883 2.54375 19.2413 2.94882 19.14 4.37389C19.0401 5.79603 17.9197 5.79309 16.0915 4.87729C14.2619 3.96589 11.5174 3.96589 11.4161 4.98296C11.3118 5.99709 9.98875 7.01416 9.28096 7.31649C9.01077 7.4339 8.62164 8.25725 8.24279 9.23029C8.80373 9.44456 9.1444 9.92594 9.51885 10.3721C10.1958 11.1837 11.9608 11.0487 12.2325 10.2356C12.5056 9.42255 15.3529 11.0487 16.9829 12.4048C18.6099 13.7623 16.1679 12.8113 15.488 14.1703C14.8081 15.525 12.7758 14.1703 12.231 14.7119C11.6892 15.2535 8.16202 15.525 7.21049 15.3914C6.25895 15.2535 4.63193 16.746 4.76556 17.4255C4.90359 18.1051 8.43368 17.019 9.65394 17.8321C10.8742 18.6451 12.0974 17.0175 12.7758 17.9686C13.4528 18.9167 14.9476 18.2386 15.6246 18.5116C16.3 18.7831 20.0665 18.2445 20.0989 18.2371C20.5159 17.7514 20.6613 17.0997 20.6613 16.5362C20.6613 15.6218 21.4234 15.8493 22.187 15.6218C22.9505 15.3914 23.485 14.4022 24.093 14.4022C24.7024 14.4022 25.5408 13.4879 26.1502 13.7168C26.7582 13.9473 27.5217 15.0142 28.2824 14.4022C29.046 13.7932 29.2765 14.3259 30.3397 13.03C31.4101 11.7341 32.0944 11.963 33.4674 12.1171C35.065 12.2947 35.7552 11.5051 36.2119 10.5937C36.6686 9.67792 38.0415 9.67791 38.8771 9.06885C39.7155 8.46125 41.394 7.77586 41.9285 7.54544C42.1854 7.4339 42.2442 7.16533 42.2427 6.80723C41.0136 5.82098 40.4718 6.9716 39.3661 5.69329Z" fill="white"/>
<path fill-rule="evenodd" clip-rule="evenodd" d="M39.3661 5.69329C38.0459 4.16989 37.6392 5.18109 36.115 4.77896C34.5878 4.37389 28.4909 3.76189 27.2706 4.26822C26.0519 4.77896 23.5085 3.35535 22.698 2.94882C21.883 2.54375 19.2413 2.94882 19.14 4.37389C19.0401 5.79603 17.9197 5.79309 16.0915 4.87729C14.2619 3.96589 11.5174 3.96589 11.4161 4.98296C11.3118 5.99709 9.98875 7.01416 9.28096 7.31649C9.01077 7.4339 8.62164 8.25725 8.24279 9.23029C8.80373 9.44456 9.1444 9.92594 9.51885 10.3721C10.1958 11.1837 11.9608 11.0487 12.2325 10.2356C12.5056 9.42255 15.3529 11.0487 16.9829 12.4048C18.6099 13.7623 16.1679 12.8113 15.488 14.1703C14.8081 15.525 12.7758 14.1703 12.231 14.7119C11.6892 15.2535 8.16202 15.525 7.21049 15.3914C6.25895 15.2535 4.63193 16.746 4.76556 17.4255C4.90359 18.1051 8.43368 17.019 9.65394 17.8321C10.8742 18.6451 12.0974 17.0175 12.7758 17.9686C13.4528 18.9167 14.9476 18.2386 15.6246 18.5116C16.3 18.7831 20.0665 18.2445 20.0989 18.2371C20.5159 17.7514 20.6613 17.0997 20.6613 16.5362C20.6613 15.6218 21.4234 15.8493 22.187 15.6218C22.9505 15.3914 23.485 14.4022 24.093 14.4022C24.7024 14.4022 25.5408 13.4879 26.1502 13.7168C26.7582 13.9473 27.5217 15.0142 28.2824 14.4022C29.046 13.7932 29.2765 14.3259 30.3397 13.03C31.4101 11.7341 32.0944 11.963 33.4674 12.1171C35.065 12.2947 35.7552 11.5051 36.2119 10.5937C36.6686 9.67792 38.0415 9.67791 38.8771 9.06885C39.7155 8.46125 41.394 7.77586 41.9285 7.54544C42.1854 7.4339 42.2442 7.16533 42.2427 6.80723C41.0136 5.82098 40.4718 6.9716 39.3661 5.69329Z" stroke="#868686" stroke-width="0.25"/>
</g>
<defs>
<filter id="filter0_d_6252_1085" x="0.632812" y="0.675049" width="45.7349" height="24.038" filterUnits="userSpaceOnUse" color-interpolation-filters="sRGB">
<feFlood flood-opacity="0" result="BackgroundImageFix"/>
<feColorMatrix in="SourceAlpha" type="matrix" values="0 0 0 0 0 0 0 0 0 0 0 0 0 0 0 0 0 0 127 0" result="hardAlpha"/>
<feOffset dy="2"/>
<feGaussianBlur stdDeviation="2"/>
<feColorMatrix type="matrix" values="0 0 0 0 0 0 0 0 0 0 0 0 0 0 0 0 0 0 0.01 0"/>
<feBlend mode="normal" in2="BackgroundImageFix" result="effect1_dropShadow_6252_1085"/>
<feBlend mode="normal" in="SourceGraphic" in2="effect1_dropShadow_6252_1085" result="shape"/>
</filter>
</defs>
</svg>
