<svg width="29" height="24" viewBox="0 0 29 24" fill="none" xmlns="http://www.w3.org/2000/svg">
<g filter="url(#filter0_d_6252_1096)">
<path fill-rule="evenodd" clip-rule="evenodd" d="M14.2521 16.0866C14.2521 15.2178 17.7352 16.9598 18.1699 16.0866C18.6089 15.2178 15.5575 12.3882 18.1699 13.0427C20.7837 13.6929 20.349 12.1709 21.2198 11.0834C22.0891 9.99739 24.9217 9.12708 23.6133 7.16632C22.6882 5.77647 22.4224 4.17675 22.4224 2.89404C21.5825 3.55741 20.5575 3.60731 19.9834 3.37689C19.2477 3.08337 17.6354 2.9366 17.6354 4.11218C17.6354 5.28335 16.4636 5.57688 16.6089 4.99129C16.7558 4.4057 15.4357 4.54806 14.7 3.67336C13.9672 2.79131 11.327 3.96541 10.0069 3.52512C8.68677 3.08337 6.63244 4.25601 5.31673 5.8704C3.99221 7.48333 5.46064 7.48333 5.46064 8.94949C5.46064 10.4171 6.3417 10.4171 5.90264 11.5898C5.88942 11.6191 5.87914 11.6587 5.87033 11.691C7.16254 12.2634 6.65447 13.8749 6.79838 14.7863C6.95109 15.749 8.22275 15.1899 8.932 15.1385C9.64418 15.0901 8.47385 16.2583 9.08471 16.9686C9.69558 17.679 11.4738 16.361 11.8307 17.2255C11.9158 17.4295 12.0201 17.5983 12.1361 17.7494C13.0744 17.2901 14.2521 16.6105 14.2521 16.0866Z" fill="white"/>
<path fill-rule="evenodd" clip-rule="evenodd" d="M14.2521 16.0866C14.2521 15.2178 17.7352 16.9598 18.1699 16.0866C18.6089 15.2178 15.5575 12.3882 18.1699 13.0427C20.7837 13.6929 20.349 12.1709 21.2198 11.0834C22.0891 9.99739 24.9217 9.12708 23.6133 7.16632C22.6882 5.77647 22.4224 4.17675 22.4224 2.89404C21.5825 3.55741 20.5575 3.60731 19.9834 3.37689C19.2477 3.08337 17.6354 2.9366 17.6354 4.11218C17.6354 5.28335 16.4636 5.57688 16.6089 4.99129C16.7558 4.4057 15.4357 4.54806 14.7 3.67336C13.9672 2.79131 11.327 3.96541 10.0069 3.52512C8.68677 3.08337 6.63244 4.25601 5.31673 5.8704C3.99221 7.48333 5.46064 7.48333 5.46064 8.94949C5.46064 10.4171 6.3417 10.4171 5.90264 11.5898C5.88942 11.6191 5.87914 11.6587 5.87033 11.691C7.16254 12.2634 6.65447 13.8749 6.79838 14.7863C6.95109 15.749 8.22275 15.1899 8.932 15.1385C9.64418 15.0901 8.47385 16.2583 9.08471 16.9686C9.69558 17.679 11.4738 16.361 11.8307 17.2255C11.9158 17.4295 12.0201 17.5983 12.1361 17.7494C13.0744 17.2901 14.2521 16.6105 14.2521 16.0866Z" stroke="#868686" stroke-width="0.25"/>
</g>
<defs>
<filter id="filter0_d_6252_1096" x="0.638184" y="0.635986" width="27.4399" height="23.2706" filterUnits="userSpaceOnUse" color-interpolation-filters="sRGB">
<feFlood flood-opacity="0" result="BackgroundImageFix"/>
<feColorMatrix in="SourceAlpha" type="matrix" values="0 0 0 0 0 0 0 0 0 0 0 0 0 0 0 0 0 0 127 0" result="hardAlpha"/>
<feOffset dy="2"/>
<feGaussianBlur stdDeviation="2"/>
<feColorMatrix type="matrix" values="0 0 0 0 0 0 0 0 0 0 0 0 0 0 0 0 0 0 0.01 0"/>
<feBlend mode="normal" in2="BackgroundImageFix" result="effect1_dropShadow_6252_1096"/>
<feBlend mode="normal" in="SourceGraphic" in2="effect1_dropShadow_6252_1096" result="shape"/>
</filter>
</defs>
</svg>
