<svg width="22" height="25" viewBox="0 0 22 25" fill="none" xmlns="http://www.w3.org/2000/svg">
<g filter="url(#filter0_d_6252_1078)">
<path fill-rule="evenodd" clip-rule="evenodd" d="M7.38614 3.93717C7.07483 4.24537 6.15266 4.82068 5.36265 5.45763C5.75031 6.10339 5.67395 7.20705 6.43166 7.2775C7.4992 7.38023 7.39788 9.00637 6.22608 8.751C5.05868 8.4971 5.05574 10.3258 6.07336 11.9005C7.09098 13.4738 4.14385 15.2526 4.95736 16.0657C5.7694 16.8758 5.11008 17.843 5.46397 18.3523C5.81933 18.8586 10.1409 18.1483 12.0205 16.2198C13.9015 14.2869 14.4081 14.5423 15.3744 14.7976C16.3406 15.0501 17.3053 14.0844 16.7958 13.3227C16.2877 12.558 15.7283 10.6809 15.881 8.343C15.972 6.98691 14.1203 4.53156 12.323 2.5708C11.7664 3.01843 11.2613 3.25619 10.508 3.25619C9.28481 3.25765 7.92945 3.39268 7.38614 3.93717Z" fill="white"/>
<path fill-rule="evenodd" clip-rule="evenodd" d="M7.38614 3.93717C7.07483 4.24537 6.15266 4.82068 5.36265 5.45763C5.75031 6.10339 5.67395 7.20705 6.43166 7.2775C7.4992 7.38023 7.39788 9.00637 6.22608 8.751C5.05868 8.4971 5.05574 10.3258 6.07336 11.9005C7.09098 13.4738 4.14385 15.2526 4.95736 16.0657C5.7694 16.8758 5.11008 17.843 5.46397 18.3523C5.81933 18.8586 10.1409 18.1483 12.0205 16.2198C13.9015 14.2869 14.4081 14.5423 15.3744 14.7976C16.3406 15.0501 17.3053 14.0844 16.7958 13.3227C16.2877 12.558 15.7283 10.6809 15.881 8.343C15.972 6.98691 14.1203 4.53156 12.323 2.5708C11.7664 3.01843 11.2613 3.25619 10.508 3.25619C9.28481 3.25765 7.92945 3.39268 7.38614 3.93717Z" stroke="#868686" stroke-width="0.25"/>
</g>
<defs>
<filter id="filter0_d_6252_1078" x="0.688477" y="0.399902" width="20.3735" height="24.2354" filterUnits="userSpaceOnUse" color-interpolation-filters="sRGB">
<feFlood flood-opacity="0" result="BackgroundImageFix"/>
<feColorMatrix in="SourceAlpha" type="matrix" values="0 0 0 0 0 0 0 0 0 0 0 0 0 0 0 0 0 0 127 0" result="hardAlpha"/>
<feOffset dy="2"/>
<feGaussianBlur stdDeviation="2"/>
<feColorMatrix type="matrix" values="0 0 0 0 0 0 0 0 0 0 0 0 0 0 0 0 0 0 0.01 0"/>
<feBlend mode="normal" in2="BackgroundImageFix" result="effect1_dropShadow_6252_1078"/>
<feBlend mode="normal" in="SourceGraphic" in2="effect1_dropShadow_6252_1078" result="shape"/>
</filter>
</defs>
</svg>
