<svg width="34" height="40" viewBox="0 0 34 40" fill="none" xmlns="http://www.w3.org/2000/svg">
<g filter="url(#filter0_d_6252_1097)">
<path fill-rule="evenodd" clip-rule="evenodd" d="M21.4706 16.6682C21.4706 15.7979 17.334 14.4932 17.7687 13.4042C18.2033 12.3152 20.3825 12.9668 20.3825 11.8778C20.3825 10.7933 19.5088 10.7933 19.2944 9.2684C19.0785 7.745 17.5514 8.18235 16.8979 8.6153C16.2445 9.05119 14.0653 8.18235 14.0653 7.09337C14.0653 6.00732 12.3238 5.35129 12.3238 4.48098C12.3238 3.98199 11.6777 3.33329 11.0829 2.66992C10.5279 2.94584 9.96253 3.00748 9.71143 2.75358C9.30468 2.34851 8.76283 4.1126 9.16811 4.51914C9.57633 4.92567 10.1182 7.50284 9.03302 7.23279C7.94785 6.96275 7.94785 5.47017 7.26797 5.60372C7.26797 5.60372 5.50586 7.64079 5.50586 8.45386C5.50586 9.00129 4.83038 9.18474 4.30469 9.44745C4.61746 9.72777 4.88618 9.97873 4.97576 10.1196C5.27238 10.5584 4.83185 11.7326 5.26797 12.7555C5.71144 13.7843 7.17693 12.1743 7.61746 13.639C8.06092 15.1022 7.32671 15.8375 7.32671 17.3022C7.32671 18.7728 6.15197 18.6246 6.44565 19.9425C6.73787 21.2604 8.35167 19.6519 9.52494 18.7728C10.7011 17.8863 11.5807 18.036 12.0183 18.6246C12.4603 19.2101 13.9273 18.7728 14.221 18.036C14.5132 17.3052 16.7129 17.0102 17.4486 17.8893C18.1828 18.7728 18.9141 19.7943 19.9405 20.3828C20.9669 20.964 19.2063 24.1928 20.2342 24.4863C21.2591 24.7798 22.7276 26.3942 22.5836 28.1568C22.4574 29.667 23.3017 30.7501 22.1402 32.0461C22.8612 32.5157 23.7305 32.5098 23.6086 32.9927C23.4632 33.5783 24.635 33.2847 24.635 32.1136C24.635 30.938 26.2474 31.0848 26.983 31.3783C27.5587 31.6087 28.5822 31.5588 29.4221 30.8954C29.4221 30.3686 29.4603 29.8901 29.5234 29.5115C29.7407 28.2053 29.5234 26.6804 28.8729 26.0273C28.2195 25.3757 26.475 24.7211 26.0389 23.4164C25.6071 22.1131 23.6453 20.804 23.2092 19.7165C22.7775 18.629 21.4706 17.537 21.4706 16.6682Z" fill="white"/>
<path fill-rule="evenodd" clip-rule="evenodd" d="M21.4706 16.6682C21.4706 15.7979 17.334 14.4932 17.7687 13.4042C18.2033 12.3152 20.3825 12.9668 20.3825 11.8778C20.3825 10.7933 19.5088 10.7933 19.2944 9.2684C19.0785 7.745 17.5514 8.18235 16.8979 8.6153C16.2445 9.05119 14.0653 8.18235 14.0653 7.09337C14.0653 6.00732 12.3238 5.35129 12.3238 4.48098C12.3238 3.98199 11.6777 3.33329 11.0829 2.66992C10.5279 2.94584 9.96253 3.00748 9.71143 2.75358C9.30468 2.34851 8.76283 4.1126 9.16811 4.51914C9.57633 4.92567 10.1182 7.50284 9.03302 7.23279C7.94785 6.96275 7.94785 5.47017 7.26797 5.60372C7.26797 5.60372 5.50586 7.64079 5.50586 8.45386C5.50586 9.00129 4.83038 9.18474 4.30469 9.44745C4.61746 9.72777 4.88618 9.97873 4.97576 10.1196C5.27238 10.5584 4.83185 11.7326 5.26797 12.7555C5.71144 13.7843 7.17693 12.1743 7.61746 13.639C8.06092 15.1022 7.32671 15.8375 7.32671 17.3022C7.32671 18.7728 6.15197 18.6246 6.44565 19.9425C6.73787 21.2604 8.35167 19.6519 9.52494 18.7728C10.7011 17.8863 11.5807 18.036 12.0183 18.6246C12.4603 19.2101 13.9273 18.7728 14.221 18.036C14.5132 17.3052 16.7129 17.0102 17.4486 17.8893C18.1828 18.7728 18.9141 19.7943 19.9405 20.3828C20.9669 20.964 19.2063 24.1928 20.2342 24.4863C21.2591 24.7798 22.7276 26.3942 22.5836 28.1568C22.4574 29.667 23.3017 30.7501 22.1402 32.0461C22.8612 32.5157 23.7305 32.5098 23.6086 32.9927C23.4632 33.5783 24.635 33.2847 24.635 32.1136C24.635 30.938 26.2474 31.0848 26.983 31.3783C27.5587 31.6087 28.5822 31.5588 29.4221 30.8954C29.4221 30.3686 29.4603 29.8901 29.5234 29.5115C29.7407 28.2053 29.5234 26.6804 28.8729 26.0273C28.2195 25.3757 26.475 24.7211 26.0389 23.4164C25.6071 22.1131 23.6453 20.804 23.2092 19.7165C22.7775 18.629 21.4706 17.537 21.4706 16.6682Z" stroke="#868686" stroke-width="0.25"/>
</g>
<defs>
<filter id="filter0_d_6252_1097" x="0.0844727" y="0.515625" width="33.6455" height="38.8948" filterUnits="userSpaceOnUse" color-interpolation-filters="sRGB">
<feFlood flood-opacity="0" result="BackgroundImageFix"/>
<feColorMatrix in="SourceAlpha" type="matrix" values="0 0 0 0 0 0 0 0 0 0 0 0 0 0 0 0 0 0 127 0" result="hardAlpha"/>
<feOffset dy="2"/>
<feGaussianBlur stdDeviation="2"/>
<feColorMatrix type="matrix" values="0 0 0 0 0 0 0 0 0 0 0 0 0 0 0 0 0 0 0.01 0"/>
<feBlend mode="normal" in2="BackgroundImageFix" result="effect1_dropShadow_6252_1097"/>
<feBlend mode="normal" in="SourceGraphic" in2="effect1_dropShadow_6252_1097" result="shape"/>
</filter>
</defs>
</svg>
