<svg width="34" height="22" viewBox="0 0 34 22" fill="none" xmlns="http://www.w3.org/2000/svg">
<g filter="url(#filter0_d_6252_1117)">
<path fill-rule="evenodd" clip-rule="evenodd" d="M12.3875 11.3839C13.3199 11.3839 15.4976 11.8477 16.7414 11.3839C17.9822 10.9172 17.9822 12.3173 18.7604 12.1559C19.5328 12.0032 21.0894 13.0908 22.0233 13.8686C22.5181 14.281 23.1085 14.6127 23.7634 14.9928C23.9117 14.7389 24.1114 14.4879 24.4315 14.2487C25.245 13.6382 26.0556 13.9434 26.7678 13.9434C27.48 13.9434 27.5813 13.1318 28.0908 12.7253C28.3757 12.4949 28.8206 12.3643 29.1598 12.2938C28.8867 11.7347 28.8735 10.6369 28.4197 10.1834C27.8852 9.65209 27.1231 8.73482 27.3537 8.20207C27.5798 7.66785 27.5798 6.90615 26.9704 6.29708C26.7032 6.02997 26.499 5.71737 26.3889 5.41944C25.1496 5.25946 23.4829 5.08188 23.1099 5.20516C22.4991 5.40916 20.0615 3.47776 19.6532 3.17102C19.386 2.97289 17.5784 3.07709 15.9513 3.22826C15.013 4.26734 15.69 5.03198 15.64 6.6273C15.5886 8.25197 13.8089 7.94817 12.8456 7.94817C11.8779 7.94817 10.3038 5.05106 9.79718 4.39063C9.28617 3.73166 7.65915 5.20516 6.49175 5.9155C5.32289 6.62877 5.93228 7.99807 5.11878 8.6585C4.30674 9.31894 3.79866 10.4373 4.60776 11.9108C4.64007 11.9709 4.66503 12.0341 4.69734 12.0913C5.71202 12.0106 6.79719 11.8227 7.4198 11.3824C8.5035 10.6061 11.458 11.3839 12.3875 11.3839Z" fill="white"/>
<path fill-rule="evenodd" clip-rule="evenodd" d="M12.3875 11.3839C13.3199 11.3839 15.4976 11.8477 16.7414 11.3839C17.9822 10.9172 17.9822 12.3173 18.7604 12.1559C19.5328 12.0032 21.0894 13.0908 22.0233 13.8686C22.5181 14.281 23.1085 14.6127 23.7634 14.9928C23.9117 14.7389 24.1114 14.4879 24.4315 14.2487C25.245 13.6382 26.0556 13.9434 26.7678 13.9434C27.48 13.9434 27.5813 13.1318 28.0908 12.7253C28.3757 12.4949 28.8206 12.3643 29.1598 12.2938C28.8867 11.7347 28.8735 10.6369 28.4197 10.1834C27.8852 9.65209 27.1231 8.73482 27.3537 8.20207C27.5798 7.66785 27.5798 6.90615 26.9704 6.29708C26.7032 6.02997 26.499 5.71737 26.3889 5.41944C25.1496 5.25946 23.4829 5.08188 23.1099 5.20516C22.4991 5.40916 20.0615 3.47776 19.6532 3.17102C19.386 2.97289 17.5784 3.07709 15.9513 3.22826C15.013 4.26734 15.69 5.03198 15.64 6.6273C15.5886 8.25197 13.8089 7.94817 12.8456 7.94817C11.8779 7.94817 10.3038 5.05106 9.79718 4.39063C9.28617 3.73166 7.65915 5.20516 6.49175 5.9155C5.32289 6.62877 5.93228 7.99807 5.11878 8.6585C4.30674 9.31894 3.79866 10.4373 4.60776 11.9108C4.64007 11.9709 4.66503 12.0341 4.69734 12.0913C5.71202 12.0106 6.79719 11.8227 7.4198 11.3824C8.5035 10.6061 11.458 11.3839 12.3875 11.3839Z" stroke="#868686" stroke-width="0.25"/>
</g>
<defs>
<filter id="filter0_d_6252_1117" x="0.0737305" y="0.937012" width="33.269" height="20.2264" filterUnits="userSpaceOnUse" color-interpolation-filters="sRGB">
<feFlood flood-opacity="0" result="BackgroundImageFix"/>
<feColorMatrix in="SourceAlpha" type="matrix" values="0 0 0 0 0 0 0 0 0 0 0 0 0 0 0 0 0 0 127 0" result="hardAlpha"/>
<feOffset dy="2"/>
<feGaussianBlur stdDeviation="2"/>
<feColorMatrix type="matrix" values="0 0 0 0 0 0 0 0 0 0 0 0 0 0 0 0 0 0 0.01 0"/>
<feBlend mode="normal" in2="BackgroundImageFix" result="effect1_dropShadow_6252_1117"/>
<feBlend mode="normal" in="SourceGraphic" in2="effect1_dropShadow_6252_1117" result="shape"/>
</filter>
</defs>
</svg>
