<svg width="51" height="42" viewBox="0 0 51 42" fill="none" xmlns="http://www.w3.org/2000/svg">
<g filter="url(#filter0_d_6252_1045)">
<path fill-rule="evenodd" clip-rule="evenodd" d="M20.3302 35.1117C20.2744 32.8633 20.198 30.6428 20.2523 30.4285C20.3639 29.9765 24.9586 27.2892 25.7442 26.8416C26.5269 26.3954 27.9836 27.0661 27.9836 26.1723C27.9836 25.2771 29.8881 25.7247 31.01 25.5002C32.1304 25.2771 32.803 24.4919 32.803 23.4836C32.803 22.4754 34.3712 22.6999 35.3801 22.5855C36.3889 22.4769 36.2743 21.5787 36.9483 21.5787C37.6194 21.5787 37.2831 20.5719 37.3947 19.4535C37.5078 18.3337 37.5078 18.5568 38.5151 18.5568C39.5239 18.5568 40.5357 17.9962 40.5357 17.3255C40.5357 16.6518 44.9043 17.1024 45.5768 17.1024C46.2493 17.1024 46.4725 16.3172 46.3609 15.7551C46.2493 15.1974 45.6899 13.5184 45.0144 13.4054C44.3419 13.2939 44.7912 11.6134 44.7912 10.2691C44.7912 8.92767 44.568 7.69339 43.7824 6.68659C43.6164 6.47232 43.4226 6.08633 43.217 5.62696C41.9894 5.65338 40.5063 4.7317 39.2273 4.69208C37.4491 4.64365 34.706 5.56092 33.3845 4.08448C32.0629 2.61097 31.1481 2.15454 30.1833 2.61097C29.2185 3.06741 27.4388 8.14835 26.4197 9.61892C25.4036 11.0939 22.5592 12.1095 21.1877 12.1095C19.8162 12.1095 19.6635 14.1921 18.596 15.055C17.5269 15.918 17.9352 17.2917 16.6635 18.3044C15.3933 19.32 16.0042 22.4196 16.6635 23.538C17.3243 24.6548 14.3258 28.1595 12.5989 29.1751C10.8706 30.1907 10.3126 32.1192 7.56808 32.5786C6.50054 32.7561 5.70025 33.2155 5.0791 33.7967C9.35222 33.7967 15.6899 33.7967 17.8603 33.7967C20.5122 33.7982 19.9058 34.3911 20.3302 35.1117Z" fill="white"/>
<path fill-rule="evenodd" clip-rule="evenodd" d="M20.3302 35.1117C20.2744 32.8633 20.198 30.6428 20.2523 30.4285C20.3639 29.9765 24.9586 27.2892 25.7442 26.8416C26.5269 26.3954 27.9836 27.0661 27.9836 26.1723C27.9836 25.2771 29.8881 25.7247 31.01 25.5002C32.1304 25.2771 32.803 24.4919 32.803 23.4836C32.803 22.4754 34.3712 22.6999 35.3801 22.5855C36.3889 22.4769 36.2743 21.5787 36.9483 21.5787C37.6194 21.5787 37.2831 20.5719 37.3947 19.4535C37.5078 18.3337 37.5078 18.5568 38.5151 18.5568C39.5239 18.5568 40.5357 17.9962 40.5357 17.3255C40.5357 16.6518 44.9043 17.1024 45.5768 17.1024C46.2493 17.1024 46.4725 16.3172 46.3609 15.7551C46.2493 15.1974 45.6899 13.5184 45.0144 13.4054C44.3419 13.2939 44.7912 11.6134 44.7912 10.2691C44.7912 8.92767 44.568 7.69339 43.7824 6.68659C43.6164 6.47232 43.4226 6.08633 43.217 5.62696C41.9894 5.65338 40.5063 4.7317 39.2273 4.69208C37.4491 4.64365 34.706 5.56092 33.3845 4.08448C32.0629 2.61097 31.1481 2.15454 30.1833 2.61097C29.2185 3.06741 27.4388 8.14835 26.4197 9.61892C25.4036 11.0939 22.5592 12.1095 21.1877 12.1095C19.8162 12.1095 19.6635 14.1921 18.596 15.055C17.5269 15.918 17.9352 17.2917 16.6635 18.3044C15.3933 19.32 16.0042 22.4196 16.6635 23.538C17.3243 24.6548 14.3258 28.1595 12.5989 29.1751C10.8706 30.1907 10.3126 32.1192 7.56808 32.5786C6.50054 32.7561 5.70025 33.2155 5.0791 33.7967C9.35222 33.7967 15.6899 33.7967 17.8603 33.7967C20.5122 33.7982 19.9058 34.3911 20.3302 35.1117Z" stroke="#868686" stroke-width="0.25"/>
</g>
<defs>
<filter id="filter0_d_6252_1045" x="0.762695" y="0.316406" width="49.7505" height="41.2742" filterUnits="userSpaceOnUse" color-interpolation-filters="sRGB">
<feFlood flood-opacity="0" result="BackgroundImageFix"/>
<feColorMatrix in="SourceAlpha" type="matrix" values="0 0 0 0 0 0 0 0 0 0 0 0 0 0 0 0 0 0 127 0" result="hardAlpha"/>
<feOffset dy="2"/>
<feGaussianBlur stdDeviation="2"/>
<feColorMatrix type="matrix" values="0 0 0 0 0 0 0 0 0 0 0 0 0 0 0 0 0 0 0.01 0"/>
<feBlend mode="normal" in2="BackgroundImageFix" result="effect1_dropShadow_6252_1045"/>
<feBlend mode="normal" in="SourceGraphic" in2="effect1_dropShadow_6252_1045" result="shape"/>
</filter>
</defs>
</svg>
