<svg width="34" height="58" viewBox="0 0 34 58" fill="none" xmlns="http://www.w3.org/2000/svg">
<g filter="url(#filter0_d_6252_1279)">
<path fill-rule="evenodd" clip-rule="evenodd" d="M25.3541 3.08622C24.8989 1.42046 24.5406 3.69823 24.1353 4.10036C23.73 4.50689 23.5259 5.72503 23.6243 6.54103C23.7285 7.3541 22.407 8.16423 21.5949 8.0615C20.7799 7.96317 19.4584 8.4695 19.8651 9.58637C20.2689 10.7062 19.2557 10.5022 19.7638 11.4136C20.2704 12.3294 18.6463 13.4492 17.222 13.5475C15.7991 13.6488 13.9694 16.1922 12.4481 15.9852C10.9209 15.7842 9.39672 17.0023 8.07513 16.7998C6.75061 16.5943 7.66691 19.5413 6.65076 21.3715C5.63314 23.1987 6.14269 25.3311 7.05605 27.5663C7.96941 29.803 8.68306 31.6302 6.24254 34.5743C3.80495 37.5242 4.00613 40.7721 4.92243 42.8033C5.83725 44.8374 5.83725 47.8842 7.15737 49.3064C8.48042 50.7314 12.1383 51.9452 13.2557 50.8312C14.3732 49.7129 15.5509 50.9809 16.8108 49.5089C18.0311 48.0868 20.0678 40.2628 21.7917 35.0865C23.5215 29.9057 25.7579 23.0974 25.5553 21.6738C25.3526 20.2517 26.7741 19.3403 26.1661 17.8139C25.5553 16.289 26.3688 14.4618 27.0795 15.68C27.7917 16.8981 28.8093 16.8981 29.1133 15.2764C29.4172 13.6502 27.8945 11.1083 27.7931 8.77183C27.6918 6.43536 25.6595 4.20456 25.3541 3.08622Z" fill="white"/>
<path fill-rule="evenodd" clip-rule="evenodd" d="M25.3541 3.08622C24.8989 1.42046 24.5406 3.69823 24.1353 4.10036C23.73 4.50689 23.5259 5.72503 23.6243 6.54103C23.7285 7.3541 22.407 8.16423 21.5949 8.0615C20.7799 7.96317 19.4584 8.4695 19.8651 9.58637C20.2689 10.7062 19.2557 10.5022 19.7638 11.4136C20.2704 12.3294 18.6463 13.4492 17.222 13.5475C15.7991 13.6488 13.9694 16.1922 12.4481 15.9852C10.9209 15.7842 9.39672 17.0023 8.07513 16.7998C6.75061 16.5943 7.66691 19.5413 6.65076 21.3715C5.63314 23.1987 6.14269 25.3311 7.05605 27.5663C7.96941 29.803 8.68306 31.6302 6.24254 34.5743C3.80495 37.5242 4.00613 40.7721 4.92243 42.8033C5.83725 44.8374 5.83725 47.8842 7.15737 49.3064C8.48042 50.7314 12.1383 51.9452 13.2557 50.8312C14.3732 49.7129 15.5509 50.9809 16.8108 49.5089C18.0311 48.0868 20.0678 40.2628 21.7917 35.0865C23.5215 29.9057 25.7579 23.0974 25.5553 21.6738C25.3526 20.2517 26.7741 19.3403 26.1661 17.8139C25.5553 16.289 26.3688 14.4618 27.0795 15.68C27.7917 16.8981 28.8093 16.8981 29.1133 15.2764C29.4172 13.6502 27.8945 11.1083 27.7931 8.77183C27.6918 6.43536 25.6595 4.20456 25.3541 3.08622Z" stroke="#868686" stroke-width="0.25"/>
</g>
<defs>
<filter id="filter0_d_6252_1279" x="0.163574" y="0.359253" width="33.1147" height="57.032" filterUnits="userSpaceOnUse" color-interpolation-filters="sRGB">
<feFlood flood-opacity="0" result="BackgroundImageFix"/>
<feColorMatrix in="SourceAlpha" type="matrix" values="0 0 0 0 0 0 0 0 0 0 0 0 0 0 0 0 0 0 127 0" result="hardAlpha"/>
<feOffset dy="2"/>
<feGaussianBlur stdDeviation="2"/>
<feColorMatrix type="matrix" values="0 0 0 0 0 0 0 0 0 0 0 0 0 0 0 0 0 0 0.01 0"/>
<feBlend mode="normal" in2="BackgroundImageFix" result="effect1_dropShadow_6252_1279"/>
<feBlend mode="normal" in="SourceGraphic" in2="effect1_dropShadow_6252_1279" result="shape"/>
</filter>
</defs>
</svg>
