<svg width="67" height="63" viewBox="0 0 67 63" fill="none" xmlns="http://www.w3.org/2000/svg">
<g filter="url(#filter0_d_6252_1064)">
<path fill-rule="evenodd" clip-rule="evenodd" d="M59.0893 24.9217C59.0893 24.9217 59.0908 22.2653 57.3992 21.2981C55.7075 20.3324 53.5299 20.0902 53.5299 20.0902C53.5299 20.0902 52.3243 17.9167 51.3581 16.9524C50.7766 16.3713 39.4638 8.81149 30.1599 2.66357H24.3699L27.6078 33.0216L28.6856 34.0973C28.6856 34.0973 28.8383 36.7156 28.223 37.0238C27.6078 37.3335 14.809 37.1779 14.809 37.1779C14.809 37.1779 13.5755 37.7943 12.6504 37.7943C11.7267 37.7943 10.6489 37.1779 10.3376 37.6402C10.0307 38.0996 10.0307 39.3353 8.48739 37.9513C6.94848 36.5644 6.48446 37.7958 6.48446 38.7189C6.48446 39.463 5.6827 39.8035 4.64893 39.827C4.86185 40.2673 4.9573 40.621 4.9573 40.621L5.58725 41.5602C5.58725 41.5602 5.4874 43.0807 6.09679 43.6927C6.70766 44.3032 7.82366 45.4172 7.92645 45.925C8.02484 46.4372 7.92645 48.668 7.92645 48.668C7.92645 48.668 8.33027 50.3954 8.94113 49.5867C9.552 48.7678 10.4654 50.2927 10.8721 49.2785C11.2803 48.2615 12.599 49.4825 13.2084 49.4825C13.8192 49.4825 15.2421 47.6539 15.6489 47.7551C16.0557 47.8549 16.9705 49.5867 16.9705 50.2927C16.9705 51.003 18.8001 51.7192 18.1893 51.9173C17.5784 52.1228 17.4786 53.1355 18.1893 53.1355C18.9 53.1355 18.5931 54.4593 19.0013 55.0698C19.4081 55.6759 20.2216 56.1867 20.6283 55.2709C21.0351 54.358 21.9484 55.1681 22.3567 55.7801C22.7634 56.3863 24.0865 55.6774 24.2862 54.8658C24.4888 54.0498 26.1173 53.746 26.0145 54.6618C25.9147 55.5747 26.2157 55.7801 27.2348 55.0698C27.5431 54.8511 27.8765 54.8188 28.2069 54.8673C28.5681 53.6858 28.9822 52.5939 29.1658 52.2241C29.4712 51.6121 28.455 50.1899 28.9616 49.9889C29.4712 49.7834 31.1995 50.1914 31.7061 48.7663C32.2157 47.3471 32.8251 46.6338 32.8251 46.6338C32.8251 46.6338 33.0277 43.5914 33.9425 44.0978C34.8603 44.6041 35.9748 45.4142 36.0791 44.1976C36.1819 42.975 37.2979 43.6898 37.6019 42.5729C37.9073 41.4531 38.5152 41.5588 39.2303 41.7569C39.9381 41.9638 40.5505 41.6571 40.5505 41.0466C40.5505 40.4404 42.176 40.7442 43.4961 39.8284C44.8162 38.9141 45.5284 38.2038 46.035 38.7101C46.546 39.2223 49.9014 39.1181 50.408 38.9141C50.9161 38.7101 51.9337 37.8002 53.1525 37.9998C54.3727 38.2038 57.3184 37.492 58.5372 37.492C59.7575 37.492 60.2655 36.3736 60.6708 35.9656C61.079 35.5635 61.3859 33.7334 61.7927 33.4296C62.1187 33.183 62.0526 26.8032 62.013 24.2877C60.7868 24.546 59.0893 24.9217 59.0893 24.9217Z" fill="white"/>
<path fill-rule="evenodd" clip-rule="evenodd" d="M59.0893 24.9217C59.0893 24.9217 59.0908 22.2653 57.3992 21.2981C55.7075 20.3324 53.5299 20.0902 53.5299 20.0902C53.5299 20.0902 52.3243 17.9167 51.3581 16.9524C50.7766 16.3713 39.4638 8.81149 30.1599 2.66357H24.3699L27.6078 33.0216L28.6856 34.0973C28.6856 34.0973 28.8383 36.7156 28.223 37.0238C27.6078 37.3335 14.809 37.1779 14.809 37.1779C14.809 37.1779 13.5755 37.7943 12.6504 37.7943C11.7267 37.7943 10.6489 37.1779 10.3376 37.6402C10.0307 38.0996 10.0307 39.3353 8.48739 37.9513C6.94848 36.5644 6.48446 37.7958 6.48446 38.7189C6.48446 39.463 5.6827 39.8035 4.64893 39.827C4.86185 40.2673 4.9573 40.621 4.9573 40.621L5.58725 41.5602C5.58725 41.5602 5.4874 43.0807 6.09679 43.6927C6.70766 44.3032 7.82366 45.4172 7.92645 45.925C8.02484 46.4372 7.92645 48.668 7.92645 48.668C7.92645 48.668 8.33027 50.3954 8.94113 49.5867C9.552 48.7678 10.4654 50.2927 10.8721 49.2785C11.2803 48.2615 12.599 49.4825 13.2084 49.4825C13.8192 49.4825 15.2421 47.6539 15.6489 47.7551C16.0557 47.8549 16.9705 49.5867 16.9705 50.2927C16.9705 51.003 18.8001 51.7192 18.1893 51.9173C17.5784 52.1228 17.4786 53.1355 18.1893 53.1355C18.9 53.1355 18.5931 54.4593 19.0013 55.0698C19.4081 55.6759 20.2216 56.1867 20.6283 55.2709C21.0351 54.358 21.9484 55.1681 22.3567 55.7801C22.7634 56.3863 24.0865 55.6774 24.2862 54.8658C24.4888 54.0498 26.1173 53.746 26.0145 54.6618C25.9147 55.5747 26.2157 55.7801 27.2348 55.0698C27.5431 54.8511 27.8765 54.8188 28.2069 54.8673C28.5681 53.6858 28.9822 52.5939 29.1658 52.2241C29.4712 51.6121 28.455 50.1899 28.9616 49.9889C29.4712 49.7834 31.1995 50.1914 31.7061 48.7663C32.2157 47.3471 32.8251 46.6338 32.8251 46.6338C32.8251 46.6338 33.0277 43.5914 33.9425 44.0978C34.8603 44.6041 35.9748 45.4142 36.0791 44.1976C36.1819 42.975 37.2979 43.6898 37.6019 42.5729C37.9073 41.4531 38.5152 41.5588 39.2303 41.7569C39.9381 41.9638 40.5505 41.6571 40.5505 41.0466C40.5505 40.4404 42.176 40.7442 43.4961 39.8284C44.8162 38.9141 45.5284 38.2038 46.035 38.7101C46.546 39.2223 49.9014 39.1181 50.408 38.9141C50.9161 38.7101 51.9337 37.8002 53.1525 37.9998C54.3727 38.2038 57.3184 37.492 58.5372 37.492C59.7575 37.492 60.2655 36.3736 60.6708 35.9656C61.079 35.5635 61.3859 33.7334 61.7927 33.4296C62.1187 33.183 62.0526 26.8032 62.013 24.2877C60.7868 24.546 59.0893 24.9217 59.0893 24.9217Z" stroke="#868686" stroke-width="0.25"/>
</g>
<defs>
<filter id="filter0_d_6252_1064" x="0.45166" y="0.538574" width="65.7202" height="61.594" filterUnits="userSpaceOnUse" color-interpolation-filters="sRGB">
<feFlood flood-opacity="0" result="BackgroundImageFix"/>
<feColorMatrix in="SourceAlpha" type="matrix" values="0 0 0 0 0 0 0 0 0 0 0 0 0 0 0 0 0 0 127 0" result="hardAlpha"/>
<feOffset dy="2"/>
<feGaussianBlur stdDeviation="2"/>
<feColorMatrix type="matrix" values="0 0 0 0 0 0 0 0 0 0 0 0 0 0 0 0 0 0 0.01 0"/>
<feBlend mode="normal" in2="BackgroundImageFix" result="effect1_dropShadow_6252_1064"/>
<feBlend mode="normal" in="SourceGraphic" in2="effect1_dropShadow_6252_1064" result="shape"/>
</filter>
</defs>
</svg>
