<svg width="39" height="73" viewBox="0 0 39 73" fill="none" xmlns="http://www.w3.org/2000/svg">
<g filter="url(#filter0_d_6252_1093)">
<path fill-rule="evenodd" clip-rule="evenodd" d="M28.7044 60.9689C28.7044 59.6172 27.6207 59.4793 27.6207 58.3961C27.6207 57.3086 27.6207 55.4095 26.2639 54.1914C24.9012 52.9703 24.2243 51.2033 25.0393 50.5252C25.8542 49.8487 25.1758 47.9495 25.5826 48.0816C25.9908 48.2196 26.5341 46.862 25.7177 46.4584C24.9012 46.0519 25.7177 44.4213 25.0393 44.1528C24.3594 43.8813 22.4622 41.7106 22.4622 41.0355C22.4622 40.356 23.0055 36.5563 23.1406 35.6082C23.2757 34.6587 24.631 34.5222 25.0393 34.5222C25.4475 34.5222 27.0774 34.6587 27.6207 33.7062C28.1641 32.7581 30.468 32.6216 30.7411 31.945C31.0128 31.267 32.5062 31.267 32.5062 30.4524C32.5062 29.6379 34.2683 27.6023 34.2683 27.6023C34.2947 27.5993 34.3124 27.614 34.3388 27.614C34.1347 27.2515 33.6883 27.5773 32.7896 27.934C31.2654 28.546 30.5033 27.7065 30.656 26.7921C30.8087 25.8793 29.5884 25.8793 28.75 25.8793C27.913 25.8793 28.446 24.507 28.75 23.5912C29.0569 22.6784 28.446 22.1456 27.4533 22.0649C26.4622 21.9915 26.0069 19.8576 26.3858 19.247C26.7691 18.6394 24.3285 18.1067 23.261 18.6394C22.192 19.1722 22.957 17.7236 22.6531 16.9605C22.3447 16.2002 24.0246 13.6113 25.4724 12.1657C26.9188 10.7157 26.3109 8.81071 26.3109 7.13321C26.3109 5.45717 25.6252 5.45717 24.9394 5.45717C24.2522 5.45717 24.1744 4.46652 24.1744 3.55218C24.1744 2.63932 22.7265 1.95393 21.888 2.56153C21.7705 2.64812 21.565 2.767 21.308 2.90055C21.3403 2.90936 21.3726 2.91376 21.3726 2.91376C21.3726 2.91376 21.1009 4.26986 20.5562 4.54284C20.0128 4.81582 20.0128 5.62448 20.8293 6.84702C21.6428 8.06662 19.609 7.5236 19.3359 6.84702C19.0628 6.16897 17.4328 7.25209 16.4871 8.06662C15.5371 8.88116 14.1802 9.28916 14.1802 10.7817C14.1802 12.2729 12.9556 13.7669 13.2302 14.985C13.5018 16.2046 11.8719 18.5118 12.0084 19.1913C12.145 19.8679 9.70155 19.0548 9.2948 19.0548C8.88658 19.0548 9.15677 21.629 8.61492 22.4436C8.07013 23.2596 8.47689 26.1082 7.66338 26.1082C6.85134 26.1082 6.17146 28.6854 6.17146 28.6854C6.17146 28.6854 5.5092 29.1316 4.94092 29.6922C5.60611 31.0497 6.81903 32.5365 8.16705 33.0912C10.1494 33.9014 11.4681 37.9124 12.0804 40.0434C12.6883 42.1759 12.2845 44.3641 11.5723 45.5808C10.8601 46.8018 11.8249 46.8517 12.9938 47.4593C14.1656 48.0699 15.4842 48.2754 16.3476 47.0528C17.2125 45.8347 18.9893 44.9732 19.2448 43.6009C19.5004 42.2302 20.3124 44.2584 21.0246 44.9732C21.7368 45.6835 22.2463 47.0528 22.3976 48.7817C22.5503 50.5076 22.7001 54.8254 24.1744 56.1991C25.6487 57.5669 25.9027 60.5682 25.4959 61.6323C25.0936 62.7007 26.261 64.5294 25.9541 65.6962C25.8924 65.931 25.8263 66.2627 25.7529 66.631C27.0818 66.8849 28.7044 60.9689 28.7044 60.9689Z" fill="white"/>
<path fill-rule="evenodd" clip-rule="evenodd" d="M28.7044 60.9689C28.7044 59.6172 27.6207 59.4793 27.6207 58.3961C27.6207 57.3086 27.6207 55.4095 26.2639 54.1914C24.9012 52.9703 24.2243 51.2033 25.0393 50.5252C25.8542 49.8487 25.1758 47.9495 25.5826 48.0816C25.9908 48.2196 26.5341 46.862 25.7177 46.4584C24.9012 46.0519 25.7177 44.4213 25.0393 44.1528C24.3594 43.8813 22.4622 41.7106 22.4622 41.0355C22.4622 40.356 23.0055 36.5563 23.1406 35.6082C23.2757 34.6587 24.631 34.5222 25.0393 34.5222C25.4475 34.5222 27.0774 34.6587 27.6207 33.7062C28.1641 32.7581 30.468 32.6216 30.7411 31.945C31.0128 31.267 32.5062 31.267 32.5062 30.4524C32.5062 29.6379 34.2683 27.6023 34.2683 27.6023C34.2947 27.5993 34.3124 27.614 34.3388 27.614C34.1347 27.2515 33.6883 27.5773 32.7896 27.934C31.2654 28.546 30.5033 27.7065 30.656 26.7921C30.8087 25.8793 29.5884 25.8793 28.75 25.8793C27.913 25.8793 28.446 24.507 28.75 23.5912C29.0569 22.6784 28.446 22.1456 27.4533 22.0649C26.4622 21.9915 26.0069 19.8576 26.3858 19.247C26.7691 18.6394 24.3285 18.1067 23.261 18.6394C22.192 19.1722 22.957 17.7236 22.6531 16.9605C22.3447 16.2002 24.0246 13.6113 25.4724 12.1657C26.9188 10.7157 26.3109 8.81071 26.3109 7.13321C26.3109 5.45717 25.6252 5.45717 24.9394 5.45717C24.2522 5.45717 24.1744 4.46652 24.1744 3.55218C24.1744 2.63932 22.7265 1.95393 21.888 2.56153C21.7705 2.64812 21.565 2.767 21.308 2.90055C21.3403 2.90936 21.3726 2.91376 21.3726 2.91376C21.3726 2.91376 21.1009 4.26986 20.5562 4.54284C20.0128 4.81582 20.0128 5.62448 20.8293 6.84702C21.6428 8.06662 19.609 7.5236 19.3359 6.84702C19.0628 6.16897 17.4328 7.25209 16.4871 8.06662C15.5371 8.88116 14.1802 9.28916 14.1802 10.7817C14.1802 12.2729 12.9556 13.7669 13.2302 14.985C13.5018 16.2046 11.8719 18.5118 12.0084 19.1913C12.145 19.8679 9.70155 19.0548 9.2948 19.0548C8.88658 19.0548 9.15677 21.629 8.61492 22.4436C8.07013 23.2596 8.47689 26.1082 7.66338 26.1082C6.85134 26.1082 6.17146 28.6854 6.17146 28.6854C6.17146 28.6854 5.5092 29.1316 4.94092 29.6922C5.60611 31.0497 6.81903 32.5365 8.16705 33.0912C10.1494 33.9014 11.4681 37.9124 12.0804 40.0434C12.6883 42.1759 12.2845 44.3641 11.5723 45.5808C10.8601 46.8018 11.8249 46.8517 12.9938 47.4593C14.1656 48.0699 15.4842 48.2754 16.3476 47.0528C17.2125 45.8347 18.9893 44.9732 19.2448 43.6009C19.5004 42.2302 20.3124 44.2584 21.0246 44.9732C21.7368 45.6835 22.2463 47.0528 22.3976 48.7817C22.5503 50.5076 22.7001 54.8254 24.1744 56.1991C25.6487 57.5669 25.9027 60.5682 25.4959 61.6323C25.0936 62.7007 26.261 64.5294 25.9541 65.6962C25.8924 65.931 25.8263 66.2627 25.7529 66.631C27.0818 66.8849 28.7044 60.9689 28.7044 60.9689Z" stroke="#868686" stroke-width="0.25"/>
</g>
<defs>
<filter id="filter0_d_6252_1093" x="0.789062" y="0.206055" width="37.7637" height="72.558" filterUnits="userSpaceOnUse" color-interpolation-filters="sRGB">
<feFlood flood-opacity="0" result="BackgroundImageFix"/>
<feColorMatrix in="SourceAlpha" type="matrix" values="0 0 0 0 0 0 0 0 0 0 0 0 0 0 0 0 0 0 127 0" result="hardAlpha"/>
<feOffset dy="2"/>
<feGaussianBlur stdDeviation="2"/>
<feColorMatrix type="matrix" values="0 0 0 0 0 0 0 0 0 0 0 0 0 0 0 0 0 0 0.01 0"/>
<feBlend mode="normal" in2="BackgroundImageFix" result="effect1_dropShadow_6252_1093"/>
<feBlend mode="normal" in="SourceGraphic" in2="effect1_dropShadow_6252_1093" result="shape"/>
</filter>
</defs>
</svg>
