<svg width="41" height="55" viewBox="0 0 41 55" fill="none" xmlns="http://www.w3.org/2000/svg">
<g filter="url(#filter0_d_6252_1267)">
<path fill-rule="evenodd" clip-rule="evenodd" d="M21.7775 20.3047C23.7114 19.9965 26.3502 22.4372 25.9449 23.3501C25.5366 24.2615 26.0447 27.2099 26.961 26.3954C27.8759 25.5867 29.2988 26.5979 28.3825 27.9188C27.4691 29.2397 29.8068 30.5591 30.1108 32.1882C30.4148 33.8128 31.4324 32.492 31.2312 31.2724C31.03 30.0513 31.4338 30.1555 32.7554 29.2397C34.077 28.3253 32.6512 26.8005 31.8421 25.076C31.03 23.3486 27.9772 23.9562 27.9772 22.333C27.9772 20.7069 25.7437 20.2005 25.6394 19.2847C25.5366 18.3704 22.5895 17.4561 20.8641 18.4702C19.1358 19.4873 20.3516 16.6415 19.1343 15.3221C17.9126 14.0012 20.0477 12.0713 21.4735 10.4466C22.895 8.82197 21.0668 6.0775 21.2665 4.8579C21.4735 3.64123 21.3678 3.2347 20.6585 3.64123C19.9493 4.04336 16.9992 2.4231 15.6791 3.2347C14.3575 4.04777 15.5763 10.7504 14.9669 11.2612C14.3575 11.766 13.5675 10.1751 13.3384 10.8546C13.0359 11.766 13.4412 15.5276 14.2547 15.5276C15.0712 15.5276 15.6806 16.5417 15.171 18.1679C14.6615 19.794 16.6938 19.9965 18.6262 19.2862C20.5572 18.5759 19.845 20.6071 21.7775 20.3047ZM15.2729 21.2148C15.5769 22.6398 16.2876 25.5868 18.5255 24.8721C20.7604 24.1603 15.0512 20.1948 15.2729 21.2148ZM20.9634 31.0712C21.4744 30.967 22.6947 31.0712 22.7931 30.0512C22.8944 29.037 24.0119 31.8799 23.0985 32.7942C22.1822 33.71 22.1822 36.249 23.608 36.5557C25.0295 36.861 27.6712 31.9841 27.2659 31.0727C26.8591 30.1569 25.6403 31.6788 25.9458 30.4621C26.2483 29.241 22.2865 26.09 20.7622 26.3953C19.2351 26.702 19.7666 31.306 20.9634 31.0712ZM8.97069 32.9998C7.54925 34.8285 4.15131 37.865 4.59772 38.6898C5.21005 39.8052 8.97069 34.2165 10.8003 32.9C12.6285 31.5777 12.326 30.4623 11.7166 29.2412C11.1043 28.023 10.3936 31.1697 8.97069 32.9998ZM27.0619 35.0325C27.4686 36.0466 30.4143 34.4219 29.6008 33.4063C28.7917 32.3922 26.7594 34.2708 27.0619 35.0325ZM36.2094 42.9547C37.4311 41.5281 35.3958 37.7739 35.3958 35.3391C35.3958 32.8999 32.042 33.6059 32.9568 35.1322C33.8716 36.6541 31.2299 35.4345 31.0243 36.9594C30.8246 38.4828 28.8907 37.2647 28.992 38.4828C29.0963 39.7024 26.9612 38.4828 25.9451 37.7739C24.9289 37.0636 23.506 39.7024 21.9803 40.1119C20.4561 40.5184 19.647 43.7516 20.6602 43.6665C21.879 43.5667 22.4884 41.9361 23.7087 42.0403C24.9289 42.1416 24.5251 40.8237 26.2476 41.126C27.9774 41.4342 26.7571 46.6135 29.0963 47.0171C31.4326 47.4251 31.5339 48.8472 32.6499 48.8472C33.7688 48.8472 32.4517 45.5994 32.5515 44.481C32.6499 43.3583 34.9891 44.3768 36.2094 42.9547Z" fill="white"/>
<path d="M21.7775 20.3047L21.7968 20.4282L21.7972 20.4282L21.7775 20.3047ZM25.9449 23.3501L26.059 23.4012L26.0591 23.4008L25.9449 23.3501ZM26.961 26.3954L26.8782 26.3018L26.878 26.302L26.961 26.3954ZM28.3825 27.9188L28.2797 27.8476L28.2796 27.8477L28.3825 27.9188ZM30.1108 32.1882L29.9879 32.2111L29.9879 32.2111L30.1108 32.1882ZM31.2312 31.2724L31.1079 31.2927L31.1079 31.2927L31.2312 31.2724ZM32.7554 29.2397L32.6843 29.1369L32.6842 29.1369L32.7554 29.2397ZM31.8421 25.076L31.9552 25.0229L31.9552 25.0228L31.8421 25.076ZM25.6394 19.2847L25.5152 19.2987L25.5152 19.2989L25.6394 19.2847ZM20.8641 18.4702L20.8008 18.3624L20.8007 18.3625L20.8641 18.4702ZM19.1343 15.3221L19.2262 15.2374L19.2261 15.2372L19.1343 15.3221ZM21.4735 10.4466L21.5675 10.5291L21.5676 10.529L21.4735 10.4466ZM21.2665 4.8579L21.1432 4.83693L21.1431 4.8377L21.2665 4.8579ZM20.6585 3.64123L20.7202 3.74997L20.7207 3.74968L20.6585 3.64123ZM15.6791 3.2347L15.6136 3.12821L15.6136 3.12823L15.6791 3.2347ZM14.9669 11.2612L15.0467 11.3574L15.0472 11.357L14.9669 11.2612ZM13.3384 10.8546L13.22 10.8147L13.2198 10.8153L13.3384 10.8546ZM18.6262 19.2862L18.6694 19.4035L18.6694 19.4035L18.6262 19.2862ZM15.2729 21.2148L15.3952 21.1887L15.3951 21.1882L15.2729 21.2148ZM18.5255 24.8721L18.4876 24.753L18.4875 24.753L18.5255 24.8721ZM20.9634 31.0712L20.9875 31.1939L20.9884 31.1937L20.9634 31.0712ZM22.7931 30.0512L22.6687 30.0388L22.6686 30.0392L22.7931 30.0512ZM23.0985 32.7942L23.1869 32.8826L23.1869 32.8825L23.0985 32.7942ZM23.608 36.5557L23.5817 36.6779L23.5818 36.6779L23.608 36.5557ZM27.2659 31.0727L27.1516 31.1234L27.1517 31.1234L27.2659 31.0727ZM25.9458 30.4621L26.067 30.4926L26.0671 30.4922L25.9458 30.4621ZM20.7622 26.3953L20.7377 26.2727L20.7376 26.2728L20.7622 26.3953ZM8.97069 32.9998L8.872 32.9231L8.87199 32.9231L8.97069 32.9998ZM4.59772 38.6898L4.48778 38.7493L4.48814 38.75L4.59772 38.6898ZM10.8003 32.9L10.8734 33.0015L10.8736 33.0013L10.8003 32.9ZM11.7166 29.2412L11.8285 29.1854L11.8283 29.185L11.7166 29.2412ZM27.0619 35.0325L26.9457 35.0786L26.9458 35.079L27.0619 35.0325ZM29.6008 33.4063L29.5031 33.4843L29.5032 33.4845L29.6008 33.4063ZM36.2094 42.9547L36.3042 43.0361L36.3043 43.036L36.2094 42.9547ZM32.9568 35.1322L32.8496 35.1965L32.8497 35.1966L32.9568 35.1322ZM31.0243 36.9594L30.9005 36.9427L30.9004 36.9432L31.0243 36.9594ZM28.992 38.4828L28.8675 38.4932L28.8675 38.4935L28.992 38.4828ZM25.9451 37.7739L25.8734 37.8764L25.8735 37.8765L25.9451 37.7739ZM21.9803 40.1119L22.0125 40.2327L22.0127 40.2326L21.9803 40.1119ZM20.6602 43.6665L20.65 43.5419L20.6497 43.5419L20.6602 43.6665ZM23.7087 42.0403L23.698 42.1649L23.6983 42.1649L23.7087 42.0403ZM26.2476 41.126L26.2695 41.0029L26.2692 41.0029L26.2476 41.126ZM29.0963 47.0171L29.1178 46.894L29.1176 46.8939L29.0963 47.0171ZM32.5515 44.481L32.676 44.4921L32.676 44.4919L32.5515 44.481ZM21.7972 20.4282C22.7117 20.2824 23.819 20.789 24.6599 21.4668C25.0775 21.8034 25.4193 22.1744 25.6307 22.5121C25.7365 22.681 25.807 22.8375 25.84 22.9739C25.8731 23.1106 25.8666 23.2184 25.8306 23.2993L26.0591 23.4008C26.1245 23.2535 26.1242 23.0854 26.083 22.9151C26.0417 22.7445 25.9575 22.5629 25.8426 22.3794C25.6128 22.0124 25.25 21.6214 24.8168 21.2722C23.9562 20.5785 22.7772 20.0188 21.7578 20.1813L21.7972 20.4282ZM25.8308 23.299C25.7175 23.552 25.673 23.9292 25.6776 24.3264C25.6822 24.7276 25.7373 25.1661 25.8351 25.5508C25.9316 25.9302 26.0747 26.2777 26.2684 26.4782C26.3674 26.5807 26.4891 26.6544 26.632 26.6607C26.7754 26.667 26.914 26.6045 27.0441 26.4888L26.878 26.302C26.779 26.39 26.7013 26.4135 26.643 26.4109C26.5844 26.4083 26.5193 26.3781 26.4482 26.3045C26.3017 26.1528 26.1714 25.859 26.0774 25.4892C25.9847 25.1247 25.932 24.706 25.9276 24.3235C25.9231 23.937 25.9682 23.6039 26.059 23.4012L25.8308 23.299ZM27.0438 26.4891C27.453 26.1274 27.9661 26.1764 28.2752 26.4519C28.4296 26.5894 28.5344 26.7844 28.5509 27.0186C28.5674 27.2529 28.4958 27.5361 28.2797 27.8476L28.4852 27.9901C28.7272 27.6411 28.8215 27.3026 28.8003 27.0011C28.7791 26.6994 28.6428 26.4445 28.4416 26.2652C28.0396 25.907 27.3839 25.8548 26.8782 26.3018L27.0438 26.4891ZM28.2796 27.8477C28.0274 28.2126 27.9999 28.5823 28.1042 28.9483C28.2063 29.3062 28.4342 29.6612 28.689 30.0114C28.9493 30.3692 29.2336 30.7173 29.4799 31.0886C29.7239 31.4566 29.9164 31.8281 29.9879 32.2111L30.2337 32.1652C30.1532 31.7337 29.9395 31.3293 29.6882 30.9505C29.4392 30.575 29.1392 30.2052 28.8912 29.8644C28.6378 29.516 28.4336 29.1917 28.3447 28.8798C28.2581 28.576 28.2809 28.2855 28.4853 27.9899L28.2796 27.8477ZM29.9879 32.2111C30.0272 32.4211 30.0791 32.5896 30.1419 32.7197C30.2043 32.8489 30.2814 32.9479 30.3755 33.0075C30.4734 33.0696 30.581 33.0831 30.6851 33.0545C30.7849 33.027 30.8743 32.9632 30.9508 32.8832C31.1034 32.7235 31.2292 32.4736 31.3045 32.1906C31.3804 31.9057 31.4081 31.5765 31.3545 31.252L31.1079 31.2927C31.1549 31.578 31.1308 31.8713 31.063 32.1263C30.9946 32.3832 30.8847 32.5906 30.7701 32.7105C30.7129 32.7703 30.6608 32.8018 30.6188 32.8134C30.581 32.8238 30.5464 32.8199 30.5093 32.7964C30.4683 32.7704 30.4176 32.7156 30.367 32.6109C30.3168 32.507 30.2704 32.3614 30.2337 32.1652L29.9879 32.2111ZM31.3545 31.252C31.3049 30.9505 31.2952 30.7448 31.3218 30.5895C31.3474 30.4407 31.407 30.3336 31.5107 30.2299C31.6196 30.121 31.7754 30.0171 31.9978 29.8779C32.2168 29.7407 32.4932 29.5735 32.8266 29.3424L32.6842 29.1369C32.3569 29.3638 32.0871 29.527 31.8651 29.666C31.6463 29.803 31.466 29.921 31.3339 30.0532C31.1966 30.1905 31.1104 30.3435 31.0754 30.5473C31.0416 30.7445 31.057 30.9836 31.1079 31.2927L31.3545 31.252ZM32.8265 29.3425C33.1819 29.0966 33.3632 28.8003 33.408 28.4623C33.4517 28.1317 33.3627 27.7772 33.2134 27.4141C33.0637 27.0501 32.8468 26.6624 32.6207 26.2638C32.3931 25.8627 32.155 25.4487 31.9552 25.0229L31.7289 25.1291C31.9337 25.5655 32.1772 25.9888 32.4032 26.3872C32.6307 26.7881 32.8394 27.1621 32.9821 27.5092C33.1252 27.8572 33.1954 28.1631 33.1601 28.4295C33.1258 28.6884 32.9898 28.9255 32.6843 29.1369L32.8265 29.3425ZM31.9552 25.0228C31.737 24.5587 31.3695 24.2557 30.9539 24.0364C30.5411 23.8185 30.071 23.6784 29.642 23.546C29.2054 23.4112 28.817 23.2858 28.536 23.0993C28.2643 22.9191 28.1022 22.6884 28.1022 22.333H27.8522C27.8522 22.7892 28.0717 23.0913 28.3978 23.3076C28.7145 23.5178 29.14 23.6527 29.5682 23.7849C30.004 23.9194 30.4493 24.0527 30.8373 24.2575C31.2225 24.4608 31.5411 24.7296 31.7289 25.1292L31.9552 25.0228ZM28.1022 22.333C28.1022 21.455 27.4962 20.8887 26.9241 20.4438C26.6301 20.2151 26.3522 20.0237 26.1323 19.8258C25.9125 19.6279 25.7842 19.4513 25.7636 19.2706L25.5152 19.2989C25.5468 19.5761 25.7368 19.8062 25.9651 20.0116C26.1933 20.217 26.4934 20.4255 26.7707 20.6412C27.3414 21.0849 27.8522 21.5848 27.8522 22.333H28.1022ZM25.7637 19.2708C25.7312 18.9821 25.4835 18.7259 25.1588 18.5231C24.8263 18.3154 24.3804 18.1426 23.8876 18.0323C22.9055 17.8124 21.7011 17.8332 20.8008 18.3624L20.9275 18.578C21.7525 18.093 22.8845 18.0639 23.8329 18.2763C24.3054 18.382 24.7234 18.5459 25.0263 18.7351C25.3371 18.9292 25.4963 19.1302 25.5152 19.2987L25.7637 19.2708ZM20.8007 18.3625C20.5905 18.4862 20.4377 18.5432 20.3279 18.557C20.2245 18.57 20.1655 18.5447 20.1231 18.5034C20.074 18.4555 20.0322 18.3713 19.9996 18.2391C19.9676 18.1088 19.9481 17.948 19.9321 17.7617C19.9007 17.3953 19.8837 16.935 19.7978 16.49C19.7115 16.0426 19.5529 15.5914 19.2262 15.2374L19.0424 15.4069C19.3244 15.7125 19.4703 16.1118 19.5524 16.5373C19.6349 16.9652 19.6502 17.4001 19.683 17.783C19.6992 17.9713 19.7199 18.1485 19.7569 18.2989C19.7934 18.4472 19.8496 18.5859 19.9486 18.6824C20.0543 18.7855 20.1934 18.8259 20.3591 18.8051C20.5184 18.785 20.7057 18.7084 20.9275 18.5779L20.8007 18.3625ZM19.2261 15.2372C18.9473 14.9359 18.8617 14.6052 18.9079 14.2476C18.9549 13.883 19.1401 13.4859 19.4155 13.067C19.9685 12.2259 20.8457 11.3515 21.5675 10.5291L21.3796 10.3642C20.6755 11.1664 19.7723 12.0693 19.2066 12.9296C18.9228 13.3614 18.7141 13.796 18.6599 14.2155C18.6048 14.6421 18.7105 15.0479 19.0426 15.407L19.2261 15.2372ZM21.5676 10.529C22.3232 9.66533 22.2044 8.51429 21.9496 7.47071C21.8229 6.95206 21.6529 6.42641 21.5352 5.98499C21.4137 5.52903 21.3448 5.15321 21.3898 4.8781L21.1431 4.8377C21.0883 5.17239 21.173 5.59698 21.2937 6.04939C21.4182 6.51634 21.579 7.00703 21.7067 7.53003C21.9606 8.56976 22.0453 9.60329 21.3794 10.3643L21.5676 10.529ZM21.3897 4.87887C21.4418 4.57273 21.475 4.3131 21.4835 4.10234C21.4918 3.89542 21.4771 3.71925 21.4205 3.59055C21.3912 3.52377 21.3484 3.46496 21.2876 3.42346C21.2262 3.38159 21.1556 3.3637 21.0818 3.36373C20.9412 3.3638 20.7776 3.42889 20.5964 3.53278L20.7207 3.74968C20.8941 3.65031 21.0097 3.61377 21.0819 3.61373C21.1145 3.61372 21.1338 3.62117 21.1467 3.63001C21.1603 3.63923 21.1764 3.65651 21.1917 3.69117C21.2243 3.76538 21.2416 3.89356 21.2337 4.09234C21.2259 4.2873 21.1947 4.53473 21.1432 4.83693L21.3897 4.87887ZM20.5969 3.53249C20.5378 3.56602 20.4415 3.58498 20.2986 3.58098C20.1583 3.57705 19.988 3.5516 19.7924 3.51085C19.3989 3.42889 18.931 3.29167 18.4289 3.16331C17.932 3.03631 17.408 2.91994 16.9226 2.88765C16.4391 2.85549 15.9762 2.90532 15.6136 3.12821L15.7446 3.34118C16.0421 3.15827 16.4429 3.10629 16.906 3.1371C17.3672 3.16778 17.8726 3.27916 18.3669 3.40552C18.8559 3.53051 19.3411 3.67222 19.7414 3.7556C19.9428 3.79753 20.1297 3.82634 20.2916 3.83088C20.4509 3.83534 20.602 3.81698 20.7202 3.74997L20.5969 3.53249ZM15.6136 3.12823C15.413 3.25164 15.2747 3.47688 15.1765 3.74974C15.0773 4.02507 15.0128 4.36661 14.9717 4.7466C14.8896 5.50691 14.8993 6.4447 14.931 7.36561C14.9629 8.29136 15.0166 9.19585 15.0245 9.9073C15.0284 10.2625 15.0207 10.5629 14.9941 10.7884C14.9808 10.9013 14.9632 10.991 14.9418 11.0575C14.9194 11.1272 14.8976 11.1562 14.8866 11.1654L15.0472 11.357C15.1124 11.3023 15.1525 11.2191 15.1798 11.1341C15.2082 11.0459 15.2282 10.9385 15.2424 10.8176C15.271 10.5757 15.2784 10.2622 15.2744 9.90452C15.2665 9.19017 15.2124 8.27241 15.1809 7.35702C15.1492 6.43678 15.1402 5.51453 15.2203 4.77345C15.2603 4.40275 15.3221 4.08326 15.4117 3.83441C15.5021 3.5831 15.6148 3.42102 15.7446 3.34116L15.6136 3.12823ZM14.8872 11.1649C14.8299 11.2124 14.7751 11.2321 14.7219 11.2362C14.6667 11.2404 14.605 11.2284 14.5354 11.1996C14.3922 11.1404 14.2432 11.0229 14.0897 10.896C14.0156 10.8349 13.9399 10.7712 13.8687 10.7178C13.7983 10.665 13.7237 10.6154 13.6497 10.5862C13.5754 10.5569 13.4827 10.5409 13.393 10.5861C13.3057 10.63 13.2532 10.7161 13.22 10.8147L13.4569 10.8946C13.4809 10.8233 13.5032 10.8105 13.5054 10.8094C13.5064 10.8089 13.5089 10.8077 13.516 10.808C13.5242 10.8083 13.5378 10.8108 13.5579 10.8188C13.5998 10.8353 13.6527 10.8682 13.7187 10.9178C13.7839 10.9667 13.8534 11.0251 13.9305 11.0888C14.0792 11.2116 14.2563 11.3547 14.4398 11.4306C14.5336 11.4694 14.6354 11.4935 14.7409 11.4854C14.8484 11.4772 14.9516 11.4362 15.0467 11.3574L14.8872 11.1649ZM13.2198 10.8153C13.1369 11.0651 13.1064 11.4899 13.1146 11.9714C13.1229 12.4582 13.1711 13.0196 13.2546 13.5522C13.3378 14.0836 13.4571 14.5928 13.6099 14.9723C13.686 15.1614 13.7733 15.3257 13.8739 15.4448C13.9738 15.5631 14.1008 15.6526 14.2547 15.6526V15.4026C14.2053 15.4026 14.1417 15.3745 14.0649 15.2835C13.9888 15.1934 13.9133 15.0567 13.8418 14.8789C13.6992 14.5246 13.5835 14.0365 13.5016 13.5135C13.4198 12.9918 13.3726 12.442 13.3646 11.9672C13.3564 11.4871 13.3887 11.0999 13.4571 10.894L13.2198 10.8153ZM14.2547 15.6526C14.6036 15.6526 14.9198 15.867 15.0948 16.2861C15.2709 16.7079 15.3006 17.3362 15.0518 18.1305L15.2903 18.2052C15.551 17.3734 15.5308 16.6815 15.3255 16.1898C15.119 15.6952 14.7223 15.4026 14.2547 15.4026V15.6526ZM15.0518 18.1305C14.9171 18.5602 14.9441 18.9184 15.1184 19.1952C15.2911 19.4692 15.5925 19.6378 15.9536 19.7247C16.6732 19.8979 17.6914 19.763 18.6694 19.4035L18.5831 19.1689C17.6286 19.5197 16.6644 19.6387 16.0121 19.4817C15.6873 19.4035 15.4554 19.261 15.33 19.0619C15.2062 18.8655 15.1702 18.5886 15.2903 18.2052L15.0518 18.1305ZM18.6694 19.4035C19.1383 19.231 19.4228 19.2341 19.6186 19.3056C19.8171 19.3781 19.9503 19.5287 20.1037 19.7205C20.2519 19.9058 20.4191 20.1304 20.6785 20.2813C20.944 20.4357 21.2923 20.5072 21.7968 20.4282L21.7582 20.1812C21.2964 20.2535 21.0091 20.1844 20.8043 20.0652C20.5933 19.9425 20.4556 19.7603 20.2989 19.5644C20.1474 19.375 19.9759 19.1699 19.7044 19.0708C19.4303 18.9707 19.0797 18.9862 18.5831 19.1689L18.6694 19.4035ZM15.1507 21.2408C15.3023 21.9518 15.5593 23.0644 16.0668 23.9102C16.3213 24.3342 16.6445 24.7013 17.0589 24.9138C17.4773 25.1284 17.9758 25.1789 18.5635 24.9912L18.4875 24.753C17.9562 24.9227 17.5267 24.8728 17.173 24.6914C16.8152 24.5078 16.5221 24.1831 16.2812 23.7815C15.7979 22.9762 15.5475 21.9028 15.3952 21.1887L15.1507 21.2408ZM18.5634 24.9912C18.8653 24.8951 19.0617 24.7339 19.1369 24.5083C19.21 24.289 19.1564 24.0434 19.0418 23.8031C18.8124 23.3222 18.2979 22.7775 17.7352 22.2988C17.1694 21.8175 16.5383 21.3893 16.0587 21.1445C15.8229 21.0241 15.6084 20.94 15.4523 20.9254C15.3773 20.9184 15.2821 20.9241 15.2128 20.988C15.136 21.0587 15.1329 21.1589 15.1508 21.2413L15.3951 21.1882C15.3853 21.1431 15.4008 21.1547 15.3822 21.1718C15.371 21.1821 15.3736 21.1691 15.4291 21.1743C15.534 21.1841 15.7118 21.2481 15.9451 21.3671C16.4038 21.6013 17.0188 22.0176 17.5732 22.4892C18.1307 22.9634 18.6106 23.4798 18.8162 23.9107C18.919 24.1263 18.943 24.2994 18.8997 24.4292C18.8586 24.5527 18.7445 24.6712 18.4876 24.753L18.5634 24.9912ZM20.9884 31.1937C21.1087 31.1691 21.2694 31.1572 21.4648 31.1355C21.6542 31.1145 21.867 31.085 22.0689 31.0243C22.2708 30.9637 22.4697 30.8698 22.6256 30.7149C22.7838 30.5578 22.8903 30.3453 22.9175 30.0632L22.6686 30.0392C22.6467 30.267 22.5637 30.4241 22.4494 30.5375C22.3329 30.6533 22.1763 30.731 21.997 30.7849C21.8177 30.8387 21.6235 30.8664 21.4373 30.8871C21.2571 30.907 21.0736 30.9211 20.9384 30.9487L20.9884 31.1937ZM22.9174 30.0636C22.9232 30.0058 22.932 29.97 22.9397 29.9503C22.9485 29.9275 22.949 29.943 22.9246 29.9541C22.8928 29.9686 22.8694 29.9545 22.8721 29.9561C22.8763 29.9587 22.8904 29.9698 22.9124 29.9989C23.0017 30.1167 23.1174 30.3858 23.2051 30.7304C23.2918 31.0707 23.3467 31.4669 23.3256 31.83C23.3042 32.196 23.207 32.5087 23.0101 32.7058L23.1869 32.8825C23.4466 32.6225 23.5523 32.237 23.5751 31.8445C23.5982 31.4491 23.5386 31.0265 23.4474 30.6687C23.3573 30.315 23.2317 30.0064 23.1116 29.8479C23.0812 29.8078 23.0449 29.7687 23.0022 29.7427C22.9579 29.7157 22.8911 29.6946 22.8209 29.7266C22.758 29.7553 22.725 29.8128 22.7068 29.8594C22.6874 29.9089 22.6756 29.9698 22.6687 30.0388L22.9174 30.0636ZM23.0101 32.7058C22.5173 33.1983 22.2849 34.1038 22.3504 34.9134C22.4156 35.7201 22.7864 36.5068 23.5817 36.6779L23.6343 36.4335C23.0038 36.2979 22.6617 35.6618 22.5996 34.8933C22.5377 34.1278 22.7634 33.3058 23.1869 32.8826L23.0101 32.7058ZM23.5818 36.6779C23.7977 36.7243 24.0247 36.6698 24.2468 36.5565C24.4693 36.4429 24.6977 36.2648 24.9233 36.0456C25.3749 35.607 25.832 34.9879 26.2288 34.3354C26.6259 33.6822 26.9664 32.9894 27.1826 32.3998C27.2906 32.1053 27.3688 31.8332 27.4067 31.6028C27.4437 31.3782 27.4464 31.1711 27.3801 31.0219L27.1517 31.1234C27.1866 31.2021 27.1955 31.3468 27.16 31.5621C27.1255 31.7716 27.0527 32.0277 26.9479 32.3138C26.7383 32.8855 26.4055 33.5636 26.0152 34.2055C25.6245 34.848 25.18 35.4478 24.7491 35.8663C24.5336 36.0756 24.3255 36.2356 24.1331 36.3338C23.9402 36.4323 23.7737 36.4635 23.6343 36.4335L23.5818 36.6779ZM27.3801 31.0219C27.3219 30.8907 27.2448 30.7939 27.1498 30.7298C27.0547 30.6655 26.9507 30.6402 26.8489 30.6371C26.6536 30.6311 26.4485 30.708 26.2965 30.7626C26.2152 30.7918 26.1497 30.8147 26.0957 30.8263C26.0372 30.8388 26.023 30.8307 26.0262 30.8325C26.0408 30.8405 26.0264 30.8481 26.0229 30.7921C26.0192 30.7351 26.0298 30.6409 26.067 30.4926L25.8245 30.4317C25.7854 30.5875 25.7672 30.7119 25.7734 30.8081C25.7796 30.9053 25.8135 31.0008 25.9057 31.0515C25.9866 31.096 26.0795 31.0855 26.1482 31.0707C26.2216 31.0549 26.3036 31.0256 26.381 30.9979C26.5464 30.9385 26.7031 30.8827 26.8412 30.8869C26.9061 30.8889 26.9617 30.9044 27.0099 30.937C27.0582 30.9696 27.1082 31.0256 27.1516 31.1234L27.3801 31.0219ZM26.0671 30.4922C26.1139 30.3034 26.0755 30.0917 25.9882 29.8772C25.9002 29.661 25.7575 29.4292 25.5772 29.1928C25.2163 28.7198 24.6935 28.2137 24.1165 27.7582C23.5391 27.3025 22.9023 26.8935 22.3107 26.617C21.7258 26.3437 21.1606 26.188 20.7377 26.2727L20.7868 26.5179C21.1259 26.4499 21.6276 26.5737 22.2048 26.8435C22.7753 27.1101 23.3958 27.5079 23.9616 27.9545C24.5277 28.4012 25.0339 28.8928 25.3784 29.3444C25.5508 29.5704 25.6798 29.7827 25.7566 29.9714C25.8341 30.1617 25.8533 30.3156 25.8244 30.4321L26.0671 30.4922ZM20.7376 26.2728C20.2874 26.3632 20.0125 26.7656 19.8617 27.2513C19.7093 27.7422 19.6701 28.3561 19.7167 28.9462C19.7633 29.5361 19.8967 30.1154 20.0997 30.537C20.201 30.7474 20.3236 30.9268 20.469 31.0467C20.6172 31.169 20.7934 31.2319 20.9875 31.1938L20.9393 30.9485C20.8342 30.9692 20.732 30.9396 20.6281 30.8538C20.5212 30.7657 20.4179 30.6216 20.3249 30.4285C20.1394 30.0433 20.011 29.4966 19.966 28.9265C19.921 28.3566 19.9604 27.7766 20.1005 27.3254C20.2422 26.8689 20.4734 26.5808 20.7868 26.5179L20.7376 26.2728ZM8.87199 32.9231C8.16423 33.8336 6.96981 35.0383 5.99041 36.1381C5.50425 36.6841 5.07142 37.2041 4.78786 37.642C4.64632 37.8605 4.53794 38.0646 4.4801 38.2454C4.42317 38.4233 4.40795 38.6018 4.48778 38.7493L4.70765 38.6303C4.67589 38.5716 4.6692 38.4748 4.7182 38.3216C4.76629 38.1713 4.86125 37.9886 4.9977 37.7779C5.27012 37.3572 5.69191 36.8492 6.17711 36.3044C7.14044 35.2226 8.3557 33.9946 9.06938 33.0765L8.87199 32.9231ZM4.48814 38.75C4.53905 38.8427 4.61277 38.9105 4.70957 38.9419C4.80317 38.9723 4.90321 38.9638 5.00034 38.9352C5.19117 38.8789 5.41187 38.7327 5.64772 38.537C6.12374 38.1421 6.71453 37.4996 7.33658 36.7892C7.96238 36.0745 8.61904 35.292 9.23852 34.6003C9.8586 33.9079 10.4284 33.3216 10.8733 33.0015L10.7273 32.7985C10.2574 33.1366 9.67106 33.7426 9.05229 34.4335C8.43292 35.1251 7.76809 35.9169 7.14849 36.6245C6.52513 37.3364 5.94659 37.9642 5.48809 38.3446C5.25669 38.5366 5.06884 38.6543 4.92965 38.6954C4.86178 38.7154 4.81644 38.7138 4.7868 38.7042C4.76034 38.6956 4.73292 38.6763 4.70729 38.6296L4.48814 38.75ZM10.8736 33.0013C11.8028 32.3292 12.2138 31.6926 12.2966 31.0486C12.3785 30.4113 12.1339 29.7973 11.8285 29.1854L11.6048 29.297C11.9088 29.9062 12.1201 30.4603 12.0486 31.0167C11.978 31.5662 11.626 32.1485 10.7271 32.7987L10.8736 33.0013ZM11.8283 29.185C11.7484 29.026 11.6508 28.9027 11.5208 28.8593C11.3787 28.8119 11.2493 28.8741 11.1473 28.9629C11.0451 29.0518 10.9457 29.1872 10.8474 29.3471C10.748 29.5088 10.6444 29.7047 10.5359 29.9214C10.0984 30.7953 9.57346 32.0209 8.872 32.9231L9.06937 33.0765C9.79082 32.1486 10.3327 30.8858 10.7594 30.0333C10.8669 29.8185 10.9667 29.6304 11.0604 29.478C11.1552 29.3238 11.2386 29.2149 11.3114 29.1515C11.3844 29.088 11.4221 29.0899 11.4416 29.0965C11.4732 29.107 11.5318 29.1519 11.605 29.2973L11.8283 29.185ZM26.9458 35.079C27.0782 35.409 27.4131 35.5009 27.7545 35.4737C28.0997 35.4461 28.499 35.2977 28.8526 35.0881C29.2059 34.8787 29.5291 34.5991 29.7116 34.296C29.8033 34.1436 29.8627 33.9797 29.8669 33.8125C29.8711 33.6428 29.818 33.4776 29.6983 33.3282L29.5032 33.4845C29.5869 33.5889 29.6197 33.6968 29.617 33.8063C29.6142 33.9184 29.5738 34.0401 29.4974 34.167C29.3436 34.4225 29.0575 34.6761 28.7252 34.873C28.3932 35.0698 28.0307 35.2008 27.7346 35.2244C27.4348 35.2484 27.2489 35.1631 27.1779 34.9859L26.9458 35.079ZM29.6985 33.3284C29.4625 33.0325 29.135 32.9513 28.8015 33.0019C28.4737 33.0516 28.1338 33.2278 27.8384 33.4543C27.542 33.6815 27.2798 33.9675 27.11 34.2501C26.9452 34.5244 26.8472 34.8306 26.9457 35.0786L27.178 34.9863C27.1253 34.8535 27.1679 34.6392 27.3243 34.3788C27.4758 34.1267 27.7155 33.8635 27.9905 33.6527C28.2665 33.4411 28.5675 33.2902 28.8389 33.2491C29.1045 33.2088 29.3345 33.2731 29.5031 33.4843L29.6985 33.3284ZM36.3043 43.036C36.6394 42.6447 36.742 42.1048 36.7226 41.5013C36.7031 40.8965 36.5604 40.2065 36.382 39.4946C36.2012 38.7732 35.9889 38.0468 35.8163 37.3265C35.6451 36.6121 35.5208 35.9326 35.5208 35.3391H35.2708C35.2708 35.9631 35.401 36.6659 35.5732 37.3848C35.744 38.0977 35.9642 38.8556 36.1395 39.5554C36.3172 40.2648 36.4542 40.9329 36.4727 41.5093C36.4913 42.0871 36.3901 42.5514 36.1144 42.8734L36.3043 43.036ZM35.5208 35.3391C35.5208 34.6987 35.2994 34.248 34.9667 33.9675C34.6369 33.6896 34.2116 33.5905 33.8225 33.6241C33.4357 33.6574 33.0654 33.8237 32.8527 34.1016C32.7452 34.2421 32.6789 34.4104 32.674 34.5996C32.6691 34.7882 32.7254 34.9893 32.8496 35.1965L33.064 35.0679C32.9595 34.8935 32.9205 34.7387 32.9239 34.6061C32.9273 34.474 32.973 34.3558 33.0512 34.2536C33.2101 34.0461 33.5067 33.9022 33.844 33.8731C34.179 33.8443 34.5351 33.9307 34.8055 34.1587C35.0731 34.3842 35.2708 34.76 35.2708 35.3391H35.5208ZM32.8497 35.1966C32.9606 35.3812 33.0092 35.5111 33.0209 35.6012C33.0316 35.6842 33.0109 35.727 32.9809 35.7574C32.9437 35.795 32.877 35.8282 32.77 35.8561C32.665 35.8835 32.5383 35.9017 32.3943 35.9208C32.1148 35.9579 31.7719 35.9976 31.4883 36.1316C31.1931 36.271 30.9583 36.5139 30.9005 36.9427L31.1482 36.9761C31.1932 36.6425 31.3657 36.466 31.5951 36.3576C31.836 36.2439 32.1349 36.2074 32.4272 36.1686C32.569 36.1498 32.7108 36.13 32.8331 36.098C32.9536 36.0666 33.0735 36.0192 33.1586 35.9333C33.2507 35.8401 33.2879 35.7166 33.2688 35.5691C33.2506 35.4286 33.1817 35.2637 33.0639 35.0678L32.8497 35.1966ZM30.9004 36.9432C30.8548 37.2914 30.7151 37.4636 30.5462 37.5604C30.366 37.6636 30.1359 37.6917 29.8857 37.7109C29.7651 37.7202 29.6378 37.7278 29.5214 37.7432C29.4047 37.7588 29.2875 37.7835 29.1851 37.8322C29.08 37.8822 28.9889 37.9582 28.9305 38.0737C28.8733 38.187 28.8536 38.3263 28.8675 38.4932L29.1166 38.4724C29.1052 38.3347 29.1238 38.2457 29.1537 38.1865C29.1824 38.1295 29.2274 38.0889 29.2924 38.058C29.3602 38.0258 29.4473 38.0053 29.5544 37.9911C29.6617 37.9768 29.7776 37.97 29.9049 37.9602C30.1505 37.9413 30.435 37.9122 30.6704 37.7773C30.9171 37.636 31.0941 37.3891 31.1483 36.9757L30.9004 36.9432ZM28.8675 38.4935C28.8792 38.6305 28.8577 38.715 28.8262 38.7661C28.7968 38.814 28.7499 38.8473 28.6749 38.8644C28.5125 38.9016 28.2544 38.8543 27.9323 38.7344C27.2993 38.4988 26.5217 38.0238 26.0166 37.6714L25.8735 37.8765C26.3846 38.233 27.1826 38.7221 27.8451 38.9687C28.1708 39.0899 28.4904 39.1631 28.7307 39.1081C28.8572 39.0792 28.9679 39.0132 29.0392 38.897C29.1086 38.7842 29.1309 38.64 29.1166 38.4722L28.8675 38.4935ZM26.0167 37.6715C25.7096 37.4568 25.3762 37.5057 25.0544 37.6708C24.737 37.8335 24.4046 38.1211 24.069 38.4312C23.7283 38.7458 23.3815 39.0863 23.022 39.3767C22.6625 39.6671 22.3039 39.8956 21.9479 39.9911L22.0127 40.2326C22.4196 40.1234 22.8109 39.8686 23.1791 39.5712C23.5472 39.2738 23.9058 38.9222 24.2386 38.6148C24.5764 38.3027 24.8856 38.0382 25.1685 37.8932C25.4469 37.7505 25.6725 37.7359 25.8734 37.8764L26.0167 37.6715ZM21.9481 39.9911C21.5305 40.1025 21.1729 40.4038 20.8892 40.7749C20.6046 41.1472 20.3861 41.6004 20.2494 42.0361C20.1134 42.4697 20.0544 42.8988 20.101 43.222C20.1242 43.3832 20.1755 43.5313 20.27 43.6378C20.3694 43.7499 20.5069 43.8048 20.6707 43.791L20.6497 43.5419C20.5602 43.5494 20.5013 43.5219 20.457 43.4719C20.4077 43.4163 20.368 43.3226 20.3484 43.1864C20.3093 42.9145 20.3578 42.5259 20.488 42.111C20.6175 41.6982 20.8237 41.2722 21.0878 40.9267C21.3529 40.5799 21.6681 40.3245 22.0125 40.2327L21.9481 39.9911ZM20.6704 43.7911C21.3301 43.7371 21.8201 43.2681 22.267 42.8703C22.7303 42.4578 23.1489 42.118 23.698 42.1649L23.7193 41.9158C23.0481 41.8585 22.5519 42.2819 22.1008 42.6836C21.6332 43.0999 21.2091 43.4961 20.65 43.5419L20.6704 43.7911ZM23.6983 42.1649C24.0283 42.1923 24.26 42.1236 24.4461 42.0024C24.6228 41.8874 24.7563 41.7236 24.8801 41.5942C25.0085 41.4599 25.1414 41.3431 25.3377 41.2733C25.5348 41.2032 25.8093 41.176 26.226 41.2491L26.2692 41.0029C25.8245 40.9249 25.5037 40.949 25.2539 41.0378C25.0033 41.1269 24.8379 41.2766 24.6994 41.4214C24.5563 41.571 24.4544 41.6988 24.3097 41.7929C24.1745 41.8809 23.9992 41.939 23.719 41.9158L23.6983 42.1649ZM26.2256 41.2491C26.5834 41.3128 26.811 41.629 26.9741 42.1567C27.1358 42.68 27.2169 43.3551 27.3197 44.054C27.4213 44.7443 27.5439 45.4554 27.7932 46.0202C28.0445 46.5892 28.434 47.0297 29.0751 47.1403L29.1176 46.8939C28.589 46.8027 28.2539 46.4444 28.0219 45.9192C27.7882 45.3897 27.6691 44.711 27.5671 44.0176C27.4663 43.3326 27.382 42.63 27.2129 42.0829C27.0452 41.5401 26.7767 41.0933 26.2695 41.003L26.2256 41.2491ZM29.0748 47.1402C30.2133 47.3391 30.8022 47.7822 31.2476 48.1785C31.6858 48.5685 32.0323 48.9722 32.6499 48.9722V48.7222C32.1514 48.7222 31.8893 48.4149 31.4138 47.9918C30.9455 47.575 30.3155 47.1031 29.1178 46.894L29.0748 47.1402ZM32.6499 48.9722C32.8247 48.9722 32.9642 48.9065 33.0612 48.7826C33.1532 48.6652 33.1979 48.5071 33.2168 48.3359C33.2544 47.9937 33.1942 47.5363 33.1058 47.0607C33.0176 46.5867 32.8949 46.0635 32.8047 45.6106C32.7122 45.1463 32.6529 44.751 32.676 44.4921L32.427 44.4699C32.4002 44.7702 32.4681 45.2003 32.5595 45.6595C32.6532 46.1301 32.7711 46.6286 32.86 47.1063C32.9485 47.5825 33.0015 48.007 32.9683 48.3086C32.9517 48.4594 32.915 48.5638 32.8644 48.6284C32.8189 48.6865 32.7549 48.7222 32.6499 48.7222V48.9722ZM32.676 44.4919C32.6862 44.3756 32.724 44.2957 32.7789 44.236C32.8355 44.1744 32.9185 44.1257 33.0327 44.0874C33.2669 44.0088 33.5872 43.9871 33.9703 43.9547C34.7155 43.8916 35.6569 43.7905 36.3042 43.0361L36.1145 42.8733C35.5415 43.541 34.7032 43.6417 33.9492 43.7056C33.5826 43.7366 33.2234 43.7597 32.9532 43.8504C32.8152 43.8967 32.6897 43.9637 32.5949 44.0668C32.4982 44.1719 32.4414 44.3057 32.427 44.4701L32.676 44.4919Z" fill="#868686"/>
</g>
<defs>
<filter id="filter0_d_6252_1267" x="0.432617" y="0.878784" width="40.2925" height="54.0934" filterUnits="userSpaceOnUse" color-interpolation-filters="sRGB">
<feFlood flood-opacity="0" result="BackgroundImageFix"/>
<feColorMatrix in="SourceAlpha" type="matrix" values="0 0 0 0 0 0 0 0 0 0 0 0 0 0 0 0 0 0 127 0" result="hardAlpha"/>
<feOffset dy="2"/>
<feGaussianBlur stdDeviation="2"/>
<feColorMatrix type="matrix" values="0 0 0 0 0 0 0 0 0 0 0 0 0 0 0 0 0 0 0.01 0"/>
<feBlend mode="normal" in2="BackgroundImageFix" result="effect1_dropShadow_6252_1267"/>
<feBlend mode="normal" in="SourceGraphic" in2="effect1_dropShadow_6252_1267" result="shape"/>
</filter>
</defs>
</svg>
