<svg width="39" height="39" viewBox="0 0 39 39" fill="none" xmlns="http://www.w3.org/2000/svg">
<g filter="url(#filter0_d_6252_1149)">
<path fill-rule="evenodd" clip-rule="evenodd" d="M34.2075 18.6562C32.9696 18.0339 31.7318 19.2726 31.3177 19.2726C30.905 19.2726 29.977 16.5942 29.6671 15.4626C29.3573 14.3238 28.1209 12.0533 27.2942 12.5685C26.4689 13.0851 26.676 12.3645 24.3045 12.2603C21.93 12.1575 22.0328 11.7466 22.5482 9.4747C23.0636 7.20721 21.0005 5.76452 21.9271 5.24938C22.6305 4.86193 22.5658 4.41283 21.7817 3.41338C21.5893 3.53812 21.3896 3.61884 21.2031 3.61884C20.3896 3.61884 19.372 2.1923 17.9506 2.1923C16.5262 2.1923 15.002 2.09251 13.9858 2.59884C12.9682 3.11104 11.0372 2.49757 9.81697 3.31211C8.59671 4.12371 7.07395 5.84965 7.17528 6.56145C7.2766 7.27472 6.76852 11.6395 6.15913 11.8435C5.97557 11.9036 5.52036 11.8713 4.97998 11.8126C5.79349 13.2245 8.20171 15.7488 9.75236 16.6955C11.6114 17.8299 11.5057 18.8617 13.5717 19.0686C15.6363 19.2711 16.6672 20.0989 17.3911 21.0279C18.1121 21.9554 23.3764 23.5009 23.7876 24.2259C24.1987 24.945 21.1048 27.0085 21.1048 28.8636C21.1048 30.7216 19.9682 30.5161 19.9682 31.1355C19.9682 31.7534 22.3426 31.341 23.1694 31.8532C23.9946 32.3727 25.4381 31.5479 26.4689 32.1643C27.5012 32.7851 28.6378 31.3395 29.463 31.5479C30.2898 31.7534 31.1135 30.1052 32.1458 30.2065C33.1782 30.3077 34.1062 26.5976 33.8991 25.1534C33.6921 23.7078 35.4469 19.2711 34.2075 18.6562Z" fill="white"/>
<path fill-rule="evenodd" clip-rule="evenodd" d="M34.2075 18.6562C32.9696 18.0339 31.7318 19.2726 31.3177 19.2726C30.905 19.2726 29.977 16.5942 29.6671 15.4626C29.3573 14.3238 28.1209 12.0533 27.2942 12.5685C26.4689 13.0851 26.676 12.3645 24.3045 12.2603C21.93 12.1575 22.0328 11.7466 22.5482 9.4747C23.0636 7.20721 21.0005 5.76452 21.9271 5.24938C22.6305 4.86193 22.5658 4.41283 21.7817 3.41338C21.5893 3.53812 21.3896 3.61884 21.2031 3.61884C20.3896 3.61884 19.372 2.1923 17.9506 2.1923C16.5262 2.1923 15.002 2.09251 13.9858 2.59884C12.9682 3.11104 11.0372 2.49757 9.81697 3.31211C8.59671 4.12371 7.07395 5.84965 7.17528 6.56145C7.2766 7.27472 6.76852 11.6395 6.15913 11.8435C5.97557 11.9036 5.52036 11.8713 4.97998 11.8126C5.79349 13.2245 8.20171 15.7488 9.75236 16.6955C11.6114 17.8299 11.5057 18.8617 13.5717 19.0686C15.6363 19.2711 16.6672 20.0989 17.3911 21.0279C18.1121 21.9554 23.3764 23.5009 23.7876 24.2259C24.1987 24.945 21.1048 27.0085 21.1048 28.8636C21.1048 30.7216 19.9682 30.5161 19.9682 31.1355C19.9682 31.7534 22.3426 31.341 23.1694 31.8532C23.9946 32.3727 25.4381 31.5479 26.4689 32.1643C27.5012 32.7851 28.6378 31.3395 29.463 31.5479C30.2898 31.7534 31.1135 30.1052 32.1458 30.2065C33.1782 30.3077 34.1062 26.5976 33.8991 25.1534C33.6921 23.7078 35.4469 19.2711 34.2075 18.6562Z" stroke="#868686" stroke-width="0.25"/>
</g>
<defs>
<filter id="filter0_d_6252_1149" x="0.749023" y="0.0593262" width="38.0303" height="38.3861" filterUnits="userSpaceOnUse" color-interpolation-filters="sRGB">
<feFlood flood-opacity="0" result="BackgroundImageFix"/>
<feColorMatrix in="SourceAlpha" type="matrix" values="0 0 0 0 0 0 0 0 0 0 0 0 0 0 0 0 0 0 127 0" result="hardAlpha"/>
<feOffset dy="2"/>
<feGaussianBlur stdDeviation="2"/>
<feColorMatrix type="matrix" values="0 0 0 0 0 0 0 0 0 0 0 0 0 0 0 0 0 0 0.01 0"/>
<feBlend mode="normal" in2="BackgroundImageFix" result="effect1_dropShadow_6252_1149"/>
<feBlend mode="normal" in="SourceGraphic" in2="effect1_dropShadow_6252_1149" result="shape"/>
</filter>
</defs>
</svg>
