<svg width="40" height="30" viewBox="0 0 40 30" fill="none" xmlns="http://www.w3.org/2000/svg">
<g filter="url(#filter0_d_6252_1111)">
<path fill-rule="evenodd" clip-rule="evenodd" d="M32.5276 16.2975C31.8183 16.1977 30.9006 15.8953 31.206 15.4859C31.2266 15.4609 31.2677 15.4081 31.2985 15.3699C30.347 14.6009 30.0959 12.1089 30.7053 11.4998C31.4777 10.7234 29.4571 7.772 28.5291 6.68742C28.0915 6.17521 27.1473 4.47863 26.2633 2.81287C25.4571 3.07557 24.742 3.3691 24.6025 3.60098C24.2985 4.10732 23.2794 4.61805 22.673 4.61805C22.0621 4.61805 21.4527 4.31279 20.9432 4.81765C20.4336 5.32545 19.7259 5.52945 19.419 5.22565C19.1135 4.92039 18.0974 4.61805 17.3822 4.61805C16.6759 4.61805 14.4381 4.00458 13.93 4.00458C13.6275 4.00458 13.14 4.04715 12.6069 4.12053C12.7215 4.3392 12.6334 4.60338 12.278 4.87049C11.6686 5.32545 10.4483 6.01084 9.98873 6.31757C9.53205 6.6199 7.93147 10.4299 6.86392 11.4954C5.79638 12.5609 4.80666 12.715 4.72883 13.0951C4.65247 13.4767 5.94909 14.4673 5.94909 15.0779C5.94909 15.6884 6.25306 16.296 7.093 16.296C7.93 16.296 7.01517 18.2788 7.54821 18.4299C8.08418 18.5826 11.3617 18.8101 11.3617 19.5718C11.3617 20.1662 11.7229 20.6637 11.5658 21.0746C12.488 21.2273 13.1635 22.4806 13.5247 22.3911C13.93 22.2884 16.6759 22.8989 17.1825 22.7962C17.6906 22.6964 20.0284 22.7962 20.8419 22.8974C21.6539 22.9987 22.5673 22.5922 23.278 21.8833C23.9916 21.17 26.5349 21.0687 27.347 21.17C28.1576 21.2727 29.7846 21.4753 30.09 21.986C30.2486 22.2517 31.206 22.6494 32.1752 22.9752C32.2882 22.4718 32.1414 21.8143 32.1722 21.1715C32.2222 20.1045 32.8301 18.4813 33.8991 18.3786C34.9666 18.2788 35.8301 18.2788 35.6788 16.5015C35.6759 16.4398 35.6759 16.3943 35.6715 16.3386C35.1296 15.8777 34.6245 15.4859 34.4586 15.4859C34.0547 15.4859 32.8301 16.34 32.5276 16.2975Z" fill="white"/>
<path fill-rule="evenodd" clip-rule="evenodd" d="M32.5276 16.2975C31.8183 16.1977 30.9006 15.8953 31.206 15.4859C31.2266 15.4609 31.2677 15.4081 31.2985 15.3699C30.347 14.6009 30.0959 12.1089 30.7053 11.4998C31.4777 10.7234 29.4571 7.772 28.5291 6.68742C28.0915 6.17521 27.1473 4.47863 26.2633 2.81287C25.4571 3.07557 24.742 3.3691 24.6025 3.60098C24.2985 4.10732 23.2794 4.61805 22.673 4.61805C22.0621 4.61805 21.4527 4.31279 20.9432 4.81765C20.4336 5.32545 19.7259 5.52945 19.419 5.22565C19.1135 4.92039 18.0974 4.61805 17.3822 4.61805C16.6759 4.61805 14.4381 4.00458 13.93 4.00458C13.6275 4.00458 13.14 4.04715 12.6069 4.12053C12.7215 4.3392 12.6334 4.60338 12.278 4.87049C11.6686 5.32545 10.4483 6.01084 9.98873 6.31757C9.53205 6.6199 7.93147 10.4299 6.86392 11.4954C5.79638 12.5609 4.80666 12.715 4.72883 13.0951C4.65247 13.4767 5.94909 14.4673 5.94909 15.0779C5.94909 15.6884 6.25306 16.296 7.093 16.296C7.93 16.296 7.01517 18.2788 7.54821 18.4299C8.08418 18.5826 11.3617 18.8101 11.3617 19.5718C11.3617 20.1662 11.7229 20.6637 11.5658 21.0746C12.488 21.2273 13.1635 22.4806 13.5247 22.3911C13.93 22.2884 16.6759 22.8989 17.1825 22.7962C17.6906 22.6964 20.0284 22.7962 20.8419 22.8974C21.6539 22.9987 22.5673 22.5922 23.278 21.8833C23.9916 21.17 26.5349 21.0687 27.347 21.17C28.1576 21.2727 29.7846 21.4753 30.09 21.986C30.2486 22.2517 31.206 22.6494 32.1752 22.9752C32.2882 22.4718 32.1414 21.8143 32.1722 21.1715C32.2222 20.1045 32.8301 18.4813 33.8991 18.3786C34.9666 18.2788 35.8301 18.2788 35.6788 16.5015C35.6759 16.4398 35.6759 16.3943 35.6715 16.3386C35.1296 15.8777 34.6245 15.4859 34.4586 15.4859C34.0547 15.4859 32.8301 16.34 32.5276 16.2975Z" stroke="#868686" stroke-width="0.25"/>
</g>
<defs>
<filter id="filter0_d_6252_1111" x="0.600586" y="0.661499" width="39.2202" height="28.4763" filterUnits="userSpaceOnUse" color-interpolation-filters="sRGB">
<feFlood flood-opacity="0" result="BackgroundImageFix"/>
<feColorMatrix in="SourceAlpha" type="matrix" values="0 0 0 0 0 0 0 0 0 0 0 0 0 0 0 0 0 0 127 0" result="hardAlpha"/>
<feOffset dy="2"/>
<feGaussianBlur stdDeviation="2"/>
<feColorMatrix type="matrix" values="0 0 0 0 0 0 0 0 0 0 0 0 0 0 0 0 0 0 0.01 0"/>
<feBlend mode="normal" in2="BackgroundImageFix" result="effect1_dropShadow_6252_1111"/>
<feBlend mode="normal" in="SourceGraphic" in2="effect1_dropShadow_6252_1111" result="shape"/>
</filter>
</defs>
</svg>
