<svg width="23" height="25" viewBox="0 0 23 25" fill="none" xmlns="http://www.w3.org/2000/svg">
<g filter="url(#filter0_d_6252_1156)">
<path fill-rule="evenodd" clip-rule="evenodd" d="M7.20633 5.78124C7.70119 6.77042 6.59106 7.26355 5.60134 7.38683C4.61456 7.51011 4.85978 9.73504 4.24304 10.3514C3.62484 10.9693 6.59106 12.5749 7.08151 13.9295C7.3752 14.7338 8.35904 16.4891 9.11675 17.7879C9.79957 17.9597 10.4515 18.1152 10.8407 17.898C11.7687 17.3785 10.9449 15.6246 12.2871 15.7289C13.6263 15.8331 15.5896 15.0024 16.105 15.8331C16.2004 15.9813 16.315 16.131 16.4413 16.2748C16.873 15.6246 17.3355 14.9158 17.4589 14.6692C17.707 14.1746 17.707 11.5813 17.0859 10.1034C16.4677 8.62257 16.9655 6.64714 17.707 6.02927C17.8642 5.89865 18.102 5.22647 18.3781 4.26664C17.1505 3.78819 15.9699 3.35671 14.9376 3.48586C13.1094 3.71628 11.2048 4.5543 10.5176 3.56364C9.83187 2.57299 8.83922 2.72709 7.92586 3.48586C7.8216 3.57392 7.70706 3.59887 7.58518 3.58272C7.27387 4.47358 6.95816 5.28518 7.20633 5.78124Z" fill="white"/>
<path fill-rule="evenodd" clip-rule="evenodd" d="M7.20633 5.78124C7.70119 6.77042 6.59106 7.26355 5.60134 7.38683C4.61456 7.51011 4.85978 9.73504 4.24304 10.3514C3.62484 10.9693 6.59106 12.5749 7.08151 13.9295C7.3752 14.7338 8.35904 16.4891 9.11675 17.7879C9.79957 17.9597 10.4515 18.1152 10.8407 17.898C11.7687 17.3785 10.9449 15.6246 12.2871 15.7289C13.6263 15.8331 15.5896 15.0024 16.105 15.8331C16.2004 15.9813 16.315 16.131 16.4413 16.2748C16.873 15.6246 17.3355 14.9158 17.4589 14.6692C17.707 14.1746 17.707 11.5813 17.0859 10.1034C16.4677 8.62257 16.9655 6.64714 17.707 6.02927C17.8642 5.89865 18.102 5.22647 18.3781 4.26664C17.1505 3.78819 15.9699 3.35671 14.9376 3.48586C13.1094 3.71628 11.2048 4.5543 10.5176 3.56364C9.83187 2.57299 8.83922 2.72709 7.92586 3.48586C7.8216 3.57392 7.70706 3.59887 7.58518 3.58272C7.27387 4.47358 6.95816 5.28518 7.20633 5.78124Z" stroke="#868686" stroke-width="0.25"/>
</g>
<defs>
<filter id="filter0_d_6252_1156" x="0.0336914" y="0.743408" width="22.4961" height="23.386" filterUnits="userSpaceOnUse" color-interpolation-filters="sRGB">
<feFlood flood-opacity="0" result="BackgroundImageFix"/>
<feColorMatrix in="SourceAlpha" type="matrix" values="0 0 0 0 0 0 0 0 0 0 0 0 0 0 0 0 0 0 127 0" result="hardAlpha"/>
<feOffset dy="2"/>
<feGaussianBlur stdDeviation="2"/>
<feColorMatrix type="matrix" values="0 0 0 0 0 0 0 0 0 0 0 0 0 0 0 0 0 0 0.01 0"/>
<feBlend mode="normal" in2="BackgroundImageFix" result="effect1_dropShadow_6252_1156"/>
<feBlend mode="normal" in="SourceGraphic" in2="effect1_dropShadow_6252_1156" result="shape"/>
</filter>
</defs>
</svg>
