<svg width="33" height="28" viewBox="0 0 33 28" fill="none" xmlns="http://www.w3.org/2000/svg">
<g filter="url(#filter0_d_6252_1077)">
<path fill-rule="evenodd" clip-rule="evenodd" d="M7.41951 15.098C6.90262 15.55 5.63097 17.2114 4.78662 18.7142L4.9643 18.7876L5.23743 20.0116L8.3593 21.6378C8.3593 21.6378 10.6633 20.0116 11.6163 19.8737C12.5649 19.7386 23.4209 13.9063 23.4209 13.9063C23.4209 13.9063 24.3725 12.4152 24.2388 11.8692C24.1008 11.3276 23.9643 9.83359 24.5105 9.15847C25.0538 8.48043 23.8321 7.39438 24.2388 6.3098C24.6441 5.22228 26.4092 4.68513 26.4092 4.68513L28.4444 3.19255L27.0891 2.78455C27.0891 2.78455 25.327 3.46259 23.2888 3.3261C21.2535 3.19255 20.8468 4.68513 18.675 4.68513C16.5002 4.68513 15.28 5.22228 14.7367 4.54717C14.1948 3.86766 14.0583 4.27566 12.5649 4.95224C11.0715 5.63029 10.1214 5.49673 9.44447 4.95224C8.76458 4.41215 8.22274 5.0902 8.08617 5.76824C7.95842 6.4052 8.15813 7.86402 6.0524 8.15315C5.9085 8.77836 5.66033 9.42999 6.02157 9.88348C6.55901 10.5527 5.91437 11.3452 5.75284 12.4254C8.44741 12.3051 8.06708 14.5315 7.41951 15.098Z" fill="white"/>
<path fill-rule="evenodd" clip-rule="evenodd" d="M7.41951 15.098C6.90262 15.55 5.63097 17.2114 4.78662 18.7142L4.9643 18.7876L5.23743 20.0116L8.3593 21.6378C8.3593 21.6378 10.6633 20.0116 11.6163 19.8737C12.5649 19.7386 23.4209 13.9063 23.4209 13.9063C23.4209 13.9063 24.3725 12.4152 24.2388 11.8692C24.1008 11.3276 23.9643 9.83359 24.5105 9.15847C25.0538 8.48043 23.8321 7.39438 24.2388 6.3098C24.6441 5.22228 26.4092 4.68513 26.4092 4.68513L28.4444 3.19255L27.0891 2.78455C27.0891 2.78455 25.327 3.46259 23.2888 3.3261C21.2535 3.19255 20.8468 4.68513 18.675 4.68513C16.5002 4.68513 15.28 5.22228 14.7367 4.54717C14.1948 3.86766 14.0583 4.27566 12.5649 4.95224C11.0715 5.63029 10.1214 5.49673 9.44447 4.95224C8.76458 4.41215 8.22274 5.0902 8.08617 5.76824C7.95842 6.4052 8.15813 7.86402 6.0524 8.15315C5.9085 8.77836 5.66033 9.42999 6.02157 9.88348C6.55901 10.5527 5.91437 11.3452 5.75284 12.4254C8.44741 12.3051 8.06708 14.5315 7.41951 15.098Z" stroke="#868686" stroke-width="0.25"/>
</g>
<defs>
<filter id="filter0_d_6252_1077" x="0.608398" y="0.652466" width="32.1123" height="27.1313" filterUnits="userSpaceOnUse" color-interpolation-filters="sRGB">
<feFlood flood-opacity="0" result="BackgroundImageFix"/>
<feColorMatrix in="SourceAlpha" type="matrix" values="0 0 0 0 0 0 0 0 0 0 0 0 0 0 0 0 0 0 127 0" result="hardAlpha"/>
<feOffset dy="2"/>
<feGaussianBlur stdDeviation="2"/>
<feColorMatrix type="matrix" values="0 0 0 0 0 0 0 0 0 0 0 0 0 0 0 0 0 0 0.01 0"/>
<feBlend mode="normal" in2="BackgroundImageFix" result="effect1_dropShadow_6252_1077"/>
<feBlend mode="normal" in="SourceGraphic" in2="effect1_dropShadow_6252_1077" result="shape"/>
</filter>
</defs>
</svg>
