<svg width="16" height="27" viewBox="0 0 16 27" fill="none" xmlns="http://www.w3.org/2000/svg">
<g filter="url(#filter0_d_6252_1055)">
<path fill-rule="evenodd" clip-rule="evenodd" d="M10.622 8.67428C10.0126 8.06522 11.3856 6.9234 9.93622 6.08391C8.65723 5.34423 8.21083 5.55116 8.06986 2.87126C7.33418 2.8243 6.25048 2.50729 5.46487 2.42657C5.30187 2.41043 5.16825 2.44712 5.05371 2.49995C5.21817 3.47299 5.459 4.55317 5.74387 4.71461C6.27838 5.01694 6.6587 5.62895 6.58381 6.76783C6.50745 7.91405 6.20055 10.4266 6.65723 11.5699C7.11685 12.7132 7.57353 14.5404 7.57353 16.2928C7.57353 17.3847 8.19467 19.0138 8.82903 20.2495C9.09335 20.1086 9.33417 19.9604 9.528 19.7975C9.98321 19.4115 10.7042 19.184 11.4487 19.0402C11.3694 16.8534 11.2475 13.8638 11.1565 12.7117C11.0023 10.8068 11.2314 9.28482 10.622 8.67428Z" fill="white"/>
<path fill-rule="evenodd" clip-rule="evenodd" d="M10.622 8.67428C10.0126 8.06522 11.3856 6.9234 9.93622 6.08391C8.65723 5.34423 8.21083 5.55116 8.06986 2.87126C7.33418 2.8243 6.25048 2.50729 5.46487 2.42657C5.30187 2.41043 5.16825 2.44712 5.05371 2.49995C5.21817 3.47299 5.459 4.55317 5.74387 4.71461C6.27838 5.01694 6.6587 5.62895 6.58381 6.76783C6.50745 7.91405 6.20055 10.4266 6.65723 11.5699C7.11685 12.7132 7.57353 14.5404 7.57353 16.2928C7.57353 17.3847 8.19467 19.0138 8.82903 20.2495C9.09335 20.1086 9.33417 19.9604 9.528 19.7975C9.98321 19.4115 10.7042 19.184 11.4487 19.0402C11.3694 16.8534 11.2475 13.8638 11.1565 12.7117C11.0023 10.8068 11.2314 9.28482 10.622 8.67428Z" stroke="#868686" stroke-width="0.25"/>
</g>
<defs>
<filter id="filter0_d_6252_1055" x="0.914551" y="0.297729" width="14.6631" height="26.1218" filterUnits="userSpaceOnUse" color-interpolation-filters="sRGB">
<feFlood flood-opacity="0" result="BackgroundImageFix"/>
<feColorMatrix in="SourceAlpha" type="matrix" values="0 0 0 0 0 0 0 0 0 0 0 0 0 0 0 0 0 0 127 0" result="hardAlpha"/>
<feOffset dy="2"/>
<feGaussianBlur stdDeviation="2"/>
<feColorMatrix type="matrix" values="0 0 0 0 0 0 0 0 0 0 0 0 0 0 0 0 0 0 0.01 0"/>
<feBlend mode="normal" in2="BackgroundImageFix" result="effect1_dropShadow_6252_1055"/>
<feBlend mode="normal" in="SourceGraphic" in2="effect1_dropShadow_6252_1055" result="shape"/>
</filter>
</defs>
</svg>
