<svg width="20" height="13" viewBox="0 0 20 13" fill="none" xmlns="http://www.w3.org/2000/svg">
<g filter="url(#filter0_d_6252_1374)">
<path fill-rule="evenodd" clip-rule="evenodd" d="M5.88991 5.53789C5.49637 5.56871 5.12486 5.66705 4.78125 5.81087C5.1278 6.20567 5.61825 6.6533 5.9046 6.43022C6.13954 6.24823 6.27464 5.82702 6.4112 5.44837C6.26583 5.47919 6.11752 5.50854 5.95305 5.52469C5.9325 5.52615 5.91487 5.53496 5.88991 5.53789ZM10.769 2.89756C9.39454 2.82711 8.84535 3.96012 7.82626 4.76585C7.73082 4.83923 7.62803 4.90674 7.5267 4.97426C7.885 5.2399 8.29175 5.67578 8.61187 6.11901C10.5796 4.94931 15.5913 3.49341 15.8541 2.79482C16.1581 1.98469 12.8042 2.99442 10.769 2.89756Z" fill="white"/>
<path d="M5.88991 5.53789L5.89968 5.66261L5.90451 5.66204L5.88991 5.53789ZM4.78125 5.81087L4.73299 5.69557L4.57263 5.76269L4.68731 5.89334L4.78125 5.81087ZM5.9046 6.43022L5.82805 6.33139L5.82777 6.33161L5.9046 6.43022ZM6.4112 5.44837L6.52879 5.49078L6.60498 5.27951L6.38528 5.32609L6.4112 5.44837ZM5.95305 5.52469L5.96196 5.64941L5.96526 5.64909L5.95305 5.52469ZM10.769 2.89756L10.7626 3.02239L10.763 3.02241L10.769 2.89756ZM7.82626 4.76585L7.90246 4.86496L7.90379 4.86391L7.82626 4.76585ZM7.5267 4.97426L7.45739 4.87023L7.30946 4.9688L7.45226 5.07467L7.5267 4.97426ZM8.61187 6.11901L8.51054 6.1922L8.57747 6.28488L8.67574 6.22646L8.61187 6.11901ZM15.8541 2.79482L15.9711 2.83884L15.9712 2.83873L15.8541 2.79482ZM5.88015 5.41328C5.47197 5.44524 5.0875 5.54718 4.73299 5.69557L4.82951 5.92618C5.16223 5.78692 5.52077 5.69219 5.89967 5.66251L5.88015 5.41328ZM4.68731 5.89334C4.86263 6.09307 5.08068 6.31378 5.29656 6.45652C5.4043 6.52775 5.51949 6.585 5.63452 6.60603C5.75331 6.62776 5.87593 6.61101 5.98142 6.52882L5.82777 6.33161C5.79009 6.36097 5.74402 6.37191 5.67949 6.36011C5.61119 6.34762 5.52843 6.31012 5.43444 6.24798C5.24687 6.12397 5.04642 5.92348 4.87519 5.72841L4.68731 5.89334ZM5.98114 6.52904C6.12344 6.41881 6.22624 6.24482 6.30847 6.06503C6.39147 5.88355 6.4618 5.67651 6.52879 5.49078L6.29362 5.40596C6.22404 5.59887 6.15854 5.79177 6.08112 5.96105C6.00292 6.13202 5.9207 6.25963 5.82805 6.33139L5.98114 6.52904ZM6.38528 5.32609C6.24077 5.35672 6.09807 5.38485 5.94084 5.40028L5.96526 5.64909C6.13697 5.63223 6.29088 5.60166 6.43713 5.57065L6.38528 5.32609ZM5.94415 5.4C5.91986 5.40174 5.89892 5.40778 5.89026 5.41014C5.87932 5.41312 5.87722 5.41353 5.87531 5.41375L5.90451 5.66204C5.92756 5.65933 5.94676 5.65386 5.95601 5.65134C5.96754 5.6482 5.96569 5.6491 5.96195 5.64937L5.94415 5.4ZM10.7754 2.77272C10.0452 2.73529 9.53395 3.02065 9.08289 3.40834C8.85981 3.60008 8.64816 3.81974 8.43388 4.03616C8.21794 4.25425 7.99709 4.47144 7.74874 4.6678L7.90379 4.86391C8.16498 4.6574 8.39494 4.43081 8.61153 4.21206C8.8298 3.99162 9.03243 3.78136 9.24584 3.59793C9.66776 3.2353 10.1183 2.98937 10.7626 3.02239L10.7754 2.77272ZM7.75008 4.66675C7.65875 4.73696 7.56007 4.80182 7.45739 4.87023L7.59602 5.07828C7.69598 5.01167 7.80288 4.9415 7.90245 4.86495L7.75008 4.66675ZM7.45226 5.07467C7.79741 5.33056 8.19553 5.75605 8.51054 6.1922L8.7132 6.04582C8.38797 5.59552 7.97259 5.14923 7.60115 4.87384L7.45226 5.07467ZM8.67574 6.22646C9.6482 5.64837 11.3795 4.99673 12.9177 4.3967C13.6831 4.09816 14.3996 3.81265 14.9416 3.55755C15.2123 3.43013 15.4435 3.30847 15.6168 3.19476C15.7034 3.13791 15.7784 3.08122 15.8375 3.02481C15.8952 2.96962 15.9453 2.90764 15.9711 2.83884L15.7372 2.7508C15.7302 2.76933 15.7102 2.80059 15.6648 2.84405C15.6206 2.88628 15.559 2.93365 15.4796 2.98574C15.3208 3.08994 15.1019 3.20578 14.8351 3.33136C14.302 3.58227 13.5933 3.86483 12.8269 4.1638C11.3016 4.75879 9.54323 5.41994 8.548 6.01156L8.67574 6.22646ZM15.9712 2.83873C15.9957 2.77327 16.0068 2.70409 15.9914 2.63606C15.9756 2.56566 15.9347 2.51074 15.8815 2.47073C15.7837 2.39712 15.6373 2.3686 15.4826 2.35801C15.1645 2.33623 14.6975 2.38556 14.1724 2.45478C13.108 2.59509 11.7779 2.82043 10.7749 2.7727L10.763 3.02241C11.7953 3.07154 13.1597 2.84045 14.2051 2.70264C14.7349 2.6328 15.1766 2.58765 15.4655 2.60743C15.6143 2.61761 15.6959 2.64388 15.7312 2.67049C15.7447 2.6806 15.7467 2.68714 15.7475 2.691C15.7489 2.69724 15.7505 2.71511 15.7371 2.75091L15.9712 2.83873Z" fill="#868686"/>
</g>
<defs>
<filter id="filter0_d_6252_1374" x="0.572754" y="0.352783" width="19.4258" height="12.262" filterUnits="userSpaceOnUse" color-interpolation-filters="sRGB">
<feFlood flood-opacity="0" result="BackgroundImageFix"/>
<feColorMatrix in="SourceAlpha" type="matrix" values="0 0 0 0 0 0 0 0 0 0 0 0 0 0 0 0 0 0 127 0" result="hardAlpha"/>
<feOffset dy="2"/>
<feGaussianBlur stdDeviation="2"/>
<feColorMatrix type="matrix" values="0 0 0 0 0 0 0 0 0 0 0 0 0 0 0 0 0 0 0.01 0"/>
<feBlend mode="normal" in2="BackgroundImageFix" result="effect1_dropShadow_6252_1374"/>
<feBlend mode="normal" in="SourceGraphic" in2="effect1_dropShadow_6252_1374" result="shape"/>
</filter>
</defs>
</svg>
