<svg width="69" height="45" viewBox="0 0 69 45" fill="none" xmlns="http://www.w3.org/2000/svg">
<g filter="url(#filter0_d_6252_1251)">
<path fill-rule="evenodd" clip-rule="evenodd" d="M63.9813 22.4031C62.3514 21.047 59.5026 19.4224 59.231 20.234C58.9593 21.047 57.1943 21.1821 56.5173 20.3705C55.8404 19.5559 55.2971 18.6064 53.2574 19.4224C51.2236 20.2354 49.8654 21.3215 49.7303 22.1331C49.5952 22.9491 48.2354 23.7607 48.1018 22.6761C47.9652 21.5915 46.3411 21.1835 45.2545 20.915C44.1693 20.6434 42.4058 21.1835 42.2677 20.1019C42.1341 19.0158 40.5056 17.7918 40.3676 16.5708C40.231 15.3526 40.6407 13.5915 39.5511 13.3141C38.4645 13.0426 37.789 11.2799 36.8404 11.2799C35.8889 11.2799 30.5952 11.2799 29.9168 11.0084C29.2369 10.7399 25.7083 12.0915 25.4352 11.2799C25.2193 10.621 22.7714 8.00419 21.4161 6.89173C21.2692 7.45383 20.9609 7.97484 20.3999 8.37991C17.8581 10.2071 15.4205 9.90184 16.234 7.66664C17.0475 5.4329 17.1474 2.78969 15.8273 2.78969C14.5057 2.78969 15.422 7.46557 14.4044 7.76937C13.5057 8.03941 13.1577 4.37767 13.9124 2.45801L5.21642 4.77393L4.80966 19.9669C4.80966 19.9669 4.78617 19.9801 4.77148 19.9962C5.58499 20.3925 6.52772 20.5172 7.18998 20.5715C8.50863 20.6728 8.40731 19.6601 8.40731 18.9454C8.40731 18.2365 9.83021 17.0184 10.8478 17.1197C11.8625 17.2209 11.7641 15.7973 12.0681 15.7973C12.3721 15.7973 13.1856 15.5919 13.4881 15.0914C13.7935 14.5777 15.4205 15.1868 15.9315 15.699C16.4367 16.2068 17.6554 16.4049 18.5717 16.6133C19.4851 16.8159 19.7891 19.6616 19.7891 20.2692C19.7891 20.8797 24.162 20.777 24.8742 20.8797C25.5849 20.9795 25.582 22.1977 26.2957 23.112C27.0078 24.0263 27.5174 25.2459 27.8199 25.9577C28.1253 26.6695 30.6657 27.5839 31.2766 28.4982C31.886 29.4111 33.8169 30.3239 35.2384 30.8347C36.6642 31.3454 37.9843 33.271 38.7978 33.1682C39.6113 33.0684 41.8463 34.1838 41.8463 34.1838L42.1062 36.4469C42.2016 36.4322 42.3 36.4146 42.4043 36.3794C43.6216 35.9758 44.3015 37.329 45.253 37.329C45.6524 37.329 46.1473 37.665 46.6275 37.9718C46.5614 35.9846 47.2648 34.9954 48.0474 34.3864C48.9608 33.676 47.438 32.4594 47.6422 31.3396C47.8419 30.2212 45.3044 29.6121 45.5071 28.6993C45.7082 27.7849 47.8419 27.8862 48.7596 27.4797C49.673 27.0746 48.9623 25.5497 49.8771 25.5497C50.7934 25.5497 51.1957 24.6354 51.5012 23.7211C51.8081 22.8067 53.3294 23.7211 54.1443 23.1105C54.9593 22.5029 56.1781 22.0964 56.4821 22.6042C56.7258 23.0034 55.717 24.7059 55.2706 25.4235C56.6891 25.3824 58.8213 25.1271 59.2324 24.7161C59.7772 24.1746 61.8095 25.5292 62.4894 24.1746C63.1678 22.8111 65.6098 23.7607 63.9813 22.4031Z" fill="white"/>
<path fill-rule="evenodd" clip-rule="evenodd" d="M63.9813 22.4031C62.3514 21.047 59.5026 19.4224 59.231 20.234C58.9593 21.047 57.1943 21.1821 56.5173 20.3705C55.8404 19.5559 55.2971 18.6064 53.2574 19.4224C51.2236 20.2354 49.8654 21.3215 49.7303 22.1331C49.5952 22.9491 48.2354 23.7607 48.1018 22.6761C47.9652 21.5915 46.3411 21.1835 45.2545 20.915C44.1693 20.6434 42.4058 21.1835 42.2677 20.1019C42.1341 19.0158 40.5056 17.7918 40.3676 16.5708C40.231 15.3526 40.6407 13.5915 39.5511 13.3141C38.4645 13.0426 37.789 11.2799 36.8404 11.2799C35.8889 11.2799 30.5952 11.2799 29.9168 11.0084C29.2369 10.7399 25.7083 12.0915 25.4352 11.2799C25.2193 10.621 22.7714 8.00419 21.4161 6.89173C21.2692 7.45383 20.9609 7.97484 20.3999 8.37991C17.8581 10.2071 15.4205 9.90184 16.234 7.66664C17.0475 5.4329 17.1474 2.78969 15.8273 2.78969C14.5057 2.78969 15.422 7.46557 14.4044 7.76937C13.5057 8.03941 13.1577 4.37767 13.9124 2.45801L5.21642 4.77393L4.80966 19.9669C4.80966 19.9669 4.78617 19.9801 4.77148 19.9962C5.58499 20.3925 6.52772 20.5172 7.18998 20.5715C8.50863 20.6728 8.40731 19.6601 8.40731 18.9454C8.40731 18.2365 9.83021 17.0184 10.8478 17.1197C11.8625 17.2209 11.7641 15.7973 12.0681 15.7973C12.3721 15.7973 13.1856 15.5919 13.4881 15.0914C13.7935 14.5777 15.4205 15.1868 15.9315 15.699C16.4367 16.2068 17.6554 16.4049 18.5717 16.6133C19.4851 16.8159 19.7891 19.6616 19.7891 20.2692C19.7891 20.8797 24.162 20.777 24.8742 20.8797C25.5849 20.9795 25.582 22.1977 26.2957 23.112C27.0078 24.0263 27.5174 25.2459 27.8199 25.9577C28.1253 26.6695 30.6657 27.5839 31.2766 28.4982C31.886 29.4111 33.8169 30.3239 35.2384 30.8347C36.6642 31.3454 37.9843 33.271 38.7978 33.1682C39.6113 33.0684 41.8463 34.1838 41.8463 34.1838L42.1062 36.4469C42.2016 36.4322 42.3 36.4146 42.4043 36.3794C43.6216 35.9758 44.3015 37.329 45.253 37.329C45.6524 37.329 46.1473 37.665 46.6275 37.9718C46.5614 35.9846 47.2648 34.9954 48.0474 34.3864C48.9608 33.676 47.438 32.4594 47.6422 31.3396C47.8419 30.2212 45.3044 29.6121 45.5071 28.6993C45.7082 27.7849 47.8419 27.8862 48.7596 27.4797C49.673 27.0746 48.9623 25.5497 49.8771 25.5497C50.7934 25.5497 51.1957 24.6354 51.5012 23.7211C51.8081 22.8067 53.3294 23.7211 54.1443 23.1105C54.9593 22.5029 56.1781 22.0964 56.4821 22.6042C56.7258 23.0034 55.717 24.7059 55.2706 25.4235C56.6891 25.3824 58.8213 25.1271 59.2324 24.7161C59.7772 24.1746 61.8095 25.5292 62.4894 24.1746C63.1678 22.8111 65.6098 23.7607 63.9813 22.4031Z" stroke="#868686" stroke-width="0.25"/>
</g>
<defs>
<filter id="filter0_d_6252_1251" x="0.566895" y="0.27356" width="68.0894" height="43.9314" filterUnits="userSpaceOnUse" color-interpolation-filters="sRGB">
<feFlood flood-opacity="0" result="BackgroundImageFix"/>
<feColorMatrix in="SourceAlpha" type="matrix" values="0 0 0 0 0 0 0 0 0 0 0 0 0 0 0 0 0 0 127 0" result="hardAlpha"/>
<feOffset dy="2"/>
<feGaussianBlur stdDeviation="2"/>
<feColorMatrix type="matrix" values="0 0 0 0 0 0 0 0 0 0 0 0 0 0 0 0 0 0 0.01 0"/>
<feBlend mode="normal" in2="BackgroundImageFix" result="effect1_dropShadow_6252_1251"/>
<feBlend mode="normal" in="SourceGraphic" in2="effect1_dropShadow_6252_1251" result="shape"/>
</filter>
</defs>
</svg>
