<svg width="57" height="48" viewBox="0 0 57 48" fill="none" xmlns="http://www.w3.org/2000/svg">
<g filter="url(#filter0_d_6252_1155)">
<path fill-rule="evenodd" clip-rule="evenodd" d="M9.05018 4.62959C8.05311 5.97541 6.06046 7.13925 6.02522 8.51295C5.99145 9.88959 6.02522 10.4018 5.5098 11.0564C4.99292 11.7095 4.23668 12.7045 4.99292 12.6355C5.75062 12.5666 6.60965 12.5666 6.60965 13.3914C6.60965 14.2162 8.25869 14.3879 8.12213 15.6589C7.98557 16.9313 7.40113 20.2643 10.3571 20.1953C13.313 20.1278 14.9988 19.1298 16.2352 20.7134C17.4731 22.2926 19.1236 23.0484 21.0472 22.8077C22.9723 22.5685 26.1001 22.1913 25.0692 23.8732C24.0399 25.5551 23.3526 29.164 24.2454 30.162C25.1382 31.1571 26.3086 31.9804 25.5861 32.8052C24.8651 33.6315 24.52 34.6632 25.4481 35.3824C26.3791 36.1015 26.103 36.963 26.0678 37.1333C26.0604 37.1787 25.8725 37.2859 25.5832 37.4194C26.9517 38.7785 27.4363 40.2681 28.2102 40.8875C29.2425 41.7123 29.5523 42.1232 30.2748 41.7123C30.9958 41.3013 31.5112 40.9931 32.1309 41.4011C32.7506 41.815 33.5758 40.9931 34.5068 40.1639C35.4348 39.3376 36.4657 40.0641 36.7755 39.0324C37.0854 37.9948 37.6022 37.3783 38.7373 37.1714C39.871 36.9689 39.871 35.7287 39.1485 35.7287C38.426 35.7287 37.3952 36.6548 37.3952 35.3178C37.3952 33.9734 36.4657 34.286 36.4657 33.1501C36.4657 32.0141 36.3614 31.2921 35.1235 30.5715C33.8857 29.8494 36.7755 29.5412 37.3952 30.1605C38.0134 30.7769 40.1808 30.2633 40.3864 31.1923C40.5934 32.1198 41.727 32.4295 41.727 31.2921C41.727 30.1605 43.0692 29.7452 44.1015 29.9536C45.1353 30.1605 47.4054 28.6107 48.3335 28.301C48.8181 28.1411 48.9943 27.5599 49.2586 27.0682C48.5802 26.1436 47.4965 24.7112 47.006 24.2973C46.2659 23.6809 47.5009 23.3126 47.3761 22.4496C47.2527 21.5852 47.3761 20.9673 48.9825 20.844C50.5875 20.7207 50.3408 19.485 49.4759 18.9904C48.611 18.4958 49.846 17.1382 50.7109 16.6451C51.0648 16.4426 51.5391 15.835 51.9722 14.9984C50.3291 14.3776 47.9752 14.4348 46.9869 14.4906C45.6918 14.5669 47.8254 13.0479 47.9018 11.6728C47.9767 10.3005 44.2425 10.073 42.7931 9.76778C41.3453 9.46397 41.7256 7.94057 43.2513 7.86572C44.777 7.78647 42.4113 6.72244 40.3555 7.02477C38.2968 7.32857 35.3996 8.47332 33.7227 9.38766C32.0442 10.3005 29.1485 6.72244 27.2425 7.4812C25.3365 8.24437 22.6684 8.24437 22.7447 6.72097C22.8211 5.19463 21.9826 3.90018 20.0766 4.05428C18.172 4.20545 18.6287 2.14783 17.1808 2.14783C15.7315 2.14783 17.1808 3.90018 16.1897 4.35661C15.1985 4.81452 11.7682 5.654 11.5392 7.0233C11.3101 8.39554 13.3703 10.6806 12.6831 12.0529C11.9958 13.4251 9.7095 12.2789 9.02374 10.8362C8.33652 9.38766 11.0046 7.17887 10.548 6.34085C10.2308 5.75967 9.82257 4.67656 10.0928 3.96035C9.66985 4.09538 9.2954 4.30671 9.05018 4.62959Z" fill="white"/>
<path fill-rule="evenodd" clip-rule="evenodd" d="M9.05018 4.62959C8.05311 5.97541 6.06046 7.13925 6.02522 8.51295C5.99145 9.88959 6.02522 10.4018 5.5098 11.0564C4.99292 11.7095 4.23668 12.7045 4.99292 12.6355C5.75062 12.5666 6.60965 12.5666 6.60965 13.3914C6.60965 14.2162 8.25869 14.3879 8.12213 15.6589C7.98557 16.9313 7.40113 20.2643 10.3571 20.1953C13.313 20.1278 14.9988 19.1298 16.2352 20.7134C17.4731 22.2926 19.1236 23.0484 21.0472 22.8077C22.9723 22.5685 26.1001 22.1913 25.0692 23.8732C24.0399 25.5551 23.3526 29.164 24.2454 30.162C25.1382 31.1571 26.3086 31.9804 25.5861 32.8052C24.8651 33.6315 24.52 34.6632 25.4481 35.3824C26.3791 36.1015 26.103 36.963 26.0678 37.1333C26.0604 37.1787 25.8725 37.2859 25.5832 37.4194C26.9517 38.7785 27.4363 40.2681 28.2102 40.8875C29.2425 41.7123 29.5523 42.1232 30.2748 41.7123C30.9958 41.3013 31.5112 40.9931 32.1309 41.4011C32.7506 41.815 33.5758 40.9931 34.5068 40.1639C35.4348 39.3376 36.4657 40.0641 36.7755 39.0324C37.0854 37.9948 37.6022 37.3783 38.7373 37.1714C39.871 36.9689 39.871 35.7287 39.1485 35.7287C38.426 35.7287 37.3952 36.6548 37.3952 35.3178C37.3952 33.9734 36.4657 34.286 36.4657 33.1501C36.4657 32.0141 36.3614 31.2921 35.1235 30.5715C33.8857 29.8494 36.7755 29.5412 37.3952 30.1605C38.0134 30.7769 40.1808 30.2633 40.3864 31.1923C40.5934 32.1198 41.727 32.4295 41.727 31.2921C41.727 30.1605 43.0692 29.7452 44.1015 29.9536C45.1353 30.1605 47.4054 28.6107 48.3335 28.301C48.8181 28.1411 48.9943 27.5599 49.2586 27.0682C48.5802 26.1436 47.4965 24.7112 47.006 24.2973C46.2659 23.6809 47.5009 23.3126 47.3761 22.4496C47.2527 21.5852 47.3761 20.9673 48.9825 20.844C50.5875 20.7207 50.3408 19.485 49.4759 18.9904C48.611 18.4958 49.846 17.1382 50.7109 16.6451C51.0648 16.4426 51.5391 15.835 51.9722 14.9984C50.3291 14.3776 47.9752 14.4348 46.9869 14.4906C45.6918 14.5669 47.8254 13.0479 47.9018 11.6728C47.9767 10.3005 44.2425 10.073 42.7931 9.76778C41.3453 9.46397 41.7256 7.94057 43.2513 7.86572C44.777 7.78647 42.4113 6.72244 40.3555 7.02477C38.2968 7.32857 35.3996 8.47332 33.7227 9.38766C32.0442 10.3005 29.1485 6.72244 27.2425 7.4812C25.3365 8.24437 22.6684 8.24437 22.7447 6.72097C22.8211 5.19463 21.9826 3.90018 20.0766 4.05428C18.172 4.20545 18.6287 2.14783 17.1808 2.14783C15.7315 2.14783 17.1808 3.90018 16.1897 4.35661C15.1985 4.81452 11.7682 5.654 11.5392 7.0233C11.3101 8.39554 13.3703 10.6806 12.6831 12.0529C11.9958 13.4251 9.7095 12.2789 9.02374 10.8362C8.33652 9.38766 11.0046 7.17887 10.548 6.34085C10.2308 5.75967 9.82257 4.67656 10.0928 3.96035C9.66985 4.09538 9.2954 4.30671 9.05018 4.62959Z" stroke="#868686" stroke-width="0.25"/>
</g>
<defs>
<filter id="filter0_d_6252_1155" x="0.54834" y="0.0228271" width="55.5996" height="47.9756" filterUnits="userSpaceOnUse" color-interpolation-filters="sRGB">
<feFlood flood-opacity="0" result="BackgroundImageFix"/>
<feColorMatrix in="SourceAlpha" type="matrix" values="0 0 0 0 0 0 0 0 0 0 0 0 0 0 0 0 0 0 127 0" result="hardAlpha"/>
<feOffset dy="2"/>
<feGaussianBlur stdDeviation="2"/>
<feColorMatrix type="matrix" values="0 0 0 0 0 0 0 0 0 0 0 0 0 0 0 0 0 0 0.01 0"/>
<feBlend mode="normal" in2="BackgroundImageFix" result="effect1_dropShadow_6252_1155"/>
<feBlend mode="normal" in="SourceGraphic" in2="effect1_dropShadow_6252_1155" result="shape"/>
</filter>
</defs>
</svg>
