<svg width="64" height="57" viewBox="0 0 64 57" fill="none" xmlns="http://www.w3.org/2000/svg">
<g filter="url(#filter0_d_6252_1038)">
<path fill-rule="evenodd" clip-rule="evenodd" d="M56.9233 20.442C56.9233 20.442 56.9027 20.3011 56.8778 20.081C56.6076 20.3011 56.3315 20.6152 56.2977 20.9997C56.2243 21.7805 55.449 21.8494 54.3829 21.7805C53.3198 21.7086 52.2581 19.0155 52.2581 18.5913C52.2581 18.1686 53.7471 16.1169 54.5958 16.1169C55.145 16.1169 55.9321 16.7054 56.5576 17.1237C56.5312 16.814 56.5268 16.5777 56.54 16.4809C56.6164 16.0229 57.1509 10.7659 56.2331 10.2331C55.3198 9.69892 54.4064 4.36554 54.101 3.83132C53.797 3.30151 50.4402 3.60531 50.0584 2.99331C49.6854 2.39598 46.8558 2.97716 46.7941 2.40479C46.355 3.05348 45.8616 3.76675 45.6135 4.06468C45.1054 4.67375 43.6825 4.26574 43.4798 5.28134C43.2743 6.29841 41.5489 7.31695 40.7354 7.31695C39.9204 7.31695 39.311 8.73615 39.311 9.65196C39.311 10.5634 37.6869 11.7859 36.3639 11.7859C35.0437 11.7859 35.4505 12.9013 35.0423 14.3249C34.6385 15.7441 34.0291 15.8483 31.7912 15.8483C29.5577 15.8483 29.4534 15.6428 27.7222 14.5304C25.9953 13.412 25.4887 15.4418 25.3888 16.3546C25.2861 17.269 22.9469 19.0991 22.2361 19.9092C21.5254 20.7238 19.7971 20.1162 18.7824 20.1162C17.7648 20.1162 18.1715 19.2018 18.1715 18.5913C18.1715 17.9822 18.6796 18.3888 18.8808 17.7768C19.0864 17.1706 18.1715 14.9325 17.7633 13.9184C17.5915 13.4781 16.8823 13.117 16.1363 12.8485C16.1363 18.6089 16.1363 24.8038 16.1363 25.3982C16.1363 26.5151 14.3052 27.0214 13.9028 27.6334C13.4946 28.241 10.9513 27.7347 9.53132 27.7347C8.10842 27.7347 8.41385 26.3111 7.70166 25.2969C6.99388 24.2828 5.77068 25.5993 5.77068 26.3111C5.77068 26.8482 5.13339 26.7484 4.29785 26.6662C5.41239 28.4259 6.38302 30.4835 6.89109 32.1537C7.70313 34.8483 9.68404 37.3829 10.1936 38.9562C10.7002 40.5339 11.2611 42.0074 10.1936 42.1571C9.12603 42.3097 9.12603 43.2255 10.242 44.9529C11.361 46.6774 10.3948 47.6959 11.361 47.897C12.3257 48.101 12.0218 48.7071 12.7824 48.7614C13.5475 48.8113 14.1069 49.573 14.615 50.2335C15.1201 50.8954 16.2919 50.8954 16.8485 50.0808C17.408 49.2692 19.1363 49.0153 20.9146 49.0153C22.6943 49.0153 22.3389 48.2507 24.0658 47.7429C25.7927 47.2395 27.8764 47.1867 29.3507 47.6974C30.825 48.2023 31.9439 47.7429 32.6546 47.2923C33.3653 46.833 34.7368 48.0027 34.8411 46.833C34.941 45.6633 36.3639 45.8643 37.6869 45.8643C39.007 45.8643 42.2082 43.7832 44.75 41.3968C47.2933 39.0105 51.5092 33.7769 52.9336 31.3905C54.355 29.0056 56.6942 26.9715 57.8631 25.906C58.7338 25.1076 59.2405 22.2971 59.4813 20.2497C58.2816 20.2306 56.9233 20.442 56.9233 20.442ZM46.3243 31.7957C46.3243 32.6103 44.4947 31.5917 44.0908 32.4033C43.6826 33.2179 43.2744 34.232 43.2744 34.232L41.8515 34.028L39.8207 31.1837C39.8207 31.1837 41.4447 28.9515 41.8515 28.1369C42.2583 27.3253 44.8999 25.9017 45.3082 26.7148C45.712 27.5264 47.5416 28.542 47.5416 29.3536C47.5446 30.1696 46.3243 30.9812 46.3243 31.7957Z" fill="white"/>
<path d="M56.9233 20.442L56.7996 20.46L56.8178 20.5849L56.9425 20.5655L56.9233 20.442ZM56.8778 20.081L57.002 20.0669L56.9762 19.8395L56.7988 19.984L56.8778 20.081ZM56.2977 20.9997L56.4222 21.0114L56.4222 21.0106L56.2977 20.9997ZM54.3829 21.7805L54.3745 21.9052L54.3748 21.9052L54.3829 21.7805ZM56.5576 17.1237L56.4882 17.2276L56.7043 17.3721L56.6822 17.113L56.5576 17.1237ZM56.54 16.4809L56.4167 16.4603L56.4162 16.464L56.54 16.4809ZM56.2331 10.2331L56.17 10.341L56.1704 10.3412L56.2331 10.2331ZM54.101 3.83132L54.2095 3.76928L54.2094 3.76912L54.101 3.83132ZM50.0584 2.99331L50.1644 2.92714L50.1644 2.9271L50.0584 2.99331ZM46.7941 2.40479L46.9184 2.39139L46.8818 2.05216L46.6906 2.33472L46.7941 2.40479ZM45.6135 4.06468L45.7095 4.14475L45.7095 4.14468L45.6135 4.06468ZM43.4798 5.28134L43.6024 5.30611L43.6024 5.3058L43.4798 5.28134ZM35.0423 14.3249L34.9221 14.2904L34.922 14.2907L35.0423 14.3249ZM27.7222 14.5304L27.6542 14.6353L27.6546 14.6355L27.7222 14.5304ZM25.3888 16.3546L25.5131 16.3686L25.5131 16.3682L25.3888 16.3546ZM22.2361 19.9092L22.1422 19.8268L22.1419 19.8271L22.2361 19.9092ZM18.8808 17.7768L18.7624 17.7366L18.762 17.7377L18.8808 17.7768ZM17.7633 13.9184L17.6469 13.9638L17.6474 13.965L17.7633 13.9184ZM16.1363 12.8485L16.1786 12.7308L16.0113 12.6706V12.8485H16.1363ZM13.9028 27.6334L14.0066 27.7031L14.0073 27.7021L13.9028 27.6334ZM7.70166 25.2969L7.59916 25.3685L7.59937 25.3688L7.70166 25.2969ZM4.29785 26.6662L4.31009 26.5418L4.05522 26.5168L4.19225 26.7331L4.29785 26.6662ZM6.89109 32.1537L7.01077 32.1176L7.01068 32.1173L6.89109 32.1537ZM10.1936 38.9562L10.3126 38.918L10.3125 38.9177L10.1936 38.9562ZM10.1936 42.1571L10.1762 42.0333L10.1759 42.0333L10.1936 42.1571ZM10.242 44.9529L10.137 45.0208L10.1372 45.021L10.242 44.9529ZM11.361 47.897L11.3868 47.7747L11.3864 47.7746L11.361 47.897ZM12.7824 48.7614L12.7735 48.8861L12.7743 48.8862L12.7824 48.7614ZM14.615 50.2335L14.7144 50.1576L14.7141 50.1572L14.615 50.2335ZM16.8485 50.0808L16.7456 50.0099L16.7453 50.0103L16.8485 50.0808ZM24.0658 47.7429L24.0308 47.6229L24.0305 47.623L24.0658 47.7429ZM29.3507 47.6974L29.3097 47.8155L29.3102 47.8157L29.3507 47.6974ZM32.6546 47.2923L32.7215 47.3979L32.7225 47.3973L32.6546 47.2923ZM34.8411 46.833L34.9656 46.8441L34.9656 46.8436L34.8411 46.833ZM44.75 41.3968L44.6645 41.3057L44.6645 41.3057L44.75 41.3968ZM52.9336 31.3905L53.0409 31.4546L53.0409 31.4545L52.9336 31.3905ZM57.8631 25.906L57.9473 25.9984L57.9475 25.9981L57.8631 25.906ZM59.4813 20.2497L59.6054 20.2643L59.6216 20.1269L59.4833 20.1247L59.4813 20.2497ZM44.0908 32.4033L44.2026 32.4593L44.2028 32.459L44.0908 32.4033ZM43.2744 34.232L43.2567 34.3557L43.3537 34.3697L43.3904 34.2787L43.2744 34.232ZM41.8515 34.028L41.7498 34.1006L41.7808 34.1442L41.8338 34.1517L41.8515 34.028ZM39.8207 31.1837L39.7196 31.1102L39.6666 31.1831L39.7189 31.2564L39.8207 31.1837ZM41.8515 28.1369L41.7397 28.0809L41.7397 28.0811L41.8515 28.1369ZM45.3082 26.7148L45.4201 26.6591L45.4199 26.6587L45.3082 26.7148ZM47.5416 29.3536H47.4166L47.4166 29.354L47.5416 29.3536ZM56.9233 20.442C57.047 20.4239 57.047 20.4239 57.047 20.4239V20.424C57.047 20.424 57.047 20.4239 57.047 20.4239C57.047 20.4239 57.047 20.4239 57.047 20.4239C57.047 20.4238 57.0469 20.4237 57.0469 20.4236C57.0469 20.4234 57.0468 20.423 57.0468 20.4225C57.0466 20.4215 57.0464 20.4199 57.0461 20.4179C57.0455 20.4137 57.0446 20.4075 57.0435 20.3993C57.0412 20.3829 57.0379 20.3588 57.0338 20.3277C57.0256 20.2656 57.0143 20.1761 57.002 20.0669L56.7536 20.095C56.7661 20.2059 56.7776 20.297 56.7859 20.3603C56.7901 20.392 56.7935 20.4168 56.7959 20.4338C56.797 20.4422 56.798 20.4487 56.7986 20.4532C56.7989 20.4554 56.7992 20.4571 56.7993 20.4582C56.7994 20.4588 56.7995 20.4592 56.7995 20.4595C56.7995 20.4597 56.7996 20.4598 56.7996 20.4599C56.7996 20.4599 56.7996 20.46 56.7996 20.46C56.7996 20.46 56.7996 20.46 56.7996 20.46C56.7996 20.46 56.7996 20.46 56.7996 20.46C56.7996 20.46 56.7996 20.46 56.9233 20.442ZM56.7988 19.984C56.5215 20.2099 56.2116 20.5521 56.1732 20.9888L56.4222 21.0106C56.4515 20.6782 56.6936 20.3922 56.9567 20.1779L56.7988 19.984ZM56.1733 20.988C56.1569 21.162 56.1027 21.2868 56.023 21.379C55.9424 21.472 55.8277 21.5413 55.6749 21.5895C55.3636 21.6879 54.9251 21.6903 54.391 21.6557L54.3748 21.9052C54.9068 21.9396 55.389 21.942 55.7502 21.8279C55.9337 21.77 56.0932 21.6799 56.212 21.5426C56.3316 21.4044 56.4018 21.2277 56.4222 21.0114L56.1733 20.988ZM54.3913 21.6558C54.1744 21.6411 53.9368 21.4889 53.6941 21.2266C53.4549 20.968 53.2283 20.6213 53.0317 20.2584C52.8356 19.8964 52.6721 19.5232 52.5578 19.215C52.5007 19.0609 52.4563 18.9243 52.4264 18.8144C52.3955 18.7007 52.3831 18.6262 52.3831 18.5913H52.1331C52.1331 18.6624 52.1539 18.7649 52.1852 18.88C52.2175 18.9988 52.2644 19.1427 52.3234 19.3019C52.4414 19.6202 52.6097 20.0043 52.8119 20.3775C53.0136 20.7499 53.2518 21.1165 53.5106 21.3964C53.766 21.6725 54.0598 21.8839 54.3745 21.9052L54.3913 21.6558ZM52.3831 18.5913C52.3831 18.5664 52.3966 18.5086 52.4382 18.4139C52.4776 18.324 52.5362 18.2142 52.6109 18.0912C52.76 17.8455 52.9688 17.5547 53.2041 17.2763C53.4398 16.9975 53.6991 16.7349 53.9486 16.5432C54.2034 16.3474 54.4273 16.2419 54.5958 16.2419V15.9919C54.34 15.9919 54.0595 16.1428 53.7963 16.3449C53.528 16.5511 53.2559 16.8279 53.0132 17.1149C52.7703 17.4022 52.5537 17.7036 52.3972 17.9615C52.319 18.0903 52.2546 18.2102 52.2093 18.3134C52.1661 18.4118 52.1331 18.5106 52.1331 18.5913H52.3831ZM54.5958 16.2419C54.834 16.2419 55.1424 16.3725 55.4854 16.5715C55.8244 16.7683 56.1709 17.0154 56.4882 17.2276L56.6271 17.0198C56.3189 16.8136 55.959 16.5574 55.6108 16.3553C55.2666 16.1555 54.9069 15.9919 54.5958 15.9919V16.2419ZM56.6822 17.113C56.6557 16.8022 56.6528 16.579 56.6639 16.4977L56.4162 16.464C56.4008 16.5764 56.4068 16.8258 56.4331 17.1343L56.6822 17.113ZM56.6633 16.5014C56.7028 16.2649 56.8558 14.8298 56.8843 13.3875C56.8986 12.6662 56.8819 11.9373 56.8029 11.353C56.7634 11.0611 56.7077 10.8 56.63 10.592C56.554 10.3883 56.4488 10.2138 56.2959 10.125L56.1704 10.3412C56.2468 10.3856 56.3258 10.492 56.3958 10.6795C56.4643 10.8628 56.5168 11.1034 56.5551 11.3865C56.6316 11.9519 56.6486 12.6658 56.6344 13.3826C56.606 14.8165 56.4536 16.2389 56.4167 16.4603L56.6633 16.5014ZM56.2962 10.1252C56.2118 10.0759 56.1111 9.95872 56.0004 9.76464C55.892 9.5748 55.7829 9.32744 55.6746 9.03871C55.4582 8.46159 55.2502 7.73331 55.0601 7.00083C54.87 6.26845 54.6992 5.53739 54.5559 4.95213C54.4845 4.66026 54.4197 4.40416 54.3631 4.20386C54.3081 4.00927 54.2567 3.85182 54.2095 3.76928L53.9924 3.89337C54.0216 3.94438 54.0656 4.07046 54.1225 4.27188C54.1779 4.46758 54.2417 4.71997 54.3131 5.01158C54.4555 5.59327 54.6275 6.32911 54.8181 7.06363C55.0087 7.79805 55.2193 8.53667 55.4406 9.1265C55.5511 9.42124 55.6656 9.68238 55.7832 9.88854C55.8985 10.0905 56.0261 10.2569 56.17 10.341L56.2962 10.1252ZM54.2094 3.76912C54.1478 3.66185 54.0245 3.59603 53.8978 3.55063C53.7651 3.50305 53.5983 3.46762 53.4137 3.43937C53.0441 3.38284 52.5779 3.35168 52.1179 3.31846C51.6541 3.28497 51.1958 3.24938 50.8301 3.18483C50.6472 3.15255 50.493 3.11393 50.3755 3.06715C50.2544 3.01897 50.1908 2.96934 50.1644 2.92714L49.9523 3.05947C50.0215 3.17027 50.1463 3.24503 50.283 3.29944C50.4233 3.35526 50.5964 3.39745 50.7866 3.43103C51.1672 3.4982 51.6387 3.53452 52.0999 3.56781C52.5647 3.60137 53.0186 3.63185 53.3759 3.68649C53.5546 3.71383 53.703 3.74637 53.8135 3.78597C53.9301 3.82776 53.9781 3.86835 53.9925 3.89353L54.2094 3.76912ZM50.1644 2.9271C50.0968 2.81887 49.9822 2.74966 49.8574 2.70294C49.7309 2.65557 49.5785 2.62552 49.4146 2.60574C49.0871 2.56622 48.6885 2.56515 48.3096 2.56469C47.9256 2.56423 47.5636 2.56433 47.2934 2.5302C47.1575 2.51304 47.0563 2.48844 46.9906 2.45708C46.9253 2.42596 46.9194 2.4013 46.9184 2.39139L46.6698 2.41818C46.6842 2.55136 46.7802 2.63375 46.883 2.68274C46.9852 2.73148 47.1181 2.76005 47.262 2.77823C47.5514 2.81477 47.9317 2.81423 48.3093 2.81469C48.6922 2.81515 49.0748 2.81655 49.3847 2.85394C49.5395 2.87263 49.6698 2.89963 49.7697 2.93706C49.8714 2.97512 49.9267 3.01841 49.9524 3.05951L50.1644 2.9271ZM46.6906 2.33472C46.2501 2.98547 45.7607 3.69264 45.5174 3.98468L45.7095 4.14468C45.9626 3.84085 46.4599 3.12149 46.8976 2.47485L46.6906 2.33472ZM45.5175 3.98461C45.4134 4.10933 45.2568 4.18881 45.0579 4.24932C44.8551 4.311 44.6378 4.34561 44.4044 4.39867C44.1798 4.44973 43.9477 4.51692 43.7576 4.64467C43.5617 4.77627 43.4147 4.96905 43.3573 5.25689L43.6024 5.3058C43.6463 5.08584 43.7532 4.94877 43.897 4.8522C44.0465 4.75178 44.2398 4.69247 44.4598 4.64245C44.671 4.59443 44.9174 4.55337 45.1306 4.4885C45.3477 4.42248 45.5595 4.32456 45.7095 4.14475L45.5175 3.98461ZM43.3573 5.25658C43.3116 5.48276 43.179 5.71821 42.9836 5.94738C42.7889 6.17564 42.5375 6.39119 42.2651 6.57734C41.9928 6.76337 41.7025 6.91803 41.4322 7.0258C41.1598 7.13438 40.9163 7.19195 40.7354 7.19195V7.44195C40.9612 7.44195 41.2384 7.37221 41.5248 7.25803C41.8132 7.14304 42.1196 6.97949 42.4061 6.78376C42.6924 6.58814 42.9617 6.35835 43.1738 6.10959C43.3852 5.86173 43.5453 5.58847 43.6024 5.30611L43.3573 5.25658ZM40.7354 7.19195C40.4934 7.19195 40.2747 7.29759 40.0876 7.45815C39.9009 7.61837 39.7395 7.83805 39.6076 8.08149C39.3446 8.56711 39.186 9.17116 39.186 9.65196H39.436C39.436 9.21695 39.5821 8.6535 39.8275 8.20057C39.9498 7.97473 40.0936 7.78237 40.2504 7.64788C40.4067 7.51371 40.5698 7.44195 40.7354 7.44195V7.19195ZM39.186 9.65196C39.186 9.84403 39.0995 10.0661 38.9347 10.2974C38.7711 10.5271 38.537 10.7563 38.2596 10.9599C37.7025 11.369 36.9911 11.6609 36.3639 11.6609V11.9109C37.0597 11.9109 37.8218 11.5915 38.4075 11.1615C38.7015 10.9456 38.9561 10.6982 39.1384 10.4424C39.3195 10.1881 39.436 9.91558 39.436 9.65196H39.186ZM36.3639 11.6609C36.0174 11.6609 35.7627 11.734 35.5783 11.886C35.3946 12.0373 35.2999 12.2515 35.2398 12.4912C35.1804 12.7287 35.1506 13.0124 35.1114 13.3114C35.0717 13.6145 35.0215 13.9437 34.9221 14.2904L35.1624 14.3594C35.2671 13.9943 35.3192 13.6502 35.3593 13.3438C35.3999 13.0333 35.4275 12.7712 35.4824 12.5519C35.5367 12.3348 35.6133 12.1811 35.7373 12.0789C35.8607 11.9772 36.0502 11.9109 36.3639 11.9109V11.6609ZM34.922 14.2907C34.7245 14.9848 34.4875 15.3217 34.0559 15.5036C33.8322 15.5979 33.5486 15.6538 33.176 15.6853C32.8037 15.7167 32.3507 15.7233 31.7912 15.7233V15.9733C32.3505 15.9733 32.813 15.9668 33.197 15.9344C33.5806 15.902 33.8942 15.8431 34.1531 15.734C34.6866 15.509 34.9562 15.0842 35.1625 14.3591L34.922 14.2907ZM31.7912 15.7233C30.6747 15.7233 30.1101 15.6712 29.6112 15.4891C29.1065 15.3049 28.6647 14.9874 27.7897 14.4252L27.6546 14.6355C28.5109 15.1858 28.9868 15.5273 29.5255 15.7239C30.0699 15.9227 30.6742 15.9733 31.7912 15.9733V15.7233ZM27.7901 14.4254C27.3427 14.1357 26.9559 14.0379 26.6231 14.0918C26.2893 14.1459 26.0349 14.3486 25.8447 14.6066C25.4693 15.1162 25.315 15.8798 25.2646 16.341L25.5131 16.3682C25.5625 15.9166 25.7115 15.2089 26.046 14.755C26.2108 14.5313 26.4132 14.3791 26.6631 14.3386C26.9141 14.298 27.2382 14.3659 27.6542 14.6353L27.7901 14.4254ZM25.2646 16.3407C25.2432 16.5313 25.0986 16.7928 24.8544 17.1048C24.6146 17.4111 24.295 17.7464 23.9529 18.0818C23.6111 18.4169 23.2506 18.7486 22.9288 19.0493C22.609 19.3481 22.3247 19.6187 22.1422 19.8268L22.3301 19.9917C22.5029 19.7947 22.7775 19.5328 23.0995 19.232C23.4193 18.9331 23.7833 18.5982 24.128 18.2603C24.4724 17.9225 24.8013 17.5782 25.0512 17.2589C25.2968 16.9453 25.4831 16.6351 25.5131 16.3686L25.2646 16.3407ZM22.1419 19.8271C21.8308 20.1836 21.2815 20.2437 20.6329 20.1935C20.3139 20.1689 19.9855 20.1191 19.6675 20.0746C19.3527 20.0305 19.0461 19.9912 18.7824 19.9912V20.2412C19.0261 20.2412 19.316 20.2778 19.6328 20.3222C19.9465 20.3661 20.2848 20.4174 20.6136 20.4428C21.2605 20.4928 21.9307 20.4494 22.3303 19.9914L22.1419 19.8271ZM18.7824 19.9912C18.5446 19.9912 18.4148 19.9376 18.3416 19.8712C18.2692 19.8055 18.2313 19.7081 18.2199 19.5723C18.2084 19.4349 18.2255 19.2759 18.2478 19.1032C18.2695 18.9362 18.2965 18.7542 18.2965 18.5913H18.0465C18.0465 18.7337 18.0227 18.8949 17.9999 19.0711C17.9778 19.2415 17.9568 19.4256 17.9708 19.5931C17.9849 19.7621 18.0361 19.9315 18.1736 20.0563C18.3104 20.1805 18.5113 20.2412 18.7824 20.2412V19.9912ZM18.2965 18.5913C18.2965 18.4547 18.3252 18.4013 18.3475 18.3762C18.3732 18.3473 18.4112 18.3302 18.4904 18.3037C18.5622 18.2796 18.6653 18.2483 18.7605 18.1762C18.8597 18.1012 18.9426 17.9892 18.9995 17.8158L18.762 17.7377C18.7184 17.8704 18.6623 17.937 18.6097 17.9769C18.553 18.0198 18.4914 18.0397 18.411 18.0666C18.3381 18.0911 18.2365 18.1248 18.1607 18.2101C18.0814 18.2992 18.0465 18.4234 18.0465 18.5913H18.2965ZM18.9992 17.8169C19.0322 17.7194 19.0398 17.5999 19.0334 17.4722C19.0268 17.3426 19.0051 17.1949 18.9728 17.0359C18.9081 16.7178 18.7985 16.3441 18.6708 15.961C18.4153 15.1946 18.083 14.3778 17.8793 13.8717L17.6474 13.965C17.8518 14.4731 18.181 15.2824 18.4336 16.0401C18.56 16.4191 18.666 16.782 18.7278 17.0857C18.7587 17.2376 18.778 17.3721 18.7837 17.4849C18.7895 17.5995 18.7807 17.6826 18.7624 17.7366L18.9992 17.8169ZM17.8798 13.8729C17.7785 13.6134 17.5284 13.395 17.2304 13.2124C16.9281 13.0273 16.5554 12.8665 16.1786 12.7308L16.094 12.9661C16.4631 13.099 16.8181 13.253 17.0998 13.4256C17.3859 13.6008 17.5763 13.783 17.6469 13.9638L17.8798 13.8729ZM16.0113 12.8485C16.0113 12.8597 16.0113 12.871 16.0113 12.8822C16.0113 12.8935 16.0113 12.9047 16.0113 12.916C16.0113 12.9272 16.0113 12.9385 16.0113 12.9498C16.0113 12.961 16.0113 12.9723 16.0113 12.9835C16.0113 12.9948 16.0113 13.0061 16.0113 13.0173C16.0113 13.0286 16.0113 13.0399 16.0113 13.0511C16.0113 13.0624 16.0113 13.0737 16.0113 13.085C16.0113 13.0962 16.0113 13.1075 16.0113 13.1188C16.0113 13.13 16.0113 13.1413 16.0113 13.1526C16.0113 13.1639 16.0113 13.1752 16.0113 13.1864C16.0113 13.1977 16.0113 13.209 16.0113 13.2203C16.0113 13.2316 16.0113 13.2428 16.0113 13.2541C16.0113 13.2654 16.0113 13.2767 16.0113 13.288C16.0113 13.2993 16.0113 13.3106 16.0113 13.3218C16.0113 13.3331 16.0113 13.3444 16.0113 13.3557C16.0113 13.367 16.0113 13.3783 16.0113 13.3896C16.0113 13.4009 16.0113 13.4122 16.0113 13.4235C16.0113 13.4348 16.0113 13.4461 16.0113 13.4574C16.0113 13.4687 16.0113 13.4799 16.0113 13.4912C16.0113 13.5025 16.0113 13.5138 16.0113 13.5251C16.0113 13.5364 16.0113 13.5477 16.0113 13.559C16.0113 13.5703 16.0113 13.5816 16.0113 13.5929C16.0113 13.6042 16.0113 13.6156 16.0113 13.6269C16.0113 13.6382 16.0113 13.6495 16.0113 13.6608C16.0113 13.6721 16.0113 13.6834 16.0113 13.6947C16.0113 13.706 16.0113 13.7173 16.0113 13.7286C16.0113 13.7399 16.0113 13.7512 16.0113 13.7625C16.0113 13.7738 16.0113 13.7851 16.0113 13.7964C16.0113 13.8078 16.0113 13.8191 16.0113 13.8304C16.0113 13.8417 16.0113 13.853 16.0113 13.8643C16.0113 13.8756 16.0113 13.8869 16.0113 13.8982C16.0113 13.9095 16.0113 13.9209 16.0113 13.9322C16.0113 13.9435 16.0113 13.9548 16.0113 13.9661C16.0113 13.9774 16.0113 13.9887 16.0113 14C16.0113 14.0113 16.0113 14.0227 16.0113 14.034C16.0113 14.0453 16.0113 14.0566 16.0113 14.0679C16.0113 14.0792 16.0113 14.0905 16.0113 14.1018C16.0113 14.1131 16.0113 14.1245 16.0113 14.1358C16.0113 14.1471 16.0113 14.1584 16.0113 14.1697C16.0113 14.181 16.0113 14.1923 16.0113 14.2036C16.0113 14.215 16.0113 14.2263 16.0113 14.2376C16.0113 14.2489 16.0113 14.2602 16.0113 14.2715C16.0113 14.2828 16.0113 14.2941 16.0113 14.3054C16.0113 14.3168 16.0113 14.3281 16.0113 14.3394C16.0113 14.3507 16.0113 14.362 16.0113 14.3733C16.0113 14.3846 16.0113 14.3959 16.0113 14.4072C16.0113 14.4185 16.0113 14.4298 16.0113 14.4411C16.0113 14.4525 16.0113 14.4638 16.0113 14.4751C16.0113 14.4864 16.0113 14.4977 16.0113 14.509C16.0113 14.5203 16.0113 14.5316 16.0113 14.5429C16.0113 14.5542 16.0113 14.5655 16.0113 14.5768C16.0113 14.5881 16.0113 14.5994 16.0113 14.6107C16.0113 14.622 16.0113 14.6333 16.0113 14.6446C16.0113 14.6559 16.0113 14.6672 16.0113 14.6785C16.0113 14.6898 16.0113 14.7011 16.0113 14.7124C16.0113 14.7237 16.0113 14.735 16.0113 14.7463C16.0113 14.7576 16.0113 14.7689 16.0113 14.7802C16.0113 14.7915 16.0113 14.8028 16.0113 14.8141C16.0113 14.8254 16.0113 14.8366 16.0113 14.8479C16.0113 14.8592 16.0113 14.8705 16.0113 14.8818C16.0113 14.8931 16.0113 14.9044 16.0113 14.9157C16.0113 14.927 16.0113 14.9382 16.0113 14.9495C16.0113 14.9608 16.0113 14.9721 16.0113 14.9834C16.0113 14.9946 16.0113 15.0059 16.0113 15.0172C16.0113 15.0285 16.0113 15.0398 16.0113 15.051C16.0113 15.0623 16.0113 15.0736 16.0113 15.0849C16.0113 15.0961 16.0113 15.1074 16.0113 15.1187C16.0113 15.13 16.0113 15.1412 16.0113 15.1525C16.0113 15.1638 16.0113 15.175 16.0113 15.1863C16.0113 15.1976 16.0113 15.2088 16.0113 15.2201C16.0113 15.2313 16.0113 15.2426 16.0113 15.2539C16.0113 15.2651 16.0113 15.2764 16.0113 15.2876C16.0113 15.2989 16.0113 15.3102 16.0113 15.3214C16.0113 15.3327 16.0113 15.3439 16.0113 15.3552C16.0113 15.3664 16.0113 15.3777 16.0113 15.3889C16.0113 15.4002 16.0113 15.4114 16.0113 15.4226C16.0113 15.4339 16.0113 15.4451 16.0113 15.4564C16.0113 15.4676 16.0113 15.4788 16.0113 15.4901C16.0113 15.5013 16.0113 15.5125 16.0113 15.5238C16.0113 15.535 16.0113 15.5462 16.0113 15.5575C16.0113 15.5687 16.0113 15.5799 16.0113 15.5911C16.0113 15.6024 16.0113 15.6136 16.0113 15.6248C16.0113 15.636 16.0113 15.6473 16.0113 15.6585C16.0113 15.6697 16.0113 15.6809 16.0113 15.6921C16.0113 15.7033 16.0113 15.7145 16.0113 15.7257C16.0113 15.737 16.0113 15.7482 16.0113 15.7594C16.0113 15.7706 16.0113 15.7818 16.0113 15.793C16.0113 15.8042 16.0113 15.8154 16.0113 15.8266C16.0113 15.8377 16.0113 15.8489 16.0113 15.8601C16.0113 15.8713 16.0113 15.8825 16.0113 15.8937C16.0113 15.9049 16.0113 15.9161 16.0113 15.9272C16.0113 15.9384 16.0113 15.9496 16.0113 15.9608C16.0113 15.9719 16.0113 15.9831 16.0113 15.9943C16.0113 16.0055 16.0113 16.0166 16.0113 16.0278C16.0113 16.039 16.0113 16.0501 16.0113 16.0613C16.0113 16.0724 16.0113 16.0836 16.0113 16.0948C16.0113 16.1059 16.0113 16.1171 16.0113 16.1282C16.0113 16.1394 16.0113 16.1505 16.0113 16.1616C16.0113 16.1728 16.0113 16.1839 16.0113 16.1951C16.0113 16.2062 16.0113 16.2173 16.0113 16.2285C16.0113 16.2396 16.0113 16.2507 16.0113 16.2619C16.0113 16.273 16.0113 16.2841 16.0113 16.2952C16.0113 16.3064 16.0113 16.3175 16.0113 16.3286C16.0113 16.3397 16.0113 16.3508 16.0113 16.3619C16.0113 16.373 16.0113 16.3841 16.0113 16.3953C16.0113 16.4064 16.0113 16.4175 16.0113 16.4286C16.0113 16.4396 16.0113 16.4507 16.0113 16.4618C16.0113 16.4729 16.0113 16.484 16.0113 16.4951C16.0113 16.5062 16.0113 16.5173 16.0113 16.5283C16.0113 16.5394 16.0113 16.5505 16.0113 16.5616C16.0113 16.5726 16.0113 16.5837 16.0113 16.5948C16.0113 16.6058 16.0113 16.6169 16.0113 16.628C16.0113 16.639 16.0113 16.6501 16.0113 16.6611C16.0113 16.6722 16.0113 16.6832 16.0113 16.6943C16.0113 16.7053 16.0113 16.7163 16.0113 16.7274C16.0113 16.7384 16.0113 16.7495 16.0113 16.7605C16.0113 16.7715 16.0113 16.7825 16.0113 16.7936C16.0113 16.8046 16.0113 16.8156 16.0113 16.8266C16.0113 16.8376 16.0113 16.8486 16.0113 16.8597C16.0113 16.8707 16.0113 16.8817 16.0113 16.8927C16.0113 16.9037 16.0113 16.9147 16.0113 16.9257C16.0113 16.9367 16.0113 16.9476 16.0113 16.9586C16.0113 16.9696 16.0113 16.9806 16.0113 16.9916C16.0113 17.0026 16.0113 17.0135 16.0113 17.0245C16.0113 17.0355 16.0113 17.0464 16.0113 17.0574C16.0113 17.0684 16.0113 17.0793 16.0113 17.0903C16.0113 17.1012 16.0113 17.1122 16.0113 17.1231C16.0113 17.1341 16.0113 17.145 16.0113 17.156C16.0113 17.1669 16.0113 17.1778 16.0113 17.1888C16.0113 17.1997 16.0113 17.2106 16.0113 17.2215C16.0113 17.2325 16.0113 17.2434 16.0113 17.2543C16.0113 17.2652 16.0113 17.2761 16.0113 17.287C16.0113 17.2979 16.0113 17.3088 16.0113 17.3197C16.0113 17.3306 16.0113 17.3415 16.0113 17.3524C16.0113 17.3633 16.0113 17.3742 16.0113 17.385C16.0113 17.3959 16.0113 17.4068 16.0113 17.4177C16.0113 17.4285 16.0113 17.4394 16.0113 17.4503C16.0113 17.4611 16.0113 17.472 16.0113 17.4828C16.0113 17.4937 16.0113 17.5045 16.0113 17.5154C16.0113 17.5262 16.0113 17.5371 16.0113 17.5479C16.0113 17.5587 16.0113 17.5696 16.0113 17.5804C16.0113 17.5912 16.0113 17.602 16.0113 17.6128C16.0113 17.6237 16.0113 17.6345 16.0113 17.6453C16.0113 17.6561 16.0113 17.6669 16.0113 17.6777C16.0113 17.6885 16.0113 17.6993 16.0113 17.71C16.0113 17.7208 16.0113 17.7316 16.0113 17.7424C16.0113 17.7532 16.0113 17.7639 16.0113 17.7747C16.0113 17.7855 16.0113 17.7962 16.0113 17.807C16.0113 17.8177 16.0113 17.8285 16.0113 17.8392C16.0113 17.85 16.0113 17.8607 16.0113 17.8715C16.0113 17.8822 16.0113 17.8929 16.0113 17.9037C16.0113 17.9144 16.0113 17.9251 16.0113 17.9358C16.0113 17.9465 16.0113 17.9573 16.0113 17.968C16.0113 17.9787 16.0113 17.9894 16.0113 18.0001C16.0113 18.0108 16.0113 18.0214 16.0113 18.0321C16.0113 18.0428 16.0113 18.0535 16.0113 18.0642C16.0113 18.0748 16.0113 18.0855 16.0113 18.0962C16.0113 18.1068 16.0113 18.1175 16.0113 18.1281C16.0113 18.1388 16.0113 18.1494 16.0113 18.1601C16.0113 18.1707 16.0113 18.1814 16.0113 18.192C16.0113 18.2026 16.0113 18.2132 16.0113 18.2239C16.0113 18.2345 16.0113 18.2451 16.0113 18.2557C16.0113 18.2663 16.0113 18.2769 16.0113 18.2875C16.0113 18.2981 16.0113 18.3087 16.0113 18.3193C16.0113 18.3299 16.0113 18.3404 16.0113 18.351C16.0113 18.3616 16.0113 18.3722 16.0113 18.3827C16.0113 18.3933 16.0113 18.4038 16.0113 18.4144C16.0113 18.4249 16.0113 18.4355 16.0113 18.446C16.0113 18.4566 16.0113 18.4671 16.0113 18.4776C16.0113 18.4881 16.0113 18.4987 16.0113 18.5092C16.0113 18.5197 16.0113 18.5302 16.0113 18.5407C16.0113 18.5512 16.0113 18.5617 16.0113 18.5722C16.0113 18.5827 16.0113 18.5932 16.0113 18.6037C16.0113 18.6141 16.0113 18.6246 16.0113 18.6351C16.0113 18.6455 16.0113 18.656 16.0113 18.6665C16.0113 18.6769 16.0113 18.6874 16.0113 18.6978C16.0113 18.7082 16.0113 18.7187 16.0113 18.7291C16.0113 18.7395 16.0113 18.75 16.0113 18.7604C16.0113 18.7708 16.0113 18.7812 16.0113 18.7916C16.0113 18.802 16.0113 18.8124 16.0113 18.8228C16.0113 18.8332 16.0113 18.8436 16.0113 18.8539C16.0113 18.8643 16.0113 18.8747 16.0113 18.8851C16.0113 18.8954 16.0113 18.9058 16.0113 18.9161C16.0113 18.9265 16.0113 18.9368 16.0113 18.9472C16.0113 18.9575 16.0113 18.9678 16.0113 18.9782C16.0113 18.9885 16.0113 18.9988 16.0113 19.0091C16.0113 19.0194 16.0113 19.0297 16.0113 19.04C16.0113 19.0503 16.0113 19.0606 16.0113 19.0709C16.0113 19.0812 16.0113 19.0915 16.0113 19.1017C16.0113 19.112 16.0113 19.1223 16.0113 19.1325C16.0113 19.1428 16.0113 19.153 16.0113 19.1633C16.0113 19.1735 16.0113 19.1838 16.0113 19.194C16.0113 19.2042 16.0113 19.2144 16.0113 19.2247C16.0113 19.2349 16.0113 19.2451 16.0113 19.2553C16.0113 19.2655 16.0113 19.2757 16.0113 19.2859C16.0113 19.2961 16.0113 19.3062 16.0113 19.3164C16.0113 19.3266 16.0113 19.3368 16.0113 19.3469C16.0113 19.3571 16.0113 19.3672 16.0113 19.3774C16.0113 19.3875 16.0113 19.3976 16.0113 19.4078C16.0113 19.4179 16.0113 19.428 16.0113 19.4381C16.0113 19.4483 16.0113 19.4584 16.0113 19.4685C16.0113 19.4786 16.0113 19.4887 16.0113 19.4988C16.0113 19.5088 16.0113 19.5189 16.0113 19.529C16.0113 19.5391 16.0113 19.5491 16.0113 19.5592C16.0113 19.5692 16.0113 19.5793 16.0113 19.5893C16.0113 19.5994 16.0113 19.6094 16.0113 19.6194C16.0113 19.6294 16.0113 19.6395 16.0113 19.6495C16.0113 19.6595 16.0113 19.6695 16.0113 19.6795C16.0113 19.6895 16.0113 19.6995 16.0113 19.7094C16.0113 19.7194 16.0113 19.7294 16.0113 19.7394C16.0113 19.7493 16.0113 19.7593 16.0113 19.7692C16.0113 19.7792 16.0113 19.7891 16.0113 19.799C16.0113 19.809 16.0113 19.8189 16.0113 19.8288C16.0113 19.8387 16.0113 19.8486 16.0113 19.8586C16.0113 19.8685 16.0113 19.8783 16.0113 19.8882C16.0113 19.8981 16.0113 19.908 16.0113 19.9179C16.0113 19.9277 16.0113 19.9376 16.0113 19.9474C16.0113 19.9573 16.0113 19.9671 16.0113 19.977C16.0113 19.9868 16.0113 19.9966 16.0113 20.0065C16.0113 20.0163 16.0113 20.0261 16.0113 20.0359C16.0113 20.0457 16.0113 20.0555 16.0113 20.0653C16.0113 20.0751 16.0113 20.0849 16.0113 20.0946C16.0113 20.1044 16.0113 20.1142 16.0113 20.1239C16.0113 20.1337 16.0113 20.1434 16.0113 20.1531C16.0113 20.1629 16.0113 20.1726 16.0113 20.1823C16.0113 20.1921 16.0113 20.2018 16.0113 20.2115C16.0113 20.2212 16.0113 20.2309 16.0113 20.2406C16.0113 20.2502 16.0113 20.2599 16.0113 20.2696C16.0113 20.2793 16.0113 20.2889 16.0113 20.2986C16.0113 20.3082 16.0113 20.3179 16.0113 20.3275C16.0113 20.3371 16.0113 20.3468 16.0113 20.3564C16.0113 20.366 16.0113 20.3756 16.0113 20.3852C16.0113 20.3948 16.0113 20.4044 16.0113 20.414C16.0113 20.4236 16.0113 20.4331 16.0113 20.4427C16.0113 20.4523 16.0113 20.4618 16.0113 20.4714C16.0113 20.4809 16.0113 20.4904 16.0113 20.5C16.0113 20.5095 16.0113 20.519 16.0113 20.5285C16.0113 20.538 16.0113 20.5475 16.0113 20.557C16.0113 20.5665 16.0113 20.576 16.0113 20.5855C16.0113 20.595 16.0113 20.6044 16.0113 20.6139C16.0113 20.6233 16.0113 20.6328 16.0113 20.6422C16.0113 20.6517 16.0113 20.6611 16.0113 20.6705C16.0113 20.6799 16.0113 20.6893 16.0113 20.6987C16.0113 20.7081 16.0113 20.7175 16.0113 20.7269C16.0113 20.7363 16.0113 20.7457 16.0113 20.755C16.0113 20.7644 16.0113 20.7738 16.0113 20.7831C16.0113 20.7925 16.0113 20.8018 16.0113 20.8111C16.0113 20.8204 16.0113 20.8298 16.0113 20.8391C16.0113 20.8484 16.0113 20.8577 16.0113 20.867C16.0113 20.8762 16.0113 20.8855 16.0113 20.8948C16.0113 20.9041 16.0113 20.9133 16.0113 20.9226C16.0113 20.9318 16.0113 20.9411 16.0113 20.9503C16.0113 20.9595 16.0113 20.9687 16.0113 20.978C16.0113 20.9872 16.0113 20.9964 16.0113 21.0056C16.0113 21.0148 16.0113 21.0239 16.0113 21.0331C16.0113 21.0423 16.0113 21.0514 16.0113 21.0606C16.0113 21.0697 16.0113 21.0789 16.0113 21.088C16.0113 21.0972 16.0113 21.1063 16.0113 21.1154C16.0113 21.1245 16.0113 21.1336 16.0113 21.1427C16.0113 21.1518 16.0113 21.1609 16.0113 21.17C16.0113 21.179 16.0113 21.1881 16.0113 21.1971C16.0113 21.2062 16.0113 21.2152 16.0113 21.2243C16.0113 21.2333 16.0113 21.2423 16.0113 21.2513C16.0113 21.2604 16.0113 21.2694 16.0113 21.2783C16.0113 21.2873 16.0113 21.2963 16.0113 21.3053C16.0113 21.3143 16.0113 21.3232 16.0113 21.3322C16.0113 21.3411 16.0113 21.3501 16.0113 21.359C16.0113 21.3679 16.0113 21.3768 16.0113 21.3858C16.0113 21.3947 16.0113 21.4036 16.0113 21.4125C16.0113 21.4213 16.0113 21.4302 16.0113 21.4391C16.0113 21.448 16.0113 21.4568 16.0113 21.4657C16.0113 21.4745 16.0113 21.4833 16.0113 21.4922C16.0113 21.501 16.0113 21.5098 16.0113 21.5186C16.0113 21.5274 16.0113 21.5362 16.0113 21.545C16.0113 21.5538 16.0113 21.5626 16.0113 21.5713C16.0113 21.5801 16.0113 21.5888 16.0113 21.5976C16.0113 21.6063 16.0113 21.615 16.0113 21.6238C16.0113 21.6325 16.0113 21.6412 16.0113 21.6499C16.0113 21.6586 16.0113 21.6673 16.0113 21.6759C16.0113 21.6846 16.0113 21.6933 16.0113 21.7019C16.0113 21.7106 16.0113 21.7192 16.0113 21.7279C16.0113 21.7365 16.0113 21.7451 16.0113 21.7537C16.0113 21.7623 16.0113 21.7709 16.0113 21.7795C16.0113 21.7881 16.0113 21.7967 16.0113 21.8053C16.0113 21.8138 16.0113 21.8224 16.0113 21.8309C16.0113 21.8395 16.0113 21.848 16.0113 21.8565C16.0113 21.865 16.0113 21.8735 16.0113 21.882C16.0113 21.8905 16.0113 21.899 16.0113 21.9075C16.0113 21.916 16.0113 21.9244 16.0113 21.9329C16.0113 21.9414 16.0113 21.9498 16.0113 21.9582C16.0113 21.9667 16.0113 21.9751 16.0113 21.9835C16.0113 21.9919 16.0113 22.0003 16.0113 22.0087C16.0113 22.0171 16.0113 22.0254 16.0113 22.0338C16.0113 22.0422 16.0113 22.0505 16.0113 22.0588C16.0113 22.0672 16.0113 22.0755 16.0113 22.0838C16.0113 22.0921 16.0113 22.1004 16.0113 22.1087C16.0113 22.117 16.0113 22.1253 16.0113 22.1336C16.0113 22.1418 16.0113 22.1501 16.0113 22.1584C16.0113 22.1666 16.0113 22.1748 16.0113 22.1831C16.0113 22.1913 16.0113 22.1995 16.0113 22.2077C16.0113 22.2159 16.0113 22.2241 16.0113 22.2322C16.0113 22.2404 16.0113 22.2486 16.0113 22.2567C16.0113 22.2649 16.0113 22.273 16.0113 22.2812C16.0113 22.2893 16.0113 22.2974 16.0113 22.3055C16.0113 22.3136 16.0113 22.3217 16.0113 22.3298C16.0113 22.3378 16.0113 22.3459 16.0113 22.354C16.0113 22.362 16.0113 22.3701 16.0113 22.3781C16.0113 22.3861 16.0113 22.3941 16.0113 22.4022C16.0113 22.4102 16.0113 22.4182 16.0113 22.4261C16.0113 22.4341 16.0113 22.4421 16.0113 22.45C16.0113 22.458 16.0113 22.4659 16.0113 22.4739C16.0113 22.4818 16.0113 22.4897 16.0113 22.4976C16.0113 22.5056 16.0113 22.5134 16.0113 22.5213C16.0113 22.5292 16.0113 22.5371 16.0113 22.5449C16.0113 22.5528 16.0113 22.5606 16.0113 22.5685C16.0113 22.5763 16.0113 22.5841 16.0113 22.5919C16.0113 22.5998 16.0113 22.6075 16.0113 22.6153C16.0113 22.6231 16.0113 22.6309 16.0113 22.6386C16.0113 22.6464 16.0113 22.6541 16.0113 22.6619C16.0113 22.6696 16.0113 22.6773 16.0113 22.685C16.0113 22.6927 16.0113 22.7004 16.0113 22.7081C16.0113 22.7158 16.0113 22.7235 16.0113 22.7311C16.0113 22.7388 16.0113 22.7464 16.0113 22.7541C16.0113 22.7617 16.0113 22.7693 16.0113 22.7769C16.0113 22.7845 16.0113 22.7921 16.0113 22.7997C16.0113 22.8073 16.0113 22.8148 16.0113 22.8224C16.0113 22.8299 16.0113 22.8375 16.0113 22.845C16.0113 22.8525 16.0113 22.86 16.0113 22.8675C16.0113 22.875 16.0113 22.8825 16.0113 22.89C16.0113 22.8975 16.0113 22.9049 16.0113 22.9124C16.0113 22.9198 16.0113 22.9273 16.0113 22.9347C16.0113 22.9421 16.0113 22.9495 16.0113 22.9569C16.0113 22.9643 16.0113 22.9717 16.0113 22.9791C16.0113 22.9864 16.0113 22.9938 16.0113 23.0011C16.0113 23.0085 16.0113 23.0158 16.0113 23.0231C16.0113 23.0304 16.0113 23.0377 16.0113 23.045C16.0113 23.0523 16.0113 23.0596 16.0113 23.0668C16.0113 23.0741 16.0113 23.0814 16.0113 23.0886C16.0113 23.0958 16.0113 23.103 16.0113 23.1103C16.0113 23.1175 16.0113 23.1247 16.0113 23.1318C16.0113 23.139 16.0113 23.1462 16.0113 23.1533C16.0113 23.1605 16.0113 23.1676 16.0113 23.1747C16.0113 23.1819 16.0113 23.189 16.0113 23.1961C16.0113 23.2032 16.0113 23.2103 16.0113 23.2173C16.0113 23.2244 16.0113 23.2315 16.0113 23.2385C16.0113 23.2455 16.0113 23.2526 16.0113 23.2596C16.0113 23.2666 16.0113 23.2736 16.0113 23.2806C16.0113 23.2876 16.0113 23.2946 16.0113 23.3015C16.0113 23.3085 16.0113 23.3154 16.0113 23.3223C16.0113 23.3293 16.0113 23.3362 16.0113 23.3431C16.0113 23.35 16.0113 23.3569 16.0113 23.3638C16.0113 23.3706 16.0113 23.3775 16.0113 23.3843C16.0113 23.3912 16.0113 23.398 16.0113 23.4048C16.0113 23.4117 16.0113 23.4185 16.0113 23.4253C16.0113 23.432 16.0113 23.4388 16.0113 23.4456C16.0113 23.4523 16.0113 23.4591 16.0113 23.4658C16.0113 23.4726 16.0113 23.4793 16.0113 23.486C16.0113 23.4927 16.0113 23.4994 16.0113 23.506C16.0113 23.5127 16.0113 23.5194 16.0113 23.526C16.0113 23.5327 16.0113 23.5393 16.0113 23.5459C16.0113 23.5525 16.0113 23.5591 16.0113 23.5657C16.0113 23.5723 16.0113 23.5789 16.0113 23.5854C16.0113 23.592 16.0113 23.5985 16.0113 23.6051C16.0113 23.6116 16.0113 23.6181 16.0113 23.6246C16.0113 23.6311 16.0113 23.6376 16.0113 23.6441C16.0113 23.6505 16.0113 23.657 16.0113 23.6634C16.0113 23.6699 16.0113 23.6763 16.0113 23.6827C16.0113 23.6891 16.0113 23.6955 16.0113 23.7019C16.0113 23.7083 16.0113 23.7147 16.0113 23.721C16.0113 23.7274 16.0113 23.7337 16.0113 23.74C16.0113 23.7463 16.0113 23.7526 16.0113 23.7589C16.0113 23.7652 16.0113 23.7715 16.0113 23.7778C16.0113 23.784 16.0113 23.7903 16.0113 23.7965C16.0113 23.8027 16.0113 23.809 16.0113 23.8152C16.0113 23.8214 16.0113 23.8275 16.0113 23.8337C16.0113 23.8399 16.0113 23.846 16.0113 23.8522C16.0113 23.8583 16.0113 23.8644 16.0113 23.8706C16.0113 23.8767 16.0113 23.8828 16.0113 23.8888C16.0113 23.8949 16.0113 23.901 16.0113 23.907C16.0113 23.9131 16.0113 23.9191 16.0113 23.9251C16.0113 23.9311 16.0113 23.9371 16.0113 23.9431C16.0113 23.9491 16.0113 23.9551 16.0113 23.961C16.0113 23.967 16.0113 23.9729 16.0113 23.9789C16.0113 23.9848 16.0113 23.9907 16.0113 23.9966C16.0113 24.0025 16.0113 24.0084 16.0113 24.0142C16.0113 24.0201 16.0113 24.0259 16.0113 24.0318C16.0113 24.0376 16.0113 24.0434 16.0113 24.0492C16.0113 24.055 16.0113 24.0608 16.0113 24.0666C16.0113 24.0723 16.0113 24.0781 16.0113 24.0838C16.0113 24.0896 16.0113 24.0953 16.0113 24.101C16.0113 24.1067 16.0113 24.1124 16.0113 24.118C16.0113 24.1237 16.0113 24.1294 16.0113 24.135C16.0113 24.1407 16.0113 24.1463 16.0113 24.1519C16.0113 24.1575 16.0113 24.1631 16.0113 24.1687C16.0113 24.1742 16.0113 24.1798 16.0113 24.1854C16.0113 24.1909 16.0113 24.1964 16.0113 24.2019C16.0113 24.2075 16.0113 24.2129 16.0113 24.2184C16.0113 24.2239 16.0113 24.2294 16.0113 24.2348C16.0113 24.2403 16.0113 24.2457 16.0113 24.2511C16.0113 24.2565 16.0113 24.2619 16.0113 24.2673C16.0113 24.2727 16.0113 24.2781 16.0113 24.2834C16.0113 24.2888 16.0113 24.2941 16.0113 24.2994C16.0113 24.3047 16.0113 24.31 16.0113 24.3153C16.0113 24.3206 16.0113 24.3259 16.0113 24.3311C16.0113 24.3364 16.0113 24.3416 16.0113 24.3468C16.0113 24.352 16.0113 24.3572 16.0113 24.3624C16.0113 24.3676 16.0113 24.3728 16.0113 24.3779C16.0113 24.3831 16.0113 24.3882 16.0113 24.3933C16.0113 24.3984 16.0113 24.4036 16.0113 24.4086C16.0113 24.4137 16.0113 24.4188 16.0113 24.4238C16.0113 24.4289 16.0113 24.4339 16.0113 24.4389C16.0113 24.444 16.0113 24.449 16.0113 24.4539C16.0113 24.4589 16.0113 24.4639 16.0113 24.4688C16.0113 24.4738 16.0113 24.4787 16.0113 24.4837C16.0113 24.4886 16.0113 24.4935 16.0113 24.4983C16.0113 24.5032 16.0113 24.5081 16.0113 24.5129C16.0113 24.5178 16.0113 24.5226 16.0113 24.5274C16.0113 24.5323 16.0113 24.5371 16.0113 24.5418C16.0113 24.5466 16.0113 24.5514 16.0113 24.5561C16.0113 24.5609 16.0113 24.5656 16.0113 24.5703C16.0113 24.575 16.0113 24.5797 16.0113 24.5844C16.0113 24.5891 16.0113 24.5937 16.0113 24.5984C16.0113 24.603 16.0113 24.6076 16.0113 24.6122C16.0113 24.6168 16.0113 24.6214 16.0113 24.626C16.0113 24.6306 16.0113 24.6351 16.0113 24.6397C16.0113 24.6442 16.0113 24.6487 16.0113 24.6532C16.0113 24.6577 16.0113 24.6622 16.0113 24.6667C16.0113 24.6712 16.0113 24.6756 16.0113 24.68C16.0113 24.6845 16.0113 24.6889 16.0113 24.6933C16.0113 24.6977 16.0113 24.7021 16.0113 24.7064C16.0113 24.7108 16.0113 24.7151 16.0113 24.7195C16.0113 24.7238 16.0113 24.7281 16.0113 24.7324C16.0113 24.7367 16.0113 24.741 16.0113 24.7452C16.0113 24.7495 16.0113 24.7537 16.0113 24.7579C16.0113 24.7621 16.0113 24.7664 16.0113 24.7705C16.0113 24.7747 16.0113 24.7789 16.0113 24.783C16.0113 24.7872 16.0113 24.7913 16.0113 24.7954C16.0113 24.7995 16.0113 24.8036 16.0113 24.8077C16.0113 24.8118 16.0113 24.8158 16.0113 24.8199C16.0113 24.8239 16.0113 24.8279 16.0113 24.832C16.0113 24.836 16.0113 24.8399 16.0113 24.8439C16.0113 24.8479 16.0113 24.8518 16.0113 24.8558C16.0113 24.8597 16.0113 24.8636 16.0113 24.8675C16.0113 24.8714 16.0113 24.8753 16.0113 24.8791C16.0113 24.883 16.0113 24.8868 16.0113 24.8907C16.0113 24.8945 16.0113 24.8983 16.0113 24.9021C16.0113 24.9058 16.0113 24.9096 16.0113 24.9134C16.0113 24.9171 16.0113 24.9208 16.0113 24.9246C16.0113 24.9283 16.0113 24.932 16.0113 24.9356C16.0113 24.9393 16.0113 24.943 16.0113 24.9466C16.0113 24.9502 16.0113 24.9539 16.0113 24.9575C16.0113 24.9611 16.0113 24.9646 16.0113 24.9682C16.0113 24.9718 16.0113 24.9753 16.0113 24.9788C16.0113 24.9824 16.0113 24.9859 16.0113 24.9894C16.0113 24.9928 16.0113 24.9963 16.0113 24.9998C16.0113 25.0032 16.0113 25.0066 16.0113 25.0101C16.0113 25.0135 16.0113 25.0169 16.0113 25.0202C16.0113 25.0236 16.0113 25.027 16.0113 25.0303C16.0113 25.0336 16.0113 25.037 16.0113 25.0403C16.0113 25.0436 16.0113 25.0468 16.0113 25.0501C16.0113 25.0534 16.0113 25.0566 16.0113 25.0598C16.0113 25.063 16.0113 25.0663 16.0113 25.0694C16.0113 25.0726 16.0113 25.0758 16.0113 25.0789C16.0113 25.0821 16.0113 25.0852 16.0113 25.0883C16.0113 25.0914 16.0113 25.0945 16.0113 25.0976C16.0113 25.1007 16.0113 25.1037 16.0113 25.1067C16.0113 25.1098 16.0113 25.1128 16.0113 25.1158C16.0113 25.1188 16.0113 25.1217 16.0113 25.1247C16.0113 25.1276 16.0113 25.1306 16.0113 25.1335C16.0113 25.1364 16.0113 25.1393 16.0113 25.1422C16.0113 25.1451 16.0113 25.1479 16.0113 25.1508C16.0113 25.1536 16.0113 25.1564 16.0113 25.1592C16.0113 25.162 16.0113 25.1648 16.0113 25.1675C16.0113 25.1703 16.0113 25.173 16.0113 25.1758C16.0113 25.1785 16.0113 25.1812 16.0113 25.1839C16.0113 25.1865 16.0113 25.1892 16.0113 25.1918C16.0113 25.1945 16.0113 25.1971 16.0113 25.1997C16.0113 25.2023 16.0113 25.2049 16.0113 25.2074C16.0113 25.21 16.0113 25.2126 16.0113 25.2151C16.0113 25.2176 16.0113 25.2201 16.0113 25.2226C16.0113 25.2251 16.0113 25.2275 16.0113 25.23C16.0113 25.2324 16.0113 25.2348 16.0113 25.2372C16.0113 25.2396 16.0113 25.242 16.0113 25.2444C16.0113 25.2467 16.0113 25.2491 16.0113 25.2514C16.0113 25.2537 16.0113 25.256 16.0113 25.2583C16.0113 25.2606 16.0113 25.2629 16.0113 25.2651C16.0113 25.2673 16.0113 25.2696 16.0113 25.2718C16.0113 25.274 16.0113 25.2761 16.0113 25.2783C16.0113 25.2805 16.0113 25.2826 16.0113 25.2847C16.0113 25.2868 16.0113 25.2889 16.0113 25.291C16.0113 25.2931 16.0113 25.2952 16.0113 25.2972C16.0113 25.2992 16.0113 25.3013 16.0113 25.3033C16.0113 25.3053 16.0113 25.3072 16.0113 25.3092C16.0113 25.3111 16.0113 25.3131 16.0113 25.315C16.0113 25.3169 16.0113 25.3188 16.0113 25.3207C16.0113 25.3225 16.0113 25.3244 16.0113 25.3262C16.0113 25.3281 16.0113 25.3299 16.0113 25.3317C16.0113 25.3335 16.0113 25.3352 16.0113 25.337C16.0113 25.3387 16.0113 25.3405 16.0113 25.3422C16.0113 25.3439 16.0113 25.3456 16.0113 25.3472C16.0113 25.3489 16.0113 25.3506 16.0113 25.3522C16.0113 25.3538 16.0113 25.3554 16.0113 25.357C16.0113 25.3586 16.0113 25.3601 16.0113 25.3617C16.0113 25.3632 16.0113 25.3647 16.0113 25.3662C16.0113 25.3677 16.0113 25.3692 16.0113 25.3707C16.0113 25.3721 16.0113 25.3736 16.0113 25.375C16.0113 25.3764 16.0113 25.3778 16.0113 25.3792C16.0113 25.3805 16.0113 25.3819 16.0113 25.3832C16.0113 25.3846 16.0113 25.3859 16.0113 25.3872C16.0113 25.3884 16.0113 25.3897 16.0113 25.391C16.0113 25.3922 16.0113 25.3934 16.0113 25.3946C16.0113 25.3958 16.0113 25.397 16.0113 25.3982H16.2613C16.2613 25.397 16.2613 25.3958 16.2613 25.3946C16.2613 25.3934 16.2613 25.3922 16.2613 25.391C16.2613 25.3897 16.2613 25.3884 16.2613 25.3872C16.2613 25.3859 16.2613 25.3846 16.2613 25.3832C16.2613 25.3819 16.2613 25.3805 16.2613 25.3792C16.2613 25.3778 16.2613 25.3764 16.2613 25.375C16.2613 25.3736 16.2613 25.3721 16.2613 25.3707C16.2613 25.3692 16.2613 25.3677 16.2613 25.3662C16.2613 25.3647 16.2613 25.3632 16.2613 25.3617C16.2613 25.3601 16.2613 25.3586 16.2613 25.357C16.2613 25.3554 16.2613 25.3538 16.2613 25.3522C16.2613 25.3506 16.2613 25.3489 16.2613 25.3472C16.2613 25.3456 16.2613 25.3439 16.2613 25.3422C16.2613 25.3405 16.2613 25.3387 16.2613 25.337C16.2613 25.3352 16.2613 25.3335 16.2613 25.3317C16.2613 25.3299 16.2613 25.3281 16.2613 25.3262C16.2613 25.3244 16.2613 25.3225 16.2613 25.3207C16.2613 25.3188 16.2613 25.3169 16.2613 25.315C16.2613 25.3131 16.2613 25.3111 16.2613 25.3092C16.2613 25.3072 16.2613 25.3053 16.2613 25.3033C16.2613 25.3013 16.2613 25.2992 16.2613 25.2972C16.2613 25.2952 16.2613 25.2931 16.2613 25.291C16.2613 25.2889 16.2613 25.2868 16.2613 25.2847C16.2613 25.2826 16.2613 25.2805 16.2613 25.2783C16.2613 25.2761 16.2613 25.274 16.2613 25.2718C16.2613 25.2696 16.2613 25.2673 16.2613 25.2651C16.2613 25.2629 16.2613 25.2606 16.2613 25.2583C16.2613 25.256 16.2613 25.2537 16.2613 25.2514C16.2613 25.2491 16.2613 25.2467 16.2613 25.2444C16.2613 25.242 16.2613 25.2396 16.2613 25.2372C16.2613 25.2348 16.2613 25.2324 16.2613 25.23C16.2613 25.2275 16.2613 25.2251 16.2613 25.2226C16.2613 25.2201 16.2613 25.2176 16.2613 25.2151C16.2613 25.2126 16.2613 25.21 16.2613 25.2074C16.2613 25.2049 16.2613 25.2023 16.2613 25.1997C16.2613 25.1971 16.2613 25.1945 16.2613 25.1918C16.2613 25.1892 16.2613 25.1865 16.2613 25.1839C16.2613 25.1812 16.2613 25.1785 16.2613 25.1758C16.2613 25.173 16.2613 25.1703 16.2613 25.1675C16.2613 25.1648 16.2613 25.162 16.2613 25.1592C16.2613 25.1564 16.2613 25.1536 16.2613 25.1508C16.2613 25.1479 16.2613 25.1451 16.2613 25.1422C16.2613 25.1393 16.2613 25.1364 16.2613 25.1335C16.2613 25.1306 16.2613 25.1276 16.2613 25.1247C16.2613 25.1217 16.2613 25.1188 16.2613 25.1158C16.2613 25.1128 16.2613 25.1098 16.2613 25.1067C16.2613 25.1037 16.2613 25.1007 16.2613 25.0976C16.2613 25.0945 16.2613 25.0914 16.2613 25.0883C16.2613 25.0852 16.2613 25.0821 16.2613 25.0789C16.2613 25.0758 16.2613 25.0726 16.2613 25.0694C16.2613 25.0663 16.2613 25.063 16.2613 25.0598C16.2613 25.0566 16.2613 25.0534 16.2613 25.0501C16.2613 25.0468 16.2613 25.0436 16.2613 25.0403C16.2613 25.037 16.2613 25.0336 16.2613 25.0303C16.2613 25.027 16.2613 25.0236 16.2613 25.0202C16.2613 25.0169 16.2613 25.0135 16.2613 25.0101C16.2613 25.0066 16.2613 25.0032 16.2613 24.9998C16.2613 24.9963 16.2613 24.9928 16.2613 24.9894C16.2613 24.9859 16.2613 24.9824 16.2613 24.9788C16.2613 24.9753 16.2613 24.9718 16.2613 24.9682C16.2613 24.9646 16.2613 24.9611 16.2613 24.9575C16.2613 24.9539 16.2613 24.9502 16.2613 24.9466C16.2613 24.943 16.2613 24.9393 16.2613 24.9356C16.2613 24.932 16.2613 24.9283 16.2613 24.9246C16.2613 24.9208 16.2613 24.9171 16.2613 24.9134C16.2613 24.9096 16.2613 24.9058 16.2613 24.9021C16.2613 24.8983 16.2613 24.8945 16.2613 24.8907C16.2613 24.8868 16.2613 24.883 16.2613 24.8791C16.2613 24.8753 16.2613 24.8714 16.2613 24.8675C16.2613 24.8636 16.2613 24.8597 16.2613 24.8558C16.2613 24.8518 16.2613 24.8479 16.2613 24.8439C16.2613 24.8399 16.2613 24.836 16.2613 24.832C16.2613 24.8279 16.2613 24.8239 16.2613 24.8199C16.2613 24.8158 16.2613 24.8118 16.2613 24.8077C16.2613 24.8036 16.2613 24.7995 16.2613 24.7954C16.2613 24.7913 16.2613 24.7872 16.2613 24.783C16.2613 24.7789 16.2613 24.7747 16.2613 24.7705C16.2613 24.7664 16.2613 24.7621 16.2613 24.7579C16.2613 24.7537 16.2613 24.7495 16.2613 24.7452C16.2613 24.741 16.2613 24.7367 16.2613 24.7324C16.2613 24.7281 16.2613 24.7238 16.2613 24.7195C16.2613 24.7151 16.2613 24.7108 16.2613 24.7064C16.2613 24.7021 16.2613 24.6977 16.2613 24.6933C16.2613 24.6889 16.2613 24.6845 16.2613 24.68C16.2613 24.6756 16.2613 24.6712 16.2613 24.6667C16.2613 24.6622 16.2613 24.6577 16.2613 24.6532C16.2613 24.6487 16.2613 24.6442 16.2613 24.6397C16.2613 24.6351 16.2613 24.6306 16.2613 24.626C16.2613 24.6214 16.2613 24.6168 16.2613 24.6122C16.2613 24.6076 16.2613 24.603 16.2613 24.5984C16.2613 24.5937 16.2613 24.5891 16.2613 24.5844C16.2613 24.5797 16.2613 24.575 16.2613 24.5703C16.2613 24.5656 16.2613 24.5609 16.2613 24.5561C16.2613 24.5514 16.2613 24.5466 16.2613 24.5418C16.2613 24.5371 16.2613 24.5323 16.2613 24.5274C16.2613 24.5226 16.2613 24.5178 16.2613 24.5129C16.2613 24.5081 16.2613 24.5032 16.2613 24.4983C16.2613 24.4935 16.2613 24.4886 16.2613 24.4837C16.2613 24.4787 16.2613 24.4738 16.2613 24.4688C16.2613 24.4639 16.2613 24.4589 16.2613 24.4539C16.2613 24.449 16.2613 24.444 16.2613 24.4389C16.2613 24.4339 16.2613 24.4289 16.2613 24.4238C16.2613 24.4188 16.2613 24.4137 16.2613 24.4086C16.2613 24.4036 16.2613 24.3984 16.2613 24.3933C16.2613 24.3882 16.2613 24.3831 16.2613 24.3779C16.2613 24.3728 16.2613 24.3676 16.2613 24.3624C16.2613 24.3572 16.2613 24.352 16.2613 24.3468C16.2613 24.3416 16.2613 24.3364 16.2613 24.3311C16.2613 24.3259 16.2613 24.3206 16.2613 24.3153C16.2613 24.31 16.2613 24.3047 16.2613 24.2994C16.2613 24.2941 16.2613 24.2888 16.2613 24.2834C16.2613 24.2781 16.2613 24.2727 16.2613 24.2673C16.2613 24.2619 16.2613 24.2565 16.2613 24.2511C16.2613 24.2457 16.2613 24.2403 16.2613 24.2348C16.2613 24.2294 16.2613 24.2239 16.2613 24.2184C16.2613 24.2129 16.2613 24.2075 16.2613 24.2019C16.2613 24.1964 16.2613 24.1909 16.2613 24.1854C16.2613 24.1798 16.2613 24.1742 16.2613 24.1687C16.2613 24.1631 16.2613 24.1575 16.2613 24.1519C16.2613 24.1463 16.2613 24.1407 16.2613 24.135C16.2613 24.1294 16.2613 24.1237 16.2613 24.118C16.2613 24.1124 16.2613 24.1067 16.2613 24.101C16.2613 24.0953 16.2613 24.0896 16.2613 24.0838C16.2613 24.0781 16.2613 24.0723 16.2613 24.0666C16.2613 24.0608 16.2613 24.055 16.2613 24.0492C16.2613 24.0434 16.2613 24.0376 16.2613 24.0318C16.2613 24.0259 16.2613 24.0201 16.2613 24.0142C16.2613 24.0084 16.2613 24.0025 16.2613 23.9966C16.2613 23.9907 16.2613 23.9848 16.2613 23.9789C16.2613 23.9729 16.2613 23.967 16.2613 23.961C16.2613 23.9551 16.2613 23.9491 16.2613 23.9431C16.2613 23.9371 16.2613 23.9311 16.2613 23.9251C16.2613 23.9191 16.2613 23.9131 16.2613 23.907C16.2613 23.901 16.2613 23.8949 16.2613 23.8888C16.2613 23.8828 16.2613 23.8767 16.2613 23.8706C16.2613 23.8644 16.2613 23.8583 16.2613 23.8522C16.2613 23.846 16.2613 23.8399 16.2613 23.8337C16.2613 23.8275 16.2613 23.8214 16.2613 23.8152C16.2613 23.809 16.2613 23.8027 16.2613 23.7965C16.2613 23.7903 16.2613 23.784 16.2613 23.7778C16.2613 23.7715 16.2613 23.7652 16.2613 23.7589C16.2613 23.7526 16.2613 23.7463 16.2613 23.74C16.2613 23.7337 16.2613 23.7274 16.2613 23.721C16.2613 23.7147 16.2613 23.7083 16.2613 23.7019C16.2613 23.6955 16.2613 23.6891 16.2613 23.6827C16.2613 23.6763 16.2613 23.6699 16.2613 23.6634C16.2613 23.657 16.2613 23.6505 16.2613 23.6441C16.2613 23.6376 16.2613 23.6311 16.2613 23.6246C16.2613 23.6181 16.2613 23.6116 16.2613 23.6051C16.2613 23.5985 16.2613 23.592 16.2613 23.5854C16.2613 23.5789 16.2613 23.5723 16.2613 23.5657C16.2613 23.5591 16.2613 23.5525 16.2613 23.5459C16.2613 23.5393 16.2613 23.5327 16.2613 23.526C16.2613 23.5194 16.2613 23.5127 16.2613 23.506C16.2613 23.4994 16.2613 23.4927 16.2613 23.486C16.2613 23.4793 16.2613 23.4726 16.2613 23.4658C16.2613 23.4591 16.2613 23.4523 16.2613 23.4456C16.2613 23.4388 16.2613 23.432 16.2613 23.4253C16.2613 23.4185 16.2613 23.4117 16.2613 23.4048C16.2613 23.398 16.2613 23.3912 16.2613 23.3843C16.2613 23.3775 16.2613 23.3706 16.2613 23.3638C16.2613 23.3569 16.2613 23.35 16.2613 23.3431C16.2613 23.3362 16.2613 23.3293 16.2613 23.3223C16.2613 23.3154 16.2613 23.3085 16.2613 23.3015C16.2613 23.2946 16.2613 23.2876 16.2613 23.2806C16.2613 23.2736 16.2613 23.2666 16.2613 23.2596C16.2613 23.2526 16.2613 23.2455 16.2613 23.2385C16.2613 23.2315 16.2613 23.2244 16.2613 23.2173C16.2613 23.2103 16.2613 23.2032 16.2613 23.1961C16.2613 23.189 16.2613 23.1819 16.2613 23.1747C16.2613 23.1676 16.2613 23.1605 16.2613 23.1533C16.2613 23.1462 16.2613 23.139 16.2613 23.1318C16.2613 23.1247 16.2613 23.1175 16.2613 23.1103C16.2613 23.103 16.2613 23.0958 16.2613 23.0886C16.2613 23.0814 16.2613 23.0741 16.2613 23.0668C16.2613 23.0596 16.2613 23.0523 16.2613 23.045C16.2613 23.0377 16.2613 23.0304 16.2613 23.0231C16.2613 23.0158 16.2613 23.0085 16.2613 23.0011C16.2613 22.9938 16.2613 22.9864 16.2613 22.9791C16.2613 22.9717 16.2613 22.9643 16.2613 22.9569C16.2613 22.9495 16.2613 22.9421 16.2613 22.9347C16.2613 22.9273 16.2613 22.9198 16.2613 22.9124C16.2613 22.9049 16.2613 22.8975 16.2613 22.89C16.2613 22.8825 16.2613 22.875 16.2613 22.8675C16.2613 22.86 16.2613 22.8525 16.2613 22.845C16.2613 22.8375 16.2613 22.8299 16.2613 22.8224C16.2613 22.8148 16.2613 22.8073 16.2613 22.7997C16.2613 22.7921 16.2613 22.7845 16.2613 22.7769C16.2613 22.7693 16.2613 22.7617 16.2613 22.7541C16.2613 22.7464 16.2613 22.7388 16.2613 22.7311C16.2613 22.7235 16.2613 22.7158 16.2613 22.7081C16.2613 22.7004 16.2613 22.6927 16.2613 22.685C16.2613 22.6773 16.2613 22.6696 16.2613 22.6619C16.2613 22.6541 16.2613 22.6464 16.2613 22.6386C16.2613 22.6309 16.2613 22.6231 16.2613 22.6153C16.2613 22.6075 16.2613 22.5998 16.2613 22.5919C16.2613 22.5841 16.2613 22.5763 16.2613 22.5685C16.2613 22.5606 16.2613 22.5528 16.2613 22.5449C16.2613 22.5371 16.2613 22.5292 16.2613 22.5213C16.2613 22.5134 16.2613 22.5056 16.2613 22.4976C16.2613 22.4897 16.2613 22.4818 16.2613 22.4739C16.2613 22.4659 16.2613 22.458 16.2613 22.45C16.2613 22.4421 16.2613 22.4341 16.2613 22.4261C16.2613 22.4182 16.2613 22.4102 16.2613 22.4022C16.2613 22.3941 16.2613 22.3861 16.2613 22.3781C16.2613 22.3701 16.2613 22.362 16.2613 22.354C16.2613 22.3459 16.2613 22.3378 16.2613 22.3298C16.2613 22.3217 16.2613 22.3136 16.2613 22.3055C16.2613 22.2974 16.2613 22.2893 16.2613 22.2812C16.2613 22.273 16.2613 22.2649 16.2613 22.2567C16.2613 22.2486 16.2613 22.2404 16.2613 22.2322C16.2613 22.2241 16.2613 22.2159 16.2613 22.2077C16.2613 22.1995 16.2613 22.1913 16.2613 22.1831C16.2613 22.1748 16.2613 22.1666 16.2613 22.1584C16.2613 22.1501 16.2613 22.1418 16.2613 22.1336C16.2613 22.1253 16.2613 22.117 16.2613 22.1087C16.2613 22.1004 16.2613 22.0921 16.2613 22.0838C16.2613 22.0755 16.2613 22.0672 16.2613 22.0588C16.2613 22.0505 16.2613 22.0422 16.2613 22.0338C16.2613 22.0254 16.2613 22.0171 16.2613 22.0087C16.2613 22.0003 16.2613 21.9919 16.2613 21.9835C16.2613 21.9751 16.2613 21.9667 16.2613 21.9582C16.2613 21.9498 16.2613 21.9414 16.2613 21.9329C16.2613 21.9244 16.2613 21.916 16.2613 21.9075C16.2613 21.899 16.2613 21.8905 16.2613 21.882C16.2613 21.8735 16.2613 21.865 16.2613 21.8565C16.2613 21.848 16.2613 21.8395 16.2613 21.8309C16.2613 21.8224 16.2613 21.8138 16.2613 21.8053C16.2613 21.7967 16.2613 21.7881 16.2613 21.7795C16.2613 21.7709 16.2613 21.7623 16.2613 21.7537C16.2613 21.7451 16.2613 21.7365 16.2613 21.7279C16.2613 21.7192 16.2613 21.7106 16.2613 21.7019C16.2613 21.6933 16.2613 21.6846 16.2613 21.6759C16.2613 21.6673 16.2613 21.6586 16.2613 21.6499C16.2613 21.6412 16.2613 21.6325 16.2613 21.6238C16.2613 21.615 16.2613 21.6063 16.2613 21.5976C16.2613 21.5888 16.2613 21.5801 16.2613 21.5713C16.2613 21.5626 16.2613 21.5538 16.2613 21.545C16.2613 21.5362 16.2613 21.5274 16.2613 21.5186C16.2613 21.5098 16.2613 21.501 16.2613 21.4922C16.2613 21.4833 16.2613 21.4745 16.2613 21.4657C16.2613 21.4568 16.2613 21.448 16.2613 21.4391C16.2613 21.4302 16.2613 21.4213 16.2613 21.4125C16.2613 21.4036 16.2613 21.3947 16.2613 21.3858C16.2613 21.3768 16.2613 21.3679 16.2613 21.359C16.2613 21.3501 16.2613 21.3411 16.2613 21.3322C16.2613 21.3232 16.2613 21.3143 16.2613 21.3053C16.2613 21.2963 16.2613 21.2873 16.2613 21.2783C16.2613 21.2694 16.2613 21.2604 16.2613 21.2513C16.2613 21.2423 16.2613 21.2333 16.2613 21.2243C16.2613 21.2152 16.2613 21.2062 16.2613 21.1971C16.2613 21.1881 16.2613 21.179 16.2613 21.17C16.2613 21.1609 16.2613 21.1518 16.2613 21.1427C16.2613 21.1336 16.2613 21.1245 16.2613 21.1154C16.2613 21.1063 16.2613 21.0972 16.2613 21.088C16.2613 21.0789 16.2613 21.0697 16.2613 21.0606C16.2613 21.0514 16.2613 21.0423 16.2613 21.0331C16.2613 21.0239 16.2613 21.0148 16.2613 21.0056C16.2613 20.9964 16.2613 20.9872 16.2613 20.978C16.2613 20.9687 16.2613 20.9595 16.2613 20.9503C16.2613 20.9411 16.2613 20.9318 16.2613 20.9226C16.2613 20.9133 16.2613 20.9041 16.2613 20.8948C16.2613 20.8855 16.2613 20.8762 16.2613 20.867C16.2613 20.8577 16.2613 20.8484 16.2613 20.8391C16.2613 20.8298 16.2613 20.8204 16.2613 20.8111C16.2613 20.8018 16.2613 20.7925 16.2613 20.7831C16.2613 20.7738 16.2613 20.7644 16.2613 20.755C16.2613 20.7457 16.2613 20.7363 16.2613 20.7269C16.2613 20.7175 16.2613 20.7081 16.2613 20.6987C16.2613 20.6893 16.2613 20.6799 16.2613 20.6705C16.2613 20.6611 16.2613 20.6517 16.2613 20.6422C16.2613 20.6328 16.2613 20.6233 16.2613 20.6139C16.2613 20.6044 16.2613 20.595 16.2613 20.5855C16.2613 20.576 16.2613 20.5665 16.2613 20.557C16.2613 20.5475 16.2613 20.538 16.2613 20.5285C16.2613 20.519 16.2613 20.5095 16.2613 20.5C16.2613 20.4904 16.2613 20.4809 16.2613 20.4714C16.2613 20.4618 16.2613 20.4523 16.2613 20.4427C16.2613 20.4331 16.2613 20.4236 16.2613 20.414C16.2613 20.4044 16.2613 20.3948 16.2613 20.3852C16.2613 20.3756 16.2613 20.366 16.2613 20.3564C16.2613 20.3468 16.2613 20.3371 16.2613 20.3275C16.2613 20.3179 16.2613 20.3082 16.2613 20.2986C16.2613 20.2889 16.2613 20.2793 16.2613 20.2696C16.2613 20.2599 16.2613 20.2502 16.2613 20.2406C16.2613 20.2309 16.2613 20.2212 16.2613 20.2115C16.2613 20.2018 16.2613 20.1921 16.2613 20.1823C16.2613 20.1726 16.2613 20.1629 16.2613 20.1531C16.2613 20.1434 16.2613 20.1337 16.2613 20.1239C16.2613 20.1142 16.2613 20.1044 16.2613 20.0946C16.2613 20.0849 16.2613 20.0751 16.2613 20.0653C16.2613 20.0555 16.2613 20.0457 16.2613 20.0359C16.2613 20.0261 16.2613 20.0163 16.2613 20.0065C16.2613 19.9966 16.2613 19.9868 16.2613 19.977C16.2613 19.9671 16.2613 19.9573 16.2613 19.9474C16.2613 19.9376 16.2613 19.9277 16.2613 19.9179C16.2613 19.908 16.2613 19.8981 16.2613 19.8882C16.2613 19.8783 16.2613 19.8685 16.2613 19.8586C16.2613 19.8486 16.2613 19.8387 16.2613 19.8288C16.2613 19.8189 16.2613 19.809 16.2613 19.799C16.2613 19.7891 16.2613 19.7792 16.2613 19.7692C16.2613 19.7593 16.2613 19.7493 16.2613 19.7394C16.2613 19.7294 16.2613 19.7194 16.2613 19.7094C16.2613 19.6995 16.2613 19.6895 16.2613 19.6795C16.2613 19.6695 16.2613 19.6595 16.2613 19.6495C16.2613 19.6395 16.2613 19.6294 16.2613 19.6194C16.2613 19.6094 16.2613 19.5994 16.2613 19.5893C16.2613 19.5793 16.2613 19.5692 16.2613 19.5592C16.2613 19.5491 16.2613 19.5391 16.2613 19.529C16.2613 19.5189 16.2613 19.5088 16.2613 19.4988C16.2613 19.4887 16.2613 19.4786 16.2613 19.4685C16.2613 19.4584 16.2613 19.4483 16.2613 19.4381C16.2613 19.428 16.2613 19.4179 16.2613 19.4078C16.2613 19.3976 16.2613 19.3875 16.2613 19.3774C16.2613 19.3672 16.2613 19.3571 16.2613 19.3469C16.2613 19.3368 16.2613 19.3266 16.2613 19.3164C16.2613 19.3062 16.2613 19.2961 16.2613 19.2859C16.2613 19.2757 16.2613 19.2655 16.2613 19.2553C16.2613 19.2451 16.2613 19.2349 16.2613 19.2247C16.2613 19.2144 16.2613 19.2042 16.2613 19.194C16.2613 19.1838 16.2613 19.1735 16.2613 19.1633C16.2613 19.153 16.2613 19.1428 16.2613 19.1325C16.2613 19.1223 16.2613 19.112 16.2613 19.1017C16.2613 19.0915 16.2613 19.0812 16.2613 19.0709C16.2613 19.0606 16.2613 19.0503 16.2613 19.04C16.2613 19.0297 16.2613 19.0194 16.2613 19.0091C16.2613 18.9988 16.2613 18.9885 16.2613 18.9782C16.2613 18.9678 16.2613 18.9575 16.2613 18.9472C16.2613 18.9368 16.2613 18.9265 16.2613 18.9161C16.2613 18.9058 16.2613 18.8954 16.2613 18.8851C16.2613 18.8747 16.2613 18.8643 16.2613 18.8539C16.2613 18.8436 16.2613 18.8332 16.2613 18.8228C16.2613 18.8124 16.2613 18.802 16.2613 18.7916C16.2613 18.7812 16.2613 18.7708 16.2613 18.7604C16.2613 18.75 16.2613 18.7395 16.2613 18.7291C16.2613 18.7187 16.2613 18.7082 16.2613 18.6978C16.2613 18.6874 16.2613 18.6769 16.2613 18.6665C16.2613 18.656 16.2613 18.6455 16.2613 18.6351C16.2613 18.6246 16.2613 18.6141 16.2613 18.6037C16.2613 18.5932 16.2613 18.5827 16.2613 18.5722C16.2613 18.5617 16.2613 18.5512 16.2613 18.5407C16.2613 18.5302 16.2613 18.5197 16.2613 18.5092C16.2613 18.4987 16.2613 18.4881 16.2613 18.4776C16.2613 18.4671 16.2613 18.4566 16.2613 18.446C16.2613 18.4355 16.2613 18.4249 16.2613 18.4144C16.2613 18.4038 16.2613 18.3933 16.2613 18.3827C16.2613 18.3722 16.2613 18.3616 16.2613 18.351C16.2613 18.3404 16.2613 18.3299 16.2613 18.3193C16.2613 18.3087 16.2613 18.2981 16.2613 18.2875C16.2613 18.2769 16.2613 18.2663 16.2613 18.2557C16.2613 18.2451 16.2613 18.2345 16.2613 18.2239C16.2613 18.2132 16.2613 18.2026 16.2613 18.192C16.2613 18.1814 16.2613 18.1707 16.2613 18.1601C16.2613 18.1494 16.2613 18.1388 16.2613 18.1281C16.2613 18.1175 16.2613 18.1068 16.2613 18.0962C16.2613 18.0855 16.2613 18.0748 16.2613 18.0642C16.2613 18.0535 16.2613 18.0428 16.2613 18.0321C16.2613 18.0214 16.2613 18.0108 16.2613 18.0001C16.2613 17.9894 16.2613 17.9787 16.2613 17.968C16.2613 17.9573 16.2613 17.9465 16.2613 17.9358C16.2613 17.9251 16.2613 17.9144 16.2613 17.9037C16.2613 17.8929 16.2613 17.8822 16.2613 17.8715C16.2613 17.8607 16.2613 17.85 16.2613 17.8392C16.2613 17.8285 16.2613 17.8177 16.2613 17.807C16.2613 17.7962 16.2613 17.7855 16.2613 17.7747C16.2613 17.7639 16.2613 17.7532 16.2613 17.7424C16.2613 17.7316 16.2613 17.7208 16.2613 17.71C16.2613 17.6993 16.2613 17.6885 16.2613 17.6777C16.2613 17.6669 16.2613 17.6561 16.2613 17.6453C16.2613 17.6345 16.2613 17.6237 16.2613 17.6128C16.2613 17.602 16.2613 17.5912 16.2613 17.5804C16.2613 17.5696 16.2613 17.5587 16.2613 17.5479C16.2613 17.5371 16.2613 17.5262 16.2613 17.5154C16.2613 17.5045 16.2613 17.4937 16.2613 17.4828C16.2613 17.472 16.2613 17.4611 16.2613 17.4503C16.2613 17.4394 16.2613 17.4285 16.2613 17.4177C16.2613 17.4068 16.2613 17.3959 16.2613 17.385C16.2613 17.3742 16.2613 17.3633 16.2613 17.3524C16.2613 17.3415 16.2613 17.3306 16.2613 17.3197C16.2613 17.3088 16.2613 17.2979 16.2613 17.287C16.2613 17.2761 16.2613 17.2652 16.2613 17.2543C16.2613 17.2434 16.2613 17.2325 16.2613 17.2215C16.2613 17.2106 16.2613 17.1997 16.2613 17.1888C16.2613 17.1778 16.2613 17.1669 16.2613 17.156C16.2613 17.145 16.2613 17.1341 16.2613 17.1231C16.2613 17.1122 16.2613 17.1012 16.2613 17.0903C16.2613 17.0793 16.2613 17.0684 16.2613 17.0574C16.2613 17.0464 16.2613 17.0355 16.2613 17.0245C16.2613 17.0135 16.2613 17.0026 16.2613 16.9916C16.2613 16.9806 16.2613 16.9696 16.2613 16.9586C16.2613 16.9476 16.2613 16.9367 16.2613 16.9257C16.2613 16.9147 16.2613 16.9037 16.2613 16.8927C16.2613 16.8817 16.2613 16.8707 16.2613 16.8597C16.2613 16.8486 16.2613 16.8376 16.2613 16.8266C16.2613 16.8156 16.2613 16.8046 16.2613 16.7936C16.2613 16.7825 16.2613 16.7715 16.2613 16.7605C16.2613 16.7495 16.2613 16.7384 16.2613 16.7274C16.2613 16.7163 16.2613 16.7053 16.2613 16.6943C16.2613 16.6832 16.2613 16.6722 16.2613 16.6611C16.2613 16.6501 16.2613 16.639 16.2613 16.628C16.2613 16.6169 16.2613 16.6058 16.2613 16.5948C16.2613 16.5837 16.2613 16.5726 16.2613 16.5616C16.2613 16.5505 16.2613 16.5394 16.2613 16.5283C16.2613 16.5173 16.2613 16.5062 16.2613 16.4951C16.2613 16.484 16.2613 16.4729 16.2613 16.4618C16.2613 16.4507 16.2613 16.4396 16.2613 16.4286C16.2613 16.4175 16.2613 16.4064 16.2613 16.3953C16.2613 16.3841 16.2613 16.373 16.2613 16.3619C16.2613 16.3508 16.2613 16.3397 16.2613 16.3286C16.2613 16.3175 16.2613 16.3064 16.2613 16.2952C16.2613 16.2841 16.2613 16.273 16.2613 16.2619C16.2613 16.2507 16.2613 16.2396 16.2613 16.2285C16.2613 16.2173 16.2613 16.2062 16.2613 16.1951C16.2613 16.1839 16.2613 16.1728 16.2613 16.1616C16.2613 16.1505 16.2613 16.1394 16.2613 16.1282C16.2613 16.1171 16.2613 16.1059 16.2613 16.0948C16.2613 16.0836 16.2613 16.0724 16.2613 16.0613C16.2613 16.0501 16.2613 16.039 16.2613 16.0278C16.2613 16.0166 16.2613 16.0055 16.2613 15.9943C16.2613 15.9831 16.2613 15.9719 16.2613 15.9608C16.2613 15.9496 16.2613 15.9384 16.2613 15.9272C16.2613 15.9161 16.2613 15.9049 16.2613 15.8937C16.2613 15.8825 16.2613 15.8713 16.2613 15.8601C16.2613 15.8489 16.2613 15.8377 16.2613 15.8266C16.2613 15.8154 16.2613 15.8042 16.2613 15.793C16.2613 15.7818 16.2613 15.7706 16.2613 15.7594C16.2613 15.7482 16.2613 15.737 16.2613 15.7257C16.2613 15.7145 16.2613 15.7033 16.2613 15.6921C16.2613 15.6809 16.2613 15.6697 16.2613 15.6585C16.2613 15.6473 16.2613 15.636 16.2613 15.6248C16.2613 15.6136 16.2613 15.6024 16.2613 15.5911C16.2613 15.5799 16.2613 15.5687 16.2613 15.5575C16.2613 15.5462 16.2613 15.535 16.2613 15.5238C16.2613 15.5125 16.2613 15.5013 16.2613 15.4901C16.2613 15.4788 16.2613 15.4676 16.2613 15.4564C16.2613 15.4451 16.2613 15.4339 16.2613 15.4226C16.2613 15.4114 16.2613 15.4002 16.2613 15.3889C16.2613 15.3777 16.2613 15.3664 16.2613 15.3552C16.2613 15.3439 16.2613 15.3327 16.2613 15.3214C16.2613 15.3102 16.2613 15.2989 16.2613 15.2876C16.2613 15.2764 16.2613 15.2651 16.2613 15.2539C16.2613 15.2426 16.2613 15.2313 16.2613 15.2201C16.2613 15.2088 16.2613 15.1976 16.2613 15.1863C16.2613 15.175 16.2613 15.1638 16.2613 15.1525C16.2613 15.1412 16.2613 15.13 16.2613 15.1187C16.2613 15.1074 16.2613 15.0961 16.2613 15.0849C16.2613 15.0736 16.2613 15.0623 16.2613 15.051C16.2613 15.0398 16.2613 15.0285 16.2613 15.0172C16.2613 15.0059 16.2613 14.9946 16.2613 14.9834C16.2613 14.9721 16.2613 14.9608 16.2613 14.9495C16.2613 14.9382 16.2613 14.927 16.2613 14.9157C16.2613 14.9044 16.2613 14.8931 16.2613 14.8818C16.2613 14.8705 16.2613 14.8592 16.2613 14.8479C16.2613 14.8366 16.2613 14.8254 16.2613 14.8141C16.2613 14.8028 16.2613 14.7915 16.2613 14.7802C16.2613 14.7689 16.2613 14.7576 16.2613 14.7463C16.2613 14.735 16.2613 14.7237 16.2613 14.7124C16.2613 14.7011 16.2613 14.6898 16.2613 14.6785C16.2613 14.6672 16.2613 14.6559 16.2613 14.6446C16.2613 14.6333 16.2613 14.622 16.2613 14.6107C16.2613 14.5994 16.2613 14.5881 16.2613 14.5768C16.2613 14.5655 16.2613 14.5542 16.2613 14.5429C16.2613 14.5316 16.2613 14.5203 16.2613 14.509C16.2613 14.4977 16.2613 14.4864 16.2613 14.4751C16.2613 14.4638 16.2613 14.4525 16.2613 14.4411C16.2613 14.4298 16.2613 14.4185 16.2613 14.4072C16.2613 14.3959 16.2613 14.3846 16.2613 14.3733C16.2613 14.362 16.2613 14.3507 16.2613 14.3394C16.2613 14.3281 16.2613 14.3168 16.2613 14.3054C16.2613 14.2941 16.2613 14.2828 16.2613 14.2715C16.2613 14.2602 16.2613 14.2489 16.2613 14.2376C16.2613 14.2263 16.2613 14.215 16.2613 14.2036C16.2613 14.1923 16.2613 14.181 16.2613 14.1697C16.2613 14.1584 16.2613 14.1471 16.2613 14.1358C16.2613 14.1245 16.2613 14.1131 16.2613 14.1018C16.2613 14.0905 16.2613 14.0792 16.2613 14.0679C16.2613 14.0566 16.2613 14.0453 16.2613 14.034C16.2613 14.0227 16.2613 14.0113 16.2613 14C16.2613 13.9887 16.2613 13.9774 16.2613 13.9661C16.2613 13.9548 16.2613 13.9435 16.2613 13.9322C16.2613 13.9209 16.2613 13.9095 16.2613 13.8982C16.2613 13.8869 16.2613 13.8756 16.2613 13.8643C16.2613 13.853 16.2613 13.8417 16.2613 13.8304C16.2613 13.8191 16.2613 13.8078 16.2613 13.7964C16.2613 13.7851 16.2613 13.7738 16.2613 13.7625C16.2613 13.7512 16.2613 13.7399 16.2613 13.7286C16.2613 13.7173 16.2613 13.706 16.2613 13.6947C16.2613 13.6834 16.2613 13.6721 16.2613 13.6608C16.2613 13.6495 16.2613 13.6382 16.2613 13.6269C16.2613 13.6156 16.2613 13.6042 16.2613 13.5929C16.2613 13.5816 16.2613 13.5703 16.2613 13.559C16.2613 13.5477 16.2613 13.5364 16.2613 13.5251C16.2613 13.5138 16.2613 13.5025 16.2613 13.4912C16.2613 13.4799 16.2613 13.4687 16.2613 13.4574C16.2613 13.4461 16.2613 13.4348 16.2613 13.4235C16.2613 13.4122 16.2613 13.4009 16.2613 13.3896C16.2613 13.3783 16.2613 13.367 16.2613 13.3557C16.2613 13.3444 16.2613 13.3331 16.2613 13.3218C16.2613 13.3106 16.2613 13.2993 16.2613 13.288C16.2613 13.2767 16.2613 13.2654 16.2613 13.2541C16.2613 13.2428 16.2613 13.2316 16.2613 13.2203C16.2613 13.209 16.2613 13.1977 16.2613 13.1864C16.2613 13.1752 16.2613 13.1639 16.2613 13.1526C16.2613 13.1413 16.2613 13.13 16.2613 13.1188C16.2613 13.1075 16.2613 13.0962 16.2613 13.085C16.2613 13.0737 16.2613 13.0624 16.2613 13.0511C16.2613 13.0399 16.2613 13.0286 16.2613 13.0173C16.2613 13.0061 16.2613 12.9948 16.2613 12.9835C16.2613 12.9723 16.2613 12.961 16.2613 12.9498C16.2613 12.9385 16.2613 12.9272 16.2613 12.916C16.2613 12.9047 16.2613 12.8935 16.2613 12.8822C16.2613 12.871 16.2613 12.8597 16.2613 12.8485H16.0113ZM16.0113 25.3982C16.0113 25.6402 15.9129 25.854 15.7478 26.0526C15.5813 26.253 15.3515 26.4322 15.1005 26.6015C14.9756 26.6858 14.8471 26.7665 14.7202 26.8456C14.5939 26.9244 14.4684 27.0021 14.3526 27.0788C14.1251 27.2292 13.9146 27.3879 13.7984 27.5647L14.0073 27.7021C14.0922 27.5729 14.2615 27.4388 14.4905 27.2873C14.6029 27.2129 14.7249 27.1374 14.8525 27.0578C14.9794 26.9786 15.1113 26.8958 15.2403 26.8087C15.4974 26.6354 15.7506 26.4403 15.94 26.2125C16.1308 25.983 16.2613 25.7146 16.2613 25.3982H16.0113ZM13.7991 27.5637C13.7671 27.6112 13.7079 27.657 13.6098 27.696C13.5123 27.7348 13.3856 27.7631 13.2324 27.7814C12.9259 27.818 12.5345 27.8123 12.1038 27.7871C11.6738 27.7619 11.213 27.7179 10.7666 27.6797C10.3224 27.6418 9.8923 27.6097 9.53132 27.6097V27.8597C9.88033 27.8597 10.3006 27.8908 10.7454 27.9288C11.188 27.9666 11.6548 28.0112 12.0892 28.0367C12.5228 28.0621 12.9325 28.069 13.2621 28.0297C13.4269 28.01 13.577 27.9781 13.7022 27.9283C13.8269 27.8787 13.9364 27.8075 14.0066 27.7031L13.7991 27.5637ZM9.53132 27.6097C9.19772 27.6097 8.97999 27.5268 8.82443 27.3996C8.66606 27.2701 8.55839 27.0836 8.46624 26.8502C8.37185 26.6111 8.30422 26.3539 8.20626 26.0655C8.11105 25.7851 7.99206 25.4929 7.80396 25.2251L7.59937 25.3688C7.76736 25.608 7.87725 25.8741 7.96954 26.1458C8.05908 26.4095 8.13757 26.6984 8.2337 26.942C8.33208 27.1912 8.45936 27.424 8.66617 27.5931C8.87579 27.7645 9.15347 27.8597 9.53132 27.8597V27.6097ZM7.80417 25.2254C7.60845 24.945 7.36541 24.8123 7.10606 24.8025C6.85357 24.793 6.60686 24.9008 6.39647 25.0562C6.18491 25.2125 5.99923 25.4248 5.86594 25.645C5.73395 25.863 5.64568 26.1015 5.64568 26.3111H5.89568C5.89568 26.1647 5.96032 25.9718 6.07979 25.7744C6.19797 25.5792 6.36232 25.3923 6.54504 25.2573C6.72892 25.1214 6.92072 25.0457 7.09664 25.0524C7.26571 25.0587 7.44098 25.1418 7.59916 25.3685L7.80417 25.2254ZM5.64568 26.3111C5.64568 26.4187 5.61499 26.4756 5.57487 26.5114C5.52974 26.5516 5.45372 26.5821 5.33257 26.5968C5.08638 26.6266 4.73748 26.5839 4.31009 26.5418L4.28561 26.7906C4.69375 26.8308 5.08128 26.879 5.36261 26.845C5.50523 26.8277 5.64076 26.7876 5.74123 26.698C5.84671 26.604 5.89568 26.4719 5.89568 26.3111H5.64568ZM4.19225 26.7331C5.30183 28.485 6.26723 30.5324 6.7715 32.1901L7.01068 32.1173C6.4988 30.4347 5.52294 28.3668 4.40345 26.5993L4.19225 26.7331ZM6.77141 32.1898C7.18181 33.5516 7.88632 34.8694 8.54698 36.037C9.21251 37.2131 9.82498 38.2238 10.0747 38.9947L10.3125 38.9177C10.0526 38.1153 9.41988 37.072 8.76456 35.9139C8.10437 34.7471 7.41241 33.4504 7.01077 32.1176L6.77141 32.1898ZM10.0746 38.9944C10.3305 39.7915 10.5915 40.5381 10.6598 41.107C10.6939 41.3914 10.6766 41.6097 10.6028 41.7609C10.5343 41.9014 10.409 42.0007 10.1762 42.0333L10.2109 42.2809C10.5119 42.2387 10.7168 42.0976 10.8276 41.8704C10.9331 41.654 10.944 41.3772 10.908 41.0772C10.836 40.4775 10.5632 39.6985 10.3126 38.918L10.0746 38.9944ZM10.1759 42.0333C9.89343 42.0737 9.66358 42.167 9.50492 42.3276C9.34369 42.4908 9.27063 42.7086 9.27399 42.9661C9.28055 43.4687 9.57824 44.1558 10.137 45.0208L10.347 44.8851C9.78983 44.0226 9.52952 43.3882 9.52397 42.9628C9.52127 42.7564 9.57862 42.6087 9.68277 42.5033C9.78947 42.3952 9.95996 42.3168 10.2113 42.2808L10.1759 42.0333ZM10.1372 45.021C10.6785 45.8553 10.7151 46.5143 10.7339 47.001C10.743 47.2381 10.7469 47.4661 10.8205 47.6427C10.8596 47.7366 10.9187 47.8186 11.0071 47.884C11.094 47.9483 11.2029 47.9918 11.3355 48.0194L11.3864 47.7746C11.2775 47.7519 11.2053 47.7196 11.1557 47.683C11.1076 47.6474 11.0749 47.6035 11.0513 47.5466C10.9993 47.4218 10.9936 47.2497 10.9837 46.9914C10.9643 46.4875 10.9245 45.775 10.3469 44.8849L10.1372 45.021ZM11.3351 48.0193C11.5622 48.0673 11.7072 48.1373 11.8097 48.2117C11.9129 48.2865 11.9799 48.3704 12.0487 48.461C12.1154 48.5487 12.1902 48.6527 12.3018 48.7334C12.4178 48.8173 12.5649 48.8712 12.7735 48.8861L12.7913 48.6367C12.6196 48.6245 12.5195 48.5823 12.4483 48.5308C12.3728 48.4763 12.3208 48.4058 12.2478 48.3097C12.1769 48.2165 12.0914 48.1072 11.9565 48.0093C11.821 47.911 11.6421 47.8287 11.3868 47.7747L11.3351 48.0193ZM12.7743 48.8862C13.1158 48.9084 13.4207 49.0899 13.7098 49.3599C13.9996 49.6305 14.2596 49.9764 14.5159 50.3097L14.7141 50.1572C14.4624 49.8301 14.1886 49.4649 13.8804 49.1771C13.5714 48.8886 13.2141 48.6643 12.7905 48.6367L12.7743 48.8862ZM14.5156 50.3093C15.0757 51.0431 16.3501 51.0318 16.9517 50.1513L16.7453 50.0103C16.2338 50.7589 15.1646 50.7476 14.7144 50.1576L14.5156 50.3093ZM16.9514 50.1518C17.203 49.7868 17.7342 49.5291 18.4522 49.3656C19.1637 49.2036 20.03 49.1403 20.9146 49.1403V48.8903C20.0208 48.8903 19.1338 48.954 18.3967 49.1218C17.6662 49.2882 17.0534 49.5633 16.7456 50.0099L16.9514 50.1518ZM20.9146 49.1403C21.3681 49.1403 21.6935 49.0917 21.9537 49.0067C22.2152 48.9214 22.4037 48.8017 22.5836 48.6706C22.9359 48.4139 23.2618 48.1096 24.1011 47.8628L24.0305 47.623C23.1429 47.884 22.7831 48.2159 22.4364 48.4685C22.2668 48.5921 22.1025 48.6952 21.8761 48.7691C21.6484 48.8434 21.3509 48.8903 20.9146 48.8903V49.1403ZM24.1008 47.8629C25.8096 47.3648 27.8659 47.3153 29.3097 47.8155L29.3916 47.5793C27.8868 47.058 25.7758 47.1142 24.0308 47.6229L24.1008 47.8629ZM29.3102 47.8157C30.8325 48.337 31.9915 47.8607 32.7215 47.3979L32.5877 47.1868C31.8963 47.6251 30.8174 48.0676 29.3912 47.5791L29.3102 47.8157ZM32.7225 47.3973C32.8635 47.3061 33.0468 47.2898 33.267 47.3154C33.4911 47.3415 33.7152 47.4046 33.9508 47.4516C34.1709 47.4955 34.4091 47.5271 34.602 47.4496C34.8159 47.3637 34.9371 47.1634 34.9656 46.8441L34.7166 46.8219C34.6929 47.0874 34.6036 47.1795 34.5088 47.2176C34.3931 47.2641 34.2244 47.2513 33.9998 47.2064C33.7906 47.1647 33.5321 47.0946 33.2959 47.0671C33.0558 47.0391 32.801 47.0488 32.5868 47.1873L32.7225 47.3973ZM34.9656 46.8436C34.9882 46.5792 35.0833 46.4042 35.2237 46.2826C35.3679 46.1577 35.5715 46.0791 35.8274 46.033C36.0828 45.9871 36.3786 45.9756 36.6979 45.9762C36.8571 45.9765 37.0204 45.9797 37.1864 45.9829C37.352 45.9862 37.5201 45.9893 37.6869 45.9893V45.7393C37.5229 45.7393 37.3571 45.7362 37.1913 45.733C37.0258 45.7298 36.8602 45.7265 36.6984 45.7262C36.3756 45.7256 36.0614 45.7369 35.7832 45.787C35.5055 45.8369 35.252 45.9273 35.06 46.0937C34.8641 46.2634 34.7439 46.5019 34.7165 46.8223L34.9656 46.8436ZM37.6869 45.9893C38.0438 45.9893 38.5111 45.8504 39.0406 45.6162C39.5736 45.3805 40.1826 45.0423 40.8276 44.6309C42.1176 43.8078 43.5594 42.6861 44.8356 41.488L44.6645 41.3057C43.3988 42.494 41.9692 43.606 40.6931 44.4201C40.055 44.8272 39.4574 45.1585 38.9394 45.3875C38.418 45.6182 37.99 45.7393 37.6869 45.7393V45.9893ZM44.8356 41.488C47.3867 39.0943 51.6101 33.8517 53.0409 31.4546L52.8262 31.3265C51.4083 33.7021 47.2 38.9267 44.6645 41.3057L44.8356 41.488ZM53.0409 31.4545C54.4509 29.0889 56.7741 27.0678 57.9473 25.9984L57.7789 25.8136C56.6143 26.8752 54.2591 28.9224 52.8262 31.3265L53.0409 31.4545ZM57.9475 25.9981C58.1849 25.7805 58.3883 25.4357 58.5644 25.0223C58.7416 24.6064 58.896 24.1094 59.0296 23.5766C59.2971 22.511 59.4847 21.2906 59.6054 20.2643L59.3571 20.2351C59.237 21.2562 59.0509 22.4648 58.7872 23.5158C58.6553 24.0414 58.5046 24.5247 58.3344 24.9243C58.1631 25.3264 57.9767 25.6322 57.7786 25.8139L57.9475 25.9981ZM59.4833 20.1247C58.8764 20.1151 58.2313 20.1637 57.7396 20.2144C57.4933 20.2397 57.2848 20.2657 57.1377 20.2854C57.0641 20.2952 57.0059 20.3034 56.966 20.3092C56.946 20.3122 56.9306 20.3144 56.9202 20.316C56.915 20.3168 56.911 20.3174 56.9083 20.3178C56.9069 20.318 56.9059 20.3182 56.9052 20.3183C56.9048 20.3184 56.9046 20.3184 56.9044 20.3184C56.9043 20.3184 56.9042 20.3185 56.9042 20.3185C56.9041 20.3185 56.9041 20.3185 56.9041 20.3185C56.9041 20.3185 56.9041 20.3185 56.9233 20.442C56.9425 20.5655 56.9425 20.5655 56.9425 20.5655C56.9425 20.5655 56.9425 20.5655 56.9425 20.5655C56.9426 20.5655 56.9426 20.5655 56.9427 20.5655C56.9428 20.5655 56.943 20.5654 56.9433 20.5654C56.944 20.5653 56.9449 20.5651 56.9461 20.5649C56.9486 20.5646 56.9524 20.564 56.9575 20.5632C56.9675 20.5617 56.9825 20.5595 57.002 20.5566C57.041 20.551 57.0983 20.5429 57.1708 20.5332C57.3159 20.5138 57.5219 20.4881 57.7652 20.463C58.2525 20.4128 58.8865 20.3653 59.4793 20.3747L59.4833 20.1247ZM46.1993 31.7957C46.1993 31.8729 46.1785 31.9117 46.1558 31.9348C46.1302 31.9608 46.0858 31.9836 46.0102 31.9971C45.8536 32.0251 45.6332 32.0027 45.3716 31.9763C45.1211 31.9509 44.839 31.9229 44.5932 31.9567C44.3437 31.991 44.1057 32.0928 43.9789 32.3477L44.2028 32.459C44.2779 32.308 44.42 32.2329 44.6272 32.2044C44.838 32.1754 45.089 32.199 45.3464 32.225C45.5928 32.2499 45.8549 32.2788 46.0541 32.2432C46.1563 32.225 46.258 32.1874 46.334 32.1101C46.413 32.0298 46.4493 31.9222 46.4493 31.7957H46.1993ZM43.9791 32.3473C43.7734 32.7577 43.5682 33.2174 43.4147 33.5737C43.3379 33.752 43.2739 33.9048 43.2291 34.013C43.2067 34.0671 43.189 34.1101 43.177 34.1396C43.171 34.1544 43.1664 34.1658 43.1632 34.1735C43.1617 34.1773 43.1605 34.1803 43.1597 34.1823C43.1593 34.1833 43.159 34.184 43.1588 34.1845C43.1587 34.1848 43.1586 34.185 43.1585 34.1851C43.1585 34.1852 43.1585 34.1852 43.1585 34.1853C43.1585 34.1853 43.1585 34.1853 43.1585 34.1853C43.1584 34.1853 43.1584 34.1853 43.2744 34.232C43.3904 34.2787 43.3904 34.2787 43.3904 34.2787C43.3904 34.2787 43.3904 34.2787 43.3904 34.2787C43.3904 34.2786 43.3904 34.2786 43.3904 34.2785C43.3905 34.2784 43.3905 34.2782 43.3906 34.278C43.3908 34.2775 43.3911 34.2768 43.3915 34.2759C43.3923 34.274 43.3934 34.2711 43.3949 34.2674C43.398 34.2598 43.4025 34.2486 43.4085 34.2341C43.4204 34.2049 43.4378 34.1623 43.46 34.1087C43.5045 34.0013 43.5681 33.8496 43.6443 33.6726C43.797 33.3181 44 32.8635 44.2026 32.4593L43.9791 32.3473ZM43.2921 34.1083L41.8692 33.9043L41.8338 34.1517L43.2567 34.3557L43.2921 34.1083ZM41.9532 33.9554L39.9224 31.1111L39.7189 31.2564L41.7498 34.1006L41.9532 33.9554ZM39.8207 31.1837C39.9217 31.2573 39.9217 31.2573 39.9218 31.2572C39.9218 31.2572 39.9218 31.2572 39.9218 31.2572C39.9219 31.2571 39.922 31.257 39.9221 31.2568C39.9223 31.2566 39.9226 31.2562 39.923 31.2556C39.9237 31.2545 39.9249 31.2529 39.9265 31.2508C39.9296 31.2465 39.9342 31.2401 39.9402 31.2318C39.9523 31.2152 39.9699 31.1908 39.9926 31.1594C40.0379 31.0966 40.1031 31.0061 40.1825 30.8949C40.3413 30.6725 40.5574 30.3675 40.7863 30.0369C41.2417 29.3792 41.7552 28.6096 41.9633 28.1928L41.7397 28.0811C41.5411 28.4788 41.0391 29.2326 40.5808 29.8946C40.3528 30.2239 40.1374 30.5279 39.9791 30.7495C39.8999 30.8604 39.835 30.9506 39.7899 31.0131C39.7673 31.0443 39.7497 31.0686 39.7378 31.0851C39.7318 31.0934 39.7273 31.0996 39.7242 31.1039C39.7227 31.106 39.7215 31.1076 39.7207 31.1086C39.7203 31.1091 39.7201 31.1095 39.7199 31.1098C39.7198 31.1099 39.7197 31.11 39.7197 31.1101C39.7196 31.1101 39.7196 31.1102 39.7196 31.1102C39.7196 31.1102 39.7196 31.1102 39.8207 31.1837ZM41.9632 28.1929C42.0514 28.0171 42.2729 27.7904 42.5811 27.5578C42.885 27.3284 43.2585 27.1042 43.6321 26.9299C44.0074 26.7548 44.3741 26.634 44.6657 26.6042C44.9665 26.5735 45.1319 26.6422 45.1965 26.7709L45.4199 26.6587C45.2804 26.3808 44.9625 26.3226 44.6403 26.3555C44.3092 26.3893 43.9135 26.5227 43.5264 26.7033C43.1377 26.8847 42.7491 27.1178 42.4305 27.3582C42.1162 27.5954 41.855 27.8509 41.7397 28.0809L41.9632 28.1929ZM45.1963 26.7705C45.3073 26.9936 45.5107 27.2217 45.7404 27.445C45.971 27.6692 46.2421 27.9017 46.4927 28.1271C46.7465 28.3554 46.981 28.5778 47.1519 28.7912C47.3254 29.0077 47.4166 29.1949 47.4166 29.3536H47.6666C47.6666 29.1065 47.5292 28.8624 47.347 28.6349C47.1622 28.4042 46.9141 28.1698 46.6599 27.9413C46.4027 27.7099 46.1407 27.4856 45.9147 27.2658C45.6877 27.045 45.511 26.8418 45.4201 26.6591L45.1963 26.7705ZM47.4166 29.354C47.4173 29.5273 47.3528 29.7089 47.2436 29.9038C47.1344 30.0988 46.9875 30.2954 46.834 30.5003C46.6829 30.7021 46.5251 30.9121 46.406 31.124C46.2868 31.3359 46.1993 31.5614 46.1993 31.7957H46.4493C46.4493 31.6228 46.5143 31.4414 46.6239 31.2465C46.7335 31.0516 46.8806 30.8551 47.0341 30.6502C47.1853 30.4483 47.343 30.2381 47.4617 30.026C47.5806 29.8138 47.6675 29.5879 47.6666 29.3531L47.4166 29.354Z" fill="#868686"/>
</g>
<defs>
<filter id="filter0_d_6252_1038" x="0.0551758" y="0.052124" width="63.5664" height="56.7853" filterUnits="userSpaceOnUse" color-interpolation-filters="sRGB">
<feFlood flood-opacity="0" result="BackgroundImageFix"/>
<feColorMatrix in="SourceAlpha" type="matrix" values="0 0 0 0 0 0 0 0 0 0 0 0 0 0 0 0 0 0 127 0" result="hardAlpha"/>
<feOffset dy="2"/>
<feGaussianBlur stdDeviation="2"/>
<feColorMatrix type="matrix" values="0 0 0 0 0 0 0 0 0 0 0 0 0 0 0 0 0 0 0.01 0"/>
<feBlend mode="normal" in2="BackgroundImageFix" result="effect1_dropShadow_6252_1038"/>
<feBlend mode="normal" in="SourceGraphic" in2="effect1_dropShadow_6252_1038" result="shape"/>
</filter>
</defs>
</svg>
