<svg width="49" height="44" viewBox="0 0 49 44" fill="none" xmlns="http://www.w3.org/2000/svg">
<g filter="url(#filter0_d_6252_1042)">
<path fill-rule="evenodd" clip-rule="evenodd" d="M35.25 3.88135C34.7904 3.88135 33.7008 3.15634 32.7684 2.46802C32.1061 3.2077 29.7757 3.08442 28.6318 3.08442C27.4116 3.08442 28.4791 4.75899 27.7155 5.36953C26.9519 5.97713 26.648 6.89146 27.2574 7.1938C27.8697 7.50347 27.1061 10.0924 27.1061 11.0067C27.1061 11.921 25.8844 13.9009 26.3425 14.2047C26.8007 14.5114 27.5613 16.6439 28.6304 16.9492C29.6979 17.2544 30.4585 16.186 30.9152 16.186C31.3734 16.186 31.3734 17.5597 31.3734 18.6252C31.3734 19.6907 30.7654 20.1486 30.7654 20.1486C30.7654 20.1486 29.0856 20.7577 28.3249 20.1486C27.5628 19.541 26.9519 17.8635 26.9519 17.2529C26.9519 16.6424 25.1238 16.6424 24.3602 16.6424C23.5995 16.6424 22.8374 15.2702 22.5349 14.6596C22.2251 14.052 21.3117 14.8123 21.3117 15.2702C21.3117 15.7281 20.5496 15.7281 19.7875 15.7281C19.0254 15.7281 17.4997 14.5099 16.8903 14.8137C16.2809 15.1205 15.67 13.7497 15.8227 13.1377C15.9755 12.5272 14.2971 12.988 13.6891 13.2918C13.0783 13.5941 12.7743 12.5272 12.7743 12.5272C12.7743 12.5272 12.4219 11.9166 11.8742 11.6495L11.1473 18.474L10.2677 19.3546L5.16492 19.1785L4.81396 30.6069L8.73466 35.9638C10.7772 35.547 15.0107 34.9629 15.0107 35.6732C15.0107 35.8875 15.1179 36.1678 15.2868 36.4657C15.999 36.2955 16.67 36.1517 17.0401 36.1972C17.8565 36.2984 20.5995 37.314 21.4116 36.906C22.2236 36.5024 23.6495 33.4541 24.9696 33.0476C26.2897 32.6411 28.1208 31.2175 28.1208 30.6113C28.1208 30.0008 28.1208 29.3903 30.0518 28.881L32.9989 28.7856L33.2016 28.7827L32.4938 26.2393C32.4938 26.2393 41.4996 22.8799 42.0121 22.7947C41.6156 21.9817 41.2089 21.3829 41.4057 21.2875C41.7581 21.1114 41.9313 18.6472 41.9313 17.9471C41.9313 17.2427 44.0429 17.771 43.3381 17.0651C42.6362 16.3636 42.8124 12.3202 43.1634 11.4382C43.5158 10.5591 44.3954 11.4382 44.3954 10.7367C44.3954 10.0322 43.3381 7.74709 42.8124 7.04116C42.4321 6.5363 39.2941 5.28147 38.4145 5.10976C37.5349 4.93511 36.1281 3.88135 35.25 3.88135Z" fill="white"/>
<path fill-rule="evenodd" clip-rule="evenodd" d="M35.25 3.88135C34.7904 3.88135 33.7008 3.15634 32.7684 2.46802C32.1061 3.2077 29.7757 3.08442 28.6318 3.08442C27.4116 3.08442 28.4791 4.75899 27.7155 5.36953C26.9519 5.97713 26.648 6.89146 27.2574 7.1938C27.8697 7.50347 27.1061 10.0924 27.1061 11.0067C27.1061 11.921 25.8844 13.9009 26.3425 14.2047C26.8007 14.5114 27.5613 16.6439 28.6304 16.9492C29.6979 17.2544 30.4585 16.186 30.9152 16.186C31.3734 16.186 31.3734 17.5597 31.3734 18.6252C31.3734 19.6907 30.7654 20.1486 30.7654 20.1486C30.7654 20.1486 29.0856 20.7577 28.3249 20.1486C27.5628 19.541 26.9519 17.8635 26.9519 17.2529C26.9519 16.6424 25.1238 16.6424 24.3602 16.6424C23.5995 16.6424 22.8374 15.2702 22.5349 14.6596C22.2251 14.052 21.3117 14.8123 21.3117 15.2702C21.3117 15.7281 20.5496 15.7281 19.7875 15.7281C19.0254 15.7281 17.4997 14.5099 16.8903 14.8137C16.2809 15.1205 15.67 13.7497 15.8227 13.1377C15.9755 12.5272 14.2971 12.988 13.6891 13.2918C13.0783 13.5941 12.7743 12.5272 12.7743 12.5272C12.7743 12.5272 12.4219 11.9166 11.8742 11.6495L11.1473 18.474L10.2677 19.3546L5.16492 19.1785L4.81396 30.6069L8.73466 35.9638C10.7772 35.547 15.0107 34.9629 15.0107 35.6732C15.0107 35.8875 15.1179 36.1678 15.2868 36.4657C15.999 36.2955 16.67 36.1517 17.0401 36.1972C17.8565 36.2984 20.5995 37.314 21.4116 36.906C22.2236 36.5024 23.6495 33.4541 24.9696 33.0476C26.2897 32.6411 28.1208 31.2175 28.1208 30.6113C28.1208 30.0008 28.1208 29.3903 30.0518 28.881L32.9989 28.7856L33.2016 28.7827L32.4938 26.2393C32.4938 26.2393 41.4996 22.8799 42.0121 22.7947C41.6156 21.9817 41.2089 21.3829 41.4057 21.2875C41.7581 21.1114 41.9313 18.6472 41.9313 17.9471C41.9313 17.2427 44.0429 17.771 43.3381 17.0651C42.6362 16.3636 42.8124 12.3202 43.1634 11.4382C43.5158 10.5591 44.3954 11.4382 44.3954 10.7367C44.3954 10.0322 43.3381 7.74709 42.8124 7.04116C42.4321 6.5363 39.2941 5.28147 38.4145 5.10976C37.5349 4.93511 36.1281 3.88135 35.25 3.88135Z" stroke="#868686" stroke-width="0.25"/>
</g>
<defs>
<filter id="filter0_d_6252_1042" x="0.6875" y="0.299927" width="47.833" height="42.8273" filterUnits="userSpaceOnUse" color-interpolation-filters="sRGB">
<feFlood flood-opacity="0" result="BackgroundImageFix"/>
<feColorMatrix in="SourceAlpha" type="matrix" values="0 0 0 0 0 0 0 0 0 0 0 0 0 0 0 0 0 0 127 0" result="hardAlpha"/>
<feOffset dy="2"/>
<feGaussianBlur stdDeviation="2"/>
<feColorMatrix type="matrix" values="0 0 0 0 0 0 0 0 0 0 0 0 0 0 0 0 0 0 0.01 0"/>
<feBlend mode="normal" in2="BackgroundImageFix" result="effect1_dropShadow_6252_1042"/>
<feBlend mode="normal" in="SourceGraphic" in2="effect1_dropShadow_6252_1042" result="shape"/>
</filter>
</defs>
</svg>
