<svg width="59" height="44" viewBox="0 0 59 44" fill="none" xmlns="http://www.w3.org/2000/svg">
<g filter="url(#filter0_d_6252_1356)">
<path fill-rule="evenodd" clip-rule="evenodd" d="M52.1705 7.4611C51.4598 7.56384 51.6125 6.95183 50.8518 6.49687C50.2483 6.13289 48.4348 7.78251 47.0956 8.95809C46.4686 9.16796 45.8504 9.40278 45.3085 9.56422C44.5611 9.7873 43.9517 9.85921 43.6389 9.49671C42.8239 8.54715 44.9957 6.10501 43.5024 5.42843C42.0104 4.75039 43.3658 2.71331 42.1441 2.58122C40.9223 2.44473 39.0251 4.61536 39.0251 5.56345C39.0251 6.51154 35.7638 6.24003 35.7638 7.19253C35.7638 8.14062 32.7814 7.05457 32.2351 8.14062C31.6947 9.22667 30.2014 7.32608 29.2528 7.32608C28.3012 7.32608 27.6213 5.97146 26.404 6.37652C25.1838 6.78452 24.5039 5.97292 23.5509 5.83497C22.6023 5.70141 21.9224 7.8691 20.8401 7.46257C19.7535 7.05604 19.2102 9.49818 18.8005 10.8572C18.3938 12.2118 13.7785 12.2118 13.9165 13.7029C14.0516 15.1955 11.2014 15.74 10.9297 14.7875C10.6581 13.8394 8.89304 14.3825 8.48629 14.1095C8.081 13.8394 6.85927 14.3825 6.9929 15.7386C7.128 17.0932 5.77264 17.9062 5.63608 18.4493C5.50098 18.9938 4.68747 20.6199 5.23079 21.433C5.77411 22.246 4.55091 23.6036 5.23079 25.0962C5.91067 26.5888 5.50245 28.4879 5.77264 29.0309C6.04283 29.5739 8.61992 29.3039 9.1647 30.7921C9.70802 32.2846 5.77264 34.8633 5.63755 35.6749C5.58175 36.0139 5.90774 36.4043 6.33358 36.8182C7.8813 36.8827 9.84165 37.075 11.6199 37.3979C13.8534 37.8044 25.2381 36.0799 25.4393 35.6705C25.6463 35.2654 25.0369 32.722 25.1353 32.2201C25.2381 31.7093 26.661 30.4912 27.8812 30.5895C29.1 30.6952 30.2175 30.8948 30.2175 29.9819C30.2175 29.0676 33.5729 27.9507 33.8768 28.7623C34.1852 29.5783 35.4025 29.2745 35.5009 27.2404C35.6037 25.2077 35.4025 23.6858 36.6213 23.583C37.843 23.4832 39.0618 22.77 38.959 22.1594C38.8548 21.5533 37.4348 20.3322 37.843 19.9242C38.2469 19.5206 41.2982 20.9428 41.7021 20.027C42.1118 19.1126 41.4994 18.0956 42.0075 17.284C42.517 16.4709 43.7358 15.6593 43.636 14.8477C43.5332 14.0346 43.7344 13.5268 43.0222 12.815C42.3115 12.1047 42.6169 11.1904 43.5332 11.0876C43.6903 11.0715 43.868 10.9864 44.0457 10.8704C44.7505 10.7295 45.3584 10.593 45.8225 10.2496C47.0941 9.30445 49.5258 8.52807 50.4642 8.87003C51.2277 9.14595 52.9164 8.91406 53.9517 7.8148C53.3393 7.52861 52.5934 7.4024 52.1705 7.4611Z" fill="white"/>
<path fill-rule="evenodd" clip-rule="evenodd" d="M52.1705 7.4611C51.4598 7.56384 51.6125 6.95183 50.8518 6.49687C50.2483 6.13289 48.4348 7.78251 47.0956 8.95809C46.4686 9.16796 45.8504 9.40278 45.3085 9.56422C44.5611 9.7873 43.9517 9.85921 43.6389 9.49671C42.8239 8.54715 44.9957 6.10501 43.5024 5.42843C42.0104 4.75039 43.3658 2.71331 42.1441 2.58122C40.9223 2.44473 39.0251 4.61536 39.0251 5.56345C39.0251 6.51154 35.7638 6.24003 35.7638 7.19253C35.7638 8.14062 32.7814 7.05457 32.2351 8.14062C31.6947 9.22667 30.2014 7.32608 29.2528 7.32608C28.3012 7.32608 27.6213 5.97146 26.404 6.37652C25.1838 6.78452 24.5039 5.97292 23.5509 5.83497C22.6023 5.70141 21.9224 7.8691 20.8401 7.46257C19.7535 7.05604 19.2102 9.49818 18.8005 10.8572C18.3938 12.2118 13.7785 12.2118 13.9165 13.7029C14.0516 15.1955 11.2014 15.74 10.9297 14.7875C10.6581 13.8394 8.89304 14.3825 8.48629 14.1095C8.081 13.8394 6.85927 14.3825 6.9929 15.7386C7.128 17.0932 5.77264 17.9062 5.63608 18.4493C5.50098 18.9938 4.68747 20.6199 5.23079 21.433C5.77411 22.246 4.55091 23.6036 5.23079 25.0962C5.91067 26.5888 5.50245 28.4879 5.77264 29.0309C6.04283 29.5739 8.61992 29.3039 9.1647 30.7921C9.70802 32.2846 5.77264 34.8633 5.63755 35.6749C5.58175 36.0139 5.90774 36.4043 6.33358 36.8182C7.8813 36.8827 9.84165 37.075 11.6199 37.3979C13.8534 37.8044 25.2381 36.0799 25.4393 35.6705C25.6463 35.2654 25.0369 32.722 25.1353 32.2201C25.2381 31.7093 26.661 30.4912 27.8812 30.5895C29.1 30.6952 30.2175 30.8948 30.2175 29.9819C30.2175 29.0676 33.5729 27.9507 33.8768 28.7623C34.1852 29.5783 35.4025 29.2745 35.5009 27.2404C35.6037 25.2077 35.4025 23.6858 36.6213 23.583C37.843 23.4832 39.0618 22.77 38.959 22.1594C38.8548 21.5533 37.4348 20.3322 37.843 19.9242C38.2469 19.5206 41.2982 20.9428 41.7021 20.027C42.1118 19.1126 41.4994 18.0956 42.0075 17.284C42.517 16.4709 43.7358 15.6593 43.636 14.8477C43.5332 14.0346 43.7344 13.5268 43.0222 12.815C42.3115 12.1047 42.6169 11.1904 43.5332 11.0876C43.6903 11.0715 43.868 10.9864 44.0457 10.8704C44.7505 10.7295 45.3584 10.593 45.8225 10.2496C47.0941 9.30445 49.5258 8.52807 50.4642 8.87003C51.2277 9.14595 52.9164 8.91406 53.9517 7.8148C53.3393 7.52861 52.5934 7.4024 52.1705 7.4611Z" stroke="#868686" stroke-width="0.25"/>
</g>
<defs>
<filter id="filter0_d_6252_1356" x="0.894043" y="0.450073" width="57.2671" height="43.1344" filterUnits="userSpaceOnUse" color-interpolation-filters="sRGB">
<feFlood flood-opacity="0" result="BackgroundImageFix"/>
<feColorMatrix in="SourceAlpha" type="matrix" values="0 0 0 0 0 0 0 0 0 0 0 0 0 0 0 0 0 0 127 0" result="hardAlpha"/>
<feOffset dy="2"/>
<feGaussianBlur stdDeviation="2"/>
<feColorMatrix type="matrix" values="0 0 0 0 0 0 0 0 0 0 0 0 0 0 0 0 0 0 0.01 0"/>
<feBlend mode="normal" in2="BackgroundImageFix" result="effect1_dropShadow_6252_1356"/>
<feBlend mode="normal" in="SourceGraphic" in2="effect1_dropShadow_6252_1356" result="shape"/>
</filter>
</defs>
</svg>
