<svg width="21" height="19" viewBox="0 0 21 19" fill="none" xmlns="http://www.w3.org/2000/svg">
<g filter="url(#filter0_d_6252_1352)">
<path fill-rule="evenodd" clip-rule="evenodd" d="M15.5127 9.98147C15.5127 9.17281 13.3791 8.45807 13.3791 7.44393C13.3791 6.42686 11.9562 5.51253 12.1589 4.70093C12.2998 4.14029 11.5818 3.3463 11.2147 2.70788C10.2763 2.48774 9.0825 2.28667 8.16474 2.39381C6.89161 2.54498 5.93861 2.90895 4.68457 3.09827C5.35711 4.11534 4.88281 4.39713 5.45109 5.81926C6.05902 7.3412 7.58471 6.5296 8.09279 6.93467C8.28955 7.09317 8.51422 7.61858 8.72127 8.19683C8.81672 8.18949 8.90923 8.17628 9.04432 8.20123C9.60673 8.3025 9.82112 8.59896 9.94887 8.96147C10.6611 9.12584 11.2984 9.60429 11.6302 9.75252C12.0707 9.94625 12.363 9.35919 13.2426 10.3381C14.012 11.1893 14.0693 11.408 13.9782 12.1682C14.7638 12.1741 15.5054 11.9936 16.1941 11.7001C15.8461 11.0807 15.5127 10.3777 15.5127 9.98147Z" fill="white"/>
<path fill-rule="evenodd" clip-rule="evenodd" d="M15.5127 9.98147C15.5127 9.17281 13.3791 8.45807 13.3791 7.44393C13.3791 6.42686 11.9562 5.51253 12.1589 4.70093C12.2998 4.14029 11.5818 3.3463 11.2147 2.70788C10.2763 2.48774 9.0825 2.28667 8.16474 2.39381C6.89161 2.54498 5.93861 2.90895 4.68457 3.09827C5.35711 4.11534 4.88281 4.39713 5.45109 5.81926C6.05902 7.3412 7.58471 6.5296 8.09279 6.93467C8.28955 7.09317 8.51422 7.61858 8.72127 8.19683C8.81672 8.18949 8.90923 8.17628 9.04432 8.20123C9.60673 8.3025 9.82112 8.59896 9.94887 8.96147C10.6611 9.12584 11.2984 9.60429 11.6302 9.75252C12.0707 9.94625 12.363 9.35919 13.2426 10.3381C14.012 11.1893 14.0693 11.408 13.9782 12.1682C14.7638 12.1741 15.5054 11.9936 16.1941 11.7001C15.8461 11.0807 15.5127 10.3777 15.5127 9.98147Z" stroke="#868686" stroke-width="0.25"/>
</g>
<defs>
<filter id="filter0_d_6252_1352" x="0.472168" y="0.239136" width="19.8994" height="18.0542" filterUnits="userSpaceOnUse" color-interpolation-filters="sRGB">
<feFlood flood-opacity="0" result="BackgroundImageFix"/>
<feColorMatrix in="SourceAlpha" type="matrix" values="0 0 0 0 0 0 0 0 0 0 0 0 0 0 0 0 0 0 127 0" result="hardAlpha"/>
<feOffset dy="2"/>
<feGaussianBlur stdDeviation="2"/>
<feColorMatrix type="matrix" values="0 0 0 0 0 0 0 0 0 0 0 0 0 0 0 0 0 0 0.01 0"/>
<feBlend mode="normal" in2="BackgroundImageFix" result="effect1_dropShadow_6252_1352"/>
<feBlend mode="normal" in="SourceGraphic" in2="effect1_dropShadow_6252_1352" result="shape"/>
</filter>
</defs>
</svg>
