<svg width="79" height="145" viewBox="0 0 79 145" fill="none" xmlns="http://www.w3.org/2000/svg">
<g filter="url(#filter0_d_6252_1145)">
<path fill-rule="evenodd" clip-rule="evenodd" d="M30.9114 136.25C29.0068 136.174 25.2712 132.672 24.1273 131.756C22.9848 130.84 23.8233 129.925 22.4518 130.156C21.0788 130.382 21.9936 129.088 22.7558 128.708C23.4562 128.356 22.4826 127.057 21.5502 126.845C21.4489 128.891 21.023 138.073 21.5737 138.161C22.1302 138.255 26.1757 137.69 27.3666 138.466C27.8262 138.614 28.4532 138.984 28.9305 138.46C29.6941 137.622 31.9789 138.079 33.2007 137.317C34.4195 136.555 32.8189 136.329 30.9114 136.25ZM73.1458 15.9496C72.7992 15.7765 71.7449 15.7735 70.8844 15.8029C70.8815 15.932 70.8844 16.0494 70.8976 16.1536C71.1061 17.5978 70.1766 21.3094 69.1443 21.2067C68.112 21.1054 67.2882 22.7536 66.4615 22.5481C65.6363 22.3397 64.4997 23.7853 63.4674 23.1645C62.4366 22.5481 60.9931 23.3729 60.1678 22.8534C59.3411 22.3397 56.9667 22.7536 56.9667 22.1357C56.9667 21.5164 58.1032 21.7218 58.1032 19.8638C58.1032 18.0087 61.1957 15.9452 60.7861 15.2261C60.3749 14.5011 55.1106 12.9557 54.3896 12.0281C53.6657 11.0991 52.6348 10.2714 50.5702 10.0688C48.5056 9.86044 48.6113 8.83016 46.7508 7.69568C45.2017 6.74759 42.7934 4.22473 41.9785 2.81286C40.72 2.68371 38.9388 2.41807 38.5835 2.84368C38.0754 3.45275 37.2634 6.29849 36.5512 4.87635C35.8404 3.45275 34.1106 3.45275 32.5879 3.24875C31.0637 3.04768 31.1665 1.62702 29.538 3.35295C28.814 4.12052 27.8728 4.88076 27.0211 5.43112C26.9198 7.07193 26.6202 8.92115 26.3177 9.44803C25.9051 10.1716 22.4998 11.7185 22.397 12.5418C22.2928 13.3666 22.8096 14.5011 22.19 15.0192C21.5703 15.5328 23.6334 18.1085 22.4998 18.7293C21.3632 19.3516 23.3251 20.3819 22.6026 20.9998C21.8801 21.6162 20.5395 21.9273 20.5395 22.6465C20.5395 23.3729 20.4367 25.1238 19.5072 25.5392C18.5776 25.9516 17.958 27.497 17.958 28.6329C17.958 29.7659 16.513 29.0409 17.0314 30.488C17.5453 31.9322 18.165 33.6904 17.0314 33.9971C15.8948 34.3053 16.2047 36.68 15.585 36.68C14.9653 36.68 14.6555 39.1529 15.585 40.3887C16.5145 41.6288 16.7216 42.6591 16.7216 43.7936C16.7216 44.9251 17.958 45.5459 17.5453 46.7831C17.1327 48.0218 17.3398 49.1563 16.6173 49.6729C15.8948 50.188 16.513 51.7335 15.5835 52.1473C14.6555 52.5627 16.306 55.8604 15.5835 56.4798C14.8611 57.1021 13.005 57.6143 13.005 59.8847C13.005 62.1551 13.3545 63.4349 13.1078 64.4226C12.9022 65.2489 14.1401 65.0376 13.9345 66.3834C13.7274 67.7204 12.0755 66.897 11.9756 67.7204C11.8728 68.5452 12.3882 70.1963 11.7686 70.3005C11.1489 70.4032 10.839 71.0211 10.839 72.4667C10.839 73.9079 10.0123 74.1163 9.91247 74.8399C9.80821 75.5605 10.6335 76.3882 10.6335 77.2086C10.6335 78.0364 11.1474 80.819 10.4264 80.9232C9.70395 81.0259 9.29279 84.1212 9.91247 84.5336C10.5292 84.9445 10.5292 85.7723 10.2194 86.3916C9.91247 87.008 11.6628 87.6244 10.7348 88.5578C9.80674 89.4854 10.5439 90.6756 11.7686 90.3087C12.8009 90.002 13.4191 91.8541 12.284 91.8541C11.1489 91.8541 10.0123 91.8541 10.9418 92.5791C11.8713 93.2983 12.7994 94.33 11.4587 94.8481C10.1166 95.3633 11.2517 96.2893 10.9418 97.528C10.632 98.7667 11.8713 99.9012 10.839 100.211C9.80674 100.518 11.2517 102.377 9.80674 102.584C8.36328 102.788 9.29132 104.129 8.36328 104.854C7.4323 105.574 9.60116 106.812 8.4646 107.531C7.33098 108.251 8.15623 109.902 7.02114 109.902C5.88458 109.902 5.26637 111.453 5.16358 112.172C5.06079 112.891 4.33833 114.341 5.26637 115.37C6.19441 116.4 5.05932 117.23 5.88311 117.64C6.7113 118.053 9.4969 117.432 9.08281 118.671C8.67018 119.911 8.77444 122.592 9.29132 122.592C9.80674 122.592 10.1166 124.136 10.9418 124.033C11.7686 123.931 15.4822 123.52 17.0314 123.931C17.7964 124.133 18.4337 124.59 18.8845 124.998C19.7685 124.609 21.7039 125.869 22.143 125.434C22.6775 124.899 20.2384 122.92 20.3148 122.236C20.3911 121.547 19.933 120.403 19.933 119.642C19.933 118.881 19.5512 117.206 20.6202 116.44C21.6878 115.678 21.7627 114.918 22.4499 115.072C23.1356 115.223 24.5071 114.46 24.5835 112.631C24.6584 110.803 25.4983 110.119 27.024 108.82C28.6833 107.413 31.4425 106.081 31.0622 105.468C30.6804 104.862 31.6716 102.879 31.6716 102.119C31.6716 101.354 29.0798 101.508 28.2414 101.203C27.4029 100.898 24.3544 98.7652 25.8787 95.9488C27.4029 93.1266 30.604 92.8213 31.5203 92.745C32.4352 92.6701 31.5952 91.3742 32.3573 90.9178C33.1195 90.4614 33.2722 89.7011 33.2722 88.5564C33.2722 87.2619 33.2722 85.2043 34.6437 85.0502C36.0167 84.8976 36.397 84.1359 35.56 83.9113C34.7215 83.6794 34.3383 82.6917 35.7127 82.5376C37.0842 82.385 36.6275 83.678 37.6172 83.678C38.6084 83.678 40.2854 82.0019 38.9902 81.0113C37.6936 80.0206 37.3118 81.4692 36.6275 81.6233C35.9403 81.7744 35.4058 80.7104 34.7215 80.7104C34.0343 80.7104 34.4939 78.8025 34.1885 78.1186C33.883 77.4302 33.4264 75.7571 34.0358 74.9177C34.6466 74.0796 37.2384 76.2121 39.5262 76.3647C41.8125 76.5189 43.4895 75.2259 43.4895 74.3834C43.4895 73.544 42.4205 72.0191 43.7934 71.1092C45.1664 70.1934 44.024 69.8866 43.6422 68.6699C43.2604 67.4518 44.2516 66.6857 44.8625 67.2977C45.4719 67.9082 49.9682 67.5281 53.7038 66.7679C57.438 66.0033 60.0328 64.6325 60.2589 63.567C60.488 62.4971 62.8521 59.9845 63.3852 59.0716C63.9197 58.1558 63.4615 57.0111 61.9373 56.7851C60.4116 56.5576 60.4894 54.8023 61.3279 53.8131C62.1664 52.8239 60.8698 51.9081 59.4219 51.7555C57.974 51.6028 55.6862 50.6151 56.9814 49.3985C57.6069 48.8055 57.9123 48.9274 58.2163 49.193C58.4336 48.6103 58.6436 47.922 58.4703 47.7518C58.1634 47.4421 57.3911 47.8296 57.4689 45.6663C57.5452 43.5059 58.3162 43.9697 58.3969 41.1885C58.4704 38.4103 59.5526 36.7915 59.5526 35.3224C59.5526 33.8577 62.1811 32.1626 63.6465 29.7659C65.115 27.3722 68.2809 24.3621 69.5937 23.5124C70.9064 22.6626 73.4556 21.9684 73.7655 21.1994C74.0724 20.4259 73.764 16.2622 73.1458 15.9496Z" fill="white"/>
<path d="M30.9114 136.25L30.9166 136.125H30.9164L30.9114 136.25ZM24.1273 131.756L24.0491 131.854L24.0491 131.854L24.1273 131.756ZM22.4518 130.156L22.4721 130.28L22.4726 130.28L22.4518 130.156ZM22.7558 128.708L22.8115 128.82L22.8119 128.82L22.7558 128.708ZM21.5502 126.845L21.5778 126.724L21.4327 126.691L21.4253 126.839L21.5502 126.845ZM21.5737 138.161L21.5945 138.038L21.5934 138.037L21.5737 138.161ZM27.3666 138.466L27.2983 138.571L27.3123 138.58L27.3282 138.585L27.3666 138.466ZM28.9305 138.46L28.8381 138.376L28.8381 138.376L28.9305 138.46ZM33.2007 137.317L33.2668 137.423L33.2669 137.423L33.2007 137.317ZM73.1458 15.9496L73.2022 15.8381L73.2017 15.8378L73.1458 15.9496ZM70.8844 15.8029L70.8801 15.678L70.7621 15.682L70.7594 15.8L70.8844 15.8029ZM70.8976 16.1536L70.7736 16.1694L70.7739 16.1715L70.8976 16.1536ZM69.1443 21.2067L69.1567 21.0823L69.1565 21.0823L69.1443 21.2067ZM66.4615 22.5481L66.4309 22.6693L66.4314 22.6694L66.4615 22.5481ZM63.4674 23.1645L63.5318 23.0574L63.5315 23.0572L63.4674 23.1645ZM60.1678 22.8534L60.2344 22.7476L60.2338 22.7472L60.1678 22.8534ZM60.7861 15.2261L60.6773 15.2878L60.6774 15.288L60.7861 15.2261ZM54.3896 12.0281L54.4883 11.9514L54.4882 11.9513L54.3896 12.0281ZM50.5702 10.0688L50.5577 10.1932L50.558 10.1932L50.5702 10.0688ZM46.7508 7.69568L46.6856 7.8023L46.6858 7.8024L46.7508 7.69568ZM41.9785 2.81286L42.0867 2.75037L42.0548 2.69504L41.9912 2.68852L41.9785 2.81286ZM38.5835 2.84368L38.4875 2.76357L38.4875 2.76361L38.5835 2.84368ZM36.5512 4.87635L36.4393 4.93219L36.4394 4.93233L36.5512 4.87635ZM32.5879 3.24875L32.6045 3.12486L32.6042 3.12482L32.5879 3.24875ZM29.538 3.35295L29.4471 3.26717L29.447 3.26719L29.538 3.35295ZM27.0211 5.43112L26.9532 5.32613L26.9002 5.3604L26.8963 5.42342L27.0211 5.43112ZM26.3177 9.44803L26.2093 9.38579L26.2091 9.38611L26.3177 9.44803ZM22.397 12.5418L22.521 12.5575L22.5211 12.5573L22.397 12.5418ZM22.19 15.0192L22.2697 15.1154L22.2701 15.1151L22.19 15.0192ZM22.4998 18.7293L22.5598 18.839L22.5598 18.839L22.4998 18.7293ZM22.6026 20.9998L22.6837 21.0949L22.6838 21.0948L22.6026 20.9998ZM19.5072 25.5392L19.5579 25.6534L19.5582 25.6533L19.5072 25.5392ZM17.0314 30.488L17.1492 30.4461L17.1491 30.4459L17.0314 30.488ZM17.0314 33.9971L16.9987 33.8765L16.9987 33.8765L17.0314 33.9971ZM15.585 40.3887L15.685 40.3137L15.6849 40.3135L15.585 40.3887ZM17.5453 46.7831L17.4268 46.7436L17.4267 46.7436L17.5453 46.7831ZM16.6173 49.6729L16.6899 49.7747L16.69 49.7746L16.6173 49.6729ZM15.5835 52.1473L15.5327 52.0331L15.5325 52.0332L15.5835 52.1473ZM15.5835 56.4798L15.5022 56.3849L15.5019 56.3851L15.5835 56.4798ZM13.1078 64.4226L12.9865 64.3923L12.9865 64.3924L13.1078 64.4226ZM13.9345 66.3834L14.058 66.4025L14.0581 66.4022L13.9345 66.3834ZM11.9756 67.7204L12.0996 67.7358L12.0997 67.7354L11.9756 67.7204ZM11.7686 70.3005L11.789 70.4238L11.7893 70.4238L11.7686 70.3005ZM9.91247 74.8399L10.0362 74.8578L10.0363 74.857L9.91247 74.8399ZM10.4264 80.9232L10.444 81.047L10.4443 81.0469L10.4264 80.9232ZM9.91247 84.5336L9.98178 84.4296L9.98172 84.4295L9.91247 84.5336ZM10.2194 86.3916L10.1076 86.3357L10.1075 86.3359L10.2194 86.3916ZM10.7348 88.5578L10.8232 88.6462L10.8234 88.646L10.7348 88.5578ZM11.7686 90.3087L11.733 90.1889L11.7327 90.189L11.7686 90.3087ZM10.9418 92.5791L10.865 92.6777L10.8653 92.678L10.9418 92.5791ZM11.4587 94.8481L11.5035 94.9648L11.5038 94.9647L11.4587 94.8481ZM10.839 100.211L10.8746 100.331L10.875 100.331L10.839 100.211ZM9.80674 102.584L9.82423 102.708L9.82446 102.708L9.80674 102.584ZM8.36328 104.854L8.43969 104.953L8.44023 104.953L8.36328 104.854ZM8.4646 107.531L8.39776 107.426L8.39764 107.426L8.4646 107.531ZM5.26637 115.37L5.35925 115.286L5.35919 115.286L5.26637 115.37ZM5.88311 117.64L5.82731 117.752L5.82739 117.752L5.88311 117.64ZM9.08281 118.671L8.96426 118.631L8.9642 118.631L9.08281 118.671ZM10.9418 124.033L10.9264 123.909H10.9264L10.9418 124.033ZM17.0314 123.931L16.9993 124.052L16.9994 124.052L17.0314 123.931ZM18.8845 124.998L18.8007 125.09L18.8607 125.145L18.9349 125.112L18.8845 124.998ZM22.143 125.434L22.231 125.522L22.2313 125.522L22.143 125.434ZM20.3148 122.236L20.439 122.249L20.439 122.249L20.3148 122.236ZM20.6202 116.44L20.5476 116.338L20.5474 116.338L20.6202 116.44ZM22.4499 115.072L22.4225 115.194L22.423 115.194L22.4499 115.072ZM24.5835 112.631L24.7084 112.637L24.7084 112.637L24.5835 112.631ZM27.024 108.82L26.9432 108.725L26.943 108.725L27.024 108.82ZM31.0622 105.468L31.1684 105.402L31.168 105.401L31.0622 105.468ZM25.8787 95.9488L25.9886 96.0083L25.9886 96.0082L25.8787 95.9488ZM31.5203 92.745L31.5101 92.6204L31.51 92.6204L31.5203 92.745ZM34.6437 85.0502L34.6299 84.926L34.6297 84.926L34.6437 85.0502ZM35.56 83.9113L35.5267 84.0318L35.5276 84.032L35.56 83.9113ZM35.7127 82.5376L35.6989 82.4134L35.6988 82.4134L35.7127 82.5376ZM38.9902 81.0113L39.0662 80.912L39.0661 80.9119L38.9902 81.0113ZM36.6275 81.6233L36.6544 81.7454L36.655 81.7452L36.6275 81.6233ZM34.1885 78.1186L34.0742 78.1693L34.0743 78.1695L34.1885 78.1186ZM34.0358 74.9177L33.9347 74.844L33.9346 74.8442L34.0358 74.9177ZM39.5262 76.3647L39.5346 76.24L39.5345 76.24L39.5262 76.3647ZM43.7934 71.1092L43.8625 71.2133L43.8628 71.2131L43.7934 71.1092ZM43.6422 68.6699L43.5229 68.7073L43.5229 68.7074L43.6422 68.6699ZM44.8625 67.2977L44.9509 67.2094L44.8625 67.2977ZM53.7038 66.7679L53.7288 66.8904L53.7289 66.8904L53.7038 66.7679ZM60.2589 63.567L60.1367 63.5408L60.1366 63.541L60.2589 63.567ZM63.3852 59.0716L63.4931 59.1347L63.4931 59.1346L63.3852 59.0716ZM61.9373 56.7851L61.9189 56.9087L61.919 56.9087L61.9373 56.7851ZM56.9814 49.3985L57.067 49.4896L57.0674 49.4892L56.9814 49.3985ZM58.2163 49.193L58.1341 49.2871L58.2702 49.4061L58.3334 49.2367L58.2163 49.193ZM58.4703 47.7518L58.3816 47.8398L58.3827 47.8409L58.4703 47.7518ZM57.4689 45.6663L57.5938 45.6708L57.5938 45.6707L57.4689 45.6663ZM58.3969 41.1885L58.5219 41.1922L58.5219 41.1918L58.3969 41.1885ZM63.6465 29.7659L63.54 29.7006L63.5399 29.7007L63.6465 29.7659ZM73.7655 21.1994L73.8814 21.2461L73.8817 21.2455L73.7655 21.1994ZM30.9164 136.125C30.4708 136.107 29.9017 135.886 29.2695 135.535C28.6409 135.186 27.965 134.716 27.3097 134.218C25.9923 133.217 24.7902 132.127 24.2054 131.659L24.0491 131.854C24.6082 132.301 25.8459 133.42 27.1584 134.417C27.8181 134.919 28.5047 135.396 29.148 135.754C29.7877 136.109 30.3997 136.355 30.9064 136.375L30.9164 136.125ZM24.2054 131.659C23.6683 131.228 23.6015 130.809 23.494 130.486C23.4402 130.325 23.3677 130.16 23.1884 130.068C23.018 129.981 22.778 129.974 22.431 130.033L22.4726 130.28C22.8113 130.222 22.9808 130.243 23.0746 130.291C23.1596 130.335 23.206 130.413 23.2568 130.565C23.3586 130.871 23.4438 131.368 24.0491 131.854L24.2054 131.659ZM22.4315 130.033C22.267 130.06 22.1447 130.063 22.0565 130.051C21.9682 130.039 21.9235 130.013 21.9013 129.991C21.865 129.954 21.8452 129.872 21.9173 129.71C21.9852 129.557 22.117 129.38 22.282 129.215C22.4464 129.051 22.6358 128.907 22.8115 128.82L22.7 128.596C22.4947 128.698 22.2839 128.859 22.1053 129.038C21.9273 129.216 21.7734 129.418 21.6889 129.609C21.6086 129.789 21.57 130.013 21.7244 130.167C21.7977 130.241 21.9008 130.282 22.0223 130.298C22.1439 130.315 22.2933 130.309 22.4721 130.28L22.4315 130.033ZM22.8119 128.82C22.9193 128.766 23.0005 128.69 23.0526 128.596C23.1044 128.502 23.1233 128.398 23.1189 128.293C23.1102 128.085 23.0111 127.86 22.8682 127.653C22.5827 127.239 22.0818 126.838 21.5778 126.724L21.5225 126.967C21.951 127.064 22.4031 127.419 22.6624 127.795C22.7919 127.983 22.8632 128.162 22.8691 128.303C22.872 128.372 22.8594 128.429 22.834 128.475C22.8089 128.52 22.7674 128.562 22.6996 128.596L22.8119 128.82ZM21.4253 126.839C21.3747 127.862 21.2428 130.671 21.1925 133.235C21.1673 134.517 21.1625 135.739 21.1985 136.648C21.2166 137.102 21.2449 137.482 21.2869 137.752C21.3077 137.887 21.3329 138.001 21.3644 138.085C21.3801 138.127 21.3997 138.169 21.4257 138.202C21.4511 138.236 21.4927 138.275 21.5539 138.284L21.5934 138.037C21.6202 138.042 21.6293 138.057 21.6241 138.05C21.6193 138.044 21.6101 138.029 21.5986 137.998C21.576 137.937 21.5539 137.843 21.5339 137.714C21.4942 137.458 21.4663 137.09 21.4483 136.638C21.4126 135.737 21.4173 134.52 21.4424 133.24C21.4927 130.68 21.6244 127.874 21.675 126.852L21.4253 126.839ZM21.5529 138.284C21.6366 138.298 21.773 138.299 21.9372 138.294C22.1055 138.289 22.3155 138.278 22.5534 138.264C23.0304 138.236 23.6231 138.199 24.2356 138.183C24.8483 138.166 25.4769 138.172 26.0244 138.228C26.5771 138.286 27.0273 138.394 27.2983 138.571L27.4349 138.361C27.1105 138.15 26.6084 138.038 26.0502 137.98C25.4869 137.921 24.846 137.916 24.229 137.933C23.6116 137.949 23.0142 137.987 22.5389 138.014C22.3007 138.028 22.094 138.039 21.9298 138.044C21.7617 138.049 21.6499 138.047 21.5945 138.038L21.5529 138.284ZM27.3282 138.585C27.441 138.621 27.5573 138.669 27.6952 138.719C27.8282 138.767 27.9731 138.814 28.1215 138.839C28.4243 138.889 28.748 138.846 29.0229 138.544L28.8381 138.376C28.6358 138.598 28.4073 138.633 28.1624 138.592C28.0369 138.571 27.909 138.53 27.7803 138.484C27.6565 138.439 27.522 138.385 27.405 138.347L27.3282 138.585ZM29.0229 138.544C29.1896 138.362 29.4475 138.241 29.7789 138.156C30.1094 138.072 30.4959 138.027 30.9068 137.984C31.3142 137.942 31.7447 137.901 32.1493 137.822C32.5539 137.743 32.9428 137.625 33.2668 137.423L33.1345 137.211C32.8477 137.39 32.4928 137.5 32.1015 137.576C31.7103 137.653 31.2927 137.693 30.8807 137.736C30.4722 137.778 30.068 137.825 29.7171 137.914C29.3672 138.003 29.0532 138.14 28.8381 138.376L29.0229 138.544ZM33.2669 137.423C33.4242 137.325 33.544 137.23 33.6246 137.138C33.7045 137.046 33.7574 136.943 33.7501 136.832C33.7427 136.718 33.6749 136.631 33.5908 136.566C33.5072 136.502 33.3953 136.451 33.2678 136.409C32.7621 136.241 31.8671 136.165 30.9166 136.125L30.9062 136.375C31.8632 136.415 32.7222 136.491 33.189 136.646C33.3046 136.685 33.3869 136.725 33.439 136.765C33.4904 136.804 33.4996 136.833 33.5006 136.848C33.5018 136.866 33.4947 136.907 33.4363 136.973C33.3786 137.04 33.2818 137.119 33.1344 137.211L33.2669 137.423ZM73.2017 15.8378C73.0968 15.7854 72.9499 15.7505 72.7858 15.7259C72.6189 15.7009 72.423 15.6849 72.2135 15.6754C71.7942 15.6565 71.3117 15.6632 70.8801 15.678L70.8887 15.9278C71.3176 15.9132 71.7926 15.9067 72.2022 15.9252C72.4071 15.9344 72.5936 15.9499 72.7487 15.9731C72.9067 15.9969 73.0215 16.0273 73.0899 16.0615L73.2017 15.8378ZM70.7594 15.8C70.7564 15.9322 70.7593 16.0565 70.7736 16.1694L71.0216 16.1379C71.0095 16.0424 71.0065 15.9319 71.0094 15.8057L70.7594 15.8ZM70.7739 16.1715C70.8743 16.8669 70.6999 18.1352 70.3668 19.2237C70.2007 19.7663 69.9983 20.2535 69.778 20.596C69.6677 20.7673 69.5568 20.8965 69.4488 20.9789C69.3416 21.0607 69.245 21.0911 69.1567 21.0823L69.132 21.3311C69.3018 21.348 69.46 21.2849 69.6004 21.1777C69.74 21.0711 69.8694 20.9159 69.9882 20.7312C70.2261 20.3615 70.4365 19.8498 70.6058 19.2968C70.9434 18.1941 71.1294 16.8845 71.0213 16.1358L70.7739 16.1715ZM69.1565 21.0823C68.8625 21.0535 68.5907 21.1502 68.343 21.2945C68.0964 21.4381 67.8626 21.6357 67.6447 21.8214C67.4227 22.0107 67.219 22.186 67.0207 22.3034C66.8232 22.4202 66.6521 22.4667 66.4917 22.4268L66.4314 22.6694C66.6843 22.7323 66.9262 22.6498 67.148 22.5185C67.3689 22.3878 67.5907 22.196 67.8069 22.0116C68.0274 21.8236 68.2447 21.641 68.4688 21.5105C68.6918 21.3806 68.91 21.3093 69.1321 21.3311L69.1565 21.0823ZM66.4921 22.4269C66.2464 22.3649 65.9897 22.4285 65.7439 22.5279C65.4991 22.6269 65.2362 22.7744 64.9863 22.8991C64.4665 23.1586 63.9841 23.3294 63.5318 23.0574L63.403 23.2716C63.983 23.6204 64.585 23.3788 65.0979 23.1228C65.3644 22.9898 65.6048 22.8538 65.8376 22.7597C66.0692 22.6661 66.264 22.6272 66.4309 22.6693L66.4921 22.4269ZM63.5315 23.0572C62.9748 22.7243 62.3135 22.7849 61.7271 22.8484C61.427 22.8809 61.1466 22.9147 60.8891 22.9095C60.6329 22.9044 60.4137 22.8605 60.2344 22.7476L60.1012 22.9592C60.3346 23.1061 60.6053 23.1539 60.8841 23.1595C61.1615 23.165 61.4611 23.1286 61.754 23.0969C62.3533 23.032 62.9291 22.9883 63.4032 23.2718L63.5315 23.0572ZM60.2338 22.7472C60.0027 22.6036 59.6761 22.5309 59.3347 22.4874C58.9901 22.4436 58.6098 22.4277 58.264 22.4088C57.9131 22.3897 57.6022 22.3677 57.3796 22.3147C57.2679 22.2881 57.1909 22.2563 57.1443 22.2221C57.1024 22.1914 57.0917 22.1648 57.0917 22.1357H56.8417C56.8417 22.2611 56.9051 22.3567 56.9964 22.4237C57.0828 22.4871 57.1978 22.5284 57.3216 22.5579C57.5701 22.6171 57.9044 22.6396 58.2504 22.6584C58.6016 22.6776 58.97 22.6931 59.3031 22.7354C59.6394 22.7782 59.9196 22.8463 60.1019 22.9596L60.2338 22.7472ZM57.0917 22.1357C57.0917 22.0294 57.136 21.9572 57.2284 21.8732C57.2767 21.8292 57.3338 21.7861 57.4022 21.734C57.4689 21.683 57.5437 21.6253 57.619 21.5568C57.7715 21.4182 57.9257 21.236 58.0408 20.9643C58.1553 20.6938 58.2282 20.341 58.2282 19.8638H57.9782C57.9782 20.3157 57.9091 20.6339 57.8105 20.8668C57.7125 21.0985 57.5826 21.2521 57.4509 21.3718C57.3842 21.4324 57.3169 21.4845 57.2504 21.5353C57.1856 21.5848 57.1183 21.6354 57.0602 21.6882C56.9394 21.798 56.8417 21.9323 56.8417 22.1357H57.0917ZM58.2282 19.8638C58.2282 19.4334 58.4083 18.98 58.6868 18.5227C58.9646 18.0666 59.3325 17.6189 59.693 17.2006C60.05 16.7863 60.4046 16.3957 60.6412 16.0662C60.7597 15.9012 60.8551 15.7429 60.9063 15.5973C60.9575 15.4518 60.9713 15.2988 60.8947 15.1642L60.6774 15.288C60.7032 15.3332 60.71 15.402 60.6705 15.5143C60.6311 15.6263 60.552 15.7618 60.4382 15.9204C60.2101 16.2379 59.8685 16.614 59.5036 17.0374C59.1422 17.4567 58.7626 17.9177 58.4733 18.3927C58.1847 18.8665 57.9782 19.3667 57.9782 19.8638H58.2282ZM60.8948 15.1644C60.8585 15.1005 60.8011 15.0407 60.7347 14.9851C60.6671 14.9284 60.5836 14.8707 60.4882 14.8121C60.2974 14.6949 60.0501 14.5691 59.7672 14.4376C59.2012 14.1747 58.4786 13.8832 57.7511 13.5873C57.0217 13.2905 56.2866 12.9891 55.6892 12.7043C55.3905 12.5619 55.1287 12.4249 54.9204 12.2959C54.7094 12.1651 54.5642 12.0491 54.4883 11.9514L54.2909 12.1048C54.3953 12.2391 54.5722 12.3742 54.7887 12.5084C55.008 12.6442 55.279 12.7857 55.5816 12.93C56.1868 13.2185 56.9288 13.5227 57.6569 13.8189C58.387 14.1158 59.1027 14.4046 59.6619 14.6644C59.9415 14.7943 60.1787 14.9154 60.3573 15.0251C60.4466 15.0799 60.5191 15.1306 60.5741 15.1767C60.6303 15.2238 60.6622 15.2611 60.6773 15.2878L60.8948 15.1644ZM54.4882 11.9513C53.7453 10.9979 52.6844 10.1506 50.5824 9.94444L50.558 10.1932C52.5853 10.3921 53.586 11.2003 54.291 12.105L54.4882 11.9513ZM50.5828 9.94447C50.0771 9.89343 49.7108 9.79274 49.4167 9.65626C49.1229 9.51995 48.8951 9.34514 48.6684 9.13738C48.2158 8.72255 47.76 8.16465 46.8159 7.58895L46.6858 7.8024C47.6022 8.36119 48.0238 8.88566 48.4995 9.32169C48.7371 9.53937 48.9862 9.73211 49.3115 9.88303C49.6363 10.0338 50.031 10.14 50.5577 10.1932L50.5828 9.94447ZM46.8161 7.58906C46.0547 7.12311 45.0739 6.26408 44.1791 5.34117C43.2841 4.41813 42.4866 3.4431 42.0867 2.75037L41.8702 2.87535C42.2853 3.59449 43.0994 4.58682 43.9996 5.5152C44.8999 6.44371 45.8978 7.32015 46.6856 7.8023L46.8161 7.58906ZM41.9912 2.68852C41.3672 2.62448 40.5997 2.52493 39.948 2.49536C39.6218 2.48057 39.3176 2.48284 39.0697 2.51734C38.8302 2.55066 38.609 2.61812 38.4875 2.76357L38.6794 2.9238C38.7357 2.85644 38.8703 2.7975 39.1041 2.76496C39.3295 2.7336 39.6158 2.73055 39.9366 2.74511C40.5789 2.77425 41.3312 2.8721 41.9657 2.93721L41.9912 2.68852ZM38.4875 2.76361C38.3482 2.93055 38.1951 3.23938 38.0391 3.56408C37.879 3.89703 37.7104 4.25936 37.5359 4.55876C37.4488 4.70814 37.3624 4.83784 37.2777 4.93807C37.1916 5.03996 37.115 5.10189 37.0499 5.12888C36.9925 5.15264 36.9432 5.15056 36.8884 5.11631C36.8254 5.07693 36.7477 4.98958 36.6629 4.82038L36.4394 4.93233C36.5327 5.11866 36.6362 5.25348 36.7559 5.3283C36.8838 5.40824 37.0187 5.41241 37.1456 5.35985C37.2646 5.31052 37.3722 5.21358 37.4687 5.09945C37.5665 4.98366 37.6612 4.8402 37.7518 4.68468C37.9328 4.37428 38.107 3.99986 38.2644 3.67237C38.4257 3.33664 38.5647 3.06135 38.6795 2.92375L38.4875 2.76361ZM36.663 4.82052C36.2864 4.06621 35.6395 3.69405 34.9084 3.48502C34.1851 3.27823 33.353 3.22514 32.6045 3.12486L32.5713 3.37264C33.3455 3.47636 34.1397 3.52527 34.8397 3.72539C35.5318 3.92326 36.1052 4.26289 36.4393 4.93219L36.663 4.82052ZM32.6042 3.12482C32.2441 3.07731 31.9806 2.95825 31.7604 2.82957C31.6485 2.76421 31.5498 2.69761 31.4503 2.6333C31.3529 2.57035 31.2546 2.50949 31.153 2.46409C30.9403 2.36906 30.716 2.34376 30.4371 2.46574C30.1699 2.58262 29.8568 2.83289 29.4471 3.26717L29.6289 3.43874C30.0334 3.01004 30.3181 2.79068 30.5373 2.69479C30.7448 2.60402 30.8954 2.62283 31.051 2.69236C31.1336 2.72924 31.2179 2.78077 31.3146 2.84326C31.4091 2.90439 31.5159 2.97629 31.6342 3.04542C31.8744 3.18573 32.1696 3.31966 32.5715 3.37268L32.6042 3.12482ZM29.447 3.26719C28.7308 4.02663 27.7975 4.78058 26.9532 5.32613L27.0889 5.53611C27.9481 4.98093 28.8973 4.21442 29.6289 3.43872L29.447 3.26719ZM26.8963 5.42342C26.8459 6.23966 26.7462 7.10769 26.6216 7.83623C26.5593 8.20055 26.4911 8.52851 26.4201 8.7969C26.3484 9.06811 26.2763 9.26909 26.2093 9.38579L26.4261 9.51027C26.5104 9.36353 26.5891 9.13578 26.6618 8.8608C26.7353 8.583 26.805 8.24731 26.8681 7.87837C26.9942 7.14038 27.0949 6.26339 27.1458 5.43882L26.8963 5.42342ZM26.2091 9.38611C26.1687 9.45697 26.0842 9.54878 25.9539 9.65978C25.8259 9.76885 25.6627 9.88903 25.4748 10.0178C25.0984 10.2757 24.6346 10.5603 24.1743 10.8519C23.7167 11.1418 23.2631 11.4383 22.9169 11.7152C22.7438 11.8536 22.5938 11.9901 22.4827 12.1214C22.3738 12.25 22.2904 12.3871 22.273 12.5263L22.5211 12.5573C22.5294 12.4907 22.5749 12.3994 22.6735 12.2829C22.7698 12.1692 22.9059 12.0441 23.073 11.9104C23.4072 11.6431 23.8499 11.3533 24.3081 11.0631C24.7635 10.7746 25.2348 10.4853 25.6161 10.224C25.8071 10.0931 25.9785 9.96732 26.1161 9.85008C26.2514 9.73478 26.3635 9.61998 26.4263 9.50995L26.2091 9.38611ZM22.273 12.5261C22.2451 12.747 22.2591 12.9842 22.2835 13.217C22.3087 13.4582 22.3427 13.6789 22.3622 13.9062C22.401 14.3583 22.3663 14.7088 22.1098 14.9233L22.2701 15.1151C22.6333 14.8115 22.65 14.3357 22.6113 13.8848C22.5921 13.6606 22.5551 13.4107 22.5321 13.191C22.5083 12.9629 22.4968 12.749 22.521 12.5575L22.273 12.5261ZM22.1102 14.9229C21.996 15.0176 21.953 15.1538 21.947 15.2953C21.9411 15.4353 21.9703 15.5951 22.0158 15.7613C22.1064 16.0922 22.2752 16.4929 22.4207 16.8782C22.5693 17.2719 22.695 17.6525 22.7178 17.969C22.7404 18.281 22.6625 18.4977 22.4398 18.6197L22.5598 18.839C22.9039 18.6506 22.9933 18.3125 22.9672 17.951C22.9414 17.5938 22.8026 17.182 22.6546 16.7899C22.5034 16.3895 22.3434 16.0111 22.2569 15.6953C22.2139 15.5381 22.1925 15.4075 22.1968 15.3059C22.201 15.2058 22.2291 15.1491 22.2697 15.1154L22.1102 14.9229ZM22.4398 18.6197C22.2853 18.7043 22.1731 18.8013 22.1021 18.9132C22.0298 19.0268 22.0053 19.1475 22.0133 19.268C22.0284 19.4978 22.1633 19.73 22.2899 19.9325C22.4249 20.1483 22.5545 20.3365 22.6129 20.5115C22.641 20.5955 22.6484 20.6657 22.6364 20.7258C22.6249 20.7834 22.5932 20.8433 22.5214 20.9048L22.6838 21.0948C22.7926 21.0018 22.8576 20.8943 22.8816 20.7749C22.905 20.6579 22.8865 20.5414 22.8501 20.4322C22.7794 20.2208 22.625 19.9967 22.5019 19.7999C22.3705 19.5898 22.2731 19.4091 22.2627 19.2515C22.2579 19.1782 22.2722 19.1115 22.313 19.0473C22.355 18.9812 22.4301 18.91 22.5598 18.839L22.4398 18.6197ZM22.5215 20.9047C22.3504 21.0506 22.1398 21.1809 21.9144 21.3069C21.6972 21.4283 21.4475 21.5556 21.2378 21.6762C21.023 21.7998 20.8204 21.9323 20.6709 22.085C20.5197 22.2394 20.4145 22.4234 20.4145 22.6465H20.6645C20.6645 22.51 20.7268 22.3853 20.8496 22.2599C20.974 22.1327 21.1518 22.0141 21.3624 21.8929C21.5782 21.7688 21.7991 21.6578 22.0364 21.5251C22.2657 21.3969 22.4936 21.2571 22.6837 21.0949L22.5215 20.9047ZM20.4145 22.6465C20.4145 23.0057 20.3889 23.6135 20.2505 24.1798C20.1099 24.7549 19.8637 25.2429 19.4562 25.425L19.5582 25.6533C20.0801 25.42 20.3501 24.8249 20.4933 24.2392C20.6387 23.6445 20.6645 23.0137 20.6645 22.6465H20.4145ZM19.4565 25.4249C18.9516 25.6489 18.5473 26.1703 18.2708 26.7618C17.9927 27.3566 17.833 28.0449 17.833 28.6329H18.083C18.083 28.085 18.2331 27.4327 18.4972 26.8677C18.7629 26.2993 19.1332 25.8418 19.5579 25.6534L19.4565 25.4249ZM17.833 28.6329C17.833 28.8847 17.7549 29.0165 17.6569 29.1041C17.5472 29.2024 17.4094 29.2523 17.2465 29.3298C17.0953 29.4019 16.9235 29.4995 16.8418 29.6997C16.7614 29.8965 16.7809 30.1594 16.9137 30.5302L17.1491 30.4459C17.0227 30.093 17.0284 29.904 17.0732 29.7943C17.1166 29.688 17.2089 29.6247 17.3541 29.5555C17.4877 29.4919 17.6787 29.4201 17.8237 29.2904C17.9804 29.1501 18.083 28.9476 18.083 28.6329H17.833ZM16.9136 30.5299C17.1721 31.2561 17.4496 32.0422 17.5251 32.6837C17.5628 33.0043 17.5478 33.2735 17.466 33.4756C17.3874 33.6699 17.2444 33.81 16.9987 33.8765L17.064 34.1178C17.3852 34.0309 17.5898 33.8362 17.6978 33.5694C17.8026 33.3105 17.8131 32.9923 17.7734 32.6545C17.6939 31.9791 17.4047 31.164 17.1492 30.4461L16.9136 30.5299ZM16.9987 33.8765C16.6692 33.9658 16.4523 34.2043 16.3025 34.488C16.1537 34.7698 16.0637 35.1096 15.9924 35.4267C15.9193 35.7519 15.8672 36.0451 15.794 36.2646C15.7577 36.3735 15.7202 36.4506 15.6813 36.4987C15.6454 36.5431 15.6153 36.555 15.585 36.555V36.805C15.7096 36.805 15.8054 36.7426 15.8756 36.656C15.9428 36.573 15.9916 36.4622 16.0312 36.3437C16.1097 36.1082 16.1673 35.7885 16.2363 35.4815C16.3071 35.1664 16.3915 34.8548 16.5236 34.6047C16.6547 34.3564 16.8253 34.1825 17.0641 34.1178L16.9987 33.8765ZM15.585 36.555C15.4623 36.555 15.359 36.6169 15.278 36.7029C15.1976 36.7883 15.1311 36.9051 15.077 37.0388C14.9685 37.3068 14.899 37.6693 14.8792 38.0646C14.8397 38.8521 14.9957 39.8131 15.4851 40.4638L15.6849 40.3135C15.2448 39.7285 15.0909 38.8352 15.1289 38.0772C15.1478 37.6998 15.2139 37.3668 15.3087 37.1326C15.3563 37.0151 15.4084 36.929 15.4599 36.8743C15.5109 36.8203 15.5528 36.805 15.585 36.805V36.555ZM15.485 40.4636C16.3955 41.6785 16.5966 42.6811 16.5966 43.7936H16.8466C16.8466 42.6371 16.6335 41.5792 15.685 40.3137L15.485 40.4636ZM16.5966 43.7936C16.5966 44.4011 16.931 44.875 17.1796 45.3107C17.4329 45.7545 17.6155 46.1778 17.4268 46.7436L17.6639 46.8227C17.8878 46.1513 17.6585 45.6455 17.3968 45.1868C17.1303 44.7199 16.8466 44.3176 16.8466 43.7936H16.5966ZM17.4267 46.7436C17.2166 47.3744 17.1621 47.9876 17.0745 48.4768C16.9848 48.9775 16.8621 49.3442 16.5446 49.5712L16.69 49.7746C17.095 49.485 17.23 49.0262 17.3205 48.5208C17.4132 48.0039 17.4614 47.4306 17.6639 46.8226L17.4267 46.7436ZM16.5447 49.5711C16.3307 49.7237 16.2227 49.9489 16.1607 50.1872C16.0995 50.4227 16.0791 50.6899 16.0537 50.9352C16.0277 51.1873 15.9963 51.4193 15.9195 51.6123C15.8447 51.8002 15.729 51.9457 15.5327 52.0331L15.6344 52.2615C15.9028 52.142 16.0584 51.9392 16.1517 51.7048C16.243 51.4756 16.2765 51.2113 16.3024 50.9609C16.329 50.7038 16.3476 50.4622 16.4027 50.2501C16.4571 50.0409 16.5427 49.8797 16.6899 49.7747L16.5447 49.5711ZM15.5325 52.0332C15.3773 52.1027 15.2818 52.2316 15.2285 52.3867C15.1763 52.5386 15.162 52.7213 15.1687 52.9167C15.1821 53.3072 15.2816 53.789 15.3843 54.2635C15.4882 54.744 15.5956 55.2183 15.6334 55.6119C15.6522 55.8084 15.6528 55.9771 15.6297 56.1117C15.6065 56.2468 15.5618 56.3338 15.5022 56.3849L15.6649 56.5747C15.7859 56.471 15.8477 56.3194 15.8761 56.154C15.9046 55.9881 15.902 55.7943 15.8822 55.588C15.8427 55.1761 15.731 54.6839 15.6286 54.2106C15.5249 53.7313 15.431 53.2721 15.4185 52.9081C15.4123 52.7262 15.427 52.5784 15.4649 52.468C15.5018 52.3608 15.5577 52.2958 15.6346 52.2614L15.5325 52.0332ZM15.5019 56.3851C15.3308 56.5325 15.0909 56.6745 14.8099 56.8488C14.5336 57.0203 14.2262 57.2182 13.9406 57.4705C13.3641 57.9797 12.88 58.7078 12.88 59.8847H13.13C13.13 58.7912 13.5739 58.1279 14.1061 57.6579C14.3748 57.4205 14.6669 57.2318 14.9417 57.0613C15.2119 56.8936 15.475 56.7382 15.6651 56.5745L15.5019 56.3851ZM12.88 59.8847C12.88 61.026 12.9679 61.9193 13.0243 62.6444C13.081 63.3742 13.1042 63.9211 12.9865 64.3923L13.229 64.4529C13.358 63.9364 13.3298 63.3496 13.2735 62.625C13.2168 61.8956 13.13 61.0139 13.13 59.8847H12.88ZM12.9865 64.3924C12.9266 64.6329 12.9713 64.8125 13.0774 64.961C13.1733 65.0951 13.3229 65.2041 13.4403 65.3035C13.5651 65.4093 13.6772 65.5205 13.7496 65.6777C13.8212 65.8333 13.8594 66.0468 13.8109 66.3645L14.0581 66.4022C14.1123 66.047 14.0729 65.7822 13.9767 65.5732C13.8812 65.3656 13.7352 65.2257 13.6019 65.1128C13.4612 64.9936 13.3528 64.9163 13.2808 64.8156C13.2191 64.7293 13.1861 64.6255 13.2291 64.4528L12.9865 64.3924ZM13.811 66.3642C13.764 66.6678 13.639 66.8344 13.4858 66.9365C13.3253 67.0435 13.1209 67.0889 12.8972 67.1208C12.6859 67.1508 12.4411 67.1693 12.2539 67.234C12.1562 67.2678 12.0623 67.3173 11.9887 67.396C11.9135 67.4763 11.8668 67.5791 11.8515 67.7053L12.0997 67.7354C12.1093 67.6559 12.1362 67.6042 12.1712 67.5668C12.2078 67.5277 12.2611 67.496 12.3355 67.4703C12.4926 67.416 12.6924 67.4024 12.9325 67.3683C13.1602 67.3359 13.4138 67.285 13.6244 67.1446C13.8423 66.9993 14.0015 66.7675 14.058 66.4025L13.811 66.3642ZM11.8516 67.7049C11.8241 67.9256 11.8383 68.1951 11.8625 68.4679C11.8874 68.7483 11.9219 69.0246 11.9412 69.2897C11.9605 69.5535 11.962 69.7794 11.9258 69.9423C11.8899 70.1043 11.8284 70.1637 11.7478 70.1772L11.7893 70.4238C12.0186 70.3852 12.125 70.1992 12.1699 69.9964C12.2146 69.7947 12.2099 69.5368 12.1906 69.2716C12.1714 69.0079 12.135 68.7102 12.1115 68.4458C12.0874 68.1738 12.0757 67.9276 12.0996 67.7358L11.8516 67.7049ZM11.7481 70.1772C11.3919 70.2362 11.1271 70.4476 10.9572 70.8292C10.7915 71.2016 10.714 71.7387 10.714 72.4667H10.964C10.964 71.7491 11.0415 71.2545 11.1856 70.9309C11.3256 70.6164 11.5255 70.4675 11.789 70.4238L11.7481 70.1772ZM10.714 72.4667C10.714 73.1576 10.5178 73.546 10.3098 73.8522C10.2565 73.9306 10.2025 74.0035 10.1486 74.0772C10.0954 74.1501 10.0421 74.2237 9.99392 74.2994C9.89674 74.452 9.81691 74.6179 9.78864 74.8228L10.0363 74.857C10.0579 74.7 10.1189 74.5686 10.2048 74.4336C10.2482 74.3655 10.2971 74.2978 10.3504 74.2248C10.4031 74.1528 10.4603 74.0756 10.5166 73.9927C10.747 73.6535 10.964 73.217 10.964 72.4667H10.714ZM9.78875 74.822C9.75888 75.0285 9.79646 75.2361 9.86233 75.4375C9.92805 75.6384 10.0251 75.8424 10.1213 76.0413C10.3188 76.4494 10.5085 76.8331 10.5085 77.2086H10.7585C10.7585 76.7637 10.5355 76.3233 10.3464 75.9324C10.2493 75.7317 10.1596 75.5423 10.0999 75.3598C10.0404 75.1777 10.0139 75.0116 10.0362 74.8578L9.78875 74.822ZM10.5085 77.2086C10.5085 77.4232 10.5415 77.76 10.5781 78.1357C10.6151 78.5152 10.6564 78.9407 10.6755 79.3431C10.6946 79.7475 10.6905 80.119 10.64 80.3926C10.6147 80.5298 10.5794 80.6327 10.5364 80.7013C10.4952 80.767 10.4528 80.7931 10.4085 80.7995L10.4443 81.0469C10.5803 81.0273 10.6796 80.9436 10.7482 80.834C10.8152 80.7272 10.858 80.5892 10.8859 80.4379C10.9418 80.1346 10.9444 79.7392 10.9252 79.3314C10.9058 78.9216 10.8638 78.4898 10.8269 78.1115C10.7897 77.7294 10.7585 77.4079 10.7585 77.2086H10.5085ZM10.4088 80.7995C10.2752 80.8185 10.1644 80.9039 10.0754 81.011C9.98535 81.1193 9.90676 81.2626 9.83891 81.4243C9.70295 81.7485 9.60107 82.1693 9.54231 82.5952C9.48351 83.0214 9.46679 83.4607 9.50545 83.8232C9.52476 84.0042 9.55835 84.1706 9.60997 84.3082C9.66078 84.4436 9.73438 84.5652 9.84321 84.6376L9.98172 84.4295C9.93564 84.3989 9.88653 84.3336 9.84403 84.2203C9.80236 84.1093 9.77204 83.9654 9.75404 83.7967C9.71809 83.4596 9.73312 83.0414 9.78997 82.6294C9.84684 82.2171 9.94449 81.819 10.0695 81.521C10.1321 81.3717 10.1993 81.2531 10.2676 81.1708C10.337 81.0874 10.397 81.0536 10.444 81.047L10.4088 80.7995ZM9.84316 84.6376C10.3828 84.9971 10.4049 85.7415 10.1076 86.3357L10.3312 86.4475C10.6536 85.8031 10.6757 84.8919 9.98178 84.4296L9.84316 84.6376ZM10.1075 86.3359C9.99973 86.5523 10.0834 86.7586 10.197 86.9284C10.2548 87.0147 10.326 87.1003 10.3976 87.1834C10.471 87.2685 10.5437 87.3496 10.6131 87.4348C10.7529 87.6064 10.8553 87.7676 10.8789 87.9302C10.9008 88.0812 10.8573 88.2573 10.6461 88.4697L10.8234 88.646C11.0763 88.3917 11.162 88.1407 11.1263 87.8943C11.0923 87.6596 10.9504 87.4531 10.8069 87.2769C10.7347 87.1882 10.6561 87.1004 10.5869 87.0201C10.5161 86.938 10.4535 86.8621 10.4048 86.7894C10.3056 86.641 10.2856 86.5391 10.3313 86.4473L10.1075 86.3359ZM10.6464 88.4694C10.1503 88.9653 10.0805 89.5567 10.3373 89.9832C10.5936 90.4087 11.1482 90.6251 11.8044 90.4285L11.7327 90.189C11.1643 90.3593 10.738 90.1639 10.5515 89.8542C10.3656 89.5454 10.3912 89.0779 10.8231 88.6462L10.6464 88.4694ZM11.8042 90.4286C12.0216 90.364 12.2146 90.412 12.3723 90.523C12.533 90.6361 12.6569 90.8154 12.7205 91.006C12.7846 91.1983 12.7816 91.3834 12.716 91.513C12.6553 91.6328 12.5292 91.7291 12.284 91.7291V91.9791C12.6063 91.9791 12.8286 91.844 12.939 91.626C13.0444 91.418 13.0351 91.1592 12.9576 90.9268C12.8795 90.6927 12.7262 90.4665 12.5162 90.3186C12.3031 90.1686 12.0317 90.1001 11.733 90.1889L11.8042 90.4286ZM12.284 91.7291C12.0009 91.7291 11.7141 91.7291 11.4591 91.7406C11.2063 91.752 10.974 91.775 10.8036 91.8248C10.7189 91.8496 10.638 91.8841 10.5772 91.9364C10.5119 91.9926 10.4689 92.071 10.475 92.1679C10.4806 92.2559 10.5258 92.3399 10.5886 92.4181C10.6527 92.4979 10.7448 92.584 10.865 92.6777L11.0187 92.4806C10.9065 92.393 10.8308 92.3205 10.7836 92.2616C10.735 92.201 10.7254 92.166 10.7245 92.1521C10.7242 92.147 10.7232 92.1405 10.7402 92.1259C10.7618 92.1073 10.8035 92.0853 10.8738 92.0647C11.0132 92.0239 11.2197 92.0016 11.4703 91.9903C11.7186 91.9792 11.9995 91.9791 12.284 91.9791V91.7291ZM10.8653 92.678C11.3298 93.0374 11.7704 93.4584 11.9371 93.8392C12.0184 94.025 12.0276 94.1848 11.9616 94.322C11.894 94.4624 11.7341 94.6077 11.4137 94.7315L11.5038 94.9647C11.8537 94.8295 12.0805 94.6515 12.1869 94.4304C12.2949 94.2058 12.2654 93.9657 12.1661 93.7389C11.9716 93.2945 11.4834 92.8401 11.0183 92.4803L10.8653 92.678ZM11.4139 94.7314C11.0627 94.8662 10.8494 95.0371 10.743 95.2552C10.6379 95.4704 10.6502 95.7061 10.69 95.9379C10.71 96.0545 10.7382 96.1767 10.7657 96.2989C10.7934 96.4226 10.8208 96.5483 10.8411 96.6784C10.8814 96.9377 10.8926 97.2097 10.8206 97.4977L11.0631 97.5583C11.146 97.2269 11.1315 96.9187 11.0881 96.6399C11.0665 96.5009 11.0374 96.3681 11.0096 96.2442C10.9815 96.1188 10.955 96.0043 10.9364 95.8956C10.8988 95.6766 10.8983 95.5068 10.9676 95.3648C11.0356 95.2256 11.1837 95.0876 11.5035 94.9648L11.4139 94.7314ZM10.8206 97.4977C10.6553 98.1585 10.9043 98.7924 11.0416 99.2535C11.1137 99.4957 11.1513 99.6762 11.1245 99.8107C11.1121 99.8727 11.086 99.9236 11.0404 99.9674C10.9934 100.013 10.9195 100.056 10.8031 100.091L10.875 100.331C11.0167 100.288 11.1299 100.228 11.2138 100.147C11.2993 100.065 11.3482 99.967 11.3696 99.8597C11.4104 99.6556 11.3511 99.417 11.2812 99.1821C11.1343 98.6888 10.9186 98.1362 11.0631 97.5583L10.8206 97.4977ZM10.8034 100.091C10.6528 100.136 10.5388 100.212 10.4586 100.316C10.3794 100.419 10.3399 100.54 10.3218 100.664C10.2866 100.904 10.3285 101.194 10.3532 101.447C10.3793 101.715 10.3874 101.946 10.3165 102.122C10.2827 102.206 10.2308 102.277 10.1515 102.333C10.0708 102.39 9.95555 102.436 9.78902 102.46L9.82446 102.708C10.0192 102.68 10.1748 102.623 10.2958 102.537C10.418 102.451 10.4983 102.34 10.5484 102.216C10.6452 101.975 10.6275 101.684 10.602 101.423C10.5751 101.147 10.5397 100.901 10.5691 100.7C10.5833 100.603 10.6115 100.527 10.6566 100.469C10.7005 100.412 10.7672 100.363 10.8746 100.331L10.8034 100.091ZM9.78925 102.46C9.40719 102.514 9.16073 102.647 9.00452 102.846C8.85212 103.039 8.8006 103.278 8.76798 103.506C8.70004 103.982 8.70099 104.432 8.28632 104.756L8.44023 104.953C8.95361 104.552 8.95456 103.968 9.01547 103.541C9.04729 103.319 9.0924 103.138 9.20097 103C9.30572 102.867 9.48456 102.756 9.82423 102.708L9.78925 102.46ZM8.28686 104.756C8.15352 104.859 8.06827 104.977 8.02748 105.11C7.98706 105.241 7.99376 105.375 8.02461 105.504C8.08457 105.755 8.24531 106.018 8.38289 106.256C8.5276 106.505 8.64812 106.728 8.67333 106.927C8.68535 107.021 8.67469 107.106 8.63625 107.184C8.59748 107.263 8.52541 107.345 8.39776 107.426L8.53144 107.637C8.68793 107.538 8.79671 107.424 8.86051 107.295C8.92464 107.164 8.93827 107.029 8.92134 106.895C8.88864 106.637 8.73824 106.37 8.59917 106.13C8.45298 105.878 8.3171 105.652 8.26775 105.446C8.24395 105.346 8.24282 105.26 8.26643 105.183C8.28966 105.108 8.34029 105.03 8.43969 104.953L8.28686 104.756ZM8.39764 107.426C7.77583 107.82 7.6956 108.475 7.61987 108.967C7.58027 109.225 7.54387 109.427 7.45904 109.568C7.41901 109.634 7.36949 109.684 7.30426 109.719C7.23811 109.754 7.148 109.777 7.02114 109.777V110.027C7.17805 110.027 7.31045 109.998 7.42087 109.94C7.53219 109.881 7.61328 109.796 7.67322 109.697C7.78833 109.506 7.82929 109.25 7.86697 109.005C7.94579 108.492 8.01975 107.962 8.53156 107.637L8.39764 107.426ZM7.02114 109.777C6.38996 109.777 5.91831 110.207 5.59978 110.699C5.27976 111.193 5.0936 111.778 5.03984 112.154L5.28732 112.19C5.33635 111.847 5.51069 111.297 5.8096 110.835C6.11002 110.371 6.51575 110.027 7.02114 110.027V109.777ZM5.03984 112.154C5.0155 112.325 4.95406 112.54 4.88501 112.798C4.81717 113.052 4.74438 113.339 4.70451 113.638C4.62471 114.237 4.67458 114.901 5.17355 115.454L5.35919 115.286C4.93011 114.811 4.87719 114.235 4.95232 113.671C4.9899 113.389 5.059 113.115 5.12653 112.863C5.19285 112.615 5.26026 112.379 5.28732 112.19L5.03984 112.154ZM5.17349 115.454C5.39013 115.694 5.48204 115.917 5.51501 116.122C5.54848 116.329 5.52269 116.525 5.49055 116.717C5.46002 116.899 5.4183 117.1 5.44624 117.277C5.46101 117.37 5.49507 117.461 5.55936 117.544C5.62306 117.626 5.71177 117.695 5.82731 117.752L5.93891 117.529C5.8485 117.483 5.79248 117.436 5.75696 117.391C5.72202 117.346 5.70235 117.296 5.69319 117.238C5.67326 117.111 5.70286 116.963 5.73712 116.758C5.76978 116.563 5.80227 116.332 5.76181 116.082C5.72085 115.828 5.60663 115.561 5.35925 115.286L5.17349 115.454ZM5.82739 117.752C6.06112 117.869 6.41627 117.907 6.78425 117.926C6.97167 117.936 7.1696 117.941 7.36513 117.946C7.56152 117.952 7.75601 117.958 7.94028 117.97C8.3154 117.996 8.624 118.047 8.81235 118.154C8.90272 118.205 8.95597 118.264 8.98105 118.331C9.00632 118.399 9.01 118.494 8.96426 118.631L9.20136 118.71C9.25914 118.538 9.26635 118.381 9.21531 118.244C9.16408 118.107 9.06117 118.008 8.93568 117.936C8.69232 117.798 8.3304 117.747 7.95735 117.721C7.76754 117.708 7.56854 117.702 7.37217 117.696C7.17494 117.691 6.98084 117.686 6.79713 117.676C6.42281 117.657 6.11919 117.618 5.93883 117.529L5.82739 117.752ZM8.9642 118.631C8.75099 119.272 8.6742 120.27 8.71364 121.102C8.7334 121.52 8.78268 121.904 8.86231 122.188C8.90187 122.329 8.95118 122.453 9.01368 122.545C9.07501 122.635 9.16609 122.717 9.29132 122.717V122.467C9.28734 122.467 9.26209 122.466 9.2204 122.404C9.17987 122.345 9.13945 122.25 9.103 122.12C9.03061 121.862 8.9827 121.499 8.96336 121.091C8.92461 120.273 9.00199 119.31 9.20141 118.71L8.9642 118.631ZM9.29132 122.717C9.35676 122.717 9.43968 122.768 9.55297 122.91C9.66254 123.047 9.76853 123.226 9.8959 123.42C10.0189 123.607 10.1594 123.804 10.3273 123.947C10.4982 124.092 10.706 124.189 10.9573 124.158L10.9264 123.909C10.765 123.93 10.6247 123.872 10.4893 123.756C10.3508 123.639 10.2269 123.469 10.1049 123.283C9.9872 123.104 9.86751 122.903 9.74824 122.754C9.63269 122.609 9.4836 122.467 9.29132 122.467V122.717ZM10.9572 124.158C11.3689 124.106 12.5008 123.978 13.7222 123.914C14.9498 123.85 16.2465 123.852 16.9993 124.052L17.0634 123.81C16.2671 123.599 14.9324 123.601 13.7091 123.665C12.4797 123.729 11.3415 123.858 10.9264 123.909L10.9572 124.158ZM16.9994 124.052C17.7375 124.247 18.3574 124.689 18.8007 125.09L18.9684 124.905C18.5101 124.49 17.8554 124.02 17.0634 123.81L16.9994 124.052ZM18.9349 125.112C19.1207 125.03 19.3765 125.031 19.6826 125.086C19.9855 125.141 20.3162 125.246 20.6418 125.352C20.9628 125.457 21.2824 125.565 21.5487 125.617C21.6822 125.644 21.8102 125.658 21.9235 125.649C22.0369 125.639 22.1478 125.605 22.231 125.522L22.0549 125.345C22.0284 125.371 21.9827 125.393 21.9029 125.399C21.8228 125.406 21.7206 125.396 21.5972 125.372C21.3495 125.323 21.0477 125.222 20.7194 125.114C20.3958 125.009 20.0494 124.898 19.7272 124.84C19.408 124.782 19.0904 124.771 18.8342 124.883L18.9349 125.112ZM22.2313 125.522C22.3341 125.419 22.3576 125.286 22.3385 125.153C22.3198 125.024 22.2601 124.884 22.1811 124.744C22.0225 124.461 21.7629 124.134 21.4972 123.811C21.2279 123.485 20.9512 123.161 20.7447 122.875C20.6417 122.733 20.5596 122.604 20.5059 122.493C20.4505 122.379 20.4335 122.299 20.439 122.249L20.1906 122.222C20.177 122.343 20.2195 122.475 20.2808 122.602C20.3438 122.732 20.4355 122.874 20.5421 123.022C20.7547 123.316 21.0401 123.65 21.3042 123.97C21.5718 124.295 21.8171 124.606 21.9631 124.866C22.0363 124.996 22.0789 125.104 22.091 125.189C22.1026 125.269 22.0855 125.314 22.0546 125.345L22.2313 125.522ZM20.439 122.249C20.48 121.88 20.3781 121.4 20.2745 120.939C20.168 120.464 20.058 120.005 20.058 119.642H19.808C19.808 120.04 19.9271 120.533 20.0306 120.993C20.1369 121.467 20.226 121.903 20.1906 122.222L20.439 122.249ZM20.058 119.642C20.058 119.446 20.0334 119.19 20.0148 118.92C19.9958 118.645 19.9819 118.347 20.0005 118.051C20.0378 117.455 20.204 116.892 20.693 116.542L20.5474 116.338C19.9675 116.754 19.79 117.411 19.751 118.035C19.7314 118.348 19.7462 118.659 19.7653 118.937C19.7848 119.219 19.808 119.458 19.808 119.642H20.058ZM20.6928 116.542C21.241 116.151 21.5385 115.756 21.7708 115.496C21.889 115.364 21.983 115.275 22.0811 115.225C22.1726 115.178 22.2759 115.161 22.4225 115.194L22.4772 114.95C22.2803 114.906 22.1165 114.926 21.9673 115.002C21.8247 115.075 21.7044 115.195 21.5845 115.329C21.3407 115.602 21.067 115.968 20.5476 116.338L20.6928 116.542ZM22.423 115.194C22.8181 115.281 23.3723 115.104 23.8295 114.686C24.2929 114.263 24.6689 113.583 24.7084 112.637L24.4586 112.626C24.4218 113.508 24.0738 114.125 23.6609 114.502C23.2418 114.885 22.7674 115.014 22.4768 114.95L22.423 115.194ZM24.7084 112.637C24.7449 111.744 24.9668 111.14 25.3607 110.601C25.7601 110.053 26.3379 109.568 27.1051 108.915L26.943 108.725C26.1845 109.371 25.5795 109.877 25.1587 110.453C24.7325 111.037 24.4969 111.69 24.4586 112.626L24.7084 112.637ZM27.1049 108.915C27.9282 108.217 29.0213 107.54 29.8789 106.949C30.3034 106.657 30.6735 106.383 30.9138 106.141C31.0334 106.02 31.1292 105.899 31.1807 105.78C31.2339 105.657 31.2438 105.524 31.1684 105.402L30.956 105.534C30.9757 105.566 30.9826 105.608 30.9512 105.681C30.9181 105.757 30.8478 105.852 30.7363 105.965C30.5143 106.188 30.1622 106.45 29.7371 106.743C28.8953 107.323 27.7792 108.016 26.9432 108.725L27.1049 108.915ZM31.168 105.401C31.0983 105.291 31.0813 105.093 31.1202 104.813C31.158 104.54 31.2436 104.22 31.3434 103.887C31.4415 103.561 31.5562 103.213 31.6428 102.912C31.7294 102.611 31.7966 102.329 31.7966 102.119H31.5466C31.5466 102.289 31.4898 102.54 31.4026 102.843C31.3153 103.146 31.2061 103.475 31.104 103.815C31.0037 104.149 30.9132 104.485 30.8725 104.779C30.833 105.064 30.8352 105.342 30.9564 105.535L31.168 105.401ZM31.7966 102.119C31.7966 101.841 31.5588 101.679 31.2981 101.579C31.0269 101.476 30.6637 101.412 30.2866 101.365C29.9106 101.317 29.4992 101.283 29.145 101.243C28.7822 101.202 28.4776 101.156 28.2841 101.086L28.1986 101.32C28.4243 101.403 28.7581 101.451 29.1171 101.492C29.4847 101.533 29.8784 101.565 30.2552 101.613C30.6308 101.66 30.968 101.721 31.2089 101.813C31.4604 101.909 31.5466 102.014 31.5466 102.119H31.7966ZM28.2841 101.086C27.8886 100.942 26.9369 100.347 26.2748 99.4437C25.6182 98.5473 25.2558 97.3623 25.9886 96.0083L25.7687 95.8893C24.9773 97.3517 25.377 98.6412 26.0732 99.5914C26.7639 100.534 27.7556 101.159 28.1986 101.32L28.2841 101.086ZM25.9886 96.0082C27.4781 93.2503 30.6116 92.9461 31.5307 92.8696L31.51 92.6204C30.5965 92.6965 27.3276 93.0029 25.7687 95.8894L25.9886 96.0082ZM31.5305 92.8696C31.66 92.859 31.7686 92.8259 31.8564 92.7681C31.9453 92.7096 32.005 92.631 32.0441 92.5428C32.1186 92.3752 32.1213 92.1641 32.1211 91.9744C32.1209 91.773 32.1167 91.5829 32.1556 91.4132C32.1928 91.2503 32.2675 91.1173 32.4216 91.025L32.2931 90.8106C32.0661 90.9465 31.96 91.1467 31.9118 91.3575C31.8652 91.5615 31.8709 91.7856 31.8711 91.9746C31.8713 92.1753 31.8648 92.3307 31.8157 92.4414C31.793 92.4923 31.7623 92.5308 31.719 92.5593C31.6747 92.5885 31.6094 92.6123 31.5101 92.6204L31.5305 92.8696ZM32.4216 91.025C33.2468 90.5308 33.3972 89.7038 33.3972 88.5564H33.1472C33.1472 89.6985 32.9921 90.3919 32.2931 90.8106L32.4216 91.025ZM33.3972 88.5564C33.3972 87.9056 33.3978 87.0836 33.565 86.4056C33.7327 85.7252 34.0528 85.2424 34.6576 85.1744L34.6297 84.926C33.8631 85.0121 33.4974 85.6351 33.3222 86.3457C33.1465 87.0587 33.1472 87.9127 33.1472 88.5564H33.3972ZM34.6575 85.1744C35.011 85.1351 35.3051 85.0562 35.5348 84.9535C35.7626 84.8517 35.9351 84.7228 36.0338 84.5782C36.1353 84.4294 36.1611 84.2564 36.0714 84.1002C35.9871 83.9536 35.8165 83.8507 35.5924 83.7906L35.5276 84.032C35.7219 84.0842 35.8177 84.1607 35.8546 84.2248C35.886 84.2794 35.8879 84.3485 35.8273 84.4373C35.7639 84.5302 35.6363 84.6343 35.4328 84.7253C35.2311 84.8154 34.9629 84.8889 34.6299 84.926L34.6575 85.1744ZM35.5933 83.7908C35.4027 83.7381 35.2402 83.6429 35.1236 83.5305C35.006 83.4171 34.9416 83.293 34.9309 83.1831C34.9208 83.0795 34.9565 82.9744 35.0702 82.8814C35.1887 82.7846 35.3958 82.6989 35.7266 82.6618L35.6988 82.4134C35.3424 82.4533 35.082 82.5489 34.912 82.6879C34.7372 82.8307 34.6634 83.0159 34.6821 83.2074C34.7002 83.3927 34.803 83.5687 34.9501 83.7105C35.0982 83.8533 35.298 83.9686 35.5267 84.0318L35.5933 83.7908ZM35.7265 82.6618C36.0506 82.6258 36.2496 82.6767 36.3852 82.7585C36.523 82.8415 36.6124 82.966 36.7007 83.1145C36.7843 83.255 36.8742 83.4332 37.0062 83.5663C37.1479 83.7093 37.3371 83.803 37.6172 83.803V83.553C37.4025 83.553 37.2777 83.485 37.1838 83.3903C37.0801 83.2858 37.013 83.1503 36.9156 82.9866C36.8229 82.8309 36.7075 82.6608 36.5142 82.5443C36.3188 82.4265 36.0605 82.3731 35.6989 82.4134L35.7265 82.6618ZM37.6172 83.803C37.8969 83.803 38.2107 83.6862 38.4983 83.5066C38.7877 83.3258 39.0624 83.0741 39.2634 82.7879C39.4638 82.5027 39.597 82.174 39.5864 81.8419C39.5757 81.5041 39.4165 81.18 39.0662 80.912L38.9143 81.1105C39.2115 81.3379 39.3284 81.5948 39.3365 81.8498C39.3448 82.1106 39.2397 82.3867 39.0588 82.6443C38.8785 82.901 38.6291 83.1301 38.3658 83.2946C38.1007 83.4602 37.8332 83.553 37.6172 83.553V83.803ZM39.0661 80.9119C38.7287 80.6541 38.4358 80.5436 38.1709 80.5423C37.9049 80.541 37.688 80.65 37.5042 80.788C37.3257 80.922 37.1606 81.0987 37.0178 81.2319C36.8663 81.3732 36.7355 81.4708 36.6001 81.5013L36.655 81.7452C36.8617 81.6987 37.0353 81.5574 37.1883 81.4147C37.35 81.2639 37.4897 81.1115 37.6543 80.988C37.8135 80.8684 37.978 80.7914 38.1697 80.7923C38.3623 80.7932 38.6034 80.8731 38.9143 81.1106L39.0661 80.9119ZM36.6007 81.5012C36.4654 81.531 36.3329 81.5029 36.1918 81.4325C36.0482 81.361 35.9053 81.2505 35.7521 81.1264C35.6029 81.0055 35.4428 80.8707 35.2772 80.7681C35.1106 80.6647 34.9255 80.5854 34.7215 80.5854V80.8354C34.8597 80.8354 34.998 80.8891 35.1455 80.9805C35.2941 81.0727 35.4389 81.1944 35.5947 81.3207C35.7466 81.4436 35.909 81.5709 36.0802 81.6563C36.254 81.7429 36.446 81.7912 36.6544 81.7454L36.6007 81.5012ZM34.7215 80.5854C34.6683 80.5854 34.6321 80.5684 34.602 80.5385C34.5683 80.505 34.5367 80.4493 34.5107 80.3648C34.4582 80.1942 34.4414 79.9508 34.4368 79.6689C34.4324 79.3967 34.4395 79.0823 34.4289 78.8073C34.4183 78.532 34.3897 78.2627 34.3026 78.0676L34.0743 78.1695C34.1399 78.3164 34.1685 78.542 34.1791 78.8169C34.1897 79.092 34.1821 79.3827 34.1868 79.673C34.1914 79.9536 34.2076 80.2299 34.2718 80.4384C34.3041 80.5434 34.3517 80.6422 34.4257 80.7157C34.5031 80.7928 34.6029 80.8354 34.7215 80.8354V80.5854ZM34.3027 78.0679C34.1545 77.7337 33.9676 77.1552 33.8931 76.5593C33.8178 75.9572 33.8615 75.3705 34.1369 74.9911L33.9346 74.8442C33.6006 75.3043 33.5679 75.9739 33.645 76.5903C33.7229 77.2129 33.9171 77.8151 34.0742 78.1693L34.3027 78.0679ZM34.1368 74.9913C34.2404 74.8491 34.4419 74.8073 34.8014 74.8905C35.1523 74.9718 35.5939 75.1592 36.1015 75.384C37.1038 75.8279 38.3468 76.4113 39.5179 76.4895L39.5345 76.24C38.4177 76.1655 37.221 75.6064 36.2027 75.1554C35.7001 74.9328 35.2362 74.7346 34.8578 74.647C34.4881 74.5613 34.1366 74.5672 33.9347 74.844L34.1368 74.9913ZM39.5178 76.4895C40.6861 76.5682 41.7017 76.2775 42.428 75.8559C42.7909 75.6452 43.0845 75.4001 43.2887 75.1489C43.4913 74.8998 43.6145 74.6338 43.6145 74.3834H43.3645C43.3645 74.5543 43.278 74.7659 43.0947 74.9912C42.9131 75.2146 42.6446 75.4411 42.3025 75.6397C41.6187 76.0366 40.6526 76.3154 39.5346 76.24L39.5178 76.4895ZM43.6145 74.3834C43.6145 74.1529 43.5419 73.8831 43.4641 73.6112C43.3843 73.3326 43.2964 73.0437 43.25 72.753C43.2039 72.4635 43.2012 72.1834 43.2855 71.9254C43.3689 71.6704 43.5407 71.4266 43.8625 71.2133L43.7244 71.005C43.3597 71.2466 43.1503 71.5347 43.0479 71.8477C42.9465 72.1579 42.9537 72.482 43.0032 72.7924C43.0524 73.1017 43.1459 73.4082 43.2237 73.68C43.3035 73.9587 43.3645 74.1942 43.3645 74.3834H43.6145ZM43.8628 71.2131C44.2111 70.9808 44.4217 70.7738 44.5166 70.5644C44.6167 70.3435 44.5794 70.1412 44.4889 69.9491C44.4032 69.7672 44.257 69.5707 44.1247 69.3674C43.9881 69.1573 43.852 68.921 43.7615 68.6325L43.5229 68.7074C43.6233 69.0272 43.7732 69.2855 43.9152 69.5037C44.0616 69.7288 44.1868 69.8943 44.2628 70.0556C44.334 70.2068 44.3488 70.329 44.2889 70.4612C44.2237 70.6049 44.0622 70.7796 43.7241 71.0052L43.8628 71.2131ZM43.7615 68.6326C43.5821 68.0602 43.7304 67.6161 43.967 67.3874C44.0858 67.2724 44.2263 67.2114 44.3639 67.2076C44.4997 67.2038 44.6437 67.2555 44.774 67.386L44.9509 67.2094C44.7758 67.034 44.5668 66.9519 44.3569 66.9577C44.1488 66.9634 43.9507 67.0553 43.7932 67.2077C43.4769 67.5135 43.3205 68.0615 43.5229 68.7073L43.7615 68.6326ZM44.774 67.386C44.8753 67.4875 45.0405 67.555 45.2341 67.6028C45.4325 67.6517 45.6807 67.6847 45.9672 67.7041C46.5408 67.743 47.283 67.7286 48.1193 67.6715C49.7926 67.5574 51.8561 67.2715 53.7288 66.8904L53.6789 66.6454C51.8159 67.0245 49.7634 67.3088 48.1023 67.4221C47.2713 67.4788 46.5417 67.4925 45.9841 67.4547C45.7051 67.4358 45.4728 67.4042 45.2941 67.3601C45.1106 67.3148 45.0019 67.2605 44.9509 67.2094L44.774 67.386ZM53.7289 66.8904C55.6039 66.5064 57.197 65.9696 58.3528 65.3921C58.9304 65.1035 59.4025 64.8029 59.7465 64.5034C60.0877 64.2063 60.3163 63.8986 60.3812 63.5929L60.1366 63.541C60.0884 63.7682 59.9079 64.0313 59.5823 64.3148C59.2595 64.5959 58.8071 64.8856 58.241 65.1684C57.1094 65.7339 55.538 66.2647 53.6788 66.6454L53.7289 66.8904ZM60.3811 63.5932C60.4331 63.3505 60.6117 63.01 60.8736 62.6101C61.1328 62.2144 61.4638 61.7748 61.8064 61.3375C62.1511 60.8975 62.4986 60.471 62.8022 60.0861C63.1014 59.7067 63.3547 59.3717 63.4931 59.1347L63.2772 59.0086C63.1491 59.228 62.907 59.5494 62.6059 59.9313C62.3091 60.3076 61.9513 60.7473 61.6096 61.1833C61.2659 61.622 60.9297 62.0683 60.6645 62.4731C60.402 62.8738 60.1993 63.2485 60.1367 63.5408L60.3811 63.5932ZM63.4931 59.1346C63.7802 58.6427 63.8044 58.0805 63.5425 57.609C63.2809 57.1379 62.7459 56.7786 61.9556 56.6614L61.919 56.9087C62.6529 57.0175 63.1091 57.3436 63.324 57.7304C63.5386 58.1167 63.5246 58.5847 63.2772 59.0086L63.4931 59.1346ZM61.9557 56.6614C61.5987 56.6082 61.345 56.4675 61.1727 56.2794C60.9997 56.0905 60.9011 55.8452 60.8703 55.5707C60.8081 55.0181 61.0235 54.3655 61.4233 53.8939L61.2326 53.7323C60.7938 54.2498 60.5511 54.9695 60.6218 55.5987C60.6574 55.9152 60.7731 56.2132 60.9883 56.4482C61.2044 56.6841 61.513 56.8482 61.9189 56.9087L61.9557 56.6614ZM61.4233 53.8939C61.65 53.6264 61.7427 53.3504 61.7116 53.0814C61.6809 52.8154 61.5316 52.5779 61.3173 52.379C60.891 51.9832 60.1761 51.7093 59.435 51.6312L59.4088 51.8798C60.1156 51.9543 60.7729 52.2146 61.1472 52.5622C61.3333 52.7349 61.4414 52.9214 61.4633 53.1101C61.4847 53.2958 61.425 53.5052 61.2326 53.7323L61.4233 53.8939ZM59.435 51.6312C58.7254 51.5564 57.8139 51.2762 57.2452 50.8739C56.9597 50.672 56.7806 50.4534 56.7351 50.2333C56.6918 50.0237 56.7628 49.7752 57.0669 49.4896L56.8958 49.3074C56.5523 49.63 56.4236 49.9613 56.4903 50.2839C56.5547 50.5958 56.7953 50.8619 57.1008 51.078C57.7142 51.5119 58.6705 51.802 59.4088 51.8798L59.435 51.6312ZM57.0674 49.4892C57.3737 49.1988 57.579 49.1066 57.7262 49.0986C57.8677 49.0909 57.9878 49.1593 58.1341 49.2871L58.2986 49.0989C58.1409 48.961 57.9562 48.8357 57.7127 48.8489C57.4748 48.8619 57.2145 49.0052 56.8954 49.3077L57.0674 49.4892ZM58.3334 49.2367C58.4426 48.9439 58.552 48.6195 58.6119 48.3443C58.6418 48.2073 58.6608 48.0765 58.6593 47.9652C58.6579 47.8603 58.6383 47.7415 58.558 47.6626L58.3827 47.8409C58.3891 47.8471 58.4081 47.8783 58.4093 47.9685C58.4104 48.0524 58.3958 48.162 58.3677 48.2911C58.3116 48.5484 58.2073 48.8594 58.0992 49.1493L58.3334 49.2367ZM58.5591 47.6638C58.458 47.5617 58.3196 47.5191 58.2157 47.4818C58.1033 47.4415 58.0023 47.4004 57.9118 47.3138C57.732 47.1417 57.555 46.748 57.5938 45.6708L57.344 45.6618C57.3049 46.7479 57.4752 47.242 57.7389 47.4944C57.8702 47.6201 58.0149 47.6754 58.1312 47.7171C58.256 47.7619 58.3293 47.787 58.3816 47.8398L58.5591 47.6638ZM57.5938 45.6707C57.6126 45.1385 57.674 44.7724 57.7552 44.4797C57.8368 44.1857 57.9388 43.9632 58.0464 43.7089C58.2645 43.1935 58.481 42.5989 58.5219 41.1922L58.272 41.1849C58.2321 42.5593 58.0227 43.1234 57.8161 43.6115C57.7114 43.859 57.6013 44.0994 57.5143 44.4129C57.4269 44.7278 57.3633 45.1139 57.344 45.6619L57.5938 45.6707ZM58.5219 41.1918C58.5582 39.819 58.8435 38.7321 59.122 37.8003C59.3984 36.876 59.6776 36.0804 59.6776 35.3224H59.4276C59.4276 36.0335 59.1656 36.7818 58.8825 37.7287C58.6016 38.6682 58.3091 39.7798 58.272 41.1852L58.5219 41.1918ZM59.6776 35.3224C59.6776 34.9928 59.826 34.6373 60.0901 34.2428C60.3533 33.8495 60.7216 33.4318 61.1417 32.9786C61.977 32.0775 63.0122 31.043 63.7532 29.8311L63.5399 29.7007C62.8154 30.8855 61.8036 31.8969 60.9583 32.8087C60.5381 33.2619 60.1577 33.6924 59.8823 34.1038C59.6077 34.514 59.4276 34.9197 59.4276 35.3224H59.6776ZM63.7531 29.8313C64.4802 28.6461 65.6314 27.3028 66.7676 26.1478C67.9047 24.992 69.0168 24.0347 69.6616 23.6173L69.5257 23.4074C68.8578 23.8398 67.7306 24.8125 66.5894 25.9725C65.4473 27.1334 64.2813 28.4921 63.54 29.7006L63.7531 29.8313ZM69.6616 23.6173C70.3073 23.1993 71.2577 22.8196 72.1067 22.4397C72.5272 22.2516 72.9224 22.0633 73.233 21.8722C73.537 21.6851 73.7874 21.4794 73.8814 21.2461L73.6495 21.1527C73.5886 21.3038 73.4042 21.4733 73.102 21.6593C72.8065 21.8411 72.4243 22.0237 72.0046 22.2115C71.1734 22.5834 70.1928 22.9756 69.5257 23.4074L69.6616 23.6173ZM73.8817 21.2455C73.9266 21.1322 73.9566 20.9685 73.9766 20.7776C73.9969 20.5839 74.0077 20.3524 74.01 20.0979C74.0147 19.5888 73.9853 18.9815 73.9269 18.3894C73.8686 17.7978 73.7809 17.2173 73.6679 16.7629C73.6115 16.536 73.5477 16.3362 73.476 16.1809C73.4076 16.0326 73.3203 15.8978 73.2022 15.8381L73.0894 16.0612C73.1258 16.0796 73.1834 16.1433 73.249 16.2856C73.3113 16.4208 73.3707 16.6037 73.4253 16.8232C73.5343 17.2615 73.6205 17.8289 73.6781 18.414C73.7358 18.9985 73.7646 19.5967 73.7601 20.0956C73.7578 20.3451 73.7472 20.5682 73.728 20.7515C73.7085 20.9376 73.6811 21.0732 73.6493 21.1533L73.8817 21.2455Z" fill="#868686"/>
</g>
<defs>
<filter id="filter0_d_6252_1145" x="0.673828" y="0.383301" width="77.3369" height="144.473" filterUnits="userSpaceOnUse" color-interpolation-filters="sRGB">
<feFlood flood-opacity="0" result="BackgroundImageFix"/>
<feColorMatrix in="SourceAlpha" type="matrix" values="0 0 0 0 0 0 0 0 0 0 0 0 0 0 0 0 0 0 127 0" result="hardAlpha"/>
<feOffset dy="2"/>
<feGaussianBlur stdDeviation="2"/>
<feColorMatrix type="matrix" values="0 0 0 0 0 0 0 0 0 0 0 0 0 0 0 0 0 0 0.01 0"/>
<feBlend mode="normal" in2="BackgroundImageFix" result="effect1_dropShadow_6252_1145"/>
<feBlend mode="normal" in="SourceGraphic" in2="effect1_dropShadow_6252_1145" result="shape"/>
</filter>
</defs>
</svg>
