<svg width="35" height="21" viewBox="0 0 35 21" fill="none" xmlns="http://www.w3.org/2000/svg">
<g filter="url(#filter0_d_6252_1103)">
<path fill-rule="evenodd" clip-rule="evenodd" d="M26.0055 3.87267C25.098 2.84973 22.8278 2.84973 22.8278 2.84973C22.8278 2.84973 22.6002 3.87267 22.2581 4.43918C21.9732 4.91469 20.3242 4.90735 19.2669 4.62263C18.9673 5.01449 17.5929 5.32122 17.4035 5.88773C17.1744 6.57458 15.4975 6.193 16.0305 8.0202C16.5635 9.84887 15.195 9.24127 14.659 9.01232C14.1245 8.78484 11.7603 9.08864 11.1524 9.69771C10.5415 10.3082 9.70305 10.1541 9.16854 9.85034C8.6355 9.54801 7.57089 9.39244 7.11128 10.1541C6.6546 10.9173 5.81613 9.54801 5.12743 9.62286C4.44462 9.69917 4.74858 11.1463 4.74858 11.4515C4.74858 11.7553 5.81759 12.6682 6.50041 12.3659C7.18764 12.0606 8.02757 12.4422 8.6355 12.8238C9.2449 13.2053 10.3903 12.5185 10.7706 12.1384C11.1524 11.7553 13.286 11.7553 13.5151 11.7553C13.7427 11.7553 13.819 12.9764 14.2023 13.2039C14.5826 13.4314 16.0305 13.5855 17.3286 13.6618C18.6237 13.7366 20.5297 14.3472 21.1391 14.3472C21.7485 14.3472 22.7397 13.2787 24.1098 13.2787C25.4827 13.2787 26.2434 12.4422 26.4725 12.517C26.4783 12.5185 26.4827 12.5244 26.4857 12.5288C26.5841 12.1046 26.7441 11.7627 27.0422 11.7186C27.6002 11.6423 27.2008 10.6869 27.6002 10.2099C27.9982 9.73586 27.2801 8.78044 27.9982 8.85822C28.7118 8.94041 29.5062 9.01819 29.5062 7.98645C29.5062 7.63715 29.6942 7.33041 29.9658 7.07211C29.1802 5.97139 28.6149 4.21316 28.6149 4.21316C28.6149 4.21316 26.9159 4.89268 26.0055 3.87267Z" fill="white"/>
<path fill-rule="evenodd" clip-rule="evenodd" d="M26.0055 3.87267C25.098 2.84973 22.8278 2.84973 22.8278 2.84973C22.8278 2.84973 22.6002 3.87267 22.2581 4.43918C21.9732 4.91469 20.3242 4.90735 19.2669 4.62263C18.9673 5.01449 17.5929 5.32122 17.4035 5.88773C17.1744 6.57458 15.4975 6.193 16.0305 8.0202C16.5635 9.84887 15.195 9.24127 14.659 9.01232C14.1245 8.78484 11.7603 9.08864 11.1524 9.69771C10.5415 10.3082 9.70305 10.1541 9.16854 9.85034C8.6355 9.54801 7.57089 9.39244 7.11128 10.1541C6.6546 10.9173 5.81613 9.54801 5.12743 9.62286C4.44462 9.69917 4.74858 11.1463 4.74858 11.4515C4.74858 11.7553 5.81759 12.6682 6.50041 12.3659C7.18764 12.0606 8.02757 12.4422 8.6355 12.8238C9.2449 13.2053 10.3903 12.5185 10.7706 12.1384C11.1524 11.7553 13.286 11.7553 13.5151 11.7553C13.7427 11.7553 13.819 12.9764 14.2023 13.2039C14.5826 13.4314 16.0305 13.5855 17.3286 13.6618C18.6237 13.7366 20.5297 14.3472 21.1391 14.3472C21.7485 14.3472 22.7397 13.2787 24.1098 13.2787C25.4827 13.2787 26.2434 12.4422 26.4725 12.517C26.4783 12.5185 26.4827 12.5244 26.4857 12.5288C26.5841 12.1046 26.7441 11.7627 27.0422 11.7186C27.6002 11.6423 27.2008 10.6869 27.6002 10.2099C27.9982 9.73586 27.2801 8.78044 27.9982 8.85822C28.7118 8.94041 29.5062 9.01819 29.5062 7.98645C29.5062 7.63715 29.6942 7.33041 29.9658 7.07211C29.1802 5.97139 28.6149 4.21316 28.6149 4.21316C28.6149 4.21316 26.9159 4.89268 26.0055 3.87267Z" stroke="#868686" stroke-width="0.25"/>
</g>
<defs>
<filter id="filter0_d_6252_1103" x="0.556152" y="0.724731" width="33.5747" height="19.7474" filterUnits="userSpaceOnUse" color-interpolation-filters="sRGB">
<feFlood flood-opacity="0" result="BackgroundImageFix"/>
<feColorMatrix in="SourceAlpha" type="matrix" values="0 0 0 0 0 0 0 0 0 0 0 0 0 0 0 0 0 0 127 0" result="hardAlpha"/>
<feOffset dy="2"/>
<feGaussianBlur stdDeviation="2"/>
<feColorMatrix type="matrix" values="0 0 0 0 0 0 0 0 0 0 0 0 0 0 0 0 0 0 0.01 0"/>
<feBlend mode="normal" in2="BackgroundImageFix" result="effect1_dropShadow_6252_1103"/>
<feBlend mode="normal" in="SourceGraphic" in2="effect1_dropShadow_6252_1103" result="shape"/>
</filter>
</defs>
</svg>
