<svg width="26" height="24" viewBox="0 0 26 24" fill="none" xmlns="http://www.w3.org/2000/svg">
<g filter="url(#filter0_d_6252_1353)">
<path fill-rule="evenodd" clip-rule="evenodd" d="M21.0805 7.70125C20.6635 6.94395 19.3713 5.40441 18.013 3.74011C17.5915 4.99347 16.0879 4.6427 15.7927 5.36331C15.4902 6.12501 14.7252 5.21068 14.27 5.36331C13.8133 5.51448 12.7472 3.68581 11.6797 3.53464C11.3551 3.49208 10.9748 3.31303 10.5916 3.09875C10.151 3.56693 9.74722 4.09381 9.90141 4.34918C10.2054 4.85698 11.5255 5.36331 11.0189 5.87405C10.5108 6.37891 8.88379 6.17785 8.37718 5.66858C7.86617 5.16078 6.34194 4.34918 6.03798 4.95825C5.73255 5.56731 7.35956 6.88671 7.15692 7.70125C6.95428 8.51285 8.37718 9.42719 8.37718 10.4443C8.37718 11.4569 10.5108 12.1731 10.5108 12.9818C10.5108 13.3781 10.8456 14.081 11.1907 14.7004C12.8588 13.993 14.2289 12.6912 15.3081 12.1526C16.9337 11.3366 16.2568 14.7341 15.9866 15.2742C15.7957 15.6485 17.0908 16.5364 18.4476 17.053C18.4021 16.3177 18.5783 15.5986 19.0512 15.0159C20.7751 12.8835 22.0967 9.52992 21.0805 7.70125ZM6.62861 12.7528C6.29675 12.6031 5.66092 12.1261 4.94727 11.9617C5.16606 12.5649 5.14697 13.356 6.07942 13.7816C7.56987 14.4582 5.39954 14.7297 8.38779 15.1362C8.58602 15.1641 8.77986 15.167 8.97516 15.1685C9.0662 14.4083 9.00893 14.1896 8.23948 13.3384C7.36136 12.3594 7.06914 12.9465 6.62861 12.7528Z" fill="white"/>
<path d="M21.0805 7.70125L20.971 7.76155L20.9713 7.76197L21.0805 7.70125ZM18.013 3.74011L18.1098 3.66107L17.9667 3.48566L17.8945 3.70027L18.013 3.74011ZM15.7927 5.36331L15.677 5.31593L15.6766 5.31718L15.7927 5.36331ZM14.27 5.36331L14.3093 5.48198L14.3097 5.48183L14.27 5.36331ZM11.6797 3.53464L11.6972 3.41087L11.6959 3.4107L11.6797 3.53464ZM10.5916 3.09875L10.6526 2.98965L10.5674 2.94203L10.5005 3.0131L10.5916 3.09875ZM9.90141 4.34918L10.0087 4.28498L10.0084 4.28457L9.90141 4.34918ZM11.0189 5.87405L11.107 5.96272L11.1076 5.96208L11.0189 5.87405ZM8.37718 5.66858L8.4658 5.58042L8.46529 5.57991L8.37718 5.66858ZM6.03798 4.95825L6.14972 5.01428L6.14982 5.01406L6.03798 4.95825ZM7.15692 7.70125L7.2782 7.73153L7.27822 7.73143L7.15692 7.70125ZM11.1907 14.7004L11.0815 14.7612L11.1361 14.8593L11.2395 14.8155L11.1907 14.7004ZM15.3081 12.1526L15.364 12.2644L15.3642 12.2643L15.3081 12.1526ZM15.9866 15.2742L16.0979 15.331L16.0984 15.3302L15.9866 15.2742ZM18.4476 17.053L18.4032 17.1698L18.5844 17.2388L18.5724 17.0453L18.4476 17.053ZM19.0512 15.0159L19.1482 15.0947L19.1484 15.0945L19.0512 15.0159ZM6.62861 12.7528L6.57721 12.8667L6.57829 12.8672L6.62861 12.7528ZM4.94727 11.9617L4.97532 11.8399L4.75141 11.7883L4.82976 12.0043L4.94727 11.9617ZM6.07942 13.7816L6.02752 13.8953L6.02775 13.8954L6.07942 13.7816ZM8.38779 15.1362L8.4052 15.0124L8.40464 15.0123L8.38779 15.1362ZM8.97516 15.1685L8.97422 15.2935L9.08598 15.2943L9.09927 15.1834L8.97516 15.1685ZM8.23948 13.3384L8.14643 13.4218L8.14675 13.4222L8.23948 13.3384ZM21.19 7.64095C20.9756 7.25166 20.5416 6.66946 19.9977 5.98316C19.452 5.29464 18.7882 4.49221 18.1098 3.66107L17.9161 3.81915C18.5961 4.6523 19.2575 5.45179 19.8018 6.13845C20.3478 6.82732 20.7684 7.39354 20.971 7.76155L21.19 7.64095ZM17.8945 3.70027C17.7033 4.26883 17.2721 4.47706 16.8151 4.63321C16.5931 4.70905 16.3492 4.77687 16.1521 4.86862C15.9502 4.96266 15.768 5.0939 15.6771 5.31593L15.9084 5.41069C15.965 5.27242 16.0815 5.17728 16.2577 5.09525C16.4387 5.01093 16.6524 4.95299 16.8959 4.86978C17.3699 4.70782 17.9012 4.46475 18.1315 3.77995L17.8945 3.70027ZM15.6766 5.31718C15.6117 5.48049 15.5352 5.52719 15.4672 5.54052C15.3843 5.55676 15.2759 5.53195 15.135 5.47564C15.0667 5.44835 14.9971 5.41642 14.9236 5.38318C14.8514 5.35054 14.7758 5.31675 14.7011 5.28891C14.5568 5.23515 14.3878 5.19198 14.2302 5.2448L14.3097 5.48183C14.3798 5.45833 14.477 5.47221 14.6137 5.52316C14.6795 5.54767 14.748 5.57815 14.8206 5.61097C14.8918 5.6432 14.9675 5.67793 15.0422 5.70779C15.1873 5.76576 15.3554 5.81718 15.5152 5.78586C15.6899 5.75163 15.8225 5.62698 15.9089 5.40945L15.6766 5.31718ZM14.2307 5.24464C14.2179 5.24887 14.1873 5.25123 14.1253 5.22157C14.0645 5.19253 13.9908 5.14084 13.9033 5.06706C13.7278 4.91904 13.5246 4.70631 13.2923 4.47397C13.0634 4.245 12.8102 4.00122 12.5449 3.80492C12.2808 3.60947 11.9941 3.45291 11.6972 3.41088L11.6621 3.65841C11.8991 3.69195 12.1459 3.82067 12.3962 4.00588C12.6453 4.19026 12.8874 4.42254 13.1155 4.65073C13.3403 4.87556 13.5559 5.1011 13.7421 5.25816C13.8355 5.33693 13.9283 5.40449 14.0174 5.44711C14.1053 5.48911 14.2079 5.51554 14.3093 5.48198L14.2307 5.24464ZM11.6959 3.4107C11.3974 3.37155 11.0356 3.20378 10.6526 2.98965L10.5306 3.20786C10.9141 3.42228 11.3129 3.61261 11.6634 3.65858L11.6959 3.4107ZM10.5005 3.0131C10.2787 3.2489 10.0606 3.50505 9.91702 3.73825C9.84543 3.85455 9.7884 3.97144 9.76095 4.08171C9.73358 4.19165 9.7321 4.3106 9.7944 4.41379L10.0084 4.28457C9.99362 4.26007 9.9848 4.21739 10.0035 4.1421C10.0222 4.06712 10.0648 3.97515 10.1299 3.86929C10.2599 3.65816 10.464 3.41678 10.6826 3.18441L10.5005 3.0131ZM9.79415 4.41338C9.88289 4.56162 10.0389 4.70066 10.1974 4.82746C10.3671 4.96323 10.5294 5.07766 10.6841 5.20654C10.836 5.33312 10.9423 5.44438 10.9868 5.54304C11.0074 5.58896 11.012 5.62662 11.0059 5.65997C10.9997 5.69352 10.9801 5.7356 10.9301 5.78602L11.1076 5.96208C11.1843 5.88481 11.2343 5.79935 11.2517 5.70547C11.2691 5.61138 11.2513 5.52172 11.2147 5.44042C11.1446 5.28463 10.9969 5.14181 10.8441 5.01448C10.6941 4.88947 10.501 4.75018 10.3536 4.63223C10.1949 4.50532 10.0719 4.39064 10.0087 4.28498L9.79415 4.41338ZM10.9308 5.78538C10.8288 5.8867 10.6597 5.96181 10.4396 6.00376C10.2219 6.04525 9.96725 6.05174 9.70933 6.02718C9.45168 6.00264 9.19516 5.94753 8.97418 5.86878C8.75118 5.78931 8.57398 5.68917 8.4658 5.58042L8.28856 5.75674C8.43369 5.90262 8.64984 6.01859 8.89026 6.10427C9.13271 6.19068 9.40969 6.24977 9.68563 6.27605C9.9613 6.30231 10.2404 6.29623 10.4864 6.24934C10.7301 6.20291 10.9549 6.11383 11.107 5.96272L10.9308 5.78538ZM8.46529 5.57991C8.19568 5.312 7.67161 4.97362 7.17575 4.77829C6.92802 4.68069 6.67569 4.61406 6.4588 4.61588C6.24001 4.61772 6.03135 4.69161 5.92613 4.90243L6.14982 5.01406C6.19659 4.92035 6.29244 4.86729 6.4609 4.86587C6.63127 4.86444 6.84893 4.91824 7.08412 5.01089C7.55412 5.19604 8.04767 5.51736 8.28907 5.75725L8.46529 5.57991ZM5.92624 4.90221C5.82132 5.11144 5.89176 5.35794 5.99973 5.58326C6.11103 5.81553 6.2856 6.07158 6.45534 6.3227C6.62807 6.57824 6.79741 6.83086 6.91199 7.06889C7.02805 7.30999 7.07535 7.51137 7.03562 7.67107L7.27822 7.73143C7.33981 7.48386 7.25972 7.21487 7.13725 6.96046C7.01331 6.70298 6.83298 6.43496 6.66246 6.1827C6.48896 5.92601 6.32671 5.68711 6.22518 5.47523C6.12033 5.25641 6.10192 5.10959 6.14972 5.01428L5.92624 4.90221ZM7.03564 7.67097C6.9748 7.91463 7.03886 8.15596 7.14968 8.38387C7.26018 8.61114 7.4259 8.84221 7.58975 9.06892C7.75629 9.29937 7.92245 9.52731 8.048 9.76006C8.17327 9.99229 8.25218 10.219 8.25218 10.4443H8.50218C8.50218 10.161 8.40323 9.892 8.26803 9.64137C8.13312 9.39127 7.95622 9.1492 7.79237 8.92248C7.62582 8.69203 7.47381 8.47877 7.37451 8.27455C7.27553 8.07098 7.23771 7.89367 7.2782 7.73153L7.03564 7.67097ZM8.25218 10.4443C8.25218 10.7428 8.40932 11.0065 8.61766 11.2379C8.8266 11.47 9.10238 11.6862 9.3682 11.8889C9.63845 12.095 9.89686 12.286 10.0898 12.4757C10.2862 12.6688 10.3858 12.8336 10.3858 12.9818H10.6358C10.6358 12.7256 10.4687 12.4977 10.2651 12.2974C10.0579 12.0938 9.78294 11.8908 9.51978 11.6901C9.2522 11.4861 8.99457 11.2829 8.80346 11.0706C8.61174 10.8577 8.50218 10.652 8.50218 10.4443H8.25218ZM10.3858 12.9818C10.3858 13.2068 10.4786 13.5016 10.606 13.8057C10.7354 14.1145 10.9078 14.4496 11.0815 14.7612L11.2999 14.6396C11.1285 14.3319 10.9609 14.0058 10.8366 13.7091C10.7104 13.4079 10.6358 13.153 10.6358 12.9818H10.3858ZM11.2395 14.8155C12.0864 14.4563 12.855 13.9475 13.542 13.4655C14.2347 12.9796 14.8353 12.5283 15.364 12.2644L15.2523 12.0407C14.7017 12.3155 14.0777 12.7844 13.3984 13.2609C12.7136 13.7413 11.9631 14.2371 11.1419 14.5853L11.2395 14.8155ZM15.3642 12.2643C15.5552 12.1684 15.6971 12.1424 15.8007 12.1544C15.8994 12.1659 15.9759 12.2134 16.0383 12.2957C16.1033 12.3813 16.1531 12.5057 16.186 12.6647C16.2187 12.8225 16.2332 13.0066 16.2333 13.2049C16.2333 13.6016 16.1756 14.0429 16.1005 14.4194C16.0247 14.8 15.9343 15.0994 15.8748 15.2183L16.0984 15.3302C16.1739 15.1791 16.2694 14.8512 16.3457 14.4683C16.4228 14.0814 16.4833 13.623 16.4833 13.2048C16.4832 12.9957 16.468 12.7936 16.4308 12.6139C16.3938 12.4354 16.3335 12.2711 16.2375 12.1446C16.139 12.0147 16.0038 11.9264 15.8295 11.9061C15.66 11.8864 15.4675 11.9327 15.2521 12.0409L15.3642 12.2643ZM15.8752 15.2174C15.8321 15.3019 15.8362 15.3928 15.8629 15.4755C15.8892 15.5565 15.9394 15.6375 16.0024 15.7157C16.1286 15.8727 16.3256 16.0427 16.5643 16.2122C17.0436 16.5524 17.7163 16.9083 18.4032 17.1698L18.4921 16.9362C17.8222 16.6811 17.1688 16.3347 16.7091 16.0083C16.4783 15.8445 16.3025 15.69 16.1972 15.5591C16.1444 15.4934 16.1141 15.4395 16.1008 15.3984C16.0879 15.3588 16.0933 15.3401 16.0979 15.331L15.8752 15.2174ZM18.5724 17.0453C18.5284 16.3349 18.6988 15.6485 19.1482 15.0947L18.9541 14.9372C18.4578 15.5487 18.2758 16.3005 18.3229 17.0607L18.5724 17.0453ZM19.1484 15.0945C20.0194 14.017 20.7887 12.6317 21.2126 11.2821C21.6347 9.93831 21.7232 8.60054 21.1898 7.64054L20.9713 7.76197C21.454 8.63063 21.3898 9.88397 20.9741 11.2072C20.5603 12.5247 19.8068 13.8824 18.954 14.9373L19.1484 15.0945ZM6.68001 12.6388C6.60391 12.6045 6.50749 12.55 6.38913 12.4811C6.27278 12.4134 6.13782 12.3334 5.99112 12.2531C5.69785 12.0926 5.3487 11.9259 4.97532 11.8399L4.91921 12.0835C5.25948 12.1619 5.58508 12.3159 5.8711 12.4724C6.01405 12.5506 6.14487 12.6282 6.26338 12.6972C6.37988 12.765 6.48738 12.8262 6.57721 12.8667L6.68001 12.6388ZM4.82976 12.0043C4.88199 12.1483 4.92003 12.3035 4.96445 12.4725C5.00813 12.6386 5.0573 12.815 5.13074 12.9873C5.28021 13.3379 5.52884 13.6677 6.02752 13.8953L6.13133 13.6679C5.69755 13.4699 5.48951 13.1913 5.36071 12.8892C5.29501 12.7351 5.24965 12.574 5.20624 12.4089C5.16356 12.2466 5.12194 12.0767 5.06477 11.9191L4.82976 12.0043ZM6.02775 13.8954C6.39307 14.0612 6.49935 14.188 6.53326 14.2695C6.55003 14.3098 6.55351 14.349 6.55194 14.3962C6.55106 14.4225 6.54911 14.4437 6.54729 14.475C6.54566 14.5032 6.54445 14.5363 6.54738 14.5707C6.55366 14.6447 6.57879 14.7216 6.64626 14.7931C6.7094 14.86 6.80277 14.915 6.93079 14.9647C7.18597 15.0638 7.62378 15.1584 8.37094 15.2601L8.40464 15.0123C7.65767 14.9107 7.24618 14.819 7.02127 14.7317C6.90925 14.6882 6.85489 14.6499 6.82814 14.6216C6.80572 14.5978 6.79883 14.5772 6.79648 14.5496C6.79509 14.5332 6.79543 14.5144 6.79687 14.4895C6.79814 14.4676 6.80081 14.4342 6.8018 14.4045C6.80396 14.3395 6.80012 14.2601 6.76408 14.1735C6.69235 14.0011 6.51099 13.8402 6.13109 13.6678L6.02775 13.8954ZM8.37037 15.26C8.57778 15.2892 8.77921 15.292 8.97422 15.2935L8.9761 15.0435C8.7805 15.042 8.59427 15.039 8.4052 15.0124L8.37037 15.26ZM9.09927 15.1834C9.14499 14.8016 9.15774 14.5297 9.04658 14.2424C8.938 13.9619 8.7156 13.6787 8.33221 13.2545L8.14675 13.4222C8.53281 13.8493 8.72377 14.101 8.81343 14.3327C8.9005 14.5576 8.89637 14.7752 8.85104 15.1536L9.09927 15.1834ZM8.33252 13.2549C7.88005 12.7505 7.55625 12.6259 7.26985 12.6261C7.14154 12.6262 7.01307 12.6539 6.92762 12.6642C6.83495 12.6755 6.75982 12.6739 6.67893 12.6383L6.57829 12.8672C6.71767 12.9285 6.84426 12.9262 6.95772 12.9124C7.07841 12.8978 7.16047 12.8762 7.27004 12.8761C7.45941 12.876 7.72078 12.9473 8.14643 13.4218L8.33252 13.2549Z" fill="#868686"/>
</g>
<defs>
<filter id="filter0_d_6252_1353" x="0.751465" y="0.942017" width="24.8086" height="22.2968" filterUnits="userSpaceOnUse" color-interpolation-filters="sRGB">
<feFlood flood-opacity="0" result="BackgroundImageFix"/>
<feColorMatrix in="SourceAlpha" type="matrix" values="0 0 0 0 0 0 0 0 0 0 0 0 0 0 0 0 0 0 127 0" result="hardAlpha"/>
<feOffset dy="2"/>
<feGaussianBlur stdDeviation="2"/>
<feColorMatrix type="matrix" values="0 0 0 0 0 0 0 0 0 0 0 0 0 0 0 0 0 0 0.01 0"/>
<feBlend mode="normal" in2="BackgroundImageFix" result="effect1_dropShadow_6252_1353"/>
<feBlend mode="normal" in="SourceGraphic" in2="effect1_dropShadow_6252_1353" result="shape"/>
</filter>
</defs>
</svg>
