<svg width="20" height="31" viewBox="0 0 20 31" fill="none" xmlns="http://www.w3.org/2000/svg">
<g filter="url(#filter0_d_6252_1054)">
<path fill-rule="evenodd" clip-rule="evenodd" d="M11.9651 16.3411C12.1941 14.6665 13.4144 13.8285 13.4144 13.8285C13.4144 13.8285 13.9474 12.6059 14.711 11.8457C15.4731 11.0825 15.1677 7.65709 15.0913 6.9673C15.0488 6.57545 14.877 5.4982 14.7419 4.65578C14.4996 4.79961 14.1339 4.80255 13.642 4.5868C12.7257 4.18027 13.5422 3.26153 12.526 2.95773C11.5084 2.65393 11.1031 3.76933 11.3043 4.5868C11.5084 5.39547 10.7962 5.39547 10.3894 5.90474C9.98269 6.41107 8.1545 6.51087 7.5451 6.51087C6.93424 6.51087 6.22499 7.62921 5.61413 7.83321C5.47756 7.8787 5.2852 7.88457 5.06787 7.86843C5.20884 10.5483 5.65524 10.3429 6.93424 11.0811C8.38211 11.9191 7.0106 13.0624 7.61999 13.6715C8.22939 14.282 8.00178 15.8039 8.1545 17.7118C8.24554 18.8625 8.36742 21.852 8.44672 24.0403C9.28372 23.8788 10.1574 23.8319 10.7463 23.8319C11.8402 23.8319 12.4966 22.3863 13.0958 23.0878C12.7213 21.9533 12.0414 21.2899 12.0414 20.3771C12.0414 19.0841 11.736 18.0171 11.9651 16.3411Z" fill="white"/>
<path fill-rule="evenodd" clip-rule="evenodd" d="M11.9651 16.3411C12.1941 14.6665 13.4144 13.8285 13.4144 13.8285C13.4144 13.8285 13.9474 12.6059 14.711 11.8457C15.4731 11.0825 15.1677 7.65709 15.0913 6.9673C15.0488 6.57545 14.877 5.4982 14.7419 4.65578C14.4996 4.79961 14.1339 4.80255 13.642 4.5868C12.7257 4.18027 13.5422 3.26153 12.526 2.95773C11.5084 2.65393 11.1031 3.76933 11.3043 4.5868C11.5084 5.39547 10.7962 5.39547 10.3894 5.90474C9.98269 6.41107 8.1545 6.51087 7.5451 6.51087C6.93424 6.51087 6.22499 7.62921 5.61413 7.83321C5.47756 7.8787 5.2852 7.88457 5.06787 7.86843C5.20884 10.5483 5.65524 10.3429 6.93424 11.0811C8.38211 11.9191 7.0106 13.0624 7.61999 13.6715C8.22939 14.282 8.00178 15.8039 8.1545 17.7118C8.24554 18.8625 8.36742 21.852 8.44672 24.0403C9.28372 23.8788 10.1574 23.8319 10.7463 23.8319C11.8402 23.8319 12.4966 22.3863 13.0958 23.0878C12.7213 21.9533 12.0414 21.2899 12.0414 20.3771C12.0414 19.0841 11.736 18.0171 11.9651 16.3411Z" stroke="#868686" stroke-width="0.25"/>
</g>
<defs>
<filter id="filter0_d_6252_1054" x="0.935547" y="0.781616" width="18.4058" height="29.4091" filterUnits="userSpaceOnUse" color-interpolation-filters="sRGB">
<feFlood flood-opacity="0" result="BackgroundImageFix"/>
<feColorMatrix in="SourceAlpha" type="matrix" values="0 0 0 0 0 0 0 0 0 0 0 0 0 0 0 0 0 0 127 0" result="hardAlpha"/>
<feOffset dy="2"/>
<feGaussianBlur stdDeviation="2"/>
<feColorMatrix type="matrix" values="0 0 0 0 0 0 0 0 0 0 0 0 0 0 0 0 0 0 0.01 0"/>
<feBlend mode="normal" in2="BackgroundImageFix" result="effect1_dropShadow_6252_1054"/>
<feBlend mode="normal" in="SourceGraphic" in2="effect1_dropShadow_6252_1054" result="shape"/>
</filter>
</defs>
</svg>
