<svg width="42" height="32" viewBox="0 0 42 32" fill="none" xmlns="http://www.w3.org/2000/svg">
<g filter="url(#filter0_d_6252_1116)">
<path fill-rule="evenodd" clip-rule="evenodd" d="M35.2159 13.6696C34.6065 13.5169 34.2247 12.1491 33.2306 11.766C32.2409 11.383 32.47 10.1649 31.6315 9.63211C30.7945 9.09789 31.3246 8.03239 31.2497 7.1929C31.1733 6.35635 31.4024 5.06043 30.9457 4.83295C30.4861 4.604 28.5816 3.53703 27.7446 3.92008C26.9046 4.3002 26.2952 4.604 25.912 3.92008C25.5316 3.23176 25.0001 2.85164 24.1616 3.07913C23.3217 3.30954 22.7872 2.92796 22.3305 2.54638C22.2629 2.48767 22.2042 2.39668 22.1572 2.29541C21.8195 2.36586 21.3745 2.49648 21.0882 2.72689C20.5772 3.13343 20.4773 3.94503 19.7651 3.94503C19.0544 3.94503 18.2424 3.63976 17.4289 4.2503C16.6139 4.85936 16.4113 5.57263 16.514 6.0775C16.6139 6.5853 16.7167 7.39984 16.1073 7.39984C15.4964 7.39984 15.5992 8.11164 14.9898 8.3127C14.379 8.51671 13.3628 9.43251 13.26 9.93444C13.1602 10.4452 13.1602 11.5635 12.7505 11.5635C12.3452 11.5635 10.9223 11.766 10.5155 12.2724C10.1102 12.7831 9.60511 13.2865 8.78866 13.0869C8.37163 12.9812 7.25416 12.9328 6.27031 12.9079C6.285 13.0077 6.285 13.1075 6.24535 13.2117C5.86503 14.2816 6.16899 15.2678 6.77839 15.802C7.38925 16.3348 7.61833 18.4687 6.9311 18.774C6.24388 19.0763 4.94873 19.9921 4.94873 20.5263C4.94873 21.0576 6.32024 21.517 6.09117 22.2772C5.96194 22.7146 5.95607 23.488 6.03096 24.1602C6.68 24.191 7.31877 24.304 7.86943 23.7507C8.48029 23.1417 8.78573 22.4299 10.1058 22.4299C11.426 22.4299 15.3922 22.4299 16.0016 23.1417C16.611 23.8535 18.238 23.2429 19.1528 23.6509C20.0676 24.056 21.3878 24.4655 21.4891 23.9547C21.5933 23.4469 22.8136 24.6651 23.727 24.1587C24.6418 23.6509 25.4538 25.1743 25.9634 24.8705C26.4714 24.5623 28.6051 24.5653 29.1131 25.0731C29.6241 25.5809 29.7211 24.5623 29.7211 23.9547C29.7211 23.3457 31.7578 21.7225 31.7578 21.7225C31.7578 21.7225 33.1425 21.6476 33.9677 21.2763C33.7827 21.0121 33.6271 20.5792 33.4567 19.8395C33.0779 18.162 32.467 17.1743 32.9252 16.6386C33.3818 16.1044 34.677 17.324 35.3613 17.0202C36.05 16.7164 37.2688 16.1044 37.1161 15.419C36.9633 14.7336 35.8253 13.8222 35.2159 13.6696Z" fill="white"/>
<path fill-rule="evenodd" clip-rule="evenodd" d="M35.2159 13.6696C34.6065 13.5169 34.2247 12.1491 33.2306 11.766C32.2409 11.383 32.47 10.1649 31.6315 9.63211C30.7945 9.09789 31.3246 8.03239 31.2497 7.1929C31.1733 6.35635 31.4024 5.06043 30.9457 4.83295C30.4861 4.604 28.5816 3.53703 27.7446 3.92008C26.9046 4.3002 26.2952 4.604 25.912 3.92008C25.5316 3.23176 25.0001 2.85164 24.1616 3.07913C23.3217 3.30954 22.7872 2.92796 22.3305 2.54638C22.2629 2.48767 22.2042 2.39668 22.1572 2.29541C21.8195 2.36586 21.3745 2.49648 21.0882 2.72689C20.5772 3.13343 20.4773 3.94503 19.7651 3.94503C19.0544 3.94503 18.2424 3.63976 17.4289 4.2503C16.6139 4.85936 16.4113 5.57263 16.514 6.0775C16.6139 6.5853 16.7167 7.39984 16.1073 7.39984C15.4964 7.39984 15.5992 8.11164 14.9898 8.3127C14.379 8.51671 13.3628 9.43251 13.26 9.93444C13.1602 10.4452 13.1602 11.5635 12.7505 11.5635C12.3452 11.5635 10.9223 11.766 10.5155 12.2724C10.1102 12.7831 9.60511 13.2865 8.78866 13.0869C8.37163 12.9812 7.25416 12.9328 6.27031 12.9079C6.285 13.0077 6.285 13.1075 6.24535 13.2117C5.86503 14.2816 6.16899 15.2678 6.77839 15.802C7.38925 16.3348 7.61833 18.4687 6.9311 18.774C6.24388 19.0763 4.94873 19.9921 4.94873 20.5263C4.94873 21.0576 6.32024 21.517 6.09117 22.2772C5.96194 22.7146 5.95607 23.488 6.03096 24.1602C6.68 24.191 7.31877 24.304 7.86943 23.7507C8.48029 23.1417 8.78573 22.4299 10.1058 22.4299C11.426 22.4299 15.3922 22.4299 16.0016 23.1417C16.611 23.8535 18.238 23.2429 19.1528 23.6509C20.0676 24.056 21.3878 24.4655 21.4891 23.9547C21.5933 23.4469 22.8136 24.6651 23.727 24.1587C24.6418 23.6509 25.4538 25.1743 25.9634 24.8705C26.4714 24.5623 28.6051 24.5653 29.1131 25.0731C29.6241 25.5809 29.7211 24.5623 29.7211 23.9547C29.7211 23.3457 31.7578 21.7225 31.7578 21.7225C31.7578 21.7225 33.1425 21.6476 33.9677 21.2763C33.7827 21.0121 33.6271 20.5792 33.4567 19.8395C33.0779 18.162 32.467 17.1743 32.9252 16.6386C33.3818 16.1044 34.677 17.324 35.3613 17.0202C36.05 16.7164 37.2688 16.1044 37.1161 15.419C36.9633 14.7336 35.8253 13.8222 35.2159 13.6696Z" stroke="#868686" stroke-width="0.25"/>
</g>
<defs>
<filter id="filter0_d_6252_1116" x="0.82373" y="0.152832" width="40.4307" height="31.1831" filterUnits="userSpaceOnUse" color-interpolation-filters="sRGB">
<feFlood flood-opacity="0" result="BackgroundImageFix"/>
<feColorMatrix in="SourceAlpha" type="matrix" values="0 0 0 0 0 0 0 0 0 0 0 0 0 0 0 0 0 0 127 0" result="hardAlpha"/>
<feOffset dy="2"/>
<feGaussianBlur stdDeviation="2"/>
<feColorMatrix type="matrix" values="0 0 0 0 0 0 0 0 0 0 0 0 0 0 0 0 0 0 0.01 0"/>
<feBlend mode="normal" in2="BackgroundImageFix" result="effect1_dropShadow_6252_1116"/>
<feBlend mode="normal" in="SourceGraphic" in2="effect1_dropShadow_6252_1116" result="shape"/>
</filter>
</defs>
</svg>
