<svg width="52" height="39" viewBox="0 0 52 39" fill="none" xmlns="http://www.w3.org/2000/svg">
<g filter="url(#filter0_d_6252_1052)">
<path fill-rule="evenodd" clip-rule="evenodd" d="M43.9463 19.0579C43.9463 18.4224 43.9477 17.7855 42.6776 16.7288C41.4044 15.6662 40.5586 15.4578 40.5586 14.8179C40.5586 14.1839 40.1342 13.9711 39.074 12.7016C38.0124 11.4321 36.3163 11.4321 36.3163 11.4321L35.892 10.3739L34.4074 10.1597C34.4074 10.1597 33.5601 9.52565 34.8332 8.8887C36.1034 8.25321 34.8332 6.5581 34.6218 5.92261C34.4368 5.37078 32.6453 3.2119 32.1857 2.66447C31.961 2.65566 31.7466 2.62044 31.588 2.53091C30.8802 2.12438 29.4544 2.93745 28.7451 3.64485C28.0344 4.35958 28.541 4.76612 28.0344 5.27245C27.5249 5.78172 25.798 7.30219 24.6805 8.72726C23.5631 10.1479 20.7158 9.23506 19.8024 9.73993C18.8876 10.2477 20.2077 11.0608 19.5983 11.5686C18.9875 12.0779 17.1593 12.888 16.5499 13.1933C15.9405 13.4985 13.4999 13.3958 12.7878 14.3131C12.0785 15.223 11.2635 13.296 10.5514 14.3131C9.84063 15.3272 9.02566 15.4314 8.62331 15.1232C8.52639 15.0528 8.42507 14.9265 8.32081 14.7636C7.66149 15.3756 6.85679 16.0596 6.58807 16.9034C6.13139 18.3476 4.9126 19.6435 4.9126 20.3304C4.9126 21.0143 5.36928 21.9301 5.36928 23.1468C5.36928 24.3693 5.67324 24.9769 6.36046 25.8912C7.04769 26.8041 6.8935 27.9488 6.8935 27.9488C6.8935 27.9488 7.11964 28.4067 7.65708 29.0907C8.18719 29.776 9.71141 30.7667 9.86706 31.3009C9.93755 31.546 10.1989 31.7383 10.4588 31.8777C10.5249 31.7691 10.5939 31.6517 10.6688 31.5548C11.5176 30.4967 11.3047 29.0114 11.3047 29.0114L13.2136 28.5917L14.6938 28.1675L17.6644 28.5917V26.2611C17.6644 26.2611 19.7819 23.5049 21.2679 23.5049C22.7525 23.5049 24.0256 25.4142 24.0256 25.4142L30.5954 26.6867C30.5954 26.6867 31.0197 24.7788 31.6556 24.3517C32.2929 23.9319 33.563 24.7788 34.4103 24.3517C35.2605 23.9319 36.5307 23.2935 38.0153 23.2935C39.4999 23.2935 40.1357 24.1418 40.773 22.8694C41.4074 21.5999 44.5865 23.2935 44.5865 23.2935L47.1298 22.8694L46.2825 20.7516C46.2796 20.753 43.9463 19.6905 43.9463 19.0579Z" fill="white"/>
<path fill-rule="evenodd" clip-rule="evenodd" d="M43.9463 19.0579C43.9463 18.4224 43.9477 17.7855 42.6776 16.7288C41.4044 15.6662 40.5586 15.4578 40.5586 14.8179C40.5586 14.1839 40.1342 13.9711 39.074 12.7016C38.0124 11.4321 36.3163 11.4321 36.3163 11.4321L35.892 10.3739L34.4074 10.1597C34.4074 10.1597 33.5601 9.52565 34.8332 8.8887C36.1034 8.25321 34.8332 6.5581 34.6218 5.92261C34.4368 5.37078 32.6453 3.2119 32.1857 2.66447C31.961 2.65566 31.7466 2.62044 31.588 2.53091C30.8802 2.12438 29.4544 2.93745 28.7451 3.64485C28.0344 4.35958 28.541 4.76612 28.0344 5.27245C27.5249 5.78172 25.798 7.30219 24.6805 8.72726C23.5631 10.1479 20.7158 9.23506 19.8024 9.73993C18.8876 10.2477 20.2077 11.0608 19.5983 11.5686C18.9875 12.0779 17.1593 12.888 16.5499 13.1933C15.9405 13.4985 13.4999 13.3958 12.7878 14.3131C12.0785 15.223 11.2635 13.296 10.5514 14.3131C9.84063 15.3272 9.02566 15.4314 8.62331 15.1232C8.52639 15.0528 8.42507 14.9265 8.32081 14.7636C7.66149 15.3756 6.85679 16.0596 6.58807 16.9034C6.13139 18.3476 4.9126 19.6435 4.9126 20.3304C4.9126 21.0143 5.36928 21.9301 5.36928 23.1468C5.36928 24.3693 5.67324 24.9769 6.36046 25.8912C7.04769 26.8041 6.8935 27.9488 6.8935 27.9488C6.8935 27.9488 7.11964 28.4067 7.65708 29.0907C8.18719 29.776 9.71141 30.7667 9.86706 31.3009C9.93755 31.546 10.1989 31.7383 10.4588 31.8777C10.5249 31.7691 10.5939 31.6517 10.6688 31.5548C11.5176 30.4967 11.3047 29.0114 11.3047 29.0114L13.2136 28.5917L14.6938 28.1675L17.6644 28.5917V26.2611C17.6644 26.2611 19.7819 23.5049 21.2679 23.5049C22.7525 23.5049 24.0256 25.4142 24.0256 25.4142L30.5954 26.6867C30.5954 26.6867 31.0197 24.7788 31.6556 24.3517C32.2929 23.9319 33.563 24.7788 34.4103 24.3517C35.2605 23.9319 36.5307 23.2935 38.0153 23.2935C39.4999 23.2935 40.1357 24.1418 40.773 22.8694C41.4074 21.5999 44.5865 23.2935 44.5865 23.2935L47.1298 22.8694L46.2825 20.7516C46.2796 20.753 43.9463 19.6905 43.9463 19.0579Z" stroke="#868686" stroke-width="0.25"/>
</g>
<defs>
<filter id="filter0_d_6252_1052" x="0.787598" y="0.297119" width="50.5161" height="37.7467" filterUnits="userSpaceOnUse" color-interpolation-filters="sRGB">
<feFlood flood-opacity="0" result="BackgroundImageFix"/>
<feColorMatrix in="SourceAlpha" type="matrix" values="0 0 0 0 0 0 0 0 0 0 0 0 0 0 0 0 0 0 127 0" result="hardAlpha"/>
<feOffset dy="2"/>
<feGaussianBlur stdDeviation="2"/>
<feColorMatrix type="matrix" values="0 0 0 0 0 0 0 0 0 0 0 0 0 0 0 0 0 0 0.01 0"/>
<feBlend mode="normal" in2="BackgroundImageFix" result="effect1_dropShadow_6252_1052"/>
<feBlend mode="normal" in="SourceGraphic" in2="effect1_dropShadow_6252_1052" result="shape"/>
</filter>
</defs>
</svg>
