<svg width="25" height="18" viewBox="0 0 25 18" fill="none" xmlns="http://www.w3.org/2000/svg">
<g filter="url(#filter0_d_6252_1119)">
<path fill-rule="evenodd" clip-rule="evenodd" d="M18.503 6.36454C17.8188 6.66688 16.7512 5.75401 16.7512 5.45021C16.7512 5.2374 16.6102 4.4801 16.7542 4.00753C16.1873 3.7184 15.3753 3.32214 14.7688 3.14162C13.7527 2.83636 13.2461 2.83636 12.4326 3.24142C11.9142 3.49973 10.484 3.42781 9.51628 3.34269C9.43112 3.64502 9.29308 3.84902 9.05079 3.84902C8.36504 3.84902 7.45021 4.53587 7.29896 5.29757C7.14771 6.05928 5.54566 6.66688 5.08751 8.04058C4.63083 9.41282 4.86138 10.0204 5.54713 9.1824C6.23289 8.34438 7.07282 8.64965 7.07282 9.33503C7.07282 10.0204 7.98765 10.0967 7.68222 11.014C7.67782 11.0346 7.67782 11.0448 7.67194 11.0668C8.71452 10.9744 10.1639 10.8599 10.6044 10.8599C11.3151 10.8599 12.0273 8.6247 12.3313 8.42216C12.6352 8.21816 13.4517 10.0468 14.2637 10.7616C15.0757 11.4719 15.1785 10.1481 15.1785 9.5405C15.1785 8.92997 15.8907 8.72743 16.3973 8.83017C16.9039 8.92997 18.0243 9.13543 18.0243 8.42363C18.0243 7.71477 18.6352 8.01857 19.0376 8.01857C19.4458 8.01857 19.5486 7.20403 19.5486 7.20403L20.2152 6.58616C19.6719 6.31171 19.0405 6.12532 18.503 6.36454Z" fill="white"/>
<path fill-rule="evenodd" clip-rule="evenodd" d="M18.503 6.36454C17.8188 6.66688 16.7512 5.75401 16.7512 5.45021C16.7512 5.2374 16.6102 4.4801 16.7542 4.00753C16.1873 3.7184 15.3753 3.32214 14.7688 3.14162C13.7527 2.83636 13.2461 2.83636 12.4326 3.24142C11.9142 3.49973 10.484 3.42781 9.51628 3.34269C9.43112 3.64502 9.29308 3.84902 9.05079 3.84902C8.36504 3.84902 7.45021 4.53587 7.29896 5.29757C7.14771 6.05928 5.54566 6.66688 5.08751 8.04058C4.63083 9.41282 4.86138 10.0204 5.54713 9.1824C6.23289 8.34438 7.07282 8.64965 7.07282 9.33503C7.07282 10.0204 7.98765 10.0967 7.68222 11.014C7.67782 11.0346 7.67782 11.0448 7.67194 11.0668C8.71452 10.9744 10.1639 10.8599 10.6044 10.8599C11.3151 10.8599 12.0273 8.6247 12.3313 8.42216C12.6352 8.21816 13.4517 10.0468 14.2637 10.7616C15.0757 11.4719 15.1785 10.1481 15.1785 9.5405C15.1785 8.92997 15.8907 8.72743 16.3973 8.83017C16.9039 8.92997 18.0243 9.13543 18.0243 8.42363C18.0243 7.71477 18.6352 8.01857 19.0376 8.01857C19.4458 8.01857 19.5486 7.20403 19.5486 7.20403L20.2152 6.58616C19.6719 6.31171 19.0405 6.12532 18.503 6.36454Z" stroke="#868686" stroke-width="0.25"/>
</g>
<defs>
<filter id="filter0_d_6252_1119" x="0.725586" y="0.798828" width="23.7065" height="16.4083" filterUnits="userSpaceOnUse" color-interpolation-filters="sRGB">
<feFlood flood-opacity="0" result="BackgroundImageFix"/>
<feColorMatrix in="SourceAlpha" type="matrix" values="0 0 0 0 0 0 0 0 0 0 0 0 0 0 0 0 0 0 127 0" result="hardAlpha"/>
<feOffset dy="2"/>
<feGaussianBlur stdDeviation="2"/>
<feColorMatrix type="matrix" values="0 0 0 0 0 0 0 0 0 0 0 0 0 0 0 0 0 0 0.01 0"/>
<feBlend mode="normal" in2="BackgroundImageFix" result="effect1_dropShadow_6252_1119"/>
<feBlend mode="normal" in="SourceGraphic" in2="effect1_dropShadow_6252_1119" result="shape"/>
</filter>
</defs>
</svg>
