<svg width="39" height="164" viewBox="0 0 39 164" fill="none" xmlns="http://www.w3.org/2000/svg">
<g filter="url(#filter0_d_6252_1148)">
<path fill-rule="evenodd" clip-rule="evenodd" d="M17.9437 140.033C17.117 140.135 16.8086 138.592 16.2932 138.592C15.7763 138.592 15.6735 135.911 16.0847 134.671C16.4988 133.432 13.7132 134.053 12.885 133.64C12.0612 133.229 13.1948 132.4 12.2682 131.37C11.3402 130.341 12.0627 128.893 12.1655 128.172C12.2682 127.451 12.8864 125.901 14.023 125.901C15.1566 125.901 14.3314 124.25 15.4665 123.531C16.603 122.812 14.4342 121.573 15.3652 120.854C16.2932 120.129 15.3652 118.788 16.8086 118.584C18.2535 118.375 16.8086 116.517 17.8409 116.211C18.8732 115.901 17.6339 114.767 17.9437 113.528C18.2535 112.289 17.117 111.362 18.4606 110.848C19.8013 110.33 18.8732 109.298 17.9437 108.579C17.0142 107.854 18.1493 107.854 19.2858 107.854C20.4209 107.854 19.8027 106.002 18.7704 106.309C17.5458 106.675 16.8101 105.484 17.7367 104.558C18.6647 103.624 16.9129 103.008 17.2212 102.391C17.5311 101.772 17.5311 100.946 16.9143 100.533C16.2947 100.121 16.7058 97.0258 17.4283 96.9231C18.1493 96.8189 17.6353 94.0362 17.6353 93.2085C17.6353 92.3866 16.8101 91.5603 16.9143 90.8397C17.0142 90.1162 17.8409 89.9078 17.8409 88.4666C17.8409 87.0224 18.1508 86.4045 18.7704 86.3003C19.3886 86.1961 18.8732 84.545 18.9775 83.7202C19.0788 82.8954 20.7308 83.7202 20.9364 82.3832C21.1434 81.0374 19.9041 81.2487 20.1096 80.4225C20.3563 79.4348 20.0068 78.155 20.0068 75.8846C20.0068 73.6141 21.8644 73.1019 22.5854 72.4796C23.3079 71.8603 21.6574 68.5625 22.5854 68.1472C23.5149 67.7348 22.8952 66.1879 23.6192 65.6728C24.3416 65.1562 24.1346 64.0217 24.5472 62.783C24.9598 61.5458 23.7234 60.9235 23.7234 59.7934C23.7234 58.6589 23.5149 57.6272 22.5869 56.3885C21.6574 55.1513 21.9672 52.6798 22.5869 52.6798C23.2065 52.6798 22.8967 50.3052 24.0333 49.997C25.1669 49.6902 24.5472 47.9335 24.0333 46.4879C23.5149 45.0422 24.9598 45.7673 24.9598 44.6328C24.9598 43.4968 25.5795 41.9514 26.509 41.539C27.4385 41.1251 27.5413 39.3728 27.5413 38.6463C27.5413 37.9272 28.882 37.616 29.6045 36.9996C30.3269 36.3817 28.3651 35.3515 29.5017 34.7292C30.6353 34.1084 28.5722 31.5312 29.1918 31.019C29.8101 30.5009 29.2946 29.3665 29.3989 28.5417C29.5017 27.7168 32.907 26.1714 33.3196 25.4479C33.6206 24.921 33.9216 23.0718 34.023 21.431C32.9598 22.1208 32.0332 22.4921 31.8629 22.0943C31.5589 21.3855 31.9657 19.2486 31.0509 18.3357C30.136 17.4199 30.7454 15.5942 29.8306 15.1877C28.9158 14.7811 27.7998 12.9539 28.6103 12.3405C29.4224 11.7314 28.6103 10.5162 29.3225 9.90566C30.0333 9.29659 28.9158 9.19239 27.8982 7.97278C26.8835 6.75612 28.3049 5.23271 27.0847 4.31691C25.8659 3.40258 25.8659 2.28718 25.5604 2.79498C25.2565 3.30571 25.1551 5.03018 24.139 5.53798C23.9716 5.62017 23.7087 5.8183 23.3916 6.07807C23.3989 6.91902 23.0964 8.34116 23.4268 9.16891C23.8835 10.3122 24.1111 15.8731 23.6544 18.0055C23.1963 20.1424 22.7381 21.8903 22.2829 23.1833C21.8248 24.4837 23.3504 24.5585 22.7396 25.1676C22.1317 25.7781 22.3593 27.303 22.3593 29.7392C22.3593 32.1784 20.9099 36.2908 20.8336 37.5867C20.7587 38.8811 19.766 39.7191 19.9202 41.1662C20.0729 42.6148 19.2345 43.4543 18.3945 44.1367C17.556 44.8236 19.766 47.0338 19.6911 48.252C19.6148 49.4701 18.0127 50.0043 18.3945 51.9871C18.8717 54.46 18.3945 58.6883 18.3945 59.5307C18.3945 60.3658 17.4033 60.291 17.6324 61.8877C17.8615 63.4904 16.6412 63.872 16.4121 66.1556C16.1831 68.4436 14.4298 71.7179 13.7455 73.4688C13.0583 75.2197 13.0583 76.2118 12.1449 76.2118C11.2271 76.2118 11.001 77.2025 11.6853 78.7288C12.371 80.2508 11.2271 81.5452 12.1449 83.0701C13.0583 84.5935 12.7528 85.1248 12.2961 86.5748C11.838 88.0189 11.2271 88.0982 11.2271 89.469C11.2271 90.8427 10.1596 91.9874 10.7704 93.5079C11.3828 95.0328 11.2271 95.567 10.465 95.567C9.7029 95.567 9.32111 96.7836 9.01715 99.2977C8.71172 101.81 8.78807 101.737 10.6177 101.584C12.4474 101.435 10.9995 95.4129 12.1434 95.4129C13.2859 95.4129 12.2947 94.4222 13.4371 94.1184C14.581 93.8146 13.5898 95.1839 14.3534 95.4129C15.1155 95.6404 15.6486 96.2509 14.5825 96.9348C13.5149 97.6231 14.8101 98.9939 14.277 99.8334C13.744 100.67 12.9804 101.584 13.4371 102.576C13.8953 103.569 12.9026 103.491 12.8277 104.785C12.7514 106.08 13.5135 106.159 12.9804 106.461C12.4474 106.766 13.6662 107.757 12.9026 107.91C12.142 108.059 12.5986 109.052 13.0553 109.964C13.5135 110.877 12.0656 110.345 11.302 110.957C10.5399 111.564 12.0656 112.401 11.6075 113.243C11.1508 114.081 9.93051 112.784 9.39747 112.329C8.86443 111.871 10.2374 110.957 10.9232 110.042C11.6089 109.126 10.2374 107.072 9.09351 107.525C7.9496 107.983 10.2374 109.276 10.2374 110.268C10.2374 111.26 8.33139 110.042 8.40628 111.106C8.48264 112.175 7.11113 111.793 6.42538 112.555C5.73962 113.315 7.34021 114 6.57809 114.232C5.81598 114.46 4.51936 115.528 4.443 116.288C4.36665 117.049 5.28147 117.201 5.28147 116.44C5.28147 115.678 6.50027 115.45 6.88059 116.44C7.26238 117.432 7.79689 116.44 8.86296 116.669C9.93051 116.896 9.77926 118.499 9.1684 118.421C8.55753 118.345 7.94813 119.413 8.10085 120.553C8.25357 121.698 10.3872 120.553 11.302 120.86C12.2183 121.165 11.9144 122.764 11.3798 122.229C10.8453 121.7 9.62508 120.781 9.09057 121.7C8.55753 122.611 7.71906 122.158 7.03331 121.851C6.34755 121.547 3.9085 123.15 4.74697 123.756C5.58397 124.363 5.50908 125.356 6.04359 125.281C6.57663 125.203 7.4151 124.821 7.72053 124.212C8.02596 123.602 9.09204 122.993 9.1684 124.363C9.24475 125.739 7.72053 125.052 7.4151 125.812C7.10966 126.577 6.4988 127.184 5.58397 127.87C4.66914 128.555 5.58397 129.698 6.34755 129.317C7.11113 128.934 6.11995 130.228 7.18602 130.382C8.16987 130.525 8.48117 129.773 8.25357 129.011C8.02596 128.25 8.78661 126.575 9.7029 127.412C10.6177 128.25 9.24475 129.089 9.24475 129.849C9.24475 130.614 8.71025 131.603 8.71025 132.438C8.71025 133.276 7.71906 132.82 7.79542 133.736C7.87178 134.65 5.66033 134.041 6.65298 134.65C7.6427 135.259 6.04359 136.096 6.57663 136.708C7.11113 137.314 7.56781 135.868 8.40628 136.173C9.24622 136.477 9.09204 136.708 10.1596 136.25C11.2271 135.792 11.8365 137.088 10.8468 137.392C9.85562 137.695 8.78807 138.839 9.24622 138.994C9.70437 139.145 10.9995 138.233 11.3035 139.22C11.6089 140.212 12.371 139.907 12.4474 138.839C12.5223 137.775 14.3534 138.686 14.6574 139.602C14.9628 140.515 12.7514 141.049 11.6075 140.823C10.465 140.591 9.85562 141.888 10.6177 142.878C11.3813 143.87 12.2947 142.878 13.1331 142.04C13.9716 141.204 18.0891 141.43 18.393 142.345C18.697 143.258 16.4885 142.497 16.2594 143.029C16.0303 143.563 14.3534 144.021 14.1243 143.412C13.8953 142.803 12.2947 143.639 12.2183 144.631C12.1434 145.619 10.9217 145.619 12.2947 146.004C13.6677 146.384 13.2859 144.555 15.421 144.708C17.5546 144.857 18.697 142.723 19.3064 143.946C19.9173 145.166 17.5546 146.156 16.7146 145.39C15.8776 144.63 14.885 145.923 14.9613 147.068C15.0362 148.211 12.5208 146.762 11.302 146.61C10.0832 146.457 10.6163 147.755 11.6838 148.895C12.7514 150.04 13.3608 148.745 14.6559 149.583C15.9525 150.421 15.9525 151.337 16.8659 150.498C17.7836 149.657 16.8659 149.737 16.258 149.354C15.6471 148.973 16.1816 147.678 17.6295 148.362C19.0773 149.049 20.7543 147.756 20.2976 145.924C19.8394 144.097 21.5927 143.259 23.3475 142.649C25.1008 142.041 24.186 143.792 22.8908 144.325C21.5942 144.857 21.3651 145.242 22.3563 146.307C23.3475 147.376 24.6441 145.621 25.4811 146.46C26.3196 147.298 23.9569 147.145 23.5766 147.985C23.1948 148.82 25.0245 149.812 23.7293 150.423C22.4342 151.033 23.0435 147.906 22.2814 147.602C21.5179 147.298 20.8321 147.985 21.5942 149.739C22.3563 151.487 20.6794 149.963 19.9173 149.127C19.1537 148.29 18.0876 149.508 19.001 150.423C19.9173 151.338 17.2491 150.345 17.2491 151.793C17.2491 153.239 18.3916 152.022 19.7631 152.329C21.1361 152.631 20.5267 154.616 21.5164 155.376C22.5076 156.136 21.6691 152.935 22.7352 152.709C23.8027 152.48 22.813 155.146 25.1757 155.909C27.5384 156.672 25.3284 155.451 26.3945 154.688C27.462 153.926 28.8335 156.974 29.9775 157.279C31.1199 157.586 30.3578 155.909 29.5178 154.991C28.6808 154.081 30.3563 154.616 31.5002 154.991C32.6441 155.377 33.5589 155.526 33.788 154.688C33.8732 154.375 34.0861 154.381 34.3578 154.469C33.1669 153.693 29.1214 154.258 28.5648 154.164C28.0156 154.076 28.44 144.941 28.5428 142.848C28.4606 142.826 28.3798 142.806 28.299 142.806C27.3093 142.806 25.0979 143.032 25.4782 141.51C25.5443 141.24 25.6911 141.083 25.8791 140.998C25.4283 140.591 24.791 140.133 24.0259 139.931C22.4841 139.521 18.7704 139.931 17.9437 140.033Z" fill="white"/>
<path fill-rule="evenodd" clip-rule="evenodd" d="M17.9437 140.033C17.117 140.135 16.8086 138.592 16.2932 138.592C15.7763 138.592 15.6735 135.911 16.0847 134.671C16.4988 133.432 13.7132 134.053 12.885 133.64C12.0612 133.229 13.1948 132.4 12.2682 131.37C11.3402 130.341 12.0627 128.893 12.1655 128.172C12.2682 127.451 12.8864 125.901 14.023 125.901C15.1566 125.901 14.3314 124.25 15.4665 123.531C16.603 122.812 14.4342 121.573 15.3652 120.854C16.2932 120.129 15.3652 118.788 16.8086 118.584C18.2535 118.375 16.8086 116.517 17.8409 116.211C18.8732 115.901 17.6339 114.767 17.9437 113.528C18.2535 112.289 17.117 111.362 18.4606 110.848C19.8013 110.33 18.8732 109.298 17.9437 108.579C17.0142 107.854 18.1493 107.854 19.2858 107.854C20.4209 107.854 19.8027 106.002 18.7704 106.309C17.5458 106.675 16.8101 105.484 17.7367 104.558C18.6647 103.624 16.9129 103.008 17.2212 102.391C17.5311 101.772 17.5311 100.946 16.9143 100.533C16.2947 100.121 16.7058 97.0258 17.4283 96.9231C18.1493 96.8189 17.6353 94.0362 17.6353 93.2085C17.6353 92.3866 16.8101 91.5603 16.9143 90.8397C17.0142 90.1162 17.8409 89.9078 17.8409 88.4666C17.8409 87.0224 18.1508 86.4045 18.7704 86.3003C19.3886 86.1961 18.8732 84.545 18.9775 83.7202C19.0788 82.8954 20.7308 83.7202 20.9364 82.3832C21.1434 81.0374 19.9041 81.2487 20.1096 80.4225C20.3563 79.4348 20.0068 78.155 20.0068 75.8846C20.0068 73.6141 21.8644 73.1019 22.5854 72.4796C23.3079 71.8603 21.6574 68.5625 22.5854 68.1472C23.5149 67.7348 22.8952 66.1879 23.6192 65.6728C24.3416 65.1562 24.1346 64.0217 24.5472 62.783C24.9598 61.5458 23.7234 60.9235 23.7234 59.7934C23.7234 58.6589 23.5149 57.6272 22.5869 56.3885C21.6574 55.1513 21.9672 52.6798 22.5869 52.6798C23.2065 52.6798 22.8967 50.3052 24.0333 49.997C25.1669 49.6902 24.5472 47.9335 24.0333 46.4879C23.5149 45.0422 24.9598 45.7673 24.9598 44.6328C24.9598 43.4968 25.5795 41.9514 26.509 41.539C27.4385 41.1251 27.5413 39.3728 27.5413 38.6463C27.5413 37.9272 28.882 37.616 29.6045 36.9996C30.3269 36.3817 28.3651 35.3515 29.5017 34.7292C30.6353 34.1084 28.5722 31.5312 29.1918 31.019C29.8101 30.5009 29.2946 29.3665 29.3989 28.5417C29.5017 27.7168 32.907 26.1714 33.3196 25.4479C33.6206 24.921 33.9216 23.0718 34.023 21.431C32.9598 22.1208 32.0332 22.4921 31.8629 22.0943C31.5589 21.3855 31.9657 19.2486 31.0509 18.3357C30.136 17.4199 30.7454 15.5942 29.8306 15.1877C28.9158 14.7811 27.7998 12.9539 28.6103 12.3405C29.4224 11.7314 28.6103 10.5162 29.3225 9.90566C30.0333 9.29659 28.9158 9.19239 27.8982 7.97278C26.8835 6.75612 28.3049 5.23271 27.0847 4.31691C25.8659 3.40258 25.8659 2.28718 25.5604 2.79498C25.2565 3.30571 25.1551 5.03018 24.139 5.53798C23.9716 5.62017 23.7087 5.8183 23.3916 6.07807C23.3989 6.91902 23.0964 8.34116 23.4268 9.16891C23.8835 10.3122 24.1111 15.8731 23.6544 18.0055C23.1963 20.1424 22.7381 21.8903 22.2829 23.1833C21.8248 24.4837 23.3504 24.5585 22.7396 25.1676C22.1317 25.7781 22.3593 27.303 22.3593 29.7392C22.3593 32.1784 20.9099 36.2908 20.8336 37.5867C20.7587 38.8811 19.766 39.7191 19.9202 41.1662C20.0729 42.6148 19.2345 43.4543 18.3945 44.1367C17.556 44.8236 19.766 47.0338 19.6911 48.252C19.6148 49.4701 18.0127 50.0043 18.3945 51.9871C18.8717 54.46 18.3945 58.6883 18.3945 59.5307C18.3945 60.3658 17.4033 60.291 17.6324 61.8877C17.8615 63.4904 16.6412 63.872 16.4121 66.1556C16.1831 68.4436 14.4298 71.7179 13.7455 73.4688C13.0583 75.2197 13.0583 76.2118 12.1449 76.2118C11.2271 76.2118 11.001 77.2025 11.6853 78.7288C12.371 80.2508 11.2271 81.5452 12.1449 83.0701C13.0583 84.5935 12.7528 85.1248 12.2961 86.5748C11.838 88.0189 11.2271 88.0982 11.2271 89.469C11.2271 90.8427 10.1596 91.9874 10.7704 93.5079C11.3828 95.0328 11.2271 95.567 10.465 95.567C9.7029 95.567 9.32111 96.7836 9.01715 99.2977C8.71172 101.81 8.78807 101.737 10.6177 101.584C12.4474 101.435 10.9995 95.4129 12.1434 95.4129C13.2859 95.4129 12.2947 94.4222 13.4371 94.1184C14.581 93.8146 13.5898 95.1839 14.3534 95.4129C15.1155 95.6404 15.6486 96.2509 14.5825 96.9348C13.5149 97.6231 14.8101 98.9939 14.277 99.8334C13.744 100.67 12.9804 101.584 13.4371 102.576C13.8953 103.569 12.9026 103.491 12.8277 104.785C12.7514 106.08 13.5135 106.159 12.9804 106.461C12.4474 106.766 13.6662 107.757 12.9026 107.91C12.142 108.059 12.5986 109.052 13.0553 109.964C13.5135 110.877 12.0656 110.345 11.302 110.957C10.5399 111.564 12.0656 112.401 11.6075 113.243C11.1508 114.081 9.93051 112.784 9.39747 112.329C8.86443 111.871 10.2374 110.957 10.9232 110.042C11.6089 109.126 10.2374 107.072 9.09351 107.525C7.9496 107.983 10.2374 109.276 10.2374 110.268C10.2374 111.26 8.33139 110.042 8.40628 111.106C8.48264 112.175 7.11113 111.793 6.42538 112.555C5.73962 113.315 7.34021 114 6.57809 114.232C5.81598 114.46 4.51936 115.528 4.443 116.288C4.36665 117.049 5.28147 117.201 5.28147 116.44C5.28147 115.678 6.50027 115.45 6.88059 116.44C7.26238 117.432 7.79689 116.44 8.86296 116.669C9.93051 116.896 9.77926 118.499 9.1684 118.421C8.55753 118.345 7.94813 119.413 8.10085 120.553C8.25357 121.698 10.3872 120.553 11.302 120.86C12.2183 121.165 11.9144 122.764 11.3798 122.229C10.8453 121.7 9.62508 120.781 9.09057 121.7C8.55753 122.611 7.71906 122.158 7.03331 121.851C6.34755 121.547 3.9085 123.15 4.74697 123.756C5.58397 124.363 5.50908 125.356 6.04359 125.281C6.57663 125.203 7.4151 124.821 7.72053 124.212C8.02596 123.602 9.09204 122.993 9.1684 124.363C9.24475 125.739 7.72053 125.052 7.4151 125.812C7.10966 126.577 6.4988 127.184 5.58397 127.87C4.66914 128.555 5.58397 129.698 6.34755 129.317C7.11113 128.934 6.11995 130.228 7.18602 130.382C8.16987 130.525 8.48117 129.773 8.25357 129.011C8.02596 128.25 8.78661 126.575 9.7029 127.412C10.6177 128.25 9.24475 129.089 9.24475 129.849C9.24475 130.614 8.71025 131.603 8.71025 132.438C8.71025 133.276 7.71906 132.82 7.79542 133.736C7.87178 134.65 5.66033 134.041 6.65298 134.65C7.6427 135.259 6.04359 136.096 6.57663 136.708C7.11113 137.314 7.56781 135.868 8.40628 136.173C9.24622 136.477 9.09204 136.708 10.1596 136.25C11.2271 135.792 11.8365 137.088 10.8468 137.392C9.85562 137.695 8.78807 138.839 9.24622 138.994C9.70437 139.145 10.9995 138.233 11.3035 139.22C11.6089 140.212 12.371 139.907 12.4474 138.839C12.5223 137.775 14.3534 138.686 14.6574 139.602C14.9628 140.515 12.7514 141.049 11.6075 140.823C10.465 140.591 9.85562 141.888 10.6177 142.878C11.3813 143.87 12.2947 142.878 13.1331 142.04C13.9716 141.204 18.0891 141.43 18.393 142.345C18.697 143.258 16.4885 142.497 16.2594 143.029C16.0303 143.563 14.3534 144.021 14.1243 143.412C13.8953 142.803 12.2947 143.639 12.2183 144.631C12.1434 145.619 10.9217 145.619 12.2947 146.004C13.6677 146.384 13.2859 144.555 15.421 144.708C17.5546 144.857 18.697 142.723 19.3064 143.946C19.9173 145.166 17.5546 146.156 16.7146 145.39C15.8776 144.63 14.885 145.923 14.9613 147.068C15.0362 148.211 12.5208 146.762 11.302 146.61C10.0832 146.457 10.6163 147.755 11.6838 148.895C12.7514 150.04 13.3608 148.745 14.6559 149.583C15.9525 150.421 15.9525 151.337 16.8659 150.498C17.7836 149.657 16.8659 149.737 16.258 149.354C15.6471 148.973 16.1816 147.678 17.6295 148.362C19.0773 149.049 20.7543 147.756 20.2976 145.924C19.8394 144.097 21.5927 143.259 23.3475 142.649C25.1008 142.041 24.186 143.792 22.8908 144.325C21.5942 144.857 21.3651 145.242 22.3563 146.307C23.3475 147.376 24.6441 145.621 25.4811 146.46C26.3196 147.298 23.9569 147.145 23.5766 147.985C23.1948 148.82 25.0245 149.812 23.7293 150.423C22.4342 151.033 23.0435 147.906 22.2814 147.602C21.5179 147.298 20.8321 147.985 21.5942 149.739C22.3563 151.487 20.6794 149.963 19.9173 149.127C19.1537 148.29 18.0876 149.508 19.001 150.423C19.9173 151.338 17.2491 150.345 17.2491 151.793C17.2491 153.239 18.3916 152.022 19.7631 152.329C21.1361 152.631 20.5267 154.616 21.5164 155.376C22.5076 156.136 21.6691 152.935 22.7352 152.709C23.8027 152.48 22.813 155.146 25.1757 155.909C27.5384 156.672 25.3284 155.451 26.3945 154.688C27.462 153.926 28.8335 156.974 29.9775 157.279C31.1199 157.586 30.3578 155.909 29.5178 154.991C28.6808 154.081 30.3563 154.616 31.5002 154.991C32.6441 155.377 33.5589 155.526 33.788 154.688C33.8732 154.375 34.0861 154.381 34.3578 154.469C33.1669 153.693 29.1214 154.258 28.5648 154.164C28.0156 154.076 28.44 144.941 28.5428 142.848C28.4606 142.826 28.3798 142.806 28.299 142.806C27.3093 142.806 25.0979 143.032 25.4782 141.51C25.5443 141.24 25.6911 141.083 25.8791 140.998C25.4283 140.591 24.791 140.133 24.0259 139.931C22.4841 139.521 18.7704 139.931 17.9437 140.033Z" stroke="#868686" stroke-width="0.25"/>
</g>
<defs>
<filter id="filter0_d_6252_1148" x="0.313477" y="0.542725" width="38.1128" height="162.899" filterUnits="userSpaceOnUse" color-interpolation-filters="sRGB">
<feFlood flood-opacity="0" result="BackgroundImageFix"/>
<feColorMatrix in="SourceAlpha" type="matrix" values="0 0 0 0 0 0 0 0 0 0 0 0 0 0 0 0 0 0 127 0" result="hardAlpha"/>
<feOffset dy="2"/>
<feGaussianBlur stdDeviation="2"/>
<feColorMatrix type="matrix" values="0 0 0 0 0 0 0 0 0 0 0 0 0 0 0 0 0 0 0.01 0"/>
<feBlend mode="normal" in2="BackgroundImageFix" result="effect1_dropShadow_6252_1148"/>
<feBlend mode="normal" in="SourceGraphic" in2="effect1_dropShadow_6252_1148" result="shape"/>
</filter>
</defs>
</svg>
