<svg width="50" height="67" viewBox="0 0 50 67" fill="none" xmlns="http://www.w3.org/2000/svg">
<g filter="url(#filter0_d_6252_1152)">
<path fill-rule="evenodd" clip-rule="evenodd" d="M10.5576 45.0567C11.5091 45.6144 12.8615 45.4559 13.1802 45.0567C13.4974 44.659 14.3696 45.5322 15.6427 46.9661C15.6985 47.0292 15.7441 47.0791 15.7969 47.1378C16.8645 46.9059 18.2125 46.7034 18.7573 47.0454C19.7117 47.6412 19.4739 49.7942 20.7896 49.9131C22.1053 50.0305 23.0627 51.3499 22.9437 52.0632C22.8219 52.7853 24.3784 53.1404 24.2595 54.2177C24.1405 55.2949 27.7308 55.0542 28.2081 54.6976C28.6853 54.3366 29.6427 54.1003 30.2404 54.4569C30.8395 54.8135 31.9158 54.1003 32.5149 54.3366C33.1141 54.5773 35.5076 55.5356 35.0274 56.3692C34.5487 57.2087 32.8747 58.5223 33.233 59.2443C33.5179 59.8079 34.7675 60.1616 35.2785 60.8719C35.3343 60.869 35.3901 60.8719 35.4459 60.8573C36.3608 60.6577 36.7646 57.2058 36.7646 56.1887C36.7646 55.1746 37.1728 52.5314 37.4709 51.5026C38.048 49.5037 35.2697 48.0991 35.2697 45.9329C35.2697 43.7711 36.371 44.9701 37.6089 44.0793C38.8453 43.1855 37.5399 42.8083 36.9202 42.6674C36.302 42.5339 35.8204 41.4331 36.0259 40.783C36.233 40.1284 40.0142 40.4029 41.2183 40.4029C42.4195 40.4029 45.0333 39.3036 45.067 39.1304C45.1023 38.9602 45.3769 38.0987 44.4474 37.3795C43.5193 36.6604 43.8644 35.6287 44.5854 34.8024C45.3079 33.9776 44.139 33.1542 43.2447 32.1592C42.3519 31.1612 43.0392 27.5523 44.0685 25.8704C45.0993 24.1885 41.9716 24.5656 40.0465 24.8049C38.1229 25.0456 36.4724 24.2897 35.2345 22.7106C33.9981 21.1284 32.3123 22.1264 29.3564 22.1925C26.4004 22.2615 26.9849 18.9285 27.1214 17.656C27.258 16.3851 25.6089 16.2133 25.6089 15.3885C25.6089 14.5637 24.7514 14.5637 23.9922 14.6327C23.236 14.7017 23.9922 13.7066 24.5091 13.0535C25.0245 12.399 24.9893 11.8853 25.0245 10.5101C25.0597 9.13495 27.0524 7.97259 28.0495 6.62677C28.2947 6.30389 28.6677 6.09402 29.0935 5.96193C29.2154 5.64199 29.4592 5.38809 29.929 5.29416C31.4533 4.98889 32.2169 3.99971 30.7661 3.15875C29.3197 2.3222 28.4797 4.76141 26.8806 4.98889C25.28 5.21931 24.9731 6.20703 23.9056 6.73978C22.838 7.27399 20.8571 6.81609 20.7822 7.7319C20.6985 8.72989 20.095 7.7319 19.1816 7.50441C18.2653 7.27546 15.9026 9.33015 15.979 10.4749C16.0539 11.6153 16.4357 12.6837 14.7587 13.7507C13.0818 14.8162 12.0906 16.7989 11.3285 17.7133C11.095 17.9892 10.8454 18.0127 10.5796 17.8864C10.4798 18.3884 10.3344 18.7905 10.1053 18.9637C9.68534 19.269 8.66919 20.3022 7.78813 21.2092C8.21691 21.6201 8.61779 21.9885 8.88945 22.2805C9.95553 23.4224 9.2683 24.3382 9.57521 24.9487C9.87917 25.5563 10.1846 26.4706 9.57521 26.8522C8.96434 27.2323 9.49738 31.4239 10.1846 32.1841C10.8704 32.9458 10.1846 33.6341 9.42249 35.1531C8.65891 36.6795 7.97315 37.3649 6.60164 37.4412C5.22867 37.519 5.30503 39.6514 4.84981 39.6514C4.48418 39.6514 4.21986 40.4219 4.16553 41.0868C5.44599 42.1611 7.74555 43.4629 8.40928 43.4629C9.12587 43.4673 9.60311 44.502 10.5576 45.0567Z" fill="white"/>
<path fill-rule="evenodd" clip-rule="evenodd" d="M10.5576 45.0567C11.5091 45.6144 12.8615 45.4559 13.1802 45.0567C13.4974 44.659 14.3696 45.5322 15.6427 46.9661C15.6985 47.0292 15.7441 47.0791 15.7969 47.1378C16.8645 46.9059 18.2125 46.7034 18.7573 47.0454C19.7117 47.6412 19.4739 49.7942 20.7896 49.9131C22.1053 50.0305 23.0627 51.3499 22.9437 52.0632C22.8219 52.7853 24.3784 53.1404 24.2595 54.2177C24.1405 55.2949 27.7308 55.0542 28.2081 54.6976C28.6853 54.3366 29.6427 54.1003 30.2404 54.4569C30.8395 54.8135 31.9158 54.1003 32.5149 54.3366C33.1141 54.5773 35.5076 55.5356 35.0274 56.3692C34.5487 57.2087 32.8747 58.5223 33.233 59.2443C33.5179 59.8079 34.7675 60.1616 35.2785 60.8719C35.3343 60.869 35.3901 60.8719 35.4459 60.8573C36.3608 60.6577 36.7646 57.2058 36.7646 56.1887C36.7646 55.1746 37.1728 52.5314 37.4709 51.5026C38.048 49.5037 35.2697 48.0991 35.2697 45.9329C35.2697 43.7711 36.371 44.9701 37.6089 44.0793C38.8453 43.1855 37.5399 42.8083 36.9202 42.6674C36.302 42.5339 35.8204 41.4331 36.0259 40.783C36.233 40.1284 40.0142 40.4029 41.2183 40.4029C42.4195 40.4029 45.0333 39.3036 45.067 39.1304C45.1023 38.9602 45.3769 38.0987 44.4474 37.3795C43.5193 36.6604 43.8644 35.6287 44.5854 34.8024C45.3079 33.9776 44.139 33.1542 43.2447 32.1592C42.3519 31.1612 43.0392 27.5523 44.0685 25.8704C45.0993 24.1885 41.9716 24.5656 40.0465 24.8049C38.1229 25.0456 36.4724 24.2897 35.2345 22.7106C33.9981 21.1284 32.3123 22.1264 29.3564 22.1925C26.4004 22.2615 26.9849 18.9285 27.1214 17.656C27.258 16.3851 25.6089 16.2133 25.6089 15.3885C25.6089 14.5637 24.7514 14.5637 23.9922 14.6327C23.236 14.7017 23.9922 13.7066 24.5091 13.0535C25.0245 12.399 24.9893 11.8853 25.0245 10.5101C25.0597 9.13495 27.0524 7.97259 28.0495 6.62677C28.2947 6.30389 28.6677 6.09402 29.0935 5.96193C29.2154 5.64199 29.4592 5.38809 29.929 5.29416C31.4533 4.98889 32.2169 3.99971 30.7661 3.15875C29.3197 2.3222 28.4797 4.76141 26.8806 4.98889C25.28 5.21931 24.9731 6.20703 23.9056 6.73978C22.838 7.27399 20.8571 6.81609 20.7822 7.7319C20.6985 8.72989 20.095 7.7319 19.1816 7.50441C18.2653 7.27546 15.9026 9.33015 15.979 10.4749C16.0539 11.6153 16.4357 12.6837 14.7587 13.7507C13.0818 14.8162 12.0906 16.7989 11.3285 17.7133C11.095 17.9892 10.8454 18.0127 10.5796 17.8864C10.4798 18.3884 10.3344 18.7905 10.1053 18.9637C9.68534 19.269 8.66919 20.3022 7.78813 21.2092C8.21691 21.6201 8.61779 21.9885 8.88945 22.2805C9.95553 23.4224 9.2683 24.3382 9.57521 24.9487C9.87917 25.5563 10.1846 26.4706 9.57521 26.8522C8.96434 27.2323 9.49738 31.4239 10.1846 32.1841C10.8704 32.9458 10.1846 33.6341 9.42249 35.1531C8.65891 36.6795 7.97315 37.3649 6.60164 37.4412C5.22867 37.519 5.30503 39.6514 4.84981 39.6514C4.48418 39.6514 4.21986 40.4219 4.16553 41.0868C5.44599 42.1611 7.74555 43.4629 8.40928 43.4629C9.12587 43.4673 9.60311 44.502 10.5576 45.0567Z" stroke="#868686" stroke-width="0.25"/>
</g>
<defs>
<filter id="filter0_d_6252_1152" x="0.0356445" y="0.859741" width="49.2212" height="66.1406" filterUnits="userSpaceOnUse" color-interpolation-filters="sRGB">
<feFlood flood-opacity="0" result="BackgroundImageFix"/>
<feColorMatrix in="SourceAlpha" type="matrix" values="0 0 0 0 0 0 0 0 0 0 0 0 0 0 0 0 0 0 127 0" result="hardAlpha"/>
<feOffset dy="2"/>
<feGaussianBlur stdDeviation="2"/>
<feColorMatrix type="matrix" values="0 0 0 0 0 0 0 0 0 0 0 0 0 0 0 0 0 0 0.01 0"/>
<feBlend mode="normal" in2="BackgroundImageFix" result="effect1_dropShadow_6252_1152"/>
<feBlend mode="normal" in="SourceGraphic" in2="effect1_dropShadow_6252_1152" result="shape"/>
</filter>
</defs>
</svg>
