<svg width="15" height="16" viewBox="0 0 15 16" fill="none" xmlns="http://www.w3.org/2000/svg">
<g filter="url(#filter0_d_6252_1073)">
<path fill-rule="evenodd" clip-rule="evenodd" d="M6.64205 3.54687C6.44381 3.87121 5.62737 5.18915 4.97245 5.93617C4.21915 6.79033 4.6494 8.40033 4.86379 8.82594C5.07818 9.25889 6.15159 9.14735 6.79183 8.72027C7.29109 8.38712 7.66701 8.58085 8.41444 9.28091C8.80063 8.72027 9.34101 8.09212 9.8344 7.58726C8.98565 7.09267 8.20152 7.00754 7.993 6.80207C7.63911 6.44984 9.00768 5.43424 9.97537 5.23024C10.9401 5.02918 10.4834 3.90937 9.67141 3.19757C9.53778 3.08163 9.3836 2.93486 9.21473 2.78076C8.75952 3.0464 8.38801 3.2871 8.28375 3.42946C8.03265 3.76408 7.46583 3.64079 6.64205 3.54687Z" fill="white"/>
<path fill-rule="evenodd" clip-rule="evenodd" d="M6.64205 3.54687C6.44381 3.87121 5.62737 5.18915 4.97245 5.93617C4.21915 6.79033 4.6494 8.40033 4.86379 8.82594C5.07818 9.25889 6.15159 9.14735 6.79183 8.72027C7.29109 8.38712 7.66701 8.58085 8.41444 9.28091C8.80063 8.72027 9.34101 8.09212 9.8344 7.58726C8.98565 7.09267 8.20152 7.00754 7.993 6.80207C7.63911 6.44984 9.00768 5.43424 9.97537 5.23024C10.9401 5.02918 10.4834 3.90937 9.67141 3.19757C9.53778 3.08163 9.3836 2.93486 9.21473 2.78076C8.75952 3.0464 8.38801 3.2871 8.28375 3.42946C8.03265 3.76408 7.46583 3.64079 6.64205 3.54687Z" stroke="#868686" stroke-width="0.25"/>
</g>
<defs>
<filter id="filter0_d_6252_1073" x="0.420898" y="0.626465" width="14.2231" height="14.845" filterUnits="userSpaceOnUse" color-interpolation-filters="sRGB">
<feFlood flood-opacity="0" result="BackgroundImageFix"/>
<feColorMatrix in="SourceAlpha" type="matrix" values="0 0 0 0 0 0 0 0 0 0 0 0 0 0 0 0 0 0 127 0" result="hardAlpha"/>
<feOffset dy="2"/>
<feGaussianBlur stdDeviation="2"/>
<feColorMatrix type="matrix" values="0 0 0 0 0 0 0 0 0 0 0 0 0 0 0 0 0 0 0.01 0"/>
<feBlend mode="normal" in2="BackgroundImageFix" result="effect1_dropShadow_6252_1073"/>
<feBlend mode="normal" in="SourceGraphic" in2="effect1_dropShadow_6252_1073" result="shape"/>
</filter>
</defs>
</svg>
