<svg width="81" height="78" viewBox="0 0 81 78" fill="none" xmlns="http://www.w3.org/2000/svg">
<g filter="url(#filter0_d_6252_1047)">
<path fill-rule="evenodd" clip-rule="evenodd" d="M28.7934 15.269C28.7934 16.6133 28.3426 18.2938 29.0166 18.4053C29.6907 18.5168 30.2516 20.1973 30.3632 20.755C30.4748 21.3171 30.2516 22.1023 29.5791 22.1023C28.9065 22.1023 24.5379 21.6517 24.5379 22.3253C24.5379 22.9961 23.5262 23.5567 22.5174 23.5567C21.5101 23.5567 21.5101 23.3351 21.397 24.4534C21.2854 25.5732 21.6217 26.5785 20.9506 26.5785C20.2766 26.5785 20.3911 27.4753 19.3823 27.5853C18.3735 27.6998 16.8052 27.4767 16.8052 28.4835C16.8052 29.4933 16.1327 30.277 15.0123 30.5001C13.8904 30.7246 11.9859 30.277 11.9859 31.1722C11.9859 32.066 10.5292 31.3953 9.7465 31.8415C8.96089 32.2906 4.36619 34.9778 4.25459 35.4284C4.19879 35.6426 4.27662 37.8632 4.33242 40.1116C4.45136 40.3127 4.64079 40.5181 5.00643 40.728C6.69952 41.6937 37.3896 61.9852 38.3588 62.9538C39.3265 63.9166 40.5306 66.0916 40.5306 66.0916C40.5306 66.0916 42.7068 66.3338 44.3999 67.2995C46.0915 68.2667 46.09 70.9231 46.09 70.9231C46.09 70.9231 48.2648 70.4388 49.4747 70.1995C50.6833 69.9559 54.7919 68.5073 54.7919 68.5073L61.0738 63.4381L75.8183 54.2566C75.8183 54.2566 75.833 54.2566 75.855 54.2566C75.3998 52.632 74.9108 51.3258 74.1223 51.3258C73.2353 51.3258 72.6024 50.5685 71.5878 50.5685C70.5745 50.5685 69.3044 50.0607 69.1781 49.1713C69.0518 48.2863 69.5569 47.6508 68.7963 46.5119C68.0371 45.3716 67.275 44.8638 67.275 44.356C67.275 43.8482 68.5643 42.8605 68.7684 42.6579C68.971 42.4554 68.2574 41.6438 68.2574 41.0832C68.2574 40.5255 67.7508 39.5612 68.2574 38.9507C68.7684 38.3431 69.0723 37.7326 68.5129 36.6157C67.9549 35.4974 69.2779 34.4818 68.6142 33.0097C67.9534 31.5347 66.9387 30.3665 67.0386 29.8602C67.0826 29.6444 67.4086 29.4037 67.8022 29.1396C67.6201 28.8974 67.4967 28.6009 67.4967 28.2355C67.4967 26.8134 66.4806 22.952 65.8697 22.1404C65.2618 21.3274 63.2265 20.7168 63.2265 20.1092C63.2265 19.4972 63.2265 18.4846 61.8036 17.8755C60.3822 17.265 59.5702 14.2196 60.3822 14.2196C61.1957 14.2196 61.8036 12.3895 62.6186 11.9829C63.4321 11.5779 64.4483 9.54667 63.6318 8.32707C63.0915 7.51253 63.3631 4.9838 63.6671 2.96434C62.3205 2.95406 60.8315 2.46534 60.4307 2.33472C59.8213 2.13219 58.0445 2.63999 56.9241 2.68842C55.8081 2.73979 53.0636 4.51709 52.1502 3.65119C51.2339 2.79116 41.883 4.31309 39.2413 4.41436C36.5981 4.51709 35.4777 7.2601 33.9065 7.2601C32.3309 7.2601 29.8375 8.5795 28.5174 10.053C28.1459 10.4683 27.7024 10.6239 27.2208 10.6298C27.4263 11.0892 27.6187 11.4737 27.7861 11.6894C28.5702 12.6933 28.7934 13.9261 28.7934 15.269Z" fill="white"/>
<path fill-rule="evenodd" clip-rule="evenodd" d="M28.7934 15.269C28.7934 16.6133 28.3426 18.2938 29.0166 18.4053C29.6907 18.5168 30.2516 20.1973 30.3632 20.755C30.4748 21.3171 30.2516 22.1023 29.5791 22.1023C28.9065 22.1023 24.5379 21.6517 24.5379 22.3253C24.5379 22.9961 23.5262 23.5567 22.5174 23.5567C21.5101 23.5567 21.5101 23.3351 21.397 24.4534C21.2854 25.5732 21.6217 26.5785 20.9506 26.5785C20.2766 26.5785 20.3911 27.4753 19.3823 27.5853C18.3735 27.6998 16.8052 27.4767 16.8052 28.4835C16.8052 29.4933 16.1327 30.277 15.0123 30.5001C13.8904 30.7246 11.9859 30.277 11.9859 31.1722C11.9859 32.066 10.5292 31.3953 9.7465 31.8415C8.96089 32.2906 4.36619 34.9778 4.25459 35.4284C4.19879 35.6426 4.27662 37.8632 4.33242 40.1116C4.45136 40.3127 4.64079 40.5181 5.00643 40.728C6.69952 41.6937 37.3896 61.9852 38.3588 62.9538C39.3265 63.9166 40.5306 66.0916 40.5306 66.0916C40.5306 66.0916 42.7068 66.3338 44.3999 67.2995C46.0915 68.2667 46.09 70.9231 46.09 70.9231C46.09 70.9231 48.2648 70.4388 49.4747 70.1995C50.6833 69.9559 54.7919 68.5073 54.7919 68.5073L61.0738 63.4381L75.8183 54.2566C75.8183 54.2566 75.833 54.2566 75.855 54.2566C75.3998 52.632 74.9108 51.3258 74.1223 51.3258C73.2353 51.3258 72.6024 50.5685 71.5878 50.5685C70.5745 50.5685 69.3044 50.0607 69.1781 49.1713C69.0518 48.2863 69.5569 47.6508 68.7963 46.5119C68.0371 45.3716 67.275 44.8638 67.275 44.356C67.275 43.8482 68.5643 42.8605 68.7684 42.6579C68.971 42.4554 68.2574 41.6438 68.2574 41.0832C68.2574 40.5255 67.7508 39.5612 68.2574 38.9507C68.7684 38.3431 69.0723 37.7326 68.5129 36.6157C67.9549 35.4974 69.2779 34.4818 68.6142 33.0097C67.9534 31.5347 66.9387 30.3665 67.0386 29.8602C67.0826 29.6444 67.4086 29.4037 67.8022 29.1396C67.6201 28.8974 67.4967 28.6009 67.4967 28.2355C67.4967 26.8134 66.4806 22.952 65.8697 22.1404C65.2618 21.3274 63.2265 20.7168 63.2265 20.1092C63.2265 19.4972 63.2265 18.4846 61.8036 17.8755C60.3822 17.265 59.5702 14.2196 60.3822 14.2196C61.1957 14.2196 61.8036 12.3895 62.6186 11.9829C63.4321 11.5779 64.4483 9.54667 63.6318 8.32707C63.0915 7.51253 63.3631 4.9838 63.6671 2.96434C62.3205 2.95406 60.8315 2.46534 60.4307 2.33472C59.8213 2.13219 58.0445 2.63999 56.9241 2.68842C55.8081 2.73979 53.0636 4.51709 52.1502 3.65119C51.2339 2.79116 41.883 4.31309 39.2413 4.41436C36.5981 4.51709 35.4777 7.2601 33.9065 7.2601C32.3309 7.2601 29.8375 8.5795 28.5174 10.053C28.1459 10.4683 27.7024 10.6239 27.2208 10.6298C27.4263 11.0892 27.6187 11.4737 27.7861 11.6894C28.5702 12.6933 28.7934 13.9261 28.7934 15.269Z" stroke="#868686" stroke-width="0.25"/>
</g>
<defs>
<filter id="filter0_d_6252_1047" x="0.110352" y="0.162231" width="79.9097" height="76.9167" filterUnits="userSpaceOnUse" color-interpolation-filters="sRGB">
<feFlood flood-opacity="0" result="BackgroundImageFix"/>
<feColorMatrix in="SourceAlpha" type="matrix" values="0 0 0 0 0 0 0 0 0 0 0 0 0 0 0 0 0 0 127 0" result="hardAlpha"/>
<feOffset dy="2"/>
<feGaussianBlur stdDeviation="2"/>
<feColorMatrix type="matrix" values="0 0 0 0 0 0 0 0 0 0 0 0 0 0 0 0 0 0 0.01 0"/>
<feBlend mode="normal" in2="BackgroundImageFix" result="effect1_dropShadow_6252_1047"/>
<feBlend mode="normal" in="SourceGraphic" in2="effect1_dropShadow_6252_1047" result="shape"/>
</filter>
</defs>
</svg>
