<svg width="30" height="19" viewBox="0 0 30 19" fill="none" xmlns="http://www.w3.org/2000/svg">
<g filter="url(#filter0_d_6252_1245)">
<path fill-rule="evenodd" clip-rule="evenodd" d="M24.5802 4.7642C25.0002 3.8572 26.103 3.7031 25.2806 2.50845C25.1265 2.6376 24.9033 2.75648 24.5317 2.86068C23.056 3.26868 19.8533 1.84801 18.0237 2.20025C16.194 2.55541 12.4862 2.55541 11.6228 3.46975C10.7564 4.38555 8.5729 4.63798 9.53765 5.45105C10.5039 6.26559 9.53765 6.67066 10.2484 7.63636C10.9606 8.60206 11.3159 9.00859 12.2836 8.80313C13.2498 8.60206 14.0119 9.10693 12.9914 10.1739C12.9767 10.1974 12.9664 10.2135 12.9503 10.2311C14.5773 10.08 16.3864 9.97576 16.6522 10.1739C17.0589 10.4792 19.498 12.4106 20.1088 12.208C20.4818 12.0848 22.15 12.2623 23.3878 12.4223C23.2439 12.0437 23.2557 11.687 23.5112 11.4713C23.9708 11.0912 24.9605 11.0912 24.426 10.3295C23.8944 9.5663 23.7403 9.41513 23.6654 8.49933C23.5875 7.58793 23.3585 7.13003 23.4363 6.51949C23.5112 5.90895 24.122 5.75632 24.5802 4.7642ZM6.58726 7.23124C4.76054 7.74051 4.48888 10.2678 5.21722 10.2296C6.13205 10.1753 8.21575 8.44937 8.77668 7.88874C9.33469 7.33104 8.41839 6.72197 6.58726 7.23124ZM8.11294 5.75644C8.52263 4.99474 5.17903 5.32936 5.9294 6.01181C6.48887 6.52108 7.70913 6.51814 8.11294 5.75644Z" fill="white"/>
<path d="M24.5802 4.7642L24.4668 4.71168L24.4667 4.7118L24.5802 4.7642ZM25.2806 2.50845L25.3836 2.43758L25.3057 2.3244L25.2004 2.41263L25.2806 2.50845ZM24.5317 2.86068L24.565 2.98116L24.5655 2.98104L24.5317 2.86068ZM18.0237 2.20025L18 2.0775L17.9999 2.07754L18.0237 2.20025ZM11.6228 3.46975L11.7136 3.55565L11.7137 3.55557L11.6228 3.46975ZM9.53765 5.45105L9.61822 5.35548L9.61821 5.35547L9.53765 5.45105ZM10.2484 7.63636L10.1477 7.71045L10.1478 7.71055L10.2484 7.63636ZM12.2836 8.80313L12.2581 8.68075L12.2576 8.68085L12.2836 8.80313ZM12.9914 10.1739L12.9011 10.0875L12.8922 10.0968L12.8854 10.1076L12.9914 10.1739ZM12.9503 10.2311L12.8581 10.1466L12.639 10.3856L12.9618 10.3556L12.9503 10.2311ZM16.6522 10.1739L16.7272 10.0739L16.7269 10.0737L16.6522 10.1739ZM20.1088 12.208L20.0696 12.0893L20.0695 12.0894L20.1088 12.208ZM23.3878 12.4223L23.3718 12.5463L23.5788 12.573L23.5047 12.3779L23.3878 12.4223ZM23.5112 11.4713L23.4315 11.375L23.4305 11.3758L23.5112 11.4713ZM24.426 10.3295L24.3234 10.4009L24.3237 10.4013L24.426 10.3295ZM23.6654 8.49933L23.79 8.48914L23.7899 8.48869L23.6654 8.49933ZM23.4363 6.51949L23.5603 6.5353L23.5604 6.53471L23.4363 6.51949ZM6.58726 7.23124L6.55377 7.11081L6.55369 7.11083L6.58726 7.23124ZM5.21722 10.2296L5.22376 10.3544L5.22463 10.3544L5.21722 10.2296ZM8.77668 7.88874L8.68832 7.80032L8.77668 7.88874ZM8.11294 5.75644L8.00286 5.69723L8.0025 5.69789L8.11294 5.75644ZM5.9294 6.01181L6.01354 5.91937L6.0135 5.91933L5.9294 6.01181ZM24.6936 4.81672C24.7904 4.60765 24.9277 4.43931 25.0739 4.28228C25.2149 4.13086 25.3784 3.97673 25.4964 3.81909C25.6193 3.6548 25.7089 3.46802 25.7021 3.23374C25.6954 3.00346 25.5961 2.74632 25.3836 2.43758L25.1777 2.57932C25.3763 2.86791 25.4475 3.07802 25.4522 3.24097C25.4568 3.39993 25.3987 3.53236 25.2962 3.66931C25.1888 3.81289 25.0492 3.94202 24.891 4.11192C24.738 4.27621 24.5799 4.46725 24.4668 4.71168L24.6936 4.81672ZM25.2004 2.41263C25.0639 2.52696 24.8585 2.63922 24.498 2.74033L24.5655 2.98104C24.948 2.87374 25.189 2.74824 25.3609 2.60427L25.2004 2.41263ZM24.4984 2.7402C24.1546 2.83525 23.6985 2.82597 23.1658 2.75614C22.6355 2.68662 22.0449 2.55953 21.4366 2.42915C20.8306 2.29928 20.2078 2.16635 19.6214 2.08831C19.0361 2.0104 18.4771 1.98565 18 2.0775L18.0473 2.32299C18.485 2.23872 19.0125 2.25947 19.5884 2.33612C20.1633 2.41264 20.7764 2.54333 21.3842 2.6736C21.9897 2.80337 22.5909 2.93292 23.1333 3.00402C23.6734 3.07481 24.1709 3.09012 24.565 2.98116L24.4984 2.7402ZM17.9999 2.07754C17.0894 2.25428 15.7227 2.34087 14.4453 2.50128C13.8119 2.58083 13.2035 2.67849 12.6974 2.81491C12.1969 2.9498 11.7734 3.12828 11.5319 3.38393L11.7137 3.55557C11.904 3.35405 12.2677 3.18966 12.7624 3.05629C13.2516 2.92445 13.8463 2.82847 14.4765 2.74934C15.7263 2.59237 17.1283 2.50138 18.0475 2.32296L17.9999 2.07754ZM11.532 3.38385C11.3298 3.59763 11.0455 3.77746 10.7373 3.94091C10.5839 4.02222 10.4271 4.09826 10.2737 4.17209C10.1212 4.24551 9.97129 4.31717 9.83561 4.38817C9.70014 4.45906 9.57458 4.53147 9.47099 4.60759C9.3686 4.68283 9.27873 4.76807 9.22473 4.86767C9.16776 4.97275 9.15327 5.08976 9.19702 5.21213C9.23849 5.32809 9.3284 5.43817 9.4571 5.54664L9.61821 5.35547C9.50572 5.26067 9.45282 5.185 9.43242 5.12795C9.41432 5.07731 9.4189 5.03406 9.44451 4.98682C9.47309 4.93411 9.52929 4.87499 9.61903 4.80905C9.70757 4.74399 9.82019 4.6784 9.95152 4.60968C10.0826 4.54107 10.2281 4.47152 10.3822 4.39734C10.5354 4.32357 10.6963 4.24563 10.8544 4.16178C11.1691 3.99492 11.4827 3.79977 11.7136 3.55565L11.532 3.38385ZM9.45708 5.54662C9.68692 5.74038 9.79089 5.90048 9.83791 6.0402C9.8853 6.18104 9.88014 6.31548 9.86443 6.47475C9.84913 6.62987 9.82263 6.81401 9.84942 7.0183C9.87684 7.2274 9.95853 7.45342 10.1477 7.71045L10.349 7.56227C10.1828 7.33644 10.1188 7.1497 10.0973 6.98579C10.0752 6.81707 10.0966 6.66796 10.1132 6.49929C10.1294 6.33476 10.1403 6.15485 10.0749 5.96047C10.0091 5.76498 9.87149 5.56899 9.61822 5.35548L9.45708 5.54662ZM10.1478 7.71055C10.5004 8.18874 10.7804 8.55206 11.1015 8.76335C11.4356 8.98327 11.8029 9.03298 12.3096 8.9254L12.2576 8.68085C11.7966 8.77874 11.5024 8.72792 11.2389 8.55451C10.9623 8.37248 10.7085 8.04968 10.349 7.56217L10.1478 7.71055ZM12.3091 8.9255C12.5381 8.87784 12.7502 8.87317 12.9224 8.90532C13.0962 8.93777 13.2175 9.0051 13.2842 9.0901C13.3467 9.16994 13.3751 9.28319 13.3273 9.44613C13.2781 9.61362 13.1491 9.82819 12.9011 10.0875L13.0817 10.2603C13.344 9.98611 13.5024 9.73747 13.5672 9.51649C13.6333 9.29097 13.6021 9.09051 13.4809 8.93589C13.3638 8.78644 13.1772 8.69857 12.9683 8.65956C12.7577 8.62026 12.5122 8.62788 12.2581 8.68075L12.3091 8.9255ZM12.8854 10.1076C12.8705 10.1314 12.8656 10.1385 12.8581 10.1466L13.0424 10.3156C13.0672 10.2885 13.0829 10.2633 13.0974 10.2402L12.8854 10.1076ZM12.9618 10.3556C13.7743 10.2801 14.6303 10.2165 15.3153 10.1965C15.6582 10.1864 15.9555 10.1874 16.182 10.2027C16.2954 10.2104 16.3882 10.2215 16.4587 10.2358C16.5339 10.251 16.5678 10.2669 16.5775 10.2741L16.7269 10.0737C16.6701 10.0314 16.5893 10.0072 16.5083 9.99076C16.4227 9.97341 16.3178 9.96133 16.1989 9.95328C15.9606 9.93715 15.654 9.93645 15.308 9.94658C14.6153 9.96687 13.7533 10.031 12.9387 10.1067L12.9618 10.3556ZM16.5771 10.2739C16.7776 10.4243 17.4937 10.987 18.2342 11.4851C18.6043 11.7341 18.9847 11.9697 19.3132 12.1308C19.4772 12.2112 19.6322 12.275 19.769 12.312C19.9017 12.3478 20.0362 12.3638 20.1482 12.3267L20.0695 12.0894C20.0288 12.1029 19.9535 12.1028 19.8342 12.0706C19.7191 12.0395 19.5801 11.9833 19.4233 11.9063C19.1099 11.7527 18.7406 11.5244 18.3737 11.2777C17.6403 10.7844 16.9335 10.2288 16.7272 10.0739L16.5771 10.2739ZM20.1481 12.3267C20.2189 12.3033 20.373 12.2902 20.6035 12.292C20.8274 12.2938 21.1063 12.3092 21.4141 12.3336C22.0295 12.3823 22.7537 12.4664 23.3718 12.5463L23.4039 12.2983C22.7841 12.2182 22.0552 12.1336 21.4339 12.0843C21.1234 12.0597 20.8379 12.0439 20.6055 12.042C20.3795 12.0402 20.1853 12.0511 20.0696 12.0893L20.1481 12.3267ZM23.5047 12.3779C23.3676 12.0172 23.3977 11.7307 23.5918 11.5668L23.4305 11.3758C23.1136 11.6434 23.1203 12.0701 23.271 12.4667L23.5047 12.3779ZM23.5908 11.5676C23.691 11.4848 23.8245 11.4194 23.9734 11.3541C24.1155 11.2918 24.2777 11.2274 24.4057 11.1507C24.5339 11.0738 24.6592 10.9669 24.6953 10.8025C24.7313 10.6386 24.6695 10.4588 24.5283 10.2577L24.3237 10.4013C24.4498 10.5809 24.4647 10.6868 24.4511 10.749C24.4376 10.8107 24.387 10.8704 24.2771 10.9363C24.1671 11.0022 24.029 11.0568 23.873 11.1251C23.7237 11.1906 23.5612 11.2677 23.4315 11.375L23.5908 11.5676ZM24.5286 10.258C24.2582 9.86983 24.0963 9.65395 23.9879 9.41923C23.8825 9.19096 23.8269 8.94105 23.79 8.48914L23.5408 8.50951C23.5787 8.9734 23.6376 9.25698 23.761 9.52403C23.8813 9.78465 24.0623 10.0259 24.3234 10.4009L24.5286 10.258ZM23.7899 8.48869C23.7503 8.02499 23.6719 7.67444 23.6153 7.3735C23.5585 7.07146 23.524 6.8203 23.5603 6.5353L23.3123 6.50368C23.2708 6.82921 23.3118 7.11227 23.3696 7.41967C23.4276 7.72817 23.5026 8.06226 23.5408 8.50996L23.7899 8.48869ZM23.5604 6.53471C23.5923 6.27452 23.7343 6.11114 23.9565 5.86956C24.177 5.62983 24.4559 5.33157 24.6937 4.81661L24.4667 4.7118C24.2464 5.18896 23.9907 5.46307 23.7725 5.70032C23.556 5.93572 23.3552 6.15393 23.3122 6.50427L23.5604 6.53471ZM6.55369 7.11083C5.58653 7.38046 5.03756 8.18222 4.82427 8.90011C4.7177 9.2588 4.69103 9.60849 4.74462 9.87359C4.77135 10.0058 4.82004 10.1267 4.89838 10.2154C4.98018 10.308 5.09152 10.3614 5.22376 10.3544L5.21068 10.1048C5.16084 10.1074 5.12134 10.0902 5.08573 10.0499C5.04665 10.0056 5.01134 9.93133 4.98966 9.82407C4.94642 9.61013 4.96528 9.30332 5.06392 8.97131C5.26105 8.30779 5.76127 7.59128 6.62083 7.35165L6.55369 7.11083ZM5.22463 10.3544C5.48214 10.3391 5.80426 10.2095 6.13946 10.03C6.4789 9.84819 6.8476 9.6064 7.20274 9.35046C7.91245 8.839 8.57895 8.26309 8.86505 7.97715L8.68832 7.80032C8.41348 8.07502 7.75766 8.64239 7.05658 9.14764C6.70633 9.40005 6.34751 9.63496 6.02144 9.80959C5.69112 9.98648 5.40972 10.093 5.20982 10.1048L5.22463 10.3544ZM8.86505 7.97715C9.02345 7.81884 9.10047 7.63159 9.04779 7.44512C8.99686 7.26488 8.83651 7.13035 8.6251 7.04413C8.20033 6.8709 7.48183 6.8527 6.55377 7.11081L6.62076 7.35167C7.52382 7.10051 8.17903 7.13221 8.53069 7.27562C8.7075 7.34772 8.78604 7.43819 8.80721 7.5131C8.82661 7.58176 8.80892 7.67979 8.68832 7.80032L8.86505 7.97715ZM8.22303 5.81565C8.25641 5.75358 8.27565 5.68784 8.27256 5.62055C8.26941 5.55183 8.24337 5.49158 8.20295 5.44187C8.12676 5.34817 8.00081 5.29278 7.87128 5.25825C7.60615 5.18757 7.2328 5.18063 6.88015 5.21827C6.52886 5.25577 6.17353 5.3401 5.9495 5.46842C5.8405 5.53085 5.73534 5.61913 5.70354 5.74245C5.6683 5.87915 5.73449 6.00351 5.84529 6.10428L6.0135 5.91933C5.93671 5.84949 5.94324 5.81411 5.94563 5.80486C5.95146 5.78224 5.98122 5.73836 6.07376 5.68535C6.2528 5.5828 6.56708 5.50311 6.90668 5.46686C7.24492 5.43076 7.58376 5.44033 7.80688 5.49981C7.92148 5.53036 7.98367 5.56846 8.00899 5.59959C8.01932 5.6123 8.02238 5.6223 8.02282 5.63202C8.02334 5.64318 8.02069 5.66408 8.00286 5.69723L8.22303 5.81565ZM5.84525 6.10425C6.15574 6.38688 6.63712 6.51967 7.089 6.48538C7.54213 6.45099 7.99518 6.24543 8.22338 5.81499L8.0025 5.69789C7.82689 6.02915 7.4679 6.20591 7.07008 6.2361C6.67101 6.26638 6.26252 6.14601 6.01354 5.91937L5.84525 6.10425Z" fill="#868686"/>
</g>
<defs>
<filter id="filter0_d_6252_1245" x="0.717773" y="0.0185547" width="28.9849" height="18.5544" filterUnits="userSpaceOnUse" color-interpolation-filters="sRGB">
<feFlood flood-opacity="0" result="BackgroundImageFix"/>
<feColorMatrix in="SourceAlpha" type="matrix" values="0 0 0 0 0 0 0 0 0 0 0 0 0 0 0 0 0 0 127 0" result="hardAlpha"/>
<feOffset dy="2"/>
<feGaussianBlur stdDeviation="2"/>
<feColorMatrix type="matrix" values="0 0 0 0 0 0 0 0 0 0 0 0 0 0 0 0 0 0 0.01 0"/>
<feBlend mode="normal" in2="BackgroundImageFix" result="effect1_dropShadow_6252_1245"/>
<feBlend mode="normal" in="SourceGraphic" in2="effect1_dropShadow_6252_1245" result="shape"/>
</filter>
</defs>
</svg>
