<svg width="38" height="33" viewBox="0 0 38 33" fill="none" xmlns="http://www.w3.org/2000/svg">
<g filter="url(#filter0_d_6252_1062)">
<path fill-rule="evenodd" clip-rule="evenodd" d="M18.1224 20.8176C18.1224 20.0324 21.7112 19.0256 21.7112 18.2419C21.7112 17.4582 21.7112 9.06036 21.7112 9.06036C21.7112 9.06036 32.9168 9.28344 33.2531 9.06036C33.4263 8.94295 33.3896 6.50668 33.3309 4.11151C32.9065 3.3909 33.5145 2.79651 30.8639 2.79651C28.6936 2.79651 22.3574 2.79651 18.0828 2.79651C17.1033 3.71378 16.5747 4.95246 16.2002 5.94605C15.5909 7.56925 11.7788 9.95709 11.6276 12.2437C11.4749 14.5288 7.91392 18.0834 5.57913 22.9588C4.93596 24.3047 4.64227 25.3496 4.56738 26.1935H18.1224C18.1224 26.195 18.1224 21.6013 18.1224 20.8176Z" fill="white"/>
<path fill-rule="evenodd" clip-rule="evenodd" d="M18.1224 20.8176C18.1224 20.0324 21.7112 19.0256 21.7112 18.2419C21.7112 17.4582 21.7112 9.06036 21.7112 9.06036C21.7112 9.06036 32.9168 9.28344 33.2531 9.06036C33.4263 8.94295 33.3896 6.50668 33.3309 4.11151C32.9065 3.3909 33.5145 2.79651 30.8639 2.79651C28.6936 2.79651 22.3574 2.79651 18.0828 2.79651C17.1033 3.71378 16.5747 4.95246 16.2002 5.94605C15.5909 7.56925 11.7788 9.95709 11.6276 12.2437C11.4749 14.5288 7.91392 18.0834 5.57913 22.9588C4.93596 24.3047 4.64227 25.3496 4.56738 26.1935H18.1224C18.1224 26.195 18.1224 21.6013 18.1224 20.8176Z" stroke="#868686" stroke-width="0.25"/>
</g>
<defs>
<filter id="filter0_d_6252_1062" x="0.430664" y="0.671509" width="37.0742" height="31.647" filterUnits="userSpaceOnUse" color-interpolation-filters="sRGB">
<feFlood flood-opacity="0" result="BackgroundImageFix"/>
<feColorMatrix in="SourceAlpha" type="matrix" values="0 0 0 0 0 0 0 0 0 0 0 0 0 0 0 0 0 0 127 0" result="hardAlpha"/>
<feOffset dy="2"/>
<feGaussianBlur stdDeviation="2"/>
<feColorMatrix type="matrix" values="0 0 0 0 0 0 0 0 0 0 0 0 0 0 0 0 0 0 0.01 0"/>
<feBlend mode="normal" in2="BackgroundImageFix" result="effect1_dropShadow_6252_1062"/>
<feBlend mode="normal" in="SourceGraphic" in2="effect1_dropShadow_6252_1062" result="shape"/>
</filter>
</defs>
</svg>
