<svg width="32" height="29" viewBox="0 0 32 29" fill="none" xmlns="http://www.w3.org/2000/svg">
<g filter="url(#filter0_d_6252_1074)">
<path fill-rule="evenodd" clip-rule="evenodd" d="M8.17953 5.94332C7.53929 6.5788 6.05178 6.79161 6.26617 7.85271C6.47762 8.91674 6.05178 9.97784 4.98864 11.2488C3.93284 12.5183 4.55692 14.413 4.77425 15.8953C6.05472 15.8029 7.38511 15.7853 7.65089 16.0465C8.1854 16.5793 8.39979 16.0465 8.72138 14.9781C9.04296 13.9067 9.6832 14.0138 10.3293 14.551C10.971 15.0837 11.3983 15.9408 12.4717 15.4037C13.5422 14.8709 13.435 15.1909 13.971 15.4037C14.507 15.6209 16.6479 15.2995 17.3968 15.4037C18.1487 15.5108 24.6861 22.4733 24.6861 22.4733C24.6861 22.4733 24.6699 22.4967 24.642 22.5466C25.4673 22.6391 26.0326 22.7624 26.2852 22.4278C26.3895 22.2839 26.761 22.0432 27.2162 21.7791C26.3821 20.9954 25.1692 19.7097 23.5554 17.6741C21.6244 15.2349 19.3381 13.9155 18.1164 13.9155C16.8976 13.9155 16.6935 11.8344 15.9343 11.7331C15.1692 11.6333 13.4438 8.63202 13.391 6.70355C13.3631 5.6175 12.46 4.10584 11.4629 2.88184C10.25 4.81911 8.6274 5.48982 8.17953 5.94332Z" fill="white"/>
<path fill-rule="evenodd" clip-rule="evenodd" d="M8.17953 5.94332C7.53929 6.5788 6.05178 6.79161 6.26617 7.85271C6.47762 8.91674 6.05178 9.97784 4.98864 11.2488C3.93284 12.5183 4.55692 14.413 4.77425 15.8953C6.05472 15.8029 7.38511 15.7853 7.65089 16.0465C8.1854 16.5793 8.39979 16.0465 8.72138 14.9781C9.04296 13.9067 9.6832 14.0138 10.3293 14.551C10.971 15.0837 11.3983 15.9408 12.4717 15.4037C13.5422 14.8709 13.435 15.1909 13.971 15.4037C14.507 15.6209 16.6479 15.2995 17.3968 15.4037C18.1487 15.5108 24.6861 22.4733 24.6861 22.4733C24.6861 22.4733 24.6699 22.4967 24.642 22.5466C25.4673 22.6391 26.0326 22.7624 26.2852 22.4278C26.3895 22.2839 26.761 22.0432 27.2162 21.7791C26.3821 20.9954 25.1692 19.7097 23.5554 17.6741C21.6244 15.2349 19.3381 13.9155 18.1164 13.9155C16.8976 13.9155 16.6935 11.8344 15.9343 11.7331C15.1692 11.6333 13.4438 8.63202 13.391 6.70355C13.3631 5.6175 12.46 4.10584 11.4629 2.88184C10.25 4.81911 8.6274 5.48982 8.17953 5.94332Z" stroke="#868686" stroke-width="0.25"/>
</g>
<defs>
<filter id="filter0_d_6252_1074" x="0.267578" y="0.667603" width="31.1567" height="28.1047" filterUnits="userSpaceOnUse" color-interpolation-filters="sRGB">
<feFlood flood-opacity="0" result="BackgroundImageFix"/>
<feColorMatrix in="SourceAlpha" type="matrix" values="0 0 0 0 0 0 0 0 0 0 0 0 0 0 0 0 0 0 127 0" result="hardAlpha"/>
<feOffset dy="2"/>
<feGaussianBlur stdDeviation="2"/>
<feColorMatrix type="matrix" values="0 0 0 0 0 0 0 0 0 0 0 0 0 0 0 0 0 0 0.01 0"/>
<feBlend mode="normal" in2="BackgroundImageFix" result="effect1_dropShadow_6252_1074"/>
<feBlend mode="normal" in="SourceGraphic" in2="effect1_dropShadow_6252_1074" result="shape"/>
</filter>
</defs>
</svg>
