<svg width="20" height="13" viewBox="0 0 20 13" fill="none" xmlns="http://www.w3.org/2000/svg">
<g filter="url(#filter0_d_6252_1162)">
<path fill-rule="evenodd" clip-rule="evenodd" d="M15.421 4.00226C14.2022 1.71716 8.56051 5.98356 9.78078 6.59263C10.9996 7.2061 16.0113 5.11179 15.421 4.00226ZM9.17034 2.32922C7.4934 2.02248 3.47285 5.41858 5.20706 6.29036C7.03672 7.20616 10.8458 2.63302 9.17034 2.32922Z" fill="white"/>
<path d="M15.421 4.00226L15.5314 3.94355L15.5313 3.94343L15.421 4.00226ZM9.78078 6.59263L9.83698 6.48098L9.8366 6.48079L9.78078 6.59263ZM9.17034 2.32922L9.14785 2.45218L9.14804 2.45221L9.17034 2.32922ZM5.20706 6.29036L5.15092 6.40204L5.15111 6.40214L5.20706 6.29036ZM15.5313 3.94343C15.192 3.30721 14.5453 3.14183 13.8379 3.23336C13.1323 3.32466 12.3338 3.67231 11.6213 4.10531C10.9082 4.53874 10.2675 5.0661 9.87999 5.52939C9.68804 5.75886 9.5477 5.98485 9.50107 6.18427C9.47733 6.28583 9.47585 6.38928 9.51342 6.4841C9.55191 6.58125 9.62567 6.65492 9.72495 6.70447L9.8366 6.48079C9.78335 6.45421 9.75819 6.42317 9.74585 6.39202C9.73259 6.35856 9.72839 6.31012 9.74451 6.24119C9.7776 6.09964 9.88734 5.91025 10.0717 5.68979C10.4369 5.25324 11.0541 4.74262 11.7512 4.31895C12.449 3.89485 13.2131 3.56629 13.87 3.48129C14.525 3.39653 15.0406 3.55476 15.3107 4.06109L15.5313 3.94343ZM9.72458 6.70428C9.90235 6.79376 10.1367 6.82871 10.3976 6.82797C10.6608 6.82721 10.9628 6.78999 11.284 6.72526C11.9263 6.59576 12.6572 6.35371 13.3296 6.05799C14.0008 5.76279 14.6221 5.41046 15.0408 5.05686C15.2495 4.88062 15.4157 4.69757 15.5094 4.51417C15.6047 4.32771 15.63 4.12888 15.5313 3.94355L15.3106 4.06097C15.3596 4.15302 15.3574 4.26235 15.2868 4.4004C15.2147 4.5415 15.0767 4.69932 14.8795 4.86586C14.4864 5.19782 13.8892 5.53876 13.229 5.82915C12.5699 6.11902 11.8562 6.35486 11.2345 6.48019C10.9236 6.54286 10.6388 6.57728 10.3969 6.57797C10.1527 6.57867 9.9639 6.54487 9.83698 6.48098L9.72458 6.70428ZM9.19283 2.20626C8.73244 2.12204 8.13592 2.2923 7.54445 2.58404C6.94724 2.87862 6.33187 3.30866 5.82481 3.77592C5.32031 4.24083 4.91083 4.75378 4.74146 5.21764C4.65635 5.45076 4.62778 5.68286 4.69095 5.89323C4.75531 6.10756 4.90923 6.28055 5.15092 6.40204L5.2632 6.17867C5.07133 6.08222 4.97154 5.95838 4.93039 5.82133C4.88804 5.68031 4.90216 5.50646 4.9763 5.30339C5.12545 4.89488 5.50074 4.41452 5.99422 3.95977C6.48514 3.50738 7.08095 3.09142 7.65504 2.80825C8.23487 2.52225 8.76977 2.38302 9.14785 2.45218L9.19283 2.20626ZM5.15111 6.40214C5.66318 6.65845 6.29184 6.52202 6.89131 6.2115C7.49607 5.89824 8.10276 5.39239 8.59554 4.8513C9.08693 4.31175 9.4761 3.72499 9.63398 3.24408C9.71238 3.00525 9.74002 2.77371 9.67428 2.5834C9.60426 2.3807 9.43793 2.2507 9.19264 2.20622L9.14804 2.45221C9.32161 2.48368 9.40276 2.56305 9.43798 2.66502C9.47748 2.77937 9.46812 2.94779 9.39645 3.16611C9.25417 3.59949 8.89086 4.15575 8.41071 4.68297C7.93194 5.20867 7.34801 5.69339 6.77633 5.98951C6.19936 6.28838 5.66576 6.38017 5.26301 6.17858L5.15111 6.40214Z" fill="#868686"/>
</g>
<defs>
<filter id="filter0_d_6252_1162" x="0.656738" y="0.184692" width="18.9375" height="12.6433" filterUnits="userSpaceOnUse" color-interpolation-filters="sRGB">
<feFlood flood-opacity="0" result="BackgroundImageFix"/>
<feColorMatrix in="SourceAlpha" type="matrix" values="0 0 0 0 0 0 0 0 0 0 0 0 0 0 0 0 0 0 127 0" result="hardAlpha"/>
<feOffset dy="2"/>
<feGaussianBlur stdDeviation="2"/>
<feColorMatrix type="matrix" values="0 0 0 0 0 0 0 0 0 0 0 0 0 0 0 0 0 0 0.01 0"/>
<feBlend mode="normal" in2="BackgroundImageFix" result="effect1_dropShadow_6252_1162"/>
<feBlend mode="normal" in="SourceGraphic" in2="effect1_dropShadow_6252_1162" result="shape"/>
</filter>
</defs>
</svg>
