<svg width="28" height="31" viewBox="0 0 28 31" fill="none" xmlns="http://www.w3.org/2000/svg">
<g filter="url(#filter0_d_6252_1069)">
<path fill-rule="evenodd" clip-rule="evenodd" d="M14.2619 23.5766C15.9623 23.5766 15.3265 22.5141 14.6862 20.8145C14.0504 19.118 15.7523 19.3308 16.8125 19.3308C17.8771 19.3308 17.4498 17.4184 18.3 17.4184C19.1517 17.4184 19.3602 19.7534 20.2119 19.5406C21.0621 19.3293 21.6994 20.1776 22.7611 19.9677C23.8243 19.7534 23.8243 17.6283 23.8243 15.9317C23.8243 14.2293 24.0386 12.9598 22.9755 12.3214C21.9109 11.68 21.0621 10.1948 22.3382 9.55633C23.6143 8.92231 23.8243 7.64401 22.7611 6.79718C21.698 5.94595 19.3602 7.64401 19.3602 6.79718C19.3602 6.33194 19.5511 4.67352 19.7244 3.25578C17.2633 3.17506 14.6158 3.03857 14.6158 3.03857L13.9814 3.2235C14.1297 5.7126 13.839 7.64841 13.839 7.64841C13.839 7.64841 10.0152 7.86268 9.16349 7.86268C8.97847 7.86268 8.39698 7.94193 7.57319 8.06962C7.39991 8.34407 7.16644 8.61558 6.98876 8.79316C6.53208 9.25106 8.0563 9.8616 8.31181 10.5206C8.56584 11.1795 6.37936 10.9785 6.42929 11.9442C6.48215 12.9084 5.66864 13.6716 5.05778 14.1265C4.44838 14.5844 6.68479 16.5173 6.73472 17.1733C6.78611 17.8352 7.29419 18.4428 9.2281 20.3244C11.0695 22.1163 10.1885 22.5728 12.626 24.557C12.9476 24.0536 13.4586 23.5766 14.2619 23.5766Z" fill="white"/>
<path fill-rule="evenodd" clip-rule="evenodd" d="M14.2619 23.5766C15.9623 23.5766 15.3265 22.5141 14.6862 20.8145C14.0504 19.118 15.7523 19.3308 16.8125 19.3308C17.8771 19.3308 17.4498 17.4184 18.3 17.4184C19.1517 17.4184 19.3602 19.7534 20.2119 19.5406C21.0621 19.3293 21.6994 20.1776 22.7611 19.9677C23.8243 19.7534 23.8243 17.6283 23.8243 15.9317C23.8243 14.2293 24.0386 12.9598 22.9755 12.3214C21.9109 11.68 21.0621 10.1948 22.3382 9.55633C23.6143 8.92231 23.8243 7.64401 22.7611 6.79718C21.698 5.94595 19.3602 7.64401 19.3602 6.79718C19.3602 6.33194 19.5511 4.67352 19.7244 3.25578C17.2633 3.17506 14.6158 3.03857 14.6158 3.03857L13.9814 3.2235C14.1297 5.7126 13.839 7.64841 13.839 7.64841C13.839 7.64841 10.0152 7.86268 9.16349 7.86268C8.97847 7.86268 8.39698 7.94193 7.57319 8.06962C7.39991 8.34407 7.16644 8.61558 6.98876 8.79316C6.53208 9.25106 8.0563 9.8616 8.31181 10.5206C8.56584 11.1795 6.37936 10.9785 6.42929 11.9442C6.48215 12.9084 5.66864 13.6716 5.05778 14.1265C4.44838 14.5844 6.68479 16.5173 6.73472 17.1733C6.78611 17.8352 7.29419 18.4428 9.2281 20.3244C11.0695 22.1163 10.1885 22.5728 12.626 24.557C12.9476 24.0536 13.4586 23.5766 14.2619 23.5766Z" stroke="#868686" stroke-width="0.25"/>
</g>
<defs>
<filter id="filter0_d_6252_1069" x="0.827637" y="0.912598" width="27.1392" height="29.8298" filterUnits="userSpaceOnUse" color-interpolation-filters="sRGB">
<feFlood flood-opacity="0" result="BackgroundImageFix"/>
<feColorMatrix in="SourceAlpha" type="matrix" values="0 0 0 0 0 0 0 0 0 0 0 0 0 0 0 0 0 0 127 0" result="hardAlpha"/>
<feOffset dy="2"/>
<feGaussianBlur stdDeviation="2"/>
<feColorMatrix type="matrix" values="0 0 0 0 0 0 0 0 0 0 0 0 0 0 0 0 0 0 0.01 0"/>
<feBlend mode="normal" in2="BackgroundImageFix" result="effect1_dropShadow_6252_1069"/>
<feBlend mode="normal" in="SourceGraphic" in2="effect1_dropShadow_6252_1069" result="shape"/>
</filter>
</defs>
</svg>
