<svg width="33" height="20" viewBox="0 0 33 20" fill="none" xmlns="http://www.w3.org/2000/svg">
<g filter="url(#filter0_d_6252_1086)">
<path fill-rule="evenodd" clip-rule="evenodd" d="M14.0967 10.9411C15.2127 10.4362 15.6224 11.6558 16.5328 12.8739C16.5974 12.9561 16.6371 13.0236 16.6841 13.0985C17.9381 12.9077 18.8911 12.5437 20.1642 12.394C21.082 12.2869 22.2758 12.4865 23.2142 12.7081C23.0453 12.4146 22.941 12.1489 23.0394 11.9581C23.3434 11.3491 24.8676 12.1621 25.3786 12.6685C25.8852 13.1777 27.5122 13.3773 28.0203 12.8739C28.5284 12.3632 27.2068 11.8569 26.9028 11.3491C26.7487 11.0937 27.1525 10.5683 27.593 10.0987C26.709 9.60699 25.7971 8.90547 25.4799 9.0126C25.0218 9.16377 25.0218 6.87573 24.4109 6.87573C23.8015 6.87573 23.8015 6.42076 23.1921 6.42076C22.5798 6.42076 20.2949 6.42076 19.6855 6.87573C19.0761 7.3351 18.3126 5.8117 17.5519 5.8117C16.7869 5.8117 15.8735 5.04706 15.4168 4.43799C14.9601 3.82892 11.1496 4.74179 10.0806 3.98009C9.01156 3.21986 7.03212 2.60785 5.96311 2.76196C5.68851 2.80158 5.21715 3.03787 4.67383 3.36368C6.67676 4.52605 9.58718 4.22225 9.97778 6.32096C10.4374 8.75577 11.8074 7.79006 11.2964 9.87264C11.198 10.2836 10.9073 10.6813 10.5035 11.0482C12.0894 11.17 13.5769 11.1744 14.0967 10.9411Z" fill="white"/>
<path fill-rule="evenodd" clip-rule="evenodd" d="M14.0967 10.9411C15.2127 10.4362 15.6224 11.6558 16.5328 12.8739C16.5974 12.9561 16.6371 13.0236 16.6841 13.0985C17.9381 12.9077 18.8911 12.5437 20.1642 12.394C21.082 12.2869 22.2758 12.4865 23.2142 12.7081C23.0453 12.4146 22.941 12.1489 23.0394 11.9581C23.3434 11.3491 24.8676 12.1621 25.3786 12.6685C25.8852 13.1777 27.5122 13.3773 28.0203 12.8739C28.5284 12.3632 27.2068 11.8569 26.9028 11.3491C26.7487 11.0937 27.1525 10.5683 27.593 10.0987C26.709 9.60699 25.7971 8.90547 25.4799 9.0126C25.0218 9.16377 25.0218 6.87573 24.4109 6.87573C23.8015 6.87573 23.8015 6.42076 23.1921 6.42076C22.5798 6.42076 20.2949 6.42076 19.6855 6.87573C19.0761 7.3351 18.3126 5.8117 17.5519 5.8117C16.7869 5.8117 15.8735 5.04706 15.4168 4.43799C14.9601 3.82892 11.1496 4.74179 10.0806 3.98009C9.01156 3.21986 7.03212 2.60785 5.96311 2.76196C5.68851 2.80158 5.21715 3.03787 4.67383 3.36368C6.67676 4.52605 9.58718 4.22225 9.97778 6.32096C10.4374 8.75577 11.8074 7.79006 11.2964 9.87264C11.198 10.2836 10.9073 10.6813 10.5035 11.0482C12.0894 11.17 13.5769 11.1744 14.0967 10.9411Z" stroke="#868686" stroke-width="0.25"/>
</g>
<defs>
<filter id="filter0_d_6252_1086" x="0.427734" y="0.613037" width="31.8325" height="18.6777" filterUnits="userSpaceOnUse" color-interpolation-filters="sRGB">
<feFlood flood-opacity="0" result="BackgroundImageFix"/>
<feColorMatrix in="SourceAlpha" type="matrix" values="0 0 0 0 0 0 0 0 0 0 0 0 0 0 0 0 0 0 127 0" result="hardAlpha"/>
<feOffset dy="2"/>
<feGaussianBlur stdDeviation="2"/>
<feColorMatrix type="matrix" values="0 0 0 0 0 0 0 0 0 0 0 0 0 0 0 0 0 0 0.01 0"/>
<feBlend mode="normal" in2="BackgroundImageFix" result="effect1_dropShadow_6252_1086"/>
<feBlend mode="normal" in="SourceGraphic" in2="effect1_dropShadow_6252_1086" result="shape"/>
</filter>
</defs>
</svg>
