<svg width="23" height="31" viewBox="0 0 23 31" fill="none" xmlns="http://www.w3.org/2000/svg">
<g filter="url(#filter0_d_6252_1058)">
<path fill-rule="evenodd" clip-rule="evenodd" d="M16.657 11.57C16.2003 10.4267 16.5072 7.9141 16.5835 6.76788C16.657 5.62899 16.2781 5.01699 15.7436 4.71466C15.4587 4.55469 15.2179 3.47304 15.0534 2.5C14.447 2.77445 14.3985 3.7695 14.143 3.34242C13.8376 2.83462 5.90956 2.53082 5.50574 3.13695C5.09899 3.74749 6.21499 5.98269 6.11514 6.59323C6.05346 6.95867 5.88166 7.2067 5.62909 7.22578C6.46903 9.10141 6.82732 11.978 6.82732 12.5577C6.82732 13.3223 5.45288 13.9329 5.53071 14.8457C5.60559 15.7601 4.30898 17.5902 4.23262 18.1993C4.1592 18.8069 5.2238 21.3972 5.68195 22.0092C5.9125 22.316 5.79649 23.0454 5.62028 23.6926C7.00647 24.0933 7.91836 24.5556 8.1959 24.6246C8.80676 24.7772 13.1269 22.7959 14.8552 21.9315C16.237 21.2387 17.773 20.8058 18.8302 20.2495C18.1959 19.0123 17.5747 17.3847 17.5747 16.2928C17.5718 14.5419 17.1151 12.7133 16.657 11.57Z" fill="white"/>
<path fill-rule="evenodd" clip-rule="evenodd" d="M16.657 11.57C16.2003 10.4267 16.5072 7.9141 16.5835 6.76788C16.657 5.62899 16.2781 5.01699 15.7436 4.71466C15.4587 4.55469 15.2179 3.47304 15.0534 2.5C14.447 2.77445 14.3985 3.7695 14.143 3.34242C13.8376 2.83462 5.90956 2.53082 5.50574 3.13695C5.09899 3.74749 6.21499 5.98269 6.11514 6.59323C6.05346 6.95867 5.88166 7.2067 5.62909 7.22578C6.46903 9.10141 6.82732 11.978 6.82732 12.5577C6.82732 13.3223 5.45288 13.9329 5.53071 14.8457C5.60559 15.7601 4.30898 17.5902 4.23262 18.1993C4.1592 18.8069 5.2238 21.3972 5.68195 22.0092C5.9125 22.316 5.79649 23.0454 5.62028 23.6926C7.00647 24.0933 7.91836 24.5556 8.1959 24.6246C8.80676 24.7772 13.1269 22.7959 14.8552 21.9315C16.237 21.2387 17.773 20.8058 18.8302 20.2495C18.1959 19.0123 17.5747 17.3847 17.5747 16.2928C17.5718 14.5419 17.1151 12.7133 16.657 11.57Z" stroke="#868686" stroke-width="0.25"/>
</g>
<defs>
<filter id="filter0_d_6252_1058" x="0.104004" y="0.319214" width="22.894" height="30.4387" filterUnits="userSpaceOnUse" color-interpolation-filters="sRGB">
<feFlood flood-opacity="0" result="BackgroundImageFix"/>
<feColorMatrix in="SourceAlpha" type="matrix" values="0 0 0 0 0 0 0 0 0 0 0 0 0 0 0 0 0 0 127 0" result="hardAlpha"/>
<feOffset dy="2"/>
<feGaussianBlur stdDeviation="2"/>
<feColorMatrix type="matrix" values="0 0 0 0 0 0 0 0 0 0 0 0 0 0 0 0 0 0 0.01 0"/>
<feBlend mode="normal" in2="BackgroundImageFix" result="effect1_dropShadow_6252_1058"/>
<feBlend mode="normal" in="SourceGraphic" in2="effect1_dropShadow_6252_1058" result="shape"/>
</filter>
</defs>
</svg>
