<svg width="35" height="29" viewBox="0 0 35 29" fill="none" xmlns="http://www.w3.org/2000/svg">
<g filter="url(#filter0_d_6252_1059)">
<path fill-rule="evenodd" clip-rule="evenodd" d="M13.8346 13.3814C13.9095 12.5434 14.5982 12.8472 15.4352 12.9998C16.2722 13.1525 17.2649 12.4656 18.0255 12.4656C18.7876 12.4656 20.7715 15.1323 20.7715 15.894C20.7715 16.6557 20.8478 17.3411 21.2282 17.9516C21.2781 18.0279 21.3119 18.1116 21.3354 18.1923C22.5644 17.909 23.5835 17.7579 23.8199 17.7579C24.1929 17.7579 24.9448 19.5572 24.7935 20.6814C24.6452 21.8085 25.9169 22.6319 26.4455 21.8834C26.9697 21.132 27.6437 20.156 27.7935 20.8296C27.8376 21.0322 28.1195 21.2024 28.4763 21.3462C28.6657 20.9016 29.074 20.7254 29.3838 20.3145C29.8405 19.7025 28.698 19.0156 29.0784 18.2554C29.4587 17.4952 30.1459 18.5577 30.679 18.0279C31.212 17.4952 29.9154 16.3504 30.0696 15.894C30.2208 15.4346 30.1444 14.6744 29.4572 14.2943C28.8933 13.9802 29.2061 12.6857 29.4646 11.5542C29.2884 11.425 29.1239 11.2548 29.0005 11.0728C28.5938 10.4623 28.9007 9.13848 28.1885 9.13848C27.4763 9.13848 27.5776 8.12581 28.1885 7.92034C28.7994 7.72074 26.9697 7.00601 26.9697 6.29567C26.9697 5.58974 26.0549 3.85793 25.6481 3.75813C25.2414 3.65687 23.8185 5.48554 23.2076 5.48554C22.5982 5.48554 21.2796 4.26447 20.8713 5.28154C20.4646 6.29567 19.5512 4.7708 18.9404 5.58974C18.3295 6.39841 17.9257 4.671 17.9257 4.671C17.9257 4.671 17.9345 4.43178 17.9477 4.1045C17.8229 4.14999 17.6966 4.19402 17.5689 4.24099C15.8156 4.84712 12.6893 4.467 12.538 3.93425C12.3853 3.40003 10.0975 2.94653 10.0975 2.94653C10.0975 2.94653 10.1724 4.24099 9.33392 4.54479C8.49545 4.84712 9.563 5.83924 9.563 6.14304C9.563 6.44684 8.87724 6.90767 8.34421 6.67726C7.8097 6.44684 6.28547 7.82054 5.52189 8.35182C5.43672 8.41787 5.30603 8.55142 5.15479 8.71873C6.33099 9.66536 6.2282 10.7191 7.60852 11.7318C8.88165 12.6696 10.5057 13.9332 11.4793 15.9527C12.4631 15.1147 13.7833 13.9508 13.8346 13.3814Z" fill="white"/>
<path fill-rule="evenodd" clip-rule="evenodd" d="M13.8346 13.3814C13.9095 12.5434 14.5982 12.8472 15.4352 12.9998C16.2722 13.1525 17.2649 12.4656 18.0255 12.4656C18.7876 12.4656 20.7715 15.1323 20.7715 15.894C20.7715 16.6557 20.8478 17.3411 21.2282 17.9516C21.2781 18.0279 21.3119 18.1116 21.3354 18.1923C22.5644 17.909 23.5835 17.7579 23.8199 17.7579C24.1929 17.7579 24.9448 19.5572 24.7935 20.6814C24.6452 21.8085 25.9169 22.6319 26.4455 21.8834C26.9697 21.132 27.6437 20.156 27.7935 20.8296C27.8376 21.0322 28.1195 21.2024 28.4763 21.3462C28.6657 20.9016 29.074 20.7254 29.3838 20.3145C29.8405 19.7025 28.698 19.0156 29.0784 18.2554C29.4587 17.4952 30.1459 18.5577 30.679 18.0279C31.212 17.4952 29.9154 16.3504 30.0696 15.894C30.2208 15.4346 30.1444 14.6744 29.4572 14.2943C28.8933 13.9802 29.2061 12.6857 29.4646 11.5542C29.2884 11.425 29.1239 11.2548 29.0005 11.0728C28.5938 10.4623 28.9007 9.13848 28.1885 9.13848C27.4763 9.13848 27.5776 8.12581 28.1885 7.92034C28.7994 7.72074 26.9697 7.00601 26.9697 6.29567C26.9697 5.58974 26.0549 3.85793 25.6481 3.75813C25.2414 3.65687 23.8185 5.48554 23.2076 5.48554C22.5982 5.48554 21.2796 4.26447 20.8713 5.28154C20.4646 6.29567 19.5512 4.7708 18.9404 5.58974C18.3295 6.39841 17.9257 4.671 17.9257 4.671C17.9257 4.671 17.9345 4.43178 17.9477 4.1045C17.8229 4.14999 17.6966 4.19402 17.5689 4.24099C15.8156 4.84712 12.6893 4.467 12.538 3.93425C12.3853 3.40003 10.0975 2.94653 10.0975 2.94653C10.0975 2.94653 10.1724 4.24099 9.33392 4.54479C8.49545 4.84712 9.563 5.83924 9.563 6.14304C9.563 6.44684 8.87724 6.90767 8.34421 6.67726C7.8097 6.44684 6.28547 7.82054 5.52189 8.35182C5.43672 8.41787 5.30603 8.55142 5.15479 8.71873C6.33099 9.66536 6.2282 10.7191 7.60852 11.7318C8.88165 12.6696 10.5057 13.9332 11.4793 15.9527C12.4631 15.1147 13.7833 13.9508 13.8346 13.3814Z" stroke="#868686" stroke-width="0.25"/>
</g>
<defs>
<filter id="filter0_d_6252_1059" x="0.973145" y="0.79248" width="33.96" height="27.5034" filterUnits="userSpaceOnUse" color-interpolation-filters="sRGB">
<feFlood flood-opacity="0" result="BackgroundImageFix"/>
<feColorMatrix in="SourceAlpha" type="matrix" values="0 0 0 0 0 0 0 0 0 0 0 0 0 0 0 0 0 0 127 0" result="hardAlpha"/>
<feOffset dy="2"/>
<feGaussianBlur stdDeviation="2"/>
<feColorMatrix type="matrix" values="0 0 0 0 0 0 0 0 0 0 0 0 0 0 0 0 0 0 0.01 0"/>
<feBlend mode="normal" in2="BackgroundImageFix" result="effect1_dropShadow_6252_1059"/>
<feBlend mode="normal" in="SourceGraphic" in2="effect1_dropShadow_6252_1059" result="shape"/>
</filter>
</defs>
</svg>
