<svg width="31" height="36" viewBox="0 0 31 36" fill="none" xmlns="http://www.w3.org/2000/svg">
<g filter="url(#filter0_d_6252_1223)">
<path fill-rule="evenodd" clip-rule="evenodd" d="M26.031 2.25269C25.2674 2.33341 24.2102 2.61666 24.3805 3.04521C24.5846 3.55154 23.8695 3.85681 23.0604 3.85681C23.0604 3.85681 20.2131 3.65574 19.3996 3.24774C18.7843 2.94101 16.0677 3.09804 14.7873 3.19344C14.7814 3.24481 14.7623 3.2947 14.7227 3.34901C14.4187 3.80544 11.9796 5.04706 11.52 4.81958C11.0648 4.59356 10.8343 5.58421 9.92091 5.81023C9.00608 6.03918 7.6331 5.73391 7.55968 6.11696C7.48038 6.49855 6.87245 7.56405 6.34088 8.0968C5.80638 8.63102 6.26306 9.24008 5.50241 9.39125C4.99874 9.49545 4.79023 10.4274 4.5127 11.2463C4.56262 11.2728 4.60814 11.308 4.66247 11.3256C5.77995 11.6778 6.64485 13.0031 6.49213 14.2697C6.34088 15.5406 8.11768 16.0015 8.93119 15.0827C9.74323 14.1713 12.031 15.5949 12.031 16.2025C12.031 16.8116 9.6933 15.5421 8.37025 16.5078C7.0516 17.472 9.3864 18.3849 9.0839 19.4034C8.777 20.419 9.6933 21.8382 10.8622 21.7913C12.0325 21.7414 13.3511 23.6698 14.0633 23.3132C14.777 22.9595 13.2014 20.2664 13.4554 19.8599C13.7109 19.4533 15.1309 20.5717 15.8416 19.7571C16.5553 18.9455 15.335 18.3365 14.2689 18.3849C13.2014 18.4363 14.2175 16.9642 15.4892 17.7259C16.7564 18.4862 17.3688 17.5234 17.9752 17.4192C18.5846 17.3179 18.7388 15.1356 16.8577 14.6278C14.9811 14.1214 15.2322 16.0029 14.0119 14.7261C12.7931 13.461 15.1309 13.9644 15.1309 12.9004C15.1309 11.8334 13.2513 10.3085 12.335 9.03902C11.4231 7.77245 13.6081 7.16192 14.1147 8.07772C14.6243 8.98912 15.9943 8.83942 16.8592 8.48132C17.7271 8.12762 15.9444 6.50001 17.5185 5.88948C19.0956 5.28041 19.0956 6.34885 19.6052 6.55138C20.1118 6.75391 20.5699 5.28041 22.1955 5.28041C23.0413 5.28041 23.7917 5.84105 24.5171 6.3826C24.959 5.89682 25.3203 5.6165 25.3203 5.20263C25.3203 4.67134 26.3129 4.43946 26.3129 3.60291C26.31 3.19931 26.1529 2.69298 26.031 2.25269ZM23.1617 27.882C22.3467 27.427 18.6889 28.1858 17.7256 27.2744C16.7579 26.36 14.7873 27.9935 15.6389 28.1359C16.8577 28.3399 18.6889 29.4054 20.6698 29.4553C22.6536 29.5081 25.3452 28.5424 25.2968 28.0331C25.2454 27.5253 23.9752 28.3399 23.1617 27.882Z" fill="white"/>
<path d="M26.031 2.25269L26.1515 2.21934L26.1232 2.11724L26.0179 2.12838L26.031 2.25269ZM24.3805 3.04521L24.2643 3.09138L24.2646 3.09194L24.3805 3.04521ZM23.0604 3.85681L23.0515 3.98181H23.0604V3.85681ZM19.3996 3.24774L19.4556 3.13601L19.4554 3.13587L19.3996 3.24774ZM14.7873 3.19344L14.778 3.06878L14.6748 3.07647L14.6631 3.17924L14.7873 3.19344ZM14.7227 3.34901L14.6216 3.27523L14.6186 3.27972L14.7227 3.34901ZM11.52 4.81958L11.4644 4.93153L11.4646 4.9316L11.52 4.81958ZM9.92091 5.81023L9.89088 5.68889L9.89056 5.68897L9.92091 5.81023ZM7.55968 6.11696L7.68208 6.1424L7.68244 6.14049L7.55968 6.11696ZM6.34088 8.0968L6.42925 8.18521L6.42937 8.18509L6.34088 8.0968ZM5.50241 9.39125L5.47805 9.26864L5.47709 9.26884L5.50241 9.39125ZM4.5127 11.2463L4.39431 11.2062L4.36014 11.307L4.45423 11.3568L4.5127 11.2463ZM4.66247 11.3256L4.62393 11.4445L4.6249 11.4448L4.66247 11.3256ZM6.49213 14.2697L6.36803 14.2547L6.36801 14.2549L6.49213 14.2697ZM8.93119 15.0827L8.83786 14.9996L8.8376 14.9999L8.93119 15.0827ZM8.37025 16.5078L8.29655 16.4068L8.29647 16.4069L8.37025 16.5078ZM9.0839 19.4034L9.20356 19.4396L9.20373 19.439L9.0839 19.4034ZM10.8622 21.7913L10.8672 21.9162L10.8675 21.9162L10.8622 21.7913ZM14.0633 23.3132L14.0078 23.2012L14.0074 23.2014L14.0633 23.3132ZM13.4554 19.8599L13.3496 19.7934L13.3494 19.7936L13.4554 19.8599ZM15.8416 19.7571L15.7477 19.6746L15.7474 19.675L15.8416 19.7571ZM14.2689 18.3849L14.2632 18.26L14.2629 18.26L14.2689 18.3849ZM15.4892 17.7259L15.5535 17.6187L15.5534 17.6187L15.4892 17.7259ZM17.9752 17.4192L17.9547 17.2959L17.9541 17.296L17.9752 17.4192ZM16.8577 14.6278L16.8903 14.5071L16.8903 14.5071L16.8577 14.6278ZM14.0119 14.7261L14.1023 14.6397L14.102 14.6394L14.0119 14.7261ZM12.335 9.03902L12.2336 9.11206L12.2336 9.11218L12.335 9.03902ZM14.1147 8.07772L14.0053 8.13823L14.0056 8.13872L14.1147 8.07772ZM16.8592 8.48132L16.812 8.36556L16.8114 8.36583L16.8592 8.48132ZM17.5185 5.88948L17.4735 5.77287L17.4733 5.77294L17.5185 5.88948ZM19.6052 6.55138L19.6516 6.43531L19.6513 6.43522L19.6052 6.55138ZM24.5171 6.3826L24.4423 6.48277L24.5332 6.55063L24.6095 6.46673L24.5171 6.3826ZM26.3129 3.60291H26.4379L26.4379 3.602L26.3129 3.60291ZM23.1617 27.882L23.223 27.773L23.2226 27.7728L23.1617 27.882ZM17.7256 27.2744L17.8115 27.1836L17.8114 27.1835L17.7256 27.2744ZM15.6389 28.1359L15.6596 28.0126L15.6596 28.0126L15.6389 28.1359ZM20.6698 29.4553L20.6731 29.3303L20.6729 29.3303L20.6698 29.4553ZM25.2968 28.0331L25.4212 28.0213L25.4211 28.0205L25.2968 28.0331ZM26.0179 2.12838C25.6296 2.16942 25.1621 2.26219 24.8094 2.40234C24.6346 2.47177 24.4755 2.5576 24.3703 2.66404C24.3167 2.71822 24.2726 2.78226 24.2511 2.8568C24.229 2.93348 24.2332 3.01318 24.2643 3.09138L24.4966 2.99904C24.4851 2.9701 24.4852 2.9472 24.4913 2.92604C24.498 2.90276 24.5145 2.87372 24.548 2.83982C24.617 2.7701 24.7379 2.69973 24.9017 2.63468C25.2258 2.50589 25.6688 2.41667 26.0441 2.37699L26.0179 2.12838ZM24.2646 3.09194C24.3032 3.18778 24.296 3.2638 24.2628 3.32877C24.2272 3.39854 24.1546 3.46854 24.0403 3.5313C23.8109 3.65719 23.453 3.73181 23.0604 3.73181V3.98181C23.4769 3.98181 23.8811 3.9038 24.1605 3.75047C24.3006 3.67362 24.4191 3.57236 24.4854 3.44248C24.5542 3.30781 24.5598 3.1558 24.4964 2.99847L24.2646 3.09194ZM23.0604 3.85681C23.0692 3.73212 23.0692 3.73212 23.0692 3.73212C23.0691 3.73212 23.0691 3.73211 23.0691 3.73211C23.069 3.73211 23.0689 3.7321 23.0687 3.73209C23.0684 3.73206 23.0679 3.73203 23.0672 3.73198C23.0659 3.73188 23.0639 3.73174 23.0612 3.73155C23.0559 3.73116 23.0479 3.73058 23.0375 3.7298C23.0166 3.72824 22.9858 3.72589 22.9463 3.72276C22.8673 3.7165 22.7533 3.70709 22.614 3.69452C22.3353 3.66938 21.9554 3.63164 21.5505 3.58123C21.1452 3.53079 20.7164 3.46784 20.3393 3.39246C19.9586 3.31636 19.6427 3.22982 19.4556 3.13601L19.3436 3.35948C19.5633 3.46966 19.9083 3.56126 20.2903 3.63761C20.6758 3.71467 21.1113 3.7785 21.5196 3.82932C21.9282 3.88018 22.311 3.9182 22.5915 3.94351C22.7319 3.95617 22.8467 3.96566 22.9266 3.97198C22.9665 3.97514 22.9977 3.97752 23.0189 3.9791C23.0295 3.9799 23.0376 3.98049 23.0431 3.98089C23.0459 3.98109 23.048 3.98124 23.0494 3.98134C23.0501 3.98139 23.0506 3.98143 23.051 3.98146C23.0512 3.98147 23.0513 3.98148 23.0514 3.98149C23.0515 3.98149 23.0515 3.98149 23.0515 3.98149C23.0515 3.9815 23.0516 3.9815 23.0604 3.85681ZM19.4554 3.13587C19.3628 3.08975 19.2396 3.05611 19.0998 3.03048C18.9583 3.00452 18.7919 2.98544 18.6087 2.97178C18.2422 2.94447 17.8008 2.93836 17.3411 2.9448C16.4213 2.9577 15.4192 3.02102 14.778 3.06878L14.7966 3.31809C15.4358 3.27046 16.4322 3.20757 17.3446 3.19478C17.801 3.18838 18.2342 3.19456 18.5901 3.22109C18.7681 3.23436 18.925 3.25258 19.0547 3.27638C19.1863 3.3005 19.2825 3.32905 19.3438 3.35961L19.4554 3.13587ZM14.6631 3.17924C14.6599 3.20666 14.6501 3.2364 14.6217 3.2753L14.8236 3.42272C14.8745 3.35301 14.9028 3.28295 14.9115 3.20764L14.6631 3.17924ZM14.6186 3.27972C14.5918 3.32 14.5331 3.37948 14.4386 3.45489C14.3466 3.52838 14.2286 3.6108 14.0916 3.69783C13.8178 3.87179 13.4745 4.06034 13.1255 4.2281C12.7762 4.39605 12.4249 4.5414 12.1349 4.63046C11.9896 4.67508 11.8634 4.70442 11.7625 4.71627C11.6562 4.72876 11.5988 4.71909 11.5755 4.70755L11.4646 4.9316C11.5561 4.97693 11.6755 4.97822 11.7917 4.96457C11.9134 4.95027 12.0555 4.91637 12.2083 4.86944C12.5144 4.77542 12.878 4.6245 13.2339 4.45342C13.5901 4.28216 13.9423 4.08893 14.2257 3.90883C14.3673 3.81883 14.4933 3.73114 14.5946 3.65026C14.6935 3.57129 14.7775 3.49212 14.8267 3.41829L14.6186 3.27972ZM11.5756 4.70762C11.4993 4.66974 11.4218 4.65489 11.3439 4.66379C11.2675 4.67251 11.1993 4.70303 11.1387 4.74228C11.0224 4.81749 10.9103 4.94163 10.8004 5.06059C10.5709 5.30914 10.3074 5.58582 9.89088 5.68889L9.95093 5.93157C10.4478 5.80862 10.7562 5.47696 10.9841 5.23019C11.103 5.10149 11.1909 5.00621 11.2745 4.95219C11.3137 4.92681 11.3453 4.91525 11.3723 4.91217C11.3976 4.90928 11.4269 4.91291 11.4644 4.93153L11.5756 4.70762ZM9.89056 5.68897C9.45214 5.79869 8.9007 5.78062 8.42471 5.78081C8.19289 5.7809 7.97438 5.78548 7.80785 5.81678C7.7246 5.83243 7.64407 5.85648 7.5788 5.89698C7.51037 5.93943 7.45418 6.00336 7.43691 6.09343L7.68244 6.14049C7.68353 6.1348 7.68631 6.12448 7.71059 6.10941C7.73803 6.09239 7.78395 6.07565 7.85404 6.06248C7.99419 6.03613 8.18986 6.0309 8.42481 6.03081C8.88238 6.03063 9.47484 6.05072 9.95125 5.93149L9.89056 5.68897ZM7.43729 6.09153C7.42058 6.17193 7.37299 6.29917 7.29751 6.45899C7.22313 6.6165 7.12513 6.79844 7.01269 6.98589C6.78689 7.36233 6.50805 7.75229 6.2524 8.00851L6.42937 8.18509C6.70529 7.90856 6.9962 7.49939 7.22708 7.11449C7.34298 6.92128 7.44506 6.732 7.52357 6.56576C7.60099 6.40183 7.65912 6.25278 7.68206 6.14239L7.43729 6.09153ZM6.25252 8.00839C5.95263 8.30811 5.92882 8.6391 5.88389 8.86309C5.86071 8.97867 5.83445 9.05894 5.78326 9.12016C5.73456 9.1784 5.64998 9.23448 5.47805 9.26865L5.52678 9.51385C5.73517 9.47244 5.87875 9.3957 5.97505 9.28053C6.06887 9.16833 6.10447 9.03461 6.12901 8.91225C6.17953 8.66035 6.19463 8.4197 6.42925 8.18521L6.25252 8.00839ZM5.47709 9.26884C5.31451 9.30248 5.18406 9.40166 5.07789 9.53036C4.97232 9.65834 4.88484 9.82247 4.80792 10.0014C4.65565 10.3556 4.52956 10.8071 4.39431 11.2062L4.63108 11.2865C4.77336 10.8666 4.8903 10.4427 5.03759 10.1001C5.11044 9.93068 5.18688 9.79111 5.27074 9.68945C5.354 9.58852 5.43849 9.53212 5.52774 9.51366L5.47709 9.26884ZM4.45423 11.3568C4.47639 11.3685 4.49168 11.3789 4.52272 11.3971C4.54959 11.4129 4.5838 11.4315 4.62393 11.4445L4.70102 11.2067C4.68682 11.2021 4.6711 11.1943 4.64914 11.1814C4.63136 11.171 4.59893 11.1505 4.57116 11.1359L4.45423 11.3568ZM4.6249 11.4448C5.15045 11.6105 5.62385 12.008 5.94792 12.5215C6.27172 13.0345 6.44046 13.654 6.36803 14.2547L6.61623 14.2846C6.69652 13.6188 6.50917 12.9423 6.15933 12.388C5.80976 11.8342 5.29197 11.3929 4.70005 11.2064L4.6249 11.4448ZM6.36801 14.2549C6.28347 14.9653 6.74413 15.4449 7.31372 15.617C7.87895 15.7878 8.58018 15.6677 9.02477 15.1656L8.8376 14.9999C8.46869 15.4165 7.87476 15.5254 7.38603 15.3777C6.90166 15.2313 6.54955 14.845 6.61626 14.2844L6.36801 14.2549ZM9.02452 15.1659C9.19403 14.9756 9.4465 14.8989 9.7525 14.9126C10.0592 14.9264 10.4046 15.0314 10.7323 15.186C11.0592 15.3404 11.36 15.5403 11.5772 15.7359C11.6859 15.8339 11.7707 15.9281 11.8274 16.0124C11.8859 16.0992 11.906 16.1629 11.906 16.2025H12.156C12.156 16.0903 12.1047 15.9766 12.0348 15.8728C11.9633 15.7665 11.863 15.6569 11.7445 15.5502C11.5074 15.3365 11.1855 15.1236 10.839 14.96C10.4931 14.7967 10.1144 14.6787 9.76374 14.6629C9.41238 14.6471 9.07437 14.7341 8.83786 14.9996L9.02452 15.1659ZM11.906 16.2025C11.906 16.2116 11.9049 16.217 11.9042 16.2196C11.9035 16.2221 11.9029 16.2229 11.9028 16.223C11.9027 16.2232 11.9019 16.2243 11.8993 16.2261C11.8966 16.228 11.8916 16.231 11.8833 16.2342C11.8445 16.249 11.7721 16.2557 11.6546 16.2467C11.4214 16.229 11.1025 16.16 10.7166 16.098C9.9704 15.9781 9.00471 15.8899 8.29655 16.4068L8.44394 16.6088C9.05884 16.16 9.92354 16.2237 10.6769 16.3448C11.0409 16.4033 11.3891 16.4772 11.6356 16.496C11.7579 16.5053 11.8785 16.5037 11.9727 16.4676C12.0226 16.4485 12.071 16.4176 12.1061 16.3684C12.1416 16.3188 12.156 16.2612 12.156 16.2025H11.906ZM8.29647 16.4069C7.94296 16.6654 7.80808 16.9432 7.8439 17.2388C7.87736 17.515 8.0587 17.7763 8.24843 18.0134C8.44748 18.262 8.65812 18.4876 8.80923 18.7242C8.95813 18.9573 9.02416 19.1655 8.96408 19.3679L9.20373 19.439C9.29489 19.1321 9.18251 18.8442 9.01993 18.5896C8.85954 18.3385 8.62561 18.0845 8.44361 17.8571C8.25228 17.6181 8.11607 17.4068 8.09208 17.2088C8.07045 17.0302 8.13821 16.8323 8.44403 16.6087L8.29647 16.4069ZM8.96425 19.3673C8.79677 19.9215 8.96496 20.5698 9.31759 21.068C9.67096 21.5673 10.2284 21.9418 10.8672 21.9162L10.8571 21.6664C10.3271 21.6877 9.84193 21.3761 9.52165 20.9236C9.20065 20.4701 9.06414 19.901 9.20356 19.4396L8.96425 19.3673ZM10.8675 21.9162C11.126 21.9051 11.4035 22.0035 11.6947 22.1672C11.9851 22.3303 12.275 22.55 12.5587 22.7666C12.8382 22.98 13.1153 23.1933 13.3682 23.329C13.6161 23.462 13.8825 23.5435 14.1193 23.425L14.0074 23.2014C13.888 23.2612 13.7226 23.2354 13.4864 23.1087C13.2551 22.9846 12.9959 22.7858 12.7104 22.5679C12.4291 22.3532 12.1254 22.1224 11.8172 21.9492C11.5097 21.7764 11.1835 21.6525 10.8568 21.6664L10.8675 21.9162ZM14.1188 23.4252C14.2502 23.3601 14.3216 23.2425 14.3533 23.1088C14.3842 22.9786 14.3801 22.8251 14.3575 22.6642C14.3121 22.3417 14.1859 21.9485 14.0495 21.5645C13.9109 21.1743 13.7628 20.7963 13.6626 20.4831C13.6128 20.3274 13.5773 20.1949 13.5614 20.0915C13.5535 20.0399 13.5511 19.9995 13.553 19.9694C13.5539 19.9546 13.5557 19.9439 13.5577 19.9364C13.5587 19.9328 13.5596 19.9302 13.5603 19.9285C13.561 19.9268 13.5614 19.9261 13.5614 19.9261L13.3494 19.7936C13.3182 19.8435 13.3067 19.901 13.3034 19.9541C13.3001 20.0083 13.3049 20.0678 13.3143 20.1294C13.3332 20.2525 13.3735 20.3999 13.4245 20.5593C13.526 20.8765 13.6796 21.2701 13.8139 21.6482C13.9505 22.0326 14.0685 22.4043 14.1099 22.699C14.1307 22.8467 14.1306 22.9647 14.1101 23.0511C14.0904 23.134 14.0549 23.1779 14.0078 23.2012L14.1188 23.4252ZM13.5612 19.9264C13.569 19.9141 13.5821 19.9017 13.6211 19.8957C13.6644 19.8891 13.7268 19.893 13.8123 19.9096C13.9879 19.9436 14.1942 20.0152 14.4456 20.0823C14.9164 20.2079 15.5252 20.3099 15.9358 19.8393L15.7474 19.675C15.4473 20.019 14.9907 19.969 14.51 19.8407C14.2857 19.7809 14.0446 19.7 13.8599 19.6641C13.7652 19.6458 13.6692 19.6354 13.5832 19.6486C13.4929 19.6624 13.4057 19.704 13.3496 19.7934L13.5612 19.9264ZM15.9355 19.8397C16.1307 19.6176 16.2093 19.3902 16.1699 19.1714C16.1312 18.9568 15.9845 18.781 15.795 18.6466C15.4175 18.3788 14.8163 18.2349 14.2632 18.26L14.2746 18.5098C14.7876 18.4865 15.3296 18.6229 15.6503 18.8505C15.81 18.9637 15.9011 19.0893 15.9238 19.2157C15.9458 19.3378 15.9093 19.4909 15.7477 19.6746L15.9355 19.8397ZM14.2629 18.26C14.0118 18.2721 13.9596 18.1928 13.9503 18.1612C13.9353 18.1102 13.9605 18.0011 14.0881 17.8795C14.3278 17.6511 14.8383 17.4818 15.4249 17.8332L15.5534 17.6187C14.8684 17.2084 14.235 17.3942 13.9156 17.6985C13.7637 17.8433 13.6555 18.045 13.7105 18.2318C13.7712 18.438 13.9922 18.5234 14.2749 18.5098L14.2629 18.26ZM15.4249 17.8331C15.7558 18.0317 16.0509 18.1217 16.3193 18.1382C16.5878 18.1546 16.8211 18.0969 17.0274 18.0124C17.2308 17.9291 17.4133 17.8169 17.5712 17.7265C17.7351 17.6327 17.8693 17.5642 17.9964 17.5424L17.9541 17.296C17.7779 17.3263 17.6082 17.4173 17.447 17.5095C17.28 17.6052 17.1165 17.7057 16.9326 17.7811C16.7516 17.8552 16.5563 17.9022 16.3346 17.8886C16.1128 17.875 15.8561 17.8003 15.5535 17.6187L15.4249 17.8331ZM17.9957 17.5425C18.221 17.5051 18.3671 17.2877 18.4416 17.049C18.5192 16.8 18.5367 16.4807 18.4731 16.1522C18.345 15.4905 17.8834 14.7752 16.8903 14.5071L16.8252 14.7484C17.7131 14.9882 18.115 15.6179 18.2277 16.1997C18.2845 16.4929 18.2667 16.7699 18.2029 16.9745C18.1359 17.1893 18.0341 17.2827 17.9547 17.2959L17.9957 17.5425ZM16.8903 14.5071C16.4018 14.3753 16.0404 14.3962 15.754 14.4903C15.471 14.5833 15.2717 14.7453 15.1129 14.8665C14.9453 14.9944 14.8395 15.0612 14.7153 15.0534C14.5884 15.0455 14.404 14.9555 14.1023 14.6397L13.9216 14.8125C14.23 15.1352 14.4719 15.2887 14.6997 15.303C14.9302 15.3173 15.1078 15.1849 15.2645 15.0652C15.43 14.939 15.5961 14.8053 15.832 14.7278C16.0644 14.6515 16.3753 14.6271 16.8252 14.7484L16.8903 14.5071ZM14.102 14.6394C13.9538 14.4856 13.8672 14.3661 13.8227 14.2738C13.7789 14.183 13.7806 14.1289 13.7915 14.0953C13.8031 14.0595 13.8337 14.0205 13.8991 13.9774C13.9646 13.9343 14.0525 13.8953 14.159 13.8546C14.3619 13.777 14.6366 13.6935 14.8498 13.5633C15.0721 13.4276 15.2559 13.225 15.2559 12.9004H15.0059C15.0059 13.1077 14.8975 13.2413 14.7195 13.3499C14.5324 13.4642 14.2989 13.5334 14.0697 13.6211C13.9602 13.663 13.8511 13.7098 13.7617 13.7686C13.6721 13.8275 13.5898 13.9067 13.5537 14.0182C13.5168 14.1319 13.5358 14.2544 13.5975 14.3823C13.6584 14.5088 13.7654 14.6503 13.9219 14.8128L14.102 14.6394ZM15.2559 12.9004C15.2559 12.5994 15.1244 12.2802 14.9296 11.9604C14.7336 11.6385 14.4645 11.3019 14.1709 10.9637C13.577 10.2794 12.8905 9.5951 12.4364 8.96586L12.2336 9.11218C12.6958 9.75244 13.4072 10.4653 13.9822 11.1276C14.273 11.4627 14.5311 11.7867 14.7161 12.0904C14.9024 12.3963 15.0059 12.6678 15.0059 12.9004H15.2559ZM12.4364 8.96598C12.2257 8.67323 12.2084 8.44157 12.2739 8.27035C12.3418 8.09275 12.5112 7.94648 12.739 7.85618C12.9654 7.76641 13.2332 7.73918 13.4704 7.78608C13.7074 7.83292 13.9014 7.95036 14.0053 8.13823L14.2241 8.01721C14.0747 7.74718 13.8057 7.59751 13.5189 7.54083C13.2325 7.48422 12.916 7.51707 12.6469 7.62378C12.379 7.72996 12.1415 7.91657 12.0404 8.18105C11.9368 8.4519 11.9884 8.77153 12.2336 9.11206L12.4364 8.96598ZM14.0056 8.13872C14.2889 8.64537 14.808 8.84714 15.346 8.88034C15.8836 8.91352 16.4615 8.7813 16.907 8.59681L16.8114 8.36583C16.3921 8.53944 15.8525 8.66112 15.3614 8.63082C14.8708 8.60055 14.4501 8.42146 14.2238 8.01672L14.0056 8.13872ZM16.9064 8.59707C17.0394 8.54286 17.1326 8.45869 17.1853 8.34661C17.2361 8.23855 17.2427 8.11808 17.2314 8.00095C17.2201 7.88352 17.1893 7.75784 17.1545 7.63321C17.1181 7.50254 17.0803 7.38271 17.0448 7.24955C16.9751 6.98785 16.9358 6.74481 16.9939 6.53575C17.0488 6.33822 17.198 6.14788 17.5637 6.00602L17.4733 5.77294C17.052 5.93635 16.8337 6.17841 16.753 6.46882C16.6755 6.7477 16.7325 7.04815 16.8032 7.31387C16.838 7.44443 16.8814 7.58431 16.9137 7.70037C16.9478 7.82248 16.9734 7.93058 16.9826 8.02502C16.9917 8.11975 16.983 8.18924 16.959 8.24027C16.9369 8.28729 16.896 8.33135 16.812 8.36556L16.9064 8.59707ZM17.5636 6.00609C17.9475 5.8578 18.2238 5.81634 18.4287 5.8321C18.6299 5.84759 18.7696 5.9188 18.8824 6.0123C19.0004 6.11019 19.087 6.22958 19.1887 6.35544C19.2847 6.47422 19.3981 6.6036 19.559 6.66754L19.6513 6.43522C19.5574 6.39789 19.4797 6.31777 19.3832 6.19829C19.2923 6.08589 19.1848 5.93826 19.042 5.81986C18.8939 5.69707 18.7061 5.60271 18.4478 5.58284C18.1932 5.56324 17.8781 5.61662 17.4735 5.77287L17.5636 6.00609ZM19.5588 6.66745C19.7529 6.74505 19.9274 6.65035 20.0723 6.53653C20.1473 6.47756 20.225 6.405 20.305 6.3287C20.3863 6.25118 20.4708 6.16893 20.5644 6.08474C20.9347 5.75131 21.4268 5.40541 22.1955 5.40541V5.15541C21.3385 5.15541 20.7888 5.54626 20.3971 5.89895C20.3001 5.98629 20.2115 6.07241 20.1325 6.14779C20.0522 6.22438 19.9823 6.28925 19.9178 6.33994C19.7835 6.44544 19.7108 6.45898 19.6516 6.43531L19.5588 6.66745ZM22.1955 5.40541C22.5902 5.40541 22.9684 5.53617 23.3419 5.73835C23.7165 5.9411 24.0781 6.21086 24.4423 6.48277L24.5918 6.28244C24.2306 6.01279 23.8543 5.73145 23.4609 5.5185C23.0665 5.30497 22.6465 5.15541 22.1955 5.15541V5.40541ZM24.6095 6.46673C24.8212 6.23405 25.034 6.02942 25.1821 5.84358C25.3355 5.65125 25.4453 5.45042 25.4453 5.20263H25.1953C25.1953 5.36871 25.1244 5.51497 24.9867 5.68771C24.8438 5.86695 24.6549 6.04537 24.4246 6.29848L24.6095 6.46673ZM25.4453 5.20263C25.4453 5.11213 25.4866 5.02606 25.5706 4.92712C25.6572 4.82528 25.7711 4.72928 25.9014 4.60912C26.1519 4.37802 26.4379 4.07855 26.4379 3.60291H26.1879C26.1879 3.96382 25.9777 4.19857 25.7318 4.42537C25.6139 4.53415 25.4797 4.64803 25.3801 4.76524C25.2781 4.88534 25.1953 5.02748 25.1953 5.20263H25.4453ZM26.4379 3.602C26.4348 3.17729 26.2706 2.6497 26.1515 2.21934L25.9105 2.28603C26.0352 2.73625 26.1852 3.22132 26.1879 3.60382L26.4379 3.602ZM23.2226 27.7728C23.1001 27.7045 22.9353 27.664 22.7505 27.6388C22.5634 27.6132 22.3442 27.6018 22.1058 27.5983C21.6308 27.5912 21.0606 27.615 20.4972 27.6243C19.9295 27.6338 19.3643 27.6287 18.8829 27.5659C18.3958 27.5023 18.0216 27.3824 17.8115 27.1836L17.6397 27.3652C17.9112 27.6221 18.3554 27.7491 18.8506 27.8138C19.3514 27.8792 19.9323 27.8838 20.5013 27.8743C21.0747 27.8648 21.6319 27.8412 22.1021 27.8482C22.3362 27.8518 22.544 27.8629 22.7167 27.8865C22.8918 27.9104 23.0195 27.9457 23.1008 27.9911L23.2226 27.7728ZM17.8114 27.1835C17.5374 26.9246 17.1943 26.8496 16.8607 26.8787C16.5292 26.9076 16.2002 27.039 15.9345 27.2024C15.6721 27.3637 15.4531 27.5677 15.358 27.7563C15.3109 27.8497 15.2818 27.9651 15.3306 28.0723C15.3811 28.1832 15.4929 28.2382 15.6183 28.2592L15.6596 28.0126C15.5721 27.998 15.5591 27.9708 15.5581 27.9687C15.5555 27.9628 15.5482 27.9344 15.5812 27.8689C15.6463 27.7398 15.8207 27.5659 16.0655 27.4153C16.3069 27.2669 16.5988 27.1525 16.8824 27.1278C17.1638 27.1032 17.4299 27.167 17.6397 27.3652L17.8114 27.1835ZM15.6183 28.2592C15.9122 28.3083 16.247 28.4103 16.6198 28.5392C16.8057 28.6035 16.9995 28.674 17.2013 28.7473C17.4029 28.8205 17.6121 28.8966 17.8275 28.9714C18.6881 29.2705 19.6561 29.5548 20.6666 29.5802L20.6729 29.3303C19.7025 29.3059 18.7645 29.0324 17.9096 28.7353C17.6961 28.6611 17.4884 28.5857 17.2867 28.5123C17.0853 28.4392 16.8896 28.368 16.7015 28.3029C16.3263 28.1732 15.9751 28.0654 15.6596 28.0126L15.6183 28.2592ZM20.6664 29.5802C21.6767 29.6071 22.8602 29.3753 23.7842 29.0738C24.2463 28.9231 24.6493 28.753 24.9362 28.5856C25.0791 28.5022 25.1989 28.4163 25.2829 28.3297C25.363 28.2472 25.4326 28.1413 25.4212 28.0213L25.1723 28.045C25.173 28.0523 25.1692 28.0879 25.1035 28.1556C25.0419 28.2191 24.9439 28.2917 24.8102 28.3697C24.5442 28.5249 24.1593 28.6885 23.7066 28.8362C22.8009 29.1316 21.6467 29.3562 20.6731 29.3303L20.6664 29.5802ZM25.4211 28.0205C25.4116 27.9262 25.3702 27.8466 25.2925 27.7953C25.222 27.7488 25.1367 27.7359 25.0579 27.7347C24.9022 27.7322 24.6962 27.7762 24.4911 27.8161C24.2781 27.8577 24.0512 27.8986 23.8291 27.9024C23.6076 27.9062 23.4002 27.8728 23.223 27.773L23.1004 27.9909C23.33 28.1201 23.5864 28.1566 23.8334 28.1523C24.0799 28.1481 24.3263 28.103 24.5389 28.0615C24.7595 28.0186 24.9315 27.9827 25.0539 27.9847C25.1141 27.9856 25.1428 27.996 25.1548 28.004C25.1596 28.0071 25.1691 28.0131 25.1724 28.0457L25.4211 28.0205Z" fill="#868686"/>
</g>
<defs>
<filter id="filter0_d_6252_1223" x="0.360352" y="0.117188" width="30.0776" height="35.4652" filterUnits="userSpaceOnUse" color-interpolation-filters="sRGB">
<feFlood flood-opacity="0" result="BackgroundImageFix"/>
<feColorMatrix in="SourceAlpha" type="matrix" values="0 0 0 0 0 0 0 0 0 0 0 0 0 0 0 0 0 0 127 0" result="hardAlpha"/>
<feOffset dy="2"/>
<feGaussianBlur stdDeviation="2"/>
<feColorMatrix type="matrix" values="0 0 0 0 0 0 0 0 0 0 0 0 0 0 0 0 0 0 0.01 0"/>
<feBlend mode="normal" in2="BackgroundImageFix" result="effect1_dropShadow_6252_1223"/>
<feBlend mode="normal" in="SourceGraphic" in2="effect1_dropShadow_6252_1223" result="shape"/>
</filter>
</defs>
</svg>
