<svg width="24" height="24" viewBox="0 0 24 24" fill="none" xmlns="http://www.w3.org/2000/svg">
<g filter="url(#filter0_d_6252_1138)">
<path fill-rule="evenodd" clip-rule="evenodd" d="M17.2188 12.3066C17.9662 11.7019 18.6079 10.9799 19.0748 10.3913C17.8781 11.0371 17.5139 10.4192 17.6901 9.57534L15.9691 9.80576L16.1468 2.86386C14.7591 2.92403 10.8722 2.81836 10.3759 2.81836C9.78853 2.81836 9.64169 5.17244 9.27458 5.38965C8.90747 5.6142 12.1454 7.74814 11.7768 8.70357C11.4097 9.66046 7.58148 9.14239 7.21585 9.21724C7.04404 9.25246 5.75036 10.996 4.40234 12.9259C5.92216 14.2747 7.43905 15.6807 8.17326 16.1445C9.6226 17.0588 11.9853 16.0681 12.9765 16.9825C13.0058 17.0089 13.0484 17.0383 13.0851 17.0661C14.116 16.0872 15.1821 15.1303 15.5286 15.0305C16.2628 14.8045 15.674 13.557 17.2188 12.3066Z" fill="white"/>
<path fill-rule="evenodd" clip-rule="evenodd" d="M17.2188 12.3066C17.9662 11.7019 18.6079 10.9799 19.0748 10.3913C17.8781 11.0371 17.5139 10.4192 17.6901 9.57534L15.9691 9.80576L16.1468 2.86386C14.7591 2.92403 10.8722 2.81836 10.3759 2.81836C9.78853 2.81836 9.64169 5.17244 9.27458 5.38965C8.90747 5.6142 12.1454 7.74814 11.7768 8.70357C11.4097 9.66046 7.58148 9.14239 7.21585 9.21724C7.04404 9.25246 5.75036 10.996 4.40234 12.9259C5.92216 14.2747 7.43905 15.6807 8.17326 16.1445C9.6226 17.0588 11.9853 16.0681 12.9765 16.9825C13.0058 17.0089 13.0484 17.0383 13.0851 17.0661C14.116 16.0872 15.1821 15.1303 15.5286 15.0305C16.2628 14.8045 15.674 13.557 17.2188 12.3066Z" stroke="#868686" stroke-width="0.25"/>
</g>
<defs>
<filter id="filter0_d_6252_1138" x="0.236328" y="0.693359" width="22.9365" height="22.5366" filterUnits="userSpaceOnUse" color-interpolation-filters="sRGB">
<feFlood flood-opacity="0" result="BackgroundImageFix"/>
<feColorMatrix in="SourceAlpha" type="matrix" values="0 0 0 0 0 0 0 0 0 0 0 0 0 0 0 0 0 0 127 0" result="hardAlpha"/>
<feOffset dy="2"/>
<feGaussianBlur stdDeviation="2"/>
<feColorMatrix type="matrix" values="0 0 0 0 0 0 0 0 0 0 0 0 0 0 0 0 0 0 0.01 0"/>
<feBlend mode="normal" in2="BackgroundImageFix" result="effect1_dropShadow_6252_1138"/>
<feBlend mode="normal" in="SourceGraphic" in2="effect1_dropShadow_6252_1138" result="shape"/>
</filter>
</defs>
</svg>
