<svg width="19" height="15" viewBox="0 0 19 15" fill="none" xmlns="http://www.w3.org/2000/svg">
<g filter="url(#filter0_d_6252_1051)">
<path fill-rule="evenodd" clip-rule="evenodd" d="M9.52535 8.34892C10.2889 7.8191 11.8132 6.44393 12.3477 6.67435C12.8807 6.90477 13.5665 6.44393 13.5665 6.14013C13.5665 5.83633 12.4989 4.84421 13.3374 4.54188C13.913 4.33348 14.054 3.66277 14.0907 3.25917C13.7882 3.11534 13.4725 3.0082 13.2228 3.03022C12.518 3.09333 8.21111 3.41474 8.21111 3.41474C8.21111 3.41474 6.92183 4.25276 6.28159 4.18818C5.74121 4.13094 6.27866 3.26944 4.53857 3.71267C5.41082 4.79578 5.52389 5.3388 7.29334 5.83633C9.27425 6.3955 7.14062 7.4111 8.76617 8.4267C8.91889 8.52357 9.03636 8.62043 9.15971 8.71583C9.30802 8.54852 9.44018 8.41496 9.52535 8.34892Z" fill="white"/>
<path fill-rule="evenodd" clip-rule="evenodd" d="M9.52535 8.34892C10.2889 7.8191 11.8132 6.44393 12.3477 6.67435C12.8807 6.90477 13.5665 6.44393 13.5665 6.14013C13.5665 5.83633 12.4989 4.84421 13.3374 4.54188C13.913 4.33348 14.054 3.66277 14.0907 3.25917C13.7882 3.11534 13.4725 3.0082 13.2228 3.03022C12.518 3.09333 8.21111 3.41474 8.21111 3.41474C8.21111 3.41474 6.92183 4.25276 6.28159 4.18818C5.74121 4.13094 6.27866 3.26944 4.53857 3.71267C5.41082 4.79578 5.52389 5.3388 7.29334 5.83633C9.27425 6.3955 7.14062 7.4111 8.76617 8.4267C8.91889 8.52357 9.03636 8.62043 9.15971 8.71583C9.30802 8.54852 9.44018 8.41496 9.52535 8.34892Z" stroke="#868686" stroke-width="0.25"/>
</g>
<defs>
<filter id="filter0_d_6252_1051" x="0.319336" y="0.902344" width="17.9038" height="13.9839" filterUnits="userSpaceOnUse" color-interpolation-filters="sRGB">
<feFlood flood-opacity="0" result="BackgroundImageFix"/>
<feColorMatrix in="SourceAlpha" type="matrix" values="0 0 0 0 0 0 0 0 0 0 0 0 0 0 0 0 0 0 127 0" result="hardAlpha"/>
<feOffset dy="2"/>
<feGaussianBlur stdDeviation="2"/>
<feColorMatrix type="matrix" values="0 0 0 0 0 0 0 0 0 0 0 0 0 0 0 0 0 0 0.01 0"/>
<feBlend mode="normal" in2="BackgroundImageFix" result="effect1_dropShadow_6252_1051"/>
<feBlend mode="normal" in="SourceGraphic" in2="effect1_dropShadow_6252_1051" result="shape"/>
</filter>
</defs>
</svg>
