<svg width="167" height="64" viewBox="0 0 167 64" fill="none" xmlns="http://www.w3.org/2000/svg">
<g filter="url(#filter0_d_6252_1358)">
<path fill-rule="evenodd" clip-rule="evenodd" d="M15.7549 25.6029C15.5523 26.1077 16.6697 28.1404 17.379 27.5328C18.0926 26.9208 16.3966 23.9943 15.7549 25.6029ZM48.9914 31.7979C48.9914 30.8821 46.3688 31.3268 47.1617 32.6125C47.9752 33.9289 48.9914 32.7108 48.9914 31.7979ZM10.7751 16.8662C10.5695 17.8818 11.687 20.8244 12.9087 19.6092C14.1305 18.3896 10.9719 15.8682 10.7751 16.8662ZM87.5111 34.237C89.0353 34.3368 88.8326 36.572 88.5272 37.8914C88.2203 39.2123 87.605 42.3486 88.934 41.8511C90.558 41.242 91.5757 39.2123 90.6608 38.5019C89.7445 37.7916 89.8488 33.3197 90.2541 32.2058C90.6608 31.0845 93.4068 31.8991 92.4905 33.6265C91.5757 35.3553 94.2174 35.1455 94.2174 37.0813C94.2174 39.0083 95.7416 37.9956 97.3686 37.4878C98.9971 36.98 98.6931 36.0613 97.5742 34.8446C96.4552 33.6265 98.3877 31.8991 96.8649 30.882C95.3392 29.8693 94.3216 28.3444 95.743 28.0392C97.1689 27.7339 101.435 25.2947 100.928 24.2806C100.42 23.262 94.4229 24.4831 93.9134 26.3103C93.4082 28.1375 89.1395 26.1048 89.6476 22.9597C90.1572 19.8102 98.5903 19.3024 101.029 20.4192C103.47 21.539 106.112 18.5906 107.025 16.8646C107.941 15.1343 105.097 17.1699 103.367 18.2868C101.64 19.4066 97.0676 18.184 94.7284 17.3724C92.3906 16.5623 92.4934 18.7946 90.561 19.0984C88.63 19.4066 89.0368 23.6715 88.1219 24.1793C87.2056 24.69 87.2056 27.8366 85.3789 30.7837C83.5463 33.7263 85.9854 34.1343 87.5111 34.237ZM41.0644 36.8758C40.9617 35.4552 41.5711 34.033 41.5711 33.3198C41.5711 32.6124 42.0791 32.3071 42.9925 32.5082C43.9088 32.7107 43.8104 30.5768 43.0953 30.3742C42.3846 30.1746 41.9793 27.6327 40.248 27.6327C38.5226 27.6327 38.8266 29.0533 39.8457 29.1576C40.8633 29.2574 41.4683 30.0719 41.1658 30.7822C40.8603 31.4926 40.4565 30.0719 39.0321 30.1746C37.6063 30.273 38.5226 28.4428 36.8971 28.343C35.2715 28.2417 35.5784 25.2947 33.8457 25.2947C32.1173 25.2947 32.0189 23.8741 33.1364 22.8599C34.2524 21.8414 31.4081 20.9271 31.4081 19.7104C31.4081 18.4879 29.5799 19.2026 29.5799 18.1841C29.5799 17.1714 28.7679 17.6792 27.8501 16.4581C26.9382 15.24 26.53 16.3569 25.7165 15.4455C24.9059 14.5297 23.787 14.0219 23.0748 14.3257C22.3641 14.6339 20.7356 13.0048 20.1262 11.3801C19.6431 10.0842 14.9441 7.92531 14.3318 6.19937C13.7238 4.47344 12.0968 3.76017 9.35381 3.8629C6.61079 3.96123 5.52709 1.17713 4.87805 2.54203C4.06748 4.27237 7.82811 8.12931 9.55645 9.14638C11.2833 10.159 12.1967 13.8164 14.2304 14.0219C16.2672 14.2244 16.4654 20.6233 17.9911 20.9271C19.5168 21.2353 22.7737 26.212 23.2804 28.8508C23.7884 31.494 27.1394 32.8149 28.2612 34.7448C29.3773 36.6733 33.8486 39.318 34.4595 40.1281C35.0674 40.9397 35.6797 42.7684 36.1907 41.8526C36.6988 40.9397 38.831 41.8526 39.8486 41.9568C40.8618 42.061 41.1643 38.2994 41.0644 36.8758ZM118.715 20.6234C120.95 20.8288 119.931 19.505 119.931 18.0843C119.931 16.6637 117.902 17.8818 117.902 17.1715C117.902 16.4597 117.191 13.6169 115.564 15.8491C113.937 18.0843 116.087 23.607 117.391 23.3693C118.514 23.1638 116.477 20.4193 118.715 20.6234ZM110.38 33.3198C110.786 34.9474 113.733 35.8573 114.548 34.4396C115.359 33.0145 109.91 31.4368 110.38 33.3198ZM102.35 50.4911C99.6073 50.0889 97.7777 52.1172 95.0317 51.0987C92.2887 50.0889 88.183 51.1192 88.6294 52.013C89.0376 52.8275 91.4752 52.9288 94.2197 53.0301C96.9641 53.1284 99.4032 51.6035 101.233 51.5052C103.061 51.4039 105.096 50.8976 102.35 50.4911ZM124.1 31.9005C121.457 31.086 116.947 31.7816 117.392 33.1187C117.797 34.3383 119.931 33.8305 122.07 33.8305C124.204 33.8305 125.32 35.3553 126.441 35.3553C127.558 35.3553 126.746 32.7107 124.1 31.9005ZM70.5388 49.3727C70.4389 48.1531 66.4698 49.2714 64.5418 48.4598C62.6122 47.6438 66.6754 46.9364 67.997 46.119C69.3171 45.3059 67.1834 45.0036 63.9324 46.0221C60.6754 47.0362 56.9192 43.7869 56.8164 45.2061C56.7165 46.6297 50.9192 44.597 49.4992 43.5829C48.0763 42.5688 42.5873 41.2435 41.4669 43.1749C40.3509 45.1092 39.3847 43.3774 39.8443 45.2076C40.1483 46.4272 41.4669 45.7168 42.3832 45.7168C43.298 45.7168 42.8913 47.4457 44.2099 47.6453C45.533 47.8522 49.906 49.0704 50.3112 48.1546C50.7165 47.2432 54.7841 48.1546 56.8164 49.7807C58.8487 51.4039 63.5227 51.5067 65.3538 51.2029C67.182 50.8991 69.2157 52.421 69.9265 51.4054C70.6401 50.3927 71.9588 53.0315 73.994 51.5067C76.0263 49.9847 70.6416 50.5909 70.5388 49.3727ZM150.526 27.2234C149.003 27.3276 148.798 29.9693 147.478 29.9693C146.158 29.9693 144.327 32.7109 141.887 33.5269C139.447 34.3385 139.346 26.5189 138.227 24.9941C137.109 23.4692 131.014 22.2511 130.404 23.9755C129.794 25.7059 127.675 24.7901 127.453 26.2122C127.252 27.5331 127.962 27.1265 129.283 27.1265C130.601 27.1265 130.601 28.1392 131.213 29.4615C131.824 30.7839 135.484 29.8695 136.702 29.7683C137.921 29.667 138.124 31.3915 136.397 30.7839C134.67 30.1763 134.67 31.594 133.45 31.2917C132.231 30.9849 130.601 31.0862 131.415 31.7995C132.231 32.5098 133.547 33.2201 133.547 34.8463C133.547 36.4709 135.889 36.1671 135.889 34.8463C135.889 33.5283 137.108 35.2513 139.445 35.8589C141.785 36.4709 140.159 37.3838 142.495 37.488C144.832 37.5907 150.117 39.3181 152.149 40.8372C154.187 42.362 152.758 43.3776 154.081 44.8027C155.401 46.2219 155.807 47.8495 153.977 47.8495C152.149 47.8495 150.219 49.6752 150.726 50.5896C151.234 51.5039 157.234 50.183 158.652 50.183C159.586 50.183 160.523 51.8385 162.313 53.0376V31.3562C157.917 29.8754 151.78 27.1412 150.526 27.2234ZM106.527 52.9744C106.214 53.1858 105.85 53.3472 105.411 53.447C105.274 53.8257 105.139 54.2469 104.904 54.4289C104.619 54.6519 104.129 54.2043 103.781 53.8095C101.816 54.6255 100.782 56.9737 102.147 57.7017C103.458 58.4003 105.368 56.5437 106.461 55.2361C106.639 55.0218 106.796 54.8251 106.923 54.6549C106.998 54.5551 107.12 54.4509 107.267 54.3452C107.367 54.2674 107.481 54.1926 107.609 54.1192C107.292 53.676 106.885 53.2401 106.527 52.9744ZM78.266 26.8226C80.0942 25.7043 80.4995 23.5674 80.2954 21.5392C80.0942 19.505 84.7668 19.4067 85.4804 18.5907C86.1926 17.7791 84.4613 16.4582 83.1412 15.8477C81.8196 15.2401 82.9356 13.9192 82.0223 13.1076C81.1074 12.2975 79.5847 10.1591 80.9063 10.0623C82.2249 9.95808 79.9885 8.12941 81.1074 7.52181C81.2587 7.43816 81.4334 7.35157 81.617 7.26204C80.9489 6.93035 80.3659 6.70727 79.99 6.70727C78.3674 6.70727 74.5039 6.30221 74.7036 8.93954C74.9107 11.5828 72.4702 10.5642 72.6713 11.9893C72.8755 13.4129 71.4511 13.4129 71.6552 15.2401C71.8622 17.0702 70.6434 16.2557 68.6067 17.2742C66.5744 18.2869 67.3879 16.6622 65.3556 16.6622C63.3233 16.6622 63.1192 17.6793 61.899 18.0844C60.6772 18.488 58.2411 17.8818 57.4276 18.488C56.6156 19.0985 55.3953 17.0702 54.5818 17.0702C54.1677 17.0702 53.808 15.9578 53.5524 14.8688C53.4071 14.8424 53.2749 14.8247 53.1589 14.8336C51.8403 14.9378 49.6508 18.4249 50.9225 19.6092C52.4482 21.0314 52.0429 23.2636 52.7507 24.3834C53.4643 25.5018 55.7052 25.7014 55.7052 27.8382C55.7052 29.9707 57.6317 33.3213 58.9548 32.4085C60.2749 31.4956 61.291 32.8165 61.6978 33.7264C62.1046 34.6422 65.2543 33.0161 66.2734 33.2186C67.2881 33.4241 70.4364 34.0346 70.6449 35.2513C70.8461 36.4709 73.6919 35.1471 75.6229 34.4397C77.5524 33.7264 76.4334 27.9351 78.266 26.8226ZM85.8853 55.2638C86.4947 56.1782 88.2216 56.1782 88.9353 56.7887C89.6474 57.3963 92.1878 58.7172 92.1878 56.9927C92.1878 55.2638 85.2084 54.2468 85.8853 55.2638ZM80.8018 50.2856C80.3994 51.2015 78.6682 51.404 77.652 50.6907C76.6359 49.9848 75.376 51.6549 76.0265 52.5194C76.3319 52.9274 78.4655 54.5521 81.0059 53.3339C83.5492 52.1173 85.2746 53.2312 85.8855 51.9118C86.4949 50.5909 81.21 49.3728 80.8018 50.2856Z" fill="white"/>
<path d="M15.7549 25.6029L15.8709 25.6494L15.871 25.6492L15.7549 25.6029ZM17.379 27.5328L17.4603 27.6277L17.4604 27.6277L17.379 27.5328ZM47.1617 32.6125L47.0553 32.6781L47.0554 32.6782L47.1617 32.6125ZM10.7751 16.8662L10.8976 16.891L10.8978 16.8904L10.7751 16.8662ZM12.9087 19.6092L12.9969 19.6978L12.9971 19.6976L12.9087 19.6092ZM87.5111 34.237L87.5027 34.3617L87.5029 34.3617L87.5111 34.237ZM88.5272 37.8914L88.649 37.9197L88.649 37.9196L88.5272 37.8914ZM88.934 41.8511L88.9778 41.9681L88.9779 41.9681L88.934 41.8511ZM90.6608 38.5019L90.7375 38.4032L90.7374 38.4031L90.6608 38.5019ZM90.2541 32.2058L90.3715 32.2485L90.3716 32.2484L90.2541 32.2058ZM92.4905 33.6265L92.3801 33.5679L92.38 33.568L92.4905 33.6265ZM97.3686 37.4878L97.3314 37.3685L97.3314 37.3685L97.3686 37.4878ZM97.5742 34.8446L97.4821 34.9292L97.4822 34.9292L97.5742 34.8446ZM96.8649 30.882L96.9343 30.778L96.9341 30.7778L96.8649 30.882ZM95.743 28.0392L95.7169 27.917L95.7168 27.917L95.743 28.0392ZM100.928 24.2806L100.816 24.3364L100.816 24.3364L100.928 24.2806ZM93.9134 26.3103L93.793 26.2767L93.7929 26.277L93.9134 26.3103ZM89.6476 22.9597L89.5242 22.9397L89.5242 22.9398L89.6476 22.9597ZM101.029 20.4192L101.082 20.3056L101.081 20.3056L101.029 20.4192ZM107.025 16.8646L106.914 16.8061L106.914 16.8062L107.025 16.8646ZM103.367 18.2868L103.299 18.1817L103.299 18.1819L103.367 18.2868ZM94.7284 17.3724L94.7693 17.2543L94.7693 17.2543L94.7284 17.3724ZM90.561 19.0984L90.5416 18.9749L90.5413 18.9749L90.561 19.0984ZM88.1219 24.1793L88.0613 24.07L88.0611 24.0701L88.1219 24.1793ZM85.3789 30.7837L85.485 30.8497L85.4851 30.8495L85.3789 30.7837ZM41.0644 36.8758L41.1891 36.8671L41.1891 36.8668L41.0644 36.8758ZM42.9925 32.5082L43.0195 32.3861L43.0194 32.3861L42.9925 32.5082ZM43.0953 30.3742L43.1293 30.254L43.1291 30.2539L43.0953 30.3742ZM39.8457 29.1576L39.8329 29.2819L39.8335 29.282L39.8457 29.1576ZM41.1658 30.7822L41.2806 30.8316L41.2808 30.8312L41.1658 30.7822ZM39.0321 30.1746L39.0407 30.2993L39.0411 30.2993L39.0321 30.1746ZM36.8971 28.343L36.8893 28.4678L36.8894 28.4678L36.8971 28.343ZM33.1364 22.8599L33.2204 22.9525L33.2207 22.9523L33.1364 22.8599ZM27.8501 16.4581L27.75 16.533L27.7502 16.5332L27.8501 16.4581ZM25.7165 15.4455L25.6229 15.5283L25.6232 15.5287L25.7165 15.4455ZM23.0748 14.3257L23.0257 14.2107L23.025 14.211L23.0748 14.3257ZM20.1262 11.3801L20.009 11.4238L20.0091 11.424L20.1262 11.3801ZM14.3318 6.19937L14.2139 6.2409L14.214 6.24117L14.3318 6.19937ZM9.35381 3.8629L9.35828 3.98782L9.35848 3.98781L9.35381 3.8629ZM4.87805 2.54203L4.76516 2.48835L4.76485 2.48901L4.87805 2.54203ZM9.55645 9.14638L9.49305 9.25411L9.49322 9.25421L9.55645 9.14638ZM14.2304 14.0219L14.2179 14.1462L14.2181 14.1462L14.2304 14.0219ZM17.9911 20.9271L18.0158 20.8045L18.0155 20.8045L17.9911 20.9271ZM23.2804 28.8508L23.1576 28.8744L23.1576 28.8744L23.2804 28.8508ZM28.2612 34.7448L28.3694 34.6822L28.3693 34.682L28.2612 34.7448ZM34.4595 40.1281L34.5595 40.0532L34.5593 40.0528L34.4595 40.1281ZM36.1907 41.8526L36.2999 41.9135L36.3 41.9134L36.1907 41.8526ZM39.8486 41.9568L39.8614 41.8324L39.8613 41.8324L39.8486 41.9568ZM118.715 20.6234L118.727 20.4989L118.727 20.4989L118.715 20.6234ZM115.564 15.8491L115.463 15.7755L115.463 15.7756L115.564 15.8491ZM117.391 23.3693L117.413 23.4923L117.413 23.4923L117.391 23.3693ZM110.38 33.3198L110.258 33.35L110.258 33.3501L110.38 33.3198ZM114.548 34.4396L114.657 34.5019L114.657 34.5014L114.548 34.4396ZM102.35 50.4911L102.369 50.3674L102.368 50.3674L102.35 50.4911ZM95.0317 51.0987L95.0752 50.9815L95.0749 50.9814L95.0317 51.0987ZM88.6294 52.013L88.5175 52.0689L88.5176 52.069L88.6294 52.013ZM94.2197 53.0301L94.215 53.155L94.2152 53.155L94.2197 53.0301ZM101.233 51.5052L101.24 51.63L101.24 51.63L101.233 51.5052ZM124.1 31.9005L124.063 32.02L124.063 32.02L124.1 31.9005ZM117.392 33.1187L117.511 33.0792L117.511 33.0792L117.392 33.1187ZM70.5388 49.3727L70.4142 49.3829L70.4142 49.3832L70.5388 49.3727ZM64.5418 48.4598L64.4931 48.575L64.4933 48.5751L64.5418 48.4598ZM67.997 46.119L67.9314 46.0125L67.9312 46.0127L67.997 46.119ZM63.9324 46.0221L63.9695 46.1415L63.9697 46.1414L63.9324 46.0221ZM56.8164 45.2061L56.6917 45.1971L56.6917 45.1974L56.8164 45.2061ZM49.4992 43.5829L49.5718 43.4812L49.5718 43.4811L49.4992 43.5829ZM41.4669 43.1749L41.3588 43.1122L41.3586 43.1124L41.4669 43.1749ZM39.8443 45.2076L39.9656 45.1773L39.9655 45.1771L39.8443 45.2076ZM44.2099 47.6453L44.2292 47.5218L44.2286 47.5217L44.2099 47.6453ZM50.3112 48.1546L50.197 48.1038L50.1969 48.104L50.3112 48.1546ZM56.8164 49.7807L56.7383 49.8783L56.7384 49.8784L56.8164 49.7807ZM65.3538 51.2029L65.3742 51.3262L65.3743 51.3262L65.3538 51.2029ZM69.9265 51.4054L69.8243 51.3334L69.8241 51.3337L69.9265 51.4054ZM73.994 51.5067L73.9191 51.4066L73.9191 51.4066L73.994 51.5067ZM150.526 27.2234L150.518 27.0987L150.518 27.0987L150.526 27.2234ZM141.887 33.5269L141.927 33.6455L141.927 33.6454L141.887 33.5269ZM138.227 24.9941L138.126 25.0679L138.126 25.068L138.227 24.9941ZM130.404 23.9755L130.287 23.9339L130.287 23.9339L130.404 23.9755ZM127.453 26.2122L127.329 26.1929L127.329 26.1934L127.453 26.2122ZM131.213 29.4615L131.327 29.4091L131.327 29.409L131.213 29.4615ZM133.45 31.2917L133.419 31.4129L133.42 31.413L133.45 31.2917ZM131.415 31.7995L131.332 31.8935L131.333 31.8938L131.415 31.7995ZM139.445 35.8589L139.477 35.738L139.477 35.738L139.445 35.8589ZM142.495 37.488L142.49 37.6129L142.49 37.6129L142.495 37.488ZM152.149 40.8372L152.224 40.7371L152.224 40.737L152.149 40.8372ZM154.081 44.8027L153.99 44.8877L153.99 44.8878L154.081 44.8027ZM150.726 50.5896L150.617 50.6501L150.617 50.6503L150.726 50.5896ZM162.313 53.0376L162.244 53.1414L162.438 53.2718V53.0376H162.313ZM162.313 31.3562H162.438V31.2664L162.353 31.2378L162.313 31.3562ZM106.527 52.9744L106.601 52.874L106.53 52.8213L106.457 52.8709L106.527 52.9744ZM105.411 53.447L105.383 53.3251L105.317 53.3403L105.293 53.4046L105.411 53.447ZM104.904 54.4289L104.828 54.33L104.827 54.3304L104.904 54.4289ZM103.781 53.8095L103.875 53.7269L103.816 53.6598L103.733 53.6941L103.781 53.8095ZM102.147 57.7017L102.088 57.812L102.088 57.812L102.147 57.7017ZM106.461 55.2361L106.557 55.3162L106.557 55.3159L106.461 55.2361ZM106.923 54.6549L107.023 54.7299L106.923 54.6549ZM107.267 54.3452L107.34 54.4467L107.344 54.4438L107.267 54.3452ZM107.609 54.1192L107.671 54.2276L107.791 54.1588L107.711 54.0465L107.609 54.1192ZM78.266 26.8226L78.3309 26.9295L78.3313 26.9293L78.266 26.8226ZM80.2954 21.5392L80.171 21.5515L80.171 21.5517L80.2954 21.5392ZM85.4804 18.5907L85.3865 18.5082L85.3863 18.5084L85.4804 18.5907ZM83.1412 15.8477L83.1937 15.7342L83.1934 15.7341L83.1412 15.8477ZM82.0223 13.1076L82.1053 13.0142L82.1051 13.014L82.0223 13.1076ZM80.9063 10.0623L80.9154 10.187L80.9161 10.1869L80.9063 10.0623ZM81.1074 7.52181L81.1671 7.63166L81.1679 7.63119L81.1074 7.52181ZM81.617 7.26204L81.6718 7.37439L81.9001 7.26303L81.6726 7.15008L81.617 7.26204ZM74.7036 8.93954L74.579 8.94898L74.579 8.94931L74.7036 8.93954ZM72.6713 11.9893L72.5476 12.0068L72.5476 12.007L72.6713 11.9893ZM71.6552 15.2401L71.531 15.254L71.531 15.2541L71.6552 15.2401ZM68.6067 17.2742L68.6625 17.3861L68.6627 17.386L68.6067 17.2742ZM61.899 18.0844L61.9382 18.2031L61.9384 18.203L61.899 18.0844ZM57.4276 18.488L57.3529 18.3877L57.3525 18.3881L57.4276 18.488ZM53.5524 14.8688L53.6741 14.8402L53.6554 14.7604L53.5748 14.7458L53.5524 14.8688ZM53.1589 14.8336L53.1494 14.7089L53.1491 14.7089L53.1589 14.8336ZM50.9225 19.6092L51.0077 19.5178L51.0077 19.5178L50.9225 19.6092ZM52.7507 24.3834L52.645 24.4502L52.6453 24.4507L52.7507 24.3834ZM58.9548 32.4085L59.0258 32.5113L59.0259 32.5113L58.9548 32.4085ZM61.6978 33.7264L61.812 33.6757L61.8119 33.6754L61.6978 33.7264ZM66.2734 33.2186L66.2982 33.0961L66.2978 33.096L66.2734 33.2186ZM70.6449 35.2513L70.7682 35.2309L70.7681 35.2301L70.6449 35.2513ZM75.6229 34.4397L75.6659 34.557L75.6662 34.5569L75.6229 34.4397ZM85.8853 55.2638L85.7813 55.3331L85.7813 55.3332L85.8853 55.2638ZM88.9353 56.7887L88.854 56.8837L88.8541 56.8838L88.9353 56.7887ZM80.8018 50.2856L80.6877 50.2346L80.6873 50.2354L80.8018 50.2856ZM77.652 50.6907L77.7238 50.5884L77.7233 50.5881L77.652 50.6907ZM76.0265 52.5194L76.1265 52.4445L76.1264 52.4442L76.0265 52.5194ZM81.0059 53.3339L80.952 53.2212L80.9519 53.2212L81.0059 53.3339ZM85.8855 51.9118L85.9989 51.9643L85.999 51.9641L85.8855 51.9118ZM15.6389 25.5563C15.6021 25.648 15.5998 25.7596 15.6133 25.8708C15.6273 25.9848 15.6597 26.1121 15.7053 26.2438C15.7966 26.5071 15.9447 26.7996 16.1222 27.0561C16.2983 27.3106 16.5111 27.5411 16.7363 27.6676C16.8501 27.7314 16.9729 27.772 17.0993 27.77C17.2281 27.7679 17.3508 27.7215 17.4603 27.6277L17.2977 27.4379C17.2298 27.496 17.1625 27.519 17.0952 27.52C17.0255 27.5212 16.9463 27.4987 16.8587 27.4496C16.6813 27.35 16.4944 27.1547 16.3278 26.9139C16.1626 26.6751 16.025 26.4028 15.9416 26.1619C15.8998 26.0415 15.8727 25.9319 15.8615 25.8405C15.85 25.7462 15.8571 25.6839 15.8709 25.6494L15.6389 25.5563ZM17.4604 27.6277C17.579 27.526 17.6403 27.382 17.664 27.227C17.6876 27.0724 17.6752 26.8985 17.639 26.7218C17.5666 26.3683 17.3941 25.9801 17.1784 25.6646C16.9668 25.3551 16.6943 25.0874 16.4092 25.0183C16.2593 24.9819 16.1062 25.001 15.9677 25.0957C15.8333 25.1875 15.7242 25.3425 15.6388 25.5565L15.871 25.6492C15.9461 25.4611 16.0303 25.3557 16.1087 25.3021C16.183 25.2513 16.2621 25.2398 16.3503 25.2612C16.5413 25.3075 16.7686 25.5081 16.972 25.8057C17.1713 26.0972 17.3291 26.4549 17.3941 26.7719C17.4265 26.9304 17.4346 27.073 17.4169 27.1893C17.3992 27.3053 17.3574 27.3866 17.2976 27.4379L17.4604 27.6277ZM49.1164 31.7979C49.1164 31.6505 49.0625 31.5264 48.9704 31.4306C48.8805 31.3372 48.7593 31.2754 48.6285 31.2379C48.3679 31.1631 48.0406 31.1758 47.7452 31.2594C47.4513 31.3425 47.1653 31.5027 47.0081 31.7462C46.8433 32.0015 46.8363 32.3228 47.0553 32.6781L47.2681 32.5468C47.0908 32.2592 47.1142 32.0428 47.2181 31.8818C47.3297 31.709 47.5506 31.5742 47.8132 31.4999C48.0744 31.4261 48.3532 31.419 48.5595 31.4782C48.6622 31.5076 48.7396 31.5514 48.7901 31.6039C48.8384 31.654 48.8664 31.7164 48.8664 31.7979H49.1164ZM47.0554 32.6782C47.2683 33.0227 47.5069 33.2217 47.7582 33.2896C48.0126 33.3584 48.254 33.286 48.4543 33.1429C48.8462 32.8629 49.1164 32.2904 49.1164 31.7979H48.8664C48.8664 32.2183 48.6285 32.7113 48.309 32.9395C48.1535 33.0505 47.9884 33.0928 47.8234 33.0483C47.6555 33.0029 47.4619 32.8604 47.2681 32.5467L47.0554 32.6782ZM10.6526 16.8414C10.5959 17.1215 10.6318 17.5167 10.7283 17.923C10.8256 18.3326 10.9882 18.7691 11.1982 19.1363C11.4058 19.4994 11.6704 19.8133 11.9805 19.9504C12.1388 20.0204 12.3094 20.0443 12.4859 20.0037C12.6611 19.9633 12.8321 19.8617 12.9969 19.6978L12.8206 19.5205C12.68 19.6604 12.5487 19.7327 12.4298 19.76C12.3122 19.7871 12.1966 19.7726 12.0816 19.7217C11.8449 19.6171 11.6139 19.3597 11.4152 19.0122C11.2188 18.6686 11.0642 18.255 10.9716 17.8652C10.8782 17.4721 10.8516 17.1186 10.8976 16.891L10.6526 16.8414ZM12.9971 19.6976C13.3453 19.35 13.3746 18.9097 13.2373 18.4871C13.1016 18.0692 12.8008 17.6544 12.462 17.3175C12.1234 16.9806 11.7339 16.7086 11.4075 16.5853C11.2464 16.5245 11.0834 16.4932 10.9448 16.5258C10.8728 16.5427 10.8064 16.5772 10.7535 16.6338C10.701 16.6901 10.6684 16.7614 10.6525 16.842L10.8978 16.8904C10.9065 16.8462 10.9216 16.8202 10.9363 16.8044C10.9508 16.7889 10.9712 16.7764 11.002 16.7692C11.069 16.7534 11.1755 16.7649 11.3191 16.8192C11.6021 16.9261 11.9628 17.1735 12.2857 17.4947C12.6085 17.8158 12.8805 18.1976 12.9996 18.5643C13.1171 18.9263 13.083 19.2586 12.8204 19.5207L12.9971 19.6976ZM87.5029 34.3617C87.8491 34.3844 88.0891 34.5259 88.2573 34.7415C88.4291 34.9616 88.5322 35.2673 88.5814 35.6239C88.68 36.3377 88.5569 37.2088 88.4054 37.8632L88.649 37.9196C88.8029 37.2546 88.9339 36.3484 88.8291 35.5897C88.7766 35.2101 88.6637 34.8559 88.4544 34.5877C88.2414 34.3148 87.9351 34.1395 87.5192 34.1123L87.5029 34.3617ZM88.4054 37.8631C88.2519 38.524 88.0187 39.6489 87.9922 40.5495C87.9791 40.995 88.0154 41.4097 88.1552 41.6847C88.227 41.8259 88.3313 41.9404 88.4789 41.9951C88.6256 42.0496 88.7938 42.037 88.9778 41.9681L88.8901 41.734C88.7419 41.7895 88.6386 41.7877 88.5658 41.7608C88.4939 41.7341 88.4306 41.6748 88.378 41.5714C88.269 41.3569 88.2291 40.9982 88.2421 40.5568C88.2678 39.6834 88.4956 38.5797 88.649 37.9197L88.4054 37.8631ZM88.9779 41.9681C89.8222 41.6515 90.5052 40.9684 90.8608 40.2713C91.0388 39.9224 91.1389 39.5623 91.1303 39.236C91.1217 38.907 91.0017 38.6084 90.7375 38.4032L90.5842 38.6007C90.7774 38.7507 90.8733 38.9721 90.8804 39.2425C90.8876 39.5156 90.8032 39.8342 90.6381 40.1577C90.3077 40.8053 89.6698 41.4416 88.8901 41.734L88.9779 41.9681ZM90.7374 38.4031C90.6466 38.3327 90.5585 38.2069 90.4782 38.0231C90.3987 37.8412 90.3314 37.6128 90.276 37.3494C90.1654 36.8229 90.1056 36.1706 90.0868 35.5017C90.068 34.8335 90.0903 34.1527 90.1423 33.5707C90.1946 32.9851 90.2762 32.5107 90.3715 32.2485L90.1366 32.1631C90.0293 32.4579 89.9459 32.9601 89.8933 33.5485C89.8404 34.1405 89.8179 34.831 89.8369 35.5087C89.8559 36.1858 89.9165 36.8543 90.0314 37.4008C90.0888 37.674 90.1605 37.9203 90.2491 38.1232C90.3369 38.3242 90.446 38.4935 90.5842 38.6007L90.7374 38.4031ZM90.3716 32.2484C90.4537 32.0221 90.6553 31.8838 90.9262 31.8348C91.1985 31.7856 91.5257 31.8311 91.8173 31.9619C92.1088 32.0927 92.3515 32.3025 92.4707 32.5691C92.5877 32.8308 92.5938 33.165 92.3801 33.5679L92.6009 33.685C92.8453 33.2242 92.8518 32.8089 92.6989 32.467C92.5482 32.1301 92.2509 31.8824 91.9196 31.7338C91.5884 31.5852 91.2101 31.5294 90.8817 31.5888C90.552 31.6485 90.2578 31.8288 90.1366 32.1632L90.3716 32.2484ZM92.38 33.568C92.1394 34.0227 92.1204 34.3764 92.2612 34.6765C92.3956 34.963 92.6669 35.1764 92.9363 35.3766C93.4925 35.7898 94.0924 36.1856 94.0924 37.0813H94.3424C94.3424 36.0411 93.6213 35.574 93.0854 35.1759C92.8088 34.9705 92.5912 34.7913 92.4875 34.5703C92.3903 34.3631 92.3842 34.0946 92.601 33.6849L92.38 33.568ZM94.0924 37.0813C94.0924 37.5732 94.1884 37.9137 94.3926 38.1176C94.6014 38.3261 94.8913 38.3614 95.1989 38.3215C95.5067 38.2816 95.8619 38.1628 96.2328 38.0269C96.6086 37.8891 97.003 37.7329 97.4058 37.6071L97.3314 37.3685C96.9207 37.4966 96.5144 37.6574 96.1468 37.7921C95.7743 37.9286 95.4434 38.0378 95.1668 38.0736C94.89 38.1095 94.6971 38.0684 94.5693 37.9407C94.4368 37.8084 94.3424 37.5529 94.3424 37.0813H94.0924ZM97.4058 37.6071C97.822 37.4774 98.1291 37.3172 98.3319 37.1216C98.5389 36.922 98.6338 36.6881 98.6266 36.4286C98.6196 36.1754 98.5159 35.9088 98.3501 35.6348C98.1836 35.3596 97.9486 35.0671 97.6662 34.76L97.4822 34.9292C97.7592 35.2304 97.9818 35.5091 98.1362 35.7642C98.2912 36.0204 98.3714 36.2435 98.3767 36.4355C98.3818 36.6212 98.3174 36.7883 98.1583 36.9417C97.995 37.0992 97.7295 37.2443 97.3314 37.3685L97.4058 37.6071ZM97.6662 34.76C97.1589 34.2077 97.3358 33.5464 97.4932 32.8142C97.5693 32.4602 97.6388 32.0895 97.5843 31.7397C97.5283 31.38 97.3432 31.0511 96.9343 30.778L96.7955 30.9859C97.148 31.2214 97.2924 31.4898 97.3373 31.7782C97.3837 32.0763 97.3256 32.4043 97.2488 32.7616C97.1004 33.4519 96.8705 34.2633 97.4821 34.9292L97.6662 34.76ZM96.9341 30.7778C96.1799 30.2773 95.5646 29.658 95.3111 29.1403C95.1839 28.8807 95.1587 28.6699 95.2202 28.5162C95.2793 28.3683 95.4355 28.2331 95.7693 28.1614L95.7168 27.917C95.3399 27.9979 95.0902 28.1678 94.9881 28.4233C94.8882 28.673 94.9463 28.964 95.0866 29.2503C95.3679 29.8246 96.0242 30.474 96.7958 30.9861L96.9341 30.7778ZM95.7692 28.1614C96.1409 28.0818 96.6858 27.8667 97.2805 27.5782C97.8776 27.2885 98.5334 26.9207 99.1288 26.5302C99.7228 26.1406 100.263 25.7248 100.624 25.3381C100.804 25.1451 100.945 24.9533 101.024 24.7703C101.103 24.5865 101.126 24.3963 101.04 24.2247L100.816 24.3364C100.857 24.4184 100.857 24.5262 100.794 24.6712C100.732 24.8168 100.612 24.9844 100.441 25.1675C100.1 25.5329 99.579 25.936 98.9917 26.3212C98.4057 26.7055 97.7593 27.068 97.1714 27.3533C96.5811 27.6397 96.0581 27.8439 95.7169 27.917L95.7692 28.1614ZM101.04 24.2248C100.952 24.0494 100.76 23.9436 100.536 23.8801C100.307 23.8153 100.016 23.7862 99.6894 23.7861C99.0349 23.7859 98.2112 23.9021 97.391 24.107C96.5707 24.3119 95.7465 24.6074 95.0924 24.9697C94.4459 25.3278 93.9348 25.7681 93.793 26.2767L94.0338 26.3439C94.1467 25.9389 94.5763 25.5414 95.2135 25.1884C95.8431 24.8397 96.6454 24.551 97.4516 24.3496C98.2578 24.1481 99.0605 24.0359 99.6893 24.0361C100.004 24.0362 100.269 24.0645 100.468 24.1207C100.671 24.1782 100.777 24.2571 100.816 24.3364L101.04 24.2248ZM93.7929 26.277C93.7371 26.479 93.6316 26.6216 93.4933 26.717C93.3533 26.8136 93.1718 26.867 92.9577 26.875C92.5271 26.891 91.9868 26.7217 91.4672 26.3939C90.4277 25.7382 89.5275 24.4872 89.771 22.9796L89.5242 22.9398C89.2597 24.5774 90.2398 25.9153 91.3339 26.6054C91.8811 26.9505 92.4709 27.1433 92.967 27.1248C93.2161 27.1156 93.447 27.0526 93.6352 26.9228C93.825 26.792 93.9634 26.5984 94.0339 26.3436L93.7929 26.277ZM89.771 22.9797C89.8891 22.2495 90.4698 21.6533 91.3561 21.1876C92.2396 20.7234 93.4028 20.4025 94.6339 20.2131C95.8638 20.0239 97.1539 19.9671 98.2871 20.0269C99.4239 20.0869 100.389 20.2636 100.977 20.5329L101.081 20.3056C100.45 20.0164 99.4466 19.8378 98.3002 19.7773C97.1503 19.7166 95.843 19.7742 94.5959 19.966C93.3502 20.1577 92.1571 20.4844 91.2398 20.9663C90.3254 21.4468 89.6609 22.0951 89.5242 22.9397L89.771 22.9797ZM100.977 20.5328C102.259 21.1212 103.581 20.6328 104.675 19.8089C105.771 18.9835 106.671 17.7998 107.135 16.9231L106.914 16.8062C106.465 17.6554 105.588 18.8089 104.525 19.6092C103.46 20.4111 102.24 20.8371 101.082 20.3056L100.977 20.5328ZM107.135 16.9231C107.251 16.7044 107.318 16.5268 107.327 16.3907C107.331 16.3206 107.32 16.2488 107.28 16.1882C107.238 16.1251 107.175 16.0914 107.109 16.0775C106.99 16.0521 106.838 16.087 106.684 16.142C106.524 16.1994 106.335 16.2883 106.13 16.3976C105.311 16.8332 104.158 17.6274 103.299 18.1817L103.435 18.3918C104.306 17.8293 105.44 17.0473 106.247 16.6184C106.448 16.5115 106.624 16.4289 106.768 16.3774C106.919 16.3236 107.012 16.3124 107.057 16.3221C107.066 16.324 107.07 16.3262 107.072 16.327C107.072 16.3273 107.072 16.3274 107.072 16.3273C107.072 16.3271 107.072 16.327 107.072 16.3271C107.072 16.3271 107.074 16.3296 107.075 16.3371C107.077 16.3449 107.078 16.3572 107.077 16.3756C107.072 16.4549 107.028 16.5923 106.914 16.8061L107.135 16.9231ZM103.299 18.1819C102.895 18.444 102.312 18.5758 101.612 18.6056C100.916 18.6352 100.118 18.5633 99.2973 18.4305C97.6554 18.1649 95.9348 17.6587 94.7693 17.2543L94.6874 17.4905C95.8611 17.8977 97.5965 18.4086 99.2574 18.6773C100.088 18.8116 100.903 18.886 101.623 18.8553C102.34 18.8248 102.976 18.6894 103.435 18.3916L103.299 18.1819ZM94.7693 17.2543C94.1682 17.046 93.7091 17.0283 93.3283 17.1374C92.949 17.2461 92.6643 17.4761 92.4055 17.7281C91.8809 18.239 91.458 18.8308 90.5416 18.9749L90.5804 19.2218C91.5964 19.0621 92.0884 18.3859 92.5799 17.9072C92.8292 17.6645 93.0778 17.4693 93.3972 17.3778C93.7149 17.2867 94.1197 17.2938 94.6874 17.4905L94.7693 17.2543ZM90.5413 18.9749C90.0063 19.0603 89.6424 19.4206 89.3843 19.8907C89.1274 20.3587 88.9656 20.9517 88.8382 21.5374C88.7087 22.1333 88.6168 22.7084 88.4963 23.1838C88.4367 23.4188 88.3724 23.6188 88.2977 23.7734C88.2219 23.9299 88.1426 24.0249 88.0613 24.07L88.1826 24.2886C88.33 24.2068 88.438 24.0574 88.5227 23.8823C88.6083 23.7052 88.6775 23.4863 88.7386 23.2452C88.8595 22.7685 88.9581 22.1629 89.0825 21.5905C89.2092 21.0081 89.365 20.4453 89.6035 20.011C89.8407 19.5789 90.1501 19.2905 90.5807 19.2218L90.5413 18.9749ZM88.0611 24.0701C87.7891 24.2217 87.6044 24.5545 87.4468 24.9678C87.2869 25.3874 87.1419 25.9282 86.9715 26.534C86.6289 27.7518 86.176 29.2604 85.2727 30.7178L85.4851 30.8495C86.4085 29.3599 86.869 27.8217 87.2122 26.6017C87.3846 25.9887 87.5256 25.4629 87.6804 25.0568C87.8377 24.6443 87.9966 24.3923 88.1828 24.2885L88.0611 24.0701ZM85.2728 30.7176C84.8089 31.4625 84.605 32.0627 84.5994 32.5488C84.5937 33.0422 84.7927 33.407 85.105 33.6708C85.4122 33.9303 85.8246 34.0888 86.2476 34.1895C86.6722 34.2905 87.1187 34.3359 87.5027 34.3617L87.5195 34.1123C87.1405 34.0868 86.7101 34.0426 86.3055 33.9463C85.8994 33.8496 85.5305 33.703 85.2663 33.4798C85.0072 33.2609 84.8446 32.9655 84.8494 32.5516C84.8542 32.1304 85.0326 31.5761 85.485 30.8497L85.2728 30.7176ZM41.1891 36.8668C41.1391 36.1755 41.2622 35.4796 41.4012 34.8599C41.4692 34.5567 41.5447 34.256 41.5996 34.003C41.6552 33.7467 41.6961 33.5126 41.6961 33.3198H41.4461C41.4461 33.4835 41.4107 33.6947 41.3553 33.95C41.2991 34.2087 41.2288 34.4861 41.1572 34.8052C41.0172 35.4299 40.887 36.1554 40.9398 36.8849L41.1891 36.8668ZM41.6961 33.3198C41.6961 32.9979 41.8092 32.793 42.0019 32.6815C42.2038 32.5646 42.5221 32.5326 42.9656 32.6302L43.0194 32.3861C42.5495 32.2827 42.1571 32.3028 41.8766 32.4651C41.5869 32.6328 41.4461 32.9342 41.4461 33.3198H41.6961ZM42.9655 32.6302C43.1036 32.6607 43.2309 32.6486 43.3426 32.596C43.453 32.544 43.5382 32.4573 43.6019 32.3546C43.7275 32.1523 43.7804 31.8719 43.7807 31.5932C43.781 31.3123 43.7278 31.0159 43.6249 30.7728C43.524 30.5348 43.3628 30.3201 43.1293 30.254L43.0612 30.4945C43.1853 30.5296 43.3046 30.6576 43.3947 30.8703C43.4826 31.078 43.5309 31.3404 43.5307 31.593C43.5304 31.8478 43.4808 32.0756 43.3895 32.2227C43.3447 32.2948 43.2929 32.3431 43.2361 32.3698C43.1805 32.396 43.1104 32.4062 43.0195 32.3861L42.9655 32.6302ZM43.1291 30.2539C43.0714 30.2377 43.0062 30.1944 42.9314 30.1139C42.8571 30.0342 42.7812 29.9265 42.7003 29.7958C42.6195 29.6655 42.5369 29.5175 42.4476 29.358C42.3588 29.1995 42.264 29.0307 42.1608 28.8631C41.7523 28.1996 41.1858 27.5077 40.248 27.5077V27.7577C41.0415 27.7577 41.5432 28.3368 41.9479 28.9941C42.048 29.1567 42.1405 29.3213 42.2295 29.4802C42.3179 29.6381 42.4035 29.7914 42.4878 29.9275C42.5718 30.0631 42.6577 30.1868 42.7484 30.2843C42.8385 30.3811 42.9414 30.4609 43.0615 30.4946L43.1291 30.2539ZM40.248 27.5077C39.8013 27.5077 39.4694 27.5994 39.2436 27.7529C39.0147 27.9086 38.9003 28.1251 38.8927 28.3519C38.8778 28.7984 39.2714 29.2245 39.8329 29.2819L39.8584 29.0332C39.4008 28.9864 39.1329 28.6501 39.1426 28.3602C39.1473 28.2187 39.2167 28.0736 39.3842 27.9596C39.5549 27.8436 39.832 27.7577 40.248 27.7577V27.5077ZM39.8335 29.282C40.3122 29.3289 40.6853 29.543 40.9026 29.8184C41.1193 30.0928 41.1815 30.4262 41.0508 30.7332L41.2808 30.8312C41.4525 30.4279 41.3635 29.9988 41.0989 29.6635C40.8349 29.3291 40.3967 29.086 39.8579 29.0331L39.8335 29.282ZM41.0509 30.7328C41.0161 30.8139 40.9882 30.8432 40.9744 30.8525C40.9692 30.8561 40.964 30.8602 40.9406 30.853C40.9103 30.8437 40.8678 30.8197 40.806 30.7743C40.7452 30.7296 40.6788 30.6743 40.5966 30.6086C40.2734 30.3503 39.7843 29.995 39.0232 30.0499L39.0411 30.2993C39.7044 30.2515 40.1293 30.5552 40.4405 30.8039C40.517 30.865 40.5917 30.927 40.658 30.9758C40.7235 31.0239 40.7943 31.0696 40.8671 31.092C40.9467 31.1165 41.0343 31.1143 41.1152 31.0591C41.1876 31.0098 41.2391 30.9282 41.2806 30.8316L41.0509 30.7328ZM39.0235 30.0499C38.6966 30.0725 38.5282 29.9851 38.4195 29.8614C38.2999 29.7253 38.2371 29.531 38.1581 29.2936C38.0828 29.0674 37.9937 28.8078 37.809 28.6017C37.6185 28.3891 37.338 28.2449 36.9047 28.2182L36.8894 28.4678C37.2689 28.4911 37.4835 28.613 37.6228 28.7686C37.7681 28.9306 37.8438 29.1411 37.9209 29.3726C37.9942 29.5929 38.0713 29.844 38.2317 30.0265C38.4031 30.2214 38.6548 30.3259 39.0407 30.2993L39.0235 30.0499ZM36.9048 28.2183C36.5436 28.1958 36.2881 28.0178 36.0767 27.7471C35.8608 27.4707 35.6989 27.1083 35.5252 26.7289C35.355 26.3571 35.1734 25.9687 34.9194 25.675C34.66 25.3751 34.3217 25.1697 33.8457 25.1697V25.4197C34.236 25.4197 34.5091 25.5828 34.7303 25.8386C34.957 26.1006 35.125 26.4553 35.2979 26.8329C35.4673 27.2029 35.6417 27.5963 35.8797 27.9009C36.122 28.2112 36.4378 28.4396 36.8893 28.4678L36.9048 28.2183ZM33.8457 25.1697C33.4296 25.1697 33.1247 25.0841 32.9155 24.9514C32.7087 24.8201 32.5897 24.6394 32.5462 24.432C32.4579 24.0105 32.6792 23.4437 33.2204 22.9525L33.0524 22.7674C32.4762 23.2903 32.1879 23.9409 32.3015 24.4833C32.359 24.7578 32.5188 24.9957 32.7816 25.1625C33.0421 25.3278 33.3976 25.4197 33.8457 25.4197V25.1697ZM33.2207 22.9523C33.3731 22.8131 33.468 22.6665 33.5043 22.5104C33.5408 22.3533 33.5146 22.2013 33.4515 22.0586C33.3292 21.7822 33.0569 21.5176 32.7738 21.266C32.4817 21.0065 32.1707 20.7546 31.9274 20.4882C31.6833 20.2212 31.5331 19.9659 31.5331 19.7104H31.2831C31.2831 20.0632 31.4884 20.3785 31.7428 20.6569C31.9979 20.936 32.3282 21.2045 32.6077 21.4529C32.8962 21.7093 33.1258 21.9404 33.2229 22.1598C33.2695 22.2651 33.2824 22.3611 33.2608 22.4538C33.2391 22.5474 33.1787 22.6521 33.0522 22.7676L33.2207 22.9523ZM31.5331 19.7104C31.5331 19.3665 31.401 19.1428 31.1945 18.9972C30.9995 18.8598 30.7464 18.7987 30.5211 18.7487C30.2835 18.696 30.0777 18.6553 29.9263 18.5711C29.8541 18.5309 29.8006 18.4838 29.7646 18.4259C29.7288 18.3685 29.7049 18.2919 29.7049 18.1841H29.4549C29.4549 18.3308 29.4881 18.4548 29.5523 18.558C29.6162 18.6607 29.7056 18.7344 29.8048 18.7896C29.9962 18.896 30.2475 18.944 30.4669 18.9928C30.6986 19.0442 30.9025 19.0973 31.0504 19.2015C31.1867 19.2976 31.2831 19.443 31.2831 19.7104H31.5331ZM29.7049 18.1841C29.7049 17.9145 29.6508 17.7249 29.5365 17.5811C29.426 17.442 29.2705 17.3619 29.1132 17.2865C28.7975 17.1352 28.3894 16.9676 27.95 16.383L27.7502 16.5332C28.2285 17.1697 28.6854 17.3587 29.0051 17.512C29.1656 17.5889 29.2704 17.648 29.3408 17.7366C29.4075 17.8206 29.4549 17.9473 29.4549 18.1841H29.7049ZM27.9502 16.3832C27.7145 16.0684 27.5027 15.8926 27.2978 15.8002C27.0915 15.7072 26.9057 15.7051 26.7413 15.7119C26.5725 15.7188 26.4402 15.7325 26.2956 15.6957C26.1578 15.6607 26.0003 15.5757 25.8097 15.3622L25.6232 15.5287C25.8394 15.7709 26.038 15.8881 26.234 15.938C26.4233 15.9862 26.6026 15.9678 26.7515 15.9617C26.9048 15.9554 27.0429 15.9595 27.195 16.0281C27.3486 16.0974 27.5297 16.2387 27.75 16.533L27.9502 16.3832ZM25.8101 15.3626C25.3942 14.8928 24.8973 14.5251 24.4084 14.3135C23.9224 14.1032 23.4262 14.0399 23.0257 14.2107L23.1238 14.4406C23.4356 14.3076 23.8549 14.3463 24.3091 14.5429C24.7603 14.7382 25.2281 15.0823 25.6229 15.5283L25.8101 15.3626ZM23.025 14.211C22.9001 14.2651 22.7093 14.2424 22.4571 14.1127C22.2103 13.9859 21.9315 13.7698 21.6508 13.4893C21.0897 12.9285 20.5409 12.1298 20.2432 11.3362L20.0091 11.424C20.3209 12.2551 20.891 13.0833 21.4741 13.6661C21.7656 13.9575 22.0652 14.1924 22.3428 14.3351C22.6148 14.475 22.894 14.5403 23.1245 14.4403L23.025 14.211ZM20.2433 11.3365C20.1743 11.1514 20.0348 10.9615 19.8545 10.7704C19.6728 10.5779 19.4421 10.3763 19.1809 10.1688C18.659 9.75408 18.0027 9.30574 17.3491 8.84857C16.6929 8.38963 16.0382 7.92094 15.5096 7.4605C14.9771 6.99662 14.591 6.5562 14.4496 6.15758L14.214 6.24117C14.3787 6.70551 14.8096 7.18218 15.3454 7.64901C15.8853 8.11928 16.5503 8.59492 17.2058 9.05343C17.8639 9.51372 18.5112 9.95595 19.0253 10.3645C19.2821 10.5685 19.5026 10.7617 19.6727 10.942C19.8442 11.1238 19.9572 11.2848 20.009 11.4238L20.2433 11.3365ZM14.4497 6.15785C14.1344 5.26286 13.552 4.6272 12.6958 4.2319C11.845 3.83902 10.7301 3.68627 9.34913 3.73799L9.35848 3.98781C10.7205 3.9368 11.7907 4.08932 12.591 4.45887C13.3862 4.82601 13.9212 5.40995 14.2139 6.2409L14.4497 6.15785ZM9.34933 3.73798C8.02424 3.78548 7.09822 3.13885 6.40494 2.62695C6.23296 2.49996 6.07198 2.37886 5.92508 2.28179C5.77896 2.18524 5.63661 2.10543 5.49989 2.06626C5.35933 2.026 5.21668 2.02667 5.08286 2.10203C4.95384 2.1747 4.85155 2.30667 4.76516 2.48835L4.99093 2.59571C5.0668 2.43617 5.14036 2.35657 5.20554 2.31986C5.26594 2.28585 5.33586 2.27933 5.43104 2.3066C5.53004 2.33496 5.64657 2.39741 5.78726 2.49037C5.92717 2.58282 6.08095 2.69849 6.25644 2.82806C6.95302 3.3424 7.94036 4.03865 9.35828 3.98782L9.34933 3.73798ZM4.76485 2.48901C4.53899 2.97116 4.6394 3.57962 4.90911 4.21009C5.18097 4.84556 5.63674 5.53176 6.16787 6.19017C7.22905 7.50564 8.61221 8.73576 9.49305 9.25411L9.61984 9.03865C8.77235 8.53993 7.41102 7.33305 6.36245 6.0332C5.8387 5.38394 5.39827 4.7179 5.13897 4.11176C4.87752 3.50061 4.81182 2.97807 4.99124 2.59506L4.76485 2.48901ZM9.49322 9.25421C9.90276 9.49437 10.2715 9.89633 10.6287 10.3807C10.9862 10.8655 11.3213 11.417 11.6738 11.9553C12.0234 12.4893 12.3886 13.0075 12.7978 13.4054C13.2079 13.8042 13.6713 14.091 14.2179 14.1462L14.243 13.8975C13.7727 13.85 13.3592 13.6026 12.9721 13.2262C12.5842 12.8489 12.2317 12.351 11.8829 11.8183C11.537 11.29 11.1929 10.7245 10.8299 10.2323C10.4666 9.73968 10.0736 9.30472 9.61968 9.03855L9.49322 9.25421ZM14.2181 14.1462C14.6585 14.19 15.0254 14.5728 15.3518 15.2011C15.6744 15.8222 15.9348 16.6394 16.1826 17.4721C16.4287 18.2991 16.6626 19.1426 16.9306 19.7959C17.0648 20.1229 17.2105 20.41 17.3755 20.6271C17.5399 20.8434 17.7336 21.0033 17.9667 21.0497L18.0155 20.8045C17.8671 20.7749 17.7209 20.6684 17.5745 20.4758C17.4287 20.284 17.2927 20.0198 17.1619 19.701C16.9 19.0627 16.671 18.2369 16.4222 17.4008C16.1751 16.5705 15.9088 15.7311 15.5737 15.0859C15.2423 14.448 14.8208 13.9549 14.2428 13.8975L14.2181 14.1462ZM17.9663 21.0496C18.1319 21.083 18.3327 21.183 18.5624 21.3491C18.7904 21.514 19.039 21.7384 19.2997 22.0106C19.8208 22.5548 20.3822 23.2818 20.9137 24.084C21.9788 25.6919 22.909 27.5793 23.1576 28.8744L23.4031 28.8272C23.1451 27.4835 22.1935 25.5632 21.1221 23.9459C20.5852 23.1355 20.0147 22.3957 19.4802 21.8376C19.213 21.5586 18.953 21.323 18.7089 21.1465C18.4664 20.9711 18.2317 20.8481 18.0158 20.8045L17.9663 21.0496ZM23.1576 28.8744C23.4205 30.2419 24.4168 31.2575 25.4588 32.1598C25.9864 32.6166 26.5174 33.0376 26.997 33.4739C27.4738 33.9076 27.8824 34.3418 28.1532 34.8076L28.3693 34.682C28.0792 34.1829 27.6482 33.7282 27.1653 33.2889C26.6852 32.8522 26.1364 32.4158 25.6225 31.9708C24.5815 31.0694 23.6483 30.103 23.4031 28.8272L23.1576 28.8744ZM28.1531 34.8074C28.442 35.3067 28.9424 35.8441 29.5306 36.3782C30.1205 36.9138 30.8068 37.4532 31.4746 37.9557C31.8087 38.2071 32.1388 38.4496 32.4502 38.6781C32.7619 38.9067 33.0546 39.1209 33.3152 39.3164C33.576 39.512 33.8029 39.6876 33.9831 39.839C34.1654 39.9921 34.2925 40.1143 34.3597 40.2034L34.5593 40.0528C34.4737 39.9394 34.3274 39.8017 34.1439 39.6476C33.9583 39.4917 33.727 39.3128 33.4652 39.1164C33.2033 38.9199 32.9092 38.7047 32.5981 38.4765C32.2866 38.2481 31.9577 38.0063 31.6249 37.756C30.9591 37.255 30.2801 36.721 29.6987 36.1931C29.1155 35.6636 28.6385 35.1472 28.3694 34.6822L28.1531 34.8074ZM34.3594 40.203C34.5056 40.3981 34.6539 40.6573 34.8054 40.9295C34.9548 41.1982 35.1073 41.4798 35.2571 41.7069C35.3322 41.8209 35.4091 41.9248 35.4873 42.0086C35.5643 42.0913 35.6498 42.1622 35.7438 42.1997C35.8436 42.2395 35.9509 42.2403 36.0539 42.1847C36.1505 42.1326 36.2305 42.0378 36.2999 41.9135L36.0816 41.7917C36.0232 41.8963 35.9723 41.9447 35.9352 41.9647C35.9046 41.9812 35.8755 41.9831 35.8364 41.9675C35.7917 41.9497 35.7361 41.9089 35.6701 41.8381C35.6053 41.7686 35.5371 41.6774 35.4658 41.5693C35.3226 41.3523 35.1761 41.0818 35.0238 40.808C34.8735 40.5377 34.7174 40.2639 34.5595 40.0532L34.3594 40.203ZM36.3 41.9134C36.4011 41.7317 36.586 41.6308 36.8513 41.5928C37.1186 41.5545 37.4489 41.5835 37.807 41.6464C38.1638 41.7091 38.5368 41.8032 38.8895 41.8896C39.2383 41.975 39.5712 42.054 39.8359 42.0811L39.8613 41.8324C39.6172 41.8074 39.302 41.7332 38.9489 41.6468C38.5997 41.5612 38.2172 41.4646 37.8502 41.4002C37.4846 41.3359 37.1229 41.3013 36.8158 41.3453C36.5066 41.3897 36.2345 41.517 36.0815 41.7918L36.3 41.9134ZM39.8358 42.0811C40.0061 42.0986 40.1555 42.0326 40.28 41.9192C40.4021 41.808 40.5051 41.6477 40.5932 41.4602C40.7696 41.0847 40.9016 40.5668 40.9971 40.0104C41.1885 38.896 41.2398 37.5896 41.1891 36.8671L40.9398 36.8846C40.9889 37.5856 40.939 38.8719 40.7507 39.9681C40.6565 40.517 40.5291 41.0089 40.3669 41.3539C40.2857 41.5266 40.1997 41.6542 40.1117 41.7343C40.0261 41.8123 39.9444 41.841 39.8614 41.8324L39.8358 42.0811ZM118.704 20.7478C119.267 20.7996 119.654 20.7589 119.907 20.6232C120.037 20.5535 120.131 20.4592 120.192 20.3438C120.253 20.2301 120.279 20.1025 120.286 19.97C120.299 19.7102 120.238 19.4006 120.178 19.0861C120.117 18.7645 120.056 18.4262 120.056 18.0843H119.806C119.806 18.4528 119.872 18.8128 119.933 19.1325C119.994 19.4593 120.048 19.7343 120.036 19.9573C120.031 20.0662 120.01 20.1547 119.972 20.226C119.935 20.2956 119.878 20.3553 119.789 20.403C119.604 20.5021 119.28 20.5498 118.727 20.4989L118.704 20.7478ZM120.056 18.0843C120.056 17.8924 120.022 17.7345 119.954 17.6075C119.886 17.479 119.787 17.3898 119.671 17.3308C119.446 17.2169 119.161 17.2178 118.907 17.2369C118.778 17.2466 118.647 17.2621 118.532 17.2735C118.413 17.2852 118.31 17.2927 118.224 17.2891C118.135 17.2854 118.085 17.2704 118.059 17.2528C118.043 17.2421 118.027 17.2254 118.027 17.1715H117.777C117.777 17.2951 117.824 17.3958 117.919 17.46C118.004 17.5172 118.112 17.5347 118.214 17.5389C118.318 17.5432 118.437 17.534 118.556 17.5223C118.678 17.5102 118.801 17.4956 118.926 17.4862C119.179 17.4671 119.401 17.4743 119.557 17.5537C119.632 17.5914 119.691 17.6456 119.734 17.7252C119.777 17.8064 119.806 17.9211 119.806 18.0843H120.056ZM118.027 17.1715C118.027 16.9787 117.98 16.6558 117.886 16.3172C117.792 15.9787 117.647 15.6101 117.444 15.3325C117.241 15.0555 116.961 14.8456 116.6 14.8899C116.252 14.9327 115.875 15.2101 115.463 15.7755L115.665 15.9228C116.066 15.372 116.389 15.1677 116.631 15.138C116.861 15.1097 117.064 15.2364 117.242 15.4801C117.42 15.7231 117.555 16.0592 117.645 16.3841C117.735 16.709 117.777 17.0084 117.777 17.1715H118.027ZM115.463 15.7756C115.035 16.3638 114.862 17.1577 114.855 17.9995C114.848 18.8433 115.007 19.7486 115.259 20.573C115.51 21.397 115.855 22.1475 116.224 22.68C116.408 22.946 116.601 23.163 116.797 23.3068C116.992 23.4499 117.203 23.5306 117.413 23.4923L117.368 23.2463C117.253 23.2674 117.111 23.2275 116.945 23.1054C116.78 22.984 116.604 22.7911 116.429 22.5377C116.079 22.0318 115.744 21.3065 115.498 20.5001C115.252 19.6942 115.098 18.8146 115.105 18.0016C115.111 17.1867 115.28 16.4521 115.665 15.9227L115.463 15.7756ZM117.413 23.4923C117.585 23.4608 117.709 23.3767 117.786 23.2479C117.859 23.1257 117.881 22.9763 117.882 22.8258C117.883 22.6738 117.862 22.5059 117.837 22.3378C117.811 22.1656 117.781 21.9971 117.759 21.8267C117.714 21.4808 117.713 21.1926 117.829 21.0025C117.933 20.831 118.164 20.6986 118.704 20.7478L118.727 20.4989C118.148 20.4461 117.793 20.5802 117.615 20.8724C117.449 21.1459 117.467 21.5184 117.511 21.8589C117.533 22.0315 117.565 22.2127 117.59 22.375C117.615 22.5414 117.633 22.6929 117.632 22.824C117.631 22.9565 117.61 23.0536 117.571 23.12C117.535 23.1798 117.477 23.2264 117.368 23.2463L117.413 23.4923ZM110.258 33.3501C110.477 34.2245 111.364 34.8817 112.277 35.1419C113.184 35.4007 114.205 35.2876 114.657 34.5019L114.44 34.3773C114.077 35.0093 113.217 35.1501 112.345 34.9015C111.478 34.6542 110.689 34.0427 110.501 33.2895L110.258 33.3501ZM114.657 34.5014C114.779 34.2878 114.782 34.0671 114.699 33.8586C114.617 33.6556 114.455 33.4684 114.252 33.3019C113.845 32.9685 113.237 32.6903 112.625 32.5188C112.016 32.3479 111.381 32.2769 110.92 32.3779C110.689 32.4285 110.485 32.5259 110.358 32.693C110.227 32.8648 110.193 33.0878 110.258 33.35L110.501 33.2895C110.449 33.081 110.483 32.9414 110.556 32.8447C110.634 32.7432 110.772 32.6661 110.973 32.6221C111.377 32.5338 111.965 32.5933 112.558 32.7595C113.149 32.9253 113.722 33.191 114.094 33.4953C114.28 33.6478 114.407 33.8029 114.467 33.9516C114.524 34.0947 114.521 34.2351 114.44 34.3778L114.657 34.5014ZM102.368 50.3674C100.964 50.1615 99.7915 50.5792 98.6575 50.9059C97.5192 51.2339 96.4086 51.4761 95.0752 50.9815L94.9882 51.2159C96.4007 51.7398 97.578 51.4771 98.7267 51.1461C99.8798 50.8139 100.993 50.4185 102.332 50.6147L102.368 50.3674ZM95.0749 50.9814C93.6758 50.4663 91.9393 50.4734 90.6118 50.7191C89.9481 50.8419 89.376 51.0263 88.9941 51.2423C88.8043 51.3497 88.6506 51.4709 88.56 51.6061C88.4652 51.7475 88.4378 51.9093 88.5175 52.0689L88.7412 51.9571C88.7093 51.8933 88.7126 51.8274 88.7676 51.7453C88.8268 51.6569 88.942 51.559 89.1172 51.4599C89.4654 51.2629 90.0074 51.0852 90.6572 50.9649C91.9567 50.7244 93.6446 50.7213 94.9885 51.216L95.0749 50.9814ZM88.5176 52.069C88.641 52.3152 88.9066 52.489 89.2445 52.6181C89.5863 52.7486 90.0258 52.8424 90.5312 52.9128C91.5423 53.0537 92.8448 53.1044 94.215 53.155L94.2243 52.9052C92.85 52.8544 91.5615 52.8039 90.5657 52.6652C90.0676 52.5958 89.6496 52.5052 89.3337 52.3845C89.014 52.2624 88.8219 52.1181 88.7411 51.957L88.5176 52.069ZM94.2152 53.155C95.6106 53.205 96.9241 52.8422 98.1077 52.4603C98.7028 52.2683 99.2594 52.0734 99.7863 51.9187C100.312 51.7644 100.797 51.6538 101.24 51.63L101.226 51.3804C100.754 51.4057 100.248 51.5227 99.7159 51.6788C99.1852 51.8346 98.6174 52.0332 98.0309 52.2224C96.8514 52.603 95.5732 52.9535 94.2241 52.9051L94.2152 53.155ZM101.24 51.63C101.701 51.6045 102.176 51.5534 102.586 51.4845C102.992 51.4162 103.347 51.3285 103.561 51.2252C103.616 51.1989 103.666 51.1696 103.706 51.1362C103.746 51.1037 103.785 51.0603 103.804 51.0039C103.825 50.9415 103.816 50.8781 103.784 50.823C103.755 50.7727 103.709 50.7333 103.658 50.7014C103.558 50.6374 103.404 50.58 103.197 50.5262C102.988 50.4718 102.714 50.4186 102.369 50.3674L102.332 50.6147C102.673 50.6652 102.937 50.7168 103.134 50.7682C103.335 50.8203 103.458 50.8699 103.524 50.9122C103.557 50.9334 103.567 50.9468 103.568 50.949C103.568 50.9492 103.566 50.9459 103.566 50.9396C103.565 50.9331 103.566 50.9275 103.567 50.9239C103.569 50.9188 103.568 50.926 103.547 50.9431C103.527 50.9594 103.497 50.9788 103.453 51C103.273 51.0868 102.948 51.1701 102.544 51.2379C102.144 51.3051 101.679 51.3553 101.226 51.3804L101.24 51.63ZM124.137 31.7811C122.792 31.3667 120.983 31.3379 119.567 31.5795C118.859 31.7003 118.237 31.8904 117.817 32.1425C117.606 32.2685 117.437 32.4154 117.337 32.5855C117.233 32.7602 117.206 32.9548 117.273 33.1581L117.511 33.0792C117.467 32.9483 117.483 32.8286 117.552 32.7126C117.623 32.592 117.754 32.4715 117.945 32.357C118.327 32.128 118.914 31.9445 119.609 31.826C120.997 31.5892 122.765 31.6199 124.063 32.02L124.137 31.7811ZM117.273 33.1581C117.388 33.5026 117.627 33.7239 117.944 33.8594C118.256 33.9925 118.646 34.044 119.077 34.0569C119.509 34.0698 119.995 34.044 120.501 34.0156C121.009 33.9869 121.54 33.9555 122.07 33.9555V33.7055C121.531 33.7055 120.993 33.7374 120.487 33.7659C119.979 33.7946 119.504 33.8195 119.085 33.807C118.664 33.7944 118.311 33.7441 118.042 33.6294C117.779 33.5171 117.599 33.3445 117.511 33.0792L117.273 33.1581ZM122.07 33.9555C123.105 33.9555 123.895 34.3243 124.575 34.7021C124.911 34.889 125.231 35.0847 125.531 35.2296C125.833 35.3757 126.133 35.4803 126.441 35.4803V35.2303C126.188 35.2303 125.929 35.1444 125.64 35.0045C125.348 34.8636 125.046 34.678 124.696 34.4836C124.004 34.099 123.169 33.7055 122.07 33.7055V33.9555ZM126.441 35.4803C126.606 35.4803 126.748 35.4307 126.854 35.3317C126.96 35.2338 127.019 35.0986 127.042 34.9483C127.087 34.6512 126.996 34.2676 126.793 33.8743C126.383 33.0825 125.492 32.1961 124.136 31.781L124.063 32.02C125.354 32.4151 126.192 33.256 126.57 33.9891C126.761 34.3583 126.829 34.6865 126.795 34.9106C126.778 35.0208 126.738 35.0986 126.684 35.1485C126.632 35.1973 126.554 35.2303 126.441 35.2303V35.4803ZM70.6634 49.3625C70.6476 49.1697 70.5529 49.0219 70.4046 48.9152C70.2613 48.812 70.07 48.748 69.8542 48.7069C69.4228 48.6247 68.8437 48.6255 68.2233 48.6383C67.5972 48.6512 66.9232 48.6766 66.2836 48.6485C65.6431 48.6203 65.0514 48.5388 64.5902 48.3446L64.4933 48.5751C64.9961 48.7867 65.6236 48.8697 66.2727 48.8983C66.9227 48.9268 67.6087 48.901 68.2284 48.8883C68.8538 48.8754 69.4062 48.876 69.8074 48.9525C70.0078 48.9907 70.158 49.0457 70.2585 49.1181C70.3539 49.1868 70.405 49.2708 70.4142 49.3829L70.6634 49.3625ZM64.5904 48.3447C64.3538 48.2446 64.2336 48.1554 64.1836 48.0857C64.1609 48.054 64.1556 48.0304 64.1558 48.0126C64.1561 47.9938 64.1628 47.9683 64.1855 47.9345C64.2339 47.8625 64.3373 47.7782 64.5007 47.6846C64.6607 47.593 64.8643 47.5002 65.0972 47.4058C65.5642 47.2164 66.1295 47.0281 66.6707 46.8324C67.2058 46.6389 67.7196 46.4375 68.0627 46.2253L67.9312 46.0127C67.6135 46.2092 67.1238 46.4027 66.5857 46.5973C66.0537 46.7897 65.476 46.9824 65.0032 47.1741C64.7662 47.2702 64.5507 47.3679 64.3765 47.4676C64.2057 47.5654 64.0599 47.6732 63.978 47.7951C63.9356 47.8582 63.907 47.9301 63.9059 48.0092C63.9048 48.0892 63.9322 48.164 63.9804 48.2313C64.0724 48.3597 64.2473 48.4711 64.4931 48.575L64.5904 48.3447ZM68.0625 46.2254C68.2328 46.1205 68.3598 46.0167 68.4355 45.9135C68.5127 45.8082 68.5496 45.6819 68.4871 45.5604C68.4317 45.4526 68.3147 45.3865 68.188 45.344C68.0561 45.2997 67.8863 45.2718 67.6869 45.2589C66.8908 45.2077 65.5281 45.3912 63.895 45.9028L63.9697 46.1414C65.5877 45.6345 66.9174 45.4599 67.6708 45.5084C67.8588 45.5205 68.0049 45.5462 68.1085 45.581C68.2172 45.6175 68.2551 45.6559 68.2648 45.6748C68.2675 45.68 68.28 45.7028 68.2339 45.7657C68.1862 45.8306 68.0911 45.9142 67.9314 46.0125L68.0625 46.2254ZM63.8952 45.9028C62.3121 46.3957 60.5967 45.8542 59.2353 45.3451C58.5651 45.0945 57.9692 44.847 57.5397 44.7553C57.3268 44.7098 57.1266 44.6954 56.9705 44.7597C56.8885 44.7935 56.8201 44.8483 56.7714 44.9264C56.7237 45.0027 56.6991 45.0945 56.6917 45.1971L56.941 45.2151C56.9465 45.1403 56.9632 45.0912 56.9835 45.0587C57.0027 45.0279 57.0287 45.0061 57.0656 44.9909C57.1474 44.9572 57.2829 44.956 57.4875 44.9997C57.893 45.0864 58.4589 45.3217 59.1478 45.5793C60.5044 46.0866 62.2956 46.6627 63.9695 46.1415L63.8952 45.9028ZM56.6917 45.1974C56.683 45.3207 56.6176 45.4094 56.4792 45.4731C56.3333 45.5404 56.115 45.5737 55.832 45.5707C55.2687 45.5646 54.5028 45.4158 53.6864 45.1882C52.8721 44.9613 52.0161 44.6583 51.2757 44.3492C50.5329 44.0391 49.915 43.7262 49.5718 43.4812L49.4266 43.6846C49.7934 43.9466 50.4327 44.2682 51.1794 44.5799C51.9284 44.8927 52.7942 45.1991 53.6193 45.4291C54.4421 45.6585 55.2331 45.8143 55.8293 45.8207C56.126 45.8238 56.3881 45.7904 56.5838 45.7002C56.7872 45.6066 56.9247 45.4474 56.9411 45.2149L56.6917 45.1974ZM49.5718 43.4811C49.2004 43.2165 48.5762 42.9388 47.8399 42.7008C47.1008 42.4619 46.2388 42.2597 45.3855 42.1503C44.5335 42.0411 43.6834 42.0235 42.9713 42.1584C42.2618 42.2928 41.6655 42.5835 41.3588 43.1122L41.575 43.2376C41.8285 42.8006 42.3385 42.5327 43.0178 42.404C43.6944 42.2759 44.5156 42.2909 45.3537 42.3983C46.1906 42.5056 47.0376 42.7042 47.763 42.9387C48.491 43.174 49.0865 43.4423 49.4267 43.6847L49.5718 43.4811ZM41.3586 43.1124C41.0876 43.5823 40.8321 43.8183 40.6156 43.9428C40.3994 44.0672 40.2113 44.0874 40.0503 44.1061C39.9741 44.115 39.887 44.1248 39.8144 44.1544C39.731 44.1883 39.6636 44.2487 39.6289 44.349C39.5978 44.4387 39.5961 44.5517 39.6121 44.6886C39.6285 44.8282 39.6652 45.0075 39.7231 45.238L39.9655 45.1771C39.9085 44.9501 39.8749 44.7832 39.8604 44.6596C39.8457 44.5334 39.8528 44.4663 39.8651 44.4308C39.8737 44.4059 39.8843 44.3958 39.9086 44.386C39.9435 44.3718 39.9936 44.3644 40.0792 44.3545C40.2419 44.3356 40.4757 44.3117 40.7403 44.1595C41.0044 44.0076 41.2883 43.7347 41.5752 43.2374L41.3586 43.1124ZM39.723 45.2378C39.8053 45.5678 39.9615 45.7843 40.1776 45.9098C40.3889 46.0324 40.6395 46.0575 40.8906 46.0444C41.1418 46.0313 41.4113 45.9786 41.6654 45.9317C41.9243 45.8838 42.1674 45.8418 42.3832 45.8418V45.5918C42.1409 45.5918 41.8755 45.6386 41.62 45.6859C41.3596 45.734 41.1087 45.7827 40.8776 45.7947C40.6466 45.8068 40.4533 45.7807 40.3032 45.6936C40.1579 45.6092 40.0353 45.4572 39.9656 45.1773L39.723 45.2378ZM42.3832 45.8418C42.5607 45.8418 42.6716 45.9204 42.7654 46.0599C42.8665 46.2101 42.9362 46.4135 43.0286 46.6515C43.1176 46.8807 43.2252 47.1331 43.4016 47.3407C43.5818 47.5527 43.8303 47.7143 44.1912 47.7689L44.2286 47.5217C43.9302 47.4766 43.7351 47.3471 43.5921 47.1788C43.4453 47.0061 43.3502 46.7889 43.2617 46.561C43.1765 46.3417 43.094 46.1005 42.9729 45.9203C42.8444 45.7294 42.6631 45.5918 42.3832 45.5918V45.8418ZM44.1906 47.7688C44.5169 47.8198 45.0332 47.9336 45.6383 48.0632C46.2407 48.1922 46.9266 48.3358 47.5844 48.4443C48.2408 48.5526 48.8762 48.6271 49.3759 48.6154C49.6253 48.6096 49.8487 48.5823 50.0267 48.5226C50.2037 48.4633 50.3547 48.3653 50.4255 48.2052L50.1969 48.104C50.1665 48.1728 50.0922 48.237 49.9473 48.2856C49.8034 48.3338 49.6083 48.3599 49.3701 48.3655C48.8945 48.3766 48.278 48.3053 47.6251 48.1976C46.9737 48.0902 46.2929 47.9477 45.6906 47.8187C45.0909 47.6903 44.5645 47.5742 44.2292 47.5218L44.1906 47.7688ZM50.4255 48.2054C50.4577 48.1328 50.532 48.0652 50.6686 48.0128C50.8048 47.9604 50.9898 47.9288 51.2175 47.9204C51.672 47.9037 52.2698 47.9805 52.9245 48.1376C54.2347 48.4521 55.7409 49.0803 56.7383 49.8783L56.8945 49.6831C55.8595 48.855 54.3158 48.2144 52.9828 47.8945C52.316 47.7345 51.6939 47.6527 51.2083 47.6706C50.9658 47.6795 50.7506 47.7135 50.579 47.7794C50.4075 47.8452 50.2661 47.9485 50.197 48.1038L50.4255 48.2054ZM56.7384 49.8784C57.7835 50.7131 59.4903 51.1475 61.1462 51.3386C62.8067 51.5302 64.445 51.4803 65.3742 51.3262L65.3333 51.0795C64.4315 51.2292 62.8172 51.2798 61.1749 51.0902C59.5279 50.9001 57.8816 50.4715 56.8944 49.683L56.7384 49.8784ZM65.3743 51.3262C66.2555 51.1797 67.1893 51.4732 68.0276 51.692C68.439 51.7994 68.8326 51.8896 69.1712 51.8845C69.5161 51.8792 69.821 51.7741 70.0289 51.4771L69.8241 51.3337C69.6765 51.5445 69.4608 51.63 69.1673 51.6345C68.8675 51.6391 68.5051 51.5583 68.0907 51.4501C67.2774 51.2378 66.2802 50.9222 65.3333 51.0795L65.3743 51.3262ZM70.0286 51.4774C70.1045 51.3698 70.1799 51.3215 70.2537 51.3026C70.3306 51.2829 70.4229 51.2907 70.5391 51.3276C70.6555 51.3645 70.7849 51.427 70.9319 51.5049C71.0747 51.5806 71.2393 51.6737 71.408 51.7595C71.7497 51.9334 72.147 52.0984 72.5951 52.1166C73.0473 52.135 73.5392 52.0036 74.069 51.6067L73.9191 51.4066C73.4312 51.7721 72.9951 51.8827 72.6053 51.8668C72.2114 51.8508 71.8528 51.7053 71.5213 51.5367C71.3533 51.4512 71.202 51.3651 71.049 51.284C70.9003 51.2052 70.7541 51.1335 70.6147 51.0893C70.4751 51.045 70.3314 51.0247 70.1917 51.0604C70.0487 51.097 69.9268 51.1878 69.8243 51.3334L70.0286 51.4774ZM74.0689 51.6067C74.3261 51.4141 74.4907 51.2384 74.5509 51.0701C74.5827 50.9812 74.5862 50.8922 74.5566 50.8076C74.5276 50.7251 74.4713 50.6585 74.404 50.6048C74.2727 50.4999 74.075 50.4243 73.8542 50.3633C73.6299 50.3014 73.3652 50.2504 73.0883 50.2026C72.5288 50.1059 71.9211 50.0216 71.4419 49.8858C71.2027 49.8179 71.0067 49.74 70.8699 49.648C70.734 49.5566 70.6718 49.4624 70.6634 49.3622L70.4142 49.3832C70.4315 49.5876 70.5601 49.7409 70.7304 49.8554C70.8997 49.9694 71.1255 50.0559 71.3737 50.1263C71.8696 50.2669 72.5003 50.3547 73.0458 50.4489C73.3214 50.4966 73.5759 50.5458 73.7877 50.6043C74.0031 50.6638 74.1586 50.7288 74.2479 50.8001C74.291 50.8345 74.3118 50.865 74.3207 50.8903C74.3288 50.9136 74.3308 50.9432 74.3156 50.9858C74.2817 51.0804 74.17 51.2187 73.9191 51.4066L74.0689 51.6067ZM150.518 27.0987C150.097 27.1275 149.771 27.3326 149.503 27.6094C149.238 27.8836 149.021 28.2359 148.819 28.5708C148.613 28.9116 148.423 29.2324 148.205 29.4704C147.989 29.7054 147.76 29.8443 147.478 29.8443V30.0943C147.856 30.0943 148.147 29.9031 148.389 29.6394C148.628 29.3789 148.832 29.0327 149.033 28.7001C149.237 28.3615 149.44 28.0339 149.683 27.7834C149.923 27.5356 150.194 27.3714 150.535 27.3481L150.518 27.0987ZM147.478 29.8443C147.108 29.8443 146.719 30.0347 146.32 30.3072C145.918 30.5815 145.483 30.9549 145.021 31.3468C144.091 32.1367 143.041 33.0092 141.848 33.4083L141.927 33.6454C143.173 33.2285 144.258 32.3223 145.183 31.5374C145.649 31.1419 146.072 30.7789 146.461 30.5137C146.852 30.2466 147.188 30.0943 147.478 30.0943V29.8443ZM141.848 33.4083C141.576 33.4988 141.345 33.4682 141.138 33.3478C140.926 33.2242 140.731 33.0002 140.552 32.6881C140.192 32.063 139.918 31.1304 139.683 30.1086C139.447 29.0818 139.257 28.0054 139.05 27.058C138.947 26.5893 138.841 26.1574 138.724 25.7937C138.609 25.4323 138.48 25.1275 138.327 24.9201L138.126 25.068C138.253 25.2418 138.372 25.5149 138.486 25.8699C138.599 26.2225 138.703 26.6454 138.805 27.1115C139.008 28.0338 139.206 29.1474 139.44 30.1647C139.675 31.1869 139.955 32.1523 140.335 32.8128C140.525 33.1434 140.747 33.4092 141.012 33.5638C141.283 33.7216 141.589 33.7579 141.927 33.6455L141.848 33.4083ZM138.328 24.9202C138.027 24.5094 137.408 24.1367 136.666 23.8334C135.918 23.5277 135.023 23.284 134.145 23.1429C133.268 23.0019 132.4 22.962 131.707 23.0692C131.026 23.1747 130.464 23.4319 130.287 23.9339L130.522 24.0172C130.65 23.6569 131.078 23.4197 131.746 23.3162C132.403 23.2145 133.242 23.2511 134.105 23.3897C134.967 23.5282 135.843 23.7671 136.571 24.0648C137.306 24.3649 137.868 24.7163 138.126 25.0679L138.328 24.9202ZM130.287 23.9339C130.004 24.7329 129.384 24.9235 128.751 25.0885C128.442 25.1691 128.116 25.2462 127.858 25.3984C127.589 25.5571 127.391 25.7976 127.329 26.1929L127.576 26.2314C127.626 25.9157 127.775 25.7374 127.985 25.6137C128.206 25.4836 128.49 25.4148 128.814 25.3304C129.449 25.1651 130.193 24.9485 130.522 24.0171L130.287 23.9339ZM127.329 26.1934C127.278 26.5276 127.28 26.7783 127.352 26.9587C127.39 27.0523 127.446 27.1269 127.521 27.1825C127.595 27.2371 127.681 27.269 127.773 27.2873C127.951 27.3229 128.175 27.3113 128.42 27.2941C128.672 27.2765 128.958 27.2515 129.283 27.2515V27.0015C128.947 27.0015 128.649 27.0274 128.403 27.0447C128.15 27.0624 127.961 27.07 127.822 27.0421C127.754 27.0287 127.706 27.0081 127.67 26.9814C127.635 26.9557 127.606 26.9199 127.584 26.8659C127.538 26.7511 127.527 26.5572 127.576 26.231L127.329 26.1934ZM129.283 27.2515C129.596 27.2515 129.82 27.3116 129.991 27.4129C130.162 27.5143 130.291 27.6634 130.405 27.8606C130.519 28.0598 130.615 28.3011 130.722 28.5832C130.828 28.8627 130.945 29.1786 131.1 29.5141L131.327 29.409C131.176 29.0833 131.063 28.7768 130.956 28.4944C130.849 28.2147 130.748 27.9549 130.621 27.7357C130.494 27.5145 130.337 27.3278 130.118 27.1979C129.899 27.068 129.628 27.0015 129.283 27.0015V27.2515ZM131.1 29.514C131.277 29.8972 131.668 30.1017 132.131 30.2036C132.596 30.3061 133.163 30.3117 133.738 30.2735C134.316 30.2351 134.911 30.152 135.435 30.0726C135.964 29.9927 136.414 29.9177 136.713 29.8928L136.692 29.6437C136.382 29.6695 135.918 29.7468 135.398 29.8254C134.874 29.9046 134.288 29.9864 133.722 30.024C133.154 30.0617 132.615 30.0543 132.184 29.9595C131.751 29.8641 131.455 29.687 131.327 29.4091L131.1 29.514ZM136.713 29.8928C137.263 29.8471 137.539 30.2087 137.529 30.4613C137.525 30.5811 137.46 30.6924 137.302 30.7498C137.136 30.8104 136.857 30.8132 136.439 30.666L136.356 30.9018C136.8 31.0583 137.144 31.0734 137.387 30.9847C137.639 30.8929 137.771 30.6933 137.779 30.4706C137.796 30.0381 137.36 29.5882 136.692 29.6437L136.713 29.8928ZM136.439 30.666C135.992 30.5089 135.647 30.4791 135.359 30.526C135.072 30.5729 134.855 30.6947 134.665 30.8186C134.47 30.9462 134.319 31.0638 134.135 31.1387C133.961 31.2096 133.759 31.2396 133.48 31.1703L133.42 31.413C133.751 31.4949 134.006 31.4611 134.23 31.3702C134.443 31.2833 134.629 31.1411 134.802 31.0279C134.981 30.9112 135.163 30.8114 135.4 30.7728C135.636 30.7342 135.938 30.755 136.356 30.9018L136.439 30.666ZM133.48 31.1704C132.86 31.0143 132.13 30.96 131.65 31.0398C131.529 31.0598 131.418 31.0892 131.328 31.1308C131.239 31.1716 131.155 31.2302 131.108 31.3161C131.058 31.4086 131.061 31.5114 131.104 31.6105C131.145 31.7048 131.224 31.7987 131.332 31.8935L131.497 31.7055C131.402 31.622 131.353 31.5566 131.333 31.5101C131.315 31.4683 131.321 31.4485 131.328 31.4361C131.338 31.417 131.367 31.388 131.432 31.3581C131.495 31.329 131.582 31.3044 131.691 31.2864C132.127 31.2139 132.821 31.2623 133.419 31.4129L133.48 31.1704ZM131.333 31.8938C131.539 32.0733 131.78 32.2556 132.014 32.4439C132.25 32.6345 132.486 32.8361 132.695 33.064C133.111 33.5171 133.422 34.0724 133.422 34.8463H133.672C133.672 33.994 133.325 33.3811 132.879 32.8949C132.657 32.6532 132.41 32.4423 132.171 32.2492C131.928 32.0537 131.699 31.8808 131.497 31.7052L131.333 31.8938ZM133.422 34.8463C133.422 35.285 133.581 35.6082 133.834 35.8142C134.083 36.0177 134.409 36.0962 134.726 36.0756C135.351 36.035 136.014 35.5957 136.014 34.8463H135.764C135.764 35.4177 135.255 35.7907 134.71 35.8261C134.441 35.8435 134.182 35.7759 133.992 35.6206C133.805 35.468 133.672 35.2198 133.672 34.8463H133.422ZM136.014 34.8463C136.014 34.687 136.033 34.593 136.058 34.5412C136.07 34.5173 136.081 34.5059 136.089 34.5C136.097 34.4943 136.109 34.4893 136.128 34.4875C136.171 34.4834 136.241 34.4972 136.349 34.5425C136.454 34.5867 136.58 34.6538 136.728 34.739C137.319 35.0771 138.225 35.6709 139.414 35.9799L139.477 35.738C138.328 35.4394 137.456 34.8679 136.853 34.5221C136.703 34.4363 136.566 34.3625 136.446 34.3121C136.329 34.2629 136.211 34.2284 136.104 34.2386C136.048 34.244 135.993 34.2617 135.944 34.2965C135.896 34.3311 135.86 34.3778 135.833 34.4318C135.783 34.5356 135.764 34.676 135.764 34.8463H136.014ZM139.414 35.9799C139.989 36.1304 140.307 36.2961 140.501 36.454C140.694 36.6102 140.772 36.7644 140.862 36.925C140.955 37.0896 141.059 37.2595 141.305 37.3866C141.542 37.5091 141.901 37.5866 142.49 37.6129L142.501 37.3631C141.922 37.3373 141.608 37.2616 141.42 37.1645C141.24 37.072 141.166 36.9559 141.081 36.8028C140.993 36.6457 140.893 36.4504 140.659 36.26C140.427 36.0714 140.072 35.8935 139.477 35.738L139.414 35.9799ZM142.49 37.6129C143.64 37.6635 145.532 38.1163 147.396 38.7498C149.261 39.3835 151.074 40.1901 152.074 40.9373L152.224 40.737C151.191 39.9652 149.346 39.1486 147.476 38.5131C145.606 37.8775 143.687 37.4153 142.501 37.3631L142.49 37.6129ZM152.074 40.9372C152.572 41.3102 152.851 41.6461 153.014 41.9575C153.176 42.2688 153.228 42.5648 153.259 42.8699C153.321 43.4832 153.295 44.1392 153.99 44.8877L154.173 44.7176C153.545 44.0412 153.571 43.4768 153.508 42.8448C153.475 42.5272 153.419 42.1944 153.235 41.8418C153.051 41.4894 152.744 41.1265 152.224 40.7371L152.074 40.9372ZM153.99 44.8878C154.644 45.5909 155.051 46.3258 155.086 46.8663C155.103 47.1303 155.031 47.3362 154.868 47.4792C154.702 47.6258 154.419 47.7245 153.977 47.7245V47.9745C154.45 47.9745 154.803 47.8697 155.033 47.6669C155.268 47.4603 155.356 47.1706 155.335 46.8503C155.295 46.2222 154.839 45.4337 154.173 44.7176L153.99 44.8878ZM153.977 47.7245C153.025 47.7245 152.057 48.1978 151.393 48.7829C151.061 49.076 150.797 49.4033 150.65 49.7234C150.503 50.0419 150.463 50.3728 150.617 50.6501L150.835 50.529C150.736 50.3491 150.747 50.109 150.877 49.828C151.005 49.5486 151.244 49.2481 151.559 48.9704C152.19 48.4141 153.101 47.9745 153.977 47.9745V47.7245ZM150.617 50.6503C150.707 50.8136 150.904 50.9034 151.125 50.9562C151.354 51.0108 151.647 51.0344 151.978 51.0368C152.643 51.0416 153.492 50.9613 154.363 50.8532C155.235 50.7451 156.136 50.6082 156.905 50.4989C157.678 50.3889 158.309 50.308 158.652 50.308V50.058C158.287 50.058 157.636 50.1423 156.869 50.2514C156.098 50.3612 155.201 50.4973 154.332 50.6051C153.463 50.713 152.628 50.7915 151.98 50.7868C151.656 50.7844 151.385 50.7612 151.183 50.713C150.974 50.6631 150.871 50.5941 150.835 50.5289L150.617 50.6503ZM158.652 50.308C158.849 50.308 159.057 50.3951 159.295 50.5627C159.533 50.73 159.787 50.9677 160.074 51.2499C160.646 51.8102 161.337 52.5339 162.244 53.1414L162.383 52.9337C161.5 52.3422 160.828 51.6386 160.249 51.0714C159.962 50.7899 159.695 50.5387 159.439 50.3582C159.183 50.1779 158.923 50.058 158.652 50.058V50.308ZM162.438 53.0376V31.3562H162.188V53.0376H162.438ZM162.353 31.2378C160.158 30.4985 157.529 29.4464 155.286 28.587C154.166 28.1577 153.141 27.7764 152.318 27.5074C151.906 27.3729 151.542 27.2659 151.241 27.195C150.943 27.1248 150.695 27.0871 150.518 27.0987L150.534 27.3481C150.671 27.3391 150.889 27.3689 151.184 27.4383C151.475 27.507 151.831 27.6116 152.24 27.7451C153.057 28.0119 154.076 28.3913 155.197 28.8204C157.434 29.6777 160.072 30.7332 162.273 31.4747L162.353 31.2378ZM106.457 52.8709C106.158 53.0731 105.808 53.2286 105.383 53.3251L105.439 53.5689C105.892 53.4658 106.271 53.2984 106.597 53.078L106.457 52.8709ZM105.293 53.4046C105.224 53.5975 105.158 53.7904 105.081 53.9597C105.003 54.1307 104.92 54.2583 104.828 54.33L104.981 54.5277C105.123 54.4175 105.226 54.2435 105.308 54.0637C105.391 53.8822 105.462 53.6752 105.529 53.4894L105.293 53.4046ZM104.827 54.3304C104.79 54.3596 104.744 54.3706 104.68 54.3588C104.612 54.3463 104.529 54.3088 104.435 54.2466C104.248 54.1226 104.047 53.922 103.875 53.7269L103.687 53.8922C103.863 54.0918 104.082 54.3125 104.297 54.4552C104.405 54.5264 104.52 54.5836 104.635 54.6047C104.754 54.6264 104.876 54.6097 104.981 54.5273L104.827 54.3304ZM103.733 53.6941C102.721 54.1144 101.947 54.929 101.601 55.7395C101.427 56.1449 101.357 56.5581 101.427 56.9247C101.499 57.2959 101.712 57.6116 102.088 57.812L102.206 57.5914C101.899 57.4278 101.73 57.177 101.673 56.8777C101.615 56.5738 101.67 56.2124 101.83 55.8378C102.151 55.0882 102.876 54.3207 103.829 53.925L103.733 53.6941ZM102.088 57.812C102.812 58.1979 103.675 57.8667 104.457 57.3239C105.249 56.7743 106.008 55.9734 106.557 55.3162L106.365 55.1559C105.822 55.8064 105.079 56.5876 104.315 57.1185C103.54 57.6563 102.792 57.9041 102.205 57.5914L102.088 57.812ZM106.557 55.3159C106.736 55.1007 106.894 54.9023 107.023 54.7299L106.823 54.5799C106.697 54.7479 106.542 54.9429 106.365 55.1563L106.557 55.3159ZM107.023 54.7299C107.087 54.6457 107.196 54.5505 107.34 54.4467L107.194 54.2438C107.045 54.3513 106.91 54.4644 106.823 54.5799L107.023 54.7299ZM107.344 54.4438C107.438 54.3705 107.547 54.2989 107.671 54.2276L107.547 54.0108C107.416 54.0863 107.296 54.1643 107.19 54.2466L107.344 54.4438ZM107.711 54.0465C107.388 53.5958 106.973 53.1494 106.601 52.874L106.453 53.0749C106.798 53.3307 107.196 53.7562 107.508 54.1919L107.711 54.0465ZM78.3313 26.9293C80.2217 25.7729 80.6255 23.5714 80.4198 21.5267L80.171 21.5517C80.3735 23.5634 79.9667 25.6358 78.2008 26.716L78.3313 26.9293ZM80.4198 21.5269C80.3753 21.0773 80.5949 20.7281 80.9942 20.4359C81.3973 20.1409 81.9679 19.9173 82.5818 19.7276C83.2014 19.536 83.8271 19.3893 84.3758 19.2296C84.645 19.1513 84.8912 19.0708 85.0942 18.9829C85.2942 18.8963 85.4664 18.7966 85.5745 18.673L85.3863 18.5084C85.316 18.5888 85.1861 18.6707 84.9948 18.7535C84.8064 18.8351 84.5721 18.9121 84.306 18.9896C83.7841 19.1414 83.1205 19.2994 82.5079 19.4887C81.8896 19.6798 81.2852 19.9132 80.8465 20.2342C80.4039 20.5581 80.1149 20.984 80.171 21.5515L80.4198 21.5269ZM85.5744 18.6731C85.7868 18.431 85.8138 18.1478 85.7196 17.8659C85.6278 17.5917 85.4214 17.3151 85.1612 17.0553C84.6392 16.5342 83.8629 16.0437 83.1937 15.7342L83.0887 15.9611C83.7397 16.2622 84.489 16.7375 84.9846 17.2323C85.2333 17.4805 85.4086 17.7244 85.4825 17.9452C85.5538 18.1584 85.5301 18.3445 85.3865 18.5082L85.5744 18.6731ZM83.1934 15.7341C82.8874 15.5934 82.7339 15.418 82.6521 15.228C82.5676 15.0315 82.5538 14.8069 82.5537 14.5541C82.5533 14.0672 82.6127 13.465 82.1053 13.0142L81.9392 13.2011C82.3452 13.5618 82.3033 14.0259 82.3037 14.5542C82.3038 14.809 82.316 15.0793 82.4225 15.3268C82.5317 15.5806 82.7342 15.7981 83.089 15.9613L83.1934 15.7341ZM82.1051 13.014C81.6578 12.6179 81.0588 11.8929 80.737 11.2608C80.574 10.9404 80.4947 10.6679 80.5185 10.4808C80.5296 10.3927 80.5628 10.3292 80.6174 10.2837C80.674 10.2364 80.7666 10.1979 80.9154 10.1869L80.8971 9.93762C80.7155 9.95093 80.5666 10.0004 80.4572 10.0918C80.3456 10.1849 80.2881 10.3106 80.2705 10.4493C80.2366 10.7158 80.3474 11.0466 80.5142 11.3742C80.8521 12.0379 81.4719 12.7872 81.9394 13.2012L82.1051 13.014ZM80.9161 10.1869C81.0931 10.1729 81.2349 10.1287 81.3317 10.0406C81.4337 9.94782 81.4658 9.8253 81.4616 9.70251C81.4575 9.58371 81.4196 9.45493 81.3711 9.32825C81.3222 9.20033 81.2581 9.06336 81.1951 8.92804C81.0654 8.64977 80.9423 8.38013 80.9135 8.14522C80.8994 8.03078 80.9093 7.93365 80.9457 7.85222C80.9814 7.7725 81.0476 7.69654 81.1671 7.63166L81.0478 7.41196C80.8875 7.49898 80.7789 7.61308 80.7175 7.75007C80.657 7.88535 80.6477 8.03159 80.6653 8.17566C80.6999 8.45776 80.8437 8.76573 80.9684 9.0336C81.0326 9.17136 81.0925 9.29959 81.1376 9.41751C81.1832 9.53665 81.2091 9.63434 81.2117 9.71113C81.2142 9.78392 81.196 9.82611 81.1635 9.85566C81.1259 9.8899 81.0491 9.92561 80.8964 9.93767L80.9161 10.1869ZM81.1679 7.63119C81.3161 7.54927 81.4882 7.46394 81.6718 7.37439L81.5622 7.14969C81.3787 7.23919 81.2013 7.32704 81.0469 7.41243L81.1679 7.63119ZM81.6726 7.15008C81.336 6.983 81.0182 6.84192 80.7354 6.74237C80.4547 6.64355 80.1991 6.58227 79.99 6.58227V6.83227C80.1568 6.83227 80.3807 6.88254 80.6524 6.97819C80.9221 7.07309 81.2298 7.20939 81.5614 7.374L81.6726 7.15008ZM79.99 6.58227C79.1933 6.58227 77.7988 6.48021 76.639 6.71183C76.0573 6.82799 75.5162 7.03088 75.1323 7.38641C74.7424 7.74746 74.5265 8.25507 74.579 8.94898L74.8283 8.93011C74.781 8.30535 74.9731 7.87459 75.3021 7.56984C75.6372 7.25957 76.1259 7.06922 76.6879 6.95699C77.8155 6.73181 79.164 6.83227 79.99 6.83227V6.58227ZM74.579 8.94931C74.6294 9.59198 74.5175 9.99364 74.3408 10.262C74.1635 10.5312 73.9098 10.684 73.638 10.8074C73.4966 10.8716 73.3695 10.92 73.2307 10.9804C73.0991 11.0376 72.9692 11.101 72.8587 11.1828C72.7467 11.2659 72.6517 11.3702 72.5939 11.5097C72.5363 11.6488 72.5201 11.8122 72.5476 12.0068L72.7951 11.9718C72.7723 11.8101 72.7883 11.6936 72.8249 11.6053C72.8613 11.5175 72.9223 11.4469 73.0076 11.3837C73.0944 11.3193 73.2029 11.2651 73.3304 11.2096C73.4507 11.1573 73.6032 11.0978 73.7414 11.035C74.0287 10.9046 74.3337 10.7273 74.5496 10.3995C74.7659 10.0709 74.8814 9.60872 74.8283 8.92978L74.579 8.94931ZM72.5476 12.007C72.5954 12.3401 72.5477 12.5833 72.4557 12.7901C72.3613 13.0027 72.2196 13.1801 72.0633 13.3883C71.9096 13.593 71.7474 13.8211 71.6391 14.1187C71.5302 14.418 71.478 14.7802 71.531 15.254L71.7794 15.2262C71.7303 14.7864 71.7797 14.4634 71.874 14.2043C71.969 13.9435 72.1118 13.7401 72.2632 13.5384C72.412 13.3403 72.5754 13.1365 72.6842 12.8916C72.7956 12.641 72.8494 12.3503 72.7951 11.9715L72.5476 12.007ZM71.531 15.2541C71.5819 15.7044 71.5406 15.9622 71.4452 16.1229C71.3529 16.2782 71.1949 16.3679 70.938 16.4413C70.4347 16.5852 69.5816 16.647 68.5508 17.1624L68.6627 17.386C69.6686 16.883 70.4432 16.8428 71.0067 16.6817C71.2833 16.6027 71.5184 16.4892 71.6601 16.2506C71.7986 16.0175 71.832 15.6908 71.7794 15.226L71.531 15.2541ZM68.551 17.1623C68.0478 17.4131 67.741 17.4895 67.5323 17.4809C67.3346 17.4728 67.2097 17.388 67.0657 17.2559C66.9234 17.1253 66.7544 16.9372 66.4968 16.7915C66.2337 16.6426 65.8815 16.5372 65.3556 16.5372V16.7872C65.8459 16.7872 66.1542 16.8849 66.3737 17.0091C66.5986 17.1363 66.7343 17.2911 66.8967 17.4401C67.0574 17.5876 67.2372 17.719 67.522 17.7307C67.7959 17.742 68.1495 17.6417 68.6625 17.3861L68.551 17.1623ZM65.3556 16.5372C64.3131 16.5372 63.7301 16.7998 63.2535 17.1174C62.7737 17.4371 62.4486 17.7702 61.8596 17.9657L61.9384 18.203C62.5697 17.9934 62.9567 17.6155 63.3921 17.3254C63.8307 17.0332 64.3659 16.7872 65.3556 16.7872V16.5372ZM61.8598 17.9657C61.5723 18.0606 61.206 18.0982 60.7965 18.1075C60.3878 18.1168 59.9482 18.098 59.5139 18.0853C59.0825 18.0726 58.6563 18.066 58.2857 18.1015C57.9186 18.1367 57.5849 18.2149 57.3529 18.3877L57.5023 18.5882C57.6771 18.458 57.9529 18.3846 58.3096 18.3504C58.6627 18.3165 59.0745 18.3225 59.5065 18.3352C59.9357 18.3477 60.385 18.3669 60.8022 18.3574C61.2185 18.3479 61.6148 18.3099 61.9382 18.2031L61.8598 17.9657ZM57.3525 18.3881C57.1984 18.5039 57.022 18.5033 56.8044 18.4093C56.5819 18.3131 56.3404 18.1282 56.0861 17.9127C55.838 17.7024 55.5757 17.461 55.3303 17.2775C55.0885 17.0966 54.8302 16.9452 54.5818 16.9452V17.1952C54.7402 17.1952 54.9395 17.2973 55.1806 17.4777C55.4182 17.6554 55.6643 17.8829 55.9244 18.1034C56.1784 18.3186 56.445 18.5263 56.7052 18.6388C56.9702 18.7533 57.2508 18.7773 57.5027 18.5879L57.3525 18.3881ZM54.5818 16.9452C54.5368 16.9452 54.4689 16.9139 54.3802 16.8018C54.2946 16.6935 54.208 16.5324 54.1229 16.3295C53.9534 15.9251 53.8015 15.3829 53.6741 14.8402L53.4308 14.8973C53.5589 15.4437 53.7146 16.0022 53.8924 16.4262C53.981 16.6376 54.0779 16.8226 54.1842 16.9569C54.2874 17.0875 54.4198 17.1952 54.5818 17.1952V16.9452ZM53.5748 14.7458C53.4284 14.7192 53.2826 14.6988 53.1494 14.7089L53.1684 14.9582C53.2672 14.9507 53.3858 14.9655 53.5301 14.9918L53.5748 14.7458ZM53.1491 14.7089C52.7745 14.7385 52.3636 15.002 51.9873 15.3675C51.6061 15.7376 51.2411 16.2309 50.9591 16.7573C50.6776 17.283 50.4747 17.8494 50.4256 18.3662C50.3765 18.8825 50.4802 19.3681 50.8373 19.7007L51.0077 19.5178C50.7289 19.2581 50.6294 18.8637 50.6745 18.3898C50.7194 17.9164 50.9079 17.3825 51.1795 16.8753C51.4508 16.3689 51.8009 15.8969 52.1614 15.5468C52.5267 15.1921 52.884 14.9807 53.1688 14.9582L53.1491 14.7089ZM50.8373 19.7007C51.5706 20.3842 51.8443 21.2653 52.0208 22.1346C52.0649 22.3518 52.1027 22.5667 52.1404 22.7777C52.178 22.9881 52.2156 23.1947 52.2589 23.3918C52.3451 23.7846 52.4562 24.1514 52.645 24.4502L52.8563 24.3167C52.6913 24.0555 52.5876 23.7234 52.5031 23.3382C52.461 23.1464 52.4242 22.9443 52.3865 22.7337C52.349 22.5238 52.3106 22.3056 52.2658 22.0848C52.0866 21.2025 51.8001 20.2564 51.0077 19.5178L50.8373 19.7007ZM52.6453 24.4507C52.838 24.7526 53.1295 24.9864 53.4435 25.1982C53.601 25.3044 53.7677 25.4073 53.9329 25.5106C54.0989 25.6144 54.2643 25.7191 54.4236 25.8311C54.7424 26.0554 55.0305 26.3049 55.2394 26.6229C55.4469 26.9387 55.5802 27.3278 55.5802 27.8382H55.8302C55.8302 27.2802 55.6833 26.8431 55.4483 26.4856C55.2148 26.1301 54.8981 25.8592 54.5675 25.6267C54.4021 25.5103 54.2316 25.4025 54.0654 25.2986C53.8983 25.1941 53.7362 25.0941 53.5833 24.9909C53.2764 24.784 53.0202 24.5735 52.8561 24.3162L52.6453 24.4507ZM55.5802 27.8382C55.5802 28.9344 56.0723 30.3286 56.7292 31.3337C57.0576 31.8364 57.435 32.2538 57.8248 32.4867C58.2191 32.7222 58.6426 32.7758 59.0258 32.5113L58.8838 32.3056C58.6055 32.4976 58.292 32.4746 57.953 32.272C57.6094 32.0668 57.257 31.6845 56.9385 31.197C56.3013 30.2219 55.8302 28.8746 55.8302 27.8382H55.5802ZM59.0259 32.5113C59.3373 32.2959 59.6224 32.2176 59.8789 32.2262C60.1364 32.2349 60.3769 32.3317 60.597 32.4862C61.0409 32.7978 61.3848 33.3326 61.5837 33.7774L61.8119 33.6754C61.604 33.2103 61.2365 32.6297 60.7406 32.2816C60.4908 32.1062 60.2043 31.9871 59.8873 31.9764C59.5693 31.9657 59.2323 32.0646 58.8837 32.3056L59.0259 32.5113ZM61.5836 33.7771C61.6515 33.93 61.7765 34.0252 61.9288 34.0774C62.0776 34.1285 62.2563 34.1404 62.448 34.1297C62.8313 34.1084 63.3068 33.9937 63.7893 33.8605C64.2781 33.7254 64.7724 33.5719 65.2157 33.4626C65.436 33.4083 65.6389 33.3663 65.8166 33.3438C65.9957 33.3212 66.1409 33.3197 66.249 33.3412L66.2978 33.096C66.1511 33.0668 65.975 33.0718 65.7852 33.0958C65.594 33.12 65.3805 33.1645 65.1558 33.2199C64.7092 33.33 64.1995 33.4878 63.7227 33.6195C63.2395 33.753 62.7876 33.8604 62.4341 33.8801C62.2573 33.8899 62.1152 33.8771 62.0099 33.841C61.9082 33.8061 61.8458 33.7518 61.812 33.6757L61.5836 33.7771ZM66.2486 33.3411C66.7575 33.4441 67.7896 33.6466 68.72 33.9737C69.1856 34.1373 69.6189 34.3299 69.9463 34.5526C70.2768 34.7775 70.4782 35.0185 70.5217 35.2724L70.7681 35.2301C70.7074 34.8757 70.437 34.5841 70.0869 34.3459C69.7337 34.1056 69.2773 33.9046 68.8029 33.7378C67.8534 33.404 66.8041 33.1985 66.2982 33.0961L66.2486 33.3411ZM70.5216 35.2716C70.5513 35.4515 70.6322 35.5934 70.7602 35.6939C70.8854 35.7922 71.0456 35.8429 71.2222 35.8627C71.5723 35.9018 72.0266 35.8228 72.5181 35.6887C73.5027 35.4199 74.7103 34.9071 75.6659 34.557L75.5799 34.3223C74.6044 34.6796 73.4237 35.1824 72.4523 35.4475C71.9659 35.5803 71.5503 35.6478 71.2499 35.6142C71.1012 35.5976 70.991 35.5572 70.9145 35.4972C70.8409 35.4394 70.7889 35.3559 70.7682 35.2309L70.5216 35.2716ZM75.6662 34.5569C76.2076 34.3568 76.5148 33.8085 76.7121 33.1404C76.9108 32.4674 77.01 31.6303 77.105 30.795C77.2006 29.9538 77.292 29.1132 77.4723 28.413C77.6539 27.708 77.9174 27.1805 78.3309 26.9295L78.2012 26.7158C77.6984 27.021 77.4146 27.6347 77.2302 28.3507C77.0446 29.0715 76.9515 29.9318 76.8566 30.7667C76.761 31.6074 76.6637 32.4215 76.4723 33.0696C76.2794 33.7228 76.0029 34.1659 75.5795 34.3224L75.6662 34.5569ZM85.7813 55.3332C86.1135 55.8316 86.741 56.0702 87.3332 56.2593C87.6373 56.3563 87.9317 56.4398 88.2001 56.5387C88.4679 56.6374 88.6927 56.7457 88.854 56.8837L89.0165 56.6937C88.8209 56.5264 88.5623 56.4058 88.2866 56.3042C88.0115 56.2028 87.7022 56.1147 87.4092 56.0211C86.8072 55.8289 86.2665 55.6104 85.9893 55.1945L85.7813 55.3332ZM88.8541 56.8838C89.2228 57.1984 90.0525 57.6902 90.7968 57.8861C91.1662 57.9834 91.5408 58.0149 91.8299 57.8883C91.9782 57.8233 92.1017 57.7176 92.1866 57.5646C92.2705 57.4133 92.3128 57.2229 92.3128 56.9927H92.0628C92.0628 57.1936 92.0258 57.3391 91.968 57.4433C91.9111 57.5458 91.8306 57.615 91.7296 57.6593C91.5202 57.751 91.2151 57.7377 90.8604 57.6443C90.1565 57.459 89.3599 56.9866 89.0164 56.6936L88.8541 56.8838ZM92.3128 56.9927C92.3128 56.7318 92.1808 56.497 91.978 56.2923C91.7753 56.0877 91.4921 55.9029 91.1639 55.7384C90.5068 55.4092 89.644 55.149 88.808 54.9761C87.9723 54.8033 87.1526 54.7157 86.5799 54.7369C86.2984 54.7473 86.0565 54.7843 85.9037 54.8645C85.8259 54.9053 85.7519 54.9676 85.7245 55.0618C85.6965 55.1583 85.7276 55.2525 85.7813 55.3331L85.9894 55.1946C85.9742 55.1717 85.9678 55.1554 85.9654 55.1454C85.9633 55.1362 85.9643 55.1325 85.9646 55.1315C85.9651 55.1297 85.9716 55.1112 86.0199 55.0859C86.1192 55.0338 86.3115 54.9969 86.5891 54.9867C87.1347 54.9665 87.9329 55.0505 88.7574 55.221C89.5817 55.3914 90.4214 55.646 91.0519 55.9619C91.3674 56.12 91.6242 56.2904 91.8004 56.4683C91.9767 56.6462 92.0628 56.8214 92.0628 56.9927H92.3128ZM80.6873 50.2354C80.5117 50.6351 80.0317 50.9016 79.4416 50.975C78.8563 51.0479 78.202 50.9241 77.7238 50.5884L77.5802 50.793C78.1182 51.1706 78.8376 51.3022 79.4725 51.2231C80.1027 51.1447 80.6895 50.852 80.9162 50.3359L80.6873 50.2354ZM77.7233 50.5881C77.4368 50.389 77.1285 50.3564 76.8439 50.4368C76.5632 50.516 76.3104 50.7031 76.1178 50.9366C75.7402 51.3945 75.5508 52.0952 75.9266 52.5945L76.1264 52.4442C75.8516 52.0791 75.9669 51.5125 76.3107 51.0957C76.4788 50.8919 76.6908 50.7398 76.9118 50.6774C77.1289 50.6161 77.3592 50.6395 77.5807 50.7934L77.7233 50.5881ZM75.9264 52.5943C76.0148 52.7124 76.2184 52.8996 76.5062 53.0937C76.7969 53.2897 77.1814 53.4983 77.6375 53.6547C78.5513 53.968 79.7546 54.0726 81.06 53.4466L80.9519 53.2212C79.7168 53.8134 78.5831 53.7147 77.7186 53.4182C77.2857 53.2697 76.9207 53.0717 76.646 52.8864C76.3685 52.6992 76.1909 52.5304 76.1265 52.4445L75.9264 52.5943ZM81.0598 53.4467C82.3063 52.8504 83.3503 52.8248 84.1762 52.7862C84.5853 52.7672 84.9565 52.7447 85.2641 52.6376C85.5817 52.5269 85.8312 52.3265 85.9989 51.9643L85.772 51.8593C85.6343 52.1567 85.439 52.3119 85.1819 52.4015C84.9146 52.4946 84.581 52.5171 84.1645 52.5365C83.3392 52.575 82.2488 52.6008 80.952 53.2212L81.0598 53.4467ZM85.999 51.9641C86.0941 51.7581 86.0716 51.5526 85.9682 51.3649C85.8679 51.1828 85.6921 51.0171 85.4764 50.869C85.0439 50.5721 84.4127 50.32 83.7583 50.1405C83.1027 49.9607 82.412 49.8505 81.8555 49.8439C81.5779 49.8406 81.327 49.8629 81.1285 49.9189C80.9348 49.9736 80.7618 50.0689 80.6877 50.2346L80.9159 50.3367C80.9439 50.2742 81.0253 50.2078 81.1964 50.1595C81.3626 50.1126 81.5868 50.0907 81.8525 50.0939C82.3827 50.1002 83.0517 50.2059 83.6922 50.3816C84.3339 50.5576 84.9351 50.8007 85.3349 51.0751C85.5353 51.2127 85.6756 51.3518 85.7493 51.4855C85.8199 51.6137 85.8292 51.7353 85.772 51.8594L85.999 51.9641Z" fill="#868686"/>
</g>
<defs>
<filter id="filter0_d_6252_1358" x="0.640137" y="0.0396729" width="165.798" height="63.9397" filterUnits="userSpaceOnUse" color-interpolation-filters="sRGB">
<feFlood flood-opacity="0" result="BackgroundImageFix"/>
<feColorMatrix in="SourceAlpha" type="matrix" values="0 0 0 0 0 0 0 0 0 0 0 0 0 0 0 0 0 0 127 0" result="hardAlpha"/>
<feOffset dy="2"/>
<feGaussianBlur stdDeviation="2"/>
<feColorMatrix type="matrix" values="0 0 0 0 0 0 0 0 0 0 0 0 0 0 0 0 0 0 0.01 0"/>
<feBlend mode="normal" in2="BackgroundImageFix" result="effect1_dropShadow_6252_1358"/>
<feBlend mode="normal" in="SourceGraphic" in2="effect1_dropShadow_6252_1358" result="shape"/>
</filter>
</defs>
</svg>
