<svg width="105" height="110" viewBox="0 0 105 110" fill="none" xmlns="http://www.w3.org/2000/svg">
<g filter="url(#filter0_d_6252_1080)">
<path fill-rule="evenodd" clip-rule="evenodd" d="M73.2439 48.6252C72.6286 47.1854 72.2131 44.507 72.4186 43.4797C72.6257 42.4538 73.8592 43.2727 74.2718 42.0429C74.6844 40.8042 70.7711 40.8042 72.006 39.1575C73.2439 37.5137 73.2439 39.1575 74.8885 39.1575C76.539 39.1575 77.1528 39.9823 77.1528 41.0111C77.1528 42.0429 78.8048 42.6578 78.8048 42.6578C78.8048 42.6578 81.4788 42.4538 82.7182 42.4538C83.9546 42.4538 85.1866 42.4538 85.1866 43.2742C85.1866 44.099 83.7475 46.776 82.5111 46.776C81.2747 46.776 81.2747 50.2733 82.307 50.4759C83.3349 50.6843 84.1572 47.8033 84.774 47.8033C85.2189 47.8033 85.5581 51.0703 86.1646 54.437C86.3246 54.2477 86.492 54.1112 86.6668 54.1112C87.4817 54.1112 87.0735 51.2625 87.6183 50.4465C88.1602 49.632 87.89 47.0578 88.2982 47.0578C88.7035 47.0578 91.1469 47.8708 91.0118 47.1942C90.8753 46.5147 92.5052 44.2076 92.2336 42.988C91.959 41.7699 93.1836 40.2744 93.1836 38.7847C93.1836 37.2921 94.5405 36.8841 95.4905 36.0696C96.4377 35.2551 98.0676 34.1719 98.3393 34.85C98.6124 35.5266 100.645 36.0696 99.8327 34.85C99.0162 33.6275 99.0162 32.8173 99.5595 32.5458C100.104 32.2714 100.376 30.9167 100.376 30.9167C100.376 30.9167 98.6124 30.6438 98.3393 29.8322C98.0662 29.0205 96.9795 28.2075 96.9795 27.528C96.9795 26.8485 96.0309 27.12 95.2174 27.7995C94.401 28.479 92.9105 26.9864 91.1455 27.9374C89.3819 28.8855 88.9737 29.9672 88.1601 29.8336C87.3452 29.6957 87.4803 30.5131 86.8019 31.1897C86.1249 31.8692 85.5801 32.6838 85.1749 32.6838C84.7696 32.6838 83.4098 33.3633 83.4098 33.3633C83.4098 33.3633 84.3613 35.3959 83.818 36.344C83.2747 37.2951 81.9149 36.344 80.426 36.7535C78.9311 37.16 78.2527 36.209 77.1646 36.4791C76.0809 36.7535 75.4025 35.7995 74.8606 35.9375C74.3173 36.0725 73.5023 34.715 73.774 33.6304C74.0471 32.5487 73.2307 31.0547 72.6888 31.8692C72.144 32.6838 71.3335 32.2743 71.3335 33.4968C71.3335 34.715 72.0119 36.209 71.1969 37.0221C70.3819 37.8352 66.0383 38.2446 65.2263 37.5651C64.4084 36.8856 60.8827 36.4791 60.7461 35.7995C60.611 35.1215 59.5244 33.9034 58.846 33.9034C58.1661 33.9034 56.1294 34.8515 55.589 34.4449C55.0457 34.0384 53.6859 32.9523 52.7388 32.8202C51.7873 32.6823 50.2939 32.0028 50.1588 31.4612C50.0222 30.9182 47.8519 30.6452 47.4437 30.1037C47.0369 29.5606 45.6801 29.4286 45.6801 28.749C45.6801 28.071 46.2234 26.9864 46.2234 26.1704C46.2234 25.3515 47.8504 24.5457 47.8504 23.9998C47.8504 23.4582 46.36 22.5043 46.36 22.5043C46.36 22.5043 45.4084 20.7416 44.3218 20.7416C43.2352 20.7416 42.4202 18.8455 41.473 18.7104C40.523 18.5739 40.7932 16.6748 40.2513 15.9953C39.7109 15.3158 40.1162 13.6911 41.0663 14.5027C42.0149 15.3158 43.7814 14.5027 43.1015 13.2817C42.4216 12.0606 41.2014 10.9804 41.2014 10.3009C41.2014 9.61992 42.0178 7.58431 41.0663 7.03982C40.1177 6.5012 39.3012 5.68519 39.0296 4.73857C38.7579 3.78754 37.6698 3.1095 37.6698 3.1095L36.3145 3.24599C36.3145 3.24599 35.4995 5.41662 34.9562 5.68666C34.4143 5.95817 32.5127 6.36471 31.5626 7.04128C30.614 7.71933 27.9019 6.09319 26.4085 6.09319C24.9121 6.09319 23.9606 7.58578 24.6405 7.99378C25.3218 8.39884 25.1853 11.2461 25.1853 11.2461C25.1853 11.2461 26.0002 14.7742 27.2205 14.5042C28.4422 14.2342 29.9371 15.7238 28.849 15.9968C27.7638 16.2683 27.2205 17.4894 27.0854 18.5754C26.9488 19.6585 27.2205 21.0131 26.4085 21.1511C25.5935 21.2861 24.7785 21.5576 24.7785 23.0502C24.7785 24.5457 23.0149 24.1377 22.7433 24.6764C22.4702 25.2208 21.7932 27.936 21.3835 28.341C20.9782 28.7476 18.6684 28.8841 18.5333 30.1051C18.3967 31.3233 17.316 32.8188 16.6361 32.6808C15.9562 32.5458 14.733 32.0013 14.3277 32.8188C13.9195 33.6319 12.1574 32.1393 11.7506 32.5458C11.3424 32.9509 9.16916 34.7164 9.16916 35.7981C9.16916 36.8841 11.479 36.8841 11.341 38.2432C11.2059 39.5992 12.1574 41.0904 12.8373 41.7699C13.5128 42.4479 14.5979 44.0741 14.0546 44.8901C13.5128 45.7017 12.7007 45.8352 11.479 45.5652C10.2543 45.2922 10.3894 46.1067 8.21909 45.7017C6.04728 45.2937 5.91219 46.9227 5.09721 47.8723C5.04876 47.9325 4.97093 48.0161 4.87842 48.1233C5.90338 48.9334 6.3351 50.3775 8.03994 51.035C10.0223 51.7967 11.802 49.7626 11.802 51.2361C11.802 52.7111 7.12364 52.4073 7.02526 52.8622C6.9254 53.3216 11.849 59.2641 14.3424 58.8076C16.8299 58.3483 18.6611 55.6581 17.9489 55.2486C17.2382 54.8465 18.3556 53.1675 19.0194 53.4742C19.6772 53.778 19.1192 56.4183 19.8813 57.0274C20.6464 57.635 20.3909 58.7548 19.8813 60.1784C19.3747 61.6005 20.3909 64.389 20.5392 65.9682C20.6934 67.54 21.7609 69.8266 22.1177 72.1631C22.4731 74.5025 23.9459 78.7674 25.3218 81.3578C26.6933 83.9496 27.7565 89.0306 28.6698 90.2472C29.5861 91.4654 31.9268 95.1712 31.9268 97.4592C31.9268 99.7443 34.4173 102.941 35.2807 103.553C36.1441 104.162 38.0237 102.841 38.4819 101.42C38.9415 99.9967 41.5318 99.4361 41.683 98.218C41.8372 97.0013 42.0854 96.0371 43.0031 95.8815C43.9194 95.7289 43.9194 94.7661 43.9194 93.4452C43.9194 92.1258 44.0208 90.2458 44.9371 89.0775C45.8475 87.9078 46.0017 84.7583 45.4451 83.4888C44.8842 82.2222 45.1896 80.4435 45.6977 79.171C46.2043 77.9045 46.0017 76.428 46.9694 76.3268C47.9341 76.227 49.3556 75.3596 50.3717 73.9918C51.3908 72.618 54.4906 70.738 55.6066 69.8251C56.7241 68.9108 60.1309 65.9139 61.147 64.2379C62.1602 62.5589 65.056 62.0041 66.379 60.6304C67.7021 59.2611 67.191 58.5508 67.4451 57.0758C67.7035 55.6038 71.9693 54.9918 73.5948 54.9918C73.9282 54.9918 74.1998 54.9595 74.4495 54.9096C74.4304 52.5452 73.7167 49.7362 73.2439 48.6252Z" fill="white"/>
<path fill-rule="evenodd" clip-rule="evenodd" d="M73.2439 48.6252C72.6286 47.1854 72.2131 44.507 72.4186 43.4797C72.6257 42.4538 73.8592 43.2727 74.2718 42.0429C74.6844 40.8042 70.7711 40.8042 72.006 39.1575C73.2439 37.5137 73.2439 39.1575 74.8885 39.1575C76.539 39.1575 77.1528 39.9823 77.1528 41.0111C77.1528 42.0429 78.8048 42.6578 78.8048 42.6578C78.8048 42.6578 81.4788 42.4538 82.7182 42.4538C83.9546 42.4538 85.1866 42.4538 85.1866 43.2742C85.1866 44.099 83.7475 46.776 82.5111 46.776C81.2747 46.776 81.2747 50.2733 82.307 50.4759C83.3349 50.6843 84.1572 47.8033 84.774 47.8033C85.2189 47.8033 85.5581 51.0703 86.1646 54.437C86.3246 54.2477 86.492 54.1112 86.6668 54.1112C87.4817 54.1112 87.0735 51.2625 87.6183 50.4465C88.1602 49.632 87.89 47.0578 88.2982 47.0578C88.7035 47.0578 91.1469 47.8708 91.0118 47.1942C90.8753 46.5147 92.5052 44.2076 92.2336 42.988C91.959 41.7699 93.1836 40.2744 93.1836 38.7847C93.1836 37.2921 94.5405 36.8841 95.4905 36.0696C96.4377 35.2551 98.0676 34.1719 98.3393 34.85C98.6124 35.5266 100.645 36.0696 99.8327 34.85C99.0162 33.6275 99.0162 32.8173 99.5595 32.5458C100.104 32.2714 100.376 30.9167 100.376 30.9167C100.376 30.9167 98.6124 30.6438 98.3393 29.8322C98.0662 29.0205 96.9795 28.2075 96.9795 27.528C96.9795 26.8485 96.0309 27.12 95.2174 27.7995C94.401 28.479 92.9105 26.9864 91.1455 27.9374C89.3819 28.8855 88.9737 29.9672 88.1601 29.8336C87.3452 29.6957 87.4803 30.5131 86.8019 31.1897C86.1249 31.8692 85.5801 32.6838 85.1749 32.6838C84.7696 32.6838 83.4098 33.3633 83.4098 33.3633C83.4098 33.3633 84.3613 35.3959 83.818 36.344C83.2747 37.2951 81.9149 36.344 80.426 36.7535C78.9311 37.16 78.2527 36.209 77.1646 36.4791C76.0809 36.7535 75.4025 35.7995 74.8606 35.9375C74.3173 36.0725 73.5023 34.715 73.774 33.6304C74.0471 32.5487 73.2307 31.0547 72.6888 31.8692C72.144 32.6838 71.3335 32.2743 71.3335 33.4968C71.3335 34.715 72.0119 36.209 71.1969 37.0221C70.3819 37.8352 66.0383 38.2446 65.2263 37.5651C64.4084 36.8856 60.8827 36.4791 60.7461 35.7995C60.611 35.1215 59.5244 33.9034 58.846 33.9034C58.1661 33.9034 56.1294 34.8515 55.589 34.4449C55.0457 34.0384 53.6859 32.9523 52.7388 32.8202C51.7873 32.6823 50.2939 32.0028 50.1588 31.4612C50.0222 30.9182 47.8519 30.6452 47.4437 30.1037C47.0369 29.5606 45.6801 29.4286 45.6801 28.749C45.6801 28.071 46.2234 26.9864 46.2234 26.1704C46.2234 25.3515 47.8504 24.5457 47.8504 23.9998C47.8504 23.4582 46.36 22.5043 46.36 22.5043C46.36 22.5043 45.4084 20.7416 44.3218 20.7416C43.2352 20.7416 42.4202 18.8455 41.473 18.7104C40.523 18.5739 40.7932 16.6748 40.2513 15.9953C39.7109 15.3158 40.1162 13.6911 41.0663 14.5027C42.0149 15.3158 43.7814 14.5027 43.1015 13.2817C42.4216 12.0606 41.2014 10.9804 41.2014 10.3009C41.2014 9.61992 42.0178 7.58431 41.0663 7.03982C40.1177 6.5012 39.3012 5.68519 39.0296 4.73857C38.7579 3.78754 37.6698 3.1095 37.6698 3.1095L36.3145 3.24599C36.3145 3.24599 35.4995 5.41662 34.9562 5.68666C34.4143 5.95817 32.5127 6.36471 31.5626 7.04128C30.614 7.71933 27.9019 6.09319 26.4085 6.09319C24.9121 6.09319 23.9606 7.58578 24.6405 7.99378C25.3218 8.39884 25.1853 11.2461 25.1853 11.2461C25.1853 11.2461 26.0002 14.7742 27.2205 14.5042C28.4422 14.2342 29.9371 15.7238 28.849 15.9968C27.7638 16.2683 27.2205 17.4894 27.0854 18.5754C26.9488 19.6585 27.2205 21.0131 26.4085 21.1511C25.5935 21.2861 24.7785 21.5576 24.7785 23.0502C24.7785 24.5457 23.0149 24.1377 22.7433 24.6764C22.4702 25.2208 21.7932 27.936 21.3835 28.341C20.9782 28.7476 18.6684 28.8841 18.5333 30.1051C18.3967 31.3233 17.316 32.8188 16.6361 32.6808C15.9562 32.5458 14.733 32.0013 14.3277 32.8188C13.9195 33.6319 12.1574 32.1393 11.7506 32.5458C11.3424 32.9509 9.16916 34.7164 9.16916 35.7981C9.16916 36.8841 11.479 36.8841 11.341 38.2432C11.2059 39.5992 12.1574 41.0904 12.8373 41.7699C13.5128 42.4479 14.5979 44.0741 14.0546 44.8901C13.5128 45.7017 12.7007 45.8352 11.479 45.5652C10.2543 45.2922 10.3894 46.1067 8.21909 45.7017C6.04728 45.2937 5.91219 46.9227 5.09721 47.8723C5.04876 47.9325 4.97093 48.0161 4.87842 48.1233C5.90338 48.9334 6.3351 50.3775 8.03994 51.035C10.0223 51.7967 11.802 49.7626 11.802 51.2361C11.802 52.7111 7.12364 52.4073 7.02526 52.8622C6.9254 53.3216 11.849 59.2641 14.3424 58.8076C16.8299 58.3483 18.6611 55.6581 17.9489 55.2486C17.2382 54.8465 18.3556 53.1675 19.0194 53.4742C19.6772 53.778 19.1192 56.4183 19.8813 57.0274C20.6464 57.635 20.3909 58.7548 19.8813 60.1784C19.3747 61.6005 20.3909 64.389 20.5392 65.9682C20.6934 67.54 21.7609 69.8266 22.1177 72.1631C22.4731 74.5025 23.9459 78.7674 25.3218 81.3578C26.6933 83.9496 27.7565 89.0306 28.6698 90.2472C29.5861 91.4654 31.9268 95.1712 31.9268 97.4592C31.9268 99.7443 34.4173 102.941 35.2807 103.553C36.1441 104.162 38.0237 102.841 38.4819 101.42C38.9415 99.9967 41.5318 99.4361 41.683 98.218C41.8372 97.0013 42.0854 96.0371 43.0031 95.8815C43.9194 95.7289 43.9194 94.7661 43.9194 93.4452C43.9194 92.1258 44.0208 90.2458 44.9371 89.0775C45.8475 87.9078 46.0017 84.7583 45.4451 83.4888C44.8842 82.2222 45.1896 80.4435 45.6977 79.171C46.2043 77.9045 46.0017 76.428 46.9694 76.3268C47.9341 76.227 49.3556 75.3596 50.3717 73.9918C51.3908 72.618 54.4906 70.738 55.6066 69.8251C56.7241 68.9108 60.1309 65.9139 61.147 64.2379C62.1602 62.5589 65.056 62.0041 66.379 60.6304C67.7021 59.2611 67.191 58.5508 67.4451 57.0758C67.7035 55.6038 71.9693 54.9918 73.5948 54.9918C73.9282 54.9918 74.1998 54.9595 74.4495 54.9096C74.4304 52.5452 73.7167 49.7362 73.2439 48.6252Z" stroke="#868686" stroke-width="0.25"/>
</g>
<defs>
<filter id="filter0_d_6252_1080" x="0.69873" y="0.980835" width="103.826" height="108.849" filterUnits="userSpaceOnUse" color-interpolation-filters="sRGB">
<feFlood flood-opacity="0" result="BackgroundImageFix"/>
<feColorMatrix in="SourceAlpha" type="matrix" values="0 0 0 0 0 0 0 0 0 0 0 0 0 0 0 0 0 0 127 0" result="hardAlpha"/>
<feOffset dy="2"/>
<feGaussianBlur stdDeviation="2"/>
<feColorMatrix type="matrix" values="0 0 0 0 0 0 0 0 0 0 0 0 0 0 0 0 0 0 0.01 0"/>
<feBlend mode="normal" in2="BackgroundImageFix" result="effect1_dropShadow_6252_1080"/>
<feBlend mode="normal" in="SourceGraphic" in2="effect1_dropShadow_6252_1080" result="shape"/>
</filter>
</defs>
</svg>
