<svg width="76" height="66" viewBox="0 0 76 66" fill="none" xmlns="http://www.w3.org/2000/svg">
<g filter="url(#filter0_d_6252_1311)">
<path fill-rule="evenodd" clip-rule="evenodd" d="M70.1018 51.4418C69.2854 51.1703 70.1018 48.3217 68.4748 47.6422C66.8463 46.9626 65.3984 45.8634 64.9462 44.6629C64.5394 43.5753 62.5027 42.4878 62.6378 41.6748C62.7744 40.8632 66.7083 38.2831 66.165 36.7919C65.6217 35.3023 63.0446 35.5738 62.7729 35.0308C62.5012 34.4878 62.9109 32.5886 62.2311 31.0961C61.5512 29.6035 62.7729 28.2459 62.2311 27.4328C61.6892 26.6198 62.5027 24.9936 62.6363 24.4491C62.7729 23.9061 64.1283 23.0931 63.9932 21.7384C63.9139 20.9151 64.328 20.4 64.7582 20.1769C64.2913 18.8002 64.1429 16.3962 64.1429 15.9721C64.1429 15.4658 62.5203 15.4658 61.7054 15.5656C60.8919 15.6683 60.1811 13.6386 59.3676 13.6386C58.5541 13.6386 57.8419 13.028 57.8419 12.419C57.8419 11.8114 55.9124 11.4034 54.8963 11.5046C53.8801 11.603 53.6745 10.6901 53.2693 10.6901C52.861 10.6901 51.2384 10.1808 50.7274 9.57176C50.2208 8.96416 47.2737 8.75869 46.7671 9.47196C46.2575 10.1808 45.2414 9.77576 44.3265 9.77576C43.4117 9.77576 41.7876 11.1979 41.2781 11.9082C40.9668 12.3456 39.516 12.4366 38.4367 12.4439C38.4778 13.3201 38.4778 14.0216 38.331 14.2462C37.7994 15.046 33.8581 15.7696 30.9081 15.8708C27.9609 15.9721 27.7583 12.1122 24.6085 12.1122C22.3149 12.1122 20.5689 10.0179 20.45 8.05276C19.0931 7.53615 17.798 6.64823 17.9889 6.27398C18.2591 5.7339 18.9375 2.33633 17.3105 3.15233C15.682 3.96833 13.3721 6.54403 10.3898 6.13603C7.40152 5.72949 9.57039 5.45798 8.0814 4.7814C6.58802 4.10336 7.53662 2.47282 6.0447 2.2013C4.55278 1.92686 5.63795 3.96687 4.82591 3.96687C4.00946 3.96687 4.68787 6.26958 4.961 6.81114C5.23413 7.35563 4.41622 10.3379 4.961 10.4729C5.50432 10.6094 6.72164 12.7815 6.58802 13.1909C6.44998 13.596 7.80975 14.9506 7.80975 15.9002C7.80975 16.8497 9.03001 17.9387 9.70989 17.9387C10.3898 17.9387 11.3354 18.3467 11.0652 19.1583C10.7936 19.9729 11.472 21.1939 10.66 21.1939C9.84498 21.1939 9.98008 23.5011 9.30313 23.9061C8.62325 24.3127 9.16804 26.7548 9.70989 27.0278C10.2517 27.2978 11.472 27.9759 11.3354 28.9254C11.1989 29.875 14.1856 31.3661 15.1401 31.5041C16.0873 31.6391 16.2209 32.9966 16.7642 33.5382C17.309 34.0812 16.3589 35.1658 16.4925 35.8424C16.6291 36.5219 17.8508 37.0649 17.7143 38.1495C17.6335 38.8041 18.7348 39.9004 19.6541 40.8529C19.9566 40.7604 20.2502 40.7061 20.4881 40.7061C21.4044 40.7061 21.353 39.6935 22.0608 40.3011C22.773 40.9131 23.7407 40.2482 24.4543 40.1983C25.1651 40.1514 27.096 43.8058 27.958 45.5801C28.8258 47.3604 28.7715 47.9724 29.9433 48.7326C31.1107 49.4958 32.4308 49.0878 34.1078 50.8152C35.7862 52.5426 40.1034 53.7137 41.933 53.8106C43.7627 53.9119 45.1371 51.8308 47.4749 52.2857C49.8111 52.7451 49.2502 55.7405 50.1166 56.8075C50.9815 57.8774 60.4836 58.5863 62.1092 59.0457C62.7039 59.2115 64.1239 59.3157 65.7098 59.3524C65.6716 59.0148 65.6393 58.7096 65.6187 58.4982C65.4836 56.8677 66.7054 55.5116 67.792 54.9715C68.8772 54.427 69.8258 54.157 70.9139 54.0205C72.0034 53.8825 70.9168 51.7134 70.1018 51.4418Z" fill="white"/>
<path fill-rule="evenodd" clip-rule="evenodd" d="M70.1018 51.4418C69.2854 51.1703 70.1018 48.3217 68.4748 47.6422C66.8463 46.9626 65.3984 45.8634 64.9462 44.6629C64.5394 43.5753 62.5027 42.4878 62.6378 41.6748C62.7744 40.8632 66.7083 38.2831 66.165 36.7919C65.6217 35.3023 63.0446 35.5738 62.7729 35.0308C62.5012 34.4878 62.9109 32.5886 62.2311 31.0961C61.5512 29.6035 62.7729 28.2459 62.2311 27.4328C61.6892 26.6198 62.5027 24.9936 62.6363 24.4491C62.7729 23.9061 64.1283 23.0931 63.9932 21.7384C63.9139 20.9151 64.328 20.4 64.7582 20.1769C64.2913 18.8002 64.1429 16.3962 64.1429 15.9721C64.1429 15.4658 62.5203 15.4658 61.7054 15.5656C60.8919 15.6683 60.1811 13.6386 59.3676 13.6386C58.5541 13.6386 57.8419 13.028 57.8419 12.419C57.8419 11.8114 55.9124 11.4034 54.8963 11.5046C53.8801 11.603 53.6745 10.6901 53.2693 10.6901C52.861 10.6901 51.2384 10.1808 50.7274 9.57176C50.2208 8.96416 47.2737 8.75869 46.7671 9.47196C46.2575 10.1808 45.2414 9.77576 44.3265 9.77576C43.4117 9.77576 41.7876 11.1979 41.2781 11.9082C40.9668 12.3456 39.516 12.4366 38.4367 12.4439C38.4778 13.3201 38.4778 14.0216 38.331 14.2462C37.7994 15.046 33.8581 15.7696 30.9081 15.8708C27.9609 15.9721 27.7583 12.1122 24.6085 12.1122C22.3149 12.1122 20.5689 10.0179 20.45 8.05276C19.0931 7.53615 17.798 6.64823 17.9889 6.27398C18.2591 5.7339 18.9375 2.33633 17.3105 3.15233C15.682 3.96833 13.3721 6.54403 10.3898 6.13603C7.40152 5.72949 9.57039 5.45798 8.0814 4.7814C6.58802 4.10336 7.53662 2.47282 6.0447 2.2013C4.55278 1.92686 5.63795 3.96687 4.82591 3.96687C4.00946 3.96687 4.68787 6.26958 4.961 6.81114C5.23413 7.35563 4.41622 10.3379 4.961 10.4729C5.50432 10.6094 6.72164 12.7815 6.58802 13.1909C6.44998 13.596 7.80975 14.9506 7.80975 15.9002C7.80975 16.8497 9.03001 17.9387 9.70989 17.9387C10.3898 17.9387 11.3354 18.3467 11.0652 19.1583C10.7936 19.9729 11.472 21.1939 10.66 21.1939C9.84498 21.1939 9.98008 23.5011 9.30313 23.9061C8.62325 24.3127 9.16804 26.7548 9.70989 27.0278C10.2517 27.2978 11.472 27.9759 11.3354 28.9254C11.1989 29.875 14.1856 31.3661 15.1401 31.5041C16.0873 31.6391 16.2209 32.9966 16.7642 33.5382C17.309 34.0812 16.3589 35.1658 16.4925 35.8424C16.6291 36.5219 17.8508 37.0649 17.7143 38.1495C17.6335 38.8041 18.7348 39.9004 19.6541 40.8529C19.9566 40.7604 20.2502 40.7061 20.4881 40.7061C21.4044 40.7061 21.353 39.6935 22.0608 40.3011C22.773 40.9131 23.7407 40.2482 24.4543 40.1983C25.1651 40.1514 27.096 43.8058 27.958 45.5801C28.8258 47.3604 28.7715 47.9724 29.9433 48.7326C31.1107 49.4958 32.4308 49.0878 34.1078 50.8152C35.7862 52.5426 40.1034 53.7137 41.933 53.8106C43.7627 53.9119 45.1371 51.8308 47.4749 52.2857C49.8111 52.7451 49.2502 55.7405 50.1166 56.8075C50.9815 57.8774 60.4836 58.5863 62.1092 59.0457C62.7039 59.2115 64.1239 59.3157 65.7098 59.3524C65.6716 59.0148 65.6393 58.7096 65.6187 58.4982C65.4836 56.8677 66.7054 55.5116 67.792 54.9715C68.8772 54.427 69.8258 54.157 70.9139 54.0205C72.0034 53.8825 70.9168 51.7134 70.1018 51.4418Z" stroke="#868686" stroke-width="0.25"/>
</g>
<defs>
<filter id="filter0_d_6252_1311" x="0.311523" y="0.0510254" width="75.1865" height="65.4297" filterUnits="userSpaceOnUse" color-interpolation-filters="sRGB">
<feFlood flood-opacity="0" result="BackgroundImageFix"/>
<feColorMatrix in="SourceAlpha" type="matrix" values="0 0 0 0 0 0 0 0 0 0 0 0 0 0 0 0 0 0 127 0" result="hardAlpha"/>
<feOffset dy="2"/>
<feGaussianBlur stdDeviation="2"/>
<feColorMatrix type="matrix" values="0 0 0 0 0 0 0 0 0 0 0 0 0 0 0 0 0 0 0.01 0"/>
<feBlend mode="normal" in2="BackgroundImageFix" result="effect1_dropShadow_6252_1311"/>
<feBlend mode="normal" in="SourceGraphic" in2="effect1_dropShadow_6252_1311" result="shape"/>
</filter>
</defs>
</svg>
