<svg width="46" height="27" viewBox="0 0 46 27" fill="none" xmlns="http://www.w3.org/2000/svg">
<g filter="url(#filter0_d_6252_1227)">
<path fill-rule="evenodd" clip-rule="evenodd" d="M35.8139 15.5677C37.7948 15.4679 37.7449 13.2841 38.5569 13.3854C39.3748 13.4896 40.6935 11.8619 41.2015 10.8463C41.7096 9.83075 40.6435 8.00207 39.4233 8.00207C38.2015 8.00207 37.2882 7.03637 37.5437 6.32604C37.7977 5.61424 36.88 4.6999 36.9314 4.1921C36.9827 3.6843 35.4086 4.1378 34.5921 4.34473C33.7801 4.5458 32.0532 2.36196 31.2911 2.76703C30.5305 3.17503 31.087 4.23906 30.8844 4.8496C30.6817 5.46013 28.8535 4.29043 28.8535 5.00223C28.8535 5.71404 28.09 5.81383 27.4806 5.05213C26.8697 4.29043 25.4439 4.74687 25.4982 5.3574C25.5481 5.96647 24.8873 5.46013 23.7185 4.74687C22.5496 4.038 21.3293 5.56287 21.4321 6.32457C21.5349 7.08774 21.0239 7.28734 20.0577 5.61277C19.0929 3.93526 17.974 5.76394 18.4835 6.68121C18.9931 7.59407 18.789 8.70801 18.0268 8.25304C17.2633 7.79661 16.2471 8.55684 15.7904 9.27011C15.3323 9.98044 13.7067 7.18607 14.8756 6.5271C16.0445 5.86814 11.1649 3.07083 9.64214 3.07083C8.11644 3.07083 9.13259 4.1921 10.1517 5.00223C11.1664 5.81383 9.43656 5.61277 8.88002 4.8995C8.32055 4.1921 7.25448 4.74687 6.64214 5.76394C6.03422 6.781 5.01513 7.34017 4.91674 8.05197C4.81395 8.76231 6.64214 9.52548 8.21923 8.86504C9.79485 8.20461 11.5731 8.10041 12.3881 8.86504C13.2016 9.62528 10.9138 9.93201 11.7258 10.5411C12.5408 11.1501 11.8785 11.6594 9.94904 11.5068C8.01806 11.3556 5.68032 11.9118 6.03568 12.5738C6.38957 13.2327 10.9637 12.0175 11.0166 12.675C11.0665 13.3369 11.0166 14.4523 12.2368 13.946C13.4556 13.4397 12.6407 14.8618 13.2501 15.1128C13.8609 15.3681 13.7097 16.5863 12.0841 16.689C10.4571 16.7888 9.66563 17.1161 10.3543 17.8044C11.2192 18.6703 12.999 18.0583 14.7258 17.6532C16.4512 17.2452 18.9446 19.3293 20.9769 20.1409C23.0107 20.9554 26.5158 19.8356 26.924 18.7672C27.3308 17.6987 30.0753 18.1067 31.1913 17.3465C32.3073 16.5848 33.83 15.6705 35.8139 15.5677Z" fill="white"/>
<path fill-rule="evenodd" clip-rule="evenodd" d="M35.8139 15.5677C37.7948 15.4679 37.7449 13.2841 38.5569 13.3854C39.3748 13.4896 40.6935 11.8619 41.2015 10.8463C41.7096 9.83075 40.6435 8.00207 39.4233 8.00207C38.2015 8.00207 37.2882 7.03637 37.5437 6.32604C37.7977 5.61424 36.88 4.6999 36.9314 4.1921C36.9827 3.6843 35.4086 4.1378 34.5921 4.34473C33.7801 4.5458 32.0532 2.36196 31.2911 2.76703C30.5305 3.17503 31.087 4.23906 30.8844 4.8496C30.6817 5.46013 28.8535 4.29043 28.8535 5.00223C28.8535 5.71404 28.09 5.81383 27.4806 5.05213C26.8697 4.29043 25.4439 4.74687 25.4982 5.3574C25.5481 5.96647 24.8873 5.46013 23.7185 4.74687C22.5496 4.038 21.3293 5.56287 21.4321 6.32457C21.5349 7.08774 21.0239 7.28734 20.0577 5.61277C19.0929 3.93526 17.974 5.76394 18.4835 6.68121C18.9931 7.59407 18.789 8.70801 18.0268 8.25304C17.2633 7.79661 16.2471 8.55684 15.7904 9.27011C15.3323 9.98044 13.7067 7.18607 14.8756 6.5271C16.0445 5.86814 11.1649 3.07083 9.64214 3.07083C8.11644 3.07083 9.13259 4.1921 10.1517 5.00223C11.1664 5.81383 9.43656 5.61277 8.88002 4.8995C8.32055 4.1921 7.25448 4.74687 6.64214 5.76394C6.03422 6.781 5.01513 7.34017 4.91674 8.05197C4.81395 8.76231 6.64214 9.52548 8.21923 8.86504C9.79485 8.20461 11.5731 8.10041 12.3881 8.86504C13.2016 9.62528 10.9138 9.93201 11.7258 10.5411C12.5408 11.1501 11.8785 11.6594 9.94904 11.5068C8.01806 11.3556 5.68032 11.9118 6.03568 12.5738C6.38957 13.2327 10.9637 12.0175 11.0166 12.675C11.0665 13.3369 11.0166 14.4523 12.2368 13.946C13.4556 13.4397 12.6407 14.8618 13.2501 15.1128C13.8609 15.3681 13.7097 16.5863 12.0841 16.689C10.4571 16.7888 9.66563 17.1161 10.3543 17.8044C11.2192 18.6703 12.999 18.0583 14.7258 17.6532C16.4512 17.2452 18.9446 19.3293 20.9769 20.1409C23.0107 20.9554 26.5158 19.8356 26.924 18.7672C27.3308 17.6987 30.0753 18.1067 31.1913 17.3465C32.3073 16.5848 33.83 15.6705 35.8139 15.5677Z" stroke="#868686" stroke-width="0.25"/>
</g>
<defs>
<filter id="filter0_d_6252_1227" x="0.787598" y="0.591675" width="44.6689" height="25.9539" filterUnits="userSpaceOnUse" color-interpolation-filters="sRGB">
<feFlood flood-opacity="0" result="BackgroundImageFix"/>
<feColorMatrix in="SourceAlpha" type="matrix" values="0 0 0 0 0 0 0 0 0 0 0 0 0 0 0 0 0 0 127 0" result="hardAlpha"/>
<feOffset dy="2"/>
<feGaussianBlur stdDeviation="2"/>
<feColorMatrix type="matrix" values="0 0 0 0 0 0 0 0 0 0 0 0 0 0 0 0 0 0 0.01 0"/>
<feBlend mode="normal" in2="BackgroundImageFix" result="effect1_dropShadow_6252_1227"/>
<feBlend mode="normal" in="SourceGraphic" in2="effect1_dropShadow_6252_1227" result="shape"/>
</filter>
</defs>
</svg>
