<svg width="67" height="67" viewBox="0 0 67 67" fill="none" xmlns="http://www.w3.org/2000/svg">
<g filter="url(#filter0_d_6252_1258)">
<path fill-rule="evenodd" clip-rule="evenodd" d="M59.6802 8.19007C58.9695 7.27573 57.7522 8.69934 56.2265 9.00314C54.6993 9.30547 49.924 5.34726 48.7038 3.51713C47.482 1.68992 45.4497 3.21479 46.4703 4.53273C47.485 5.85213 46.2618 6.2572 46.2618 8.09027C46.2618 9.916 45.0444 9.916 45.25 11.1356C45.4512 12.3552 43.623 12.1512 42.4013 12.3552C41.1839 12.5607 42.5026 13.7788 41.0812 14.3893C39.6568 14.9969 39.761 16.0126 40.4718 16.4191C41.1839 16.8256 40.6759 18.1465 40.4718 19.0608C40.2676 19.9752 41.3851 19.2648 42.2016 18.3505C43.0136 17.4376 43.8609 18.7908 44.0298 17.9425C44.2339 16.9298 41.8961 16.4206 41.996 15.402C42.0988 14.3923 43.623 15.7102 44.8418 15.0997C46.0621 14.4921 48.4996 14.9999 50.0253 16.3178C51.5496 17.6402 51.9563 17.1338 52.2617 15.5077C52.5642 13.883 54.9034 13.1712 57.2412 13.1712C59.5818 13.1712 59.7801 12.0499 59.0694 11.5451C58.3601 11.0387 62.9343 8.09174 62.8315 7.27867C62.7287 6.46413 60.3939 9.1044 59.6802 8.19007ZM40.9789 22.1062C39.9657 22.6155 39.2506 25.765 40.371 26.6764C41.4884 27.5907 38.5413 29.3196 38.6426 31.251C38.7425 33.178 36.81 33.178 36.5061 34.6001C36.2021 36.0252 35.0846 35.7199 33.3548 37.0393C31.6309 38.3573 30.7131 36.8339 31.1199 35.9225C31.5267 35.0052 28.4782 36.4303 28.5795 38.6655C28.6838 40.8992 25.7352 41.1018 26.4459 42.1174C27.1581 43.1359 24.2124 43.742 24.3108 42.8277C24.4136 41.9163 22.4797 42.427 20.1464 43.3384C17.8086 44.2528 16.3828 42.3228 15.0641 43.6422C13.7411 44.9646 11.5047 47.301 9.77634 47.6063C8.05094 47.9072 9.04506 50.0015 9.77634 49.636C10.9981 49.0255 12.9276 49.636 13.5399 48.7232C14.1478 47.8074 19.1273 46.692 22.1772 46.5907C25.2242 46.4865 23.396 48.0099 23.6016 49.636C23.8057 51.2607 26.346 50.9569 27.6676 49.435C28.9877 47.9072 30.0068 48.0084 28.885 47.0926C27.7675 46.1812 29.092 45.3682 29.904 46.5892C30.7161 47.8059 33.2565 47.9057 34.2741 46.281C35.2917 44.6564 35.5942 46.5892 36.813 46.485C38.0347 46.3852 38.7454 43.337 38.8482 44.4538C38.951 45.5722 40.882 45.2684 42.1022 43.949C43.321 42.6252 42.2036 40.2902 43.0156 39.072C43.8276 37.8524 44.6397 35.3105 43.8276 33.7871C43.0156 32.2637 45.6588 31.2495 46.9789 30.0255C48.3005 28.8089 45.4547 22.7138 45.3533 20.8836C45.2506 19.0609 41.9951 21.5999 40.9789 22.1062ZM18.619 48.5191C18.2108 49.6374 16.9934 49.1311 15.3664 49.4364C13.7394 49.7402 13.6836 53.6133 14.8583 54.0051C15.7717 54.3089 16.4839 54.3089 16.7864 53.0908C17.0904 51.8727 18.7188 51.4661 19.735 51.971C20.7526 52.4817 22.0727 50.4461 22.0727 48.9227C22.0742 47.4022 19.0272 47.4022 18.619 48.5191ZM11.6027 52.4816C11.6027 51.466 9.36925 51.6685 9.2694 50.7527C9.16514 49.8384 7.64238 50.3491 6.11816 51.4645C4.59393 52.5799 4.08586 52.7839 4.69379 53.9008C5.30465 55.0191 6.21801 54.0035 6.6233 52.8867C7.03005 51.7683 8.05061 54.5128 7.13431 56.3415C6.21801 58.1716 7.25031 60.7458 8.45295 60.5037C9.4691 60.3041 10.7936 56.6467 12.3178 54.7153C13.8435 52.7854 11.6027 53.4943 11.6027 52.4816Z" fill="white"/>
<path d="M59.6802 8.19007L59.5815 8.26678L59.5817 8.26698L59.6802 8.19007ZM56.2265 9.00314L56.2508 9.12576L56.2509 9.12573L56.2265 9.00314ZM48.7038 3.51713L48.8078 3.44778L48.8077 3.44765L48.7038 3.51713ZM46.4703 4.53273L46.5694 4.45652L46.5691 4.4562L46.4703 4.53273ZM45.25 11.1356L45.3733 11.1153L45.3733 11.1148L45.25 11.1356ZM42.4013 12.3552L42.3807 12.2319L42.3805 12.232L42.4013 12.3552ZM41.0812 14.3893L41.1302 14.5043L41.1305 14.5042L41.0812 14.3893ZM40.4718 16.4191L40.4097 16.5276L40.4098 16.5276L40.4718 16.4191ZM42.2016 18.3505L42.2948 18.4337L42.295 18.4336L42.2016 18.3505ZM44.0298 17.9425L43.9072 17.9178L43.9072 17.9181L44.0298 17.9425ZM41.996 15.402L41.8716 15.3894L41.8716 15.3898L41.996 15.402ZM44.8418 15.0997L44.7861 14.9878L44.7858 14.9879L44.8418 15.0997ZM50.0253 16.3178L50.1073 16.2234L50.107 16.2232L50.0253 16.3178ZM52.2617 15.5077L52.3846 15.5308L52.3846 15.5306L52.2617 15.5077ZM59.0694 11.5451L58.9967 11.6468L58.997 11.647L59.0694 11.5451ZM62.8315 7.27867L62.7075 7.29432L62.7075 7.29435L62.8315 7.27867ZM40.9789 22.1062L40.9232 21.9943L40.9228 21.9945L40.9789 22.1062ZM40.371 26.6764L40.4501 26.5797L40.4499 26.5794L40.371 26.6764ZM38.6426 31.251L38.7675 31.2445L38.7675 31.2445L38.6426 31.251ZM36.5061 34.6001L36.3838 34.574L36.3838 34.5741L36.5061 34.6001ZM33.3548 37.0393L33.279 36.94L33.2789 36.94L33.3548 37.0393ZM31.1199 35.9225L31.234 35.9734L31.2342 35.9732L31.1199 35.9225ZM28.5795 38.6655L28.4547 38.6711L28.4547 38.6713L28.5795 38.6655ZM26.4459 42.1174L26.5483 42.0457L26.5483 42.0457L26.4459 42.1174ZM24.3108 42.8277L24.1866 42.8137L24.1865 42.8143L24.3108 42.8277ZM20.1464 43.3384L20.1009 43.222L20.1008 43.222L20.1464 43.3384ZM15.0641 43.6422L15.1525 43.7306L15.1526 43.7306L15.0641 43.6422ZM9.77634 47.6063L9.79781 47.7294L9.79808 47.7294L9.77634 47.6063ZM9.77634 49.636L9.83222 49.7479L9.77634 49.636ZM13.5399 48.7232L13.6437 48.7928L13.6441 48.7923L13.5399 48.7232ZM22.1772 46.5907L22.1813 46.7156L22.1815 46.7156L22.1772 46.5907ZM23.6016 49.636L23.7256 49.6205L23.7256 49.6204L23.6016 49.636ZM27.6676 49.435L27.762 49.5169L27.7622 49.5167L27.6676 49.435ZM28.885 47.0926L28.964 46.9958L28.964 46.9958L28.885 47.0926ZM29.904 46.5892L29.8 46.6585L29.8001 46.6586L29.904 46.5892ZM36.813 46.485L36.8028 46.3604L36.8023 46.3605L36.813 46.485ZM38.8482 44.4538L38.9727 44.4424L38.9727 44.4424L38.8482 44.4538ZM42.1022 43.949L42.194 44.0338L42.1942 44.0336L42.1022 43.949ZM43.0156 39.072L43.1196 39.1414L43.1197 39.1413L43.0156 39.072ZM46.9789 30.0255L46.8942 29.9336L46.8939 29.9339L46.9789 30.0255ZM45.3533 20.8836L45.4781 20.8767L45.4781 20.8766L45.3533 20.8836ZM18.619 48.5191L18.5016 48.4762L18.5016 48.4762L18.619 48.5191ZM15.3664 49.4364L15.3894 49.5593L15.3895 49.5592L15.3664 49.4364ZM14.8583 54.0051L14.8188 54.1237L14.8189 54.1237L14.8583 54.0051ZM16.7864 53.0908L16.6651 53.0605L16.6651 53.0607L16.7864 53.0908ZM19.735 51.971L19.7911 51.8593L19.7906 51.859L19.735 51.971ZM22.0727 48.9227L21.9477 48.9226V48.9227H22.0727ZM9.2694 50.7527L9.39366 50.7392L9.39359 50.7386L9.2694 50.7527ZM4.69379 53.9008L4.584 53.9605L4.58408 53.9607L4.69379 53.9008ZM6.6233 52.8867L6.50582 52.8439L6.50579 52.844L6.6233 52.8867ZM7.13431 56.3415L7.02255 56.2855L7.02253 56.2855L7.13431 56.3415ZM8.45295 60.5037L8.42886 60.381L8.42828 60.3811L8.45295 60.5037ZM12.3178 54.7153L12.2198 54.6378L12.2197 54.6379L12.3178 54.7153ZM59.7789 8.11335C59.5761 7.85238 59.3278 7.75252 59.0502 7.76375C58.7847 7.7745 58.4982 7.88665 58.205 8.02706C57.6028 8.31541 56.9444 8.73273 56.2021 8.88054L56.2509 9.12573C57.0343 8.96974 57.7474 8.52336 58.313 8.25254C58.6036 8.11337 58.8501 8.02206 59.0604 8.01355C59.2586 8.00553 59.429 8.07059 59.5815 8.26678L59.7789 8.11335ZM56.2022 8.88052C56.0402 8.9126 55.8213 8.88988 55.5504 8.80945C55.2817 8.72966 54.9729 8.5965 54.6364 8.42014C53.9635 8.0675 53.1916 7.54846 52.4262 6.96067C50.8923 5.78273 49.4064 4.34562 48.8078 3.44778L48.5998 3.58647C49.2214 4.51877 50.7333 5.97583 52.2739 7.15895C53.0458 7.75168 53.8302 8.27989 54.5204 8.64157C54.8654 8.82237 55.1898 8.96315 55.4793 9.04911C55.7666 9.13442 56.031 9.16926 56.2508 9.12576L56.2022 8.88052ZM48.8077 3.44765C48.4886 2.97052 48.1091 2.7016 47.7284 2.59894C47.3481 2.49641 46.9768 2.56268 46.6822 2.7381C46.3884 2.91305 46.169 3.19799 46.0948 3.53417C46.0201 3.87301 46.0955 4.25286 46.3714 4.60926L46.5691 4.4562C46.3348 4.15363 46.2815 3.84865 46.339 3.58801C46.397 3.3247 46.5707 3.09551 46.8101 2.9529C47.0488 2.81076 47.3508 2.75604 47.6633 2.84032C47.9753 2.92446 48.308 3.15013 48.5998 3.5866L48.8077 3.44765ZM46.3712 4.60893C46.6156 4.92673 46.7168 5.17835 46.7415 5.40124C46.7664 5.62503 46.7162 5.83508 46.629 6.0764C46.4552 6.55721 46.1368 7.14549 46.1368 8.09027H46.3868C46.3868 7.20197 46.6799 6.67119 46.8641 6.16135C46.9559 5.90734 47.0212 5.65417 46.99 5.37364C46.9587 5.09221 46.8323 4.79842 46.5694 4.45652L46.3712 4.60893ZM46.1368 8.09027C46.1368 8.53204 46.0633 8.85839 45.9588 9.11819C45.854 9.37885 45.716 9.57777 45.5779 9.76641C45.4424 9.95163 45.2986 10.1365 45.2064 10.353C45.1114 10.5758 45.0715 10.8288 45.1268 11.1564L45.3733 11.1148C45.3257 10.8326 45.3609 10.6282 45.4364 10.451C45.5146 10.2674 45.6366 10.1095 45.7797 9.91407C45.9202 9.72204 46.0737 9.50241 46.1907 9.21147C46.3081 8.91967 46.3868 8.56137 46.3868 8.09027H46.1368ZM45.1267 11.156C45.1713 11.4265 45.1032 11.5989 44.975 11.7218C44.8383 11.853 44.6184 11.9421 44.3327 12.0041C44.0495 12.0656 43.7205 12.0968 43.3796 12.1255C43.0421 12.1539 42.6924 12.1799 42.3807 12.2319L42.4219 12.4785C42.721 12.4286 43.0579 12.4035 43.4006 12.3747C43.7398 12.3461 44.0844 12.3139 44.3858 12.2484C44.6847 12.1835 44.9605 12.0822 45.1481 11.9022C45.3443 11.714 45.4293 11.4546 45.3733 11.1153L45.1267 11.156ZM42.3805 12.232C42.0508 12.2876 41.8603 12.4192 41.7676 12.6219C41.7242 12.717 41.7065 12.8191 41.6988 12.9185C41.6911 13.0168 41.6928 13.122 41.6928 13.2203C41.6927 13.4239 41.685 13.6143 41.6027 13.7898C41.523 13.9598 41.3653 14.1313 41.0318 14.2745L41.1305 14.5042C41.5078 14.3421 41.7182 14.1324 41.8291 13.8959C41.9374 13.6649 41.9427 13.4234 41.9428 13.2204C41.9428 13.1155 41.9414 13.0238 41.948 12.9378C41.9546 12.8529 41.9687 12.7834 41.995 12.7258C42.0419 12.6232 42.1431 12.5255 42.4221 12.4785L42.3805 12.232ZM41.0321 14.2744C40.2994 14.5869 39.9254 15.0196 39.8525 15.4592C39.7791 15.9014 40.0185 16.3038 40.4097 16.5276L40.5338 16.3106C40.2143 16.1278 40.0462 15.8192 40.0991 15.5001C40.1525 15.1783 40.4385 14.7994 41.1302 14.5043L41.0321 14.2744ZM40.4098 16.5276C40.6908 16.688 40.7548 17.0393 40.6914 17.5336C40.6606 17.7736 40.6018 18.0311 40.5368 18.2889C40.4726 18.5437 40.4012 18.8029 40.3498 19.0336L40.5938 19.0881C40.6443 18.8615 40.713 18.6128 40.7792 18.35C40.8447 18.0903 40.9066 17.8208 40.9394 17.5654C41.003 17.0691 40.9649 16.5567 40.5337 16.3105L40.4098 16.5276ZM40.3498 19.0336C40.3225 19.1558 40.3141 19.2636 40.3312 19.3537C40.3491 19.4476 40.3967 19.5285 40.482 19.5743C40.5617 19.6171 40.6532 19.6175 40.7371 19.6018C40.8225 19.5859 40.915 19.5505 41.0098 19.5033C41.3857 19.3157 41.8816 18.8965 42.2948 18.4337L42.1083 18.2672C41.7051 18.7188 41.234 19.112 40.8981 19.2796C40.815 19.3211 40.7455 19.3459 40.6912 19.3561C40.6353 19.3665 40.6094 19.3589 40.6003 19.354C40.5967 19.3521 40.5842 19.3456 40.5768 19.3069C40.5687 19.2644 40.57 19.1945 40.5938 19.0881L40.3498 19.0336ZM42.295 18.4336C42.4783 18.2275 42.6542 18.1577 42.8154 18.1456C42.9835 18.1329 43.1493 18.1815 43.3152 18.2401C43.3944 18.2681 43.4792 18.3004 43.555 18.3233C43.631 18.3463 43.7138 18.3652 43.7943 18.3605C43.8804 18.3556 43.9634 18.3234 44.0294 18.2492C44.0912 18.1798 44.1292 18.0834 44.1523 17.9669L43.9072 17.9181C43.8881 18.0136 43.8626 18.0606 43.8427 18.083C43.8269 18.1008 43.8096 18.1092 43.7798 18.1109C43.7444 18.113 43.6958 18.1047 43.6274 18.084C43.5589 18.0633 43.4865 18.0355 43.3985 18.0044C43.23 17.9449 43.0211 17.8794 42.7967 17.8963C42.5654 17.9137 42.3309 18.0171 42.1082 18.2674L42.295 18.4336ZM44.1523 17.9672C44.2146 17.6581 44.078 17.3972 43.8762 17.1771C43.6762 16.9589 43.3939 16.7606 43.1235 16.5719C42.847 16.379 42.5817 16.1955 42.3898 15.9989C42.1984 15.803 42.1007 15.6149 42.1204 15.4142L41.8716 15.3898C41.8413 15.6984 41.9984 15.956 42.2109 16.1736C42.4229 16.3906 42.7105 16.5886 42.9804 16.777C43.2564 16.9695 43.5141 17.1521 43.6919 17.346C43.8679 17.538 43.947 17.7205 43.9072 17.9178L44.1523 17.9672ZM42.1203 15.4147C42.1316 15.3042 42.1607 15.2422 42.192 15.2063C42.2219 15.1721 42.2649 15.1488 42.3322 15.1381C42.402 15.127 42.491 15.1308 42.6019 15.1473C42.712 15.1636 42.8352 15.1911 42.9721 15.2229C43.5062 15.347 44.2405 15.5407 44.8978 15.2114L44.7858 14.9879C44.2243 15.2692 43.587 15.1092 43.0287 14.9794C42.8924 14.9477 42.76 14.918 42.6386 14.9C42.5179 14.882 42.3997 14.8743 42.293 14.8912C42.1839 14.9085 42.0815 14.9527 42.0036 15.042C41.9271 15.1297 41.8861 15.2474 41.8716 15.3894L42.1203 15.4147ZM44.8975 15.2116C45.4707 14.9262 46.3517 14.8958 47.2914 15.1086C48.227 15.3205 49.1985 15.7687 49.9436 16.4124L50.107 16.2232C49.3265 15.549 48.3163 15.0844 47.3466 14.8648C46.381 14.6461 45.4331 14.6656 44.7861 14.9878L44.8975 15.2116ZM49.9434 16.4122C50.3277 16.7456 50.6501 16.9716 50.9246 17.0922C51.2002 17.2134 51.4452 17.2355 51.6563 17.1303C51.8621 17.0278 52.0044 16.8192 52.1134 16.5537C52.2233 16.286 52.3079 15.9392 52.3846 15.5308L52.1389 15.4846C52.0629 15.8892 51.982 16.2155 51.8822 16.4588C51.7814 16.7042 51.6695 16.8445 51.5449 16.9065C51.4256 16.966 51.264 16.9683 51.0252 16.8633C50.7851 16.7578 50.4851 16.5512 50.1073 16.2234L49.9434 16.4122ZM52.3846 15.5306C52.5247 14.7782 53.1392 14.2193 54.0363 13.8456C54.9313 13.4728 56.0829 13.2962 57.2412 13.2962V13.0462C56.0617 13.0462 54.8749 13.2255 53.9402 13.6148C53.0077 14.0032 52.3013 14.6125 52.1389 15.4848L52.3846 15.5306ZM57.2412 13.2962C58.4206 13.2962 59.1097 13.0155 59.4001 12.6217C59.5486 12.4204 59.588 12.1945 59.5338 11.9813C59.4804 11.7711 59.3387 11.5831 59.1418 11.4432L58.997 11.647C59.1554 11.7595 59.2554 11.9009 59.2916 12.043C59.3269 12.182 59.3038 12.3311 59.1989 12.4733C58.9828 12.7663 58.4024 13.0462 57.2412 13.0462V13.2962ZM59.142 11.4433C59.1258 11.4318 59.1216 11.4222 59.1201 11.4089C59.118 11.3897 59.1221 11.3548 59.1462 11.2997C59.1945 11.1888 59.3028 11.0416 59.4649 10.8633C59.7864 10.5097 60.2823 10.0735 60.8048 9.62142C61.324 9.17215 61.8681 8.70824 62.2751 8.30602C62.4785 8.10504 62.6519 7.91537 62.772 7.74732C62.832 7.66326 62.8812 7.58122 62.9137 7.50313C62.9459 7.42605 62.9657 7.34375 62.9555 7.26299L62.7075 7.29435C62.7101 7.31522 62.7062 7.35122 62.683 7.40689C62.6602 7.46154 62.6223 7.52668 62.5685 7.60201C62.4609 7.75272 62.2993 7.93063 62.0994 8.12819C61.6999 8.52303 61.164 8.97997 60.6412 9.43237C60.1216 9.88195 59.6134 10.3283 59.2799 10.6951C59.1146 10.877 58.9827 11.0494 58.917 11.1997C58.8841 11.2753 58.8628 11.3565 58.8716 11.4364C58.8811 11.5223 58.9243 11.5951 58.9967 11.6468L59.142 11.4433ZM62.9555 7.26302C62.9471 7.19676 62.9256 7.13216 62.8802 7.08139C62.8327 7.02833 62.7709 7.00339 62.7083 6.9971C62.5952 6.98573 62.4646 7.03381 62.3415 7.09357C62.0878 7.21672 61.7526 7.44956 61.417 7.66686C61.0732 7.88945 60.7236 8.09965 60.4199 8.20019C60.1132 8.30173 59.9063 8.27654 59.7788 8.11316L59.5817 8.26698C59.811 8.56077 60.1635 8.54841 60.4985 8.43752C60.8365 8.32561 61.2109 8.09809 61.5529 7.87672C61.903 7.65006 62.2154 7.43271 62.4507 7.31847C62.5721 7.25953 62.6463 7.24212 62.6833 7.24584C62.6903 7.24655 62.6933 7.24785 62.6939 7.24809C62.694 7.24818 62.6937 7.24797 62.6938 7.24805C62.6942 7.24853 62.703 7.25876 62.7075 7.29432L62.9555 7.26302ZM40.9228 21.9945C40.6334 22.1399 40.3834 22.4615 40.1873 22.8507C39.9889 23.2444 39.8361 23.7265 39.7516 24.2194C39.6672 24.712 39.6499 25.2219 39.7276 25.6707C39.805 26.1179 39.9795 26.5191 40.2921 26.7734L40.4499 26.5794C40.2022 26.378 40.0459 26.0438 39.974 25.6281C39.9023 25.2142 39.9171 24.7339 39.998 24.2616C40.0789 23.7896 40.2249 23.3318 40.4105 22.9632C40.5985 22.5902 40.8178 22.3271 41.035 22.2179L40.9228 21.9945ZM40.2918 26.7731C40.4122 26.8717 40.4704 26.974 40.4906 27.0798C40.5115 27.1885 40.4949 27.3145 40.4407 27.4623C40.3306 27.7628 40.0827 28.1098 39.7875 28.5078C39.4972 28.8992 39.1671 29.3328 38.9174 29.7901C38.6674 30.2479 38.4908 30.742 38.5178 31.2576L38.7675 31.2445C38.7439 30.7943 38.8976 30.348 39.1368 29.9099C39.3763 29.4712 39.6941 29.0533 39.9883 28.6568C40.2775 28.2668 40.5505 27.8895 40.6755 27.5483C40.7389 27.3753 40.7684 27.2011 40.7362 27.0327C40.7033 26.8614 40.6091 26.7097 40.4501 26.5797L40.2918 26.7731ZM38.5178 31.2575C38.5416 31.7164 38.4446 32.0533 38.2858 32.3241C38.1254 32.5977 37.8978 32.8114 37.6464 33.0184C37.1555 33.4224 36.5473 33.8095 36.3838 34.574L36.6283 34.6263C36.7689 33.9687 37.2788 33.6447 37.8052 33.2114C38.0624 32.9997 38.3182 32.7633 38.5015 32.4505C38.6865 32.1349 38.7936 31.7491 38.7675 31.2445L38.5178 31.2575ZM36.3838 34.5741C36.3115 34.913 36.1932 35.1398 36.0361 35.3129C35.8773 35.4881 35.6716 35.6164 35.4093 35.7476C34.8878 36.0082 34.1564 36.2708 33.279 36.94L33.4306 37.1387C34.2831 36.4885 34.9753 36.244 35.521 35.9712C35.7923 35.8356 36.0311 35.6906 36.2213 35.4809C36.4133 35.2693 36.5486 34.9999 36.6283 34.6262L36.3838 34.5741ZM33.2789 36.94C32.8606 37.2598 32.502 37.3989 32.2102 37.4245C31.9208 37.4499 31.6901 37.3647 31.5186 37.2211C31.1686 36.9279 31.0528 36.3796 31.234 35.9734L31.0058 35.8715C30.7803 36.3768 30.92 37.0458 31.3581 37.4128C31.5808 37.5992 31.8772 37.7047 32.2321 37.6735C32.5845 37.6426 32.9871 37.4778 33.4308 37.1387L33.2789 36.94ZM31.2342 35.9732C31.2889 35.8496 31.3151 35.7008 31.212 35.5971C31.1645 35.5495 31.1032 35.5279 31.0453 35.5197C30.9872 35.5115 30.9236 35.5154 30.8589 35.5266C30.6044 35.5709 30.2462 35.7456 29.8895 36.0116C29.1754 36.5442 28.4013 37.4941 28.4547 38.6711L28.7044 38.6598C28.6564 37.6017 29.3559 36.7214 30.039 36.212C30.3809 35.957 30.7022 35.8077 30.9018 35.7729C30.9506 35.7644 30.9864 35.7638 31.0103 35.7672C31.0345 35.7706 31.038 35.7767 31.0348 35.7735C31.0201 35.7587 31.0525 35.766 31.0056 35.8718L31.2342 35.9732ZM28.4547 38.6713C28.5035 39.7186 27.8439 40.2926 27.2123 40.7467C27.0583 40.8575 26.8979 40.9668 26.7618 41.0673C26.624 41.1692 26.4971 41.2722 26.4007 41.3806C26.3042 41.4892 26.2301 41.6123 26.2136 41.7547C26.1968 41.8998 26.2421 42.0441 26.3435 42.189L26.5483 42.0457C26.472 41.9367 26.454 41.8525 26.462 41.7834C26.4703 41.7116 26.5092 41.6348 26.5875 41.5467C26.666 41.4584 26.7758 41.3679 26.9105 41.2683C27.0469 41.1675 27.1946 41.0674 27.3583 40.9497C27.9972 40.4902 28.7598 39.8461 28.7044 38.6597L28.4547 38.6713ZM26.3435 42.189C26.4187 42.2966 26.4386 42.3877 26.4303 42.4643C26.4218 42.5425 26.382 42.622 26.3078 42.701C26.1563 42.8623 25.884 42.9969 25.5772 43.0763C25.2718 43.1555 24.9561 43.1739 24.7302 43.1236C24.6171 43.0985 24.5382 43.0588 24.4914 43.0126C24.4493 42.9709 24.4268 42.9183 24.4351 42.8411L24.1865 42.8143C24.1702 42.9657 24.2183 43.0941 24.3156 43.1904C24.4084 43.282 24.5378 43.337 24.6759 43.3677C24.9524 43.4292 25.3102 43.4038 25.6399 43.3184C25.9682 43.2333 26.2926 43.0825 26.49 42.8722C26.5903 42.7655 26.663 42.6377 26.6789 42.4913C26.6949 42.3434 26.6512 42.1928 26.5483 42.0457L26.3435 42.189ZM24.435 42.8417C24.4503 42.7065 24.429 42.5833 24.3611 42.4813C24.2936 42.3799 24.1902 42.3149 24.0702 42.2759C23.8365 42.2 23.5059 42.2118 23.1215 42.2762C22.3454 42.4062 21.2683 42.766 20.1009 43.222L20.1918 43.4549C21.3578 42.9994 22.4142 42.6482 23.1628 42.5228C23.5407 42.4595 23.8201 42.4576 23.993 42.5137C24.0764 42.5408 24.1254 42.5783 24.153 42.6199C24.1803 42.6609 24.1971 42.721 24.1866 42.8137L24.435 42.8417ZM20.1008 43.222C18.9729 43.6632 18.0681 43.4207 17.2534 43.2172C16.8498 43.1163 16.4567 43.0218 16.0792 43.0419C15.693 43.0624 15.3275 43.2019 14.9757 43.5539L15.1526 43.7306C15.4601 43.4228 15.7673 43.3088 16.0924 43.2915C16.4262 43.2738 16.7828 43.3573 17.1928 43.4597C18.0051 43.6627 18.9821 43.928 20.1919 43.4548L20.1008 43.222ZM14.9758 43.5538C14.3123 44.2169 13.4272 45.1267 12.492 45.9098C11.5521 46.6968 10.5832 47.3369 9.7546 47.4832L9.79808 47.7294C10.6978 47.5705 11.7113 46.8897 12.6525 46.1015C13.5983 45.3095 14.4929 44.3899 15.1525 43.7306L14.9758 43.5538ZM9.75487 47.4832C9.29616 47.5631 8.99874 47.7668 8.83806 48.0381C8.67923 48.3061 8.666 48.62 8.73357 48.9003C8.80096 49.1799 8.95186 49.4404 9.14235 49.609C9.33196 49.7768 9.58582 49.871 9.83222 49.7479L9.72046 49.5242C9.60121 49.5838 9.45658 49.5532 9.30805 49.4218C9.16038 49.2911 9.03348 49.0777 8.9766 48.8417C8.9199 48.6065 8.93595 48.3633 9.05314 48.1655C9.16848 47.9708 9.39382 47.7999 9.79781 47.7294L9.75487 47.4832ZM9.83222 49.7479C10.1192 49.6044 10.4527 49.5304 10.8084 49.4883C11.1653 49.4461 11.5327 49.437 11.8933 49.4178C12.2491 49.3989 12.5984 49.3702 12.8993 49.2854C13.202 49.2 13.4683 49.0543 13.6437 48.7928L13.4361 48.6535C13.3053 48.8485 13.1008 48.9688 12.8314 49.0448C12.5601 49.1213 12.2358 49.1493 11.88 49.1682C11.529 49.1868 11.1466 49.1966 10.779 49.2401C10.4102 49.2837 10.0443 49.3624 9.72046 49.5242L9.83222 49.7479ZM13.6441 48.7923C13.7042 48.7017 13.8287 48.5958 14.0241 48.4804C14.2166 48.3666 14.4662 48.2503 14.7626 48.1343C15.3553 47.9022 16.1239 47.6753 16.9718 47.4731C18.6679 47.0685 20.6667 46.7659 22.1813 46.7156L22.173 46.4658C20.6378 46.5167 18.6219 46.8225 16.9138 47.2299C16.0596 47.4336 15.2788 47.6637 14.6715 47.9015C14.368 48.0203 14.105 48.1422 13.8969 48.2651C13.6917 48.3864 13.5276 48.5157 13.4358 48.654L13.6441 48.7923ZM22.1815 46.7156C22.9412 46.6896 23.3659 46.7677 23.5928 46.9016C23.7013 46.9656 23.7625 47.0413 23.7967 47.1263C23.8319 47.2141 23.842 47.3216 23.8304 47.4535C23.8187 47.5855 23.7861 47.7335 23.743 47.8988C23.7215 47.9812 23.6979 48.0662 23.6733 48.1549C23.6489 48.2432 23.6237 48.3347 23.5997 48.4285C23.5038 48.8021 23.4231 49.221 23.4775 49.6517L23.7256 49.6204C23.6772 49.238 23.7479 48.8567 23.8418 48.4906C23.8652 48.3994 23.8899 48.3098 23.9143 48.2215C23.9386 48.1335 23.9628 48.0465 23.9849 47.9619C24.0288 47.7936 24.0658 47.6291 24.0794 47.4755C24.093 47.3218 24.0839 47.1708 24.0287 47.0331C23.9723 46.8926 23.8716 46.7758 23.7198 46.6862C23.426 46.5129 22.9367 46.4397 22.1729 46.4658L22.1815 46.7156ZM23.4775 49.6516C23.5331 50.0941 23.7508 50.4139 24.0718 50.6106C24.3884 50.8046 24.7949 50.873 25.2251 50.8401C26.0844 50.7744 27.0802 50.3022 27.762 49.5169L27.5732 49.353C26.9335 50.0897 25.9983 50.5303 25.206 50.5908C24.8103 50.6211 24.4609 50.5559 24.2025 50.3975C23.9484 50.2418 23.772 49.9903 23.7256 49.6205L23.4775 49.6516ZM27.7622 49.5167C28.0864 49.1415 28.3922 48.8662 28.6525 48.6493C28.9068 48.4374 29.1355 48.2679 29.2805 48.1226C29.4287 47.9741 29.5352 47.807 29.4737 47.5953C29.4458 47.4991 29.3859 47.406 29.3029 47.3112C29.2195 47.2159 29.1067 47.1123 28.964 46.9958L28.8059 47.1895C28.9437 47.3019 29.0445 47.3955 29.1148 47.4759C29.1857 47.5568 29.22 47.618 29.2336 47.665C29.2553 47.7396 29.2349 47.8144 29.1036 47.946C28.969 48.0809 28.7656 48.2297 28.4925 48.4572C28.2255 48.6796 27.9089 48.9645 27.573 49.3532L27.7622 49.5167ZM28.964 46.9958C28.6985 46.7793 28.5982 46.5846 28.5828 46.4442C28.5682 46.3108 28.6275 46.209 28.7322 46.1502C28.9465 46.0298 29.4146 46.079 29.8 46.6585L30.0081 46.52C29.5814 45.8784 28.9813 45.7236 28.6097 45.9323C28.4215 46.038 28.3083 46.2341 28.3343 46.4714C28.3595 46.7016 28.5127 46.9503 28.806 47.1895L28.964 46.9958ZM29.8001 46.6586C30.2376 47.3142 31.1246 47.6525 32.0157 47.6256C32.9112 47.5986 33.8442 47.2028 34.38 46.3474L34.1681 46.2147C33.6863 46.9839 32.8403 47.3506 32.0082 47.3757C31.1717 47.4009 30.3825 47.0809 30.008 46.5198L29.8001 46.6586ZM34.38 46.3474C34.6317 45.9455 34.8191 45.7993 34.9598 45.7632C35.0909 45.7296 35.2202 45.7828 35.393 45.9128C35.4783 45.9769 35.5643 46.0519 35.6621 46.1338C35.758 46.214 35.8625 46.2985 35.9767 46.3732C36.2068 46.5239 36.482 46.6388 36.8236 46.6096L36.8023 46.3605C36.5345 46.3834 36.3149 46.2958 36.1137 46.1641C36.0122 46.0977 35.9169 46.021 35.8226 45.942C35.7302 45.8647 35.6355 45.7823 35.5432 45.713C35.3608 45.5758 35.1475 45.457 34.8976 45.5211C34.6573 45.5828 34.4253 45.8042 34.1681 46.2147L34.38 46.3474ZM36.8232 46.6096C37.179 46.5805 37.4806 46.3395 37.7272 46.0495C37.9763 45.7565 38.188 45.3911 38.3602 45.0726C38.4034 44.9927 38.4444 44.9152 38.4829 44.8423C38.5215 44.7693 38.5574 44.7011 38.5911 44.6389C38.6598 44.5122 38.7146 44.4183 38.7577 44.3622C38.7804 44.3328 38.7914 44.3251 38.7909 44.3254C38.7894 44.3263 38.7787 44.3324 38.7606 44.3331C38.74 44.3339 38.7209 44.3271 38.7072 44.317C38.6877 44.3026 38.6919 44.2917 38.7017 44.3259C38.7097 44.354 38.7176 44.3988 38.7237 44.4653L38.9727 44.4424C38.966 44.3692 38.9563 44.3069 38.942 44.2571C38.9295 44.2132 38.9067 44.1534 38.8555 44.1157C38.826 44.094 38.7899 44.0818 38.7511 44.0833C38.7149 44.0847 38.6849 44.0975 38.663 44.1106C38.6215 44.1353 38.587 44.1741 38.5596 44.2098C38.5025 44.284 38.439 44.3949 38.3713 44.5199C38.3369 44.5835 38.3002 44.6529 38.2618 44.7255C38.2233 44.7985 38.1828 44.875 38.1402 44.9537C37.9691 45.2702 37.7677 45.6158 37.5367 45.8875C37.3032 46.1622 37.0578 46.3396 36.8028 46.3604L36.8232 46.6096ZM38.7237 44.4653C38.7533 44.7872 38.9186 45.0161 39.1722 45.1439C39.4184 45.268 39.7367 45.2919 40.0754 45.2391C40.7543 45.1332 41.5668 44.712 42.194 44.0338L42.0105 43.8641C41.4174 44.5054 40.6543 44.8957 40.0369 44.992C39.7275 45.0403 39.4676 45.0129 39.2847 44.9207C39.1092 44.8322 38.9945 44.6796 38.9727 44.4424L38.7237 44.4653ZM42.1942 44.0336C42.8422 43.3298 42.8618 42.3638 42.8364 41.4673C42.8235 41.0111 42.7985 40.5733 42.8264 40.1704C42.8542 39.7688 42.9341 39.4197 43.1196 39.1414L42.9116 39.0027C42.6911 39.3334 42.6061 39.7329 42.577 40.1531C42.548 40.572 42.5739 41.0292 42.5865 41.4744C42.6122 42.3809 42.5811 43.2443 42.0103 43.8643L42.1942 44.0336ZM43.1197 39.1413C43.5352 38.5172 43.947 37.5617 44.1531 36.5689C44.3584 35.5792 44.3642 34.5279 43.938 33.7283L43.7173 33.8459C44.1031 34.5696 44.1089 35.551 43.9083 36.5181C43.7083 37.482 43.3081 38.4073 42.9116 39.0027L43.1197 39.1413ZM43.938 33.7283C43.7543 33.3837 43.7668 33.0762 43.905 32.7819C44.0471 32.4791 44.3251 32.1857 44.6832 31.8905C45.0402 31.5962 45.4634 31.3109 45.8865 31.0182C46.3066 30.7277 46.7264 30.4301 47.0639 30.1172L46.8939 29.9339C46.5713 30.233 46.1657 30.5212 45.7443 30.8126C45.3259 31.102 44.8915 31.3949 44.5242 31.6976C44.158 31.9994 43.8449 32.3216 43.6787 32.6756C43.5084 33.0382 43.495 33.4288 43.7173 33.8459L43.938 33.7283ZM47.0636 30.1175C47.2567 29.9397 47.3649 29.6811 47.4159 29.3793C47.467 29.0769 47.4629 28.7193 47.421 28.3279C47.3372 27.545 47.0994 26.6029 46.8196 25.6494C46.5402 24.6972 46.2143 23.7191 45.9554 22.8764C45.6939 22.025 45.5025 21.3162 45.4781 20.8767L45.2285 20.8906C45.2549 21.3662 45.4571 22.1056 45.7164 22.9498C45.9784 23.8026 46.3003 24.7674 46.5798 25.7198C46.8589 26.671 47.0911 27.5952 47.1724 28.3545C47.213 28.7342 47.2152 29.0666 47.1694 29.3376C47.1235 29.6092 47.0315 29.8072 46.8942 29.9336L47.0636 30.1175ZM45.4781 20.8766C45.4643 20.6309 45.3962 20.438 45.2673 20.3051C45.1373 20.1709 44.9627 20.1154 44.7732 20.1095C44.4038 20.0981 43.9307 20.2741 43.4534 20.5094C42.9703 20.7475 42.4602 21.0584 42.0104 21.3392C41.5562 21.6228 41.1701 21.8712 40.9232 21.9943L41.0347 22.2181C41.2957 22.088 41.6977 21.8291 42.1428 21.5513C42.5925 21.2705 43.0932 20.9657 43.5639 20.7336C44.0403 20.4987 44.4639 20.3501 44.7655 20.3594C44.9116 20.3639 45.0161 20.4051 45.0878 20.4791C45.1606 20.5542 45.2167 20.6807 45.2285 20.8907L45.4781 20.8766ZM18.5016 48.4762C18.4083 48.7316 18.2734 48.885 18.1045 48.9833C17.9311 49.0841 17.7115 49.1331 17.4383 49.1582C17.1634 49.1834 16.855 49.1834 16.499 49.1966C16.1471 49.2097 15.7589 49.2356 15.3434 49.3135L15.3895 49.5592C15.7874 49.4846 16.1616 49.4593 16.5083 49.4464C16.8509 49.4338 17.1774 49.4332 17.4612 49.4071C17.7468 49.3809 18.0097 49.3276 18.2302 49.1994C18.4552 49.0685 18.6255 48.8658 18.7364 48.562L18.5016 48.4762ZM15.3435 49.3135C14.8853 49.3991 14.5504 49.7342 14.3247 50.1653C14.0988 50.5969 13.973 51.1399 13.937 51.6794C13.901 52.2191 13.954 52.7657 14.0942 53.2066C14.2322 53.6401 14.4664 54.0061 14.8188 54.1237L14.8979 53.8865C14.6629 53.8082 14.4636 53.5431 14.3325 53.1308C14.2036 52.7257 14.152 52.2115 14.1864 51.6961C14.2209 51.1803 14.3408 50.6736 14.5462 50.2813C14.7518 49.8885 15.0341 49.6256 15.3894 49.5593L15.3435 49.3135ZM14.8189 54.1237C15.2772 54.2762 15.7195 54.3659 16.0923 54.2368C16.4789 54.1029 16.7514 53.7505 16.9077 53.1209L16.6651 53.0607C16.5189 53.6492 16.2841 53.9058 16.0105 54.0006C15.7233 54.1 15.3528 54.0379 14.8978 53.8865L14.8189 54.1237ZM16.9077 53.121C17.0466 52.5643 17.4897 52.1846 18.0332 52.0033C18.5781 51.8216 19.2046 51.847 19.6794 52.0829L19.7906 51.859C19.2492 51.5901 18.5534 51.5663 17.9541 51.7662C17.3533 51.9665 16.8301 52.3991 16.6651 53.0605L16.9077 53.121ZM19.6789 52.0827C19.9791 52.2334 20.2963 52.191 20.5885 52.0346C20.878 51.8797 21.1518 51.6095 21.3869 51.2826C21.8567 50.6298 22.1977 49.715 22.1977 48.9227H21.9477C21.9477 49.6538 21.6287 50.5185 21.184 51.1366C20.9619 51.4453 20.7148 51.6835 20.4706 51.8142C20.2291 51.9434 19.9997 51.964 19.7911 51.8593L19.6789 52.0827ZM22.1977 48.9228C22.1981 48.4936 21.9806 48.1725 21.6609 47.9574C21.3452 47.745 20.9281 47.6333 20.5072 47.6071C20.0855 47.581 19.648 47.6399 19.2858 47.7807C18.9264 47.9203 18.6211 48.1491 18.5016 48.4762L18.7364 48.562C18.8209 48.3307 19.0496 48.1406 19.3763 48.0137C19.7002 47.8878 20.1008 47.8324 20.4917 47.8567C20.8835 47.881 21.2534 47.9845 21.5213 48.1648C21.7853 48.3425 21.948 48.5916 21.9477 48.9226L22.1977 48.9228ZM11.7277 52.4816C11.7277 52.1707 11.5524 51.959 11.3207 51.8072C11.0939 51.6587 10.7956 51.5556 10.5131 51.4612C10.2227 51.3641 9.94793 51.2759 9.73738 51.1574C9.52826 51.0398 9.41218 50.909 9.39366 50.7392L9.14513 50.7663C9.17654 51.0543 9.3771 51.2416 9.61483 51.3753C9.85115 51.5083 10.1535 51.6046 10.4339 51.6983C10.7222 51.7947 10.9886 51.8886 11.1837 52.0164C11.3739 52.1409 11.4777 52.2846 11.4777 52.4816H11.7277ZM9.39359 50.7386C9.37853 50.6065 9.33679 50.4918 9.26586 50.3991C9.19458 50.3059 9.0992 50.242 8.98858 50.2033C8.77243 50.1279 8.49547 50.1478 8.19463 50.2265C7.58877 50.385 6.81236 50.8016 6.04434 51.3636L6.19198 51.5654C6.94818 51.012 7.69526 50.6156 8.2579 50.4684C8.54131 50.3943 8.75985 50.3883 8.90618 50.4394C8.97679 50.464 9.02939 50.5014 9.0673 50.551C9.10555 50.601 9.1342 50.6704 9.1452 50.7669L9.39359 50.7386ZM6.04434 51.3636C5.66672 51.64 5.34475 51.8651 5.09106 52.0595C4.83742 52.2538 4.63762 52.4278 4.50555 52.6083C4.36973 52.7938 4.30439 52.9877 4.32086 53.2148C4.33683 53.4351 4.4291 53.676 4.584 53.9605L4.80357 53.841C4.6545 53.5672 4.58231 53.3638 4.5702 53.1968C4.55859 53.0366 4.60154 52.9004 4.70728 52.7559C4.81677 52.6063 4.99178 52.4505 5.2431 52.2579C5.49436 52.0654 5.80749 51.8468 6.19198 51.5654L6.04434 51.3636ZM4.58408 53.9607C4.74562 54.2564 4.94067 54.436 5.16558 54.4924C5.39164 54.5491 5.61333 54.4728 5.80827 54.3337C6.19351 54.0586 6.53448 53.4979 6.7408 52.9293L6.50579 52.844C6.30683 53.3923 5.98847 53.8978 5.663 54.1302C5.50258 54.2447 5.35606 54.2825 5.22639 54.2499C5.09557 54.2171 4.94738 54.1043 4.80349 53.8409L4.58408 53.9607ZM6.74077 52.9294C6.78896 52.7969 6.83394 52.7604 6.84966 52.7536C6.85358 52.7518 6.85684 52.7511 6.86449 52.7533C6.87468 52.7564 6.89305 52.7655 6.91856 52.7891C6.97054 52.8374 7.03119 52.9265 7.09175 53.0583C7.15134 53.1881 7.20718 53.3511 7.25359 53.5389C7.44053 54.2956 7.46317 55.4061 7.02255 56.2855L7.24606 56.3975C7.72174 55.4481 7.69225 54.2721 7.4963 53.479C7.44699 53.2794 7.38643 53.1009 7.31892 52.954C7.25237 52.8091 7.17521 52.6862 7.08863 52.6059C7.00199 52.5255 6.88006 52.4675 6.74958 52.5245C6.63521 52.5744 6.55933 52.6968 6.50582 52.8439L6.74077 52.9294ZM7.02253 56.2855C6.54637 57.2366 6.57834 58.3736 6.88101 59.2409C7.0325 59.6749 7.25488 60.0506 7.5252 60.304C7.79648 60.5584 8.12578 60.6971 8.47763 60.6262L8.42828 60.3811C8.1788 60.4314 7.92808 60.3391 7.69619 60.1217C7.46335 59.9034 7.25943 59.5665 7.11705 59.1585C6.83199 58.3417 6.80595 57.2765 7.24608 56.3974L7.02253 56.2855ZM8.47705 60.6263C8.63559 60.5952 8.78753 60.4998 8.9319 60.3697C9.07743 60.2387 9.22432 60.0642 9.37238 59.86C9.66839 59.4518 9.98019 58.9093 10.3044 58.3191C10.957 57.1314 11.6622 55.7479 12.416 54.7928L12.2197 54.6379C11.4493 55.6142 10.7301 57.025 10.0853 58.1987C9.76088 58.7893 9.45576 59.3192 9.17 59.7133C9.02717 59.9102 8.89196 60.0693 8.7646 60.184C8.63608 60.2997 8.52435 60.3623 8.42886 60.381L8.47705 60.6263ZM12.4159 54.7928C12.7982 54.3092 12.9694 53.9628 12.9747 53.6971C12.9776 53.5572 12.9346 53.4423 12.8594 53.349C12.7869 53.259 12.689 53.1946 12.5897 53.1434C12.4907 53.0923 12.3797 53.0493 12.2777 53.0085C12.1728 52.9664 12.0756 52.9261 11.9909 52.8778C11.9066 52.8298 11.8416 52.7777 11.7976 52.7163C11.7551 52.6571 11.7277 52.5831 11.7277 52.4816H11.4777C11.4777 52.6333 11.5203 52.7586 11.5944 52.862C11.667 52.9632 11.7652 53.037 11.8671 53.095C11.9686 53.1529 12.0808 53.1989 12.1848 53.2405C12.2919 53.2834 12.3894 53.3213 12.4751 53.3656C12.5606 53.4097 12.6236 53.4549 12.6647 53.5059C12.7031 53.5536 12.7264 53.6111 12.7248 53.692C12.7212 53.8677 12.6003 54.1565 12.2198 54.6378L12.4159 54.7928Z" fill="#868686"/>
</g>
<defs>
<filter id="filter0_d_6252_1258" x="0.318359" y="0.550415" width="66.6396" height="66.0942" filterUnits="userSpaceOnUse" color-interpolation-filters="sRGB">
<feFlood flood-opacity="0" result="BackgroundImageFix"/>
<feColorMatrix in="SourceAlpha" type="matrix" values="0 0 0 0 0 0 0 0 0 0 0 0 0 0 0 0 0 0 127 0" result="hardAlpha"/>
<feOffset dy="2"/>
<feGaussianBlur stdDeviation="2"/>
<feColorMatrix type="matrix" values="0 0 0 0 0 0 0 0 0 0 0 0 0 0 0 0 0 0 0.01 0"/>
<feBlend mode="normal" in2="BackgroundImageFix" result="effect1_dropShadow_6252_1258"/>
<feBlend mode="normal" in="SourceGraphic" in2="effect1_dropShadow_6252_1258" result="shape"/>
</filter>
</defs>
</svg>
