<svg width="149" height="74" viewBox="0 0 149 74" fill="none" xmlns="http://www.w3.org/2000/svg">
<g filter="url(#filter0_d_6252_1312)">
<path fill-rule="evenodd" clip-rule="evenodd" d="M144.063 28.8112C143.965 28.1023 143.349 28.4046 142.843 28.707C142.335 29.0108 140.708 29.2177 140.098 29.2177C139.489 29.2177 138.371 28.4046 138.371 27.7956C138.371 27.185 138.241 26.5011 137.634 26.5011C137.025 26.5011 136.107 26.1929 135.501 24.7458C134.888 23.3002 133.975 23.3002 133.288 22.9186C132.601 22.537 130.696 23.604 129.858 23.9078C129.019 24.2146 127.57 23.604 126.504 23.3765C125.435 23.1476 124.827 21.2441 123.837 21.473C122.844 21.7005 122.617 23.6818 121.852 23.6818C121.091 23.6818 119.718 19.7207 118.27 17.5089C116.825 15.3016 114.232 10.8826 111.946 10.0416C109.656 9.20507 110.341 8.06179 110.953 7.45272C111.562 6.84365 109.58 6.69102 108.664 7.2223C107.75 7.75505 106.609 8.74717 105.54 8.97612C104.471 9.2036 102.949 10.8826 101.805 10.4995C100.661 10.1165 100.126 11.9466 99.213 11.1071C98.2982 10.2706 100.433 9.66297 100.433 8.8998C100.433 8.13664 98.9839 9.12875 98.6021 8.67085C98.2218 8.21295 96.9986 7.75505 96.9986 8.44484C96.9986 9.13022 96.0089 8.74717 96.0089 8.21442C96.0089 7.68314 95.3246 6.69248 94.7123 7.37934C94.1043 8.06325 92.0471 8.44631 91.5875 7.91062C91.1293 7.37934 91.8914 7.15039 91.9707 6.46207C92.0471 5.77668 91.2071 4.86381 91.3598 4.02726C91.5126 3.18631 89.9105 2.34976 89.1499 2.65209C88.3863 2.95883 87.3187 2.65209 86.4817 2.27344C85.6433 1.89039 82.3643 2.50093 82.213 3.26263C82.0603 4.02726 77.9473 4.63486 77.1807 4.9372C76.4201 5.2454 73.3702 5.70036 72.3041 5.853C71.2351 6.00416 70.169 6.91997 68.7946 6.91997C67.423 6.91997 64.8313 7.0726 63.614 7.98694C62.3937 8.90274 60.4099 8.13957 59.4965 8.44631C58.5802 8.74864 57.0574 8.2922 56.5978 8.59894C56.1397 8.90274 56.2938 10.7314 56.7505 11.4946C57.2087 12.2563 59.6477 12.5601 59.7975 13.018C59.9517 13.4744 57.3599 13.4744 56.1397 13.627C54.9223 13.7797 55.2263 15.3046 55.5303 16.0633C55.8357 16.828 54.3115 17.5897 53.3966 17.892C52.4818 18.1958 53.3966 19.7221 54.3115 19.7221C55.2263 19.7221 55.9899 20.4838 56.7505 20.4838C57.5112 20.4838 57.6639 22.0072 57.6639 22.9216C57.6639 23.833 56.7505 24.1397 55.5303 24.1397C54.3115 24.1397 53.7021 23.2254 52.9385 23.0713C52.1764 22.9201 52.3291 24.4464 51.7168 24.7488C51.1103 25.054 50.9561 23.6833 50.0428 23.6833C49.125 23.6833 48.0575 23.5306 47.755 22.6148C47.4495 21.702 45.3144 21.5464 44.4011 22.4637C43.4862 23.3765 43.1808 22.9201 42.4187 22.311C41.6551 21.702 39.3673 22.6148 39.0648 23.378C38.7609 24.1397 37.081 24.4464 35.8607 23.6833C34.6405 22.9201 33.8798 22.6148 33.8798 23.6833C33.8798 24.7488 32.965 23.833 32.965 23.2239C32.965 22.6148 30.9811 21.3967 30.0678 20.7862C29.1515 20.1786 26.2557 20.1786 26.103 19.5666C25.9503 18.959 24.1207 18.4981 23.6669 19.5666C23.2073 20.6365 22.4452 19.8748 21.8343 19.5666C21.2249 19.2628 19.8534 20.0245 19.2425 20.3297C18.6331 20.6365 16.6493 22.0072 15.5832 22.0072C14.5172 22.0072 15.1236 23.3795 13.755 23.6847C12.3821 23.9885 12.6875 24.9029 12.8402 25.5134C12.9915 26.121 13.755 27.1894 12.5362 27.6459C11.316 28.1038 10.8549 26.121 9.78882 25.3564C8.72128 24.5976 7.80938 25.5119 7.80938 26.5789C7.80938 27.6459 6.58765 27.6459 5.97826 28.7099C5.36886 29.7769 7.04727 29.9295 7.04727 30.3889C7.04727 30.8453 6.13244 31.3017 5.82848 31.4559C5.52305 31.61 4.76093 33.1319 5.0649 33.5883C5.36886 34.0448 7.19852 33.8921 7.04727 34.9606C6.89456 36.0261 6.74331 37.093 7.6552 36.7892C8.5715 36.484 9.48633 36.6351 10.0957 36.6351C10.7066 36.6351 11.1662 37.8547 12.2323 39.0773C13.2984 40.2954 13.755 40.903 12.689 41.2083C11.6199 41.5121 12.0781 42.1226 13.4525 42.7331C13.8152 42.8931 14.1941 43.1367 14.5627 43.3965C14.7829 43.2483 14.9959 43.1 15.1809 42.9357C16.9063 41.4137 20.0605 39.9872 22.3967 40.6007C24.7359 41.2083 26.6669 40.1941 27.6845 41.6148C28.6963 43.0355 27.6786 45.6787 28.0883 46.6943C28.4951 47.7084 26.2587 47.8126 24.7359 47.6057C23.2088 47.4061 20.0561 48.2192 20.4672 49.1306C20.874 50.0449 21.99 52.1803 19.9562 51.062C17.9254 49.9436 17.1104 52.1774 18.2308 52.1774C19.3468 52.1774 20.874 53.4997 20.874 54.4126C20.874 55.3269 20.9738 57.3596 21.99 57.0528C23.0076 56.7476 23.0076 58.5762 24.429 58.4764C25.8549 58.3781 27.1735 58.8844 26.0546 60.2053C24.9371 61.5262 26.7653 65.1835 27.1735 64.369C27.4305 63.8568 27.2043 62.7487 27.6052 62.0443C26.8108 60.1774 30.1808 60.1701 31.1559 60.1701C32.2396 60.1701 34.1427 61.7962 35.3615 63.4282C36.5832 65.0529 37.8049 63.9698 37.8049 63.9698L38.2117 48.7769L46.9077 46.4609C46.9899 46.2452 47.0839 46.0441 47.194 45.8812C48.3144 44.2551 49.8181 45.5994 50.3453 45.9825C50.7873 46.301 50.5479 44.2565 51.7682 44.3578C52.987 44.4605 51.6668 46.3875 52.5846 46.3875C53.2939 46.3875 54.9223 48.9119 54.4113 50.8961C55.7667 52.0086 58.2146 54.6254 58.4304 55.2843C58.7035 56.0974 62.2322 54.7457 62.912 55.0128C63.5905 55.2843 68.8827 55.2843 69.8357 55.2843C70.7843 55.2843 71.4583 57.047 72.5464 57.3185C73.6345 57.5944 73.2263 59.357 73.3628 60.5752C73.5009 61.7962 75.1293 63.0202 75.263 64.1063C75.401 65.1865 77.1646 64.6478 78.2497 64.9193C79.3364 65.1894 80.9619 65.5959 81.097 66.6805C81.2321 67.7651 82.5919 66.9535 82.7255 66.1375C82.8621 65.3259 84.2204 64.2398 86.2527 63.4268C87.1719 63.0584 87.7769 63.0599 88.2365 63.233C88.6154 62.26 89.0045 61.4366 89.2747 61.3192C89.9825 61.0169 91.3055 60.0013 91.4098 58.9857C91.5096 57.9686 94.2556 57.9686 96.0852 58.88C97.9134 59.7958 99.0338 59.7988 99.1337 58.3766C99.2335 56.9516 101.877 56.5465 102.692 56.9516C103.504 57.3581 106.046 58.7817 107.264 58.271C108.485 57.7632 114.582 58.3752 116.109 58.7817C117.633 59.1838 118.038 58.1726 119.36 59.696C120.467 60.9743 121.007 59.8237 122.239 60.81C122.233 60.4211 122.154 59.9323 122.154 59.4128C122.154 58.4251 123.678 57.5856 123.981 56.8239C124.288 56.0607 122.609 53.7771 122.609 53.0139C122.609 52.2522 122.609 50.4235 121.844 50.0434C121.084 49.6648 123.294 48.6712 123.821 48.6976C124.952 48.7548 126.564 47.5763 127.057 48.0636C127.548 48.5567 128.533 48.6976 129.518 48.6976C130.502 48.6976 130.084 47.5763 129.518 47.0803C128.954 46.5886 131.278 42.0199 131.63 40.473C131.981 38.9232 132.825 40.3321 133.95 40.473C135.079 40.6109 136.414 40.4025 137.117 40.7533C137.819 41.0997 139.86 40.3321 140.354 39.5572C140.846 38.7837 139.79 38.5739 139.86 36.8156C139.934 35.0574 140.988 34.2121 142.112 34.2121C143.241 34.2121 143.587 33.1598 143.587 32.3159C143.587 31.5527 144.504 31.0728 144.781 30.1042C144.424 29.7152 144.117 29.2045 144.063 28.8112ZM57.0766 43.7004C56.6684 44.2581 52.6493 43.219 52.316 42.3971C51.9533 41.5195 57.9518 42.5043 57.0766 43.7004ZM114.79 43.3348C111.944 43.3348 105.642 41.9141 103.1 44.6542C100.56 47.4001 102.391 48.8222 101.273 49.0262C100.072 49.242 99.4437 44.8596 100.864 43.4375C102.288 42.0154 106.864 41.4063 109.708 42.1166C112.554 42.8284 117.635 41.509 118.348 41.713C119.06 41.9156 117.639 43.3348 114.79 43.3348Z" fill="white"/>
<path d="M144.063 28.8112L144.187 28.7941L144.187 28.794L144.063 28.8112ZM142.843 28.707L142.779 28.5996L142.779 28.5997L142.843 28.707ZM135.501 24.7458L135.616 24.6975L135.616 24.6971L135.501 24.7458ZM129.858 23.9078L129.815 23.7903L129.815 23.7904L129.858 23.9078ZM126.504 23.3765L126.477 23.4988L126.478 23.4988L126.504 23.3765ZM123.837 21.473L123.865 21.5949L123.865 21.5948L123.837 21.473ZM118.27 17.5089L118.166 17.5774V17.5774L118.27 17.5089ZM111.946 10.0416L111.989 9.92431L111.989 9.92422L111.946 10.0416ZM110.953 7.45272L111.041 7.54134L111.041 7.54113L110.953 7.45272ZM108.664 7.2223L108.601 7.11416L108.601 7.11433L108.664 7.2223ZM105.54 8.97612L105.566 9.09838L105.567 9.09835L105.54 8.97612ZM99.213 11.1071L99.2976 11.0151L99.2973 11.0149L99.213 11.1071ZM98.6021 8.67085L98.506 8.75072L98.5061 8.7509L98.6021 8.67085ZM94.7123 7.37934L94.619 7.29615L94.6188 7.29629L94.7123 7.37934ZM91.5875 7.91062L91.6823 7.82922L91.6821 7.82899L91.5875 7.91062ZM91.9707 6.46207L92.0949 6.47637L92.0949 6.47591L91.9707 6.46207ZM91.3598 4.02726L91.4828 4.04971L91.4828 4.0496L91.3598 4.02726ZM89.1499 2.65209L89.1037 2.53593L89.1033 2.5361L89.1499 2.65209ZM86.4817 2.27344L86.4298 2.38714L86.4302 2.38733L86.4817 2.27344ZM82.213 3.26263L82.3356 3.28711L82.3356 3.28697L82.213 3.26263ZM77.1807 4.9372L77.1349 4.82091L77.1338 4.82134L77.1807 4.9372ZM72.3041 5.853L72.3216 5.97677L72.3218 5.97674L72.3041 5.853ZM63.614 7.98694L63.689 8.08691L63.689 8.08688L63.614 7.98694ZM59.4965 8.44631L59.5357 8.56501L59.5363 8.5648L59.4965 8.44631ZM56.5978 8.59894L56.6669 8.70312L56.6672 8.70291L56.5978 8.59894ZM56.7505 11.4946L56.6433 11.5588L56.6434 11.559L56.7505 11.4946ZM59.7975 13.018L59.6787 13.0568L59.6791 13.058L59.7975 13.018ZM56.1397 13.627L56.1242 13.503L56.1241 13.503L56.1397 13.627ZM55.5303 16.0633L55.6464 16.017L55.6463 16.0168L55.5303 16.0633ZM53.3966 17.892L53.3574 17.7733L53.3573 17.7734L53.3966 17.892ZM52.9385 23.0713L52.9632 22.9487L52.9628 22.9487L52.9385 23.0713ZM51.7168 24.7488L51.6614 24.6367L51.6606 24.6371L51.7168 24.7488ZM47.755 22.6148L47.8736 22.5756L47.8735 22.5752L47.755 22.6148ZM44.4011 22.4637L44.4894 22.5521L44.4897 22.5519L44.4011 22.4637ZM42.4187 22.311L42.4967 22.2134L42.4966 22.2133L42.4187 22.311ZM39.0648 23.378L39.1809 23.4243L39.181 23.4241L39.0648 23.378ZM30.0678 20.7862L30.1372 20.6822L30.1369 20.682L30.0678 20.7862ZM26.103 19.5666L26.2243 19.5363L26.2243 19.5361L26.103 19.5666ZM23.6669 19.5666L23.7818 19.6159L23.782 19.6154L23.6669 19.5666ZM21.8343 19.5666L21.8906 19.455L21.8901 19.4547L21.8343 19.5666ZM19.2425 20.3297L19.1867 20.2179L19.1863 20.2181L19.2425 20.3297ZM13.755 23.6847L13.782 23.8068L13.7823 23.8067L13.755 23.6847ZM12.8402 25.5134L12.9615 25.4832L12.9615 25.4831L12.8402 25.5134ZM12.5362 27.6459L12.4924 27.5288L12.4923 27.5288L12.5362 27.6459ZM9.78882 25.3564L9.86168 25.2548L9.86124 25.2545L9.78882 25.3564ZM5.97826 28.7099L5.86979 28.6478L5.86971 28.6479L5.97826 28.7099ZM5.82848 31.4559L5.88478 31.5675L5.885 31.5673L5.82848 31.4559ZM7.04727 34.9606L7.17101 34.9783L7.17104 34.9781L7.04727 34.9606ZM7.6552 36.7892L7.61569 36.6706L7.6552 36.7892ZM12.2323 39.0773L12.1381 39.1594L12.1382 39.1596L12.2323 39.0773ZM12.689 41.2083L12.7231 41.3285L12.7234 41.3284L12.689 41.2083ZM13.4525 42.7331L13.4018 42.8474L13.4021 42.8475L13.4525 42.7331ZM14.5627 43.3965L14.4907 43.4987L14.561 43.5483L14.6325 43.5002L14.5627 43.3965ZM15.1809 42.9357L15.0982 42.8419L15.0979 42.8422L15.1809 42.9357ZM22.3967 40.6007L22.365 40.7216L22.3653 40.7217L22.3967 40.6007ZM27.6845 41.6148L27.7863 41.5423L27.7861 41.542L27.6845 41.6148ZM28.0883 46.6943L28.2044 46.6478L28.2043 46.6475L28.0883 46.6943ZM24.7359 47.6057L24.7528 47.4818L24.7521 47.4817L24.7359 47.6057ZM20.4672 49.1306L20.5814 49.0797L20.5812 49.0792L20.4672 49.1306ZM19.9562 51.062L19.8959 51.1715L19.896 51.1715L19.9562 51.062ZM21.99 57.0528L21.9541 56.9331L21.9538 56.9332L21.99 57.0528ZM24.429 58.4764L24.4204 58.3517L24.4203 58.3517L24.429 58.4764ZM26.0546 60.2053L25.9592 60.1245L25.9591 60.1246L26.0546 60.2053ZM27.1735 64.369L27.0618 64.3129L27.0618 64.313L27.1735 64.369ZM27.6052 62.0443L27.7139 62.1061L27.7445 62.0523L27.7202 61.9953L27.6052 62.0443ZM35.3615 63.4282L35.2613 63.503L35.2615 63.5034L35.3615 63.4282ZM37.8049 63.9698L37.8878 64.0633L37.9284 64.0273L37.9299 63.9731L37.8049 63.9698ZM38.2117 48.7769L38.1795 48.6561L38.0892 48.6801L38.0867 48.7735L38.2117 48.7769ZM46.9077 46.4609L46.9398 46.5817L47.0017 46.5653L47.0245 46.5055L46.9077 46.4609ZM47.194 45.8812L47.0911 45.8103L47.0905 45.8112L47.194 45.8812ZM50.3453 45.9825L50.2718 46.0836L50.2722 46.0839L50.3453 45.9825ZM51.7682 44.3578L51.7787 44.2332L51.7785 44.2332L51.7682 44.3578ZM54.4113 50.8961L54.2903 50.8649L54.2704 50.9422L54.332 50.9927L54.4113 50.8961ZM58.4304 55.2843L58.3116 55.3232L58.3119 55.3241L58.4304 55.2843ZM62.912 55.0128L62.9585 54.8968L62.9578 54.8965L62.912 55.0128ZM72.5464 57.3185L72.5771 57.1973L72.5766 57.1972L72.5464 57.3185ZM73.3628 60.5752L73.2386 60.5891L73.2386 60.5892L73.3628 60.5752ZM75.263 64.1063L75.1389 64.1215L75.139 64.1221L75.263 64.1063ZM78.2497 64.9193L78.2194 65.0406L78.2196 65.0407L78.2497 64.9193ZM82.7255 66.1375L82.6022 66.1167L82.6021 66.1173L82.7255 66.1375ZM86.2527 63.4268L86.2991 63.5428L86.2992 63.5428L86.2527 63.4268ZM88.2365 63.233L88.1924 63.35L88.3081 63.3936L88.353 63.2784L88.2365 63.233ZM89.2747 61.3192L89.2256 61.2043L89.2249 61.2046L89.2747 61.3192ZM91.4098 58.9857L91.5341 58.9985L91.5342 58.9979L91.4098 58.9857ZM96.0852 58.88L96.1412 58.7683L96.141 58.7681L96.0852 58.88ZM99.1337 58.3766L99.2584 58.3854V58.3854L99.1337 58.3766ZM102.692 56.9516L102.748 56.8398L102.747 56.8396L102.692 56.9516ZM107.264 58.271L107.216 58.1556L107.216 58.1557L107.264 58.271ZM116.109 58.7817L116.077 58.9025L116.077 58.9026L116.109 58.7817ZM119.36 59.696L119.454 59.6142L119.454 59.6141L119.36 59.696ZM122.239 60.81L122.161 60.9076L122.368 61.0734L122.364 60.8081L122.239 60.81ZM123.981 56.8239L123.865 56.7772L123.865 56.7777L123.981 56.8239ZM121.844 50.0434L121.789 50.1553L121.789 50.1554L121.844 50.0434ZM123.821 48.6976L123.827 48.5728L123.827 48.5728L123.821 48.6976ZM127.057 48.0636L127.146 47.9754L127.145 47.9746L127.057 48.0636ZM129.518 47.0803L129.601 46.9863L129.601 46.9861L129.518 47.0803ZM131.63 40.473L131.752 40.5008L131.752 40.5006L131.63 40.473ZM133.95 40.473L133.935 40.597L133.935 40.5971L133.95 40.473ZM137.117 40.7533L137.062 40.8652L137.062 40.8654L137.117 40.7533ZM140.354 39.5572L140.459 39.6243L140.459 39.6243L140.354 39.5572ZM139.86 36.8156L139.736 36.8104L139.736 36.8106L139.86 36.8156ZM144.781 30.1042L144.901 30.1386L144.921 30.0713L144.873 30.0197L144.781 30.1042ZM57.0766 43.7004L57.1775 43.7742L57.1775 43.7742L57.0766 43.7004ZM52.316 42.3971L52.4318 42.3501L52.4315 42.3494L52.316 42.3971ZM103.1 44.6542L103.008 44.5692L103.008 44.5693L103.1 44.6542ZM101.273 49.0262L101.295 49.1493L101.296 49.1492L101.273 49.0262ZM100.864 43.4375L100.775 43.349L100.775 43.3492L100.864 43.4375ZM109.708 42.1166L109.738 41.9954L109.738 41.9953L109.708 42.1166ZM118.348 41.713L118.314 41.8332L118.314 41.8333L118.348 41.713ZM144.187 28.794C144.16 28.6002 144.095 28.4516 143.982 28.3575C143.868 28.2619 143.728 28.241 143.593 28.2556C143.458 28.2701 143.317 28.3203 143.181 28.3824C143.045 28.445 142.907 28.5234 142.779 28.5996L142.907 28.8143C143.032 28.7394 143.161 28.6666 143.285 28.6097C143.411 28.5522 143.524 28.5144 143.619 28.5042C143.713 28.494 143.777 28.5115 143.822 28.5491C143.869 28.5882 143.917 28.6677 143.939 28.8284L144.187 28.794ZM142.779 28.5997C142.667 28.6663 142.484 28.7327 142.253 28.7941C142.025 28.8549 141.759 28.9085 141.488 28.9529C140.946 29.042 140.394 29.0927 140.098 29.0927V29.3427C140.412 29.3427 140.979 29.2899 141.529 29.1996C141.805 29.1543 142.079 29.0992 142.318 29.0357C142.553 28.973 142.764 28.8995 142.907 28.8143L142.779 28.5997ZM140.098 29.0927C139.971 29.0927 139.805 29.0492 139.623 28.9672C139.442 28.8859 139.254 28.7707 139.084 28.6368C138.913 28.5026 138.763 28.3523 138.658 28.2026C138.551 28.0511 138.496 27.9114 138.496 27.7956H138.246C138.246 27.9843 138.332 28.1746 138.453 28.3468C138.576 28.5209 138.744 28.6881 138.929 28.8333C139.114 28.9787 139.32 29.1049 139.52 29.1951C139.719 29.2846 139.921 29.3427 140.098 29.3427V29.0927ZM138.496 27.7956C138.496 27.4853 138.464 27.1406 138.345 26.8692C138.285 26.732 138.2 26.6078 138.081 26.5178C137.96 26.4266 137.811 26.3761 137.634 26.3761V26.6261C137.761 26.6261 137.856 26.6612 137.93 26.7173C138.006 26.7746 138.068 26.8595 138.116 26.9696C138.214 27.1928 138.246 27.4953 138.246 27.7956H138.496ZM137.634 26.3761C137.351 26.3761 136.994 26.3046 136.636 26.0626C136.279 25.8206 135.912 25.4029 135.616 24.6975L135.385 24.7941C135.696 25.5359 136.091 25.9958 136.496 26.2697C136.901 26.5435 137.308 26.6261 137.634 26.6261V26.3761ZM135.616 24.6971C135.299 23.9501 134.9 23.5677 134.485 23.3253C134.281 23.2059 134.076 23.122 133.884 23.0457C133.689 22.9683 133.512 22.9 133.348 22.8093L133.227 23.0279C133.408 23.1281 133.602 23.2028 133.791 23.278C133.983 23.3542 134.173 23.4322 134.359 23.5411C134.726 23.7556 135.09 24.0959 135.386 24.7946L135.616 24.6971ZM133.348 22.8093C133.137 22.6921 132.853 22.6942 132.558 22.7464C132.258 22.7996 131.921 22.91 131.584 23.0396C131.248 23.1694 130.907 23.3206 130.6 23.4572C130.291 23.5949 130.019 23.7162 129.815 23.7903L129.9 24.0253C130.115 23.9475 130.396 23.8216 130.701 23.6856C131.009 23.5487 131.344 23.4 131.674 23.2728C132.005 23.1454 132.325 23.0416 132.602 22.9926C132.884 22.9426 133.095 22.9544 133.227 23.0279L133.348 22.8093ZM129.815 23.7904C129.434 23.9295 128.897 23.864 128.295 23.7209C127.998 23.6503 127.693 23.5631 127.394 23.4784C127.095 23.3941 126.801 23.3121 126.53 23.2543L126.478 23.4988C126.74 23.5547 127.026 23.6344 127.326 23.7189C127.624 23.8031 127.934 23.892 128.237 23.9641C128.836 24.1065 129.442 24.1929 129.9 24.0252L129.815 23.7904ZM126.53 23.2543C126.295 23.2039 126.076 23.0593 125.86 22.8588C125.644 22.6578 125.443 22.413 125.235 22.1715C125.032 21.9346 124.82 21.6994 124.593 21.5394C124.362 21.3771 124.102 21.2833 123.809 21.3512L123.865 21.5948C124.066 21.5482 124.254 21.6065 124.449 21.7439C124.647 21.8836 124.84 22.0956 125.046 22.3346C125.247 22.569 125.461 22.8287 125.69 23.0419C125.92 23.2555 126.178 23.4347 126.477 23.4988L126.53 23.2543ZM123.809 21.3512C123.522 21.417 123.299 21.6078 123.118 21.8364C122.937 22.0646 122.786 22.3437 122.648 22.6043C122.508 22.8704 122.382 23.1138 122.246 23.2928C122.108 23.4731 121.983 23.5568 121.852 23.5568V23.8068C122.103 23.8068 122.293 23.6428 122.444 23.4445C122.597 23.2449 122.733 22.9788 122.87 22.7211C123.009 22.4579 123.149 22.1991 123.314 21.9918C123.478 21.785 123.656 21.6428 123.865 21.5949L123.809 21.3512ZM121.852 23.5568C121.809 23.5568 121.735 23.526 121.627 23.4187C121.523 23.3156 121.408 23.1612 121.28 22.9612C121.026 22.562 120.741 22.0036 120.431 21.3699C119.814 20.1089 119.104 18.5549 118.375 17.4405L118.166 17.5774C118.884 18.6747 119.584 20.2071 120.206 21.4797C120.516 22.1126 120.807 22.6828 121.069 23.0954C121.2 23.3014 121.328 23.4737 121.451 23.5959C121.569 23.7138 121.705 23.8068 121.852 23.8068V23.5568ZM118.375 17.4405C117.655 16.3415 116.641 14.6779 115.523 13.1879C114.964 12.4422 114.376 11.7363 113.782 11.1628C113.19 10.5907 112.584 10.1432 111.989 9.92431L111.903 10.1589C112.45 10.3605 113.026 10.7807 113.608 11.3427C114.189 11.9033 114.768 12.5978 115.324 13.3379C116.435 14.8194 117.44 16.469 118.166 17.5774L118.375 17.4405ZM111.989 9.92422C110.856 9.51027 110.518 9.04166 110.486 8.65157C110.452 8.24529 110.738 7.84318 111.041 7.54134L110.865 7.36409C110.556 7.67133 110.193 8.14539 110.237 8.67216C110.282 9.21512 110.746 9.73643 111.903 10.159L111.989 9.92422ZM111.041 7.54113C111.128 7.45482 111.188 7.35755 111.192 7.25089C111.196 7.13783 111.137 7.04942 111.059 6.98748C110.984 6.92709 110.883 6.88349 110.773 6.8519C110.661 6.81985 110.531 6.79785 110.392 6.78538C109.842 6.73608 109.089 6.83132 108.601 7.11416L108.726 7.33044C109.155 7.08199 109.851 6.98791 110.369 7.03438C110.497 7.04584 110.611 7.06561 110.704 7.09224C110.798 7.11934 110.864 7.15136 110.903 7.18263C110.94 7.21235 110.943 7.23164 110.942 7.24143C110.942 7.25762 110.931 7.29835 110.865 7.36431L111.041 7.54113ZM108.601 7.11433C108.143 7.38133 107.614 7.77265 107.093 8.10804C106.561 8.45019 106.025 8.74448 105.514 8.85389L105.567 9.09835C106.125 8.97881 106.693 8.66257 107.228 8.31823C107.773 7.96713 108.271 7.59602 108.727 7.33027L108.601 7.11433ZM105.514 8.85386C105.226 8.91522 104.916 9.07193 104.603 9.25632C104.295 9.43804 103.954 9.66621 103.636 9.86001C103.309 10.0591 102.988 10.2341 102.681 10.3365C102.375 10.4389 102.095 10.4649 101.844 10.381L101.765 10.6181C102.086 10.7256 102.426 10.6855 102.76 10.5736C103.094 10.4619 103.435 10.2748 103.766 10.0735C104.105 9.86704 104.416 9.65676 104.73 9.47166C105.039 9.28924 105.32 9.15077 105.566 9.09838L105.514 8.85386ZM101.844 10.381C101.197 10.1643 100.721 10.5835 100.346 10.8759C100.147 11.031 99.979 11.1508 99.813 11.191C99.6636 11.2271 99.5005 11.2016 99.2976 11.0151L99.1284 11.1992C99.3822 11.4324 99.6284 11.4929 99.8718 11.434C100.099 11.3791 100.307 11.2227 100.499 11.0731C100.906 10.7561 101.268 10.4517 101.765 10.6181L101.844 10.381ZM99.2973 11.0149C99.1942 10.9205 99.1434 10.838 99.1226 10.7678C99.1023 10.6997 99.1071 10.6327 99.1344 10.5614C99.193 10.4086 99.3493 10.2488 99.5604 10.0717C99.7597 9.90453 100.011 9.71967 100.2 9.53946C100.388 9.36059 100.558 9.14717 100.558 8.8998H100.308C100.308 9.03403 100.212 9.18274 100.028 9.35858C99.8448 9.53308 99.6199 9.6955 99.3997 9.88018C99.1914 10.0549 98.9855 10.2516 98.901 10.4719C98.8568 10.5871 98.8448 10.7108 98.8829 10.839C98.9204 10.9652 99.0031 11.0846 99.1286 11.1994L99.2973 11.0149ZM100.558 8.8998C100.558 8.78536 100.531 8.68458 100.465 8.60799C100.399 8.53134 100.309 8.49639 100.22 8.48287C100.05 8.45717 99.8322 8.50265 99.6325 8.5491C99.421 8.59833 99.2165 8.65228 99.0383 8.66797C98.8552 8.68409 98.7511 8.65438 98.6981 8.5908L98.5061 8.7509C98.644 8.91627 98.8643 8.93426 99.0603 8.917C99.2612 8.8993 99.4907 8.83878 99.6892 8.7926C99.8996 8.74366 100.068 8.71283 100.182 8.73005C100.235 8.738 100.261 8.75432 100.276 8.77128C100.29 8.7883 100.308 8.82345 100.308 8.8998H100.558ZM98.6983 8.59099C98.4871 8.33669 98.0601 8.0962 97.6871 8.00597C97.5014 7.96102 97.3064 7.94757 97.1504 8.00826C97.0694 8.03974 96.9976 8.09186 96.9471 8.1696C96.8969 8.24677 96.8736 8.34011 96.8736 8.44484H97.1236C97.1236 8.37711 97.1385 8.33388 97.1567 8.30585C97.1746 8.27839 97.2013 8.2567 97.241 8.24125C97.3262 8.20811 97.4608 8.20841 97.6283 8.24896C97.9621 8.3297 98.3369 8.54711 98.506 8.75072L98.6983 8.59099ZM96.8736 8.44484C96.8736 8.58433 96.8257 8.63975 96.7827 8.66393C96.731 8.69302 96.6462 8.69972 96.5407 8.66703C96.4377 8.63511 96.3329 8.57047 96.2552 8.48659C96.1775 8.40271 96.1339 8.30784 96.1339 8.21442H95.8839C95.8839 8.38738 95.964 8.54017 96.0718 8.65653C96.1797 8.77288 96.3223 8.86107 96.4667 8.90583C96.6087 8.94982 96.7714 8.95707 96.9052 8.88187C97.0478 8.80175 97.1236 8.64804 97.1236 8.44484H96.8736ZM96.1339 8.21442C96.1339 8.05777 96.0844 7.87777 96.0055 7.71004C95.9262 7.54132 95.8127 7.37512 95.6749 7.24816C95.5379 7.12188 95.3675 7.02622 95.177 7.0204C94.9816 7.01444 94.7906 7.10357 94.619 7.29615L94.8056 7.46252C94.94 7.31168 95.0642 7.26707 95.1694 7.27028C95.2794 7.27364 95.3949 7.33006 95.5055 7.43199C95.6153 7.53325 95.7111 7.6714 95.7793 7.81638C95.8479 7.96236 95.8839 8.10543 95.8839 8.21442H96.1339ZM94.6188 7.29629C94.484 7.44794 94.2601 7.5912 93.9825 7.71151C93.7069 7.83092 93.3879 7.92359 93.0725 7.97923C92.7566 8.03497 92.4496 8.05263 92.1975 8.02549C91.9391 7.99768 91.7652 7.92581 91.6823 7.82922L91.4926 7.99201C91.6395 8.16328 91.8952 8.2444 92.1707 8.27406C92.4526 8.30439 92.7841 8.28398 93.116 8.22543C93.4484 8.16678 93.7864 8.06893 94.0819 7.9409C94.3753 7.81378 94.6365 7.65269 94.8057 7.46238L94.6188 7.29629ZM91.6821 7.82899C91.5824 7.7133 91.5626 7.631 91.5675 7.56657C91.5731 7.49466 91.6109 7.41807 91.6808 7.31572C91.8116 7.12409 92.0507 6.86009 92.0949 6.47637L91.8465 6.44776C91.8114 6.75236 91.6298 6.947 91.4743 7.17475C91.401 7.28208 91.3292 7.40537 91.3183 7.54732C91.3067 7.69675 91.3635 7.8423 91.4928 7.99225L91.6821 7.82899ZM92.0949 6.47591C92.117 6.27787 92.0723 6.07189 92.0045 5.87026C91.9367 5.66876 91.8405 5.45741 91.7513 5.25165C91.5677 4.82794 91.4143 4.42506 91.4828 4.04971L91.2369 4.00482C91.1527 4.46601 91.3429 4.93785 91.522 5.35106C91.6141 5.56375 91.7041 5.76141 91.7675 5.94998C91.8309 6.13842 91.8626 6.30357 91.8465 6.44823L92.0949 6.47591ZM91.4828 4.0496C91.5291 3.79508 91.4403 3.55084 91.2868 3.34124C91.1333 3.13176 90.9089 2.94717 90.6601 2.80283C90.4108 2.65817 90.1309 2.55033 89.8612 2.49841C89.5935 2.44687 89.3242 2.44829 89.1037 2.53593L89.196 2.76825C89.3559 2.70473 89.5721 2.69734 89.8139 2.7439C90.0538 2.79008 90.3075 2.88726 90.5346 3.01907C90.7624 3.15118 90.9573 3.31452 91.0851 3.48896C91.2128 3.66328 91.267 3.83897 91.2369 4.00493L91.4828 4.0496ZM89.1033 2.5361C88.7523 2.67709 88.3213 2.68039 87.8659 2.59684C87.4121 2.51358 86.946 2.34628 86.5333 2.15955L86.4302 2.38733C86.8545 2.57925 87.3406 2.75464 87.8208 2.84273C88.2993 2.93053 88.7839 2.93383 89.1965 2.76808L89.1033 2.5361ZM86.5337 2.15975C86.2952 2.05081 85.907 2.01904 85.4778 2.03437C85.0419 2.04993 84.5415 2.11521 84.0638 2.21647C83.5867 2.31758 83.1266 2.45575 82.7734 2.61944C82.597 2.70117 82.4424 2.79144 82.3251 2.89C82.2094 2.98714 82.1173 3.10301 82.0904 3.23828L82.3356 3.28697C82.3466 3.23182 82.39 3.16198 82.4859 3.08144C82.5801 3.00231 82.7131 2.92291 82.8785 2.84627C83.2088 2.69323 83.6492 2.55989 84.1156 2.46104C84.5813 2.36233 85.0673 2.29919 85.4867 2.28421C85.9129 2.26899 86.249 2.30455 86.4298 2.38714L86.5337 2.15975ZM82.0904 3.23814C82.0811 3.28481 82.0343 3.35382 81.9125 3.43945C81.7952 3.52191 81.629 3.60537 81.4233 3.68844C81.0127 3.85424 80.4673 4.00963 79.8968 4.15199C79.3271 4.29416 78.7385 4.42186 78.2415 4.53357C77.7505 4.64393 77.3378 4.74087 77.1349 4.82091L77.2266 5.05348C77.4069 4.98235 77.7958 4.88997 78.2963 4.77748C78.7909 4.66634 79.3839 4.53766 79.9573 4.39456C80.53 4.25165 81.0894 4.09287 81.5169 3.92025C81.7302 3.8341 81.9164 3.74228 82.0563 3.64398C82.1916 3.54885 82.3067 3.4316 82.3356 3.28711L82.0904 3.23814ZM77.1338 4.82134C76.9549 4.89383 76.6315 4.97816 76.2214 5.06666C75.8142 5.15453 75.3303 5.24473 74.8356 5.33026C73.8466 5.50131 72.819 5.65301 72.2864 5.72926L72.3218 5.97674C72.8553 5.90035 73.8857 5.74826 74.8783 5.57661C75.3745 5.4908 75.8622 5.39993 76.2741 5.31104C76.6832 5.22278 77.0263 5.13466 77.2277 5.05305L77.1338 4.82134ZM72.2866 5.72923C71.7305 5.80787 71.1751 6.08542 70.6142 6.32848C70.0445 6.57532 69.4545 6.79497 68.7946 6.79497V7.04497C69.5091 7.04497 70.1393 6.80672 70.7136 6.55786C71.2966 6.30523 71.8087 6.0493 72.3216 5.97677L72.2866 5.72923ZM68.7946 6.79497C68.1051 6.79497 67.1073 6.83328 66.1271 6.98709C65.1517 7.14014 64.1734 7.41041 63.5389 7.88699L63.689 8.08688C64.2718 7.64913 65.1981 7.38592 66.1658 7.23407C67.1287 7.08297 68.1125 7.04497 68.7946 7.04497V6.79497ZM63.5389 7.88696C62.9674 8.31592 62.2074 8.35807 61.4464 8.32018C61.2575 8.31077 61.0709 8.29665 60.8882 8.28298C60.7063 8.26937 60.528 8.25617 60.3588 8.24902C60.0241 8.23486 59.7086 8.2432 59.4567 8.32781L59.5363 8.5648C59.741 8.49604 60.0161 8.48475 60.3483 8.4988C60.5127 8.50575 60.687 8.51862 60.8696 8.53229C61.0515 8.5459 61.2414 8.56028 61.4339 8.56987C62.1982 8.60792 63.0403 8.57376 63.689 8.08691L63.5389 7.88696ZM59.4573 8.3276C59.0272 8.46952 58.4445 8.43475 57.8845 8.39627C57.6103 8.37743 57.3417 8.35801 57.1129 8.36323C56.8898 8.36833 56.6758 8.39663 56.5284 8.49497L56.6672 8.70291C56.7497 8.64788 56.8984 8.6182 57.1186 8.61317C57.3333 8.60826 57.5888 8.62654 57.8673 8.64568C58.4126 8.68315 59.0495 8.72542 59.5357 8.56501L59.4573 8.3276ZM56.5287 8.49476C56.3688 8.60084 56.2851 8.81824 56.2414 9.04896C56.1959 9.28869 56.1868 9.58084 56.2064 9.8826C56.2453 10.4825 56.4004 11.153 56.6433 11.5588L56.8578 11.4304C56.6439 11.073 56.4936 10.4476 56.4558 9.86639C56.4371 9.57761 56.4467 9.30793 56.487 9.0955C56.5289 8.87405 56.5978 8.74894 56.6669 8.70312L56.5287 8.49476ZM56.6434 11.559C56.778 11.7828 57.0459 11.9578 57.3445 12.1021C57.6479 12.2487 58.0073 12.3746 58.3502 12.4888C58.6968 12.6043 59.0236 12.7069 59.2755 12.8096C59.4012 12.8609 59.5019 12.9098 59.5739 12.9569C59.6502 13.0068 59.6738 13.0417 59.6787 13.0568L59.9163 12.9791C59.8838 12.8798 59.7984 12.805 59.7108 12.7477C59.619 12.6876 59.501 12.6316 59.3699 12.5781C59.108 12.4713 58.7683 12.3646 58.4292 12.2516C58.0863 12.1374 57.7406 12.0159 57.4532 11.877C57.161 11.7358 56.9521 11.5872 56.8576 11.4302L56.6434 11.559ZM59.6791 13.058C59.6794 13.0588 59.6784 13.0536 59.6804 13.0489C59.6811 13.0475 59.6782 13.055 59.6595 13.069C59.6204 13.0985 59.5457 13.1315 59.4293 13.1638C59.2003 13.2272 58.8621 13.274 58.4719 13.312C58.0835 13.3499 57.6521 13.3783 57.239 13.407C56.8276 13.4355 56.4333 13.4644 56.1242 13.503L56.1552 13.7511C56.4562 13.7134 56.8435 13.685 57.2563 13.6564C57.6676 13.6278 58.1034 13.5991 58.4961 13.5609C58.8871 13.5227 59.2442 13.4744 59.496 13.4047C59.6199 13.3704 59.7319 13.3274 59.8098 13.2688C59.8496 13.2389 59.8878 13.1995 59.9101 13.1478C59.9337 13.0929 59.9349 13.0342 59.9159 12.978L59.6791 13.058ZM56.1241 13.503C55.7912 13.5448 55.5505 13.6829 55.3897 13.8884C55.2315 14.0906 55.1601 14.346 55.1399 14.6083C55.0996 15.1304 55.2588 15.7219 55.4142 16.1098L55.6463 16.0168C55.4978 15.646 55.353 15.0956 55.3891 14.6275C55.4071 14.3946 55.4689 14.1928 55.5866 14.0424C55.7017 13.8953 55.8794 13.7857 56.1552 13.7511L56.1241 13.503ZM55.4142 16.1097C55.4718 16.254 55.4479 16.4029 55.3483 16.5631C55.2466 16.7265 55.0713 16.8915 54.8488 17.049C54.4051 17.3633 53.8077 17.6245 53.3574 17.7733L53.4359 18.0107C53.9004 17.8572 54.5226 17.5864 54.9933 17.253C55.2281 17.0868 55.4337 16.899 55.5605 16.6951C55.6894 16.488 55.7414 16.255 55.6464 16.017L55.4142 16.1097ZM53.3573 17.7734C53.0855 17.8636 52.9374 18.0535 52.9015 18.2871C52.8672 18.5098 52.9364 18.7575 53.0582 18.9808C53.1811 19.2062 53.3646 19.4205 53.5797 19.5794C53.7942 19.7379 54.0484 19.8471 54.3115 19.8471V19.5971C54.1171 19.5971 53.9139 19.5155 53.7282 19.3784C53.5431 19.2416 53.3835 19.0553 53.2777 18.8612C53.1707 18.6649 53.1256 18.474 53.1485 18.3251C53.1698 18.1871 53.2504 18.0723 53.436 18.0106L53.3573 17.7734ZM54.3115 19.8471C54.7368 19.8471 55.1321 20.0242 55.5351 20.2159C55.9258 20.4017 56.3357 20.6088 56.7505 20.6088V20.3588C56.4047 20.3588 56.0525 20.1851 55.6425 19.9901C55.2448 19.8009 54.801 19.5971 54.3115 19.5971V19.8471ZM56.7505 20.6088C56.892 20.6088 57.0107 20.6772 57.1152 20.8125C57.222 20.9509 57.307 21.1519 57.3717 21.3923C57.5008 21.8719 57.5389 22.4687 57.5389 22.9216H57.7889C57.7889 22.4601 57.7506 21.838 57.6132 21.3273C57.5446 21.0726 57.4488 20.8356 57.3131 20.6598C57.175 20.4809 56.9894 20.3588 56.7505 20.3588V20.6088ZM57.5389 22.9216C57.5389 23.1275 57.4877 23.2928 57.3981 23.427C57.3081 23.562 57.1744 23.6727 56.9987 23.7606C56.644 23.9382 56.1339 24.0147 55.5303 24.0147V24.2647C56.1469 24.2647 56.7037 24.1879 57.1106 23.9842C57.3159 23.8815 57.4868 23.7446 57.6061 23.5658C57.726 23.3861 57.7889 23.1713 57.7889 22.9216H57.5389ZM55.5303 24.0147C54.9553 24.0147 54.5222 23.8002 54.1295 23.557C53.939 23.439 53.7405 23.3025 53.5573 23.1953C53.369 23.0851 53.1739 22.9912 52.9632 22.9487L52.9138 23.1938C53.0849 23.2283 53.2523 23.3065 53.4311 23.4111C53.6151 23.5188 53.7882 23.6397 53.9979 23.7695C54.4055 24.022 54.8865 24.2647 55.5303 24.2647V24.0147ZM52.9628 22.9487C52.8474 22.9258 52.7415 22.9334 52.6461 22.9714C52.5515 23.0091 52.4761 23.073 52.415 23.1485C52.2965 23.2949 52.2191 23.5019 52.1529 23.7004C52.0837 23.9078 52.0251 24.1107 51.9451 24.2859C51.8651 24.4611 51.7752 24.5805 51.6614 24.6367L51.7721 24.8609C51.9645 24.7659 52.0851 24.5811 52.1725 24.3898C52.2599 24.1985 52.3256 23.9726 52.39 23.7795C52.4574 23.5775 52.5231 23.4124 52.6094 23.3057C52.6507 23.2546 52.6933 23.2217 52.7386 23.2037C52.7831 23.186 52.8391 23.179 52.9142 23.1939L52.9628 22.9487ZM51.6606 24.6371C51.6034 24.6659 51.5597 24.6712 51.5242 24.6667C51.4875 24.6619 51.4481 24.6451 51.4028 24.6111C51.3065 24.5388 51.2138 24.414 51.0948 24.2555C50.8723 23.9589 50.5703 23.5583 50.0428 23.5583V23.8083C50.4286 23.8083 50.6604 24.093 50.8949 24.4055C51.0045 24.5516 51.1211 24.7122 51.2528 24.811C51.3215 24.8627 51.4008 24.9028 51.4922 24.9146C51.5848 24.9266 51.6785 24.908 51.773 24.8604L51.6606 24.6371ZM50.0428 23.5583C49.5882 23.5583 49.1095 23.5201 48.7109 23.375C48.3161 23.2313 48.0096 22.9871 47.8736 22.5756L47.6363 22.654C47.8028 23.1583 48.1813 23.4483 48.6254 23.6099C49.0656 23.7702 49.5796 23.8083 50.0428 23.8083V23.5583ZM47.8735 22.5752C47.7831 22.3049 47.5615 22.1028 47.2864 21.9653C47.0104 21.8274 46.6688 21.748 46.313 21.7281C45.6058 21.6886 44.8031 21.8828 44.3125 22.3755L44.4897 22.5519C44.9124 22.1273 45.6339 21.9406 46.299 21.9778C46.6293 21.9962 46.9358 22.0696 47.1746 22.1889C47.4142 22.3087 47.5741 22.4683 47.6364 22.6545L47.8735 22.5752ZM44.3128 22.3752C43.8621 22.8249 43.6022 22.8952 43.3848 22.8373C43.266 22.8057 43.1437 22.7323 42.997 22.6207C42.8465 22.5063 42.6956 22.3723 42.4967 22.2134L42.3407 22.4087C42.5228 22.5543 42.6959 22.7058 42.8456 22.8197C42.9991 22.9365 43.1532 23.0343 43.3205 23.0789C43.675 23.1733 44.0252 23.0153 44.4894 22.5521L44.3128 22.3752ZM42.4966 22.2133C42.2715 22.0338 41.9493 21.9763 41.6105 21.9886C41.2682 22.001 40.8885 22.0853 40.5275 22.212C40.1662 22.3388 39.8179 22.51 39.5387 22.7004C39.264 22.8877 39.0384 23.1055 38.9486 23.3319L39.181 23.4241C39.2425 23.269 39.4163 23.0864 39.6795 22.907C39.9382 22.7306 40.2663 22.5686 40.6102 22.4479C40.9545 22.3271 41.3088 22.2497 41.6196 22.2384C41.934 22.227 42.1841 22.2838 42.3408 22.4088L42.4966 22.2133ZM38.9487 23.3317C38.8864 23.4877 38.7492 23.6307 38.546 23.7455C38.3436 23.86 38.0833 23.9418 37.7908 23.9784C37.2053 24.0518 36.5098 23.9418 35.927 23.5773L35.7944 23.7892C36.4319 24.1879 37.1865 24.3061 37.8219 24.2265C38.14 24.1866 38.4329 24.0967 38.669 23.9632C38.9045 23.8301 39.0912 23.6491 39.1809 23.4243L38.9487 23.3317ZM35.927 23.5773C35.6208 23.3858 35.3402 23.2209 35.0915 23.0988C34.8448 22.9777 34.6197 22.8937 34.4265 22.8722C34.2292 22.8502 34.0473 22.8927 33.9212 23.0457C33.8029 23.1894 33.7548 23.407 33.7548 23.6833H34.0048C34.0048 23.4253 34.0518 23.2804 34.1142 23.2047C34.1689 23.1383 34.2534 23.1045 34.3988 23.1206C34.5484 23.1373 34.7422 23.2059 34.9813 23.3233C35.2184 23.4397 35.4905 23.5992 35.7944 23.7892L35.927 23.5773ZM33.7548 23.6833C33.7548 23.8088 33.7412 23.8966 33.7218 23.9552C33.7024 24.0139 33.6806 24.0343 33.6699 24.0411C33.6555 24.0503 33.6044 24.062 33.4975 23.9816C33.4003 23.9086 33.2966 23.7851 33.2173 23.6419C33.1376 23.4981 33.09 23.3478 33.09 23.2239H32.84C32.84 23.4045 32.9067 23.5971 32.9986 23.763C33.0908 23.9295 33.2158 24.0826 33.3473 24.1815C33.4691 24.273 33.6467 24.352 33.8039 24.2522C33.8789 24.2045 33.9285 24.1265 33.9592 24.0336C33.9898 23.9408 34.0048 23.8241 34.0048 23.6833H33.7548ZM33.09 23.2239C33.09 23.1154 33.0466 23.0067 32.985 22.9047C32.9225 22.8012 32.8347 22.6939 32.7311 22.5855C32.5237 22.3687 32.2408 22.1355 31.9338 21.9055C31.3201 21.4459 30.5898 20.9848 30.1372 20.6822L29.9983 20.8901C30.4591 21.1981 31.1774 21.6513 31.784 22.1056C32.0871 22.3327 32.3572 22.5563 32.5504 22.7583C32.647 22.8593 32.7214 22.9519 32.7709 23.0339C32.8214 23.1175 32.84 23.1801 32.84 23.2239H33.09ZM30.1369 20.682C29.8877 20.5168 29.5158 20.399 29.1119 20.3037C28.7049 20.2076 28.2476 20.1308 27.8209 20.0549C27.3908 19.9785 26.9937 19.9033 26.6952 19.8105C26.5458 19.764 26.4283 19.7152 26.3459 19.6638C26.2616 19.6111 26.2319 19.5668 26.2243 19.5363L25.9817 19.5968C26.0123 19.7194 26.1065 19.8089 26.2134 19.8757C26.3222 19.9438 26.4631 20.0001 26.621 20.0492C26.937 20.1475 27.3498 20.2251 27.7772 20.3011C28.208 20.3777 28.6561 20.453 29.0545 20.547C29.456 20.6417 29.7897 20.7517 29.9987 20.8903L30.1369 20.682ZM26.2243 19.5361C26.1735 19.3341 25.9936 19.1688 25.7828 19.0509C25.5667 18.93 25.293 18.8442 25.0113 18.8138C24.4551 18.7537 23.8106 18.9084 23.5519 19.5177L23.782 19.6154C23.977 19.1563 24.4741 19.0072 24.9844 19.0623C25.2359 19.0895 25.4767 19.1661 25.6607 19.2691C25.8501 19.375 25.9562 19.4952 25.9818 19.597L26.2243 19.5361ZM23.5521 19.5172C23.4434 19.7701 23.3256 19.8939 23.2158 19.9499C23.1081 20.0048 22.9861 20.0056 22.8425 19.9634C22.6967 19.9206 22.5415 19.8372 22.3777 19.7397C22.2194 19.6453 22.0485 19.5346 21.8906 19.455L21.778 19.6782C21.9255 19.7526 22.079 19.8527 22.2498 19.9544C22.415 20.0529 22.5936 20.1509 22.7721 20.2033C22.9529 20.2563 23.1458 20.2662 23.3293 20.1726C23.5108 20.0802 23.6606 19.898 23.7818 19.6159L23.5521 19.5172ZM21.8901 19.4547C21.7041 19.362 21.4737 19.3561 21.2397 19.3911C21.0031 19.4264 20.7459 19.5062 20.4941 19.6031C19.9913 19.7965 19.4873 20.0677 19.1867 20.2179L19.2984 20.4415C19.6086 20.2865 20.0958 20.0242 20.5839 19.8364C20.8275 19.7427 21.0656 19.6699 21.2766 19.6383C21.4903 19.6064 21.6599 19.6193 21.7785 19.6784L21.8901 19.4547ZM19.1863 20.2181C19.0289 20.2973 18.7854 20.4437 18.4997 20.6138C18.2114 20.7854 17.8749 20.9844 17.5247 21.1735C17.1743 21.3628 16.8125 21.541 16.474 21.6716C16.1334 21.8031 15.8266 21.8822 15.5832 21.8822V22.1322C15.8729 22.1322 16.2139 22.04 16.5641 21.9049C16.9164 21.7689 17.2886 21.5852 17.6435 21.3935C17.9988 21.2016 18.3391 21.0003 18.6275 20.8287C18.9185 20.6555 19.1515 20.5155 19.2987 20.4414L19.1863 20.2181ZM15.5832 21.8822C15.2845 21.8822 15.0862 21.9809 14.9454 22.145C14.8142 22.2979 14.7395 22.5029 14.6665 22.685C14.5902 22.8755 14.5111 23.0571 14.3746 23.2109C14.2412 23.3613 14.0464 23.4917 13.7278 23.5627L13.7823 23.8067C14.148 23.7252 14.3906 23.5696 14.5616 23.3768C14.7297 23.1874 14.8222 22.9688 14.8986 22.778C14.9784 22.5789 15.0374 22.4217 15.1352 22.3078C15.2232 22.2051 15.3489 22.1322 15.5832 22.1322V21.8822ZM13.728 23.5627C13.3718 23.6415 13.1126 23.7624 12.9304 23.9176C12.7461 24.0745 12.647 24.2609 12.6035 24.4569C12.5605 24.6501 12.5723 24.8488 12.6023 25.0329C12.632 25.216 12.6818 25.3954 12.7189 25.5437L12.9615 25.4831C12.9222 25.3262 12.8766 25.1623 12.849 24.9928C12.8216 24.8242 12.8143 24.6608 12.8475 24.5112C12.8801 24.3643 12.9526 24.227 13.0924 24.1079C13.2343 23.9872 13.4518 23.8799 13.782 23.8068L13.728 23.5627ZM12.7189 25.5436C12.7592 25.7053 12.8401 25.8977 12.9112 26.0835C12.9847 26.2755 13.0517 26.469 13.0783 26.6541C13.1047 26.8379 13.0896 27.0027 13.0101 27.1444C12.9311 27.2854 12.7782 27.4218 12.4924 27.5288L12.5801 27.7629C12.9037 27.6417 13.1124 27.4734 13.2282 27.2667C13.3437 27.0607 13.3568 26.8348 13.3257 26.6186C13.2948 26.4035 13.2187 26.1875 13.1446 25.994C13.0681 25.7943 12.9969 25.6253 12.9615 25.4832L12.7189 25.5436ZM12.4923 27.5288C12.2236 27.6297 12.0049 27.5961 11.8045 27.4806C11.5962 27.3604 11.4034 27.1491 11.2047 26.8845C11.1061 26.7533 11.0084 26.6123 10.9077 26.4665C10.8074 26.3214 10.7042 26.1717 10.5967 26.0266C10.3821 25.7372 10.1442 25.4574 9.86168 25.2548L9.71597 25.4579C9.96649 25.6376 10.186 25.8924 10.3958 26.1755C10.5005 26.3167 10.6012 26.4628 10.702 26.6086C10.8023 26.7538 10.9028 26.8988 11.0048 27.0346C11.2071 27.3041 11.425 27.5504 11.6797 27.6971C11.9422 27.8485 12.2387 27.891 12.5802 27.7629L12.4923 27.5288ZM9.86124 25.2545C9.57767 25.0529 9.29656 24.9571 9.03145 24.9523C8.76599 24.9474 8.52538 25.034 8.32448 25.1825C7.92553 25.4773 7.68438 26.0133 7.68438 26.5789H7.93438C7.93438 26.0775 8.14918 25.6229 8.47307 25.3835C8.63358 25.2649 8.82111 25.1985 9.02688 25.2022C9.233 25.206 9.4662 25.2804 9.7164 25.4583L9.86124 25.2545ZM7.68438 26.5789C7.68438 26.8186 7.61677 26.9925 7.5087 27.1377C7.39756 27.287 7.24038 27.4107 7.0508 27.543C6.67902 27.8025 6.19171 28.0857 5.86979 28.6478L6.08673 28.772C6.37421 28.2701 6.80245 28.0212 7.19389 27.748C7.38592 27.614 7.57225 27.471 7.70924 27.287C7.84928 27.0989 7.93438 26.8727 7.93438 26.5789H7.68438ZM5.86971 28.6479C5.70335 28.9392 5.68261 29.1899 5.77286 29.406C5.85925 29.6128 6.03808 29.7634 6.2149 29.8813C6.30471 29.9411 6.3987 29.9955 6.48628 30.0456C6.57533 30.0965 6.65633 30.1423 6.72667 30.1878C6.79759 30.2336 6.84955 30.2742 6.88297 30.3117C6.91559 30.3484 6.92227 30.3726 6.92227 30.3889H7.17227C7.17227 30.2903 7.12651 30.2093 7.06971 30.1455C7.01373 30.0826 6.93932 30.0275 6.86241 29.9778C6.78493 29.9277 6.69663 29.8779 6.61042 29.8286C6.52274 29.7784 6.43549 29.7278 6.35358 29.6732C6.18697 29.5622 6.06046 29.4458 6.00354 29.3096C5.95048 29.1826 5.94846 29.0141 6.0868 28.7719L5.86971 28.6479ZM6.92227 30.3889C6.92227 30.4613 6.88529 30.5477 6.80328 30.6468C6.72246 30.7445 6.60824 30.8419 6.47923 30.934C6.2214 31.1181 5.92505 31.2667 5.77196 31.3444L5.885 31.5673C6.03587 31.4909 6.34892 31.3342 6.6245 31.1375C6.76218 31.0392 6.89567 30.9273 6.99588 30.8062C7.0949 30.6865 7.17227 30.5447 7.17227 30.3889H6.92227ZM5.77217 31.3442C5.7115 31.3749 5.65316 31.4308 5.60093 31.4913C5.54636 31.5544 5.48917 31.6335 5.43226 31.7225C5.31833 31.9007 5.20066 32.1262 5.10281 32.3606C5.00519 32.5944 4.92515 32.8422 4.88959 33.0645C4.85524 33.2792 4.85702 33.5017 4.96086 33.6576L5.16894 33.519C5.12079 33.4467 5.10385 33.3078 5.13645 33.104C5.16784 32.9078 5.24042 32.6798 5.33351 32.4569C5.42638 32.2344 5.53751 32.022 5.64288 31.8572C5.69562 31.7747 5.7457 31.7061 5.79009 31.6547C5.83681 31.6007 5.8691 31.5754 5.88478 31.5675L5.77217 31.3442ZM4.96086 33.6576C5.01518 33.7392 5.09746 33.7988 5.18521 33.8451C5.27386 33.8918 5.37797 33.9301 5.48668 33.9643C5.59567 33.9985 5.71463 34.0302 5.83311 34.0621C5.9527 34.0943 6.07273 34.1269 6.1887 34.164C6.42363 34.2392 6.62541 34.3279 6.7593 34.4514C6.88523 34.5677 6.95536 34.718 6.92351 34.943L7.17104 34.9781C7.21481 34.6689 7.11295 34.4376 6.92886 34.2677C6.75273 34.1052 6.50645 34.0032 6.26488 33.9259C6.1426 33.8868 6.01727 33.8527 5.89807 33.8207C5.77777 33.7883 5.66453 33.7581 5.56161 33.7258C5.45842 33.6934 5.37089 33.6604 5.30189 33.624C5.23199 33.5871 5.19061 33.5516 5.16894 33.519L4.96086 33.6576ZM6.92354 34.9428C6.88546 35.2085 6.84683 35.4785 6.82507 35.7276C6.80341 35.9757 6.79758 36.2116 6.82853 36.4079C6.85903 36.6012 6.9295 36.7827 7.08501 36.8857C7.24322 36.9905 7.45077 36.9891 7.69471 36.9078L7.61569 36.6706C7.40368 36.7413 7.28818 36.7204 7.22305 36.6773C7.15522 36.6324 7.10207 36.5375 7.07548 36.3689C7.04935 36.2032 7.05297 35.9916 7.07412 35.7494C7.09518 35.5083 7.13272 35.2454 7.17101 34.9783L6.92354 34.9428ZM7.69471 36.9078C8.58536 36.6111 9.45958 36.7601 10.0957 36.7601V36.5101C9.51307 36.5101 8.55763 36.3568 7.61569 36.6706L7.69471 36.9078ZM10.0957 36.7601C10.2038 36.7601 10.3181 36.8134 10.4529 36.937C10.588 37.0607 10.7295 37.2418 10.8913 37.47C11.2108 37.9207 11.5995 38.5418 12.1381 39.1594L12.3265 38.9951C11.799 38.3902 11.4248 37.7903 11.0953 37.3254C10.9326 37.096 10.778 36.8958 10.6218 36.7526C10.4653 36.6093 10.2931 36.5101 10.0957 36.5101V36.7601ZM12.1382 39.1596C12.4049 39.4643 12.6305 39.7276 12.8036 39.9566C12.9779 40.1873 13.0912 40.3736 13.1416 40.5246C13.1903 40.6706 13.1754 40.7663 13.1178 40.8421C13.0524 40.9281 12.9137 41.0139 12.6546 41.0881L12.7234 41.3284C12.9973 41.25 13.2013 41.1453 13.3168 40.9935C13.44 40.8315 13.4443 40.6419 13.3788 40.4455C13.3149 40.2542 13.1808 40.0412 13.003 39.8059C12.8239 39.5688 12.5927 39.2993 12.3263 38.9949L12.1382 39.1596ZM12.6548 41.088C12.3808 41.1659 12.1767 41.2701 12.0657 41.4117C12.0077 41.4856 11.9752 41.5697 11.9734 41.6608C11.9717 41.7504 11.9997 41.8369 12.046 41.9178C12.1366 42.0762 12.3084 42.2323 12.5332 42.3837C12.7608 42.5369 13.0541 42.6929 13.4018 42.8474L13.5033 42.6189C13.1638 42.4681 12.8844 42.3188 12.6729 42.1764C12.4587 42.0321 12.325 41.9021 12.263 41.7936C12.2328 41.741 12.2227 41.6988 12.2234 41.6657C12.224 41.6342 12.2344 41.6016 12.2623 41.566C12.3231 41.4886 12.4626 41.4026 12.7231 41.3285L12.6548 41.088ZM13.4021 42.8475C13.7531 43.0023 14.1237 43.24 14.4907 43.4987L14.6347 43.2943C14.2645 43.0334 13.8774 42.7839 13.503 42.6188L13.4021 42.8475ZM14.6325 43.5002C14.8529 43.3519 15.072 43.1996 15.2639 43.0291L15.0979 42.8422C14.9197 43.0005 14.713 43.1447 14.4929 43.2928L14.6325 43.5002ZM15.2636 43.0294C16.1141 42.2792 17.3202 41.55 18.6024 41.0849C19.8862 40.6192 21.231 40.4238 22.365 40.7216L22.4285 40.4798C21.2262 40.1641 19.8258 40.3752 18.5171 40.8499C17.2067 41.3252 15.9731 42.0702 15.0982 42.8419L15.2636 43.0294ZM22.3653 40.7217C23.5551 41.0307 24.6476 40.9278 25.5362 40.9278C26.4347 40.9278 27.1128 41.0313 27.5829 41.6876L27.7861 41.542C27.2386 40.7776 26.4424 40.6778 25.5362 40.6778C24.6202 40.6778 23.5775 40.7782 22.4281 40.4797L22.3653 40.7217ZM27.5827 41.6873C28.059 42.3561 28.0646 43.3273 27.9876 44.2965C27.9499 44.7703 27.8919 45.2518 27.8699 45.6653C27.8479 46.0785 27.8587 46.4591 27.9724 46.741L28.2043 46.6475C28.1132 46.4217 28.0975 46.0911 28.1195 45.6786C28.1414 45.2664 28.1977 44.8079 28.2368 44.3163C28.3132 43.3549 28.3218 42.2941 27.7863 41.5423L27.5827 41.6873ZM27.9723 46.7408C28.0155 46.8485 28.0197 46.9337 28.0024 47.0024C27.9849 47.0713 27.9425 47.1365 27.8695 47.1982C27.719 47.3256 27.4568 47.4225 27.1133 47.4849C26.4323 47.6087 25.5067 47.5843 24.7528 47.4818L24.7191 47.7295C25.4879 47.834 26.4419 47.861 27.158 47.7309C27.5132 47.6663 27.829 47.56 28.031 47.389C28.1343 47.3016 28.2117 47.1939 28.2447 47.0638C28.2777 46.9335 28.2628 46.7936 28.2044 46.6478L27.9723 46.7408ZM24.7521 47.4817C23.965 47.3789 22.7759 47.5365 21.8371 47.8323C21.3679 47.9801 20.9484 48.1662 20.6698 48.3807C20.5304 48.4878 20.4178 48.6085 20.3563 48.7432C20.2924 48.8828 20.2861 49.033 20.3533 49.182L20.5812 49.0792C20.5456 49.0003 20.5478 48.9256 20.5836 48.8471C20.6218 48.7637 20.6999 48.6729 20.8222 48.5788C21.0667 48.3907 21.4538 48.2151 21.9123 48.0707C22.8288 47.782 23.9797 47.6329 24.7197 47.7296L24.7521 47.4817ZM20.353 49.1814C20.4569 49.4149 20.6001 49.7134 20.7296 50.0235C20.8593 50.3339 20.9679 50.6393 21.0033 50.8769C21.021 50.9964 21.0182 51.0859 20.9995 51.1465C20.9829 51.2001 20.9559 51.2275 20.9124 51.2417C20.8595 51.259 20.7665 51.2614 20.6132 51.2174C20.4623 51.1741 20.2664 51.0899 20.0164 50.9524L19.896 51.1715C20.1545 51.3136 20.3686 51.4073 20.5443 51.4577C20.7177 51.5074 20.868 51.5193 20.9901 51.4794C21.1216 51.4364 21.2013 51.3399 21.2383 51.2203C21.2731 51.1077 21.2706 50.9748 21.2505 50.8401C21.2103 50.5694 21.0907 50.2394 20.9603 49.9272C20.8297 49.6146 20.6809 49.3033 20.5814 49.0797L20.353 49.1814ZM20.0165 50.9525C19.4903 50.6627 19.0309 50.5837 18.6536 50.6408C18.2762 50.698 17.9902 50.8901 17.8122 51.1247C17.6368 51.356 17.5598 51.6389 17.6211 51.877C17.6523 51.998 17.7196 52.1069 17.8264 52.1847C17.9329 52.2621 18.0699 52.3024 18.2308 52.3024V52.0524C18.1116 52.0524 18.029 52.0229 17.9735 51.9825C17.9184 51.9424 17.8814 51.8855 17.8632 51.8146C17.8257 51.6689 17.8692 51.4632 18.0114 51.2758C18.1509 51.0919 18.3794 50.9352 18.691 50.888C19.0026 50.8409 19.4067 50.902 19.8959 51.1715L20.0165 50.9525ZM18.2308 52.3024C18.7466 52.3024 19.3794 52.6123 19.8898 53.0477C20.1428 53.2636 20.3597 53.5053 20.5125 53.7453C20.6663 53.987 20.749 54.2172 20.749 54.4126H20.999C20.999 54.1515 20.8908 53.8741 20.7234 53.6111C20.5549 53.3464 20.3203 53.0864 20.052 52.8575C19.5198 52.4035 18.831 52.0524 18.2308 52.0524V52.3024ZM20.749 54.4126C20.749 54.871 20.7737 55.6214 20.9299 56.2221C21.0076 56.5206 21.1219 56.7992 21.2959 56.984C21.3845 57.0781 21.4907 57.1501 21.6165 57.1853C21.7427 57.2207 21.8799 57.2166 22.0261 57.1725L21.9538 56.9332C21.846 56.9657 21.7578 56.9653 21.684 56.9446C21.6099 56.9238 21.5416 56.8802 21.4779 56.8126C21.3474 56.6739 21.2462 56.4447 21.1719 56.1591C21.0242 55.5915 20.999 54.8685 20.999 54.4126H20.749ZM22.0259 57.1726C22.2381 57.1089 22.3877 57.1547 22.5244 57.2597C22.6726 57.3735 22.8004 57.5524 22.9581 57.7626C23.2636 58.17 23.6556 58.656 24.4378 58.6011L24.4203 58.3517C23.781 58.3966 23.4623 58.0183 23.1581 57.6126C23.0108 57.4162 22.859 57.2014 22.6766 57.0614C22.4826 56.9124 22.2506 56.8441 21.9541 56.9331L22.0259 57.1726ZM24.4376 58.6011C24.786 58.5771 25.1254 58.5903 25.4201 58.6424C25.7167 58.6949 25.9585 58.7853 26.1205 58.9082C26.2779 59.0277 26.3573 59.1748 26.3483 59.3579C26.3388 59.5502 26.231 59.8037 25.9592 60.1245L26.1499 60.2861C26.4377 59.9465 26.5846 59.6414 26.598 59.3703C26.6118 59.0901 26.4823 58.869 26.2717 58.7091C26.0656 58.5527 25.7804 58.4523 25.4637 58.3963C25.1451 58.3399 24.7849 58.3266 24.4204 58.3517L24.4376 58.6011ZM25.9591 60.1246C25.6507 60.4891 25.5545 61.0026 25.5757 61.5327C25.597 62.0654 25.7374 62.6344 25.9249 63.132C26.1119 63.6282 26.35 64.0648 26.574 64.3287C26.6829 64.457 26.8038 64.5631 26.9283 64.5984C26.9952 64.6173 27.0681 64.6171 27.1369 64.5829C27.204 64.5497 27.2518 64.4918 27.2853 64.425L27.0618 64.313C27.0442 64.3479 27.0299 64.357 27.0258 64.359C27.0236 64.3601 27.0165 64.3635 26.9965 64.3578C26.9472 64.3439 26.867 64.2875 26.7646 64.1669C26.566 63.9329 26.3403 63.5252 26.1589 63.0438C25.978 62.5638 25.8454 62.0217 25.8255 61.5227C25.8054 61.0209 25.8997 60.5819 26.15 60.286L25.9591 60.1246ZM27.2852 64.425C27.3596 64.2768 27.3956 64.0936 27.4172 63.9028C27.4389 63.7115 27.4476 63.497 27.4602 63.2862C27.486 62.8543 27.5298 62.4296 27.7139 62.1061L27.4966 61.9824C27.2798 62.3634 27.2362 62.8449 27.2106 63.2712C27.1976 63.4895 27.1895 63.6921 27.1688 63.8746C27.148 64.0577 27.1159 64.2051 27.0618 64.3129L27.2852 64.425ZM27.7202 61.9953C27.6271 61.7764 27.5987 61.5934 27.6141 61.4403C27.6294 61.2883 27.6886 61.158 27.7838 61.0439C27.9782 60.8107 28.3246 60.6433 28.7498 60.5277C29.5962 60.2976 30.6658 60.2951 31.1559 60.2951V60.0451C30.6709 60.0451 29.568 60.0462 28.6842 60.2865C28.2443 60.4061 27.8363 60.5905 27.5917 60.8838C27.4674 61.0329 27.3861 61.2094 27.3653 61.4152C27.3447 61.6198 27.3848 61.8454 27.4902 62.0932L27.7202 61.9953ZM31.1559 60.2951C31.3984 60.2951 31.7 60.3871 32.0421 60.5611C32.3822 60.7341 32.7526 60.9831 33.1299 61.2848C33.8847 61.8883 34.6579 62.695 35.2613 63.503L35.4616 63.3534C34.8462 62.5294 34.0584 61.7071 33.2861 61.0895C32.8999 60.7807 32.5151 60.5212 32.1555 60.3383C31.7979 60.1564 31.4552 60.0451 31.1559 60.0451V60.2951ZM35.2615 63.5034C35.577 63.9229 35.8984 64.1753 36.208 64.3125C36.5183 64.4501 36.8098 64.4688 37.0596 64.4319C37.3082 64.3952 37.5139 64.3037 37.6568 64.2222C37.7285 64.1814 37.7851 64.1426 37.8243 64.1137C37.8439 64.0992 37.8592 64.0871 37.8699 64.0784C37.8752 64.0741 37.8794 64.0706 37.8824 64.068C37.8839 64.0667 37.8851 64.0657 37.886 64.0649C37.8865 64.0645 37.8868 64.0642 37.8871 64.0639C37.8873 64.0638 37.8874 64.0637 37.8875 64.0636C37.8876 64.0635 37.8877 64.0635 37.8877 64.0634C37.8878 64.0634 37.8878 64.0633 37.8049 63.9698C37.722 63.8763 37.722 63.8762 37.7221 63.8762C37.7221 63.8762 37.7221 63.8761 37.7222 63.8761C37.7222 63.8761 37.7222 63.876 37.7222 63.876C37.7222 63.876 37.7222 63.8761 37.722 63.8762C37.7217 63.8765 37.7212 63.8769 37.7203 63.8777C37.7186 63.8791 37.7158 63.8815 37.7119 63.8847C37.7041 63.891 37.6919 63.9007 37.6758 63.9126C37.6433 63.9366 37.595 63.9697 37.533 64.005C37.4087 64.0759 37.2327 64.1536 37.0231 64.1846C36.8147 64.2154 36.5717 64.2003 36.3093 64.084C36.0463 63.9674 35.7567 63.7459 35.4614 63.3531L35.2615 63.5034ZM37.9299 63.9731L38.3366 48.7802L38.0867 48.7735L37.68 63.9664L37.9299 63.9731ZM38.2438 48.8976L46.9398 46.5817L46.8755 46.3401L38.1795 48.6561L38.2438 48.8976ZM47.0245 46.5055C47.105 46.2941 47.195 46.103 47.2976 45.9512L47.0905 45.8112C46.9728 45.9853 46.8748 46.1962 46.7909 46.4164L47.0245 46.5055ZM47.297 45.9521C47.5647 45.5636 47.8475 45.363 48.1225 45.2764C48.3984 45.1894 48.6809 45.2126 48.955 45.2978C49.5115 45.4706 49.9966 45.8836 50.2718 46.0836L50.4187 45.8814C50.1668 45.6983 49.6364 45.2476 49.0292 45.059C48.7214 44.9635 48.385 44.9315 48.0474 45.0379C47.7088 45.1446 47.3836 45.3858 47.0911 45.8103L47.297 45.9521ZM50.2722 46.0839C50.3106 46.1116 50.3558 46.1341 50.4068 46.1398C50.461 46.1459 50.5107 46.1317 50.5522 46.1042C50.6251 46.056 50.6685 45.9694 50.6983 45.8956C50.7307 45.8157 50.7595 45.7173 50.7882 45.6157C50.8176 45.5119 50.8477 45.4019 50.8838 45.29C50.9566 45.0644 51.0484 44.8495 51.1859 44.6976C51.3175 44.5522 51.494 44.4605 51.7578 44.4824L51.7785 44.2332C51.4322 44.2045 51.181 44.3304 51.0005 44.5299C50.8259 44.7228 50.7211 44.9802 50.6459 45.2132C50.608 45.3306 50.5763 45.4466 50.5477 45.5476C50.5184 45.651 50.493 45.7365 50.4666 45.8019C50.4535 45.8342 50.4415 45.858 50.4308 45.8748C50.4198 45.892 50.4136 45.8962 50.4143 45.8957C50.4177 45.8935 50.426 45.8904 50.4345 45.8914C50.4399 45.892 50.4351 45.8932 50.4183 45.8811L50.2722 46.0839ZM51.7577 44.4824C51.893 44.4938 51.9811 44.5294 52.0399 44.5741C52.0979 44.6181 52.137 44.6782 52.1617 44.7561C52.2141 44.921 52.1973 45.1442 52.1653 45.3954C52.15 45.5156 52.1313 45.6432 52.1199 45.7604C52.1085 45.8778 52.1032 45.9958 52.1174 46.1014C52.1314 46.2068 52.1667 46.3138 52.2486 46.3939C52.3327 46.4761 52.4478 46.5125 52.5846 46.5125V46.2625C52.4919 46.2625 52.4475 46.2387 52.4234 46.2152C52.3971 46.1895 52.3754 46.1451 52.3652 46.0683C52.3549 45.9916 52.3579 45.8965 52.3687 45.7845C52.3796 45.6722 52.3971 45.5541 52.4133 45.427C52.4442 45.1836 52.4716 44.9058 52.4 44.6805C52.3628 44.5633 52.2978 44.456 52.1911 44.375C52.0853 44.2946 51.9481 44.2475 51.7787 44.2332L51.7577 44.4824ZM52.5846 46.5125C52.6385 46.5125 52.7172 46.5377 52.8192 46.6045C52.9193 46.6699 53.0312 46.7685 53.1488 46.8973C53.3838 47.1546 53.6316 47.5218 53.8434 47.9529C54.2685 48.8182 54.5354 49.9132 54.2903 50.8649L54.5324 50.9273C54.7983 49.8948 54.5064 48.7355 54.0678 47.8426C53.8476 47.3946 53.5873 47.0067 53.3334 46.7287C53.2066 46.5898 53.0789 46.4756 52.9561 46.3953C52.8354 46.3163 52.708 46.2625 52.5846 46.2625V46.5125ZM54.332 50.9927C55.0035 51.5439 55.9499 52.4716 56.7563 53.3451C57.1592 53.7815 57.5255 54.2026 57.8039 54.5546C57.9432 54.7307 58.0594 54.8883 58.147 55.021C58.2361 55.1562 58.2901 55.2576 58.3116 55.3232L58.5492 55.2454C58.5168 55.1464 58.447 55.0218 58.3557 54.8834C58.2628 54.7425 58.1418 54.5789 58 54.3996C57.7164 54.0409 57.3455 53.6147 56.94 53.1755C56.1297 52.2978 55.1745 51.3608 54.4906 50.7995L54.332 50.9927ZM58.3119 55.3241C58.3629 55.476 58.4881 55.565 58.6339 55.6137C58.7779 55.6618 58.9574 55.6766 59.153 55.6723C59.5453 55.6639 60.0432 55.5772 60.5435 55.4758C61.0496 55.3733 61.556 55.2562 61.9852 55.18C62.1988 55.1421 62.388 55.1153 62.543 55.1059C62.7027 55.0963 62.8085 55.1065 62.8663 55.1292L62.9578 54.8965C62.8456 54.8524 62.6924 54.8464 62.5279 54.8564C62.3587 54.8666 62.1586 54.8953 61.9415 54.9338C61.5094 55.0105 60.9891 55.1305 60.4939 55.2308C59.9929 55.3323 59.515 55.4145 59.1476 55.4224C58.9633 55.4264 58.8171 55.4113 58.7131 55.3766C58.611 55.3425 58.5662 55.2959 58.5489 55.2445L58.3119 55.3241ZM62.8656 55.1289C62.9675 55.1696 63.1397 55.2007 63.35 55.2265C63.565 55.2529 63.8338 55.2754 64.1382 55.2945C64.7471 55.3329 65.504 55.3584 66.2681 55.3754C67.7966 55.4093 69.3591 55.4093 69.8357 55.4093V55.1593C69.3592 55.1593 67.7991 55.1593 66.2737 55.1254C65.5108 55.1085 64.7578 55.0831 64.1539 55.045C63.8518 55.026 63.5885 55.0039 63.3805 54.9784C63.1678 54.9522 63.0262 54.9239 62.9585 54.8968L62.8656 55.1289ZM69.8357 55.4093C70.0325 55.4093 70.2254 55.5006 70.4287 55.6619C70.6324 55.8236 70.8326 56.0441 71.0454 56.2828C71.2553 56.5182 71.4767 56.7704 71.7146 56.9799C71.9528 57.1897 72.2167 57.365 72.5161 57.4398L72.5766 57.1972C72.332 57.1362 72.1036 56.9893 71.8798 56.7923C71.6557 56.5949 71.4453 56.3556 71.232 56.1164C71.0217 55.8805 70.8075 55.6434 70.5841 55.4661C70.3602 55.2884 70.1131 55.1593 69.8357 55.1593V55.4093ZM72.5157 57.4396C72.7495 57.4989 72.9008 57.6352 73.0031 57.8304C73.1083 58.0313 73.1618 58.2956 73.1868 58.6036C73.2118 58.9106 73.2077 59.2475 73.2057 59.5904C73.2036 59.9303 73.2035 60.2761 73.2386 60.5891L73.4871 60.5612C73.4539 60.2651 73.4536 59.9338 73.4557 59.592C73.4577 59.2532 73.4621 58.9037 73.436 58.5833C73.41 58.2639 73.353 57.9597 73.2245 57.7144C73.0931 57.4635 72.8873 57.276 72.5771 57.1973L72.5157 57.4396ZM73.2386 60.5892C73.2758 60.9184 73.4125 61.241 73.5908 61.5515C73.7691 61.8622 73.9941 62.1693 74.2142 62.4658C74.4361 62.7649 74.6523 63.0525 74.8222 63.3328C74.9924 63.6137 75.1087 63.8759 75.1389 64.1215L75.387 64.091C75.3504 63.7936 75.2131 63.4955 75.036 63.2033C74.8587 62.9106 74.6341 62.6122 74.4149 62.3169C74.1939 62.0191 73.9776 61.7232 73.8076 61.4271C73.6375 61.1308 73.5188 60.8424 73.487 60.5611L73.2386 60.5892ZM75.139 64.1221C75.1789 64.4348 75.3413 64.638 75.5773 64.7616C75.8038 64.8802 76.0936 64.9235 76.394 64.9409C76.6941 64.9582 77.0301 64.9502 77.3429 64.9546C77.6617 64.9592 77.9631 64.9765 78.2194 65.0406L78.2801 64.7981C77.9938 64.7265 77.6678 64.7093 77.3465 64.7047C77.019 64.7 76.7021 64.7082 76.4084 64.6913C76.115 64.6743 75.8702 64.6328 75.6933 64.5401C75.5258 64.4524 75.416 64.3179 75.387 64.0904L75.139 64.1221ZM78.2196 65.0407C78.7654 65.1763 79.4304 65.3427 79.9757 65.607C80.525 65.8732 80.9136 66.2195 80.973 66.696L81.2211 66.6651C81.1453 66.0569 80.6536 65.6577 80.0847 65.382C79.5118 65.1043 78.8207 64.9324 78.2799 64.798L78.2196 65.0407ZM80.973 66.696C81.0101 66.9942 81.1375 67.1958 81.3404 67.2829C81.5348 67.3662 81.7612 67.3272 81.9634 67.2356C82.1687 67.1425 82.3699 66.9865 82.5288 66.8002C82.6873 66.6144 82.8108 66.3903 82.8489 66.1577L82.6021 66.1173C82.5734 66.2926 82.4768 66.476 82.3386 66.638C82.2008 66.7995 82.0284 66.9316 81.8602 67.0079C81.6889 67.0855 81.5417 67.0971 81.4389 67.0531C81.3448 67.0127 81.2515 66.9091 81.2211 66.6651L80.973 66.696ZM82.8488 66.1582C82.8783 65.983 82.9761 65.782 83.147 65.5627C83.3173 65.3444 83.5552 65.1143 83.8549 64.8814C84.4542 64.4156 85.291 63.9461 86.2991 63.5428L86.2062 63.3107C85.182 63.7205 84.3235 64.2006 83.7015 64.684C83.3905 64.9257 83.1362 65.17 82.9499 65.409C82.7642 65.6471 82.641 65.8862 82.6022 66.1167L82.8488 66.1582ZM86.2992 63.5428C87.2008 63.1815 87.7719 63.1915 88.1924 63.35L88.2806 63.1161C87.7819 62.9282 87.143 62.9353 86.2062 63.3107L86.2992 63.5428ZM88.353 63.2784C88.5418 62.7934 88.7319 62.3492 88.9072 62.0131C88.9949 61.8448 89.0773 61.7068 89.1523 61.6052C89.2306 61.4992 89.2891 61.4493 89.3245 61.4339L89.2249 61.2046C89.1252 61.2479 89.0337 61.3449 88.9512 61.4567C88.8654 61.573 88.7762 61.7236 88.6855 61.8975C88.504 62.2456 88.3101 62.6996 88.12 63.1877L88.353 63.2784ZM89.3238 61.4342C89.6935 61.2762 90.2138 60.9375 90.6555 60.5097C91.0943 60.0848 91.4774 59.5509 91.5341 58.9985L91.2854 58.9729C91.2379 59.4362 90.9073 59.9178 90.4816 60.3302C90.0588 60.7396 89.5636 61.0599 89.2256 61.2043L89.3238 61.4342ZM91.5342 58.9979C91.5527 58.8088 91.6941 58.6471 91.9744 58.5268C92.2537 58.407 92.6453 58.3412 93.1006 58.3347C94.0101 58.3217 95.134 58.5458 96.0295 58.9919L96.141 58.7681C95.2068 58.3028 94.043 58.0712 93.0971 58.0847C92.6246 58.0914 92.1967 58.1594 91.8758 58.2971C91.5561 58.4343 91.3167 58.6541 91.2854 58.9735L91.5342 58.9979ZM96.0293 58.9918C96.9444 59.4502 97.7112 59.6966 98.2725 59.6292C98.5599 59.5947 98.7987 59.4772 98.9701 59.2619C99.1391 59.0498 99.2324 58.7555 99.2584 58.3854L99.009 58.3679C98.9851 58.7088 98.9009 58.9475 98.7746 59.1062C98.6507 59.2617 98.4764 59.3529 98.2427 59.381C97.7618 59.4387 97.0543 59.2257 96.1412 58.7683L96.0293 58.9918ZM99.2584 58.3854C99.2804 58.0709 99.4421 57.8074 99.6978 57.5913C99.955 57.3739 100.303 57.209 100.68 57.0977C101.056 56.9867 101.455 56.9311 101.807 56.9279C102.163 56.9247 102.458 56.9751 102.636 57.0635L102.747 56.8396C102.518 56.7255 102.176 56.6746 101.805 56.678C101.43 56.6813 101.008 56.7402 100.609 56.8579C100.211 56.9754 99.8284 57.1536 99.5365 57.4003C99.2431 57.6483 99.0369 57.9699 99.009 58.3679L99.2584 58.3854ZM102.636 57.0633C103.037 57.2641 103.884 57.7262 104.781 58.0719C105.229 58.2449 105.696 58.3909 106.13 58.4609C106.562 58.5304 106.977 58.5271 107.313 58.3863L107.216 58.1557C106.943 58.2702 106.583 58.2805 106.17 58.214C105.759 58.148 105.311 58.0084 104.87 57.8386C103.989 57.4986 103.159 57.0456 102.748 56.8398L102.636 57.0633ZM107.312 58.3864C107.448 58.33 107.662 58.2855 107.946 58.2547C108.227 58.2242 108.566 58.2082 108.948 58.2044C109.71 58.1967 110.63 58.2381 111.562 58.3081C113.429 58.4484 115.325 58.7025 116.077 58.9025L116.141 58.6609C115.365 58.4544 113.449 58.1992 111.581 58.0588C110.645 57.9885 109.717 57.9466 108.945 57.9544C108.559 57.9582 108.211 57.9745 107.919 58.0062C107.629 58.0376 107.386 58.085 107.216 58.1556L107.312 58.3864ZM116.077 58.9026C116.862 59.1096 117.39 58.9546 117.814 58.9434C118.027 58.9377 118.227 58.9645 118.452 59.0785C118.68 59.1942 118.941 59.4037 119.265 59.778L119.454 59.6141C119.118 59.2266 118.833 58.9913 118.565 58.8556C118.295 58.7182 118.051 58.687 117.807 58.6934C117.317 58.7064 116.88 58.8559 116.141 58.6608L116.077 58.9026ZM119.265 59.7779C119.552 60.1084 119.809 60.2907 120.058 60.3873C120.307 60.4836 120.537 60.4898 120.754 60.4875C120.974 60.4852 121.175 60.4746 121.4 60.5219C121.62 60.5683 121.867 60.6721 122.161 60.9076L122.317 60.7124C121.996 60.4547 121.713 60.3325 121.451 60.2773C121.193 60.223 120.959 60.2353 120.751 60.2375C120.541 60.2398 120.351 60.2324 120.149 60.1541C119.947 60.0761 119.722 59.9229 119.454 59.6142L119.265 59.7779ZM122.364 60.8081C122.361 60.6079 122.339 60.3827 122.319 60.1495C122.299 59.9141 122.279 59.6667 122.279 59.4128H122.029C122.029 59.6784 122.049 59.9352 122.07 60.1712C122.091 60.4095 122.112 60.6231 122.114 60.8119L122.364 60.8081ZM122.279 59.4128C122.279 59.1986 122.362 58.9845 122.502 58.7663C122.643 58.5479 122.835 58.334 123.044 58.121C123.248 57.9122 123.473 57.6979 123.66 57.4955C123.847 57.2924 124.012 57.083 124.097 56.87L123.865 56.7777C123.798 56.9456 123.66 57.1268 123.476 57.3261C123.292 57.5263 123.08 57.7264 122.865 57.9462C122.654 58.1618 122.447 58.3905 122.292 58.6311C122.137 58.8719 122.029 59.1331 122.029 59.4128H122.279ZM124.097 56.8705C124.146 56.7479 124.152 56.6051 124.134 56.4574C124.116 56.3085 124.073 56.1446 124.014 55.9734C123.897 55.6314 123.713 55.2439 123.522 54.8629C123.33 54.4787 123.132 54.1026 122.981 53.7718C122.905 53.6071 122.843 53.457 122.8 53.3262C122.756 53.1936 122.734 53.0894 122.734 53.0139H122.484C122.484 53.1292 122.515 53.2633 122.562 53.4047C122.61 53.5478 122.676 53.7073 122.753 53.8759C122.907 54.2118 123.11 54.5974 123.298 54.9748C123.489 55.3556 123.667 55.7298 123.778 56.0544C123.833 56.2166 123.871 56.3623 123.886 56.4873C123.901 56.6135 123.892 56.709 123.865 56.7772L124.097 56.8705ZM122.734 53.0139C122.734 52.6341 122.735 51.977 122.637 51.3659C122.589 51.0604 122.515 50.7602 122.4 50.5091C122.287 50.2592 122.127 50.0445 121.9 49.9315L121.789 50.1554C121.944 50.2324 122.071 50.3889 122.173 50.6125C122.274 50.835 122.343 51.1108 122.39 51.4052C122.484 51.9939 122.484 52.632 122.484 53.0139H122.734ZM121.9 49.9315C121.823 49.8933 121.814 49.8626 121.812 49.8538C121.81 49.8402 121.813 49.8058 121.858 49.7442C121.95 49.6211 122.151 49.4729 122.411 49.3277C122.666 49.1852 122.961 49.0545 123.224 48.9613C123.356 48.9148 123.478 48.8781 123.582 48.8541C123.688 48.8295 123.766 48.82 123.815 48.8224L123.827 48.5728C123.744 48.5686 123.638 48.5844 123.525 48.6105C123.41 48.6373 123.279 48.6769 123.141 48.7257C122.865 48.8232 122.557 48.9596 122.289 49.1095C122.025 49.2568 121.783 49.4263 121.658 49.5951C121.595 49.6795 121.546 49.7847 121.566 49.8978C121.587 50.0157 121.675 50.0989 121.789 50.1553L121.9 49.9315ZM123.815 48.8224C124.118 48.8378 124.447 48.7702 124.77 48.6739C125.093 48.5776 125.422 48.4486 125.722 48.3364C126.026 48.2226 126.299 48.1271 126.524 48.0883C126.754 48.0486 126.892 48.0759 126.969 48.1525L127.145 47.9746C126.976 47.8077 126.727 47.7995 126.481 47.842C126.23 47.8853 125.936 47.9895 125.634 48.1022C125.328 48.2166 125.011 48.3411 124.698 48.4344C124.386 48.5277 124.089 48.586 123.827 48.5728L123.815 48.8224ZM126.969 48.1517C127.238 48.4225 127.634 48.5883 128.075 48.6875C128.518 48.7871 129.021 48.8226 129.518 48.8226V48.5726C129.031 48.5726 128.548 48.5376 128.13 48.4436C127.709 48.349 127.367 48.1978 127.146 47.9754L126.969 48.1517ZM129.518 48.8226C129.787 48.8226 129.988 48.7456 130.111 48.5927C130.231 48.4421 130.252 48.2459 130.223 48.0561C130.165 47.6792 129.901 47.2497 129.601 46.9863L129.436 47.1742C129.701 47.4068 129.929 47.7861 129.976 48.0938C129.999 48.2464 129.975 48.3614 129.915 48.4366C129.857 48.5094 129.742 48.5726 129.518 48.5726V48.8226ZM129.601 46.9861C129.592 46.9786 129.577 46.9596 129.567 46.9142C129.557 46.8691 129.553 46.8069 129.558 46.726C129.567 46.5641 129.61 46.3491 129.681 46.0913C129.823 45.5768 130.07 44.9168 130.347 44.2184C130.485 43.8698 130.631 43.5129 130.774 43.1609C130.917 42.8091 131.059 42.4623 131.188 42.1348C131.446 41.4825 131.661 40.8983 131.752 40.5008L131.508 40.4452C131.422 40.8211 131.215 41.388 130.956 42.0428C130.827 42.3689 130.686 42.7146 130.543 43.0665C130.399 43.4183 130.253 43.7764 130.114 44.1262C129.837 44.8248 129.586 45.4959 129.44 46.0247C129.368 46.2885 129.319 46.5232 129.308 46.7113C129.302 46.8054 129.306 46.8933 129.323 46.9698C129.341 47.0462 129.374 47.1205 129.436 47.1745L129.601 46.9861ZM131.752 40.5006C131.839 40.1177 131.948 39.9633 132.044 39.9078C132.134 39.8563 132.256 39.8674 132.449 39.9532C132.542 39.9946 132.642 40.0492 132.753 40.1114C132.862 40.1726 132.981 40.2413 133.104 40.3062C133.351 40.4362 133.631 40.559 133.935 40.597L133.966 40.349C133.707 40.3165 133.459 40.2104 133.221 40.085C133.101 40.0222 132.988 39.9566 132.875 39.8935C132.765 39.8312 132.655 39.7714 132.551 39.7248C132.348 39.6344 132.122 39.575 131.92 39.6909C131.725 39.8027 131.597 40.0533 131.508 40.4454L131.752 40.5006ZM133.935 40.5971C134.508 40.6671 135.137 40.6495 135.691 40.6583C136.258 40.6674 136.739 40.7044 137.062 40.8652L137.173 40.6414C136.792 40.4515 136.254 40.4173 135.695 40.4084C135.125 40.3992 134.521 40.4168 133.965 40.3489L133.935 40.5971ZM137.062 40.8654C137.271 40.9683 137.559 40.9819 137.865 40.9456C138.174 40.9088 138.521 40.8182 138.857 40.6929C139.195 40.5675 139.526 40.4058 139.807 40.2247C140.085 40.0449 140.322 39.8399 140.459 39.6243L140.248 39.49C140.139 39.6619 139.936 39.8434 139.671 40.0147C139.408 40.1846 139.093 40.3385 138.77 40.4586C138.447 40.5787 138.121 40.6634 137.835 40.6974C137.545 40.7319 137.315 40.7115 137.173 40.6412L137.062 40.8654ZM140.459 39.6243C140.597 39.4081 140.633 39.2183 140.597 39.0271C140.564 38.8483 140.469 38.6754 140.376 38.4976C140.187 38.1375 139.951 37.6684 139.985 36.8207L139.736 36.8106C139.699 37.7211 139.956 38.236 140.155 38.6138C140.255 38.805 140.327 38.9395 140.351 39.0724C140.374 39.193 140.357 39.3195 140.248 39.4901L140.459 39.6243ZM139.985 36.8209C140.021 35.9661 140.294 35.3461 140.683 34.941C141.071 34.5359 141.582 34.3371 142.112 34.3371V34.0871C141.518 34.0871 140.94 34.3109 140.502 34.768C140.064 35.2251 139.773 35.907 139.736 36.8104L139.985 36.8209ZM142.112 34.3371C142.723 34.3371 143.131 34.0482 143.379 33.6462C143.623 33.2511 143.712 32.7516 143.712 32.3159H143.462C143.462 32.7241 143.378 33.1726 143.167 33.5147C142.959 33.8498 142.629 34.0871 142.112 34.0871V34.3371ZM143.712 32.3159C143.712 31.984 143.91 31.7063 144.179 31.3642C144.439 31.0323 144.755 30.6507 144.901 30.1386L144.661 30.0697C144.53 30.5263 144.249 30.869 143.982 31.21C143.722 31.5408 143.462 31.8846 143.462 32.3159H143.712ZM144.873 30.0197C144.523 29.6383 144.236 29.1506 144.187 28.7941L143.939 28.8283C143.999 29.2584 144.325 29.7921 144.689 30.1887L144.873 30.0197ZM56.9758 43.6265C56.9561 43.6534 56.8936 43.6922 56.7493 43.7147C56.6129 43.736 56.4316 43.7385 56.2165 43.7229C55.7873 43.6918 55.2443 43.5904 54.7005 43.4453C54.1568 43.3003 53.618 43.1131 53.1967 42.913C52.9859 42.8129 52.8078 42.711 52.6741 42.6116C52.5373 42.51 52.4605 42.4207 52.4318 42.3501L52.2002 42.4441C52.2549 42.579 52.3766 42.702 52.525 42.8123C52.6764 42.9249 52.8702 43.0347 53.0894 43.1388C53.5282 43.3473 54.0823 43.5391 54.636 43.6869C55.1896 43.8346 55.7488 43.9397 56.1984 43.9723C56.4227 43.9885 56.625 43.9871 56.7878 43.9617C56.9427 43.9375 57.0951 43.8868 57.1775 43.7742L56.9758 43.6265ZM52.4315 42.3494C52.4208 42.3235 52.4267 42.3179 52.4272 42.3171C52.4318 42.3093 52.4493 42.2894 52.5016 42.267C52.6063 42.2221 52.7874 42.1934 53.033 42.1873C53.5179 42.1752 54.1961 42.2516 54.8625 42.3934C55.5303 42.5354 56.1721 42.7399 56.5892 42.9773C56.7997 43.0972 56.9371 43.2166 56.9999 43.3268C57.0299 43.3796 57.0412 43.4273 57.0386 43.4717C57.036 43.5162 57.019 43.5675 56.9758 43.6266L57.1775 43.7742C57.2437 43.6837 57.2823 43.5872 57.2882 43.4862C57.2941 43.3853 57.2666 43.29 57.2171 43.2031C57.1208 43.0339 56.9359 42.8871 56.7128 42.7601C56.2627 42.5039 55.5916 42.2928 54.9145 42.1488C54.236 42.0045 53.5373 41.9246 53.0268 41.9373C52.7747 41.9436 52.5536 41.9726 52.4031 42.0372C52.3278 42.0695 52.2545 42.1173 52.2114 42.1909C52.1643 42.2715 52.1658 42.361 52.2005 42.4449L52.4315 42.3494ZM114.79 43.2098C114.086 43.2098 113.165 43.1217 112.131 43.0311C111.101 42.9407 109.962 42.8483 108.832 42.8419C106.582 42.8293 104.319 43.1561 103.008 44.5692L103.192 44.7392C104.423 43.4122 106.582 43.0793 108.83 43.0919C109.949 43.0982 111.079 43.1897 112.11 43.2801C113.137 43.3702 114.072 43.4598 114.79 43.4598V43.2098ZM103.008 44.5693C101.716 45.9657 101.528 47.0382 101.528 47.7935C101.528 47.979 101.54 48.1446 101.548 48.2844C101.556 48.4275 101.56 48.5384 101.549 48.6279C101.538 48.7151 101.515 48.7682 101.479 48.8054C101.442 48.8436 101.376 48.8804 101.251 48.9033L101.296 49.1492C101.45 49.1211 101.572 49.0688 101.658 48.9795C101.746 48.8891 101.783 48.7762 101.797 48.6584C101.811 48.5431 101.805 48.4102 101.797 48.2701C101.789 48.1268 101.778 47.97 101.778 47.7933C101.778 47.1001 101.943 46.0886 103.192 44.7391L103.008 44.5693ZM101.251 48.9032C101.143 48.9226 101.037 48.8928 100.93 48.8082C100.82 48.7215 100.713 48.5796 100.614 48.3872C100.418 48.0028 100.274 47.4472 100.21 46.8331C100.146 46.2204 100.163 45.5589 100.282 44.9657C100.402 44.3702 100.622 43.8569 100.952 43.5258L100.775 43.3492C100.396 43.7292 100.162 44.2969 100.037 44.9164C99.9123 45.5381 99.8953 46.2254 99.9613 46.859C100.027 47.4913 100.177 48.0798 100.392 48.5009C100.499 48.7111 100.627 48.8873 100.775 49.0045C100.927 49.1239 101.103 49.1838 101.295 49.1493L101.251 48.9032ZM100.952 43.526C101.29 43.1888 101.824 42.8918 102.489 42.6487C103.153 42.4063 103.939 42.2208 104.771 42.1011C106.437 41.8615 108.275 41.8877 109.678 42.2379L109.738 41.9953C108.296 41.6352 106.424 41.6108 104.736 41.8537C103.89 41.9752 103.087 42.1642 102.404 42.4138C101.722 42.6627 101.15 42.9752 100.775 43.349L100.952 43.526ZM109.678 42.2379C111.126 42.6002 113.13 42.4444 114.843 42.2293C115.7 42.1216 116.497 41.9973 117.114 41.914C117.424 41.8721 117.689 41.8405 117.898 41.8257C118.113 41.8103 118.249 41.8146 118.314 41.8332L118.383 41.5928C118.269 41.5604 118.09 41.5613 117.88 41.5763C117.663 41.5918 117.392 41.6242 117.081 41.6662C116.455 41.7508 115.67 41.8735 114.812 41.9812C113.095 42.1968 111.136 42.3449 109.738 41.9954L109.678 42.2379ZM118.314 41.8333C118.381 41.8522 118.397 41.8774 118.401 41.8881C118.406 41.9012 118.411 41.9344 118.381 41.9977C118.319 42.1268 118.143 42.3076 117.839 42.4932C117.239 42.8596 116.195 43.2098 114.79 43.2098V43.4598C116.234 43.4598 117.325 43.1003 117.97 42.7065C118.288 42.512 118.513 42.3 118.606 42.106C118.653 42.0078 118.674 41.8969 118.632 41.7937C118.589 41.688 118.494 41.6245 118.382 41.5928L118.314 41.8333Z" fill="#868686"/>
</g>
<defs>
<filter id="filter0_d_6252_1312" x="0.869629" y="0.0307617" width="148.051" height="73.298" filterUnits="userSpaceOnUse" color-interpolation-filters="sRGB">
<feFlood flood-opacity="0" result="BackgroundImageFix"/>
<feColorMatrix in="SourceAlpha" type="matrix" values="0 0 0 0 0 0 0 0 0 0 0 0 0 0 0 0 0 0 127 0" result="hardAlpha"/>
<feOffset dy="2"/>
<feGaussianBlur stdDeviation="2"/>
<feColorMatrix type="matrix" values="0 0 0 0 0 0 0 0 0 0 0 0 0 0 0 0 0 0 0.01 0"/>
<feBlend mode="normal" in2="BackgroundImageFix" result="effect1_dropShadow_6252_1312"/>
<feBlend mode="normal" in="SourceGraphic" in2="effect1_dropShadow_6252_1312" result="shape"/>
</filter>
</defs>
</svg>
