<svg width="14" height="15" viewBox="0 0 14 15" fill="none" xmlns="http://www.w3.org/2000/svg">
<g filter="url(#filter0_d_6252_1076)">
<path fill-rule="evenodd" clip-rule="evenodd" d="M8.41858 5.0978C9.06468 4.5313 9.44647 2.30637 6.75338 2.42524C6.72989 2.57054 6.71814 2.72024 6.71814 2.87727C6.71814 3.90462 5.07057 6.06497 4.16602 8.02573L5.78716 8.71552C6.6315 7.21119 7.90316 5.54837 8.41858 5.0978Z" fill="white"/>
<path fill-rule="evenodd" clip-rule="evenodd" d="M8.41858 5.0978C9.06468 4.5313 9.44647 2.30637 6.75338 2.42524C6.72989 2.57054 6.71814 2.72024 6.71814 2.87727C6.71814 3.90462 5.07057 6.06497 4.16602 8.02573L5.78716 8.71552C6.6315 7.21119 7.90316 5.54837 8.41858 5.0978Z" stroke="#868686" stroke-width="0.25"/>
</g>
<defs>
<filter id="filter0_d_6252_1076" x="-0.00146484" y="0.295654" width="13.0137" height="14.5787" filterUnits="userSpaceOnUse" color-interpolation-filters="sRGB">
<feFlood flood-opacity="0" result="BackgroundImageFix"/>
<feColorMatrix in="SourceAlpha" type="matrix" values="0 0 0 0 0 0 0 0 0 0 0 0 0 0 0 0 0 0 127 0" result="hardAlpha"/>
<feOffset dy="2"/>
<feGaussianBlur stdDeviation="2"/>
<feColorMatrix type="matrix" values="0 0 0 0 0 0 0 0 0 0 0 0 0 0 0 0 0 0 0.01 0"/>
<feBlend mode="normal" in2="BackgroundImageFix" result="effect1_dropShadow_6252_1076"/>
<feBlend mode="normal" in="SourceGraphic" in2="effect1_dropShadow_6252_1076" result="shape"/>
</filter>
</defs>
</svg>
