<svg width="23" height="23" viewBox="0 0 23 23" fill="none" xmlns="http://www.w3.org/2000/svg">
<g filter="url(#filter0_d_6252_1060)">
<path fill-rule="evenodd" clip-rule="evenodd" d="M16.1579 10.7227C15.0889 10.0373 14.5558 10.0373 15.014 9.65715C15.4707 9.27263 15.547 8.43462 15.3958 7.21795C15.3473 6.82609 15.3899 6.56045 15.478 6.34617C15.1212 6.20235 14.8392 6.0321 14.7952 5.82957C14.6439 5.15592 13.9699 6.1319 13.4472 6.88333C12.9185 7.63182 11.6469 6.80701 11.7952 5.68134C11.9479 4.55566 11.1961 2.75781 10.8216 2.75781C10.5837 2.75781 9.56613 2.90898 8.33706 3.19223C8.50005 3.73526 8.13295 4.33258 8.00079 4.93284C7.84954 5.6197 6.01841 6.61035 5.2563 7.21942C5.04485 7.38819 4.76585 7.82555 4.4751 8.37591C5.90975 9.27997 7.58229 10.3323 8.94205 11.3596C11.431 13.2382 15.1931 15.7302 16.9729 16.3862C17.2093 16.4787 17.4912 16.5139 17.8069 16.5169C18.2313 14.5943 18.688 14.3536 18.826 13.313C18.9773 12.1697 17.224 11.4066 16.1579 10.7227Z" fill="white"/>
<path fill-rule="evenodd" clip-rule="evenodd" d="M16.1579 10.7227C15.0889 10.0373 14.5558 10.0373 15.014 9.65715C15.4707 9.27263 15.547 8.43462 15.3958 7.21795C15.3473 6.82609 15.3899 6.56045 15.478 6.34617C15.1212 6.20235 14.8392 6.0321 14.7952 5.82957C14.6439 5.15592 13.9699 6.1319 13.4472 6.88333C12.9185 7.63182 11.6469 6.80701 11.7952 5.68134C11.9479 4.55566 11.1961 2.75781 10.8216 2.75781C10.5837 2.75781 9.56613 2.90898 8.33706 3.19223C8.50005 3.73526 8.13295 4.33258 8.00079 4.93284C7.84954 5.6197 6.01841 6.61035 5.2563 7.21942C5.04485 7.38819 4.76585 7.82555 4.4751 8.37591C5.90975 9.27997 7.58229 10.3323 8.94205 11.3596C11.431 13.2382 15.1931 15.7302 16.9729 16.3862C17.2093 16.4787 17.4912 16.5139 17.8069 16.5169C18.2313 14.5943 18.688 14.3536 18.826 13.313C18.9773 12.1697 17.224 11.4066 16.1579 10.7227Z" stroke="#868686" stroke-width="0.25"/>
</g>
<defs>
<filter id="filter0_d_6252_1060" x="0.310547" y="0.632812" width="22.6499" height="22.01" filterUnits="userSpaceOnUse" color-interpolation-filters="sRGB">
<feFlood flood-opacity="0" result="BackgroundImageFix"/>
<feColorMatrix in="SourceAlpha" type="matrix" values="0 0 0 0 0 0 0 0 0 0 0 0 0 0 0 0 0 0 127 0" result="hardAlpha"/>
<feOffset dy="2"/>
<feGaussianBlur stdDeviation="2"/>
<feColorMatrix type="matrix" values="0 0 0 0 0 0 0 0 0 0 0 0 0 0 0 0 0 0 0.01 0"/>
<feBlend mode="normal" in2="BackgroundImageFix" result="effect1_dropShadow_6252_1060"/>
<feBlend mode="normal" in="SourceGraphic" in2="effect1_dropShadow_6252_1060" result="shape"/>
</filter>
</defs>
</svg>
