<svg width="62" height="59" viewBox="0 0 62 59" fill="none" xmlns="http://www.w3.org/2000/svg">
<g filter="url(#filter0_d_6252_1048)">
<path fill-rule="evenodd" clip-rule="evenodd" d="M10.7826 5.12201C10.4257 5.27465 8.59608 7.20605 8.1394 7.60965C7.68272 8.01765 7.62986 8.72945 7.8325 9.13305C8.03661 9.54105 7.68272 11.0146 7.22604 11.8775C6.76643 12.742 5.14088 13.3525 5.03809 13.8588C4.93824 14.3666 5.95439 15.5349 6.61371 17.0084C7.27597 18.4804 5.95292 19.496 6.51239 20.6143C7.07186 21.7312 6.76789 22.3417 6.25688 22.9493C5.75028 23.5599 6.25688 24.5241 6.25688 25.0818C6.25688 25.6425 6.96907 26.4555 6.76789 26.6566C6.56525 26.8606 5.27451 27.8483 5.27451 28.3546C5.27451 28.861 6.03662 29.3688 6.79579 30.5106C7.55644 31.648 7.0513 32.285 7.17758 33.1699C7.30387 34.0593 8.57406 34.5671 9.58727 34.5671C10.602 34.5671 11.2348 35.3244 12.1218 35.3244C12.9118 35.3244 13.4008 36.6306 13.8545 38.2553C14.2334 38.2597 17.5256 38.3096 18.8897 39.2195C20.3405 40.1867 21.066 41.3931 21.066 41.3931L26.8648 38.2538L53.1026 52.3578V50.5379H56.2847C56.2847 50.5379 56.2847 19.1834 56.2847 16.8528C56.2847 14.5222 55.223 13.037 56.2847 11.7675C57.3449 10.4965 55.8588 9.86247 56.709 7.5304C56.8074 7.25448 56.9102 6.96829 57.0218 6.67477C56.991 6.63221 56.9396 6.58671 56.9249 6.54121C56.6694 5.83381 55.2979 5.77804 52.3023 5.32308C49.3023 4.86518 50.4198 2.83251 47.0674 2.63291C43.712 2.42597 39.4433 5.11908 39.3934 6.54121C39.342 7.96482 40.966 9.53959 39.85 11.0131C38.7326 12.4837 36.2965 12.6348 34.5637 11.063C32.8368 9.48969 30.295 8.77495 28.2157 8.77495C26.1305 8.77495 24.6562 7.45555 24.8075 6.33868C24.9602 5.22328 24.3009 4.71254 22.574 4.35884C20.8457 4.00221 19.3729 2.57861 16.3244 3.08787C14.6915 3.35792 13.3068 2.87066 12.3582 2.2616C12.2892 2.92497 12.2348 3.60742 12.2554 4.05358C12.3039 5.17485 11.1365 4.96644 10.7826 5.12201Z" fill="white"/>
<path fill-rule="evenodd" clip-rule="evenodd" d="M10.7826 5.12201C10.4257 5.27465 8.59608 7.20605 8.1394 7.60965C7.68272 8.01765 7.62986 8.72945 7.8325 9.13305C8.03661 9.54105 7.68272 11.0146 7.22604 11.8775C6.76643 12.742 5.14088 13.3525 5.03809 13.8588C4.93824 14.3666 5.95439 15.5349 6.61371 17.0084C7.27597 18.4804 5.95292 19.496 6.51239 20.6143C7.07186 21.7312 6.76789 22.3417 6.25688 22.9493C5.75028 23.5599 6.25688 24.5241 6.25688 25.0818C6.25688 25.6425 6.96907 26.4555 6.76789 26.6566C6.56525 26.8606 5.27451 27.8483 5.27451 28.3546C5.27451 28.861 6.03662 29.3688 6.79579 30.5106C7.55644 31.648 7.0513 32.285 7.17758 33.1699C7.30387 34.0593 8.57406 34.5671 9.58727 34.5671C10.602 34.5671 11.2348 35.3244 12.1218 35.3244C12.9118 35.3244 13.4008 36.6306 13.8545 38.2553C14.2334 38.2597 17.5256 38.3096 18.8897 39.2195C20.3405 40.1867 21.066 41.3931 21.066 41.3931L26.8648 38.2538L53.1026 52.3578V50.5379H56.2847C56.2847 50.5379 56.2847 19.1834 56.2847 16.8528C56.2847 14.5222 55.223 13.037 56.2847 11.7675C57.3449 10.4965 55.8588 9.86247 56.709 7.5304C56.8074 7.25448 56.9102 6.96829 57.0218 6.67477C56.991 6.63221 56.9396 6.58671 56.9249 6.54121C56.6694 5.83381 55.2979 5.77804 52.3023 5.32308C49.3023 4.86518 50.4198 2.83251 47.0674 2.63291C43.712 2.42597 39.4433 5.11908 39.3934 6.54121C39.342 7.96482 40.966 9.53959 39.85 11.0131C38.7326 12.4837 36.2965 12.6348 34.5637 11.063C32.8368 9.48969 30.295 8.77495 28.2157 8.77495C26.1305 8.77495 24.6562 7.45555 24.8075 6.33868C24.9602 5.22328 24.3009 4.71254 22.574 4.35884C20.8457 4.00221 19.3729 2.57861 16.3244 3.08787C14.6915 3.35792 13.3068 2.87066 12.3582 2.2616C12.2892 2.92497 12.2348 3.60742 12.2554 4.05358C12.3039 5.17485 11.1365 4.96644 10.7826 5.12201Z" stroke="#868686" stroke-width="0.25"/>
</g>
<defs>
<filter id="filter0_d_6252_1048" x="0.90625" y="0.0467529" width="60.2563" height="58.5201" filterUnits="userSpaceOnUse" color-interpolation-filters="sRGB">
<feFlood flood-opacity="0" result="BackgroundImageFix"/>
<feColorMatrix in="SourceAlpha" type="matrix" values="0 0 0 0 0 0 0 0 0 0 0 0 0 0 0 0 0 0 127 0" result="hardAlpha"/>
<feOffset dy="2"/>
<feGaussianBlur stdDeviation="2"/>
<feColorMatrix type="matrix" values="0 0 0 0 0 0 0 0 0 0 0 0 0 0 0 0 0 0 0.01 0"/>
<feBlend mode="normal" in2="BackgroundImageFix" result="effect1_dropShadow_6252_1048"/>
<feBlend mode="normal" in="SourceGraphic" in2="effect1_dropShadow_6252_1048" result="shape"/>
</filter>
</defs>
</svg>
