<svg width="14" height="15" viewBox="0 0 14 15" fill="none" xmlns="http://www.w3.org/2000/svg">
<g filter="url(#filter0_d_6252_1381)">
<path fill-rule="evenodd" clip-rule="evenodd" d="M6.23549 2.59692C5.53212 3.54648 4.84196 4.75288 4.91978 5.14473C4.95356 5.31791 4.89482 5.70977 4.77588 6.21024C5.6819 6.94112 6.56002 7.67787 7.20612 8.01396C7.27073 8.04771 7.32653 8.07706 7.38821 8.10935C7.58938 6.97927 8.36765 5.81544 8.93152 5.68042C8.14445 4.71031 6.98292 3.34542 6.23549 2.59692Z" fill="white"/>
<path fill-rule="evenodd" clip-rule="evenodd" d="M6.23549 2.59692C5.53212 3.54648 4.84196 4.75288 4.91978 5.14473C4.95356 5.31791 4.89482 5.70977 4.77588 6.21024C5.6819 6.94112 6.56002 7.67787 7.20612 8.01396C7.27073 8.04771 7.32653 8.07706 7.38821 8.10935C7.58938 6.97927 8.36765 5.81544 8.93152 5.68042C8.14445 4.71031 6.98292 3.34542 6.23549 2.59692Z" stroke="#868686" stroke-width="0.25"/>
</g>
<defs>
<filter id="filter0_d_6252_1381" x="0.63623" y="0.405884" width="12.5176" height="13.8933" filterUnits="userSpaceOnUse" color-interpolation-filters="sRGB">
<feFlood flood-opacity="0" result="BackgroundImageFix"/>
<feColorMatrix in="SourceAlpha" type="matrix" values="0 0 0 0 0 0 0 0 0 0 0 0 0 0 0 0 0 0 127 0" result="hardAlpha"/>
<feOffset dy="2"/>
<feGaussianBlur stdDeviation="2"/>
<feColorMatrix type="matrix" values="0 0 0 0 0 0 0 0 0 0 0 0 0 0 0 0 0 0 0.01 0"/>
<feBlend mode="normal" in2="BackgroundImageFix" result="effect1_dropShadow_6252_1381"/>
<feBlend mode="normal" in="SourceGraphic" in2="effect1_dropShadow_6252_1381" result="shape"/>
</filter>
</defs>
</svg>
