<svg width="118" height="56" viewBox="0 0 118 56" fill="none" xmlns="http://www.w3.org/2000/svg">
<g filter="url(#filter0_d_6252_1081)">
<path fill-rule="evenodd" clip-rule="evenodd" d="M108.487 22.0885C107.379 20.7633 105.609 21.4281 105.167 22.5318C104.722 23.6384 103.835 22.0885 101.844 22.0885C99.85 22.0885 99.6297 23.1966 98.3023 21.8684C96.9748 20.5417 98.7428 20.097 98.7428 20.097L98.9645 18.3285L101.715 12.8322C100.931 12.5108 99.7795 12.386 99.2288 12.593C98.4153 12.8953 96.4814 12.6957 96.2817 11.9854C96.0761 11.2706 92.825 11.1723 92.0115 11.7799C91.198 12.3904 89.3684 12.8953 89.27 13.6086C89.1657 14.3204 87.2362 14.1164 86.5226 14.6227C85.8118 15.132 82.1525 15.3345 82.0527 15.7425C81.9513 16.1505 78.0879 16.2488 77.48 15.7425C76.8677 15.2347 73.5153 15.7425 73.1056 14.9265C72.6988 14.1149 71.2774 13.7069 71.2774 12.9995C71.2774 12.2877 68.7355 12.2877 68.4316 11.6801C68.1232 11.0696 66.0924 10.7628 65.7884 10.9683C65.483 11.1738 63.2451 10.3548 62.6372 10.258C62.0292 10.1567 60.0982 10.663 59.4859 10.663C58.8765 10.663 57.759 11.7814 57.0498 11.8797C56.3376 11.9854 54.4037 10.663 53.9984 10.9683C53.5931 11.2706 52.3714 9.95269 51.8648 9.34509C51.3538 8.73308 51.8648 7.00568 51.458 6.39661C51.0542 5.78608 48.8163 5.78608 48.1042 5.38101C47.3934 4.97448 46.276 4.36688 45.5623 4.36688C44.8531 4.36688 43.7341 4.16287 43.4287 3.85907C43.1247 3.55381 41.6005 3.04601 40.8898 2.84201C40.1761 2.63947 40.0748 3.55381 39.6695 3.96034C39.2642 4.36688 38.041 4.47108 37.8399 5.17994C37.6343 5.88881 36.2128 6.09281 36.414 6.90588C36.6211 7.71895 37.1291 9.34655 37.6343 9.75015C38.1453 10.1582 37.8399 11.3748 37.5359 11.7843C37.2275 12.1894 35.0939 12.4902 34.6871 13.2064C34.2848 13.9168 33.2672 13.1052 32.2496 12.4917C31.2349 11.8841 30.0117 12.2921 29.5065 12.7016C28.9985 13.1052 27.1703 11.686 26.6593 11.5818C26.1527 11.482 26.0499 9.55055 25.5403 9.65329C25.0367 9.75162 21.4743 9.04569 20.765 8.83582C20.0528 8.63622 18.5301 8.73749 18.3274 9.24382C18.1204 9.75456 16.2937 9.65182 15.9868 10.2609C15.6813 10.8714 14.2569 11.1767 13.7533 11.7843C13.2408 12.3948 11.5154 12.3948 11.1072 13.3077C10.7048 14.222 8.56827 14.6271 7.95594 14.7298C7.34654 14.8326 5.72246 15.1364 5.6182 15.6442C5.57562 15.8599 5.32011 15.8907 5.00146 15.8526C5.03818 15.9891 5.08517 16.1109 5.1116 16.2635C5.5345 18.5809 6.51982 18.5134 7.57561 19.4292C8.63288 20.3406 9.5433 21.0436 10.6696 21.1155C11.7959 21.1859 13.4846 22.5171 13.6255 23.5048C13.765 24.4881 14.8194 25.6138 15.4537 26.1069C16.0866 26.5971 15.2423 28.2864 15.2423 29.5515C15.2423 30.8166 13.6945 31.0998 14.4699 32.3634C15.2423 33.63 20.6608 34.2596 22.2085 34.2596C23.7562 34.2596 24.3186 35.739 24.7885 35.8168C25.7621 35.9753 25.8942 37.1435 27.0014 37.3681C28.1101 37.5853 29.2158 38.2501 29.6593 40.2461C30.1013 42.2333 31.4302 42.8981 31.649 43.7846C31.8722 44.671 34.3112 44.0047 36.0807 44.2278C37.8516 44.4494 42.9456 44.2278 44.2745 44.4494C45.602 44.6695 48.7033 44.4494 50.4742 45.7761C52.2466 47.1014 53.1335 45.9948 54.2392 46.6611C55.3479 47.323 56.2289 47.7677 57.7796 47.5461C59.3317 47.3245 59.3303 48.6542 60.4375 48.8743C61.5432 49.0974 63.5388 47.1029 66.4184 45.7776C69.2935 44.4509 72.6166 45.3344 74.1658 45.5589C75.7164 45.7776 78.5931 44.8941 80.364 42.8981C82.1393 40.9095 84.3508 41.3483 84.574 39.5798C84.7942 37.8098 82.803 37.145 83.687 35.5937C84.574 34.0468 86.1231 34.267 87.0115 34.7116C87.8941 35.1519 90.3331 35.8168 92.5475 34.2655C94.7619 32.7171 95.6474 32.9402 97.64 32.7171C99.6327 32.4941 99.4109 31.1673 100.74 29.8391C102.069 28.5124 103.618 28.0677 104.947 28.0677C106.276 28.0677 108.045 26.7395 109.376 27.1827C110.705 27.6259 112.696 27.8461 112.92 26.738C113.138 25.6329 109.594 23.4167 108.487 22.0885Z" fill="white"/>
<path fill-rule="evenodd" clip-rule="evenodd" d="M108.487 22.0885C107.379 20.7633 105.609 21.4281 105.167 22.5318C104.722 23.6384 103.835 22.0885 101.844 22.0885C99.85 22.0885 99.6297 23.1966 98.3023 21.8684C96.9748 20.5417 98.7428 20.097 98.7428 20.097L98.9645 18.3285L101.715 12.8322C100.931 12.5108 99.7795 12.386 99.2288 12.593C98.4153 12.8953 96.4814 12.6957 96.2817 11.9854C96.0761 11.2706 92.825 11.1723 92.0115 11.7799C91.198 12.3904 89.3684 12.8953 89.27 13.6086C89.1657 14.3204 87.2362 14.1164 86.5226 14.6227C85.8118 15.132 82.1525 15.3345 82.0527 15.7425C81.9513 16.1505 78.0879 16.2488 77.48 15.7425C76.8677 15.2347 73.5153 15.7425 73.1056 14.9265C72.6988 14.1149 71.2774 13.7069 71.2774 12.9995C71.2774 12.2877 68.7355 12.2877 68.4316 11.6801C68.1232 11.0696 66.0924 10.7628 65.7884 10.9683C65.483 11.1738 63.2451 10.3548 62.6372 10.258C62.0292 10.1567 60.0982 10.663 59.4859 10.663C58.8765 10.663 57.759 11.7814 57.0498 11.8797C56.3376 11.9854 54.4037 10.663 53.9984 10.9683C53.5931 11.2706 52.3714 9.95269 51.8648 9.34509C51.3538 8.73308 51.8648 7.00568 51.458 6.39661C51.0542 5.78608 48.8163 5.78608 48.1042 5.38101C47.3934 4.97448 46.276 4.36688 45.5623 4.36688C44.8531 4.36688 43.7341 4.16287 43.4287 3.85907C43.1247 3.55381 41.6005 3.04601 40.8898 2.84201C40.1761 2.63947 40.0748 3.55381 39.6695 3.96034C39.2642 4.36688 38.041 4.47108 37.8399 5.17994C37.6343 5.88881 36.2128 6.09281 36.414 6.90588C36.6211 7.71895 37.1291 9.34655 37.6343 9.75015C38.1453 10.1582 37.8399 11.3748 37.5359 11.7843C37.2275 12.1894 35.0939 12.4902 34.6871 13.2064C34.2848 13.9168 33.2672 13.1052 32.2496 12.4917C31.2349 11.8841 30.0117 12.2921 29.5065 12.7016C28.9985 13.1052 27.1703 11.686 26.6593 11.5818C26.1527 11.482 26.0499 9.55055 25.5403 9.65329C25.0367 9.75162 21.4743 9.04569 20.765 8.83582C20.0528 8.63622 18.5301 8.73749 18.3274 9.24382C18.1204 9.75456 16.2937 9.65182 15.9868 10.2609C15.6813 10.8714 14.2569 11.1767 13.7533 11.7843C13.2408 12.3948 11.5154 12.3948 11.1072 13.3077C10.7048 14.222 8.56827 14.6271 7.95594 14.7298C7.34654 14.8326 5.72246 15.1364 5.6182 15.6442C5.57562 15.8599 5.32011 15.8907 5.00146 15.8526C5.03818 15.9891 5.08517 16.1109 5.1116 16.2635C5.5345 18.5809 6.51982 18.5134 7.57561 19.4292C8.63288 20.3406 9.5433 21.0436 10.6696 21.1155C11.7959 21.1859 13.4846 22.5171 13.6255 23.5048C13.765 24.4881 14.8194 25.6138 15.4537 26.1069C16.0866 26.5971 15.2423 28.2864 15.2423 29.5515C15.2423 30.8166 13.6945 31.0998 14.4699 32.3634C15.2423 33.63 20.6608 34.2596 22.2085 34.2596C23.7562 34.2596 24.3186 35.739 24.7885 35.8168C25.7621 35.9753 25.8942 37.1435 27.0014 37.3681C28.1101 37.5853 29.2158 38.2501 29.6593 40.2461C30.1013 42.2333 31.4302 42.8981 31.649 43.7846C31.8722 44.671 34.3112 44.0047 36.0807 44.2278C37.8516 44.4494 42.9456 44.2278 44.2745 44.4494C45.602 44.6695 48.7033 44.4494 50.4742 45.7761C52.2466 47.1014 53.1335 45.9948 54.2392 46.6611C55.3479 47.323 56.2289 47.7677 57.7796 47.5461C59.3317 47.3245 59.3303 48.6542 60.4375 48.8743C61.5432 49.0974 63.5388 47.1029 66.4184 45.7776C69.2935 44.4509 72.6166 45.3344 74.1658 45.5589C75.7164 45.7776 78.5931 44.8941 80.364 42.8981C82.1393 40.9095 84.3508 41.3483 84.574 39.5798C84.7942 37.8098 82.803 37.145 83.687 35.5937C84.574 34.0468 86.1231 34.267 87.0115 34.7116C87.8941 35.1519 90.3331 35.8168 92.5475 34.2655C94.7619 32.7171 95.6474 32.9402 97.64 32.7171C99.6327 32.4941 99.4109 31.1673 100.74 29.8391C102.069 28.5124 103.618 28.0677 104.947 28.0677C106.276 28.0677 108.045 26.7395 109.376 27.1827C110.705 27.6259 112.696 27.8461 112.92 26.738C113.138 25.6329 109.594 23.4167 108.487 22.0885Z" stroke="#868686" stroke-width="0.25"/>
</g>
<defs>
<filter id="filter0_d_6252_1081" x="0.83252" y="0.68811" width="116.223" height="54.3284" filterUnits="userSpaceOnUse" color-interpolation-filters="sRGB">
<feFlood flood-opacity="0" result="BackgroundImageFix"/>
<feColorMatrix in="SourceAlpha" type="matrix" values="0 0 0 0 0 0 0 0 0 0 0 0 0 0 0 0 0 0 127 0" result="hardAlpha"/>
<feOffset dy="2"/>
<feGaussianBlur stdDeviation="2"/>
<feColorMatrix type="matrix" values="0 0 0 0 0 0 0 0 0 0 0 0 0 0 0 0 0 0 0.01 0"/>
<feBlend mode="normal" in2="BackgroundImageFix" result="effect1_dropShadow_6252_1081"/>
<feBlend mode="normal" in="SourceGraphic" in2="effect1_dropShadow_6252_1081" result="shape"/>
</filter>
</defs>
</svg>
