<svg width="20" height="35" viewBox="0 0 20 35" fill="none" xmlns="http://www.w3.org/2000/svg">
<g filter="url(#filter0_d_6252_1347)">
<path fill-rule="evenodd" clip-rule="evenodd" d="M14.7041 19.6191C14.243 19.057 13.3722 18.2645 12.6189 17.6143C12.6366 17.8653 12.6072 18.0707 12.5147 18.1955C11.6233 19.4914 9.08737 15.4554 8.78341 12.9384C8.47504 10.4273 10.2298 9.20476 9.16373 6.84628C8.27386 4.86791 7.71733 2.97026 8.35316 2.39495C7.77166 2.3201 6.78635 2.35092 6.03745 2.38761C6.59252 3.30488 7.39868 5.12768 7.39868 5.74115C7.39868 6.44268 6.51909 5.56356 6.16667 6.44268C5.81572 7.32472 5.64098 11.3681 6.34141 12.0696C7.04479 12.774 4.93466 12.2457 4.93466 12.9516C4.93466 13.6532 4.76139 16.1158 4.40897 16.292C4.2122 16.3874 4.62042 16.9876 5.01543 17.7992C5.02277 17.7992 5.04626 17.7919 5.04626 17.7919C5.3517 17.7919 6.77754 19.5193 7.38693 19.4151C7.99633 19.3153 9.82452 18.4039 10.13 19.8246C10.4369 21.2423 9.21512 23.6815 9.41777 24.2906C9.62188 24.8996 12.3664 28.9664 12.5705 28.4586C12.7702 27.9479 11.9596 26.1178 12.873 25.3076C13.7893 24.4975 14.9067 25.5116 14.8025 23.0754C14.7041 20.6362 15.616 20.7374 14.7041 19.6191Z" fill="white"/>
<path fill-rule="evenodd" clip-rule="evenodd" d="M14.7041 19.6191C14.243 19.057 13.3722 18.2645 12.6189 17.6143C12.6366 17.8653 12.6072 18.0707 12.5147 18.1955C11.6233 19.4914 9.08737 15.4554 8.78341 12.9384C8.47504 10.4273 10.2298 9.20476 9.16373 6.84628C8.27386 4.86791 7.71733 2.97026 8.35316 2.39495C7.77166 2.3201 6.78635 2.35092 6.03745 2.38761C6.59252 3.30488 7.39868 5.12768 7.39868 5.74115C7.39868 6.44268 6.51909 5.56356 6.16667 6.44268C5.81572 7.32472 5.64098 11.3681 6.34141 12.0696C7.04479 12.774 4.93466 12.2457 4.93466 12.9516C4.93466 13.6532 4.76139 16.1158 4.40897 16.292C4.2122 16.3874 4.62042 16.9876 5.01543 17.7992C5.02277 17.7992 5.04626 17.7919 5.04626 17.7919C5.3517 17.7919 6.77754 19.5193 7.38693 19.4151C7.99633 19.3153 9.82452 18.4039 10.13 19.8246C10.4369 21.2423 9.21512 23.6815 9.41777 24.2906C9.62188 24.8996 12.3664 28.9664 12.5705 28.4586C12.7702 27.9479 11.9596 26.1178 12.873 25.3076C13.7893 24.4975 14.9067 25.5116 14.8025 23.0754C14.7041 20.6362 15.616 20.7374 14.7041 19.6191Z" stroke="#868686" stroke-width="0.25"/>
</g>
<defs>
<filter id="filter0_d_6252_1347" x="0.23291" y="0.223999" width="19.0054" height="34.4034" filterUnits="userSpaceOnUse" color-interpolation-filters="sRGB">
<feFlood flood-opacity="0" result="BackgroundImageFix"/>
<feColorMatrix in="SourceAlpha" type="matrix" values="0 0 0 0 0 0 0 0 0 0 0 0 0 0 0 0 0 0 127 0" result="hardAlpha"/>
<feOffset dy="2"/>
<feGaussianBlur stdDeviation="2"/>
<feColorMatrix type="matrix" values="0 0 0 0 0 0 0 0 0 0 0 0 0 0 0 0 0 0 0.01 0"/>
<feBlend mode="normal" in2="BackgroundImageFix" result="effect1_dropShadow_6252_1347"/>
<feBlend mode="normal" in="SourceGraphic" in2="effect1_dropShadow_6252_1347" result="shape"/>
</filter>
</defs>
</svg>
