<svg width="114" height="75" viewBox="0 0 114 75" fill="none" xmlns="http://www.w3.org/2000/svg">
<g filter="url(#filter0_d_6252_1137)">
<path fill-rule="evenodd" clip-rule="evenodd" d="M92.2126 64.2157C92.5797 64.1409 96.4064 64.6604 96.7735 63.702C97.1421 62.7481 93.9042 60.6141 94.2713 60.3881C94.6384 60.1709 94.7853 57.8168 95.3726 57.8168C95.9629 57.8168 101.336 57.9636 101.628 57.8168C101.923 57.6686 102.953 55.7577 103.835 55.6844C104.239 55.6506 104.869 56.1423 105.439 56.6823C106.428 55.7636 106.779 53.6986 106.967 52.0197C107.195 49.965 106.509 49.2781 107.577 48.1363C108.644 46.9916 109.787 46.9167 109.481 45.3141C109.176 43.7158 107.728 45.3141 106.509 44.5538C105.29 43.7921 104.223 44.3278 101.097 44.7828C97.9717 45.2377 96.5239 46.5351 96.6751 48.741C96.8278 50.9542 95.609 49.9635 95.6854 51.8656C95.7603 53.7706 93.2463 53.8483 93.3976 54.9931C93.5503 56.1349 91.4152 54.9931 90.8058 54.6086C90.1964 54.227 83.6399 56.2112 82.7265 56.3595C81.8117 56.5121 80.1333 54.4574 78.8396 54.5352C77.5445 54.6086 77.01 52.6302 76.8572 51.0276C76.7045 49.4278 74.2655 47.9793 73.1979 46.5337C72.1304 45.0851 71.9791 41.8827 71.9028 39.8251C71.825 37.7704 71.5959 34.2657 73.0467 30.2297C73.2405 29.6867 73.3301 29.2156 73.3536 28.7944C72.8264 28.4686 72.3125 28.2367 71.9233 28.2587C70.6208 28.3424 67.6884 26.5504 67.1172 26.5504C66.5489 26.5504 66.6297 25.1679 66.1422 24.4355C65.6532 23.7002 65.9777 22.3163 65.3272 21.829C64.6752 21.3432 62.7222 19.4705 62.0702 17.1898C61.4182 14.9091 57.427 13.7717 55.9616 13.6924C54.4975 13.6088 53.6811 16.704 53.2743 16.8625C52.8691 17.0269 50.0981 15.2379 49.2846 14.8299C48.4697 14.4233 48.0629 13.6088 48.0629 12.6328C48.0629 11.6539 46.3522 10.1085 45.8632 9.94852C45.3742 9.78268 41.9542 6.44528 41.9542 6.44528H36.5783L35.4388 7.90704L25.6665 7.99216C25.6665 7.99216 18.1746 5.22421 16.7898 4.90133C15.4066 4.57698 12.9617 2.86572 12.9617 2.86572L5.05859 3.90187C5.46388 4.76924 6.02922 5.70853 6.8765 6.76375C8.47856 8.74506 9.62099 12.2468 9.77518 13.4664C9.92642 14.6846 12.1379 15.6767 14.0439 16.8978C15.9499 18.1115 15.9499 20.7811 15.7208 21.465C15.4918 22.1504 13.1291 21.0086 12.9778 21.694C12.8251 22.3794 16.0263 25.0446 17.2465 24.8964C18.4668 24.7423 19.0762 25.504 20.9807 27.1815C22.8867 28.8575 22.7355 30.8373 21.9719 31.4464C21.2098 32.0569 23.4961 33.3514 25.9367 34.9511C28.3743 36.5523 29.3654 38.5321 29.5945 39.3701C29.8221 40.2082 30.8897 39.4479 31.2729 38.3032C31.6532 37.1614 30.5108 36.8561 30.5108 35.5602C30.5108 34.2657 28.527 34.4917 27.6121 34.3435C26.6973 34.1894 27.6885 32.2081 26.7751 31.2952C25.8588 30.3794 25.0218 28.0943 24.5637 26.4198C24.107 24.7423 21.7443 23.0692 20.7531 21.2419C19.7634 19.4089 18.6959 17.9647 18.0086 17.5054C17.3229 17.0489 18.9984 16.3635 18.389 15.6782C17.7796 14.9928 16.8633 15.0691 15.7208 14.5349C14.5769 14.0021 13.8148 13.0893 13.8148 11.8696C13.8148 10.6486 13.0512 7.75587 12.6724 6.76522C12.2906 5.77457 13.5108 5.92867 13.8912 6.38217C14.273 6.84007 14.5769 7.29797 15.1114 6.99417C15.6445 6.68891 16.5593 6.91492 16.9411 7.75587C17.3214 8.59242 18.618 7.83072 19.2274 8.21378C19.8368 8.59389 17.8545 9.05179 19.8368 12.555C21.8192 16.0612 20.4477 14.0784 20.4477 16.4413C20.4477 18.8027 21.668 17.7372 22.0483 17.3542C22.4286 16.9726 23.4961 18.1144 24.4873 19.337C25.4785 20.558 27.3831 20.6299 27.3831 21.3153C27.3831 22.0037 27.7649 23.3759 29.0615 23.6034C30.3566 23.8309 30.5857 25.2794 31.4242 25.432C32.2626 25.5847 32.4154 26.5005 31.9572 27.4867C31.5005 28.4803 31.9572 29.3169 34.0923 30.1549C36.2274 30.9929 35.2362 31.1455 36.9131 32.7453C38.5901 34.3464 43.3155 39.5243 44.3067 40.9728C45.2979 42.4199 45.6033 43.6395 45.9836 44.7035C46.3654 45.772 45.2215 46.3062 45.8309 47.2205C46.4403 48.1363 44.687 47.7547 44.7633 48.4387C44.8397 49.127 45.8309 52.5554 47.5078 52.7065C49.1848 52.8592 51.0893 54.9138 52.4623 56.0586C53.8353 57.2004 55.8925 56.9715 57.9513 57.7346C60.01 58.4949 61.7618 60.325 64.7354 61.1645C67.7075 62.0025 70.6062 63.297 72.5107 64.5151C74.4153 65.7332 76.7794 65.2034 79.4476 64.135C82.1157 63.0665 84.1729 64.4373 85.6972 65.0478C86.449 65.3487 87.9233 66.6109 89.3976 67.9244C90.7471 65.9945 92.0408 64.2524 92.2126 64.2157Z" fill="white"/>
<path fill-rule="evenodd" clip-rule="evenodd" d="M92.2126 64.2157C92.5797 64.1409 96.4064 64.6604 96.7735 63.702C97.1421 62.7481 93.9042 60.6141 94.2713 60.3881C94.6384 60.1709 94.7853 57.8168 95.3726 57.8168C95.9629 57.8168 101.336 57.9636 101.628 57.8168C101.923 57.6686 102.953 55.7577 103.835 55.6844C104.239 55.6506 104.869 56.1423 105.439 56.6823C106.428 55.7636 106.779 53.6986 106.967 52.0197C107.195 49.965 106.509 49.2781 107.577 48.1363C108.644 46.9916 109.787 46.9167 109.481 45.3141C109.176 43.7158 107.728 45.3141 106.509 44.5538C105.29 43.7921 104.223 44.3278 101.097 44.7828C97.9717 45.2377 96.5239 46.5351 96.6751 48.741C96.8278 50.9542 95.609 49.9635 95.6854 51.8656C95.7603 53.7706 93.2463 53.8483 93.3976 54.9931C93.5503 56.1349 91.4152 54.9931 90.8058 54.6086C90.1964 54.227 83.6399 56.2112 82.7265 56.3595C81.8117 56.5121 80.1333 54.4574 78.8396 54.5352C77.5445 54.6086 77.01 52.6302 76.8572 51.0276C76.7045 49.4278 74.2655 47.9793 73.1979 46.5337C72.1304 45.0851 71.9791 41.8827 71.9028 39.8251C71.825 37.7704 71.5959 34.2657 73.0467 30.2297C73.2405 29.6867 73.3301 29.2156 73.3536 28.7944C72.8264 28.4686 72.3125 28.2367 71.9233 28.2587C70.6208 28.3424 67.6884 26.5504 67.1172 26.5504C66.5489 26.5504 66.6297 25.1679 66.1422 24.4355C65.6532 23.7002 65.9777 22.3163 65.3272 21.829C64.6752 21.3432 62.7222 19.4705 62.0702 17.1898C61.4182 14.9091 57.427 13.7717 55.9616 13.6924C54.4975 13.6088 53.6811 16.704 53.2743 16.8625C52.8691 17.0269 50.0981 15.2379 49.2846 14.8299C48.4697 14.4233 48.0629 13.6088 48.0629 12.6328C48.0629 11.6539 46.3522 10.1085 45.8632 9.94852C45.3742 9.78268 41.9542 6.44528 41.9542 6.44528H36.5783L35.4388 7.90704L25.6665 7.99216C25.6665 7.99216 18.1746 5.22421 16.7898 4.90133C15.4066 4.57698 12.9617 2.86572 12.9617 2.86572L5.05859 3.90187C5.46388 4.76924 6.02922 5.70853 6.8765 6.76375C8.47856 8.74506 9.62099 12.2468 9.77518 13.4664C9.92642 14.6846 12.1379 15.6767 14.0439 16.8978C15.9499 18.1115 15.9499 20.7811 15.7208 21.465C15.4918 22.1504 13.1291 21.0086 12.9778 21.694C12.8251 22.3794 16.0263 25.0446 17.2465 24.8964C18.4668 24.7423 19.0762 25.504 20.9807 27.1815C22.8867 28.8575 22.7355 30.8373 21.9719 31.4464C21.2098 32.0569 23.4961 33.3514 25.9367 34.9511C28.3743 36.5523 29.3654 38.5321 29.5945 39.3701C29.8221 40.2082 30.8897 39.4479 31.2729 38.3032C31.6532 37.1614 30.5108 36.8561 30.5108 35.5602C30.5108 34.2657 28.527 34.4917 27.6121 34.3435C26.6973 34.1894 27.6885 32.2081 26.7751 31.2952C25.8588 30.3794 25.0218 28.0943 24.5637 26.4198C24.107 24.7423 21.7443 23.0692 20.7531 21.2419C19.7634 19.4089 18.6959 17.9647 18.0086 17.5054C17.3229 17.0489 18.9984 16.3635 18.389 15.6782C17.7796 14.9928 16.8633 15.0691 15.7208 14.5349C14.5769 14.0021 13.8148 13.0893 13.8148 11.8696C13.8148 10.6486 13.0512 7.75587 12.6724 6.76522C12.2906 5.77457 13.5108 5.92867 13.8912 6.38217C14.273 6.84007 14.5769 7.29797 15.1114 6.99417C15.6445 6.68891 16.5593 6.91492 16.9411 7.75587C17.3214 8.59242 18.618 7.83072 19.2274 8.21378C19.8368 8.59389 17.8545 9.05179 19.8368 12.555C21.8192 16.0612 20.4477 14.0784 20.4477 16.4413C20.4477 18.8027 21.668 17.7372 22.0483 17.3542C22.4286 16.9726 23.4961 18.1144 24.4873 19.337C25.4785 20.558 27.3831 20.6299 27.3831 21.3153C27.3831 22.0037 27.7649 23.3759 29.0615 23.6034C30.3566 23.8309 30.5857 25.2794 31.4242 25.432C32.2626 25.5847 32.4154 26.5005 31.9572 27.4867C31.5005 28.4803 31.9572 29.3169 34.0923 30.1549C36.2274 30.9929 35.2362 31.1455 36.9131 32.7453C38.5901 34.3464 43.3155 39.5243 44.3067 40.9728C45.2979 42.4199 45.6033 43.6395 45.9836 44.7035C46.3654 45.772 45.2215 46.3062 45.8309 47.2205C46.4403 48.1363 44.687 47.7547 44.7633 48.4387C44.8397 49.127 45.8309 52.5554 47.5078 52.7065C49.1848 52.8592 51.0893 54.9138 52.4623 56.0586C53.8353 57.2004 55.8925 56.9715 57.9513 57.7346C60.01 58.4949 61.7618 60.325 64.7354 61.1645C67.7075 62.0025 70.6062 63.297 72.5107 64.5151C74.4153 65.7332 76.7794 65.2034 79.4476 64.135C82.1157 63.0665 84.1729 64.4373 85.6972 65.0478C86.449 65.3487 87.9233 66.6109 89.3976 67.9244C90.7471 65.9945 92.0408 64.2524 92.2126 64.2157Z" stroke="#868686" stroke-width="0.25"/>
</g>
<defs>
<filter id="filter0_d_6252_1137" x="0.873047" y="0.735474" width="112.784" height="73.3759" filterUnits="userSpaceOnUse" color-interpolation-filters="sRGB">
<feFlood flood-opacity="0" result="BackgroundImageFix"/>
<feColorMatrix in="SourceAlpha" type="matrix" values="0 0 0 0 0 0 0 0 0 0 0 0 0 0 0 0 0 0 127 0" result="hardAlpha"/>
<feOffset dy="2"/>
<feGaussianBlur stdDeviation="2"/>
<feColorMatrix type="matrix" values="0 0 0 0 0 0 0 0 0 0 0 0 0 0 0 0 0 0 0.01 0"/>
<feBlend mode="normal" in2="BackgroundImageFix" result="effect1_dropShadow_6252_1137"/>
<feBlend mode="normal" in="SourceGraphic" in2="effect1_dropShadow_6252_1137" result="shape"/>
</filter>
</defs>
</svg>
