<svg width="76" height="29" viewBox="0 0 76 29" fill="none" xmlns="http://www.w3.org/2000/svg">
<g filter="url(#filter0_d_6252_1126)">
<path fill-rule="evenodd" clip-rule="evenodd" d="M16.5748 9.73886C16.6262 7.45669 14.4397 7.70912 13.9316 6.13875C13.4235 4.56252 12.5586 5.47392 12.2547 4.45685C12.2091 4.30715 12.1122 4.14131 11.9889 3.96813C10.8391 4.33797 11.2547 5.289 10.9316 5.35357C10.5087 5.43869 8.22089 5.69113 8.22089 5.01455C8.22089 4.3409 7.88462 3.24312 6.53367 2.98921C5.84204 2.86006 5.15482 2.8219 4.53955 2.85419C5.35453 4.66378 5.45585 6.57611 5.49256 8.11419C5.54542 10.1454 8.54248 13.4006 9.00063 14.7171C9.45878 16.0365 10.3193 16.4459 12.3046 17.8666C14.287 19.2902 18.1474 21.5753 18.9096 21.2201C19.6731 20.8635 17.7436 17.51 16.6232 16.3461C15.5072 15.1764 16.5248 12.0254 16.5748 9.73886ZM68.5641 5.82883C67.6493 6.0343 65.5142 5.93009 65.5142 5.01429C65.5142 4.10142 63.5846 2.37549 62.3644 2.37549C61.1427 2.37549 59.7183 4.81029 59.6184 5.82883C59.52 6.84883 57.5847 6.74463 57.7888 8.16677C57.8681 8.72887 57.5098 8.96809 57.0413 9.11486C57.3541 10.3403 57.5289 11.2282 57.0766 11.1152C56.2631 10.9098 56.0604 11.9268 54.8416 11.9268C54.4246 11.9268 53.7212 10.8745 52.9782 9.50231C52.9562 9.49938 52.9312 9.49057 52.9092 9.49057C52.0972 9.49057 50.269 12.3334 49.8607 14.2618C49.4569 16.1947 47.6273 15.5827 44.8813 15.7867C42.1354 15.9907 43.2543 18.8335 42.6449 20.1559C42.0884 21.3637 39.0722 19.1828 37.548 18.8702C37.8035 19.9592 38.1633 21.0717 38.5774 21.0717C39.3923 21.0717 40.6126 23.0999 41.4232 22.4894C42.2367 21.8833 44.6728 22.4894 45.8945 22.0858C47.1148 21.6822 47.3204 20.6637 49.3512 20.6637C51.382 20.6637 50.57 22.2883 52.6023 21.2757C54.639 20.2586 55.8578 21.0717 55.6507 19.2415C55.4466 17.4143 56.871 17.4143 56.6669 15.9907C56.4643 14.5656 58.9048 15.5842 58.6992 12.941C58.498 10.3022 62.3615 10.7087 63.9855 10.7087C64.3629 10.7087 64.9444 10.9318 65.6125 11.2635C66.8167 10.6676 68.5406 9.88683 67.7462 9.1853C66.8343 8.37224 70.4907 9.08551 70.8974 7.8659C71.3071 6.64043 69.4789 5.62776 68.5641 5.82883Z" fill="white"/>
<path d="M16.5748 9.73886L16.4498 9.73604L16.4498 9.73613L16.5748 9.73886ZM13.9316 6.13875L13.8126 6.1771L13.8127 6.17723L13.9316 6.13875ZM12.2547 4.45685L12.3744 4.42105L12.3742 4.42048L12.2547 4.45685ZM11.9889 3.96813L12.0907 3.89561L12.0376 3.82113L11.9506 3.84913L11.9889 3.96813ZM10.9316 5.35357L10.9071 5.231L10.9069 5.23103L10.9316 5.35357ZM6.53367 2.98921L6.55676 2.86637L6.55662 2.86634L6.53367 2.98921ZM4.53955 2.85419L4.533 2.72936L4.35055 2.73894L4.42558 2.90552L4.53955 2.85419ZM5.49256 8.11419L5.36759 8.11717L5.3676 8.11744L5.49256 8.11419ZM9.00063 14.7171L9.11871 14.6761L9.11868 14.676L9.00063 14.7171ZM12.3046 17.8666L12.3775 17.7651L12.3773 17.765L12.3046 17.8666ZM18.9096 21.2201L18.9624 21.3334L18.9625 21.3334L18.9096 21.2201ZM16.6232 16.3461L16.5328 16.4324L16.5332 16.4328L16.6232 16.3461ZM68.5641 5.82883L68.5372 5.70674L68.5367 5.70687L68.5641 5.82883ZM59.6184 5.82883L59.494 5.81663L59.494 5.81683L59.6184 5.82883ZM57.7888 8.16677L57.9125 8.14931L57.9125 8.14901L57.7888 8.16677ZM57.0413 9.11486L57.004 8.99557L56.8909 9.03099L56.9202 9.14577L57.0413 9.11486ZM57.0766 11.1152L57.046 11.2364L57.0463 11.2365L57.0766 11.1152ZM52.9782 9.50231L53.0881 9.44279L53.0578 9.38682L52.9947 9.37841L52.9782 9.50231ZM49.8607 14.2618L49.7385 14.236L49.7384 14.2363L49.8607 14.2618ZM42.6449 20.1559L42.5314 20.1035L42.5314 20.1035L42.6449 20.1559ZM37.548 18.8702L37.5731 18.7478L37.3817 18.7085L37.4263 18.8988L37.548 18.8702ZM41.4232 22.4894L41.3485 22.3892L41.348 22.3895L41.4232 22.4894ZM45.8945 22.0858L45.9337 22.2045L45.9338 22.2045L45.8945 22.0858ZM52.6023 21.2757L52.658 21.3875L52.6581 21.3875L52.6023 21.2757ZM55.6507 19.2415L55.5265 19.2554L55.5265 19.2556L55.6507 19.2415ZM56.6669 15.9907L56.5431 16.0083L56.5432 16.0085L56.6669 15.9907ZM58.6992 12.941L58.5746 12.9505L58.5746 12.9507L58.6992 12.941ZM65.6125 11.2635L65.557 11.3754L65.6125 11.403L65.668 11.3755L65.6125 11.2635ZM67.7462 9.1853L67.663 9.2786L67.6634 9.279L67.7462 9.1853ZM70.8974 7.8659L70.7789 7.82627L70.7788 7.82635L70.8974 7.8659ZM16.6997 9.74167C16.7131 9.14963 16.581 8.7124 16.3602 8.36706C16.141 8.02417 15.8403 7.78133 15.5342 7.56915C15.2213 7.35229 14.9167 7.1753 14.6468 6.94735C14.3832 6.72465 14.1683 6.46437 14.0505 6.10028L13.8127 6.17723C13.9489 6.59832 14.1979 6.89537 14.4855 7.13833C14.7669 7.37603 15.1009 7.57301 15.3918 7.77461C15.6894 7.98089 15.9574 8.201 16.1496 8.50171C16.3402 8.79997 16.4622 9.187 16.4498 9.73604L16.6997 9.74167ZM14.0506 6.10041C13.9195 5.69371 13.7614 5.43484 13.5849 5.26415C13.4071 5.09218 13.2201 5.01919 13.0528 4.96849C12.8781 4.91553 12.7528 4.89163 12.6396 4.82101C12.5385 4.7579 12.4435 4.65206 12.3744 4.42105L12.1349 4.49264C12.2178 4.77017 12.3449 4.93181 12.5073 5.03312C12.6576 5.12692 12.8373 5.16439 12.9803 5.20774C13.1308 5.25335 13.2743 5.31162 13.4111 5.44386C13.5491 5.57738 13.6897 5.79568 13.8126 6.1771L14.0506 6.10041ZM12.3742 4.42048C12.3228 4.25113 12.2164 4.07206 12.0907 3.89561L11.8871 4.04064C12.0081 4.21055 12.0955 4.36317 12.1351 4.49321L12.3742 4.42048ZM11.9506 3.84913C11.6456 3.94725 11.4359 4.08687 11.2911 4.24799C11.1465 4.40888 11.0732 4.58391 11.0297 4.74222C11.0081 4.8209 10.9937 4.89607 10.9819 4.96244C10.9696 5.03112 10.9609 5.08566 10.9497 5.13328C10.9384 5.18141 10.9277 5.20767 10.9184 5.22164C10.9125 5.23057 10.9107 5.23028 10.9071 5.231L10.9561 5.47615C11.1196 5.44346 11.1689 5.29355 11.1931 5.19045C11.2063 5.13405 11.217 5.06833 11.228 5.00625C11.2395 4.94187 11.2523 4.87578 11.2708 4.80843C11.3075 4.67468 11.3661 4.53857 11.477 4.4151C11.5878 4.29187 11.7573 4.17392 12.0271 4.08712L11.9506 3.84913ZM10.9069 5.23103C10.7042 5.27183 10.0355 5.35538 9.41982 5.34472C9.11089 5.33936 8.82628 5.31035 8.62277 5.24578C8.40897 5.17794 8.34589 5.09372 8.34589 5.01455H8.09589C8.09589 5.27367 8.31879 5.41161 8.54717 5.48407C8.78584 5.5598 9.09961 5.58921 9.41549 5.59468C10.0494 5.60566 10.7361 5.52043 10.9563 5.47611L10.9069 5.23103ZM8.34589 5.01455C8.34589 4.65948 8.25771 4.19157 7.98879 3.77651C7.71742 3.35767 7.26619 2.9997 6.55676 2.86637L6.51058 3.11206C7.15211 3.23263 7.54448 3.55051 7.77898 3.91245C8.01594 4.27817 8.09589 4.69597 8.09589 5.01455H8.34589ZM6.55662 2.86634C5.85501 2.73532 5.15788 2.69657 4.533 2.72936L4.5461 2.97902C5.15177 2.94724 5.82908 2.9848 6.51073 3.11209L6.55662 2.86634ZM4.42558 2.90552C5.22932 4.69018 5.33091 6.58008 5.36759 8.11717L5.61752 8.11121C5.58079 6.57213 5.47973 4.63738 4.65353 2.80286L4.42558 2.90552ZM5.3676 8.11744C5.38151 8.65178 5.58781 9.25522 5.88603 9.87208C6.18524 10.491 6.58276 11.1349 6.99028 11.7525C7.19421 12.0615 7.40119 12.3648 7.60009 12.6555C7.79921 12.9465 7.98997 13.2246 8.16247 13.4847C8.51003 14.0088 8.77404 14.4463 8.88257 14.7582L9.11868 14.676C8.99814 14.3296 8.71572 13.8666 8.37082 13.3465C8.19709 13.0846 8.00512 12.8047 7.80642 12.5143C7.6075 12.2236 7.40159 11.9219 7.19894 11.6148C6.79332 11.0001 6.40303 10.3671 6.11111 9.76327C5.81819 9.15736 5.63004 8.5922 5.61752 8.11094L5.3676 8.11744ZM8.88254 14.7581C9.1201 15.4422 9.46431 15.8922 9.99871 16.3489C10.5246 16.7984 11.247 17.2635 12.2318 17.9683L12.3773 17.765C11.3769 17.049 10.6763 16.5991 10.1611 16.1588C9.65441 15.7258 9.3393 15.3113 9.11871 14.6761L8.88254 14.7581ZM12.2317 17.9681C13.227 18.6829 14.6923 19.613 16.0054 20.3205C16.6616 20.674 17.2833 20.9739 17.7911 21.1633C18.0447 21.2579 18.274 21.3265 18.4671 21.3596C18.6549 21.3918 18.8309 21.3947 18.9624 21.3334L18.8568 21.1068C18.7977 21.1344 18.6863 21.1436 18.5094 21.1132C18.3378 21.0838 18.1249 21.021 17.8785 20.9291C17.3862 20.7454 16.7759 20.4516 16.124 20.1004C14.8207 19.3982 13.3645 18.4739 12.3775 17.7651L12.2317 17.9681ZM18.9625 21.3334C19.1093 21.2648 19.1786 21.1269 19.2003 20.9736C19.2216 20.8229 19.2006 20.6405 19.1536 20.4429C19.0592 20.0457 18.8493 19.5463 18.5841 19.0288C18.0538 17.9938 17.2847 16.8531 16.7133 16.2594L16.5332 16.4328C17.0821 17.0031 17.8381 18.121 18.3616 19.1428C18.6235 19.6538 18.8228 20.1324 18.9104 20.5007C18.9544 20.6858 18.9677 20.833 18.9527 20.9385C18.9382 21.0414 18.9008 21.0863 18.8567 21.1069L18.9625 21.3334ZM16.7137 16.2599C16.4609 15.9949 16.321 15.6092 16.2619 15.1266C16.2028 14.6448 16.2259 14.0807 16.2862 13.4737C16.3464 12.8666 16.4429 12.2261 16.5282 11.588C16.6133 10.9523 16.6871 10.3207 16.6997 9.74159L16.4498 9.73613C16.4375 10.3003 16.3654 10.92 16.2804 11.5548C16.1958 12.1872 16.0982 12.8363 16.0374 13.449C15.9765 14.0618 15.9513 14.6476 16.0137 15.157C16.0761 15.6658 16.2276 16.1125 16.5328 16.4324L16.7137 16.2599ZM68.5367 5.70687C68.0968 5.80567 67.3511 5.83115 66.7179 5.71895C66.4011 5.66282 66.1236 5.57409 65.9288 5.4511C65.7359 5.32938 65.6392 5.18544 65.6392 5.01429H65.3892C65.3892 5.30104 65.5593 5.51356 65.7953 5.66252C66.0294 5.81022 66.3429 5.90641 66.6742 5.96512C67.3373 6.08261 68.1166 6.05745 68.5915 5.95079L68.5367 5.70687ZM65.6392 5.01429C65.6392 4.74767 65.501 4.44269 65.2965 4.14594C65.0893 3.84516 64.8022 3.53603 64.4783 3.25776C64.1544 2.97937 63.7903 2.72897 63.4272 2.5476C63.0658 2.36706 62.6964 2.25049 62.3644 2.25049V2.50049C62.6425 2.50049 62.9719 2.59966 63.3155 2.77125C63.6574 2.94202 64.0045 3.18017 64.3154 3.44737C64.6265 3.7147 64.898 4.00821 65.0907 4.28779C65.2861 4.57139 65.3892 4.82448 65.3892 5.01429H65.6392ZM62.3644 2.25049C62.0185 2.25049 61.6732 2.42176 61.3561 2.67402C61.0372 2.9278 60.7337 3.27382 60.4687 3.64796C60.2033 4.02264 59.9737 4.42954 59.8038 4.80838C59.6348 5.1851 59.5209 5.5425 59.494 5.81663L59.7428 5.84102C59.7659 5.60589 59.8675 5.27699 60.0319 4.91071C60.1952 4.54657 60.4168 4.1538 60.6727 3.79245C60.929 3.43058 61.2169 3.10424 61.5118 2.86966C61.8085 2.63357 62.0994 2.50049 62.3644 2.50049V2.25049ZM59.494 5.81683C59.4738 6.02651 59.3608 6.18356 59.1836 6.3274C59.0009 6.47561 58.7709 6.59441 58.5264 6.73949C58.2898 6.87988 58.0449 7.04255 57.8746 7.27004C57.6998 7.50367 57.6095 7.79738 57.665 8.18453L57.9125 8.14901C57.866 7.82509 57.9411 7.59852 58.0748 7.41983C58.2131 7.23501 58.4199 7.09334 58.6539 6.9545C58.88 6.82037 59.1396 6.68509 59.3411 6.52152C59.548 6.35358 59.7139 6.14114 59.7429 5.84083L59.494 5.81683ZM57.665 8.18423C57.7001 8.43274 57.6384 8.59391 57.529 8.71138C57.4132 8.83567 57.2319 8.92416 57.004 8.99557L57.0787 9.23414C57.3192 9.15879 57.5513 9.05429 57.7119 8.88175C57.879 8.70239 57.9568 8.4629 57.9125 8.14931L57.665 8.18423ZM56.9202 9.14577C57.0772 9.76067 57.1959 10.278 57.2212 10.626C57.2342 10.8045 57.2201 10.9136 57.1936 10.9677C57.1825 10.9904 57.1733 10.9951 57.1695 10.9967C57.164 10.999 57.1465 11.0039 57.1069 10.994L57.0463 11.2365C57.1197 11.2549 57.1957 11.2567 57.266 11.2273C57.338 11.1972 57.3869 11.1415 57.4181 11.0776C57.4763 10.9588 57.4838 10.7905 57.4705 10.6079C57.4433 10.2338 57.3183 9.69452 57.1625 9.08394L56.9202 9.14577ZM57.1072 10.994C56.6345 10.8746 56.3328 11.1214 56.0361 11.344C55.7361 11.569 55.4086 11.8018 54.8416 11.8018V12.0518C55.4935 12.0518 55.8767 11.7761 56.1861 11.544C56.4988 11.3094 56.7052 11.1504 57.046 11.2364L57.1072 10.994ZM54.8416 11.8018C54.7855 11.8018 54.6932 11.7631 54.5617 11.6472C54.435 11.5355 54.2908 11.369 54.1327 11.1549C53.8171 10.7274 53.4588 10.1273 53.0881 9.44279L52.8683 9.56183C53.2407 10.2496 53.6055 10.8617 53.9316 11.3034C54.0944 11.5239 54.2507 11.7063 54.3964 11.8347C54.5373 11.959 54.6893 12.0518 54.8416 12.0518V11.8018ZM52.9947 9.37841C52.9905 9.37785 52.9875 9.37697 52.9704 9.37323C52.9581 9.37053 52.9349 9.36557 52.9092 9.36557V9.61557C52.9056 9.61557 52.9058 9.61501 52.917 9.61746C52.9195 9.61799 52.9219 9.61855 52.925 9.61925C52.928 9.61991 52.9314 9.6207 52.9351 9.62147C52.9421 9.62298 52.9515 9.62485 52.9617 9.62622L52.9947 9.37841ZM52.9092 9.36557C52.7735 9.36557 52.6321 9.42387 52.4949 9.51093C52.3556 9.59927 52.2085 9.72489 52.0586 9.87721C51.7586 10.1821 51.4359 10.6053 51.1283 11.0856C50.5138 12.0449 49.9467 13.252 49.7385 14.236L49.983 14.2877C50.183 13.3432 50.7341 12.1646 51.3388 11.2205C51.6408 10.749 51.9529 10.341 52.2368 10.0526C52.3788 9.90825 52.511 9.79671 52.6288 9.72205C52.7485 9.64611 52.8419 9.61557 52.9092 9.61557V9.36557ZM49.7384 14.2363C49.6418 14.6988 49.4635 14.9942 49.2203 15.1894C48.9744 15.3866 48.648 15.493 48.2327 15.5487C47.8168 15.6045 47.3268 15.6077 46.7607 15.6092C46.1973 15.6107 45.5637 15.6107 44.8721 15.6621L44.8906 15.9114C45.5719 15.8608 46.1967 15.8607 46.7614 15.8592C47.3233 15.8577 47.8307 15.8549 48.2659 15.7965C48.7018 15.7381 49.0801 15.6223 49.3767 15.3843C49.676 15.1442 49.8778 14.7914 49.9831 14.2874L49.7384 14.2363ZM44.8721 15.6621C44.1627 15.7148 43.6847 15.9399 43.3672 16.2848C43.0522 16.627 42.9099 17.0712 42.8384 17.5328C42.7672 17.9919 42.7637 18.49 42.7405 18.9375C42.7167 19.3941 42.6725 19.7973 42.5314 20.1035L42.7584 20.2082C42.922 19.8533 42.9665 19.4053 42.9901 18.9505C43.0142 18.4867 43.0169 18.0134 43.0854 17.5711C43.1536 17.1311 43.2845 16.7437 43.5511 16.4542C43.8151 16.1674 44.227 15.9607 44.8906 15.9114L44.8721 15.6621ZM42.5314 20.1035C42.4752 20.2254 42.3913 20.3006 42.2823 20.3441C42.1692 20.3892 42.0222 20.4028 41.8408 20.3842C41.4764 20.3468 41.0148 20.1846 40.5085 19.9683C40.0023 19.752 39.4724 19.4912 38.9608 19.259C38.4556 19.0297 37.9696 18.8291 37.5731 18.7478L37.5229 18.9927C37.8885 19.0676 38.3511 19.2568 38.8575 19.4867C39.3576 19.7136 39.9023 19.9811 40.4102 20.1982C40.918 20.4151 41.41 20.5913 41.8153 20.6329C42.0188 20.6537 42.2106 20.6419 42.375 20.5763C42.5433 20.5091 42.6754 20.3883 42.7584 20.2082L42.5314 20.1035ZM37.4263 18.8988C37.5545 19.4451 37.7102 20.0036 37.8879 20.4276C37.9765 20.639 38.0735 20.8241 38.1797 20.9584C38.283 21.0889 38.4153 21.1967 38.5774 21.1967V20.9467C38.5324 20.9467 38.4644 20.9153 38.3758 20.8033C38.2901 20.695 38.2035 20.5339 38.1185 20.331C37.949 19.9265 37.797 19.3843 37.6697 18.8417L37.4263 18.8988ZM38.5774 21.1967C38.7361 21.1967 38.9357 21.2988 39.177 21.4792C39.4147 21.6568 39.6609 21.8844 39.9211 22.1048C40.175 22.32 40.4416 22.5277 40.7015 22.6402C40.9663 22.7547 41.2468 22.7788 41.4984 22.5892L41.348 22.3895C41.1943 22.5053 41.0182 22.5048 40.8008 22.4107C40.5785 22.3146 40.3371 22.1297 40.0827 21.9141C39.8346 21.7039 39.5723 21.4625 39.3267 21.2789C39.0846 21.098 38.8261 20.9467 38.5774 20.9467V21.1967ZM41.4979 22.5896C41.6726 22.4594 41.9485 22.386 42.3052 22.3518C42.6583 22.3179 43.07 22.3239 43.5021 22.3366C43.9312 22.3492 44.3806 22.3684 44.7977 22.3589C45.214 22.3494 45.6103 22.3113 45.9337 22.2045L45.8553 21.9671C45.5679 22.0621 45.2015 22.0996 44.792 22.1089C44.3834 22.1182 43.9437 22.0994 43.5094 22.0867C43.0781 22.0741 42.6519 22.0674 42.2813 22.1029C41.9142 22.1382 41.5805 22.2163 41.3485 22.3892L41.4979 22.5896ZM45.9338 22.2045C46.5652 21.9956 46.9526 21.6177 47.3882 21.3274C47.827 21.035 48.3623 20.7887 49.3512 20.7887V20.5387C48.3093 20.5387 47.7263 20.8016 47.2496 21.1194C46.7697 21.4392 46.4441 21.7724 45.8553 21.9671L45.9338 22.2045ZM49.3512 20.7887C49.8411 20.7887 50.1492 20.8863 50.3686 21.0105C50.5934 21.1377 50.7292 21.2926 50.8917 21.4415C51.0526 21.589 51.2324 21.7205 51.5174 21.7322C51.7913 21.7434 52.1451 21.6431 52.658 21.3875L52.5465 21.1638C52.0434 21.4145 51.7365 21.4909 51.5276 21.4824C51.3298 21.4742 51.2047 21.3894 51.0607 21.2573C50.9183 21.1267 50.7493 20.9387 50.4917 20.7929C50.2287 20.6441 49.8767 20.5387 49.3512 20.5387V20.7887ZM52.6581 21.3875C53.6642 20.8851 54.4387 20.845 55.0023 20.6837C55.2789 20.6045 55.514 20.4909 55.6557 20.2522C55.7941 20.019 55.8275 19.6922 55.775 19.2275L55.5265 19.2556C55.5775 19.7059 55.5362 19.9638 55.4407 20.1246C55.3484 20.28 55.1903 20.3698 54.9335 20.4433C54.4304 20.5873 53.5771 20.6492 52.5465 21.1638L52.6581 21.3875ZM55.775 19.2276C55.7258 18.7878 55.7752 18.4648 55.8696 18.2057C55.9645 17.9449 56.1074 17.7415 56.2588 17.5398C56.4075 17.3417 56.571 17.1379 56.6798 16.893C56.7911 16.6424 56.8449 16.3517 56.7906 15.973L56.5432 16.0085C56.5909 16.3416 56.5432 16.5847 56.4513 16.7915C56.3568 17.0042 56.2152 17.1815 56.0589 17.3897C55.9052 17.5944 55.743 17.8226 55.6347 18.1202C55.5257 18.4194 55.4736 18.7816 55.5265 19.2554L55.775 19.2276ZM56.7907 15.9731C56.7676 15.8113 56.7836 15.6949 56.82 15.6066C56.8563 15.5188 56.9172 15.4482 57.0023 15.3851C57.089 15.3208 57.1975 15.2665 57.325 15.2111C57.4451 15.1588 57.5977 15.0992 57.7358 15.0365C58.0231 14.906 58.3282 14.7288 58.5443 14.401C58.7608 14.0724 58.8766 13.6102 58.8238 12.9313L58.5746 12.9507C58.6246 13.5933 58.5124 13.995 58.3355 14.2634C58.1581 14.5326 57.9043 14.6854 57.6325 14.8088C57.491 14.8731 57.364 14.9214 57.2252 14.9818C57.0937 15.0391 56.9638 15.1024 56.8534 15.1843C56.7414 15.2674 56.6465 15.3717 56.5889 15.5112C56.5315 15.6503 56.5155 15.8138 56.5431 16.0083L56.7907 15.9731ZM58.8238 12.9315C58.7762 12.3063 58.968 11.8754 59.2969 11.5706C59.6317 11.2603 60.1203 11.07 60.6824 10.9579C61.8099 10.7329 63.1588 10.8337 63.9855 10.8337V10.5837C63.1882 10.5837 61.7933 10.4813 60.6334 10.7127C60.0517 10.8288 59.5107 11.0316 59.127 11.3873C58.7373 11.7484 58.5216 12.2562 58.5746 12.9505L58.8238 12.9315ZM63.9855 10.8337C64.1531 10.8337 64.377 10.884 64.6485 10.9796C64.9179 11.0745 65.2253 11.2108 65.557 11.3754L65.6681 11.1515C65.3316 10.9845 65.0142 10.8434 64.7315 10.7438C64.4509 10.645 64.1954 10.5837 63.9855 10.5837V10.8337ZM65.668 11.3755C66.2638 11.0807 67.0096 10.7303 67.5032 10.3644C67.7478 10.1832 67.952 9.98316 68.0341 9.76652C68.0767 9.65416 68.0872 9.5356 68.0518 9.4161C68.0169 9.29809 67.9406 9.19023 67.8289 9.09161L67.6634 9.279C67.7503 9.35576 67.794 9.42576 67.8121 9.48706C67.8298 9.54685 67.8265 9.60904 67.8004 9.67785C67.7451 9.82353 67.592 9.9875 67.3544 10.1636C66.8836 10.5125 66.1654 10.8504 65.5571 11.1514L65.668 11.3755ZM67.8294 9.09201C67.7772 9.04547 67.7487 9.01066 67.7347 8.98685C67.7212 8.9636 67.7275 8.96164 67.7251 8.97234C67.7227 8.98313 67.7172 8.98089 67.7344 8.9691C67.7521 8.95687 67.7833 8.9422 67.8327 8.92733C67.9312 8.89765 68.0726 8.87565 68.2488 8.85637C68.4241 8.8372 68.6236 8.82169 68.8384 8.80256C69.263 8.76475 69.7418 8.71343 70.1416 8.59183C70.5359 8.47189 70.894 8.27121 71.016 7.90545L70.7788 7.82635C70.6974 8.07039 70.446 8.23791 70.0688 8.35265C69.6971 8.46574 69.2425 8.51559 68.8162 8.55355C68.6055 8.5723 68.4002 8.58832 68.2217 8.60785C68.0442 8.62726 67.883 8.6511 67.7606 8.68795C67.6995 8.70634 67.6407 8.7301 67.5926 8.76317C67.544 8.79666 67.497 8.84657 67.4811 8.91805C67.4652 8.98945 67.486 9.05671 67.5189 9.11295C67.5514 9.1686 67.6012 9.22351 67.663 9.2786L67.8294 9.09201ZM71.016 7.90554C71.2465 7.216 70.8392 6.60576 70.3013 6.21159C70.0293 6.01223 69.7146 5.8598 69.4073 5.76998C69.1016 5.68066 68.7933 5.65045 68.5372 5.70674L68.5909 5.95091C68.7922 5.90667 69.0555 5.92765 69.3372 6.00995C69.6171 6.09175 69.9054 6.23138 70.1535 6.41324C70.6561 6.7815 70.958 7.29033 70.7789 7.82627L71.016 7.90554Z" fill="#868686"/>
</g>
<defs>
<filter id="filter0_d_6252_1126" x="0.350586" y="0.250488" width="74.7314" height="28.4785" filterUnits="userSpaceOnUse" color-interpolation-filters="sRGB">
<feFlood flood-opacity="0" result="BackgroundImageFix"/>
<feColorMatrix in="SourceAlpha" type="matrix" values="0 0 0 0 0 0 0 0 0 0 0 0 0 0 0 0 0 0 127 0" result="hardAlpha"/>
<feOffset dy="2"/>
<feGaussianBlur stdDeviation="2"/>
<feColorMatrix type="matrix" values="0 0 0 0 0 0 0 0 0 0 0 0 0 0 0 0 0 0 0.01 0"/>
<feBlend mode="normal" in2="BackgroundImageFix" result="effect1_dropShadow_6252_1126"/>
<feBlend mode="normal" in="SourceGraphic" in2="effect1_dropShadow_6252_1126" result="shape"/>
</filter>
</defs>
</svg>
