<svg width="45" height="68" viewBox="0 0 45 68" fill="none" xmlns="http://www.w3.org/2000/svg">
<g filter="url(#filter0_d_6252_1345)">
<path fill-rule="evenodd" clip-rule="evenodd" d="M40.8264 17.6363C40.4725 16.7205 39.7589 12.6038 39.963 10.9307C40.1671 9.25464 39.6575 4.83706 39.6575 2.70459C39.6575 2.65469 39.6487 2.61653 39.6473 2.57544C37.9659 3.33714 36.1583 4.21332 36.0012 4.53033C35.6957 5.14086 34.3756 4.42906 33.5592 5.14086C32.7457 5.8512 32.2405 5.2436 31.5298 5.04253C30.8206 4.83706 30.5107 5.75286 30.4094 6.36046C30.3095 6.96953 28.8866 6.6628 28.3756 6.56153C27.8676 6.4632 26.242 6.96953 25.427 6.96953C24.6135 6.96953 25.2259 6.2592 24.311 5.9554C23.3962 5.6516 22.7868 6.36046 22.2758 6.36046C21.9689 6.36046 21.0203 6.25039 20.3272 6.15793C20.314 6.62904 20.2611 7.04438 20.1422 7.35112C19.4828 9.07265 21.5151 12.9677 21.6165 14.6159C22.3698 15.2661 23.2391 16.0586 23.7016 16.6207C24.6135 17.739 23.7016 17.6363 23.8 20.0755C23.9028 22.5103 22.7868 21.4976 21.8705 22.3078C20.9571 23.1194 21.7677 24.9495 21.568 25.4588C21.3624 25.9666 18.6179 21.8998 18.4153 21.2907C18.2127 20.6816 19.4344 18.2424 19.1275 16.8247C18.8221 15.4025 16.9939 16.3139 16.3845 16.4152C15.7751 16.5179 14.3492 14.792 14.0438 14.792C13.7398 14.792 4.49316 18.2439 4.49316 18.2439L5.20095 20.7873L4.9983 20.7902L5.50491 21.9012C5.50491 21.9012 8.55483 22.0553 9.92781 22.9697C11.2978 23.8855 13.4344 24.0352 13.8911 24.3448C14.3492 24.6472 13.8911 28.0007 14.0438 29.6767C14.198 31.3528 12.2156 31.8092 13.129 32.7235C14.0438 33.6379 13.5857 35.1628 14.1995 35.3125C14.8074 35.4651 13.129 37.4449 12.3654 37.9043C11.6062 38.3622 12.3654 40.0397 11.452 41.2549C10.8676 42.0371 9.15835 43.5664 7.96452 44.7244C8.02326 44.7581 8.07465 44.7919 8.09962 44.8344C8.40505 45.3687 9.31841 50.702 10.2318 51.2363C11.1495 51.769 10.615 57.0261 10.5387 57.484C10.4608 57.9419 10.9219 61.4451 10.9219 61.4451C10.9219 61.4451 12.2817 61.2323 13.4799 61.2499C13.5636 60.5557 13.615 59.9525 13.64 59.5401C13.7398 57.9184 12.6224 59.2349 12.2655 58.2222C11.9102 57.2066 14.756 55.3266 17.6532 54.2596C20.5504 53.1941 21.6664 52.5836 21.9718 51.565C22.2758 50.5538 21.9219 47.7095 22.3287 46.5853C22.7325 45.4714 22.0732 44.811 21.7193 42.272C21.3624 39.7315 20.4447 39.325 20.0409 37.9028C19.6326 36.4807 19.7354 35.3668 20.5989 35.311C21.4623 35.2626 21.4623 34.8545 22.1745 33.4838C22.8867 32.1101 23.7002 32.6722 25.0731 31.6536C26.4447 30.6395 26.4931 29.3685 28.6796 27.694C30.8617 26.0179 33.2523 26.0708 35.3859 24.7983C37.5254 23.5259 41.1818 18.5492 40.8264 17.6363Z" fill="white"/>
<path fill-rule="evenodd" clip-rule="evenodd" d="M40.8264 17.6363C40.4725 16.7205 39.7589 12.6038 39.963 10.9307C40.1671 9.25464 39.6575 4.83706 39.6575 2.70459C39.6575 2.65469 39.6487 2.61653 39.6473 2.57544C37.9659 3.33714 36.1583 4.21332 36.0012 4.53033C35.6957 5.14086 34.3756 4.42906 33.5592 5.14086C32.7457 5.8512 32.2405 5.2436 31.5298 5.04253C30.8206 4.83706 30.5107 5.75286 30.4094 6.36046C30.3095 6.96953 28.8866 6.6628 28.3756 6.56153C27.8676 6.4632 26.242 6.96953 25.427 6.96953C24.6135 6.96953 25.2259 6.2592 24.311 5.9554C23.3962 5.6516 22.7868 6.36046 22.2758 6.36046C21.9689 6.36046 21.0203 6.25039 20.3272 6.15793C20.314 6.62904 20.2611 7.04438 20.1422 7.35112C19.4828 9.07265 21.5151 12.9677 21.6165 14.6159C22.3698 15.2661 23.2391 16.0586 23.7016 16.6207C24.6135 17.739 23.7016 17.6363 23.8 20.0755C23.9028 22.5103 22.7868 21.4976 21.8705 22.3078C20.9571 23.1194 21.7677 24.9495 21.568 25.4588C21.3624 25.9666 18.6179 21.8998 18.4153 21.2907C18.2127 20.6816 19.4344 18.2424 19.1275 16.8247C18.8221 15.4025 16.9939 16.3139 16.3845 16.4152C15.7751 16.5179 14.3492 14.792 14.0438 14.792C13.7398 14.792 4.49316 18.2439 4.49316 18.2439L5.20095 20.7873L4.9983 20.7902L5.50491 21.9012C5.50491 21.9012 8.55483 22.0553 9.92781 22.9697C11.2978 23.8855 13.4344 24.0352 13.8911 24.3448C14.3492 24.6472 13.8911 28.0007 14.0438 29.6767C14.198 31.3528 12.2156 31.8092 13.129 32.7235C14.0438 33.6379 13.5857 35.1628 14.1995 35.3125C14.8074 35.4651 13.129 37.4449 12.3654 37.9043C11.6062 38.3622 12.3654 40.0397 11.452 41.2549C10.8676 42.0371 9.15835 43.5664 7.96452 44.7244C8.02326 44.7581 8.07465 44.7919 8.09962 44.8344C8.40505 45.3687 9.31841 50.702 10.2318 51.2363C11.1495 51.769 10.615 57.0261 10.5387 57.484C10.4608 57.9419 10.9219 61.4451 10.9219 61.4451C10.9219 61.4451 12.2817 61.2323 13.4799 61.2499C13.5636 60.5557 13.615 59.9525 13.64 59.5401C13.7398 57.9184 12.6224 59.2349 12.2655 58.2222C11.9102 57.2066 14.756 55.3266 17.6532 54.2596C20.5504 53.1941 21.6664 52.5836 21.9718 51.565C22.2758 50.5538 21.9219 47.7095 22.3287 46.5853C22.7325 45.4714 22.0732 44.811 21.7193 42.272C21.3624 39.7315 20.4447 39.325 20.0409 37.9028C19.6326 36.4807 19.7354 35.3668 20.5989 35.311C21.4623 35.2626 21.4623 34.8545 22.1745 33.4838C22.8867 32.1101 23.7002 32.6722 25.0731 31.6536C26.4447 30.6395 26.4931 29.3685 28.6796 27.694C30.8617 26.0179 33.2523 26.0708 35.3859 24.7983C37.5254 23.5259 41.1818 18.5492 40.8264 17.6363Z" stroke="#868686" stroke-width="0.25"/>
</g>
<defs>
<filter id="filter0_d_6252_1345" x="0.341797" y="0.384644" width="44.6338" height="67.2037" filterUnits="userSpaceOnUse" color-interpolation-filters="sRGB">
<feFlood flood-opacity="0" result="BackgroundImageFix"/>
<feColorMatrix in="SourceAlpha" type="matrix" values="0 0 0 0 0 0 0 0 0 0 0 0 0 0 0 0 0 0 127 0" result="hardAlpha"/>
<feOffset dy="2"/>
<feGaussianBlur stdDeviation="2"/>
<feColorMatrix type="matrix" values="0 0 0 0 0 0 0 0 0 0 0 0 0 0 0 0 0 0 0.01 0"/>
<feBlend mode="normal" in2="BackgroundImageFix" result="effect1_dropShadow_6252_1345"/>
<feBlend mode="normal" in="SourceGraphic" in2="effect1_dropShadow_6252_1345" result="shape"/>
</filter>
</defs>
</svg>
