<svg width="53" height="53" viewBox="0 0 53 53" fill="none" xmlns="http://www.w3.org/2000/svg">
<g filter="url(#filter0_d_6252_1033)">
<path fill-rule="evenodd" clip-rule="evenodd" d="M20.7708 44.3096C20.7708 43.5978 21.994 42.2798 22.7018 43.2954C23.414 44.3096 23.1086 45.7332 24.5315 45.7332C25.9514 45.7332 28.4933 46.2395 28.903 45.6319C29.3053 45.0199 31.1364 44.5121 31.1364 43.3967C31.1364 42.2813 31.1364 21.5554 31.1364 20.7438C31.1364 19.9307 34.5931 20.7438 34.5931 19.4215C34.5931 18.1006 34.5931 7.63784 34.5931 7.63784C34.5931 7.63784 37.132 7.43824 37.8442 7.23424C38.5564 7.03171 41.0982 5.70937 41.7091 6.11737C42.3185 6.5195 43.1291 7.94604 43.5358 7.43531C43.9411 6.92751 44.9602 5.91044 45.9763 5.91044C46.5299 5.91044 47.4389 5.67268 48.2862 5.46868C48.1173 5.17075 48.0101 4.89043 48.0101 4.67616C48.0101 3.81612 41.8236 4.84787 40.7913 5.19276C39.759 5.53766 36.4962 6.05133 35.4639 5.53619C34.4331 5.02105 27.903 5.53619 27.903 5.53619L26.6989 4.33273C26.6989 4.33273 16.041 4.33273 14.8399 4.33273C13.6372 4.33273 12.7753 4.16249 11.7459 3.47857C10.7121 2.78731 9.68422 2.78731 8.47864 3.30099C7.27747 3.81759 7.79289 2.6156 6.93386 2.6156C6.07336 2.6156 5.72975 3.47857 5.72975 3.47857L4.6578 3.75889C4.54473 4.80384 5.47131 6.73378 6.59319 8.24984C7.76205 9.82461 9.18349 12.7687 9.94707 15.2578C10.7092 17.7469 12.8971 20.5398 13.4522 22.4213C14.0146 24.2984 13.0484 26.993 13.6049 28.2111C14.1659 29.4293 14.5183 31.5104 14.8266 33.5944C15.1306 35.677 15.2833 40.0945 17.1629 41.9232C17.8766 42.6189 18.6152 43.586 19.298 44.6662C20.1335 44.7469 20.7708 44.8467 20.7708 44.3096Z" fill="white"/>
<path fill-rule="evenodd" clip-rule="evenodd" d="M20.7708 44.3096C20.7708 43.5978 21.994 42.2798 22.7018 43.2954C23.414 44.3096 23.1086 45.7332 24.5315 45.7332C25.9514 45.7332 28.4933 46.2395 28.903 45.6319C29.3053 45.0199 31.1364 44.5121 31.1364 43.3967C31.1364 42.2813 31.1364 21.5554 31.1364 20.7438C31.1364 19.9307 34.5931 20.7438 34.5931 19.4215C34.5931 18.1006 34.5931 7.63784 34.5931 7.63784C34.5931 7.63784 37.132 7.43824 37.8442 7.23424C38.5564 7.03171 41.0982 5.70937 41.7091 6.11737C42.3185 6.5195 43.1291 7.94604 43.5358 7.43531C43.9411 6.92751 44.9602 5.91044 45.9763 5.91044C46.5299 5.91044 47.4389 5.67268 48.2862 5.46868C48.1173 5.17075 48.0101 4.89043 48.0101 4.67616C48.0101 3.81612 41.8236 4.84787 40.7913 5.19276C39.759 5.53766 36.4962 6.05133 35.4639 5.53619C34.4331 5.02105 27.903 5.53619 27.903 5.53619L26.6989 4.33273C26.6989 4.33273 16.041 4.33273 14.8399 4.33273C13.6372 4.33273 12.7753 4.16249 11.7459 3.47857C10.7121 2.78731 9.68422 2.78731 8.47864 3.30099C7.27747 3.81759 7.79289 2.6156 6.93386 2.6156C6.07336 2.6156 5.72975 3.47857 5.72975 3.47857L4.6578 3.75889C4.54473 4.80384 5.47131 6.73378 6.59319 8.24984C7.76205 9.82461 9.18349 12.7687 9.94707 15.2578C10.7092 17.7469 12.8971 20.5398 13.4522 22.4213C14.0146 24.2984 13.0484 26.993 13.6049 28.2111C14.1659 29.4293 14.5183 31.5104 14.8266 33.5944C15.1306 35.677 15.2833 40.0945 17.1629 41.9232C17.8766 42.6189 18.6152 43.586 19.298 44.6662C20.1335 44.7469 20.7708 44.8467 20.7708 44.3096Z" stroke="#868686" stroke-width="0.25"/>
</g>
<defs>
<filter id="filter0_d_6252_1033" x="0.523438" y="0.490601" width="51.9531" height="51.5653" filterUnits="userSpaceOnUse" color-interpolation-filters="sRGB">
<feFlood flood-opacity="0" result="BackgroundImageFix"/>
<feColorMatrix in="SourceAlpha" type="matrix" values="0 0 0 0 0 0 0 0 0 0 0 0 0 0 0 0 0 0 127 0" result="hardAlpha"/>
<feOffset dy="2"/>
<feGaussianBlur stdDeviation="2"/>
<feColorMatrix type="matrix" values="0 0 0 0 0 0 0 0 0 0 0 0 0 0 0 0 0 0 0.01 0"/>
<feBlend mode="normal" in2="BackgroundImageFix" result="effect1_dropShadow_6252_1033"/>
<feBlend mode="normal" in="SourceGraphic" in2="effect1_dropShadow_6252_1033" result="shape"/>
</filter>
</defs>
</svg>
