<svg width="50" height="43" viewBox="0 0 50 43" fill="none" xmlns="http://www.w3.org/2000/svg">
<g filter="url(#filter0_d_6252_1053)">
<path fill-rule="evenodd" clip-rule="evenodd" d="M29.9185 27.1601C30.3282 27.0559 31.2386 27.3612 31.9508 26.8549C32.663 26.3485 34.1887 27.5652 34.3913 28.5808C34.5954 29.5979 35.2048 28.1728 35.8157 27.0559C36.4251 25.9361 38.3546 22.587 38.3546 21.7739C38.3546 20.9594 39.9831 20.249 39.9831 19.7412C39.9831 19.2349 39.8803 18.1166 40.3899 17.914C40.8965 17.71 41.3032 16.1881 41.2019 15.6788C41.0991 15.1696 42.9288 12.3268 43.2327 11.9188C43.5396 11.5122 45.1652 11.7192 45.268 10.8004C45.3678 9.8905 45.6718 8.87196 45.0624 8.66796C44.4515 8.46396 43.6409 7.75509 43.6409 7.24729C43.6409 6.95817 43.6777 6.12455 43.8539 5.39367C43.0389 5.28066 42.9948 4.46613 42.5205 3.99502C42.0154 3.48721 42.0154 3.08068 41.3047 3.28468C40.5925 3.48868 39.7805 5.21315 38.8642 5.51695C37.9508 5.82515 36.6292 5.10895 36.0184 4.80662C35.409 4.50282 32.5631 4.80662 31.6469 4.70682C30.7335 4.60702 29.8187 5.92495 29.1079 6.33295C28.3972 6.73949 26.3635 6.53696 25.7555 6.33295C25.1432 6.12749 23.7218 4.91082 23.1124 4.91082C22.5 4.91082 21.2812 5.10895 20.2666 5.72242C19.2489 6.33295 18.9435 4.60555 18.3356 3.89522C17.7247 3.18488 16.4017 3.79248 15.5911 3.08068C14.7761 2.37035 14.2666 3.89522 13.5559 3.79101C12.8437 3.69268 11.0169 3.28321 10.4061 3.79101C9.79668 4.30322 9.89654 6.23169 9.59404 6.53549C9.28861 6.84076 8.06835 8.25996 8.06835 8.97323C8.06835 9.30198 7.94647 9.53093 7.74236 9.65421C7.87598 10.4966 8.04926 11.5753 8.09184 11.9657C8.1682 12.657 8.47363 16.0824 7.71152 16.8441C6.94647 17.6044 6.4149 18.8269 6.4149 18.8269C6.4149 18.8269 5.19464 19.6649 4.96556 21.3395C4.73649 23.0155 5.04192 24.0825 5.04192 25.3784C5.04192 26.2913 5.72033 26.9532 6.09625 28.0891C6.11094 28.1024 6.12562 28.1053 6.1359 28.1214C6.7453 28.9374 9.64103 29.0857 11.268 29.4423C12.8951 29.7989 14.572 32.0811 14.5206 32.9485C14.4692 33.8114 15.5896 35.4875 16.3517 35.8911C17.1124 36.2991 18.9934 35.1294 19.8569 35.1294C20.7218 35.1294 23.8216 35.1807 24.431 34.6216C24.6087 34.4587 24.7908 34.4777 24.9817 34.5937C25.7144 32.6373 25.9817 30.9099 25.9817 30.9099C25.9817 30.9099 29.5118 27.2614 29.9185 27.1601Z" fill="white"/>
<path fill-rule="evenodd" clip-rule="evenodd" d="M29.9185 27.1601C30.3282 27.0559 31.2386 27.3612 31.9508 26.8549C32.663 26.3485 34.1887 27.5652 34.3913 28.5808C34.5954 29.5979 35.2048 28.1728 35.8157 27.0559C36.4251 25.9361 38.3546 22.587 38.3546 21.7739C38.3546 20.9594 39.9831 20.249 39.9831 19.7412C39.9831 19.2349 39.8803 18.1166 40.3899 17.914C40.8965 17.71 41.3032 16.1881 41.2019 15.6788C41.0991 15.1696 42.9288 12.3268 43.2327 11.9188C43.5396 11.5122 45.1652 11.7192 45.268 10.8004C45.3678 9.8905 45.6718 8.87196 45.0624 8.66796C44.4515 8.46396 43.6409 7.75509 43.6409 7.24729C43.6409 6.95817 43.6777 6.12455 43.8539 5.39367C43.0389 5.28066 42.9948 4.46613 42.5205 3.99502C42.0154 3.48721 42.0154 3.08068 41.3047 3.28468C40.5925 3.48868 39.7805 5.21315 38.8642 5.51695C37.9508 5.82515 36.6292 5.10895 36.0184 4.80662C35.409 4.50282 32.5631 4.80662 31.6469 4.70682C30.7335 4.60702 29.8187 5.92495 29.1079 6.33295C28.3972 6.73949 26.3635 6.53696 25.7555 6.33295C25.1432 6.12749 23.7218 4.91082 23.1124 4.91082C22.5 4.91082 21.2812 5.10895 20.2666 5.72242C19.2489 6.33295 18.9435 4.60555 18.3356 3.89522C17.7247 3.18488 16.4017 3.79248 15.5911 3.08068C14.7761 2.37035 14.2666 3.89522 13.5559 3.79101C12.8437 3.69268 11.0169 3.28321 10.4061 3.79101C9.79668 4.30322 9.89654 6.23169 9.59404 6.53549C9.28861 6.84076 8.06835 8.25996 8.06835 8.97323C8.06835 9.30198 7.94647 9.53093 7.74236 9.65421C7.87598 10.4966 8.04926 11.5753 8.09184 11.9657C8.1682 12.657 8.47363 16.0824 7.71152 16.8441C6.94647 17.6044 6.4149 18.8269 6.4149 18.8269C6.4149 18.8269 5.19464 19.6649 4.96556 21.3395C4.73649 23.0155 5.04192 24.0825 5.04192 25.3784C5.04192 26.2913 5.72033 26.9532 6.09625 28.0891C6.11094 28.1024 6.12562 28.1053 6.1359 28.1214C6.7453 28.9374 9.64103 29.0857 11.268 29.4423C12.8951 29.7989 14.572 32.0811 14.5206 32.9485C14.4692 33.8114 15.5896 35.4875 16.3517 35.8911C17.1124 36.2991 18.9934 35.1294 19.8569 35.1294C20.7218 35.1294 23.8216 35.1807 24.431 34.6216C24.6087 34.4587 24.7908 34.4777 24.9817 34.5937C25.7144 32.6373 25.9817 30.9099 25.9817 30.9099C25.9817 30.9099 29.5118 27.2614 29.9185 27.1601Z" stroke="#868686" stroke-width="0.25"/>
</g>
<defs>
<filter id="filter0_d_6252_1053" x="0.755371" y="0.766357" width="48.8022" height="41.3361" filterUnits="userSpaceOnUse" color-interpolation-filters="sRGB">
<feFlood flood-opacity="0" result="BackgroundImageFix"/>
<feColorMatrix in="SourceAlpha" type="matrix" values="0 0 0 0 0 0 0 0 0 0 0 0 0 0 0 0 0 0 127 0" result="hardAlpha"/>
<feOffset dy="2"/>
<feGaussianBlur stdDeviation="2"/>
<feColorMatrix type="matrix" values="0 0 0 0 0 0 0 0 0 0 0 0 0 0 0 0 0 0 0.01 0"/>
<feBlend mode="normal" in2="BackgroundImageFix" result="effect1_dropShadow_6252_1053"/>
<feBlend mode="normal" in="SourceGraphic" in2="effect1_dropShadow_6252_1053" result="shape"/>
</filter>
</defs>
</svg>
