<svg width="23" height="24" viewBox="0 0 23 24" fill="none" xmlns="http://www.w3.org/2000/svg">
<g filter="url(#filter0_d_6252_1142)">
<path fill-rule="evenodd" clip-rule="evenodd" d="M11.9942 17.021C12.7504 17.3982 14.6403 17.021 15.3965 17.5861C15.7636 17.8635 16.3833 17.8693 17.0984 17.7754C16.8781 17.4555 16.7078 17.1986 16.6241 17.0372C16.0911 16.0509 17.0044 14.0682 17.4626 12.6196C17.9192 11.1711 17.0808 7.67075 17.9192 6.75495C18.7577 5.83915 18.2996 5.3064 18.6828 3.17393C18.7063 3.03303 18.6887 2.94057 18.6902 2.82903C16.975 2.76446 15.2218 4.38032 14.674 4.44049C14.0118 4.51388 11.6579 3.92682 11.3627 5.17578C11.0676 6.4262 9.59768 6.64635 7.60943 6.79311C5.62265 6.94134 6.65349 8.63352 6.50665 8.92705C6.3598 9.22204 5.47581 9.88394 5.47581 9.88394L4.20269 10.1789C4.14248 10.6574 4.11018 11.127 4.73279 11.4793C5.95305 12.1632 7.62999 14.8328 8.92367 15.5182C9.54776 15.8469 9.93395 16.3856 10.0999 16.9095C10.8458 16.8508 11.6036 16.8229 11.9942 17.021Z" fill="white"/>
<path fill-rule="evenodd" clip-rule="evenodd" d="M11.9942 17.021C12.7504 17.3982 14.6403 17.021 15.3965 17.5861C15.7636 17.8635 16.3833 17.8693 17.0984 17.7754C16.8781 17.4555 16.7078 17.1986 16.6241 17.0372C16.0911 16.0509 17.0044 14.0682 17.4626 12.6196C17.9192 11.1711 17.0808 7.67075 17.9192 6.75495C18.7577 5.83915 18.2996 5.3064 18.6828 3.17393C18.7063 3.03303 18.6887 2.94057 18.6902 2.82903C16.975 2.76446 15.2218 4.38032 14.674 4.44049C14.0118 4.51388 11.6579 3.92682 11.3627 5.17578C11.0676 6.4262 9.59768 6.64635 7.60943 6.79311C5.62265 6.94134 6.65349 8.63352 6.50665 8.92705C6.3598 9.22204 5.47581 9.88394 5.47581 9.88394L4.20269 10.1789C4.14248 10.6574 4.11018 11.127 4.73279 11.4793C5.95305 12.1632 7.62999 14.8328 8.92367 15.5182C9.54776 15.8469 9.93395 16.3856 10.0999 16.9095C10.8458 16.8508 11.6036 16.8229 11.9942 17.021Z" stroke="#868686" stroke-width="0.25"/>
</g>
<defs>
<filter id="filter0_d_6252_1142" x="0.0473633" y="0.702148" width="22.7725" height="23.2529" filterUnits="userSpaceOnUse" color-interpolation-filters="sRGB">
<feFlood flood-opacity="0" result="BackgroundImageFix"/>
<feColorMatrix in="SourceAlpha" type="matrix" values="0 0 0 0 0 0 0 0 0 0 0 0 0 0 0 0 0 0 127 0" result="hardAlpha"/>
<feOffset dy="2"/>
<feGaussianBlur stdDeviation="2"/>
<feColorMatrix type="matrix" values="0 0 0 0 0 0 0 0 0 0 0 0 0 0 0 0 0 0 0.01 0"/>
<feBlend mode="normal" in2="BackgroundImageFix" result="effect1_dropShadow_6252_1142"/>
<feBlend mode="normal" in="SourceGraphic" in2="effect1_dropShadow_6252_1142" result="shape"/>
</filter>
</defs>
</svg>
