<svg width="23" height="22" viewBox="0 0 23 22" fill="none" xmlns="http://www.w3.org/2000/svg">
<g filter="url(#filter0_d_6252_1108)">
<path fill-rule="evenodd" clip-rule="evenodd" d="M8.84689 12.1419C9.4695 11.5211 10.5576 11.8293 11.1787 12.4516C11.8014 13.0738 12.7323 13.2265 13.6648 14.157C13.9041 14.3976 14.1626 14.6163 14.4137 14.8086C14.5018 14.154 14.5194 12.8493 14.8087 12.1756C15.1127 11.4668 14.5018 10.551 15.0128 10.551C15.5194 10.551 16.9423 10.551 16.9423 9.63664C16.9423 8.72377 17.3505 9.02758 17.6545 8.51831C17.9599 8.01051 16.7411 6.99344 16.5341 6.68817C16.3344 6.38584 17.4489 6.2831 18.2654 5.0679C18.5591 4.62321 18.4357 3.71768 18.1626 2.73877C18.029 3.09834 17.7558 3.35958 17.2977 3.08366C16.5341 2.62576 15.3696 2.88113 13.8425 3.18493C12.3182 3.4902 11.8601 4.96223 12.4166 5.57277C12.9761 6.1833 10.9453 6.4871 10.794 5.6755C10.6398 4.85803 9.11708 5.42013 9.21546 6.4871C9.31825 7.55407 7.53705 7.96061 7.63984 9.27854C7.74557 10.6009 6.01577 11.8175 4.89683 12.4794C4.72061 12.5836 4.54147 12.6908 4.35645 12.7965C4.92032 13.0533 5.36966 13.2265 5.58405 13.2265C6.51944 13.2265 8.22721 12.7642 8.84689 12.1419Z" fill="white"/>
<path fill-rule="evenodd" clip-rule="evenodd" d="M8.84689 12.1419C9.4695 11.5211 10.5576 11.8293 11.1787 12.4516C11.8014 13.0738 12.7323 13.2265 13.6648 14.157C13.9041 14.3976 14.1626 14.6163 14.4137 14.8086C14.5018 14.154 14.5194 12.8493 14.8087 12.1756C15.1127 11.4668 14.5018 10.551 15.0128 10.551C15.5194 10.551 16.9423 10.551 16.9423 9.63664C16.9423 8.72377 17.3505 9.02758 17.6545 8.51831C17.9599 8.01051 16.7411 6.99344 16.5341 6.68817C16.3344 6.38584 17.4489 6.2831 18.2654 5.0679C18.5591 4.62321 18.4357 3.71768 18.1626 2.73877C18.029 3.09834 17.7558 3.35958 17.2977 3.08366C16.5341 2.62576 15.3696 2.88113 13.8425 3.18493C12.3182 3.4902 11.8601 4.96223 12.4166 5.57277C12.9761 6.1833 10.9453 6.4871 10.794 5.6755C10.6398 4.85803 9.11708 5.42013 9.21546 6.4871C9.31825 7.55407 7.53705 7.96061 7.63984 9.27854C7.74557 10.6009 6.01577 11.8175 4.89683 12.4794C4.72061 12.5836 4.54147 12.6908 4.35645 12.7965C4.92032 13.0533 5.36966 13.2265 5.58405 13.2265C6.51944 13.2265 8.22721 12.7642 8.84689 12.1419Z" stroke="#868686" stroke-width="0.25"/>
</g>
<defs>
<filter id="filter0_d_6252_1108" x="0.0825195" y="0.334351" width="22.4771" height="20.7045" filterUnits="userSpaceOnUse" color-interpolation-filters="sRGB">
<feFlood flood-opacity="0" result="BackgroundImageFix"/>
<feColorMatrix in="SourceAlpha" type="matrix" values="0 0 0 0 0 0 0 0 0 0 0 0 0 0 0 0 0 0 127 0" result="hardAlpha"/>
<feOffset dy="2"/>
<feGaussianBlur stdDeviation="2"/>
<feColorMatrix type="matrix" values="0 0 0 0 0 0 0 0 0 0 0 0 0 0 0 0 0 0 0.01 0"/>
<feBlend mode="normal" in2="BackgroundImageFix" result="effect1_dropShadow_6252_1108"/>
<feBlend mode="normal" in="SourceGraphic" in2="effect1_dropShadow_6252_1108" result="shape"/>
</filter>
</defs>
</svg>
