<svg width="35" height="24" viewBox="0 0 35 24" fill="none" xmlns="http://www.w3.org/2000/svg">
<g filter="url(#filter0_d_6252_1092)">
<path fill-rule="evenodd" clip-rule="evenodd" d="M30.5685 11.7133C30.335 11.6942 30.0781 11.6868 29.7814 11.6942C27.7976 11.772 26.5788 10.7798 25.2822 10.8591C23.987 10.9325 20.2543 9.4854 18.6508 8.19241C17.0517 6.89649 12.7051 4.15349 11.639 3.08652C10.573 2.01955 9.04874 2.01955 8.89455 2.55377C8.75505 3.04396 7.97238 3.08505 6.78589 3.2054C6.4834 3.73521 5.22496 4.44995 5.22496 5.16762C5.22496 5.98362 4.68164 7.0682 4.68164 7.74625C4.68164 8.42576 6.03847 8.55785 6.44522 9.10088C6.85197 9.64243 9.02377 9.91541 9.16034 10.4584C9.29543 11 10.7874 11.6795 11.7404 11.8175C12.689 11.951 14.0473 13.0356 14.5906 13.4421C15.131 13.8487 17.1677 12.9006 17.8475 12.9006C18.526 12.9006 19.6126 14.1187 19.7477 14.7968C19.8842 15.4763 23.4099 15.8828 24.2278 16.5623C25.0414 17.2418 29.385 16.8338 30.1985 16.0193C31.012 15.2048 30.335 13.7122 30.335 12.494C30.3336 12.0875 30.4275 11.8674 30.5685 11.7133Z" fill="white"/>
<path fill-rule="evenodd" clip-rule="evenodd" d="M30.5685 11.7133C30.335 11.6942 30.0781 11.6868 29.7814 11.6942C27.7976 11.772 26.5788 10.7798 25.2822 10.8591C23.987 10.9325 20.2543 9.4854 18.6508 8.19241C17.0517 6.89649 12.7051 4.15349 11.639 3.08652C10.573 2.01955 9.04874 2.01955 8.89455 2.55377C8.75505 3.04396 7.97238 3.08505 6.78589 3.2054C6.4834 3.73521 5.22496 4.44995 5.22496 5.16762C5.22496 5.98362 4.68164 7.0682 4.68164 7.74625C4.68164 8.42576 6.03847 8.55785 6.44522 9.10088C6.85197 9.64243 9.02377 9.91541 9.16034 10.4584C9.29543 11 10.7874 11.6795 11.7404 11.8175C12.689 11.951 14.0473 13.0356 14.5906 13.4421C15.131 13.8487 17.1677 12.9006 17.8475 12.9006C18.526 12.9006 19.6126 14.1187 19.7477 14.7968C19.8842 15.4763 23.4099 15.8828 24.2278 16.5623C25.0414 17.2418 29.385 16.8338 30.1985 16.0193C31.012 15.2048 30.335 13.7122 30.335 12.494C30.3336 12.0875 30.4275 11.8674 30.5685 11.7133Z" stroke="#868686" stroke-width="0.25"/>
</g>
<defs>
<filter id="filter0_d_6252_1092" x="0.556641" y="0.0777588" width="34.2764" height="22.9526" filterUnits="userSpaceOnUse" color-interpolation-filters="sRGB">
<feFlood flood-opacity="0" result="BackgroundImageFix"/>
<feColorMatrix in="SourceAlpha" type="matrix" values="0 0 0 0 0 0 0 0 0 0 0 0 0 0 0 0 0 0 127 0" result="hardAlpha"/>
<feOffset dy="2"/>
<feGaussianBlur stdDeviation="2"/>
<feColorMatrix type="matrix" values="0 0 0 0 0 0 0 0 0 0 0 0 0 0 0 0 0 0 0.01 0"/>
<feBlend mode="normal" in2="BackgroundImageFix" result="effect1_dropShadow_6252_1092"/>
<feBlend mode="normal" in="SourceGraphic" in2="effect1_dropShadow_6252_1092" result="shape"/>
</filter>
</defs>
</svg>
