<svg width="51" height="61" viewBox="0 0 51 61" fill="none" xmlns="http://www.w3.org/2000/svg">
<g filter="url(#filter0_d_6252_1303)">
<path fill-rule="evenodd" clip-rule="evenodd" d="M30.4834 27.7436C29.4158 26.9819 28.8828 28.0503 27.7404 28.5816C26.5965 29.1144 25.8344 26.069 24.3865 27.2123C22.9386 28.3541 24.2338 28.8106 22.6332 30.1828C21.0311 31.5551 21.7198 32.0071 19.8123 34.982C17.9063 37.951 11.3498 39.6285 10.3616 41.2312C9.37037 42.8309 6.09285 44.1239 6.01355 45.342C5.93866 46.5645 3.94014 47.4348 5.09872 49.0771C6.01355 50.373 7.23234 49.4587 8.22647 50.4494C9.21619 51.4415 10.2074 50.602 10.6655 51.4415C11.1237 52.278 14.4746 52.278 16.993 49.9929C19.5084 47.7063 18.2896 46.6423 19.2793 46.0318C20.2705 45.4212 20.4217 43.5955 21.0311 42.4522C21.6405 41.3104 22.1002 40.0879 24.8446 40.0879C27.5906 40.0879 26.1413 39.5595 25.9885 38.2651C25.8358 36.9691 28.2749 36.7373 28.2749 35.0627C28.2749 33.3867 31.6302 31.8618 30.9415 30.5673C30.2558 29.2699 31.5495 28.5097 30.4834 27.7436ZM8.45369 54.032C8.98672 54.1817 10.74 53.7253 9.75031 52.5101C8.75765 51.2876 7.19378 53.6695 8.45369 54.032ZM42.9118 15.4799C42.2231 16.6203 40.8516 15.1747 39.5565 15.1747C38.2599 15.1747 37.4963 14.2618 37.4963 13.117C37.4963 11.9781 37.1923 10.2962 35.975 10.3755C34.7533 10.4518 36.3553 11.6685 35.8972 12.2805C35.4375 12.891 35.1336 11.5922 34.5242 11.5922C33.9163 11.5922 33.2276 10.7556 33.2276 9.23221C33.2276 7.7088 31.9324 7.86144 31.9324 6.11055C31.9324 4.35673 29.1879 2.98596 27.6622 2.98596C26.1395 2.98596 27.9677 5.72897 28.7298 6.6433C29.4934 7.55764 31.1703 8.39419 31.0939 9.07811C31.0161 9.76789 32.2378 11.5188 33.1512 11.8226C34.066 12.1293 32.6167 14.7931 32.6167 16.927C32.6167 19.0609 30.9398 18.6808 29.7988 20.0531C28.6564 21.4209 32.696 22.7931 34.3715 24.1639C36.0499 25.5376 32.9339 28.9073 33.3817 29.6514C33.6079 30.033 34.7518 30.5672 36.5051 30.1107C38.2584 29.6514 39.0969 25.8414 40.3201 24.7759C41.5359 23.7075 40.7738 22.0329 41.3861 21.1949C41.9955 20.3583 42.8311 20.4346 43.671 20.4346C44.5109 20.4346 44.0528 18.3756 45.1203 18.3756C46.1879 18.3756 45.6534 16.9285 46.2642 15.3288C46.8722 13.729 43.5961 14.3352 42.9118 15.4799Z" fill="white"/>
<path d="M30.4834 27.7436L30.5563 27.6421L30.556 27.6419L30.4834 27.7436ZM27.7404 28.5816L27.6877 28.4683L27.6876 28.4683L27.7404 28.5816ZM24.3865 27.2123L24.4639 27.3105L24.464 27.3104L24.3865 27.2123ZM22.6332 30.1828L22.7145 30.2778L22.7145 30.2777L22.6332 30.1828ZM19.8123 34.982L19.9175 35.0495L19.9176 35.0494L19.8123 34.982ZM10.3616 41.2312L10.4678 41.297L10.468 41.2968L10.3616 41.2312ZM6.01355 45.342L5.88881 45.3339L5.88879 45.3344L6.01355 45.342ZM5.09872 49.0771L4.99658 49.1492L4.9966 49.1492L5.09872 49.0771ZM8.22647 50.4494L8.31496 50.3611L8.3147 50.3608L8.22647 50.4494ZM10.6655 51.4415L10.5558 51.5014L10.5559 51.5015L10.6655 51.4415ZM16.993 49.9929L17.077 50.0855L17.077 50.0854L16.993 49.9929ZM19.2793 46.0318L19.2137 45.9254L19.2137 45.9254L19.2793 46.0318ZM21.0311 42.4522L20.9209 42.3934L20.9208 42.3934L21.0311 42.4522ZM25.9885 38.2651L25.8644 38.2797L25.8644 38.2797L25.9885 38.2651ZM30.9415 30.5673L30.831 30.6257L30.8312 30.626L30.9415 30.5673ZM8.45369 54.032L8.41912 54.1522L8.41989 54.1524L8.45369 54.032ZM9.75031 52.5101L9.65327 52.5889L9.65338 52.589L9.75031 52.5101ZM42.9118 15.4799L43.0188 15.5445L43.0191 15.5441L42.9118 15.4799ZM35.975 10.3755L35.9828 10.5002L35.9831 10.5002L35.975 10.3755ZM35.8972 12.2805L35.997 12.3557L35.9972 12.3554L35.8972 12.2805ZM28.7298 6.6433L28.6338 6.72334L28.6338 6.72343L28.7298 6.6433ZM31.0939 9.07811L31.2182 9.09212L31.2182 9.09198L31.0939 9.07811ZM33.1512 11.8226L33.1909 11.7041L33.1907 11.704L33.1512 11.8226ZM29.7988 20.0531L29.8947 20.1332L29.8949 20.133L29.7988 20.0531ZM34.3715 24.1639L34.4506 24.0672L34.4506 24.0672L34.3715 24.1639ZM33.3817 29.6514L33.4893 29.5877L33.4888 29.5869L33.3817 29.6514ZM36.5051 30.1107L36.5366 30.2317L36.5368 30.2317L36.5051 30.1107ZM40.3201 24.7759L40.4022 24.8702L40.4026 24.8698L40.3201 24.7759ZM41.3861 21.1949L41.4871 21.2686L41.4872 21.2685L41.3861 21.1949ZM46.2642 15.3288L46.381 15.3733L46.3811 15.3732L46.2642 15.3288ZM30.556 27.6419C30.2733 27.4402 30.0147 27.3519 29.7643 27.3535C29.5157 27.355 29.2912 27.4451 29.0771 27.5697C28.8655 27.6928 28.65 27.8587 28.428 28.0179C28.2024 28.1795 27.9625 28.3405 27.6877 28.4683L27.7931 28.695C28.0895 28.5571 28.3446 28.3853 28.5736 28.221C28.8063 28.0543 29.0049 27.901 29.2028 27.7858C29.3982 27.6721 29.5786 27.6047 29.7659 27.6035C29.9513 27.6023 30.1597 27.6662 30.4108 27.8454L30.556 27.6419ZM27.6876 28.4683C27.462 28.5734 27.2505 28.5117 27.0127 28.3319C26.7692 28.1479 26.5337 27.8668 26.2688 27.5828C26.0127 27.3081 25.7288 27.0307 25.4067 26.9027C25.2422 26.8373 25.066 26.81 24.8786 26.8415C24.692 26.8729 24.5027 26.9613 24.309 27.1142L24.464 27.3104C24.6322 27.1776 24.7835 27.111 24.9201 27.088C25.0561 27.0652 25.1859 27.084 25.3143 27.135C25.578 27.2398 25.8276 27.4762 26.086 27.7533C26.3357 28.0211 26.5956 28.33 26.862 28.5314C27.1341 28.7371 27.4468 28.8563 27.7931 28.6949L27.6876 28.4683ZM24.3091 27.1142C23.9368 27.4078 23.7317 27.6646 23.614 27.9114C23.497 28.1568 23.4714 28.3835 23.4432 28.5946C23.4149 28.8067 23.3834 29.0106 23.2669 29.2446C23.15 29.4792 22.9432 29.7524 22.5518 30.0879L22.7145 30.2777C23.1235 29.9271 23.3549 29.6286 23.4907 29.3561C23.6267 29.0829 23.6621 28.844 23.691 28.6277C23.7201 28.4105 23.7423 28.2232 23.8396 28.019C23.9363 27.8162 24.1123 27.5878 24.4639 27.3105L24.3091 27.1142ZM22.5519 30.0879C22.1453 30.4361 21.8796 30.7298 21.6812 31.0232C21.4831 31.3163 21.3555 31.6044 21.2215 31.9344C20.9552 32.5901 20.6541 33.4375 19.7071 34.9145L19.9176 35.0494C20.878 33.5515 21.1863 32.6855 21.4531 32.0284C21.5856 31.702 21.7054 31.4339 21.8884 31.1633C22.0711 30.893 22.3201 30.6156 22.7145 30.2778L22.5519 30.0879ZM19.7072 34.9144C19.2442 35.6356 18.4934 36.2857 17.6011 36.8816C16.71 37.4768 15.6869 38.012 14.6873 38.5069C13.691 39.0003 12.7135 39.4558 11.9271 39.8865C11.5332 40.1022 11.183 40.3139 10.8989 40.5237C10.6163 40.7325 10.391 40.9453 10.2552 41.1655L10.468 41.2968C10.5792 41.1163 10.775 40.9261 11.0475 40.7248C11.3186 40.5246 11.6577 40.3191 12.0472 40.1058C12.8276 39.6784 13.7937 39.2284 14.7983 38.731C15.7996 38.2351 16.8348 37.6941 17.74 37.0895C18.644 36.4858 19.4275 35.8128 19.9175 35.0495L19.7072 34.9144ZM10.2553 41.1653C10.0185 41.5475 9.64054 41.9178 9.19618 42.2802C8.75244 42.642 8.25184 42.9886 7.77332 43.3277C7.29774 43.6647 6.84231 43.9955 6.50086 44.3201C6.16398 44.6405 5.91195 44.9785 5.88882 45.3339L6.13829 45.3501C6.15481 45.0964 6.3422 44.816 6.67313 44.5013C6.9995 44.191 7.44026 43.8701 7.91787 43.5317C8.39255 43.1953 8.90213 42.8425 9.35417 42.4739C9.8056 42.1058 10.209 41.7146 10.4678 41.297L10.2553 41.1653ZM5.88879 45.3344C5.87205 45.6075 5.74724 45.8691 5.571 46.1427C5.4832 46.2791 5.38515 46.4147 5.28422 46.555C5.18405 46.6943 5.08126 46.8378 4.98795 46.9853C4.80163 47.2799 4.64564 47.6014 4.61773 47.963C4.58951 48.3284 4.69315 48.7191 4.99658 49.1492L5.20086 49.0051C4.925 48.614 4.84399 48.28 4.86698 47.9822C4.89028 47.6805 5.02137 47.4001 5.19922 47.119C5.28799 46.9787 5.38656 46.8409 5.48717 46.701C5.58703 46.5622 5.68919 46.4209 5.78118 46.2781C5.96452 45.9934 6.11761 45.6877 6.13832 45.3496L5.88879 45.3344ZM4.9966 49.1492C5.23799 49.4911 5.50352 49.6921 5.78387 49.8136C6.0611 49.9338 6.34673 49.9733 6.61976 50.002C7.1731 50.0603 7.67783 50.0791 8.13823 50.5379L8.3147 50.3608C7.78099 49.829 7.17926 49.8096 6.64596 49.7534C6.37567 49.7249 6.12294 49.6881 5.88328 49.5842C5.64675 49.4817 5.41687 49.3111 5.20084 49.005L4.9966 49.1492ZM8.13797 50.5376C8.66735 51.0683 9.20347 51.1081 9.63978 51.1275C9.86116 51.1374 10.0392 51.1423 10.1925 51.191C10.3357 51.2364 10.4572 51.3207 10.5558 51.5014L10.7752 51.3816C10.6448 51.1425 10.4706 51.0169 10.2681 50.9527C10.0758 50.8916 9.85829 50.887 9.65089 50.8778C9.22963 50.859 8.77531 50.8225 8.31496 50.3611L8.13797 50.5376ZM10.5559 51.5015C10.6986 51.7621 11.0434 51.9286 11.4693 52.0121C11.9043 52.0974 12.4597 52.1036 13.0752 52.0114C14.3068 51.8271 15.7977 51.2463 17.077 50.0855L16.909 49.9003C15.6699 51.0246 14.2261 51.5864 13.0382 51.7642C12.4439 51.8531 11.9182 51.8453 11.5174 51.7667C11.1074 51.6864 10.8615 51.5391 10.7752 51.3814L10.5559 51.5015ZM17.077 50.0854C18.3524 48.9261 18.6912 48.0658 18.8305 47.4098C18.8647 47.2489 18.8868 47.101 18.9076 46.9702C18.9288 46.8376 18.9486 46.7239 18.9783 46.6216C19.0352 46.4254 19.1277 46.2722 19.3449 46.1382L19.2137 45.9254C18.9361 46.0966 18.8097 46.3053 18.7382 46.5519C18.7037 46.6709 18.6818 46.7988 18.6608 46.9308C18.6394 47.0647 18.6185 47.2047 18.586 47.3579C18.4585 47.9582 18.1489 48.7732 16.9089 49.9004L17.077 50.0854ZM19.3449 46.1382C19.8819 45.8074 20.179 45.1573 20.4163 44.4833C20.5348 44.1467 20.6453 43.782 20.7581 43.448C20.8729 43.1082 20.994 42.7876 21.1414 42.511L20.9208 42.3934C20.7635 42.6885 20.6372 43.0249 20.5213 43.368C20.4034 43.7169 20.2999 44.0612 20.1805 44.4003C19.942 45.0775 19.6679 45.6456 19.2137 45.9254L19.3449 46.1382ZM21.1414 42.5111C21.4516 41.9299 21.7066 41.3665 22.2176 40.9376C22.7222 40.514 23.4911 40.2129 24.8446 40.2129V39.9629C23.4537 39.9629 22.6205 40.273 22.0569 40.7461C21.4996 41.2139 21.2201 41.8327 20.9209 42.3934L21.1414 42.5111ZM24.8446 40.2129C25.53 40.2129 25.9705 40.1804 26.2372 40.1054C26.3707 40.0678 26.4782 40.015 26.5481 39.9342C26.6233 39.8473 26.6405 39.7454 26.6275 39.6458C26.6154 39.5519 26.5759 39.4535 26.5309 39.3576C26.4865 39.2629 26.4267 39.1504 26.3724 39.0406C26.2599 38.8129 26.1483 38.5525 26.1127 38.2504L25.8644 38.2797C25.9051 38.6248 26.032 38.916 26.1483 39.1514C26.2085 39.2731 26.2607 39.3701 26.3046 39.4637C26.3478 39.5561 26.3727 39.6249 26.3796 39.678C26.3858 39.7254 26.3767 39.7502 26.359 39.7706C26.336 39.7973 26.2838 39.8326 26.1694 39.8648C25.9403 39.9293 25.5322 39.9629 24.8446 39.9629V40.2129ZM26.1127 38.2504C26.08 37.9729 26.1828 37.7498 26.3743 37.5371C26.5705 37.3192 26.8475 37.1253 27.1479 36.907C27.7323 36.4823 28.3999 35.9712 28.3999 35.0627H28.1499C28.1499 35.8287 27.5979 36.2709 27.001 36.7048C26.7107 36.9157 26.4066 37.1275 26.1885 37.3698C25.9656 37.6174 25.8207 37.9092 25.8644 38.2797L26.1127 38.2504ZM28.3999 35.0627C28.3999 34.6848 28.5897 34.3024 28.8878 33.911C29.1853 33.5204 29.5759 33.1392 29.9548 32.7603C30.3291 32.3862 30.6949 32.0117 30.9217 31.646C31.1496 31.2784 31.2546 30.8896 31.0519 30.5086L30.8312 30.626C30.9729 30.8923 30.9167 31.1796 30.7092 31.5143C30.5005 31.8509 30.1566 32.2051 29.7781 32.5835C29.4043 32.9572 28.9991 33.3523 28.6889 33.7595C28.3795 34.1658 28.1499 34.6026 28.1499 35.0627H28.3999ZM31.0521 30.5089C30.7336 29.9065 30.8714 29.4367 30.9768 28.9846C31.0286 28.7624 31.0761 28.5303 31.0309 28.3014C30.9841 28.064 30.8422 27.8475 30.5563 27.6421L30.4104 27.8451C30.6576 28.0227 30.7538 28.1886 30.7857 28.3498C30.8191 28.5194 30.786 28.7021 30.7333 28.9279C30.6299 29.3718 30.4637 29.9308 30.831 30.6257L31.0521 30.5089ZM8.41989 54.1524C8.57907 54.1971 8.80997 54.1936 9.04271 54.1512C9.27811 54.1084 9.53303 54.0227 9.74106 53.8878C9.94875 53.753 10.1226 53.5601 10.1637 53.3012C10.2048 53.0418 10.1072 52.7504 9.84723 52.4311L9.65338 52.589C9.88825 52.8774 9.94265 53.0988 9.91675 53.262C9.89077 53.4258 9.77855 53.5655 9.60501 53.678C9.43179 53.7904 9.2103 53.8667 8.99796 53.9053C8.78297 53.9444 8.59482 53.9418 8.48748 53.9117L8.41989 54.1524ZM9.84735 52.4313C9.57238 52.0927 9.24231 51.9911 8.92559 52.0589C8.61996 52.1244 8.34694 52.3428 8.15645 52.6028C7.9661 52.8626 7.84313 53.1842 7.86038 53.4767C7.86912 53.6249 7.91425 53.7684 8.00833 53.8892C8.10276 54.0105 8.24011 54.1006 8.41912 54.1521L8.48825 53.9119C8.35228 53.8728 8.26291 53.8092 8.20558 53.7356C8.14791 53.6616 8.11626 53.569 8.10995 53.462C8.0971 53.2441 8.19091 52.9787 8.35811 52.7505C8.52519 52.5225 8.75052 52.3521 8.97792 52.3034C9.19424 52.2571 9.43191 52.3163 9.65327 52.5889L9.84735 52.4313ZM42.8048 15.4153C42.6513 15.6695 42.47 15.7684 42.2666 15.7889C42.0514 15.8107 41.798 15.7462 41.505 15.6377C41.36 15.584 41.21 15.5214 41.0536 15.4565C40.8981 15.3919 40.7369 15.3252 40.5733 15.2653C40.247 15.1459 39.9022 15.0497 39.5565 15.0497V15.2997C39.8584 15.2997 40.1706 15.3841 40.4873 15.5001C40.6452 15.5579 40.8018 15.6226 40.9578 15.6874C41.1128 15.7517 41.2677 15.8164 41.4182 15.8721C41.716 15.9824 42.0156 16.0656 42.2917 16.0377C42.5796 16.0086 42.828 15.8605 43.0188 15.5445L42.8048 15.4153ZM39.5565 15.0497C38.939 15.0497 38.4579 14.8331 38.1307 14.489C37.8027 14.1439 37.6213 13.6617 37.6213 13.117H37.3713C37.3713 13.7171 37.5717 14.2637 37.9495 14.6612C38.3284 15.0598 38.8773 15.2997 39.5565 15.2997V15.0497ZM37.6213 13.117C37.6213 12.5401 37.5447 11.8163 37.3077 11.2418C37.1889 10.9539 37.0266 10.6955 36.8057 10.5137C36.5819 10.3296 36.3034 10.2288 35.9669 10.2508L35.9831 10.5002C36.2552 10.4825 36.4713 10.5623 36.6468 10.7068C36.8253 10.8537 36.9672 11.0721 37.0766 11.3371C37.2958 11.8685 37.3713 12.5551 37.3713 13.117H37.6213ZM35.9672 10.2507C35.8058 10.2608 35.6757 10.2903 35.5782 10.3453C35.4752 10.4034 35.412 10.4886 35.3896 10.5931C35.3688 10.6905 35.386 10.7926 35.4147 10.8869C35.4439 10.9825 35.4891 11.0831 35.5374 11.1819C35.6376 11.3871 35.749 11.584 35.8121 11.7747C35.8749 11.9643 35.8739 12.1029 35.7971 12.2056L35.9972 12.3554C36.1495 12.152 36.12 11.9091 36.0495 11.6961C35.9793 11.4841 35.8524 11.2574 35.7621 11.0723C35.7151 10.976 35.677 10.8899 35.6538 10.8139C35.6303 10.7366 35.6261 10.6824 35.6341 10.6455C35.6405 10.6156 35.6561 10.5884 35.7011 10.563C35.7516 10.5345 35.8387 10.5092 35.9828 10.5002L35.9672 10.2507ZM35.7973 12.2053C35.7472 12.2718 35.7081 12.3001 35.682 12.3113C35.6599 12.3208 35.6404 12.3212 35.6157 12.3125C35.5869 12.3024 35.5507 12.2796 35.5055 12.2385C35.4609 12.1979 35.414 12.1458 35.3624 12.0847C35.2633 11.9673 35.145 11.813 35.016 11.6938C34.8859 11.5734 34.7232 11.4672 34.5242 11.4672V11.7172C34.6299 11.7172 34.7337 11.7732 34.8463 11.8773C34.9601 11.9826 35.0607 12.1149 35.1713 12.2459C35.2245 12.309 35.2801 12.3715 35.3374 12.4235C35.3941 12.475 35.4593 12.5226 35.5332 12.5485C35.6111 12.5758 35.6955 12.5775 35.7804 12.5411C35.8612 12.5065 35.9322 12.4418 35.997 12.3557L35.7973 12.2053ZM34.5242 11.4672C34.2793 11.4672 33.9893 11.2962 33.7541 10.9175C33.5208 10.5419 33.3526 9.97608 33.3526 9.23221H33.1026C33.1026 10.0117 33.2787 10.6259 33.5417 11.0494C33.8028 11.4698 34.1612 11.7172 34.5242 11.7172V11.4672ZM33.3526 9.23221C33.3526 8.83183 33.267 8.53536 33.1354 8.28908C33.0059 8.04667 32.8333 7.85688 32.6742 7.67451C32.5128 7.48954 32.3611 7.30799 32.2477 7.06912C32.1351 6.83195 32.0574 6.53182 32.0574 6.11055H31.8074C31.8074 6.56473 31.8916 6.9021 32.0219 7.17635C32.1513 7.44891 32.3234 7.65271 32.4858 7.83886C32.6505 8.02762 32.8016 8.19474 32.9149 8.40688C33.0262 8.61516 33.1026 8.87089 33.1026 9.23221H33.3526ZM32.0574 6.11055C32.0574 5.16756 31.3239 4.35375 30.4369 3.78533C29.5452 3.2139 28.4546 2.86096 27.6622 2.86096V3.11096C28.3956 3.11096 29.44 3.44341 30.302 3.99582C31.1687 4.55123 31.8074 5.29972 31.8074 6.11055H32.0574ZM27.6622 2.86096C27.4546 2.86096 27.2847 2.90764 27.1607 3.0087C27.0348 3.11126 26.9733 3.25566 26.9552 3.41473C26.9203 3.72257 27.0434 4.12119 27.2253 4.52328C27.5934 5.33692 28.2483 6.26087 28.6338 6.72334L28.8258 6.56327C28.4492 6.1114 27.8089 5.20668 27.4531 4.42023C27.273 4.02228 27.1769 3.678 27.2037 3.44295C27.2164 3.33058 27.256 3.25354 27.3186 3.20252C27.3831 3.15 27.4892 3.11096 27.6622 3.11096V2.86096ZM28.6338 6.72343C29.026 7.19301 29.6531 7.6435 30.1482 8.04427C30.4003 8.24835 30.6183 8.43915 30.7684 8.61804C30.9214 8.80055 30.9829 8.94637 30.9697 9.06424L31.2182 9.09198C31.2432 8.86788 31.1237 8.65266 30.9599 8.4574C30.7931 8.25851 30.5585 8.05479 30.3055 7.84996C29.7903 7.43288 29.1971 7.00794 28.8257 6.56318L28.6338 6.72343ZM30.9697 9.06409C30.9464 9.27091 31.0199 9.53525 31.1398 9.80587C31.262 10.0815 31.4408 10.3822 31.6499 10.6688C31.859 10.9555 32.1006 11.2311 32.3499 11.4555C32.5976 11.6785 32.8601 11.8575 33.1118 11.9412L33.1907 11.704C32.9856 11.6358 32.7529 11.482 32.5171 11.2697C32.2829 11.0588 32.0526 10.7966 31.8519 10.5214C31.651 10.2461 31.482 9.96075 31.3684 9.70456C31.2526 9.44339 31.2026 9.23019 31.2182 9.09212L30.9697 9.06409ZM33.1115 11.9411C33.1904 11.9676 33.2423 12.0169 33.2769 12.0938C33.3139 12.1759 33.3321 12.2922 33.3287 12.4467C33.3218 12.7564 33.2303 13.1714 33.1059 13.6587C32.8605 14.6197 32.4917 15.8399 32.4917 16.927H32.7417C32.7417 15.8802 33.0976 14.7015 33.3481 13.7205C33.4717 13.2368 33.571 12.7949 33.5786 12.4522C33.5824 12.2805 33.5637 12.1217 33.5049 11.9911C33.4437 11.8553 33.3407 11.7543 33.1909 11.7041L33.1115 11.9411ZM32.4917 16.927C32.4917 17.4438 32.3903 17.796 32.2302 18.0575C32.0698 18.3194 31.8433 18.5023 31.5704 18.669C31.4336 18.7526 31.2875 18.8308 31.1329 18.9133C30.9793 18.9953 30.818 19.0814 30.6561 19.1786C30.3311 19.3737 29.9999 19.6157 29.7027 19.9731L29.8949 20.133C30.1682 19.8043 30.4744 19.5792 30.7848 19.393C30.9405 19.2995 31.0963 19.2163 31.2507 19.1338C31.4041 19.0519 31.5567 18.9704 31.7008 18.8823C31.9898 18.7058 32.2538 18.4978 32.4435 18.188C32.6335 17.8777 32.7417 17.4771 32.7417 16.927H32.4917ZM29.7029 19.9729C29.5442 20.1629 29.4683 20.3627 29.4736 20.5694C29.4788 20.7735 29.5628 20.9685 29.6939 21.1523C29.9535 21.5162 30.4224 21.8697 30.9613 22.2128C31.5027 22.5575 32.1341 22.9032 32.7272 23.244C33.324 23.587 33.8824 23.9252 34.2923 24.2606L34.4506 24.0672C34.0228 23.7172 33.4479 23.3698 32.8518 23.0273C32.2519 22.6825 31.6306 22.3426 31.0955 22.0019C30.5579 21.6596 30.1264 21.328 29.8975 21.0071C29.7843 20.8485 29.7271 20.7011 29.7235 20.563C29.72 20.4275 29.7678 20.2852 29.8947 20.1332L29.7029 19.9729ZM34.2923 24.2606C34.6703 24.57 34.784 24.9915 34.7375 25.4845C34.6905 25.9829 34.4801 26.54 34.2247 27.0912C34.0974 27.3656 33.9605 27.6355 33.8292 27.8936C33.6984 28.1508 33.5726 28.3973 33.4699 28.6211C33.3676 28.8439 33.2849 29.0511 33.2429 29.2297C33.2021 29.4029 33.1922 29.5789 33.2747 29.7158L33.4888 29.5869C33.4593 29.5378 33.4488 29.4458 33.4862 29.2869C33.5223 29.1334 33.5965 28.9445 33.6971 28.7254C33.7973 28.5072 33.9205 28.2657 34.052 28.007C34.1832 27.7493 34.3221 27.4755 34.4515 27.1963C34.7092 26.6403 34.9352 26.051 34.9864 25.5079C35.0381 24.9595 34.9118 24.4446 34.4506 24.0672L34.2923 24.2606ZM33.2742 29.7151C33.3458 29.8359 33.4796 29.9541 33.6559 30.0564C33.8344 30.1601 34.0653 30.2525 34.3424 30.3171C34.8971 30.4462 35.642 30.4646 36.5366 30.2317L36.4736 29.9898C35.6149 30.2133 34.9112 30.1928 34.3991 30.0736C34.1428 30.0139 33.9357 29.9298 33.7814 29.8402C33.6248 29.7493 33.5308 29.6577 33.4893 29.5877L33.2742 29.7151ZM36.5368 30.2317C37.0135 30.1068 37.4158 29.7579 37.7672 29.3104C38.1194 28.8619 38.4313 28.3001 38.7228 27.7273C39.017 27.1492 39.2869 26.5672 39.5644 26.0538C39.842 25.5406 40.1148 25.1205 40.4022 24.8702L40.238 24.6816C39.9137 24.9641 39.623 25.4198 39.3445 25.9349C39.066 26.45 38.7874 27.049 38.5 27.6139C38.2097 28.1843 37.9068 28.7277 37.5705 29.156C37.2333 29.5854 36.8733 29.8851 36.4734 29.9898L36.5368 30.2317ZM40.4026 24.8698C41.0501 24.3008 41.1658 23.5706 41.2042 22.9062C41.2238 22.567 41.2232 22.2596 41.2564 21.972C41.2891 21.6886 41.3529 21.4523 41.4871 21.2686L41.2852 21.1211C41.1133 21.3565 41.0426 21.6438 41.008 21.9434C40.9739 22.2389 40.973 22.5741 40.9546 22.8918C40.9171 23.5413 40.8059 24.1826 40.2375 24.682L40.4026 24.8698ZM41.4872 21.2685C42.0523 20.4927 42.812 20.5596 43.671 20.5596V20.3096C42.8501 20.3096 41.9388 20.2239 41.2851 21.1213L41.4872 21.2685ZM43.671 20.5596C43.8042 20.5596 43.9166 20.5179 44.009 20.4435C44.0989 20.3712 44.1641 20.2727 44.2146 20.1666C44.3136 19.9585 44.3718 19.6839 44.4318 19.4344C44.4944 19.1746 44.5597 18.9367 44.6677 18.7634C44.77 18.5993 44.905 18.5006 45.1203 18.5006V18.2506C44.8019 18.2506 44.5938 18.4093 44.4555 18.6312C44.323 18.8439 44.2502 19.1209 44.1888 19.3759C44.125 19.641 44.0735 19.8812 43.9888 20.0592C43.9474 20.1462 43.9023 20.2085 43.8523 20.2488C43.8048 20.287 43.7478 20.3096 43.671 20.3096V20.5596ZM45.1203 18.5006C45.4212 18.5006 45.6301 18.3954 45.7668 18.1949C45.8946 18.0075 45.9493 17.7498 45.9874 17.4688C46.0657 16.8912 46.0824 16.1553 46.381 15.3733L46.1475 15.2842C45.8352 16.1019 45.8137 16.8895 45.7397 17.4353C45.7016 17.716 45.6516 17.9201 45.5603 18.054C45.4779 18.1749 45.3533 18.2506 45.1203 18.2506V18.5006ZM46.3811 15.3732C46.4628 15.1581 46.4848 14.9658 46.4442 14.7994C46.403 14.6301 46.3003 14.5016 46.161 14.4115C45.8914 14.2372 45.481 14.2027 45.0584 14.251C44.6296 14.3 44.1612 14.4372 43.7549 14.6361C43.3513 14.8337 42.9935 15.0997 42.8045 15.4158L43.0191 15.5441C43.1723 15.2878 43.4806 15.0487 43.8648 14.8607C44.2462 14.674 44.6871 14.545 45.0868 14.4994C45.4928 14.453 45.8302 14.4953 46.0252 14.6215C46.1183 14.6816 46.1772 14.7594 46.2014 14.8586C46.2263 14.9607 46.2176 15.0995 46.1474 15.2843L46.3811 15.3732Z" fill="#868686"/>
</g>
<defs>
<filter id="filter0_d_6252_1303" x="0.613281" y="0.860962" width="49.8506" height="59.3235" filterUnits="userSpaceOnUse" color-interpolation-filters="sRGB">
<feFlood flood-opacity="0" result="BackgroundImageFix"/>
<feColorMatrix in="SourceAlpha" type="matrix" values="0 0 0 0 0 0 0 0 0 0 0 0 0 0 0 0 0 0 127 0" result="hardAlpha"/>
<feOffset dy="2"/>
<feGaussianBlur stdDeviation="2"/>
<feColorMatrix type="matrix" values="0 0 0 0 0 0 0 0 0 0 0 0 0 0 0 0 0 0 0.01 0"/>
<feBlend mode="normal" in2="BackgroundImageFix" result="effect1_dropShadow_6252_1303"/>
<feBlend mode="normal" in="SourceGraphic" in2="effect1_dropShadow_6252_1303" result="shape"/>
</filter>
</defs>
</svg>
