<svg width="36" height="40" viewBox="0 0 36 40" fill="none" xmlns="http://www.w3.org/2000/svg">
<g filter="url(#filter0_d_6252_1123)">
<path fill-rule="evenodd" clip-rule="evenodd" d="M17.9564 3.08307V5.68665L15.786 8.43553L14.6289 11.3297C14.9579 11.3488 15.2104 11.3532 15.3308 11.337C16.2178 11.2387 17.0988 13.1055 17.0988 13.7924C17.0988 14.4807 15.2324 20.5684 14.7435 20.9588C14.3881 21.2421 8.26037 23.2616 4.21045 24.5134C5.08857 26.3318 6.84334 29.9569 8.42336 33.1916C8.69502 33.0844 8.97989 32.9538 9.29414 32.7689C11.2236 31.6549 13.4116 32.2156 14.8859 31.809C16.3602 31.4025 14.9344 30.18 16.206 29.1145C17.4777 28.046 19.3044 28.8606 19.9667 28.5054C20.6274 28.1517 21.0871 25.8167 22.2016 25.3573C23.3191 24.8994 24.5393 25.2032 24.3851 24.239C24.2339 23.2748 24.4894 19.82 25.5569 19.6174C26.6245 19.4164 28.3014 18.2966 28.3514 17.6845C28.4028 17.0784 30.5364 14.7904 31.1957 13.6779C31.8565 12.5581 31.9079 11.9476 30.9446 11.7964C29.9784 11.6438 28.4541 8.95067 28.0503 8.19043C27.6421 7.4258 24.695 7.9336 22.3059 6.05796C21.3352 5.29332 20.7978 3.85064 20.4527 2.40796L19.2589 3.08601H17.9564V3.08307Z" fill="white"/>
<path fill-rule="evenodd" clip-rule="evenodd" d="M17.9564 3.08307V5.68665L15.786 8.43553L14.6289 11.3297C14.9579 11.3488 15.2104 11.3532 15.3308 11.337C16.2178 11.2387 17.0988 13.1055 17.0988 13.7924C17.0988 14.4807 15.2324 20.5684 14.7435 20.9588C14.3881 21.2421 8.26037 23.2616 4.21045 24.5134C5.08857 26.3318 6.84334 29.9569 8.42336 33.1916C8.69502 33.0844 8.97989 32.9538 9.29414 32.7689C11.2236 31.6549 13.4116 32.2156 14.8859 31.809C16.3602 31.4025 14.9344 30.18 16.206 29.1145C17.4777 28.046 19.3044 28.8606 19.9667 28.5054C20.6274 28.1517 21.0871 25.8167 22.2016 25.3573C23.3191 24.8994 24.5393 25.2032 24.3851 24.239C24.2339 23.2748 24.4894 19.82 25.5569 19.6174C26.6245 19.4164 28.3014 18.2966 28.3514 17.6845C28.4028 17.0784 30.5364 14.7904 31.1957 13.6779C31.8565 12.5581 31.9079 11.9476 30.9446 11.7964C29.9784 11.6438 28.4541 8.95067 28.0503 8.19043C27.6421 7.4258 24.695 7.9336 22.3059 6.05796C21.3352 5.29332 20.7978 3.85064 20.4527 2.40796L19.2589 3.08601H17.9564V3.08307Z" stroke="#868686" stroke-width="0.25"/>
</g>
<defs>
<filter id="filter0_d_6252_1123" x="0.034668" y="0.217163" width="35.772" height="39.1331" filterUnits="userSpaceOnUse" color-interpolation-filters="sRGB">
<feFlood flood-opacity="0" result="BackgroundImageFix"/>
<feColorMatrix in="SourceAlpha" type="matrix" values="0 0 0 0 0 0 0 0 0 0 0 0 0 0 0 0 0 0 127 0" result="hardAlpha"/>
<feOffset dy="2"/>
<feGaussianBlur stdDeviation="2"/>
<feColorMatrix type="matrix" values="0 0 0 0 0 0 0 0 0 0 0 0 0 0 0 0 0 0 0.01 0"/>
<feBlend mode="normal" in2="BackgroundImageFix" result="effect1_dropShadow_6252_1123"/>
<feBlend mode="normal" in="SourceGraphic" in2="effect1_dropShadow_6252_1123" result="shape"/>
</filter>
</defs>
</svg>
