<svg width="29" height="18" viewBox="0 0 29 18" fill="none" xmlns="http://www.w3.org/2000/svg">
<g filter="url(#filter0_d_6252_1151)">
<path fill-rule="evenodd" clip-rule="evenodd" d="M22.4324 5.20041C21.2136 3.37028 19.0021 3.52438 17.6292 2.91384C16.2577 2.30477 14.5058 3.14426 12.7511 4.74398C10.9978 6.3437 8.78777 5.42936 7.26208 4.59135C6.8098 4.34038 6.17544 3.74452 5.49556 3.01217C4.92435 3.78562 4.85827 4.79975 4.97134 5.19601C5.09175 5.61575 4.7452 6.27619 4.51172 7.09072C6.02126 7.27711 7.98454 7.93755 8.93902 9.08671C10.0829 10.4589 10.7687 9.5402 11.4544 10.7613C12.1417 11.9809 13.7422 10.8347 14.1226 10.0744C14.5044 9.31272 13.2841 9.00892 13.1314 8.17237C12.9801 7.33435 14.6571 7.63668 14.961 6.49193C15.265 5.35158 17.7055 4.81589 18.7716 5.2738C19.8391 5.73316 20.754 6.49193 19.7628 7.63522C19.0256 8.48644 20.5293 10.0157 21.7863 11.2118C22.6688 10.3048 23.6835 9.27163 24.1035 8.96636C24.3325 8.79318 24.4779 8.38958 24.5778 7.88912C23.9772 7.60586 23.2782 6.47138 22.4324 5.20041Z" fill="white"/>
<path fill-rule="evenodd" clip-rule="evenodd" d="M22.4324 5.20041C21.2136 3.37028 19.0021 3.52438 17.6292 2.91384C16.2577 2.30477 14.5058 3.14426 12.7511 4.74398C10.9978 6.3437 8.78777 5.42936 7.26208 4.59135C6.8098 4.34038 6.17544 3.74452 5.49556 3.01217C4.92435 3.78562 4.85827 4.79975 4.97134 5.19601C5.09175 5.61575 4.7452 6.27619 4.51172 7.09072C6.02126 7.27711 7.98454 7.93755 8.93902 9.08671C10.0829 10.4589 10.7687 9.5402 11.4544 10.7613C12.1417 11.9809 13.7422 10.8347 14.1226 10.0744C14.5044 9.31272 13.2841 9.00892 13.1314 8.17237C12.9801 7.33435 14.6571 7.63668 14.961 6.49193C15.265 5.35158 17.7055 4.81589 18.7716 5.2738C19.8391 5.73316 20.754 6.49193 19.7628 7.63522C19.0256 8.48644 20.5293 10.0157 21.7863 11.2118C22.6688 10.3048 23.6835 9.27163 24.1035 8.96636C24.3325 8.79318 24.4779 8.38958 24.5778 7.88912C23.9772 7.60586 23.2782 6.47138 22.4324 5.20041Z" stroke="#868686" stroke-width="0.25"/>
</g>
<defs>
<filter id="filter0_d_6252_1151" x="0.351074" y="0.589844" width="28.3682" height="16.8307" filterUnits="userSpaceOnUse" color-interpolation-filters="sRGB">
<feFlood flood-opacity="0" result="BackgroundImageFix"/>
<feColorMatrix in="SourceAlpha" type="matrix" values="0 0 0 0 0 0 0 0 0 0 0 0 0 0 0 0 0 0 127 0" result="hardAlpha"/>
<feOffset dy="2"/>
<feGaussianBlur stdDeviation="2"/>
<feColorMatrix type="matrix" values="0 0 0 0 0 0 0 0 0 0 0 0 0 0 0 0 0 0 0.01 0"/>
<feBlend mode="normal" in2="BackgroundImageFix" result="effect1_dropShadow_6252_1151"/>
<feBlend mode="normal" in="SourceGraphic" in2="effect1_dropShadow_6252_1151" result="shape"/>
</filter>
</defs>
</svg>
