<svg width="52" height="37" viewBox="0 0 52 37" fill="none" xmlns="http://www.w3.org/2000/svg">
<g filter="url(#filter0_d_6252_1274)">
<path fill-rule="evenodd" clip-rule="evenodd" d="M35.6223 27.8884C34.9115 27.5846 33.0833 26.3664 33.1832 25.5519C33.2845 24.7403 31.1509 24.8416 29.728 23.9287C28.3051 23.0129 28.8132 20.0688 27.2875 19.3555C25.7632 18.6452 24.6443 16.4115 26.4725 16.5113C28.3022 16.614 28.6076 15.5969 27.1861 14.279C25.7618 12.9581 20.5812 12.4503 20.3741 10.5189C20.1715 8.58899 10.9233 4.01438 6.85727 3.10151C6.13481 2.94154 5.2655 2.67443 4.31689 2.35596V24.0373C5.26256 24.6684 6.43143 25.1762 7.97474 25.2481C12.4461 25.4506 11.3301 22.9102 12.1407 22.9102C12.9571 22.9102 13.2625 21.488 14.1759 20.3711C15.0922 19.2557 19.0555 20.1671 21.3932 21.9929C23.7295 23.8245 26.4725 29.2078 28.913 28.7C31.3535 28.1936 33.8954 30.1221 36.1303 30.0179C38.3697 29.921 36.333 28.1966 35.6223 27.8884ZM41.4144 9.80704C41.4144 10.7214 39.7918 11.2306 37.247 12.2433C34.7095 13.2604 30.0913 11.0809 29.9283 12.5486C29.8314 13.4644 32.7756 15.0891 35.5201 15.0891C38.2646 15.0891 42.6376 12.346 42.6376 11.5344C42.6376 10.7228 44.3644 9.29924 43.6522 8.48764C42.9415 7.67457 41.4144 8.89271 41.4144 9.80704ZM44.8715 5.9487C43.2474 4.93016 41.8245 4.21836 43.8539 6.14683C45.8891 8.08117 44.7937 9.71758 45.989 9.4035C47.9199 8.8957 46.497 6.96283 44.8715 5.9487Z" fill="white"/>
<path d="M35.6223 27.8884L35.672 27.7737L35.6714 27.7734L35.6223 27.8884ZM33.1832 25.5519L33.0592 25.5364L33.0591 25.5367L33.1832 25.5519ZM29.728 23.9287L29.6603 24.0338L29.6605 24.0339L29.728 23.9287ZM27.2875 19.3555L27.3404 19.2423L27.3403 19.2422L27.2875 19.3555ZM26.4725 16.5113L26.4795 16.3865L26.4793 16.3865L26.4725 16.5113ZM27.1861 14.279L27.1012 14.3707L27.1012 14.3707L27.1861 14.279ZM20.3741 10.5189L20.2498 10.532L20.2498 10.5323L20.3741 10.5189ZM6.85727 3.10151L6.88465 2.97955L6.88429 2.97947L6.85727 3.10151ZM4.31689 2.35596L4.35668 2.23746L4.19189 2.18213V2.35596H4.31689ZM4.31689 24.0373H4.19189V24.1042L4.24751 24.1413L4.31689 24.0373ZM7.97474 25.2481L7.96892 25.373L7.96909 25.373L7.97474 25.2481ZM14.1759 20.3711L14.0793 20.2918L14.0791 20.292L14.1759 20.3711ZM21.3932 21.9929L21.4703 21.8945L21.4702 21.8944L21.3932 21.9929ZM28.913 28.7L28.8876 28.5776L28.8876 28.5776L28.913 28.7ZM36.1303 30.0179L36.1249 29.893L36.1245 29.893L36.1303 30.0179ZM37.247 12.2433L37.2008 12.1272L37.2005 12.1273L37.247 12.2433ZM29.9283 12.5486L29.8041 12.5348L29.804 12.5354L29.9283 12.5486ZM43.6522 8.48764L43.5581 8.56991L43.5583 8.57009L43.6522 8.48764ZM44.8715 5.9487L44.8051 6.0546L44.8053 6.05475L44.8715 5.9487ZM43.8539 6.14683L43.94 6.05622L43.94 6.05622L43.8539 6.14683ZM45.989 9.4035L46.0207 9.5244L46.0207 9.52439L45.989 9.4035ZM35.6714 27.7734C35.329 27.6271 34.7045 27.2535 34.1788 26.8156C33.9162 26.5969 33.6835 26.3664 33.5236 26.1447C33.361 25.9193 33.2881 25.7232 33.3073 25.5671L33.0591 25.5367C33.0283 25.7879 33.1466 26.0495 33.3209 26.291C33.4978 26.5363 33.7479 26.7821 34.0188 27.0077C34.5599 27.4584 35.2048 27.8459 35.5731 28.0033L35.6714 27.7734ZM33.3072 25.5674C33.3236 25.4363 33.2943 25.3188 33.226 25.2169C33.1599 25.1183 33.0614 25.0404 32.9482 24.9757C32.7241 24.8477 32.407 24.7521 32.06 24.6577C31.3523 24.4649 30.4867 24.2669 29.7955 23.8235L29.6605 24.0339C30.3922 24.5033 31.3048 24.7111 31.9943 24.8989C32.346 24.9946 32.6322 25.083 32.8241 25.1928C32.919 25.247 32.9817 25.3014 33.0184 25.3562C33.0529 25.4077 33.0681 25.4646 33.0592 25.5364L33.3072 25.5674ZM29.7956 23.8236C29.4694 23.6136 29.2473 23.2834 29.076 22.8793C28.9042 22.4739 28.789 22.0082 28.6673 21.535C28.547 21.067 28.4203 20.5914 28.2249 20.1877C28.0284 19.7819 27.7569 19.437 27.3404 19.2423L27.2345 19.4688C27.5809 19.6307 27.8181 19.9213 27.9999 20.2967C28.1827 20.6743 28.304 21.1257 28.4252 21.5973C28.5451 22.0638 28.6651 22.5504 28.8458 22.9769C29.0272 23.4047 29.2751 23.7859 29.6603 24.0338L29.7956 23.8236ZM27.3403 19.2422C26.6064 18.9002 25.9693 18.1882 25.7396 17.5851C25.6239 17.2812 25.6228 17.0366 25.7204 16.8797C25.8135 16.7299 26.0283 16.6122 26.4657 16.6361L26.4793 16.3865C26.0026 16.3604 25.6717 16.4845 25.5081 16.7477C25.3489 17.0038 25.38 17.3433 25.506 17.6741C25.7598 18.3405 26.4443 19.1005 27.2347 19.4688L27.3403 19.2422ZM26.4655 16.6361C26.9327 16.6623 27.3144 16.618 27.6007 16.5078C27.889 16.3969 28.0895 16.2147 28.1678 15.9653C28.2448 15.7196 28.194 15.4369 28.0429 15.1413C27.8914 14.8449 27.633 14.5229 27.2711 14.1873L27.1012 14.3707C27.45 14.6941 27.6865 14.9934 27.8203 15.2551C27.9545 15.5177 27.9795 15.73 27.9292 15.8905C27.88 16.0473 27.75 16.1825 27.5109 16.2745C27.2698 16.3673 26.9272 16.4116 26.4795 16.3865L26.4655 16.6361ZM27.2711 14.1873C26.8955 13.839 26.2837 13.5526 25.5946 13.2891C24.9049 13.0254 24.1076 12.7742 23.3656 12.5102C22.6167 12.2436 21.9167 11.9617 21.3924 11.6299C20.865 11.2962 20.5439 10.9302 20.4984 10.5056L20.2498 10.5323C20.3078 11.0734 20.712 11.4952 21.2587 11.8411C21.8085 12.189 22.5315 12.4787 23.2817 12.7457C24.0388 13.0151 24.8166 13.2593 25.5053 13.5226C26.1947 13.7862 26.7646 14.0586 27.1012 14.3707L27.2711 14.1873ZM20.4984 10.5059C20.4688 10.2236 20.2791 9.91603 19.9949 9.59996C19.7069 9.27983 19.306 8.93366 18.8231 8.5739C17.8568 7.85398 16.5485 7.06928 15.1227 6.31823C12.2731 4.81709 8.9333 3.43949 6.88465 2.97955L6.82989 3.22348C8.84731 3.67641 12.1646 5.04254 15.0062 6.53941C16.4261 7.28737 17.7219 8.06523 18.6737 8.77438C19.1499 9.12914 19.5365 9.46414 19.809 9.76714C20.0851 10.0742 20.2288 10.3318 20.2498 10.532L20.4984 10.5059ZM6.88429 2.97947C6.16855 2.82099 5.30438 2.55563 4.35668 2.23746L4.27711 2.47446C5.22661 2.79324 6.10106 3.0621 6.83025 3.22356L6.88429 2.97947ZM4.19189 2.35596V24.0373H4.44189V2.35596H4.19189ZM4.24751 24.1413C5.20838 24.7825 6.39886 25.2998 7.96892 25.373L7.98056 25.1232C6.46399 25.0526 5.31674 24.5543 4.38628 23.9333L4.24751 24.1413ZM7.96909 25.373C10.2264 25.4752 11.1211 24.8858 11.5365 24.2213C11.7373 23.9002 11.8197 23.5673 11.895 23.3439C11.9346 23.2266 11.9692 23.1475 12.0096 23.0975C12.0433 23.0557 12.0797 23.0352 12.1407 23.0352V22.7852C11.9989 22.7852 11.8929 22.844 11.8151 22.9404C11.7439 23.0285 11.6978 23.1463 11.6581 23.264C11.575 23.5105 11.505 23.8002 11.3245 24.0888C10.9774 24.6439 10.1944 25.2235 7.9804 25.1232L7.96909 25.373ZM12.1407 23.0352C12.386 23.0352 12.5875 22.9267 12.761 22.7608C12.9319 22.5975 13.0824 22.3722 13.2296 22.1231C13.5294 21.6157 13.824 20.9989 14.2727 20.4503L14.0791 20.292C13.6144 20.8602 13.2997 21.513 13.0143 21.9959C12.8689 22.2419 12.7329 22.4419 12.5883 22.5801C12.4464 22.7158 12.3036 22.7852 12.1407 22.7852V23.0352ZM14.2725 20.4505C14.4691 20.2112 14.846 20.0638 15.3714 20.0218C15.8918 19.9803 16.5328 20.0444 17.2239 20.201C18.6063 20.5142 20.164 21.1915 21.3163 22.0914L21.4702 21.8944C20.2846 20.9685 18.6918 20.2773 17.2791 19.9572C16.5726 19.7971 15.905 19.7284 15.3515 19.7726C14.803 19.8164 14.3409 19.9734 14.0793 20.2918L14.2725 20.4505ZM21.3161 22.0913C21.8886 22.5401 22.4908 23.2107 23.1143 23.9646C23.7325 24.7121 24.3784 25.5503 25.0187 26.3046C25.6614 27.0617 26.314 27.7539 26.9636 28.225C27.6118 28.6951 28.2775 28.9599 28.9385 28.8223L28.8876 28.5776C28.3283 28.694 27.7359 28.4763 27.1104 28.0226C26.4862 27.5699 25.8495 26.897 25.2093 26.1428C24.5667 25.3858 23.9364 24.5664 23.3069 23.8053C22.6828 23.0506 22.0659 22.3614 21.4703 21.8945L21.3161 22.0913ZM28.9384 28.8224C30.1218 28.5768 31.3375 28.9203 32.5593 29.3267C33.7671 29.7285 34.9894 30.1962 36.1362 30.1428L36.1245 29.893C35.0364 29.9438 33.8702 29.4993 32.6382 29.0895C31.4203 28.6844 30.1447 28.3168 28.8876 28.5776L28.9384 28.8224ZM36.1357 30.1428C36.4228 30.1304 36.6497 30.0917 36.8232 30.0287C36.9968 29.9658 37.1256 29.8752 37.2015 29.754C37.3572 29.5056 37.2496 29.2099 37.0869 28.9635C36.9179 28.7076 36.6558 28.4508 36.3949 28.2402C36.1343 28.0299 35.8639 27.8569 35.672 27.7737L35.5725 28.003C35.736 28.0739 35.9867 28.2321 36.2379 28.4348C36.4888 28.6373 36.7291 28.8754 36.8783 29.1013C37.0337 29.3366 37.0598 29.5094 36.9897 29.6213C36.9528 29.6801 36.8788 29.7426 36.738 29.7937C36.597 29.8448 36.3977 29.8812 36.1249 29.893L36.1357 30.1428ZM41.2894 9.80704C41.2894 9.99359 41.2083 10.1668 41.0326 10.3427C40.8546 10.5209 40.5861 10.6948 40.2283 10.8769C39.5113 11.2416 38.4795 11.6183 37.2008 12.1272L37.2932 12.3595C38.5592 11.8556 39.6111 11.4714 40.3416 11.0997C40.7075 10.9136 41.0037 10.7254 41.2095 10.5194C41.4176 10.311 41.5394 10.0777 41.5394 9.80704H41.2894ZM37.2005 12.1273C36.5906 12.3717 35.8473 12.4269 35.0619 12.3888C34.2776 12.3509 33.4642 12.2209 32.7166 12.1035C31.9751 11.9871 31.2896 11.8813 30.7793 11.8998C30.5243 11.9091 30.2968 11.9495 30.1241 12.0469C29.9432 12.149 29.829 12.3104 29.8041 12.5348L30.0526 12.5624C30.0684 12.4199 30.1342 12.3283 30.247 12.2647C30.3679 12.1964 30.5478 12.1584 30.7883 12.1497C31.2691 12.1322 31.9273 12.2326 32.6778 12.3505C33.4223 12.4674 34.2495 12.5998 35.0498 12.6386C35.8491 12.6773 36.6346 12.6234 37.2935 12.3593L37.2005 12.1273ZM29.804 12.5354C29.7882 12.6851 29.8355 12.8375 29.9201 12.9834C30.005 13.1298 30.1321 13.278 30.2905 13.4238C30.6075 13.7157 31.0635 14.0109 31.6039 14.2746C32.6847 14.802 34.1256 15.2141 35.5201 15.2141V14.9641C34.1702 14.9641 32.7667 14.5638 31.7135 14.0499C31.1869 13.7929 30.7535 13.5103 30.4599 13.2399C30.313 13.1047 30.2046 12.9757 30.1363 12.858C30.0678 12.7397 30.0443 12.641 30.0526 12.5617L29.804 12.5354ZM35.5201 15.2141C36.9245 15.2141 38.7266 14.5158 40.1681 13.7257C40.8911 13.3294 41.5304 12.9063 41.9907 12.5289C42.2205 12.3405 42.4089 12.1609 42.541 11.9994C42.6071 11.9186 42.6613 11.8398 42.6993 11.7645C42.7369 11.6902 42.7626 11.612 42.7626 11.5344H42.5126C42.5126 11.5584 42.504 11.5967 42.4762 11.6517C42.4489 11.7058 42.4064 11.7691 42.3476 11.841C42.2298 11.9849 42.0552 12.1527 41.8321 12.3356C41.3867 12.7008 40.7612 13.1156 40.0479 13.5065C38.6169 14.2908 36.8602 14.9641 35.5201 14.9641V15.2141ZM42.7626 11.5344C42.7626 11.3683 42.8536 11.1532 43.0044 10.8928C43.1559 10.6312 43.3402 10.3672 43.5185 10.0764C43.6906 9.79574 43.8491 9.50187 43.9158 9.22082C43.9837 8.93443 43.9588 8.64751 43.7462 8.40519L43.5583 8.57009C43.7017 8.73357 43.7281 8.92895 43.6725 9.16311C43.6157 9.40261 43.476 9.66754 43.3054 9.94569C43.1411 10.2136 42.9381 10.5085 42.7881 10.7675C42.6374 11.0276 42.5126 11.2947 42.5126 11.5344H42.7626ZM43.7464 8.40537C43.5402 8.16949 43.2722 8.08131 42.9955 8.09742C42.7234 8.11325 42.4444 8.22909 42.1969 8.39591C41.9485 8.56332 41.7238 8.78735 41.5603 9.0312C41.3976 9.27372 41.2894 9.5454 41.2894 9.80704H41.5394C41.5394 9.61151 41.622 9.38805 41.7679 9.17043C41.9129 8.95413 42.1144 8.753 42.3366 8.60322C42.5598 8.45285 42.7959 8.35945 43.01 8.34699C43.2195 8.3348 43.409 8.39925 43.5581 8.56991L43.7464 8.40537ZM44.9379 5.8428C44.5308 5.58748 44.135 5.35054 43.8017 5.169C43.4743 4.9906 43.1918 4.85681 43.0184 4.82032C42.9745 4.81108 42.9251 4.80514 42.8788 4.81328C42.8284 4.82214 42.7655 4.85216 42.7386 4.92459C42.7163 4.98463 42.7313 5.04439 42.7464 5.08495C42.7631 5.12953 42.7904 5.17779 42.8246 5.22875C42.9599 5.43024 43.2611 5.75601 43.7678 6.23744L43.94 6.05622C43.4319 5.57341 43.15 5.26498 43.0321 5.08938C43.003 5.04606 42.9876 5.01612 42.9806 4.99743C42.9721 4.97472 42.9825 4.98613 42.973 5.01162C42.9589 5.0495 42.9263 5.05876 42.9221 5.05951C42.9219 5.05954 42.9345 5.05814 42.9669 5.06496C43.0985 5.09267 43.3494 5.20727 43.6821 5.38854C44.0091 5.56666 44.4001 5.80064 44.8051 6.05459L44.9379 5.8428ZM43.7677 6.23743C44.76 7.18051 44.9869 8.04575 45.1141 8.6443C45.1458 8.7934 45.1729 8.93445 45.2038 9.05275C45.2347 9.17077 45.2731 9.28217 45.3347 9.37063C45.4001 9.46437 45.4898 9.52994 45.612 9.55544C45.7277 9.57961 45.8631 9.56582 46.0207 9.5244L45.9572 9.28261C45.816 9.31971 45.7242 9.32348 45.6631 9.31072C45.6084 9.29929 45.5717 9.27343 45.5398 9.2277C45.5043 9.17669 45.4747 9.10057 45.4457 8.9895C45.4167 8.87869 45.392 8.74906 45.3587 8.59234C45.2259 7.96762 44.9829 7.04748 43.94 6.05622L43.7677 6.23743ZM46.0207 9.52439C46.5238 9.39209 46.8393 9.15848 46.9728 8.84048C47.1051 8.52557 47.043 8.16486 46.877 7.81267C46.5453 7.10919 45.7613 6.35649 44.9376 5.84264L44.8053 6.05475C45.6072 6.55504 46.3475 7.27585 46.6509 7.91929C46.8023 8.24055 46.8356 8.52166 46.7423 8.74367C46.6504 8.9626 46.4195 9.16102 45.9572 9.28262L46.0207 9.52439Z" fill="#868686"/>
</g>
<defs>
<filter id="filter0_d_6252_1274" x="0.191895" y="0.182129" width="50.8525" height="35.9648" filterUnits="userSpaceOnUse" color-interpolation-filters="sRGB">
<feFlood flood-opacity="0" result="BackgroundImageFix"/>
<feColorMatrix in="SourceAlpha" type="matrix" values="0 0 0 0 0 0 0 0 0 0 0 0 0 0 0 0 0 0 127 0" result="hardAlpha"/>
<feOffset dy="2"/>
<feGaussianBlur stdDeviation="2"/>
<feColorMatrix type="matrix" values="0 0 0 0 0 0 0 0 0 0 0 0 0 0 0 0 0 0 0.01 0"/>
<feBlend mode="normal" in2="BackgroundImageFix" result="effect1_dropShadow_6252_1274"/>
<feBlend mode="normal" in="SourceGraphic" in2="effect1_dropShadow_6252_1274" result="shape"/>
</filter>
</defs>
</svg>
