<svg width="66" height="61" viewBox="0 0 66 61" fill="none" xmlns="http://www.w3.org/2000/svg">
<g filter="url(#filter0_d_6252_1357)">
<path fill-rule="evenodd" clip-rule="evenodd" d="M58.5037 8.14526C56.9031 7.38062 56.7519 6.01279 56.7519 5.55342C56.7519 5.15423 54.9413 4.0491 53.6197 3.01295C53.4464 3.04083 53.0382 3.10541 52.5742 3.21842C52.4083 3.05698 52.1851 2.92636 51.9501 2.81482C50.9149 3.91408 49.2262 4.14596 48.4626 3.87005C47.5243 3.52956 45.0926 4.30593 43.8209 5.24962C43.3569 5.59158 42.7504 5.72954 42.0441 5.87043C41.8664 5.98637 41.6902 6.07296 41.5316 6.08764C40.6153 6.18891 40.3099 7.10324 41.0206 7.81504C41.7328 8.52538 41.5316 9.03465 41.6344 9.84772C41.7328 10.6593 40.514 11.4709 40.006 12.284C39.4979 13.0956 40.1102 14.1127 39.7005 15.027C39.2967 15.9428 36.2453 14.5192 35.8415 14.9243C35.4333 15.3323 36.8518 16.5533 36.9575 17.1595C37.0603 17.77 35.8415 18.4818 34.6198 18.5831C33.401 18.6858 33.6036 20.2077 33.4994 22.2404C33.401 24.2745 32.1837 24.5783 31.8753 23.7623C31.5713 22.9507 28.216 24.0676 28.216 24.9819C28.216 25.8948 27.0985 25.6952 25.8797 25.5895C24.6594 25.4927 23.2365 26.7108 23.1337 27.2201C23.0354 27.722 23.6448 30.264 23.4377 30.6705C23.2365 31.0785 11.8518 32.8044 9.61836 32.3979C7.8401 32.075 5.87975 31.8827 4.33203 31.8182C4.92087 32.3964 5.70941 33.0275 5.94583 33.663C6.39957 34.8635 7.84597 35.9628 9.47446 36.6423C11.1015 37.3218 10.2865 40.1705 11.1015 40.442C11.9164 40.715 13.0031 42.8827 11.9164 43.0191C10.8283 43.1571 9.87974 43.4257 8.79458 43.9702C7.70794 44.5103 6.48621 45.8664 6.62131 47.4969C6.64186 47.7112 6.6727 48.0062 6.71235 48.3511C9.48327 48.4142 12.7696 48.2791 13.1235 47.8902C13.683 47.2812 15.0045 46.9774 15.7652 47.4852C16.5302 47.9915 19.9326 48.194 21.3056 47.4338C22.9752 46.5048 24.0001 47.4338 24.0471 48.2469C24.0956 49.0585 24.8606 49.4151 25.6213 50.1225C26.3848 50.8343 25.8283 51.6488 26.3334 52.4634C26.843 53.275 27.8577 53.1223 29.332 53.7798C29.542 53.8723 29.7167 53.9912 29.8812 54.1203C29.9737 54.0132 30.0515 53.9295 30.1 53.8694C30.9149 52.9213 31.05 51.2907 33.2218 51.6987C35.3922 52.1038 35.2571 51.2907 36.4817 51.5622C37.7035 51.8323 38.5155 51.6987 39.0574 50.8871C39.6007 50.0711 38.5155 48.445 37.84 47.7669C37.1601 47.0874 36.2101 45.5963 36.3437 44.2402C36.4817 42.8812 34.1719 42.8812 34.1719 41.7951C34.1719 40.7135 36.3437 38.9494 36.7534 38.5429C37.1601 38.1363 38.9223 39.6274 39.3305 38.8158C39.7358 37.9984 40.959 38.5429 41.6388 38.6779C42.3187 38.8158 43.3995 37.3203 43.536 36.1022C43.6726 34.8811 45.981 34.7446 46.3863 34.3381C46.7945 33.933 47.4729 31.2179 47.746 30.6734C48.0177 30.1348 49.7813 30.5413 49.7813 29.0473C49.7813 27.5547 50.5977 27.2832 51.4112 27.1482C52.2233 27.0102 51.9516 25.6556 52.0882 24.5725C52.2233 23.4864 52.7666 22.2654 53.8517 21.9938C54.9384 21.7209 53.445 20.2327 52.2233 20.5013C51.003 20.7728 50.188 17.2431 50.188 17.2431C50.188 17.2431 50.3246 14.3974 49.6432 13.9908C48.9633 13.5828 49.9164 12.0903 51.4112 12.0903C52.9046 12.0903 55.6168 13.7149 56.5654 13.0383C57.514 12.3618 59.4156 11.9552 59.9589 11.6837C60.3686 11.4753 60.9398 10.1779 61.1865 9.5674C60.5595 9.14178 59.5199 8.62664 58.5037 8.14526Z" fill="white"/>
<path fill-rule="evenodd" clip-rule="evenodd" d="M58.5037 8.14526C56.9031 7.38062 56.7519 6.01279 56.7519 5.55342C56.7519 5.15423 54.9413 4.0491 53.6197 3.01295C53.4464 3.04083 53.0382 3.10541 52.5742 3.21842C52.4083 3.05698 52.1851 2.92636 51.9501 2.81482C50.9149 3.91408 49.2262 4.14596 48.4626 3.87005C47.5243 3.52956 45.0926 4.30593 43.8209 5.24962C43.3569 5.59158 42.7504 5.72954 42.0441 5.87043C41.8664 5.98637 41.6902 6.07296 41.5316 6.08764C40.6153 6.18891 40.3099 7.10324 41.0206 7.81504C41.7328 8.52538 41.5316 9.03465 41.6344 9.84772C41.7328 10.6593 40.514 11.4709 40.006 12.284C39.4979 13.0956 40.1102 14.1127 39.7005 15.027C39.2967 15.9428 36.2453 14.5192 35.8415 14.9243C35.4333 15.3323 36.8518 16.5533 36.9575 17.1595C37.0603 17.77 35.8415 18.4818 34.6198 18.5831C33.401 18.6858 33.6036 20.2077 33.4994 22.2404C33.401 24.2745 32.1837 24.5783 31.8753 23.7623C31.5713 22.9507 28.216 24.0676 28.216 24.9819C28.216 25.8948 27.0985 25.6952 25.8797 25.5895C24.6594 25.4927 23.2365 26.7108 23.1337 27.2201C23.0354 27.722 23.6448 30.264 23.4377 30.6705C23.2365 31.0785 11.8518 32.8044 9.61836 32.3979C7.8401 32.075 5.87975 31.8827 4.33203 31.8182C4.92087 32.3964 5.70941 33.0275 5.94583 33.663C6.39957 34.8635 7.84597 35.9628 9.47446 36.6423C11.1015 37.3218 10.2865 40.1705 11.1015 40.442C11.9164 40.715 13.0031 42.8827 11.9164 43.0191C10.8283 43.1571 9.87974 43.4257 8.79458 43.9702C7.70794 44.5103 6.48621 45.8664 6.62131 47.4969C6.64186 47.7112 6.6727 48.0062 6.71235 48.3511C9.48327 48.4142 12.7696 48.2791 13.1235 47.8902C13.683 47.2812 15.0045 46.9774 15.7652 47.4852C16.5302 47.9915 19.9326 48.194 21.3056 47.4338C22.9752 46.5048 24.0001 47.4338 24.0471 48.2469C24.0956 49.0585 24.8606 49.4151 25.6213 50.1225C26.3848 50.8343 25.8283 51.6488 26.3334 52.4634C26.843 53.275 27.8577 53.1223 29.332 53.7798C29.542 53.8723 29.7167 53.9912 29.8812 54.1203C29.9737 54.0132 30.0515 53.9295 30.1 53.8694C30.9149 52.9213 31.05 51.2907 33.2218 51.6987C35.3922 52.1038 35.2571 51.2907 36.4817 51.5622C37.7035 51.8323 38.5155 51.6987 39.0574 50.8871C39.6007 50.0711 38.5155 48.445 37.84 47.7669C37.1601 47.0874 36.2101 45.5963 36.3437 44.2402C36.4817 42.8812 34.1719 42.8812 34.1719 41.7951C34.1719 40.7135 36.3437 38.9494 36.7534 38.5429C37.1601 38.1363 38.9223 39.6274 39.3305 38.8158C39.7358 37.9984 40.959 38.5429 41.6388 38.6779C42.3187 38.8158 43.3995 37.3203 43.536 36.1022C43.6726 34.8811 45.981 34.7446 46.3863 34.3381C46.7945 33.933 47.4729 31.2179 47.746 30.6734C48.0177 30.1348 49.7813 30.5413 49.7813 29.0473C49.7813 27.5547 50.5977 27.2832 51.4112 27.1482C52.2233 27.0102 51.9516 25.6556 52.0882 24.5725C52.2233 23.4864 52.7666 22.2654 53.8517 21.9938C54.9384 21.7209 53.445 20.2327 52.2233 20.5013C51.003 20.7728 50.188 17.2431 50.188 17.2431C50.188 17.2431 50.3246 14.3974 49.6432 13.9908C48.9633 13.5828 49.9164 12.0903 51.4112 12.0903C52.9046 12.0903 55.6168 13.7149 56.5654 13.0383C57.514 12.3618 59.4156 11.9552 59.9589 11.6837C60.3686 11.4753 60.9398 10.1779 61.1865 9.5674C60.5595 9.14178 59.5199 8.62664 58.5037 8.14526Z" stroke="#868686" stroke-width="0.25"/>
</g>
<defs>
<filter id="filter0_d_6252_1357" x="0.0126953" y="0.662842" width="65.3276" height="59.6295" filterUnits="userSpaceOnUse" color-interpolation-filters="sRGB">
<feFlood flood-opacity="0" result="BackgroundImageFix"/>
<feColorMatrix in="SourceAlpha" type="matrix" values="0 0 0 0 0 0 0 0 0 0 0 0 0 0 0 0 0 0 127 0" result="hardAlpha"/>
<feOffset dy="2"/>
<feGaussianBlur stdDeviation="2"/>
<feColorMatrix type="matrix" values="0 0 0 0 0 0 0 0 0 0 0 0 0 0 0 0 0 0 0.01 0"/>
<feBlend mode="normal" in2="BackgroundImageFix" result="effect1_dropShadow_6252_1357"/>
<feBlend mode="normal" in="SourceGraphic" in2="effect1_dropShadow_6252_1357" result="shape"/>
</filter>
</defs>
</svg>
