<svg width="20" height="30" viewBox="0 0 20 30" fill="none" xmlns="http://www.w3.org/2000/svg">
<g filter="url(#filter0_d_6252_1107)">
<path fill-rule="evenodd" clip-rule="evenodd" d="M12.9178 19.9755C14.2761 19.7304 12.5448 18.6165 12.1733 18.2466C11.8018 17.8753 12.2966 16.3915 13.0396 16.3915C13.7797 16.3915 13.0396 15.5271 12.0484 14.535C11.0602 13.5458 12.0484 13.1774 12.9163 13.1774C13.7797 13.1774 12.6681 11.6936 13.5301 10.8263C14.3965 9.96036 13.2834 8.35624 13.2834 7.61362C13.2834 6.8754 14.5213 6.6259 15.5125 5.63819C16.5007 4.64753 14.6476 5.01885 14.6476 4.27769C14.6476 3.53654 13.4082 3.28704 12.5448 3.90785C11.6769 4.52719 11.9266 3.90785 11.1835 3.90785C10.4405 3.90785 9.08076 4.15588 9.08076 3.41179C9.08076 2.66623 8.46255 2.54882 7.84582 3.28704C7.66373 3.50718 7.35243 3.62313 6.93099 3.67743C6.83994 4.64607 6.74009 5.54866 7.0235 6.00656C7.68282 7.07353 6.20852 12.7107 4.88841 14.2341C3.56683 15.7575 4.83995 16.1655 6.20852 17.2325C7.5815 18.2995 6.66814 22.1593 6.66814 23.0722C6.66814 23.988 7.88693 23.7341 9.30984 23.7341C10.1571 23.7341 11.1145 23.3569 12.0543 23.1925C11.7768 22.7684 11.5551 22.3516 11.5551 22.0757C11.5551 21.3345 11.5551 20.2235 12.9178 19.9755Z" fill="white"/>
<path fill-rule="evenodd" clip-rule="evenodd" d="M12.9178 19.9755C14.2761 19.7304 12.5448 18.6165 12.1733 18.2466C11.8018 17.8753 12.2966 16.3915 13.0396 16.3915C13.7797 16.3915 13.0396 15.5271 12.0484 14.535C11.0602 13.5458 12.0484 13.1774 12.9163 13.1774C13.7797 13.1774 12.6681 11.6936 13.5301 10.8263C14.3965 9.96036 13.2834 8.35624 13.2834 7.61362C13.2834 6.8754 14.5213 6.6259 15.5125 5.63819C16.5007 4.64753 14.6476 5.01885 14.6476 4.27769C14.6476 3.53654 13.4082 3.28704 12.5448 3.90785C11.6769 4.52719 11.9266 3.90785 11.1835 3.90785C10.4405 3.90785 9.08076 4.15588 9.08076 3.41179C9.08076 2.66623 8.46255 2.54882 7.84582 3.28704C7.66373 3.50718 7.35243 3.62313 6.93099 3.67743C6.83994 4.64607 6.74009 5.54866 7.0235 6.00656C7.68282 7.07353 6.20852 12.7107 4.88841 14.2341C3.56683 15.7575 4.83995 16.1655 6.20852 17.2325C7.5815 18.2995 6.66814 22.1593 6.66814 23.0722C6.66814 23.988 7.88693 23.7341 9.30984 23.7341C10.1571 23.7341 11.1145 23.3569 12.0543 23.1925C11.7768 22.7684 11.5551 22.3516 11.5551 22.0757C11.5551 21.3345 11.5551 20.2235 12.9178 19.9755Z" stroke="#868686" stroke-width="0.25"/>
</g>
<defs>
<filter id="filter0_d_6252_1107" x="0.207031" y="0.664185" width="19.7207" height="29.2272" filterUnits="userSpaceOnUse" color-interpolation-filters="sRGB">
<feFlood flood-opacity="0" result="BackgroundImageFix"/>
<feColorMatrix in="SourceAlpha" type="matrix" values="0 0 0 0 0 0 0 0 0 0 0 0 0 0 0 0 0 0 127 0" result="hardAlpha"/>
<feOffset dy="2"/>
<feGaussianBlur stdDeviation="2"/>
<feColorMatrix type="matrix" values="0 0 0 0 0 0 0 0 0 0 0 0 0 0 0 0 0 0 0.01 0"/>
<feBlend mode="normal" in2="BackgroundImageFix" result="effect1_dropShadow_6252_1107"/>
<feBlend mode="normal" in="SourceGraphic" in2="effect1_dropShadow_6252_1107" result="shape"/>
</filter>
</defs>
</svg>
