<svg width="36" height="28" viewBox="0 0 36 28" fill="none" xmlns="http://www.w3.org/2000/svg">
<g filter="url(#filter0_d_6252_1291)">
<path fill-rule="evenodd" clip-rule="evenodd" d="M4.98671 2.24359C4.7826 3.16233 8.04103 7.99524 9.25542 7.22327C11.4889 5.80407 5.18788 1.33072 4.98671 2.24359ZM11.4894 6.51154C11.4116 6.89313 13.8521 9.25455 14.3866 8.87297C14.9196 8.49432 11.6289 5.82469 11.4894 6.51154ZM22.9229 12.6036C23.7628 12.0738 18.2034 9.02993 18.1197 10.0147C18.0448 10.9305 22.0844 13.1393 22.9229 12.6036ZM22.3126 15.885C22.6195 17.4069 24.9058 18.3198 25.8207 17.7885C26.734 17.2543 22.0013 14.3088 22.3126 15.885ZM28.5642 19.2329C28.7169 19.6145 30.7022 21.4431 31.6905 20.7592C32.6802 20.0709 28.3058 18.5842 28.5642 19.2329ZM25.8981 12.4523C25.1331 14.1298 28.1844 17.024 28.6411 17.1018C29.0978 17.1781 26.4855 11.1637 25.8981 12.4523Z" fill="white"/>
<path d="M4.98671 2.24359L5.10873 2.2707L5.10878 2.27049L4.98671 2.24359ZM9.25542 7.22327L9.18838 7.11777L9.18836 7.11778L9.25542 7.22327ZM11.4894 6.51154L11.6119 6.53652L11.6119 6.53642L11.4894 6.51154ZM14.3866 8.87297L14.3142 8.77106L14.314 8.77123L14.3866 8.87297ZM22.9229 12.6036L22.8562 12.4979L22.8556 12.4983L22.9229 12.6036ZM18.1197 10.0147L17.9951 10.0041L17.9951 10.0045L18.1197 10.0147ZM22.3126 15.885L22.19 15.9092L22.1901 15.9097L22.3126 15.885ZM25.8207 17.7885L25.8834 17.8966L25.8838 17.8964L25.8207 17.7885ZM28.5642 19.2329L28.4481 19.2791L28.4481 19.2793L28.5642 19.2329ZM31.6905 20.7592L31.7616 20.862L31.7618 20.8618L31.6905 20.7592ZM25.8981 12.4523L26.0118 12.5042L26.0119 12.5042L25.8981 12.4523ZM28.6411 17.1018L28.6201 17.225L28.6205 17.2251L28.6411 17.1018ZM4.86468 2.21648C4.83122 2.3671 4.87042 2.5716 4.94298 2.79208C5.01774 3.01922 5.1362 3.28683 5.28585 3.57537C5.58537 4.15286 6.01559 4.82514 6.48995 5.44353C6.9635 6.06086 7.48611 6.63115 7.97186 6.99965C8.21436 7.18362 8.45438 7.3225 8.67981 7.38858C8.90692 7.45514 9.13087 7.45056 9.32248 7.32876L9.18836 7.11778C9.07637 7.18897 8.93286 7.20223 8.75013 7.14867C8.56572 7.09462 8.35353 6.9754 8.12296 6.80048C7.66259 6.45122 7.15565 5.9006 6.68831 5.29137C6.22177 4.68318 5.79976 4.02322 5.50778 3.46027C5.36168 3.17858 5.24957 2.92392 5.18045 2.71392C5.10915 2.49727 5.09117 2.34977 5.10873 2.2707L4.86468 2.21648ZM9.32246 7.32877C9.62809 7.13456 9.79754 6.88001 9.84493 6.58416C9.89141 6.294 9.81796 5.98015 9.67242 5.66561C9.38186 5.03762 8.78213 4.36024 8.11739 3.76573C7.45055 3.16935 6.70583 2.64535 6.11171 2.32681C5.81636 2.16845 5.54955 2.05611 5.34419 2.01472C5.24289 1.99431 5.14204 1.98802 5.05635 2.01378C4.96072 2.04254 4.88792 2.11106 4.86464 2.21669L5.10878 2.27049C5.11065 2.26202 5.11065 2.25851 5.12833 2.25319C5.15595 2.24489 5.20892 2.24249 5.2948 2.2598C5.46381 2.29386 5.70482 2.39232 5.99358 2.54714C6.56769 2.85495 7.29635 3.36683 7.95073 3.95208C8.6072 4.53919 9.17653 5.1892 9.44553 5.77059C9.57977 6.06073 9.63373 6.32206 9.59808 6.54462C9.56334 6.76148 9.44112 6.95717 9.18838 7.11777L9.32246 7.32877ZM11.3669 6.48656C11.3552 6.54413 11.3693 6.602 11.3856 6.64746C11.4031 6.69615 11.43 6.74864 11.4625 6.80263C11.5276 6.91092 11.6233 7.03863 11.7384 7.17559C11.9693 7.45023 12.2883 7.77362 12.6255 8.07206C12.9622 8.36997 13.3222 8.64743 13.6353 8.82706C13.7913 8.91655 13.9418 8.98535 14.0758 9.01813C14.2059 9.04997 14.3479 9.0542 14.4592 8.9747L14.314 8.77123C14.2917 8.78713 14.2404 8.80104 14.1352 8.77528C14.0337 8.75047 13.9064 8.6944 13.7597 8.61021C13.4673 8.44247 13.1217 8.17727 12.7912 7.88483C12.4613 7.59291 12.1513 7.27825 11.9298 7.01472C11.8187 6.8826 11.7323 6.7662 11.6768 6.67381C11.6489 6.62746 11.6308 6.59045 11.6209 6.56282C11.6098 6.53195 11.6139 6.52666 11.6119 6.53652L11.3669 6.48656ZM14.459 8.97487C14.5226 8.92968 14.5582 8.86487 14.5674 8.79237C14.5761 8.72486 14.5616 8.65578 14.5384 8.59189C14.492 8.4644 14.3962 8.31889 14.2758 8.16927C14.0325 7.86711 13.6595 7.51315 13.2691 7.1957C12.8788 6.87842 12.463 6.59102 12.1317 6.42566C11.9686 6.34426 11.8129 6.28562 11.6856 6.27566C11.6212 6.27063 11.5506 6.27685 11.4887 6.3122C11.4217 6.3505 11.3818 6.41337 11.3669 6.48666L11.6119 6.53642C11.6135 6.52871 11.6152 6.5266 11.6147 6.52732C11.6145 6.52761 11.6141 6.52812 11.6135 6.52865C11.613 6.52917 11.6126 6.52934 11.6128 6.52923C11.6143 6.52841 11.6281 6.52193 11.6661 6.5249C11.7433 6.53094 11.8634 6.57114 12.0201 6.64935C12.3284 6.8032 12.7281 7.07808 13.1114 7.38968C13.4944 7.70111 13.8529 8.04263 14.081 8.32605C14.1963 8.46923 14.2713 8.58904 14.3034 8.67734C14.3194 8.72134 14.3211 8.74777 14.3195 8.76063C14.3184 8.7685 14.3172 8.76892 14.3142 8.77106L14.459 8.97487ZM22.9896 12.7093C23.0697 12.6588 23.1226 12.584 23.1326 12.4895C23.1418 12.4027 23.1126 12.3168 23.0709 12.2401C22.9876 12.087 22.8241 11.9162 22.6196 11.7419C22.2059 11.3896 21.5788 10.9855 20.9273 10.6314C20.2758 10.2772 19.5908 9.96811 19.0593 9.80949C18.796 9.73088 18.5578 9.68531 18.3767 9.69673C18.2859 9.70245 18.1963 9.72316 18.1248 9.77337C18.0478 9.82745 18.0033 9.90774 17.9951 10.0041L18.2442 10.0253C18.2465 9.99859 18.2553 9.98725 18.2685 9.97798C18.2872 9.96485 18.3248 9.95049 18.3924 9.94623C18.528 9.93769 18.7314 9.97249 18.9878 10.049C19.4961 10.2007 20.1641 10.5011 20.8079 10.851C21.4518 11.201 22.0623 11.5956 22.4574 11.9323C22.6572 12.1025 22.791 12.2487 22.8513 12.3596C22.8814 12.4149 22.8856 12.4478 22.884 12.4633C22.8831 12.4712 22.881 12.4822 22.8562 12.4979L22.9896 12.7093ZM17.9951 10.0045C17.9821 10.1637 18.058 10.3289 18.1684 10.4835C18.2814 10.6418 18.4445 10.8085 18.6392 10.9757C19.0292 11.3107 19.5613 11.6607 20.1192 11.9633C20.677 12.266 21.2665 12.5245 21.7728 12.6738C22.0256 12.7483 22.262 12.7969 22.4655 12.8085C22.6655 12.82 22.8523 12.797 22.9902 12.709L22.8556 12.4983C22.7838 12.5441 22.661 12.5693 22.4798 12.5589C22.3023 12.5488 22.0861 12.5055 21.8435 12.434C21.3588 12.2911 20.7858 12.0406 20.2384 11.7436C19.6908 11.4465 19.1747 11.1061 18.8021 10.7861C18.6155 10.6258 18.4688 10.4739 18.3719 10.3382C18.2724 10.1989 18.2385 10.0947 18.2442 10.0249L17.9951 10.0045ZM22.1901 15.9097C22.3543 16.7241 23.0414 17.3582 23.784 17.7191C24.1577 17.9008 24.5531 18.0173 24.9173 18.0536C25.2793 18.0897 25.6235 18.0476 25.8834 17.8966L25.7579 17.6804C25.5604 17.7951 25.2757 17.8381 24.9421 17.8049C24.6108 17.7719 24.2439 17.6647 23.8933 17.4943C23.1872 17.1511 22.5778 16.5678 22.4351 15.8603L22.1901 15.9097ZM25.8838 17.8964C25.9632 17.85 26.0215 17.7839 26.0478 17.6986C26.0733 17.616 26.0641 17.5303 26.0384 17.4504C25.9881 17.2943 25.8632 17.1248 25.7047 16.958C25.3835 16.62 24.8767 16.2441 24.3558 15.9376C23.8369 15.6323 23.2869 15.3856 22.8779 15.3189C22.6781 15.2864 22.4793 15.2911 22.3392 15.3903C22.1837 15.5004 22.1465 15.689 22.19 15.9092L22.4352 15.8608C22.4009 15.6869 22.4434 15.6228 22.4836 15.5943C22.5392 15.555 22.6519 15.5354 22.8377 15.5657C23.2 15.6247 23.7177 15.8522 24.229 16.1531C24.7382 16.4527 25.2239 16.8149 25.5234 17.1302C25.6753 17.2899 25.7679 17.4259 25.8004 17.527C25.8161 17.5757 25.8146 17.6065 25.8089 17.6249C25.804 17.6407 25.7923 17.6603 25.7575 17.6806L25.8838 17.8964ZM28.4481 19.2793C28.4751 19.3466 28.534 19.4297 28.6057 19.516C28.6802 19.6056 28.7775 19.709 28.8915 19.8186C29.1195 20.0378 29.4188 20.2857 29.7454 20.5001C30.071 20.7138 30.43 20.8983 30.7765 20.9842C31.1227 21.0701 31.4737 21.0612 31.7616 20.862L31.6193 20.6564C31.4131 20.7992 31.1453 20.8181 30.8366 20.7416C30.5282 20.6651 30.196 20.4968 29.8826 20.2911C29.5703 20.0861 29.2829 19.8481 29.0648 19.6384C28.9557 19.5336 28.8651 19.4369 28.798 19.3561C28.728 19.272 28.6915 19.2145 28.6803 19.1864L28.4481 19.2793ZM31.7618 20.8618C31.8364 20.81 31.8949 20.748 31.9291 20.6739C31.9642 20.5979 31.9694 20.5184 31.9515 20.4412C31.9176 20.2951 31.8025 20.161 31.664 20.0437C31.3815 19.8045 30.9205 19.5684 30.4482 19.3787C29.9738 19.1881 29.4731 19.0384 29.1031 18.9776C28.9219 18.9478 28.7561 18.9364 28.6385 18.9618C28.5809 18.9742 28.5105 19.0006 28.466 19.0628C28.4154 19.1334 28.4222 19.2142 28.4481 19.2791L28.6803 19.1866C28.6739 19.1705 28.6846 19.1868 28.6692 19.2083C28.6599 19.2214 28.656 19.2138 28.6913 19.2062C28.7596 19.1914 28.8854 19.1951 29.0625 19.2242C29.4092 19.2812 29.8917 19.4246 30.355 19.6107C30.8202 19.7975 31.2511 20.0217 31.5024 20.2345C31.6308 20.3433 31.693 20.4331 31.7079 20.4976C31.7144 20.5257 31.7119 20.548 31.7021 20.5692C31.6915 20.5921 31.6683 20.6224 31.6191 20.6566L31.7618 20.8618ZM25.7844 12.4005C25.5738 12.8622 25.6312 13.395 25.8223 13.9184C26.0139 14.4433 26.346 14.9761 26.7123 15.4531C27.0793 15.9308 27.4847 16.3577 27.8281 16.6708C27.9997 16.8272 28.1573 16.9566 28.2881 17.0501C28.3534 17.0969 28.4136 17.1358 28.4666 17.1648C28.5171 17.1924 28.5706 17.2166 28.6201 17.225L28.6621 16.9786C28.6546 16.9773 28.6308 16.9697 28.5867 16.9455C28.5453 16.9228 28.4938 16.8899 28.4335 16.8468C28.313 16.7606 28.1632 16.638 27.9965 16.486C27.6632 16.1821 27.268 15.766 26.9106 15.3008C26.5527 14.8348 26.2368 14.3247 26.0571 13.8327C25.877 13.3392 25.8399 12.8812 26.0118 12.5042L25.7844 12.4005ZM28.6205 17.2251C28.6701 17.2334 28.7258 17.2207 28.7668 17.1764C28.8004 17.1402 28.8113 17.0959 28.8157 17.0662C28.8247 17.0049 28.8162 16.9276 28.8013 16.8481C28.7706 16.6836 28.7011 16.4525 28.6055 16.1843C28.4137 15.6458 28.1095 14.9367 27.7728 14.2664C27.4372 13.5981 27.0646 12.9586 26.7344 12.5655C26.573 12.3734 26.405 12.2191 26.2418 12.1663C26.1545 12.1381 26.0606 12.1365 25.9729 12.1822C25.8883 12.2263 25.8278 12.3052 25.7844 12.4005L26.0119 12.5042C26.0419 12.4383 26.0706 12.4132 26.0885 12.4039C26.1035 12.3961 26.1254 12.3914 26.1649 12.4042C26.2551 12.4334 26.384 12.537 26.543 12.7263C26.8536 13.0961 27.2156 13.7138 27.5494 14.3785C27.8822 15.0412 28.1821 15.7408 28.37 16.2682C28.4644 16.5331 28.5286 16.7493 28.5556 16.894C28.5696 16.9692 28.571 17.012 28.5684 17.0298C28.5669 17.0396 28.5667 17.0246 28.5834 17.0065C28.6076 16.9805 28.6407 16.975 28.6617 16.9785L28.6205 17.2251Z" fill="#868686"/>
</g>
<defs>
<filter id="filter0_d_6252_1291" x="0.852539" y="-0.00317383" width="35.1089" height="27.0391" filterUnits="userSpaceOnUse" color-interpolation-filters="sRGB">
<feFlood flood-opacity="0" result="BackgroundImageFix"/>
<feColorMatrix in="SourceAlpha" type="matrix" values="0 0 0 0 0 0 0 0 0 0 0 0 0 0 0 0 0 0 127 0" result="hardAlpha"/>
<feOffset dy="2"/>
<feGaussianBlur stdDeviation="2"/>
<feColorMatrix type="matrix" values="0 0 0 0 0 0 0 0 0 0 0 0 0 0 0 0 0 0 0.01 0"/>
<feBlend mode="normal" in2="BackgroundImageFix" result="effect1_dropShadow_6252_1291"/>
<feBlend mode="normal" in="SourceGraphic" in2="effect1_dropShadow_6252_1291" result="shape"/>
</filter>
</defs>
</svg>
