<svg width="65" height="79" viewBox="0 0 65 79" fill="none" xmlns="http://www.w3.org/2000/svg">
<g filter="url(#filter0_d_6252_1072)">
<path fill-rule="evenodd" clip-rule="evenodd" d="M48.6687 4.06191C47.654 4.06191 48.0578 6.50405 46.4352 6.50405C44.8068 6.50405 45.4162 8.13166 44.4 8.13166C43.3839 8.13166 42.5689 7.11312 42.5689 7.11312H38.099C38.099 7.11312 37.0828 6.09899 36.472 6.50405C35.8626 6.91059 35.2517 7.31859 35.2517 7.31859H14.2855C14.2855 11.5366 14.2855 14.5393 14.2855 14.5393H11.1035V25.7697C11.1035 25.7697 11.3164 29.157 10.6791 29.3683C10.0433 29.5826 7.7114 30.2151 7.7114 31.2777C7.7114 32.3359 7.49995 33.1841 6.43974 33.397C5.37954 33.6068 6.43974 35.936 4.95663 35.936C3.47059 35.936 5.59246 37.6296 4.74224 38.4823C3.89349 39.3262 4.10641 40.3873 5.16662 40.3873C6.22682 40.3873 5.80245 41.6539 5.80245 42.9263C5.80245 44.1973 7.49995 45.0441 7.49995 45.0441L7.0741 46.5308C7.0741 46.5308 9.40596 49.2841 9.62035 49.9196C9.8318 50.5565 11.102 52.2516 9.8318 52.8857C8.55868 53.5241 9.40596 54.1566 9.40596 54.1566L10.8905 54.3709L11.3149 55.4291C11.3149 55.4291 13.0109 55.4291 14.0726 56.6986C15.1328 57.9681 15.5572 58.1823 15.5572 58.8149C15.5572 59.4548 16.403 59.6632 17.6761 60.7257C18.9463 61.7824 18.9449 62.4194 18.9449 63.0549C18.9449 63.6889 21.2782 64.75 21.2782 64.75L22.0726 66.7284C22.4705 66.9397 22.7907 67.198 22.961 67.628C23.3868 68.6935 24.45 69.329 24.45 69.329C24.45 69.329 25.726 70.1758 26.5733 69.329C27.4235 68.4778 28.4867 69.5433 28.4867 69.5433C28.4867 69.5433 29.5528 68.6935 30.1856 69.1162C30.6203 69.4024 32.5146 70.961 34.1577 72.4639C34.4 72.3714 35.9962 71.7888 36.6981 71.7183C37.4602 71.642 38.5278 72.9364 38.8317 72.48C39.1386 72.0221 40.7392 71.3382 41.3486 71.6435C41.9595 71.9487 43.4044 72.0236 43.4822 71.4923C43.5322 71.1283 44.1841 70.7644 44.6452 70.3754C44.8596 70.1964 45.0373 70.0115 45.0843 69.8148C45.2355 69.2057 47.0667 68.1373 47.8258 67.9832C48.5909 67.8335 49.5057 67.7572 49.8875 68.2136C50.0652 68.4279 50.3926 68.5878 50.7436 68.7331C51.0035 66.7827 51.4338 65.7157 50.7994 65.7157C49.9507 65.7157 48.2487 64.8674 47.6129 63.1664C46.9742 61.4669 45.0608 60.4073 44.6394 59.3432C44.2106 58.2807 41.8743 58.4993 41.4499 57.6481C41.0241 56.7954 42.0902 56.7954 42.0902 55.7343C42.0902 54.6718 44.6394 55.3102 44.8493 55.0959C45.0623 54.8816 45.2752 52.5525 45.2752 51.2727C45.2752 50.0018 46.9756 48.7264 46.3383 48.088C45.701 47.451 46.9771 47.2411 47.8273 46.6027C48.679 45.9599 48.0388 44.0534 48.8904 43.2037C49.7392 42.3554 50.3765 40.6573 51.0153 40.6573C51.654 40.6573 52.4998 39.8061 52.4998 38.9549C52.4998 38.1066 53.9888 36.4071 53.7788 34.9204C53.563 33.4336 52.9272 31.5228 53.9888 30.2459C55.052 28.975 55.4778 27.9124 55.2663 26.8498C55.052 25.7887 56.5395 25.5759 57.1797 24.9405C57.629 24.487 59.2502 23.8162 60.4602 21.8804C59.6863 20.9324 58.8567 20.153 58.3251 19.9109C57.1048 19.3532 56.2913 17.2207 56.2913 14.5276C56.2913 11.833 55.6305 9.70056 55.5277 8.84053C55.4279 7.97756 54.1063 6.14448 52.5321 5.28152C51.4176 4.67245 50.795 3.75665 50.61 2.69995C50.5777 2.74545 50.5263 2.79975 50.4969 2.84378C49.4837 4.27032 49.6849 4.06191 48.6687 4.06191Z" fill="white"/>
<path fill-rule="evenodd" clip-rule="evenodd" d="M48.6687 4.06191C47.654 4.06191 48.0578 6.50405 46.4352 6.50405C44.8068 6.50405 45.4162 8.13166 44.4 8.13166C43.3839 8.13166 42.5689 7.11312 42.5689 7.11312H38.099C38.099 7.11312 37.0828 6.09899 36.472 6.50405C35.8626 6.91059 35.2517 7.31859 35.2517 7.31859H14.2855C14.2855 11.5366 14.2855 14.5393 14.2855 14.5393H11.1035V25.7697C11.1035 25.7697 11.3164 29.157 10.6791 29.3683C10.0433 29.5826 7.7114 30.2151 7.7114 31.2777C7.7114 32.3359 7.49995 33.1841 6.43974 33.397C5.37954 33.6068 6.43974 35.936 4.95663 35.936C3.47059 35.936 5.59246 37.6296 4.74224 38.4823C3.89349 39.3262 4.10641 40.3873 5.16662 40.3873C6.22682 40.3873 5.80245 41.6539 5.80245 42.9263C5.80245 44.1973 7.49995 45.0441 7.49995 45.0441L7.0741 46.5308C7.0741 46.5308 9.40596 49.2841 9.62035 49.9196C9.8318 50.5565 11.102 52.2516 9.8318 52.8857C8.55868 53.5241 9.40596 54.1566 9.40596 54.1566L10.8905 54.3709L11.3149 55.4291C11.3149 55.4291 13.0109 55.4291 14.0726 56.6986C15.1328 57.9681 15.5572 58.1823 15.5572 58.8149C15.5572 59.4548 16.403 59.6632 17.6761 60.7257C18.9463 61.7824 18.9449 62.4194 18.9449 63.0549C18.9449 63.6889 21.2782 64.75 21.2782 64.75L22.0726 66.7284C22.4705 66.9397 22.7907 67.198 22.961 67.628C23.3868 68.6935 24.45 69.329 24.45 69.329C24.45 69.329 25.726 70.1758 26.5733 69.329C27.4235 68.4778 28.4867 69.5433 28.4867 69.5433C28.4867 69.5433 29.5528 68.6935 30.1856 69.1162C30.6203 69.4024 32.5146 70.961 34.1577 72.4639C34.4 72.3714 35.9962 71.7888 36.6981 71.7183C37.4602 71.642 38.5278 72.9364 38.8317 72.48C39.1386 72.0221 40.7392 71.3382 41.3486 71.6435C41.9595 71.9487 43.4044 72.0236 43.4822 71.4923C43.5322 71.1283 44.1841 70.7644 44.6452 70.3754C44.8596 70.1964 45.0373 70.0115 45.0843 69.8148C45.2355 69.2057 47.0667 68.1373 47.8258 67.9832C48.5909 67.8335 49.5057 67.7572 49.8875 68.2136C50.0652 68.4279 50.3926 68.5878 50.7436 68.7331C51.0035 66.7827 51.4338 65.7157 50.7994 65.7157C49.9507 65.7157 48.2487 64.8674 47.6129 63.1664C46.9742 61.4669 45.0608 60.4073 44.6394 59.3432C44.2106 58.2807 41.8743 58.4993 41.4499 57.6481C41.0241 56.7954 42.0902 56.7954 42.0902 55.7343C42.0902 54.6718 44.6394 55.3102 44.8493 55.0959C45.0623 54.8816 45.2752 52.5525 45.2752 51.2727C45.2752 50.0018 46.9756 48.7264 46.3383 48.088C45.701 47.451 46.9771 47.2411 47.8273 46.6027C48.679 45.9599 48.0388 44.0534 48.8904 43.2037C49.7392 42.3554 50.3765 40.6573 51.0153 40.6573C51.654 40.6573 52.4998 39.8061 52.4998 38.9549C52.4998 38.1066 53.9888 36.4071 53.7788 34.9204C53.563 33.4336 52.9272 31.5228 53.9888 30.2459C55.052 28.975 55.4778 27.9124 55.2663 26.8498C55.052 25.7887 56.5395 25.5759 57.1797 24.9405C57.629 24.487 59.2502 23.8162 60.4602 21.8804C59.6863 20.9324 58.8567 20.153 58.3251 19.9109C57.1048 19.3532 56.2913 17.2207 56.2913 14.5276C56.2913 11.833 55.6305 9.70056 55.5277 8.84053C55.4279 7.97756 54.1063 6.14448 52.5321 5.28152C51.4176 4.67245 50.795 3.75665 50.61 2.69995C50.5777 2.74545 50.5263 2.79975 50.4969 2.84378C49.4837 4.27032 49.6849 4.06191 48.6687 4.06191Z" stroke="#868686" stroke-width="0.25"/>
</g>
<defs>
<filter id="filter0_d_6252_1072" x="0.09375" y="0.383423" width="64.52" height="78.3193" filterUnits="userSpaceOnUse" color-interpolation-filters="sRGB">
<feFlood flood-opacity="0" result="BackgroundImageFix"/>
<feColorMatrix in="SourceAlpha" type="matrix" values="0 0 0 0 0 0 0 0 0 0 0 0 0 0 0 0 0 0 127 0" result="hardAlpha"/>
<feOffset dy="2"/>
<feGaussianBlur stdDeviation="2"/>
<feColorMatrix type="matrix" values="0 0 0 0 0 0 0 0 0 0 0 0 0 0 0 0 0 0 0.01 0"/>
<feBlend mode="normal" in2="BackgroundImageFix" result="effect1_dropShadow_6252_1072"/>
<feBlend mode="normal" in="SourceGraphic" in2="effect1_dropShadow_6252_1072" result="shape"/>
</filter>
</defs>
</svg>
