<svg width="29" height="17" viewBox="0 0 29 17" fill="none" xmlns="http://www.w3.org/2000/svg">
<g filter="url(#filter0_d_6252_1106)">
<path fill-rule="evenodd" clip-rule="evenodd" d="M19.1481 3.26338C18.0145 3.37345 17.4447 2.69394 16.5387 3.0359C15.6312 3.37345 14.1525 3.0359 13.5872 2.69541C13.016 2.35638 12.3376 3.37492 11.5417 2.92289C11.3655 2.82162 11.2186 2.67779 11.0894 2.51782C10.4095 2.895 9.59307 3.45417 9.09821 4.1557C8.14227 5.52207 6.7781 5.65856 5.82069 5.79358C5.43009 5.85228 5.11144 6.34394 4.86621 6.90604C5.17752 7.71177 5.7502 9.00916 6.43302 9.61676C7.45504 10.5282 11.0865 10.4122 11.0865 9.61676C11.0865 8.82424 14.038 8.48228 14.7193 8.48228C15.4022 8.48228 17.5622 6.32486 17.9 6.4408C18.2421 6.55381 20.5108 6.89577 21.0791 7.46228C21.3596 7.74259 22.2832 8.02291 23.2406 8.23719C22.8397 7.88349 22.5211 7.42705 22.5211 7.04987C22.5211 6.44227 23.6679 4.84108 24.0468 4.53728C24.0776 4.51234 24.0938 4.46831 24.1143 4.43015C23.2406 4.29806 22.2817 4.12048 22.1011 3.94289C21.7604 3.59947 20.2817 3.14744 19.1481 3.26338Z" fill="white"/>
<path fill-rule="evenodd" clip-rule="evenodd" d="M19.1481 3.26338C18.0145 3.37345 17.4447 2.69394 16.5387 3.0359C15.6312 3.37345 14.1525 3.0359 13.5872 2.69541C13.016 2.35638 12.3376 3.37492 11.5417 2.92289C11.3655 2.82162 11.2186 2.67779 11.0894 2.51782C10.4095 2.895 9.59307 3.45417 9.09821 4.1557C8.14227 5.52207 6.7781 5.65856 5.82069 5.79358C5.43009 5.85228 5.11144 6.34394 4.86621 6.90604C5.17752 7.71177 5.7502 9.00916 6.43302 9.61676C7.45504 10.5282 11.0865 10.4122 11.0865 9.61676C11.0865 8.82424 14.038 8.48228 14.7193 8.48228C15.4022 8.48228 17.5622 6.32486 17.9 6.4408C18.2421 6.55381 20.5108 6.89577 21.0791 7.46228C21.3596 7.74259 22.2832 8.02291 23.2406 8.23719C22.8397 7.88349 22.5211 7.42705 22.5211 7.04987C22.5211 6.44227 23.6679 4.84108 24.0468 4.53728C24.0776 4.51234 24.0938 4.46831 24.1143 4.43015C23.2406 4.29806 22.2817 4.12048 22.1011 3.94289C21.7604 3.59947 20.2817 3.14744 19.1481 3.26338Z" stroke="#868686" stroke-width="0.25"/>
</g>
<defs>
<filter id="filter0_d_6252_1106" x="0.730957" y="0.357544" width="27.5776" height="16.025" filterUnits="userSpaceOnUse" color-interpolation-filters="sRGB">
<feFlood flood-opacity="0" result="BackgroundImageFix"/>
<feColorMatrix in="SourceAlpha" type="matrix" values="0 0 0 0 0 0 0 0 0 0 0 0 0 0 0 0 0 0 127 0" result="hardAlpha"/>
<feOffset dy="2"/>
<feGaussianBlur stdDeviation="2"/>
<feColorMatrix type="matrix" values="0 0 0 0 0 0 0 0 0 0 0 0 0 0 0 0 0 0 0.01 0"/>
<feBlend mode="normal" in2="BackgroundImageFix" result="effect1_dropShadow_6252_1106"/>
<feBlend mode="normal" in="SourceGraphic" in2="effect1_dropShadow_6252_1106" result="shape"/>
</filter>
</defs>
</svg>
