<svg width="19" height="20" viewBox="0 0 19 20" fill="none" xmlns="http://www.w3.org/2000/svg">
<g filter="url(#filter0_d_6252_1061)">
<path fill-rule="evenodd" clip-rule="evenodd" d="M13.9988 9.93289C14.1515 9.24751 14.6097 8.55772 14.2279 7.95159C13.8476 7.34105 13.7712 6.6542 13.7712 5.89397C13.7712 5.13373 11.7874 2.46558 11.0252 2.46558C10.2646 2.46558 9.27341 3.15243 8.43494 2.99979C7.59647 2.84716 6.90778 2.54189 6.83436 3.38138C6.78149 3.95229 5.46285 5.11612 4.479 5.94974C4.6699 6.34453 4.84611 6.7584 4.97974 7.21337C5.79178 10.0063 6.55536 10.5684 7.72275 11.5282C8.25139 11.97 9.28369 12.6201 10.4731 13.3745C10.7639 12.8241 11.0429 12.3868 11.2543 12.218C12.0164 11.6089 13.8476 10.6183 13.9988 9.93289Z" fill="white"/>
<path fill-rule="evenodd" clip-rule="evenodd" d="M13.9988 9.93289C14.1515 9.24751 14.6097 8.55772 14.2279 7.95159C13.8476 7.34105 13.7712 6.6542 13.7712 5.89397C13.7712 5.13373 11.7874 2.46558 11.0252 2.46558C10.2646 2.46558 9.27341 3.15243 8.43494 2.99979C7.59647 2.84716 6.90778 2.54189 6.83436 3.38138C6.78149 3.95229 5.46285 5.11612 4.479 5.94974C4.6699 6.34453 4.84611 6.7584 4.97974 7.21337C5.79178 10.0063 6.55536 10.5684 7.72275 11.5282C8.25139 11.97 9.28369 12.6201 10.4731 13.3745C10.7639 12.8241 11.0429 12.3868 11.2543 12.218C12.0164 11.6089 13.8476 10.6183 13.9988 9.93289Z" stroke="#868686" stroke-width="0.25"/>
</g>
<defs>
<filter id="filter0_d_6252_1061" x="0.324219" y="0.340576" width="18.1768" height="19.2119" filterUnits="userSpaceOnUse" color-interpolation-filters="sRGB">
<feFlood flood-opacity="0" result="BackgroundImageFix"/>
<feColorMatrix in="SourceAlpha" type="matrix" values="0 0 0 0 0 0 0 0 0 0 0 0 0 0 0 0 0 0 127 0" result="hardAlpha"/>
<feOffset dy="2"/>
<feGaussianBlur stdDeviation="2"/>
<feColorMatrix type="matrix" values="0 0 0 0 0 0 0 0 0 0 0 0 0 0 0 0 0 0 0.01 0"/>
<feBlend mode="normal" in2="BackgroundImageFix" result="effect1_dropShadow_6252_1061"/>
<feBlend mode="normal" in="SourceGraphic" in2="effect1_dropShadow_6252_1061" result="shape"/>
</filter>
</defs>
</svg>
