<svg width="29" height="24" viewBox="0 0 29 24" fill="none" xmlns="http://www.w3.org/2000/svg">
<g filter="url(#filter0_d_6252_1050)">
<path fill-rule="evenodd" clip-rule="evenodd" d="M8.27933 17.1879C8.92103 17.2525 10.2088 16.4145 10.2088 16.4145C10.2088 16.4145 14.5157 16.093 15.2206 16.0299C15.4702 16.0079 15.7874 16.1165 16.0884 16.2589C16.1016 16.0769 16.0987 15.9433 16.0987 15.9433C16.0987 15.9433 18.3865 16.3968 18.5392 16.9311C18.6905 17.4638 21.8153 17.8439 23.57 17.2378C23.6978 17.1908 23.8226 17.1468 23.9489 17.1013C23.9709 16.4027 23.9973 15.2712 23.9269 14.9248C23.8241 14.417 22.7081 13.3045 22.0972 12.6925C21.4878 12.0805 21.5877 10.5601 21.5877 10.5601L20.9577 9.62078C20.9577 9.62078 20.4717 7.68938 19.0223 7.20506C17.573 6.72514 16.6053 4.06432 16.6053 4.06432H15.3968C15.3968 4.06432 14.432 2.86087 13.4673 2.37508C12.4996 1.89223 10.8094 2.61577 10.8094 2.61577C10.8094 2.61577 8.87404 2.86087 7.66699 2.61577C6.45848 2.37508 6.69783 4.06432 5.73161 4.30795C5.69343 4.31822 5.62001 4.33877 5.55686 4.35198C5.44673 5.33529 5.27933 6.34062 4.76832 7.09939C3.65379 8.77983 5.22647 11.2161 6.03851 11.9763C6.20738 12.1363 6.2573 12.3638 6.24409 12.6265C8.0943 12.8143 9.1222 12.6206 10.595 11.9162C12.0737 11.2102 12.2044 13.2018 13.874 13.3324C15.5451 13.4586 15.7389 13.5907 15.7389 13.5907C15.7389 13.5907 14.6464 14.2937 13.6171 14.1675C12.5906 14.0369 11.432 12.7512 10.7243 13.3955C10.0165 14.0384 7.83292 14.4243 6.80356 14.4875C6.63469 14.4977 6.27346 14.5799 5.79769 14.6988C5.7228 15.2697 5.77272 15.8303 6.18976 16.3014C6.32045 16.4482 6.43058 16.5774 6.53777 16.7124C8.27639 16.2692 7.73894 17.1307 8.27933 17.1879Z" fill="white"/>
<path fill-rule="evenodd" clip-rule="evenodd" d="M8.27933 17.1879C8.92103 17.2525 10.2088 16.4145 10.2088 16.4145C10.2088 16.4145 14.5157 16.093 15.2206 16.0299C15.4702 16.0079 15.7874 16.1165 16.0884 16.2589C16.1016 16.0769 16.0987 15.9433 16.0987 15.9433C16.0987 15.9433 18.3865 16.3968 18.5392 16.9311C18.6905 17.4638 21.8153 17.8439 23.57 17.2378C23.6978 17.1908 23.8226 17.1468 23.9489 17.1013C23.9709 16.4027 23.9973 15.2712 23.9269 14.9248C23.8241 14.417 22.7081 13.3045 22.0972 12.6925C21.4878 12.0805 21.5877 10.5601 21.5877 10.5601L20.9577 9.62078C20.9577 9.62078 20.4717 7.68938 19.0223 7.20506C17.573 6.72514 16.6053 4.06432 16.6053 4.06432H15.3968C15.3968 4.06432 14.432 2.86087 13.4673 2.37508C12.4996 1.89223 10.8094 2.61577 10.8094 2.61577C10.8094 2.61577 8.87404 2.86087 7.66699 2.61577C6.45848 2.37508 6.69783 4.06432 5.73161 4.30795C5.69343 4.31822 5.62001 4.33877 5.55686 4.35198C5.44673 5.33529 5.27933 6.34062 4.76832 7.09939C3.65379 8.77983 5.22647 11.2161 6.03851 11.9763C6.20738 12.1363 6.2573 12.3638 6.24409 12.6265C8.0943 12.8143 9.1222 12.6206 10.595 11.9162C12.0737 11.2102 12.2044 13.2018 13.874 13.3324C15.5451 13.4586 15.7389 13.5907 15.7389 13.5907C15.7389 13.5907 14.6464 14.2937 13.6171 14.1675C12.5906 14.0369 11.432 12.7512 10.7243 13.3955C10.0165 14.0384 7.83292 14.4243 6.80356 14.4875C6.63469 14.4977 6.27346 14.5799 5.79769 14.6988C5.7228 15.2697 5.77272 15.8303 6.18976 16.3014C6.32045 16.4482 6.43058 16.5774 6.53777 16.7124C8.27639 16.2692 7.73894 17.1307 8.27933 17.1879Z" stroke="#868686" stroke-width="0.25"/>
</g>
<defs>
<filter id="filter0_d_6252_1050" x="0.257324" y="0.0839844" width="27.8403" height="23.5889" filterUnits="userSpaceOnUse" color-interpolation-filters="sRGB">
<feFlood flood-opacity="0" result="BackgroundImageFix"/>
<feColorMatrix in="SourceAlpha" type="matrix" values="0 0 0 0 0 0 0 0 0 0 0 0 0 0 0 0 0 0 127 0" result="hardAlpha"/>
<feOffset dy="2"/>
<feGaussianBlur stdDeviation="2"/>
<feColorMatrix type="matrix" values="0 0 0 0 0 0 0 0 0 0 0 0 0 0 0 0 0 0 0.01 0"/>
<feBlend mode="normal" in2="BackgroundImageFix" result="effect1_dropShadow_6252_1050"/>
<feBlend mode="normal" in="SourceGraphic" in2="effect1_dropShadow_6252_1050" result="shape"/>
</filter>
</defs>
</svg>
