<svg width="13" height="14" viewBox="0 0 13 14" fill="none" xmlns="http://www.w3.org/2000/svg">
<g filter="url(#filter0_d_6252_1036)">
<path fill-rule="evenodd" clip-rule="evenodd" d="M6.59506 2.11829C5.74631 2.11829 4.25732 4.16857 4.25732 4.59271C4.25732 5.01686 5.32046 7.70997 6.38214 7.78188C7.44821 7.85086 8.22354 7.78188 8.29696 7.0011C8.32927 6.61658 8.6068 6.30251 8.87699 6.08236C8.79329 5.41459 8.61708 3.98658 8.55687 3.12508C7.93132 2.70681 7.14425 2.11829 6.59506 2.11829Z" fill="white"/>
<path fill-rule="evenodd" clip-rule="evenodd" d="M6.59506 2.11829C5.74631 2.11829 4.25732 4.16857 4.25732 4.59271C4.25732 5.01686 5.32046 7.70997 6.38214 7.78188C7.44821 7.85086 8.22354 7.78188 8.29696 7.0011C8.32927 6.61658 8.6068 6.30251 8.87699 6.08236C8.79329 5.41459 8.61708 3.98658 8.55687 3.12508C7.93132 2.70681 7.14425 2.11829 6.59506 2.11829Z" stroke="#868686" stroke-width="0.25"/>
</g>
<defs>
<filter id="filter0_d_6252_1036" x="0.132324" y="-0.00671387" width="12.8774" height="13.9341" filterUnits="userSpaceOnUse" color-interpolation-filters="sRGB">
<feFlood flood-opacity="0" result="BackgroundImageFix"/>
<feColorMatrix in="SourceAlpha" type="matrix" values="0 0 0 0 0 0 0 0 0 0 0 0 0 0 0 0 0 0 127 0" result="hardAlpha"/>
<feOffset dy="2"/>
<feGaussianBlur stdDeviation="2"/>
<feColorMatrix type="matrix" values="0 0 0 0 0 0 0 0 0 0 0 0 0 0 0 0 0 0 0.01 0"/>
<feBlend mode="normal" in2="BackgroundImageFix" result="effect1_dropShadow_6252_1036"/>
<feBlend mode="normal" in="SourceGraphic" in2="effect1_dropShadow_6252_1036" result="shape"/>
</filter>
</defs>
</svg>
