<svg width="44" height="66" viewBox="0 0 44 66" fill="none" xmlns="http://www.w3.org/2000/svg">
<g filter="url(#filter0_d_6252_1067)">
<path fill-rule="evenodd" clip-rule="evenodd" d="M39.1022 16.3592L12.8644 2.25525L9.79246 3.91808C9.8791 5.58971 9.99511 7.83812 9.99511 8.33418C9.99511 9.14725 11.5179 10.1658 11.4165 11.4837C11.3167 12.8046 12.4312 12.7004 12.0245 14.1225C11.6221 15.5505 11.4165 16.7672 11.4165 17.7813C11.4165 18.7955 11.4195 26.0074 11.0142 26.3112C10.606 26.6194 5.82919 31.3951 5.52375 33.2252C5.21979 35.0495 4.81303 34.3392 4.81303 36.1678C4.81303 36.5025 4.80569 36.8796 4.79395 37.2774C5.05533 37.3669 5.17427 37.6501 5.52082 37.9965C6.03183 38.5043 6.03183 39.4186 7.04504 39.4186C8.06266 39.4186 9.28292 41.7566 9.18013 42.6694C9.08028 43.5882 9.68968 44.0916 9.58689 45.7207C9.48703 47.3424 10.5002 49.6789 11.0142 49.9841C11.5193 50.2894 10.8057 50.5947 9.58689 50.4934C8.36809 50.3892 6.64122 50.3936 6.64122 50.8999C6.64122 51.4063 6.13168 52.1166 7.4518 53.3391C8.77631 54.5558 9.89232 54.9594 10.2991 56.2817C10.7058 57.6041 11.211 58.8222 11.6207 59.126C12.023 59.4342 12.838 59.3315 13.5487 58.3159C14.2609 57.2988 15.0759 59.2258 15.7851 58.3159C16.4958 57.3986 18.9363 57.5013 19.5472 57.1961C20.1581 56.8908 21.9848 56.0792 22.5957 55.5714C23.2051 55.0636 21.8849 54.2505 22.7998 53.7427C23.7131 53.2364 26.5619 54.1493 27.6779 52.7301C28.7954 51.3035 30.5237 49.7831 31.0318 49.2753C31.5398 48.7675 31.0318 48.3624 31.7425 47.6477C32.4503 46.9417 33.8761 46.1272 34.5854 46.5337C34.7439 46.6232 34.9583 46.6585 35.183 46.6673C35.1155 46.5866 35.0729 46.5367 35.0729 46.5367L35.4987 45.0499C35.4987 45.0499 33.8012 44.2031 33.8012 42.9322C33.8012 41.6597 34.2256 40.3931 33.1654 40.3931C32.1052 40.3931 31.8923 39.3321 32.741 38.4882C33.5898 37.6355 31.4694 35.9418 32.9554 35.9418C34.4385 35.9418 33.3783 33.6112 34.4385 33.4028C35.5002 33.1885 35.7102 32.3402 35.7102 31.2836C35.7102 30.221 38.042 29.5884 38.6779 29.3742C39.3152 29.1614 39.1022 25.7755 39.1022 25.7755V16.3592Z" fill="white"/>
<path fill-rule="evenodd" clip-rule="evenodd" d="M39.1022 16.3592L12.8644 2.25525L9.79246 3.91808C9.8791 5.58971 9.99511 7.83812 9.99511 8.33418C9.99511 9.14725 11.5179 10.1658 11.4165 11.4837C11.3167 12.8046 12.4312 12.7004 12.0245 14.1225C11.6221 15.5505 11.4165 16.7672 11.4165 17.7813C11.4165 18.7955 11.4195 26.0074 11.0142 26.3112C10.606 26.6194 5.82919 31.3951 5.52375 33.2252C5.21979 35.0495 4.81303 34.3392 4.81303 36.1678C4.81303 36.5025 4.80569 36.8796 4.79395 37.2774C5.05533 37.3669 5.17427 37.6501 5.52082 37.9965C6.03183 38.5043 6.03183 39.4186 7.04504 39.4186C8.06266 39.4186 9.28292 41.7566 9.18013 42.6694C9.08028 43.5882 9.68968 44.0916 9.58689 45.7207C9.48703 47.3424 10.5002 49.6789 11.0142 49.9841C11.5193 50.2894 10.8057 50.5947 9.58689 50.4934C8.36809 50.3892 6.64122 50.3936 6.64122 50.8999C6.64122 51.4063 6.13168 52.1166 7.4518 53.3391C8.77631 54.5558 9.89232 54.9594 10.2991 56.2817C10.7058 57.6041 11.211 58.8222 11.6207 59.126C12.023 59.4342 12.838 59.3315 13.5487 58.3159C14.2609 57.2988 15.0759 59.2258 15.7851 58.3159C16.4958 57.3986 18.9363 57.5013 19.5472 57.1961C20.1581 56.8908 21.9848 56.0792 22.5957 55.5714C23.2051 55.0636 21.8849 54.2505 22.7998 53.7427C23.7131 53.2364 26.5619 54.1493 27.6779 52.7301C28.7954 51.3035 30.5237 49.7831 31.0318 49.2753C31.5398 48.7675 31.0318 48.3624 31.7425 47.6477C32.4503 46.9417 33.8761 46.1272 34.5854 46.5337C34.7439 46.6232 34.9583 46.6585 35.183 46.6673C35.1155 46.5866 35.0729 46.5367 35.0729 46.5367L35.4987 45.0499C35.4987 45.0499 33.8012 44.2031 33.8012 42.9322C33.8012 41.6597 34.2256 40.3931 33.1654 40.3931C32.1052 40.3931 31.8923 39.3321 32.741 38.4882C33.5898 37.6355 31.4694 35.9418 32.9554 35.9418C34.4385 35.9418 33.3783 33.6112 34.4385 33.4028C35.5002 33.1885 35.7102 32.3402 35.7102 31.2836C35.7102 30.221 38.042 29.5884 38.6779 29.3742C39.3152 29.1614 39.1022 25.7755 39.1022 25.7755V16.3592Z" stroke="#868686" stroke-width="0.25"/>
</g>
<defs>
<filter id="filter0_d_6252_1067" x="0.666504" y="0.113281" width="42.5947" height="65.2925" filterUnits="userSpaceOnUse" color-interpolation-filters="sRGB">
<feFlood flood-opacity="0" result="BackgroundImageFix"/>
<feColorMatrix in="SourceAlpha" type="matrix" values="0 0 0 0 0 0 0 0 0 0 0 0 0 0 0 0 0 0 127 0" result="hardAlpha"/>
<feOffset dy="2"/>
<feGaussianBlur stdDeviation="2"/>
<feColorMatrix type="matrix" values="0 0 0 0 0 0 0 0 0 0 0 0 0 0 0 0 0 0 0.01 0"/>
<feBlend mode="normal" in2="BackgroundImageFix" result="effect1_dropShadow_6252_1067"/>
<feBlend mode="normal" in="SourceGraphic" in2="effect1_dropShadow_6252_1067" result="shape"/>
</filter>
</defs>
</svg>
