<svg width="36" height="61" viewBox="0 0 36 61" fill="none" xmlns="http://www.w3.org/2000/svg">
<g filter="url(#filter0_d_6252_1098)">
<path fill-rule="evenodd" clip-rule="evenodd" d="M21.4594 29.9463C21.4594 28.4801 19.991 28.4801 21.3155 26.8672C22.6312 25.2528 24.6856 24.0816 26.0057 24.5219C27.3258 24.9622 29.966 23.7881 30.6988 24.6702C30.8309 24.8257 30.9822 24.9402 31.1393 25.0429C32.3008 23.7456 31.4565 22.6639 31.5828 21.1537C31.7281 19.3911 30.2597 17.7767 29.2333 17.4832C28.2054 17.1896 29.966 13.9623 28.9396 13.3797C27.9132 12.7911 27.1819 11.7682 26.4477 10.8862C25.712 10.0056 23.5123 10.302 23.2201 11.0329C22.9264 11.7697 21.4594 12.2085 21.0174 11.6214C20.5798 11.0329 19.7003 10.8832 18.524 11.7697C17.3508 12.6488 15.7384 14.2573 15.4448 12.9394C15.1511 11.6229 16.3258 11.7697 16.3258 10.2991C16.3258 8.83441 17.06 8.09912 16.6166 6.63589C16.176 5.1712 14.7105 6.78266 14.2671 5.75238C13.831 4.72944 14.2715 3.55533 13.9749 3.11651C13.8838 2.97562 13.6166 2.72465 13.3038 2.44434C13.0498 2.57496 12.8295 2.72172 12.7399 2.94333C12.4668 3.61991 10.1628 3.75787 9.61952 4.70449C9.0762 5.65552 7.44771 5.52049 7.03802 5.52049C6.62833 5.52049 5.27445 5.65698 5.13935 6.60654C5.00425 7.55463 4.46094 11.3543 4.46094 12.0338C4.46094 12.709 6.35814 14.8796 7.03802 15.1511C7.71644 15.4211 6.89999 17.0502 7.71644 17.4567C8.53435 17.8603 7.99103 19.2179 7.58134 19.08C7.17459 18.9479 7.853 20.847 7.03802 21.5236C6.22305 22.2016 6.89999 23.9686 8.26269 25.1897C9.61952 26.4078 9.61952 28.307 9.61952 29.3945C9.61952 30.4776 10.7032 30.6155 10.7032 31.9672C10.7032 31.9672 9.08207 37.8833 7.75462 37.6294C7.47121 39.1087 7.11291 41.4291 6.78692 42.6898C6.38164 44.2616 6.07767 45.6324 6.99103 45.7366C7.90439 45.8349 9.73405 47.9189 11.5123 50.1571C11.9455 50.7001 12.2788 51.271 12.5402 51.8522C13.1555 51.8199 13.8442 51.8581 14.5343 51.9872C15.8853 52.2411 16.2216 53.3389 16.2216 54.0125C16.2216 54.6906 18.5094 54.4367 18.9323 54.3516C19.2553 54.287 18.8398 53.336 19.9895 52.9661C19.2994 51.9843 17.505 50.794 16.0336 50.6634C14.3082 50.5108 13.4947 47.9204 13.6474 46.7522C13.8001 45.5839 12.3757 44.5683 12.3757 43.5527C12.3757 42.5371 11.3625 42.4858 10.1937 41.9251C9.02333 41.3674 10.4462 37.9141 10.599 36.442C10.7502 34.9715 13.1907 30.7535 12.48 29.4356C11.7678 28.1162 14.9661 27.0991 15.3787 28.5667C15.7825 30.0432 15.9352 30.7535 17.969 30.6522C20.0027 30.5539 20.0028 32.1243 21.6268 32.5851C21.7223 32.6086 21.7869 32.6541 21.8676 32.6864C21.8779 32.6541 21.8882 32.613 21.9 32.5851C22.3405 31.4139 21.4594 31.4139 21.4594 29.9463Z" fill="white"/>
<path fill-rule="evenodd" clip-rule="evenodd" d="M21.4594 29.9463C21.4594 28.4801 19.991 28.4801 21.3155 26.8672C22.6312 25.2528 24.6856 24.0816 26.0057 24.5219C27.3258 24.9622 29.966 23.7881 30.6988 24.6702C30.8309 24.8257 30.9822 24.9402 31.1393 25.0429C32.3008 23.7456 31.4565 22.6639 31.5828 21.1537C31.7281 19.3911 30.2597 17.7767 29.2333 17.4832C28.2054 17.1896 29.966 13.9623 28.9396 13.3797C27.9132 12.7911 27.1819 11.7682 26.4477 10.8862C25.712 10.0056 23.5123 10.302 23.2201 11.0329C22.9264 11.7697 21.4594 12.2085 21.0174 11.6214C20.5798 11.0329 19.7003 10.8832 18.524 11.7697C17.3508 12.6488 15.7384 14.2573 15.4448 12.9394C15.1511 11.6229 16.3258 11.7697 16.3258 10.2991C16.3258 8.83441 17.06 8.09912 16.6166 6.63589C16.176 5.1712 14.7105 6.78266 14.2671 5.75238C13.831 4.72944 14.2715 3.55533 13.9749 3.11651C13.8838 2.97562 13.6166 2.72465 13.3038 2.44434C13.0498 2.57496 12.8295 2.72172 12.7399 2.94333C12.4668 3.61991 10.1628 3.75787 9.61952 4.70449C9.0762 5.65552 7.44771 5.52049 7.03802 5.52049C6.62833 5.52049 5.27445 5.65698 5.13935 6.60654C5.00425 7.55463 4.46094 11.3543 4.46094 12.0338C4.46094 12.709 6.35814 14.8796 7.03802 15.1511C7.71644 15.4211 6.89999 17.0502 7.71644 17.4567C8.53435 17.8603 7.99103 19.2179 7.58134 19.08C7.17459 18.9479 7.853 20.847 7.03802 21.5236C6.22305 22.2016 6.89999 23.9686 8.26269 25.1897C9.61952 26.4078 9.61952 28.307 9.61952 29.3945C9.61952 30.4776 10.7032 30.6155 10.7032 31.9672C10.7032 31.9672 9.08207 37.8833 7.75462 37.6294C7.47121 39.1087 7.11291 41.4291 6.78692 42.6898C6.38164 44.2616 6.07767 45.6324 6.99103 45.7366C7.90439 45.8349 9.73405 47.9189 11.5123 50.1571C11.9455 50.7001 12.2788 51.271 12.5402 51.8522C13.1555 51.8199 13.8442 51.8581 14.5343 51.9872C15.8853 52.2411 16.2216 53.3389 16.2216 54.0125C16.2216 54.6906 18.5094 54.4367 18.9323 54.3516C19.2553 54.287 18.8398 53.336 19.9895 52.9661C19.2994 51.9843 17.505 50.794 16.0336 50.6634C14.3082 50.5108 13.4947 47.9204 13.6474 46.7522C13.8001 45.5839 12.3757 44.5683 12.3757 43.5527C12.3757 42.5371 11.3625 42.4858 10.1937 41.9251C9.02333 41.3674 10.4462 37.9141 10.599 36.442C10.7502 34.9715 13.1907 30.7535 12.48 29.4356C11.7678 28.1162 14.9661 27.0991 15.3787 28.5667C15.7825 30.0432 15.9352 30.7535 17.969 30.6522C20.0027 30.5539 20.0028 32.1243 21.6268 32.5851C21.7223 32.6086 21.7869 32.6541 21.8676 32.6864C21.8779 32.6541 21.8882 32.613 21.9 32.5851C22.3405 31.4139 21.4594 31.4139 21.4594 29.9463Z" stroke="#868686" stroke-width="0.25"/>
</g>
<defs>
<filter id="filter0_d_6252_1098" x="0.335938" y="0.293823" width="35.5508" height="60.3003" filterUnits="userSpaceOnUse" color-interpolation-filters="sRGB">
<feFlood flood-opacity="0" result="BackgroundImageFix"/>
<feColorMatrix in="SourceAlpha" type="matrix" values="0 0 0 0 0 0 0 0 0 0 0 0 0 0 0 0 0 0 127 0" result="hardAlpha"/>
<feOffset dy="2"/>
<feGaussianBlur stdDeviation="2"/>
<feColorMatrix type="matrix" values="0 0 0 0 0 0 0 0 0 0 0 0 0 0 0 0 0 0 0.01 0"/>
<feBlend mode="normal" in2="BackgroundImageFix" result="effect1_dropShadow_6252_1098"/>
<feBlend mode="normal" in="SourceGraphic" in2="effect1_dropShadow_6252_1098" result="shape"/>
</filter>
</defs>
</svg>
