<svg width="58" height="40" viewBox="0 0 58 40" fill="none" xmlns="http://www.w3.org/2000/svg">
<g filter="url(#filter0_d_6252_1310)">
<path fill-rule="evenodd" clip-rule="evenodd" d="M52.8455 22.1794C52.8455 22.1794 50.6106 21.0626 49.7971 21.1638C48.9836 21.2666 47.6635 19.341 46.2376 18.8303C44.8162 18.3196 42.8852 17.4067 42.2758 16.4938C41.665 15.5795 39.1246 14.6652 38.8191 13.9534C38.5167 13.2416 38.0071 12.022 37.2949 11.1076C36.5827 10.1947 36.5857 8.97661 35.8735 8.87535C35.1613 8.77261 30.7883 8.87535 30.7883 8.26481C30.7883 7.65721 30.4844 4.81001 29.571 4.60894C28.6547 4.40054 27.4359 4.20241 26.9308 3.69461C26.4198 3.1824 24.7927 2.57333 24.4873 3.08701C24.1848 3.58894 23.3713 3.79294 23.0674 3.79294C22.7634 3.79294 22.8618 5.21801 21.8471 5.11527C20.8295 5.01401 19.4066 6.23214 19.4066 6.94101C19.4066 7.65575 19.5079 8.66988 18.1892 8.56714C17.527 8.51431 16.5828 8.38809 15.7707 7.99183C15.5798 8.143 14.4785 8.9047 13.3655 7.42092C12.1467 5.79038 10.2436 4.16278 9.15989 4.16278C8.18486 4.16278 4.81482 4.17012 5.60924 6.03695C5.84713 5.62014 6.30381 5.33835 7.21129 5.41614C9.65035 5.62014 8.52994 8.46294 9.85593 8.56568C11.176 8.66694 12.7017 10.6996 11.48 10.5983C10.2583 10.4971 9.24213 11.7152 8.0248 11.3102C6.80454 10.9021 5.27885 9.88508 4.87356 11.3102C4.46681 12.7308 3.95726 14.2557 5.58428 14.1515C7.20983 14.0532 6.90439 15.1715 5.78692 16.2869C4.67092 17.4052 7.51673 16.0814 7.7179 17.1014C7.92054 18.117 8.8339 18.2168 8.43156 19.8415C8.17164 20.8703 8.36254 22.9235 8.43449 24.4411C9.51232 24.4337 10.9646 24.3427 11.2759 23.9054C11.7854 23.195 13.4095 21.7729 14.3243 21.7729C15.2392 21.7729 16.2553 22.178 16.7649 21.4691C17.2729 20.7573 20.2201 20.9613 20.7252 21.5689C21.2377 22.178 22.8588 22.6872 23.2671 22.6872C23.6723 22.6872 23.8779 23.6001 24.8941 23.5018C25.9088 23.4005 27.8397 23.8085 27.8397 24.4161C27.8397 25.0252 28.5519 25.6357 29.3654 25.6357C30.1789 25.6357 30.8897 27.6669 31.7032 27.5627C32.5181 27.4644 34.1407 27.4644 34.1407 27.9692C34.1407 28.3934 34.2891 30.7988 34.756 32.174C35.035 32.0228 35.3228 32.0008 35.4844 32.1065C35.8911 32.3795 37.6562 31.8365 37.9278 32.7845C38.2009 33.7356 41.0497 33.1911 40.9146 31.7C40.7766 30.2074 45.3918 30.2074 45.7986 28.8542C46.2068 27.4952 46.7501 25.0531 47.8382 25.4596C48.919 25.8647 49.5989 23.6984 50.5489 23.832C51.4197 23.9567 52.0658 24.6363 53.104 24.4411L52.8455 22.1794Z" fill="white"/>
<path fill-rule="evenodd" clip-rule="evenodd" d="M52.8455 22.1794C52.8455 22.1794 50.6106 21.0626 49.7971 21.1638C48.9836 21.2666 47.6635 19.341 46.2376 18.8303C44.8162 18.3196 42.8852 17.4067 42.2758 16.4938C41.665 15.5795 39.1246 14.6652 38.8191 13.9534C38.5167 13.2416 38.0071 12.022 37.2949 11.1076C36.5827 10.1947 36.5857 8.97661 35.8735 8.87535C35.1613 8.77261 30.7883 8.87535 30.7883 8.26481C30.7883 7.65721 30.4844 4.81001 29.571 4.60894C28.6547 4.40054 27.4359 4.20241 26.9308 3.69461C26.4198 3.1824 24.7927 2.57333 24.4873 3.08701C24.1848 3.58894 23.3713 3.79294 23.0674 3.79294C22.7634 3.79294 22.8618 5.21801 21.8471 5.11527C20.8295 5.01401 19.4066 6.23214 19.4066 6.94101C19.4066 7.65575 19.5079 8.66988 18.1892 8.56714C17.527 8.51431 16.5828 8.38809 15.7707 7.99183C15.5798 8.143 14.4785 8.9047 13.3655 7.42092C12.1467 5.79038 10.2436 4.16278 9.15989 4.16278C8.18486 4.16278 4.81482 4.17012 5.60924 6.03695C5.84713 5.62014 6.30381 5.33835 7.21129 5.41614C9.65035 5.62014 8.52994 8.46294 9.85593 8.56568C11.176 8.66694 12.7017 10.6996 11.48 10.5983C10.2583 10.4971 9.24213 11.7152 8.0248 11.3102C6.80454 10.9021 5.27885 9.88508 4.87356 11.3102C4.46681 12.7308 3.95726 14.2557 5.58428 14.1515C7.20983 14.0532 6.90439 15.1715 5.78692 16.2869C4.67092 17.4052 7.51673 16.0814 7.7179 17.1014C7.92054 18.117 8.8339 18.2168 8.43156 19.8415C8.17164 20.8703 8.36254 22.9235 8.43449 24.4411C9.51232 24.4337 10.9646 24.3427 11.2759 23.9054C11.7854 23.195 13.4095 21.7729 14.3243 21.7729C15.2392 21.7729 16.2553 22.178 16.7649 21.4691C17.2729 20.7573 20.2201 20.9613 20.7252 21.5689C21.2377 22.178 22.8588 22.6872 23.2671 22.6872C23.6723 22.6872 23.8779 23.6001 24.8941 23.5018C25.9088 23.4005 27.8397 23.8085 27.8397 24.4161C27.8397 25.0252 28.5519 25.6357 29.3654 25.6357C30.1789 25.6357 30.8897 27.6669 31.7032 27.5627C32.5181 27.4644 34.1407 27.4644 34.1407 27.9692C34.1407 28.3934 34.2891 30.7988 34.756 32.174C35.035 32.0228 35.3228 32.0008 35.4844 32.1065C35.8911 32.3795 37.6562 31.8365 37.9278 32.7845C38.2009 33.7356 41.0497 33.1911 40.9146 31.7C40.7766 30.2074 45.3918 30.2074 45.7986 28.8542C46.2068 27.4952 46.7501 25.0531 47.8382 25.4596C48.919 25.8647 49.5989 23.6984 50.5489 23.832C51.4197 23.9567 52.0658 24.6363 53.104 24.4411L52.8455 22.1794Z" stroke="#868686" stroke-width="0.25"/>
</g>
<defs>
<filter id="filter0_d_6252_1310" x="0.339355" y="0.767456" width="56.9019" height="38.6151" filterUnits="userSpaceOnUse" color-interpolation-filters="sRGB">
<feFlood flood-opacity="0" result="BackgroundImageFix"/>
<feColorMatrix in="SourceAlpha" type="matrix" values="0 0 0 0 0 0 0 0 0 0 0 0 0 0 0 0 0 0 127 0" result="hardAlpha"/>
<feOffset dy="2"/>
<feGaussianBlur stdDeviation="2"/>
<feColorMatrix type="matrix" values="0 0 0 0 0 0 0 0 0 0 0 0 0 0 0 0 0 0 0.01 0"/>
<feBlend mode="normal" in2="BackgroundImageFix" result="effect1_dropShadow_6252_1310"/>
<feBlend mode="normal" in="SourceGraphic" in2="effect1_dropShadow_6252_1310" result="shape"/>
</filter>
</defs>
</svg>
