<svg width="24" height="37" viewBox="0 0 24 37" fill="none" xmlns="http://www.w3.org/2000/svg">
<g filter="url(#filter0_d_6252_1046)">
<path fill-rule="evenodd" clip-rule="evenodd" d="M8.63129 9.32274C9.44627 10.5423 8.43012 12.5735 7.61808 12.9786C6.8031 13.3851 6.19517 15.2153 5.38166 15.2153C4.56963 15.2153 5.38166 18.2606 6.8031 18.8712C8.226 19.4802 8.226 20.4929 8.226 21.1049C8.226 21.7125 10.2612 22.323 10.8692 23.1361C11.48 23.9492 12.4962 27.8105 12.4962 29.2312C12.4962 29.5966 12.6181 29.8931 12.8016 30.1352C13.3229 29.7786 13.9631 29.3706 14.2275 28.876C14.6841 28.013 15.038 26.5395 14.8339 26.1315C14.6313 25.7279 14.6841 25.0161 15.1408 24.6081C15.5975 24.2045 17.4272 22.2717 17.784 22.1205C18.1379 21.9664 19.3053 22.1733 19.2553 21.0535C19.2348 20.6074 19.2891 19.9249 19.3581 19.2615C18.5329 18.7332 18.0351 18.1095 18.0351 17.8013C18.0351 17.1438 17.1203 16.0239 16.6122 16.6345C16.1056 17.245 14.1761 16.7372 13.9191 15.4677C13.6665 14.1967 15.1893 14.2481 16.6122 13.0813C18.0351 11.9102 18.2392 9.67497 16.715 8.45683C15.1893 7.23576 16.2554 6.57973 17.3244 5.46286C18.3934 4.34453 17.4257 3.73399 16.8677 4.24179C16.3067 4.74959 15.3949 4.90076 15.2421 3.68263C15.0924 2.46449 11.7855 2.26049 10.5167 3.42872C10.0718 3.83526 9.389 3.96148 8.668 3.95707C8.36404 5.97947 8.09091 8.5082 8.63129 9.32274Z" fill="white"/>
<path fill-rule="evenodd" clip-rule="evenodd" d="M8.63129 9.32274C9.44627 10.5423 8.43012 12.5735 7.61808 12.9786C6.8031 13.3851 6.19517 15.2153 5.38166 15.2153C4.56963 15.2153 5.38166 18.2606 6.8031 18.8712C8.226 19.4802 8.226 20.4929 8.226 21.1049C8.226 21.7125 10.2612 22.323 10.8692 23.1361C11.48 23.9492 12.4962 27.8105 12.4962 29.2312C12.4962 29.5966 12.6181 29.8931 12.8016 30.1352C13.3229 29.7786 13.9631 29.3706 14.2275 28.876C14.6841 28.013 15.038 26.5395 14.8339 26.1315C14.6313 25.7279 14.6841 25.0161 15.1408 24.6081C15.5975 24.2045 17.4272 22.2717 17.784 22.1205C18.1379 21.9664 19.3053 22.1733 19.2553 21.0535C19.2348 20.6074 19.2891 19.9249 19.3581 19.2615C18.5329 18.7332 18.0351 18.1095 18.0351 17.8013C18.0351 17.1438 17.1203 16.0239 16.6122 16.6345C16.1056 17.245 14.1761 16.7372 13.9191 15.4677C13.6665 14.1967 15.1893 14.2481 16.6122 13.0813C18.0351 11.9102 18.2392 9.67497 16.715 8.45683C15.1893 7.23576 16.2554 6.57973 17.3244 5.46286C18.3934 4.34453 17.4257 3.73399 16.8677 4.24179C16.3067 4.74959 15.3949 4.90076 15.2421 3.68263C15.0924 2.46449 11.7855 2.26049 10.5167 3.42872C10.0718 3.83526 9.389 3.96148 8.668 3.95707C8.36404 5.97947 8.09091 8.5082 8.63129 9.32274Z" stroke="#868686" stroke-width="0.25"/>
</g>
<defs>
<filter id="filter0_d_6252_1046" x="0.934082" y="0.527588" width="22.5562" height="35.7781" filterUnits="userSpaceOnUse" color-interpolation-filters="sRGB">
<feFlood flood-opacity="0" result="BackgroundImageFix"/>
<feColorMatrix in="SourceAlpha" type="matrix" values="0 0 0 0 0 0 0 0 0 0 0 0 0 0 0 0 0 0 127 0" result="hardAlpha"/>
<feOffset dy="2"/>
<feGaussianBlur stdDeviation="2"/>
<feColorMatrix type="matrix" values="0 0 0 0 0 0 0 0 0 0 0 0 0 0 0 0 0 0 0.01 0"/>
<feBlend mode="normal" in2="BackgroundImageFix" result="effect1_dropShadow_6252_1046"/>
<feBlend mode="normal" in="SourceGraphic" in2="effect1_dropShadow_6252_1046" result="shape"/>
</filter>
</defs>
</svg>
