<svg width="73" height="35" viewBox="0 0 73 35" fill="none" xmlns="http://www.w3.org/2000/svg">
<g filter="url(#filter0_d_6252_1087)">
<path fill-rule="evenodd" clip-rule="evenodd" d="M66.9589 20.4744C66.4141 20.3394 67.232 17.3571 66.9589 16.8126C66.6858 16.2711 66.0088 13.9684 66.8238 13.9684C67.5609 13.9684 66.7489 12.2997 67.7195 12.1984C67.5125 11.6187 67.2878 11.0948 67.091 10.9362C66.583 10.5326 65.0573 11.3428 64.4493 9.82085C63.8385 8.29598 64.4493 8.09198 63.5316 6.87531C62.6212 5.65717 62.2115 4.43757 61.0955 4.94244C60.5756 5.17579 59.0881 5.17139 57.5037 5.05104C55.8547 6.55536 52.2365 7.58564 51.1337 7.17911C49.7607 6.67278 47.1205 7.33174 45.1366 7.33174C43.1528 7.33174 42.5933 5.90961 41.0691 6.01087C39.5463 6.11361 39.5463 4.6401 38.0206 4.6401C36.4964 4.6401 37.6653 3.87547 32.8885 3.26787C28.1102 2.65586 23.9942 5.14644 22.47 6.46731C20.9458 7.78964 15.4568 6.51574 14.9502 6.87531C14.4407 7.22754 15.0486 8.80231 13.2204 9.51411C11.3893 10.2244 7.37606 9.51411 6.00455 10.1261C4.63011 10.7337 4.12497 12.7664 5.29384 12.6651C6.4627 12.5609 7.0721 13.1216 6.71674 13.6279C6.36285 14.1357 7.6815 15.5564 7.0207 16.1684C6.36285 16.7774 6.30999 17.9442 7.12496 18.5533C7.937 19.1623 8.08825 20.2851 7.12496 20.4333C6.1558 20.5859 8.80044 21.7013 8.85036 22.2106C8.90176 22.7199 11.0882 22.9752 11.0882 23.5828C11.0882 24.1934 11.7461 24.3959 12.8166 24.0936C13.8841 23.7883 14.2909 25.2618 14.9502 26.2759C15.6095 27.2915 19.3687 26.5812 19.3687 25.4643C19.3687 24.346 20.4876 24.0393 22.1631 24.1934C23.843 24.3445 26.0295 26.6296 26.8415 26.9334C27.6521 27.2372 29.332 26.3258 30.3995 26.3258C31.467 26.3258 32.9883 24.6469 33.6007 24.2932C34.2101 23.9409 35.2776 25.4643 36.2453 24.9507C37.2086 24.4473 38.2761 23.8837 38.887 24.2433C39.4949 24.5984 37.4112 26.1703 37.9736 26.9848C38.1983 27.3165 38.1469 27.726 38.0529 28.1516C40.1587 27.8625 39.959 26.4036 40.0867 25.7667C40.2233 25.0886 40.7651 24.4106 41.445 24.9507C42.1219 25.4952 43.072 25.6287 44.5654 24.9507C46.0588 24.2741 46.1939 23.8661 46.7372 24.5456C47.2805 25.2207 48.4993 24.6836 50.6755 24.6836C52.8473 24.6836 53.2541 23.191 55.2893 23.3245C57.3275 23.461 59.0896 22.783 59.0896 22.783L60.3803 23.1704C60.9075 22.6861 60.8708 22.1402 61.9104 22.0066C63.536 21.8085 64.1483 23.0251 64.9604 22.6186C65.7724 22.2121 68.3568 24.9815 68.5903 23.1924C68.7195 22.783 67.5022 20.6109 66.9589 20.4744ZM9.71679 7.37857C10.9341 6.92361 13.6771 7.53268 14.3423 6.92361C15.0017 6.31454 12.6096 5.5499 11.7476 4.84104C11.2454 4.4257 11.0707 3.65372 10.9003 3.0564C10.4995 3.32791 9.97523 3.54952 9.51121 3.3147C8.59932 2.85827 6.38493 3.16207 6.00608 3.3147C5.62429 3.46733 6.31004 4.76179 6.31004 5.60127C6.31004 6.43782 5.31739 6.66971 5.31739 7.20099C5.31739 7.6134 4.95616 7.89518 4.51416 8.38097C5.18376 8.88143 5.83134 9.36281 6.51122 9.36281C7.93853 9.36281 8.49653 7.83794 9.71679 7.37857Z" fill="white"/>
<path d="M66.9589 20.4744L66.9893 20.3532L66.989 20.3531L66.9589 20.4744ZM66.9589 16.8126L67.0706 16.7566L67.0705 16.7564L66.9589 16.8126ZM67.7195 12.1984L67.7325 12.3227L67.8908 12.3062L67.8372 12.1564L67.7195 12.1984ZM67.091 10.9362L67.1695 10.8389L67.1688 10.8384L67.091 10.9362ZM64.4493 9.82085L64.5654 9.77448L64.5654 9.77436L64.4493 9.82085ZM63.5316 6.87531L63.4315 6.95014L63.4318 6.95058L63.5316 6.87531ZM61.0955 4.94244L61.1467 5.05647L61.147 5.05632L61.0955 4.94244ZM57.5037 5.05104L57.5132 4.9264L57.4593 4.92231L57.4195 4.95869L57.5037 5.05104ZM51.1337 7.17911L51.0904 7.29639L51.0904 7.29639L51.1337 7.17911ZM41.0691 6.01087L41.0608 5.88615L41.0607 5.88616L41.0691 6.01087ZM32.8885 3.26787L32.8726 3.39185L32.8727 3.39187L32.8885 3.26787ZM22.47 6.46731L22.3881 6.37284L22.3881 6.37289L22.47 6.46731ZM14.9502 6.87531L15.0213 6.97814L15.0225 6.97724L14.9502 6.87531ZM13.2204 9.51411L13.2656 9.63065L13.2657 9.63059L13.2204 9.51411ZM6.00455 10.1261L6.05509 10.2404L6.05549 10.2403L6.00455 10.1261ZM5.29384 12.6651L5.30463 12.7897L5.30494 12.7896L5.29384 12.6651ZM6.71674 13.6279L6.61442 13.5561L6.61419 13.5564L6.71674 13.6279ZM7.0207 16.1684L7.10563 16.2601L7.10564 16.2601L7.0207 16.1684ZM7.12496 18.5533L7.19997 18.4533L7.19979 18.4531L7.12496 18.5533ZM7.12496 20.4333L7.10595 20.3098L7.10552 20.3098L7.12496 20.4333ZM8.85036 22.2106L8.72596 22.2228L8.72599 22.2232L8.85036 22.2106ZM12.8166 24.0936L12.8506 24.2139L12.8509 24.2138L12.8166 24.0936ZM14.9502 26.2759L15.055 26.2079L15.055 26.2078L14.9502 26.2759ZM22.1631 24.1934L22.1517 24.3178L22.1519 24.3179L22.1631 24.1934ZM26.8415 26.9334L26.8854 26.8164L26.8853 26.8164L26.8415 26.9334ZM33.6007 24.2932L33.6632 24.4014L33.6632 24.4014L33.6007 24.2932ZM36.2453 24.9507L36.1874 24.8399L36.1867 24.8403L36.2453 24.9507ZM38.887 24.2433L38.8236 24.351L38.8239 24.3512L38.887 24.2433ZM37.9736 26.9848L38.0771 26.9147L38.0765 26.9138L37.9736 26.9848ZM38.0529 28.1516L37.9309 28.1246L37.8922 28.2998L38.0699 28.2754L38.0529 28.1516ZM40.0867 25.7667L39.9642 25.742L39.9641 25.7421L40.0867 25.7667ZM41.445 24.9507L41.5233 24.8533L41.5227 24.8528L41.445 24.9507ZM44.5654 24.9507L44.5138 24.8368L44.5137 24.8369L44.5654 24.9507ZM46.7372 24.5456L46.6396 24.6237L46.6398 24.624L46.7372 24.5456ZM55.2893 23.3245L55.2977 23.1998L55.2975 23.1998L55.2893 23.3245ZM59.0896 22.783L59.1255 22.6633L59.0846 22.651L59.0447 22.6663L59.0896 22.783ZM60.3803 23.1704L60.3444 23.2902L60.4125 23.3106L60.4649 23.2625L60.3803 23.1704ZM61.9104 22.0066L61.8953 21.8825L61.8945 21.8826L61.9104 22.0066ZM68.5903 23.1924L68.4711 23.1548L68.4678 23.1653L68.4664 23.1763L68.5903 23.1924ZM9.71679 7.37857L9.67303 7.26149L9.67275 7.26159L9.71679 7.37857ZM14.3423 6.92361L14.4267 7.0158L14.4271 7.01543L14.3423 6.92361ZM11.7476 4.84104L11.668 4.93736L11.6682 4.93758L11.7476 4.84104ZM10.9003 3.0564L11.0205 3.02212L10.9732 2.85608L10.8302 2.9529L10.9003 3.0564ZM9.51121 3.3147L9.56765 3.20317L9.56716 3.20292L9.51121 3.3147ZM6.00608 3.3147L6.05248 3.43077L6.05279 3.43064L6.00608 3.3147ZM4.51416 8.38097L4.4217 8.29684L4.32905 8.39867L4.43933 8.48109L4.51416 8.38097ZM66.989 20.3531C66.9847 20.352 66.9585 20.3439 66.9328 20.2628C66.9081 20.1849 66.8945 20.0697 66.8925 19.9201C66.8884 19.6228 66.9298 19.2285 66.9811 18.8123C67.0318 18.4003 67.092 17.9674 67.1221 17.6059C67.1371 17.4247 67.145 17.2574 67.1399 17.1163C67.1349 16.9796 67.1176 16.8502 67.0706 16.7566L66.8472 16.8687C66.8685 16.9112 66.8853 16.9942 66.89 17.1253C66.8946 17.252 66.8876 17.408 66.8729 17.5852C66.8434 17.9401 66.7845 18.3634 66.733 18.7818C66.6819 19.1961 66.6381 19.6067 66.6425 19.9236C66.6446 20.0811 66.6586 20.2253 66.6945 20.3384C66.7294 20.4484 66.7969 20.563 66.9288 20.5957L66.989 20.3531ZM67.0705 16.7564C66.9409 16.4994 66.7067 15.8012 66.6068 15.1679C66.5566 14.8502 66.5429 14.5637 66.585 14.3622C66.606 14.2619 66.6385 14.1942 66.6764 14.1531C66.7105 14.1159 66.7552 14.0934 66.8238 14.0934V13.8434C66.6887 13.8434 66.5762 13.8928 66.4925 13.9837C66.4124 14.0706 66.3662 14.187 66.3403 14.3111C66.2887 14.5582 66.3085 14.8813 66.3598 15.2069C66.4629 15.8604 66.7038 16.5844 66.8473 16.8689L67.0705 16.7564ZM66.8238 14.0934C66.9413 14.0934 67.0411 14.0593 67.1183 13.9888C67.1928 13.9209 67.2342 13.8301 67.2589 13.7387C67.3067 13.5619 67.3041 13.3288 67.3091 13.1244C67.3144 12.9068 67.3276 12.7119 67.389 12.5662C67.4184 12.4962 67.4574 12.4421 67.5087 12.4027C67.5597 12.3636 67.6303 12.3334 67.7325 12.3227L67.7066 12.0741C67.5661 12.0887 67.4498 12.1328 67.3565 12.2044C67.2636 12.2756 67.201 12.3685 67.1586 12.4692C67.0762 12.6648 67.0643 12.9061 67.0591 13.1183C67.0537 13.3437 67.0552 13.5342 67.0176 13.6735C66.9996 13.74 66.9759 13.7804 66.9499 13.8041C66.9266 13.8253 66.8906 13.8434 66.8238 13.8434V14.0934ZM67.8372 12.1564C67.7332 11.8649 67.6236 11.5844 67.5142 11.3555C67.4595 11.241 67.404 11.1375 67.3481 11.051C67.2932 10.9659 67.2337 10.8907 67.1695 10.8389L67.0126 11.0336C67.0467 11.0611 67.0892 11.1108 67.1381 11.1866C67.1862 11.2611 67.2367 11.3545 67.2886 11.4633C67.3926 11.6809 67.4989 11.9522 67.6018 12.2405L67.8372 12.1564ZM67.1688 10.8384C67.0054 10.7086 66.7745 10.6853 66.552 10.6807C66.3115 10.6758 66.0754 10.6922 65.8168 10.6733C65.5664 10.6549 65.325 10.6037 65.1123 10.4738C64.9017 10.3452 64.7087 10.1332 64.5654 9.77448L64.3333 9.86721C64.494 10.2695 64.7196 10.5269 64.982 10.6871C65.2422 10.846 65.5279 10.9028 65.7985 10.9226C66.0608 10.9418 66.3394 10.9264 66.5469 10.9307C66.7723 10.9353 66.9226 10.9621 67.0133 11.0341L67.1688 10.8384ZM64.5654 9.77436C64.2677 9.03122 64.2686 8.61701 64.23 8.22038C64.2103 8.01838 64.18 7.81879 64.0931 7.58999C64.0065 7.362 63.8658 7.11078 63.6314 6.80003L63.4318 6.95058C63.6563 7.24817 63.7834 7.4787 63.8594 7.6788C63.9351 7.8781 63.9625 8.05293 63.9811 8.24462C64.0192 8.63538 64.0201 9.0856 64.3333 9.86733L64.5654 9.77436ZM63.6317 6.80048C63.4068 6.49957 63.213 6.19884 63.028 5.9194C62.8446 5.64236 62.6684 5.38394 62.4834 5.17899C62.2982 4.97383 62.0953 4.81201 61.8545 4.74035C61.6102 4.66762 61.3441 4.69278 61.0439 4.82855L61.147 5.05632C61.4049 4.93966 61.6085 4.92795 61.7832 4.97996C61.9616 5.03306 62.1273 5.1576 62.2978 5.34651C62.4685 5.53562 62.6352 5.77894 62.8196 6.0574C63.0023 6.33346 63.2011 6.64198 63.4315 6.95014L63.6317 6.80048ZM61.0443 4.8284C60.9313 4.87912 60.7554 4.92075 60.5218 4.9508C60.2904 4.98055 60.0111 4.99794 59.6962 5.0044C59.0667 5.01732 58.3031 4.9864 57.5132 4.9264L57.4942 5.17568C58.2887 5.23603 59.061 5.26749 59.7014 5.25435C60.0215 5.24778 60.3104 5.23004 60.5537 5.19875C60.7947 5.16776 60.9997 5.12243 61.1467 5.05647L61.0443 4.8284ZM57.4195 4.95869C56.6138 5.69364 55.3162 6.32034 54.0761 6.71246C53.4576 6.90805 52.8581 7.04375 52.3473 7.10556C51.8313 7.16799 51.4234 7.15269 51.1769 7.06182L51.0904 7.29639C51.3953 7.40879 51.8532 7.41716 52.3773 7.35374C52.9067 7.2897 53.5215 7.15003 54.1515 6.95083C55.4085 6.55337 56.7445 5.91277 57.5879 5.14339L57.4195 4.95869ZM51.1769 7.06183C50.8149 6.92833 50.3766 6.87392 49.8989 6.86437C49.4201 6.8548 48.8938 6.89024 48.3525 6.9411C47.2636 7.04342 46.1208 7.20674 45.1366 7.20674V7.45674C46.1363 7.45674 47.3055 7.29058 48.3759 7.19C48.9143 7.13941 49.4295 7.10504 49.8939 7.11432C50.3593 7.12362 50.7659 7.17672 51.0904 7.29639L51.1769 7.06183ZM45.1366 7.20674C44.1798 7.20674 43.5684 6.86618 42.9942 6.52581C42.4211 6.18605 41.8675 5.83255 41.0608 5.88615L41.0774 6.1356C41.7949 6.08792 42.2831 6.39486 42.8667 6.74086C43.4493 7.08623 44.1096 7.45674 45.1366 7.45674V7.20674ZM41.0607 5.88616C40.7022 5.91034 40.4396 5.84193 40.2225 5.72912C40.0018 5.61436 39.8228 5.45138 39.6312 5.27262C39.2494 4.91637 38.8362 4.5151 38.0206 4.5151V4.7651C38.7307 4.7651 39.0804 5.10058 39.4607 5.45541C39.6501 5.63218 39.8521 5.81831 40.1073 5.95094C40.3662 6.08552 40.6746 6.16277 41.0775 6.13559L41.0607 5.88616ZM38.0206 4.5151C37.6509 4.5151 37.4572 4.46884 37.299 4.39725C37.2173 4.36031 37.142 4.31524 37.0521 4.25975C36.9632 4.20486 36.8613 4.14068 36.7336 4.07181C36.2184 3.79401 35.2987 3.44843 32.9043 3.14387L32.8727 3.39187C35.2551 3.6949 36.1394 4.03544 36.6149 4.29186C36.7349 4.35654 36.83 4.41643 36.9208 4.4725C37.0107 4.52798 37.0981 4.58078 37.1959 4.62502C37.3965 4.71579 37.6283 4.7651 38.0206 4.7651V4.5151ZM32.9044 3.14388C28.0777 2.52567 23.9273 5.03905 22.3881 6.37284L22.5519 6.56177C24.0612 5.25382 28.1428 2.78606 32.8726 3.39185L32.9044 3.14388ZM22.3881 6.37289C22.0381 6.6765 21.4432 6.84226 20.7111 6.91395C19.9845 6.98508 19.1478 6.9616 18.3368 6.90762C17.523 6.85345 16.7507 6.76993 16.1344 6.72121C15.8291 6.69707 15.5624 6.68156 15.3549 6.68378C15.2512 6.6849 15.1588 6.69044 15.082 6.70251C15.009 6.71398 14.9339 6.73356 14.8779 6.77337L15.0225 6.97724C15.0298 6.97211 15.057 6.9595 15.1208 6.94948C15.1807 6.94007 15.2597 6.93482 15.3576 6.93377C15.5532 6.93167 15.8104 6.94637 16.1147 6.97043C16.7177 7.01811 17.5079 7.103 18.3202 7.15707C19.1353 7.21132 19.9883 7.23591 20.7354 7.16276C21.477 7.09016 22.1398 6.91928 22.5519 6.56173L22.3881 6.37289ZM14.8791 6.77248C14.7068 6.89161 14.6426 7.1038 14.5997 7.31072C14.5528 7.53648 14.5287 7.76605 14.459 8.02771C14.3918 8.27995 14.287 8.53648 14.0937 8.77169C13.9009 9.00642 13.6146 9.22649 13.175 9.39763L13.2657 9.63059C13.7403 9.44583 14.0636 9.20213 14.2869 8.93039C14.5097 8.65913 14.6275 8.36649 14.7006 8.09203C14.7711 7.82699 14.8048 7.55234 14.8444 7.36152C14.8879 7.15186 14.9388 7.03513 15.0213 6.97813L14.8791 6.77248ZM13.1752 9.39757C12.7355 9.56815 12.1566 9.656 11.5051 9.69861C10.8552 9.74113 10.1435 9.73814 9.44121 9.73199C8.74106 9.72586 8.04911 9.71655 7.44675 9.74735C6.84798 9.77798 6.31947 9.84871 5.95362 10.012L6.05549 10.2403C6.3754 10.0975 6.86284 10.0275 7.45952 9.99703C8.05259 9.9667 8.73555 9.97582 9.43902 9.98198C10.1404 9.98812 10.861 9.99129 11.5214 9.94808C12.1803 9.90498 12.7898 9.81524 13.2656 9.63065L13.1752 9.39757ZM5.95401 10.0118C5.2278 10.3328 4.7351 11.026 4.57465 11.6293C4.4948 11.9296 4.49171 12.2289 4.60732 12.4537C4.66635 12.5685 4.75583 12.6623 4.87708 12.7221C4.99733 12.7815 5.14118 12.8038 5.30462 12.7897L5.28305 12.5406C5.15427 12.5517 5.05823 12.5327 4.98774 12.4979C4.91825 12.4636 4.86616 12.4104 4.82966 12.3394C4.75418 12.1926 4.74412 11.9648 4.81625 11.6936C4.95977 11.1539 5.40686 10.527 6.05509 10.2404L5.95401 10.0118ZM5.30494 12.7896C5.87181 12.7391 6.2814 12.8523 6.5019 13.0176C6.61103 13.0994 6.66857 13.1894 6.68632 13.2747C6.70366 13.358 6.68658 13.4533 6.61442 13.5561L6.81906 13.6997C6.92458 13.5493 6.96458 13.3847 6.93108 13.2237C6.89798 13.0647 6.79675 12.9261 6.65185 12.8175C6.36427 12.602 5.88473 12.4869 5.28274 12.5406L5.30494 12.7896ZM6.61419 13.5564C6.48924 13.7357 6.52417 13.9733 6.58802 14.1886C6.65393 14.4107 6.76963 14.666 6.86814 14.9064C6.96962 15.1542 7.05494 15.3905 7.07798 15.5984C7.10057 15.8023 7.06173 15.96 6.93577 16.0766L7.10564 16.2601C7.31008 16.0707 7.3542 15.8213 7.32645 15.5709C7.29915 15.3244 7.20083 15.0591 7.09948 14.8117C6.99516 14.557 6.88885 14.3236 6.8277 14.1174C6.76448 13.9044 6.7673 13.774 6.81929 13.6994L6.61419 13.5564ZM6.93578 16.0766C6.22801 16.7319 6.16478 17.9917 7.05013 18.6534L7.19979 18.4531C6.45519 17.8967 6.49769 16.8229 7.10563 16.2601L6.93578 16.0766ZM7.04996 18.6533C7.43267 18.9403 7.6492 19.3414 7.66587 19.6724C7.67411 19.8359 7.6338 19.9773 7.54797 20.0845C7.46264 20.1911 7.3222 20.2765 7.10595 20.3098L7.14397 20.5568C7.40937 20.516 7.61126 20.4055 7.74312 20.2408C7.87447 20.0767 7.92622 19.8716 7.91555 19.6598C7.89441 19.2401 7.62929 18.7753 7.19997 18.4533L7.04996 18.6533ZM7.10552 20.3098C7.03843 20.3204 6.97833 20.3363 6.92884 20.3607C6.87922 20.3851 6.83047 20.4231 6.80443 20.4821C6.77762 20.5429 6.78454 20.6038 6.80264 20.6533C6.8201 20.701 6.85014 20.7451 6.88291 20.7841C6.94859 20.8624 7.04639 20.9452 7.1566 21.0283C7.26827 21.1124 7.39947 21.2017 7.53651 21.2924C7.81349 21.4758 8.11265 21.664 8.34876 21.8398C8.46655 21.9275 8.56346 22.0084 8.63131 22.0802C8.70388 22.1569 8.72408 22.2036 8.72596 22.2228L8.97477 22.1984C8.96416 22.0903 8.8908 21.9907 8.81297 21.9084C8.73042 21.8211 8.62009 21.7301 8.49807 21.6393C8.25456 21.4579 7.94377 21.2622 7.6745 21.084C7.53841 20.9939 7.4124 20.908 7.30704 20.8286C7.20023 20.7481 7.12117 20.6791 7.07443 20.6234C7.05099 20.5955 7.04092 20.577 7.03742 20.5674C7.03455 20.5596 7.03963 20.5684 7.03316 20.5831C7.02746 20.596 7.02123 20.5939 7.03932 20.5849C7.05753 20.576 7.09035 20.5653 7.14441 20.5568L7.10552 20.3098ZM8.72599 22.2232C8.73696 22.3318 8.80309 22.4182 8.87872 22.4847C8.95538 22.5521 9.05618 22.612 9.16626 22.6664C9.3861 22.7753 9.67253 22.8768 9.94542 22.9772C10.2236 23.0795 10.4886 23.181 10.6839 23.2923C10.7814 23.3479 10.8542 23.402 10.9015 23.4542C10.948 23.5055 10.9632 23.5474 10.9632 23.5828H11.2132C11.2132 23.4664 11.1601 23.3673 11.0868 23.2864C11.0144 23.2064 10.916 23.1369 10.8077 23.0751C10.5914 22.9518 10.3065 22.8436 10.0317 22.7425C9.75158 22.6395 9.48175 22.5437 9.27717 22.4424C9.17503 22.3918 9.09658 22.3434 9.04383 22.297C8.99005 22.2497 8.97661 22.2167 8.97473 22.198L8.72599 22.2232ZM10.9632 23.5828C10.9632 23.7588 11.0111 23.9143 11.1093 24.0398C11.2071 24.1646 11.3472 24.2501 11.5152 24.3003C11.8468 24.3994 12.3063 24.3676 12.8506 24.2139L12.7826 23.9733C12.2564 24.1219 11.8517 24.1399 11.5868 24.0608C11.4565 24.0218 11.3652 23.961 11.3062 23.8857C11.2477 23.8109 11.2132 23.7122 11.2132 23.5828H10.9632ZM12.8509 24.2138C13.0862 24.1465 13.2774 24.1777 13.4466 24.2723C13.621 24.3698 13.7795 24.5392 13.9338 24.7613C14.0878 24.9829 14.2305 25.2461 14.3786 25.5231C14.5253 25.7975 14.677 26.0851 14.8454 26.3441L15.055 26.2078C14.8937 25.9597 14.7474 25.6828 14.599 25.4053C14.452 25.1302 14.3027 24.8541 14.1391 24.6187C13.9759 24.3838 13.7914 24.1787 13.5686 24.0541C13.3407 23.9266 13.0807 23.888 12.7822 23.9734L12.8509 24.2138ZM14.8454 26.344C15.0416 26.6463 15.4492 26.7987 15.9024 26.8586C16.3637 26.9195 16.909 26.8896 17.4296 26.7927C17.9497 26.6959 18.4547 26.5304 18.8332 26.3136C19.202 26.1023 19.4937 25.8164 19.4937 25.4643H19.2437C19.2437 25.6707 19.0655 25.8924 18.7089 26.0967C18.3619 26.2954 17.8858 26.4535 17.3838 26.5469C16.8822 26.6403 16.3641 26.6674 15.9351 26.6107C15.498 26.553 15.1885 26.4134 15.055 26.2079L14.8454 26.344ZM19.4937 25.4643C19.4937 25.2065 19.5578 25.0041 19.6714 24.8449C19.7856 24.6851 19.9562 24.5596 20.1843 24.4676C20.6451 24.2819 21.3192 24.2413 22.1517 24.3178L22.1746 24.0689C21.3315 23.9914 20.6084 24.0271 20.0909 24.2358C19.8298 24.341 19.616 24.4923 19.468 24.6997C19.3194 24.9077 19.2437 25.163 19.2437 25.4643H19.4937ZM22.1519 24.3179C22.5482 24.3535 22.9829 24.5163 23.4301 24.753C23.8762 24.9891 24.3268 25.2944 24.7539 25.607C25.1834 25.9214 25.5789 26.2354 25.9291 26.4984C26.2709 26.755 26.5746 26.9671 26.7977 27.0505L26.8853 26.8164C26.7024 26.7479 26.4282 26.5605 26.0792 26.2984C25.7386 26.0427 25.3302 25.7191 24.9016 25.4053C24.4706 25.0898 24.0088 24.7765 23.5471 24.5321C23.0865 24.2883 22.6179 24.1088 22.1743 24.0689L22.1519 24.3179ZM26.7976 27.0505C27.0302 27.1376 27.3126 27.1341 27.6076 27.0903C27.9049 27.0462 28.2313 26.9587 28.559 26.8636C28.8896 26.7677 29.2203 26.6647 29.5377 26.5847C29.8551 26.5047 30.1483 26.4508 30.3995 26.4508V26.2008C30.1169 26.2008 29.7998 26.2609 29.4766 26.3423C29.1535 26.4237 28.8134 26.5295 28.4893 26.6235C28.1623 26.7184 27.85 26.8016 27.5709 26.843C27.2897 26.8847 27.0581 26.8811 26.8854 26.8164L26.7976 27.0505ZM30.3995 26.4508C30.6967 26.4508 31.0136 26.3349 31.3232 26.168C31.6347 26.0001 31.9506 25.7742 32.248 25.5404C32.5454 25.3067 32.829 25.0614 33.0729 24.8555C33.3208 24.6462 33.5217 24.4831 33.6632 24.4014L33.5381 24.1849C33.3735 24.2801 33.1546 24.4595 32.9117 24.6645C32.6647 24.8729 32.3864 25.1137 32.0935 25.3439C31.8007 25.574 31.4978 25.79 31.2046 25.9479C30.9097 26.1069 30.6361 26.2008 30.3995 26.2008V26.4508ZM33.6632 24.4014C33.7624 24.3441 33.8943 24.3532 34.0861 24.4346C34.2771 24.5157 34.4862 24.6498 34.7253 24.7902C34.9579 24.9269 35.2139 25.0661 35.4775 25.1359C35.7448 25.2067 36.027 25.208 36.3039 25.0611L36.1867 24.8403C35.9797 24.9501 35.7656 24.9536 35.5415 24.8943C35.3138 24.834 35.0834 24.7107 34.8519 24.5747C34.627 24.4425 34.3945 24.2939 34.1837 24.2045C33.9737 24.1154 33.7437 24.0661 33.5381 24.1849L33.6632 24.4014ZM36.3032 25.0615C36.7874 24.8084 37.286 24.5468 37.7388 24.3916C38.1984 24.2341 38.5695 24.2014 38.8236 24.351L38.9504 24.1355C38.5936 23.9255 38.1255 23.9949 37.6578 24.1551C37.1833 24.3177 36.6665 24.5895 36.1874 24.8399L36.3032 25.0615ZM38.8239 24.3512C38.8617 24.3732 38.8732 24.3966 38.8743 24.4333C38.8757 24.4815 38.8569 24.5532 38.809 24.6527C38.7135 24.8512 38.5362 25.0949 38.3447 25.3705C38.1582 25.6389 37.9613 25.9338 37.8485 26.2164C37.7363 26.4976 37.6943 26.8002 37.8708 27.0558L38.0765 26.9138C37.9718 26.7621 37.9794 26.5629 38.0807 26.3091C38.1814 26.0568 38.3619 25.7838 38.55 25.5131C38.7332 25.2495 38.9277 24.9828 39.0343 24.7611C39.0875 24.6506 39.1274 24.5349 39.1242 24.426C39.1206 24.3055 39.0643 24.2021 38.9501 24.1353L38.8239 24.3512ZM37.8701 27.0549C38.0617 27.3377 38.0255 27.6963 37.9309 28.1246L38.175 28.1785C38.2684 27.7556 38.3349 27.2953 38.0771 26.9147L37.8701 27.0549ZM38.0699 28.2754C39.1567 28.1262 39.6738 27.6685 39.9244 27.1434C40.0469 26.8865 40.102 26.621 40.135 26.3846C40.1514 26.2667 40.1626 26.1536 40.1733 26.0535C40.1842 25.9517 40.1946 25.8646 40.2093 25.7913L39.9641 25.7421C39.9469 25.828 39.9356 25.9258 39.9247 26.0268C39.9137 26.1296 39.9031 26.2372 39.8873 26.3501C39.856 26.5754 39.8054 26.8121 39.6987 27.0357C39.4908 27.4716 39.0549 27.8878 38.0359 28.0277L38.0699 28.2754ZM40.2092 25.7914C40.2739 25.4702 40.4329 25.1625 40.6394 25.0001C40.7403 24.9208 40.849 24.8786 40.9636 24.88C41.0784 24.8813 41.2137 24.9266 41.3672 25.0485L41.5227 24.8528C41.3363 24.7047 41.149 24.6322 40.9666 24.63C40.7842 24.6278 40.6214 24.6962 40.4848 24.8036C40.2163 25.0148 40.036 25.3851 39.9642 25.742L40.2092 25.7914ZM41.3667 25.0481C41.7253 25.3366 42.1579 25.5164 42.6949 25.5341C43.229 25.5516 43.8595 25.4085 44.6171 25.0645L44.5137 24.8369C43.778 25.1709 43.1866 25.3001 42.7031 25.2842C42.2225 25.2684 41.8416 25.1092 41.5233 24.8533L41.3667 25.0481ZM44.617 25.0645C44.9941 24.8937 45.2854 24.7398 45.517 24.6168C45.7521 24.4919 45.916 24.4044 46.0491 24.3575C46.1772 24.3124 46.2574 24.312 46.3307 24.3425C46.4123 24.3764 46.5061 24.4568 46.6396 24.6237L46.8348 24.4675C46.6966 24.2947 46.5698 24.1712 46.4266 24.1117C46.2751 24.0487 46.1263 24.0652 45.966 24.1217C45.8108 24.1764 45.6269 24.2753 45.3997 24.396C45.169 24.5185 44.8834 24.6694 44.5138 24.8368L44.617 25.0645ZM46.6398 24.624C46.9572 25.0183 47.4654 25.0418 48.1037 24.9924C48.7603 24.9415 49.5933 24.8086 50.6755 24.8086V24.5586C49.5815 24.5586 48.717 24.6942 48.0844 24.7431C47.4333 24.7935 47.0605 24.748 46.8346 24.4672L46.6398 24.624ZM50.6755 24.8086C51.7963 24.8086 52.4655 24.4204 53.0954 24.0627C53.7194 23.7082 54.3024 23.385 55.2811 23.4493L55.2975 23.1998C54.241 23.1305 53.603 23.4868 52.9719 23.8453C52.3466 24.2004 51.7265 24.5586 50.6755 24.5586V24.8086ZM55.281 23.4493C56.3154 23.5185 57.2779 23.3811 57.9805 23.227C58.3322 23.1499 58.6197 23.0685 58.8196 23.0061C58.9196 22.9749 58.9978 22.9485 59.0512 22.9298C59.0779 22.9205 59.0985 22.913 59.1125 22.9079C59.1195 22.9053 59.1248 22.9033 59.1285 22.9019C59.1304 22.9012 59.1318 22.9007 59.1328 22.9003C59.1333 22.9001 59.1337 22.9 59.134 22.8998C59.1341 22.8998 59.1342 22.8997 59.1343 22.8997C59.1343 22.8997 59.1344 22.8997 59.1344 22.8997C59.1345 22.8997 59.1345 22.8996 59.0896 22.783C59.0447 22.6663 59.0447 22.6663 59.0447 22.6663C59.0447 22.6663 59.0447 22.6663 59.0447 22.6663C59.0447 22.6663 59.0447 22.6663 59.0446 22.6664C59.0444 22.6664 59.0442 22.6665 59.0438 22.6666C59.0431 22.6669 59.042 22.6673 59.0404 22.6679C59.0373 22.6691 59.0325 22.6709 59.0261 22.6733C59.0133 22.678 58.994 22.685 58.9686 22.6939C58.9177 22.7117 58.8423 22.7372 58.7452 22.7675C58.5511 22.828 58.2706 22.9075 57.927 22.9828C57.2391 23.1337 56.3014 23.267 55.2977 23.1998L55.281 23.4493ZM59.0537 22.9027L60.3444 23.2902L60.4163 23.0507L59.1255 22.6633L59.0537 22.9027ZM60.4649 23.2625C60.606 23.1328 60.7084 22.9999 60.7972 22.8758C60.8881 22.7489 60.9593 22.64 61.0474 22.5392C61.2121 22.3506 61.434 22.1938 61.9264 22.1306L61.8945 21.8826C61.3473 21.9529 61.0677 22.1359 60.8591 22.3748C60.7605 22.4876 60.677 22.6144 60.594 22.7303C60.509 22.849 60.4182 22.9659 60.2958 23.0784L60.4649 23.2625ZM61.9256 22.1307C62.7007 22.0362 63.2326 22.2769 63.6846 22.5026C63.9074 22.6138 64.1249 22.7293 64.3369 22.7872C64.5569 22.8473 64.7801 22.8486 65.0163 22.7304L64.9044 22.5068C64.7346 22.5919 64.5768 22.5936 64.4028 22.546C64.2208 22.4963 64.0313 22.3962 63.7963 22.2789C63.3327 22.0474 62.7457 21.7789 61.8953 21.8825L61.9256 22.1307ZM65.0163 22.7304C65.0805 22.6982 65.1759 22.6913 65.3126 22.7219C65.4476 22.7521 65.6059 22.8151 65.7828 22.9008C66.1417 23.0747 66.5328 23.3187 66.9331 23.534C67.1291 23.6395 67.3242 23.7361 67.5086 23.8066C67.6918 23.8767 67.8725 23.9244 68.0381 23.9254C68.2069 23.9264 68.3659 23.8784 68.4898 23.7524C68.6106 23.6294 68.6832 23.4468 68.7143 23.2086L68.4664 23.1763C68.4391 23.3853 68.3798 23.5076 68.3114 23.5772C68.2461 23.6437 68.1586 23.6761 68.0396 23.6754C67.9173 23.6746 67.7689 23.6386 67.5979 23.5731C67.4282 23.5082 67.2439 23.4174 67.0515 23.3139C66.675 23.1113 66.2532 22.851 65.8918 22.6759C65.7085 22.587 65.5299 22.5144 65.3672 22.4779C65.2062 22.4419 65.0432 22.4373 64.9044 22.5068L65.0163 22.7304ZM68.7095 23.2301C68.7363 23.1452 68.7242 23.0382 68.7016 22.9366C68.6777 22.8289 68.6361 22.7032 68.5825 22.5681C68.4752 22.2975 68.3151 21.9777 68.1348 21.6681C67.9545 21.3587 67.7517 21.0556 67.5577 20.8197C67.4608 20.7019 67.3642 20.5984 67.2719 20.5189C67.182 20.4414 67.0857 20.3774 66.9893 20.3532L66.9284 20.5956C66.9679 20.6055 67.0285 20.6392 67.1087 20.7083C67.1864 20.7753 67.273 20.8671 67.3646 20.9785C67.5477 21.201 67.743 21.4922 67.9188 21.794C68.0946 22.0957 68.2485 22.4042 68.3501 22.6603C68.401 22.7886 68.4376 22.9008 68.4576 22.9908C68.4789 23.0868 68.4766 23.1374 68.4711 23.1548L68.7095 23.2301ZM9.76055 7.49566C10.0454 7.38922 10.4285 7.34239 10.8642 7.32611C11.2983 7.30989 11.7714 7.32418 12.234 7.33385C12.6936 7.34346 13.144 7.34856 13.5221 7.31209C13.8927 7.27635 14.2272 7.19848 14.4267 7.0158L14.2579 6.83142C14.1248 6.95327 13.867 7.02767 13.4981 7.06324C13.1368 7.09809 12.7007 7.09356 12.2392 7.08391C11.7808 7.07432 11.2982 7.05972 10.8549 7.07628C10.4132 7.09279 9.99688 7.14045 9.67303 7.26149L9.76055 7.49566ZM14.4271 7.01543C14.5293 6.9211 14.5866 6.80883 14.5803 6.68214C14.5744 6.5619 14.5119 6.45339 14.431 6.35938C14.2703 6.17272 13.9883 5.98866 13.6774 5.81119C13.3645 5.63254 12.999 5.44808 12.6688 5.26984C12.3333 5.0888 12.0321 4.91313 11.827 4.74449L11.6682 4.93758C11.8941 5.12338 12.2152 5.30912 12.55 5.48985C12.8901 5.67338 13.243 5.85106 13.5535 6.0283C13.866 6.20674 14.1123 6.37234 14.2415 6.5225C14.3056 6.5969 14.3286 6.6536 14.3306 6.69451C14.3324 6.72899 14.3202 6.77385 14.2575 6.83179L14.4271 7.01543ZM11.8273 4.74471C11.5994 4.55624 11.4399 4.28157 11.3156 3.97056C11.191 3.65878 11.1072 3.326 11.0205 3.02212L10.7801 3.09068C10.8638 3.38412 10.9526 3.73599 11.0835 4.06336C11.2146 4.39151 11.3936 4.7105 11.668 4.93736L11.8273 4.74471ZM10.8302 2.9529C10.4334 3.22167 9.96474 3.40412 9.56765 3.20317L9.45477 3.42623C9.98573 3.69493 10.5655 3.43415 10.9704 3.15989L10.8302 2.9529ZM9.56716 3.20292C9.31906 3.07874 8.99194 3.01017 8.64424 2.97627C8.2944 2.94216 7.91367 2.94227 7.55213 2.96148C7.19031 2.98069 6.8453 3.01917 6.56613 3.06261C6.29141 3.10536 6.06891 3.15462 5.95937 3.19876L6.05279 3.43064C6.13267 3.39846 6.32904 3.35251 6.60457 3.30963C6.87565 3.26745 7.21226 3.22988 7.56539 3.21112C7.91878 3.19235 8.28631 3.19256 8.61998 3.22509C8.95578 3.25783 9.24742 3.32244 9.45526 3.42648L9.56716 3.20292ZM5.95968 3.19863C5.87202 3.23368 5.8186 3.30248 5.79134 3.38163C5.76569 3.45611 5.76201 3.54168 5.76779 3.62679C5.77938 3.7972 5.83292 4.01125 5.89441 4.23372C5.95731 4.46132 6.02965 4.70143 6.08735 4.94061C6.14496 5.17948 6.18504 5.40635 6.18504 5.60127H6.43504C6.43504 5.37645 6.3894 5.1267 6.33038 4.88199C6.27142 4.63758 6.19618 4.38714 6.13537 4.16712C6.07314 3.94196 6.02684 3.75131 6.01722 3.60984C6.0124 3.53902 6.01779 3.49186 6.02771 3.46305C6.03602 3.43892 6.04469 3.43388 6.05248 3.43077L5.95968 3.19863ZM6.18504 5.60127C6.18504 5.96218 5.97479 6.19693 5.72896 6.42373C5.61104 6.53252 5.47683 6.64639 5.37723 6.7636C5.27519 6.8837 5.19239 7.02585 5.19239 7.20099H5.44239C5.44239 7.11049 5.48367 7.02442 5.56775 6.92548C5.65428 6.82364 5.76822 6.72765 5.89848 6.60748C6.14897 6.37638 6.43504 6.07691 6.43504 5.60127H6.18504ZM5.19239 7.20099C5.19239 7.36629 5.12159 7.51255 4.98375 7.68558C4.8409 7.8649 4.65185 8.04389 4.4217 8.29684L4.60662 8.46509C4.81846 8.23226 5.03103 8.02746 5.17929 7.84135C5.33257 7.64893 5.44239 7.44809 5.44239 7.20099H5.19239ZM4.43933 8.48109C4.77265 8.73022 5.1089 8.98115 5.44832 9.16894C5.78831 9.35705 6.14169 9.48781 6.51122 9.48781V9.23781C6.20087 9.23781 5.89052 9.12789 5.56935 8.95019C5.24761 8.77217 4.92527 8.53218 4.58899 8.28084L4.43933 8.48109ZM6.51122 9.48781C7.27578 9.48781 7.80292 9.07631 8.27689 8.63438C8.75999 8.18395 9.18051 7.71402 9.76083 7.49556L9.67275 7.26159C9.03281 7.5025 8.5642 8.02469 8.1064 8.45153C7.63948 8.88688 7.17397 9.23781 6.51122 9.23781V9.48781Z" fill="#868686"/>
</g>
<defs>
<filter id="filter0_d_6252_1087" x="0.329102" y="0.856079" width="72.3955" height="33.4437" filterUnits="userSpaceOnUse" color-interpolation-filters="sRGB">
<feFlood flood-opacity="0" result="BackgroundImageFix"/>
<feColorMatrix in="SourceAlpha" type="matrix" values="0 0 0 0 0 0 0 0 0 0 0 0 0 0 0 0 0 0 127 0" result="hardAlpha"/>
<feOffset dy="2"/>
<feGaussianBlur stdDeviation="2"/>
<feColorMatrix type="matrix" values="0 0 0 0 0 0 0 0 0 0 0 0 0 0 0 0 0 0 0.01 0"/>
<feBlend mode="normal" in2="BackgroundImageFix" result="effect1_dropShadow_6252_1087"/>
<feBlend mode="normal" in="SourceGraphic" in2="effect1_dropShadow_6252_1087" result="shape"/>
</filter>
</defs>
</svg>
