<svg width="70" height="44" viewBox="0 0 70 44" fill="none" xmlns="http://www.w3.org/2000/svg">
<g filter="url(#filter0_d_6252_1115)">
<path fill-rule="evenodd" clip-rule="evenodd" d="M59.0265 24.6214C59.5581 24.5465 61.1601 22.7927 61.6946 22.7927C62.2277 22.7927 64.514 23.2521 64.514 22.872C64.514 22.4889 65.2791 21.193 65.1219 20.8114C64.9707 20.4328 64.2101 19.9015 64.3613 19.5184C64.514 19.1383 65.5801 19.1383 65.5801 18.6804C65.5801 18.2225 64.7431 17.9936 64.7431 17.6883C64.7431 17.386 65.8106 16.8517 65.7328 16.2427C65.6565 15.6351 64.7431 15.5558 63.7519 15.0231C62.7607 14.4874 61.7666 14.7178 60.8532 14.2614C59.9399 13.8049 58.0324 14.1087 58.0324 13.8049C58.0324 13.5011 56.8151 12.509 56.5082 11.9748C56.2042 11.4435 55.213 11.7459 54.6036 12.1274C53.9927 12.5105 53.4582 12.6617 52.8503 12.2815C52.2409 11.8985 51.7079 11.2894 51.1734 11.5169C50.6389 11.7444 49.6477 11.5947 49.8768 10.8286C50.1044 10.0669 48.887 8.39378 48.3525 8.1663C47.8195 7.93588 46.2174 8.31746 45.8371 7.55723C45.4539 6.79259 44.7681 6.18206 45.0735 5.65224C45.376 5.11803 44.9972 3.668 44.6154 3.05894C44.2321 2.45134 42.329 2.52765 41.796 2.75514C41.263 2.98262 40.0412 2.52765 39.5067 2.83292C38.9722 3.13819 38.6697 3.668 37.9062 3.668C37.4818 3.668 37.1984 3.61223 36.9664 3.27615C36.1411 3.64746 34.7564 3.72231 34.7564 3.72231C34.7564 3.72231 32.7197 5.34551 32.7197 5.95458C32.7197 6.56218 32.6228 7.57925 32.1117 7.07291C31.6037 6.56511 29.47 6.56218 28.962 6.87038C28.451 7.17418 27.6404 5.65078 26.7256 6.15858C25.8122 6.66638 24.5919 5.44824 24.4877 5.95458C24.3878 6.46531 23.0662 6.05584 22.1514 5.65078C21.2381 5.24424 19.611 5.85478 19.0002 5.14151C18.3893 4.42824 14.426 4.42971 13.1044 4.42971C11.7829 4.42971 11.4789 5.14151 10.868 5.75057C10.3174 6.30387 9.67861 6.19086 9.02957 6.16004C9.08684 6.67372 9.18669 7.13015 9.31738 7.32388C9.62134 7.78178 11.0707 9.99057 10.6889 10.6774C10.3086 11.3628 9.62134 11.3628 9.16613 11.8956C8.70798 12.4283 6.03985 14.7927 5.9635 15.1698C5.88714 15.5514 6.42311 17.2275 6.03985 17.5327C5.661 17.8365 4.51416 19.4377 4.51416 20.0453C4.51416 20.6559 5.3541 21.4939 6.03985 21.7228C6.32767 21.8212 6.51416 21.9576 6.59932 22.1191C7.13236 22.0457 7.61988 22.0031 7.92237 22.0031C8.43045 22.0031 10.6669 22.6166 11.3746 22.6166C12.0883 22.6166 13.1059 22.9189 13.4113 23.2242C13.7182 23.528 14.426 23.3225 14.9356 22.8162C15.4451 22.3113 16.0545 22.6166 16.6654 22.6166C17.2718 22.6166 18.2909 22.1044 18.5949 21.5995C18.8989 21.0947 21.9502 20.2787 22.7608 20.1745C23.5743 20.0761 24.7946 21.6979 25.5053 21.6979C26.219 21.6979 27.5376 22.2086 27.9458 23.528C28.3526 24.8489 29.5714 26.4765 30.0794 26.9799C30.5861 27.4906 30.8915 28.81 30.8915 29.2166C30.8915 29.6216 29.774 29.1153 28.5523 28.81C27.3364 28.5048 27.2322 29.7258 27.2322 30.3334C27.2322 30.944 25.5053 33.0764 25.1999 33.483C24.8944 33.891 25.8122 34.1933 26.5214 34.2946C26.8239 34.3371 28.0471 33.483 28.451 33.483C28.6169 33.483 29.122 33.8748 29.6639 34.3357C29.5479 32.7462 29.8768 32.8357 31.2953 31.7585C32.7711 30.6416 32.9223 28.5576 34.2439 28.3037C35.5655 28.0483 36.1235 27.4378 38.0559 27.7416C39.9869 28.0483 37.0926 29.265 38.4098 29.9768C39.7329 30.6901 43.7989 29.7743 44.0031 30.7899C44.2057 31.8055 39.3246 32.824 39.4289 33.3318C39.5302 33.8381 42.0236 34.3459 42.8856 34.9022C43.7505 35.4643 42.6315 37.0361 43.0383 37.5468C43.445 38.0546 44.7652 37.6452 45.8327 36.8849C46.9003 36.1218 47.7607 36.3757 49.1352 35.4643C50.5096 34.5485 53.354 35.3601 53.7093 34.8038C54.0632 34.2447 52.8944 33.6855 50.2527 33.891C47.611 34.092 47.4583 31.6029 47.4583 31.0937C47.4583 30.5873 50.2027 28.5033 51.7769 28.3551C53.354 28.201 54.6227 27.7416 56.1484 27.0357C56.7622 26.7495 57.8415 26.4574 58.9428 26.2475C58.7842 25.5328 58.5713 24.6874 59.0265 24.6214Z" fill="white"/>
<path fill-rule="evenodd" clip-rule="evenodd" d="M59.0265 24.6214C59.5581 24.5465 61.1601 22.7927 61.6946 22.7927C62.2277 22.7927 64.514 23.2521 64.514 22.872C64.514 22.4889 65.2791 21.193 65.1219 20.8114C64.9707 20.4328 64.2101 19.9015 64.3613 19.5184C64.514 19.1383 65.5801 19.1383 65.5801 18.6804C65.5801 18.2225 64.7431 17.9936 64.7431 17.6883C64.7431 17.386 65.8106 16.8517 65.7328 16.2427C65.6565 15.6351 64.7431 15.5558 63.7519 15.0231C62.7607 14.4874 61.7666 14.7178 60.8532 14.2614C59.9399 13.8049 58.0324 14.1087 58.0324 13.8049C58.0324 13.5011 56.8151 12.509 56.5082 11.9748C56.2042 11.4435 55.213 11.7459 54.6036 12.1274C53.9927 12.5105 53.4582 12.6617 52.8503 12.2815C52.2409 11.8985 51.7079 11.2894 51.1734 11.5169C50.6389 11.7444 49.6477 11.5947 49.8768 10.8286C50.1044 10.0669 48.887 8.39378 48.3525 8.1663C47.8195 7.93588 46.2174 8.31746 45.8371 7.55723C45.4539 6.79259 44.7681 6.18206 45.0735 5.65224C45.376 5.11803 44.9972 3.668 44.6154 3.05894C44.2321 2.45134 42.329 2.52765 41.796 2.75514C41.263 2.98262 40.0412 2.52765 39.5067 2.83292C38.9722 3.13819 38.6697 3.668 37.9062 3.668C37.4818 3.668 37.1984 3.61223 36.9664 3.27615C36.1411 3.64746 34.7564 3.72231 34.7564 3.72231C34.7564 3.72231 32.7197 5.34551 32.7197 5.95458C32.7197 6.56218 32.6228 7.57925 32.1117 7.07291C31.6037 6.56511 29.47 6.56218 28.962 6.87038C28.451 7.17418 27.6404 5.65078 26.7256 6.15858C25.8122 6.66638 24.5919 5.44824 24.4877 5.95458C24.3878 6.46531 23.0662 6.05584 22.1514 5.65078C21.2381 5.24424 19.611 5.85478 19.0002 5.14151C18.3893 4.42824 14.426 4.42971 13.1044 4.42971C11.7829 4.42971 11.4789 5.14151 10.868 5.75057C10.3174 6.30387 9.67861 6.19086 9.02957 6.16004C9.08684 6.67372 9.18669 7.13015 9.31738 7.32388C9.62134 7.78178 11.0707 9.99057 10.6889 10.6774C10.3086 11.3628 9.62134 11.3628 9.16613 11.8956C8.70798 12.4283 6.03985 14.7927 5.9635 15.1698C5.88714 15.5514 6.42311 17.2275 6.03985 17.5327C5.661 17.8365 4.51416 19.4377 4.51416 20.0453C4.51416 20.6559 5.3541 21.4939 6.03985 21.7228C6.32767 21.8212 6.51416 21.9576 6.59932 22.1191C7.13236 22.0457 7.61988 22.0031 7.92237 22.0031C8.43045 22.0031 10.6669 22.6166 11.3746 22.6166C12.0883 22.6166 13.1059 22.9189 13.4113 23.2242C13.7182 23.528 14.426 23.3225 14.9356 22.8162C15.4451 22.3113 16.0545 22.6166 16.6654 22.6166C17.2718 22.6166 18.2909 22.1044 18.5949 21.5995C18.8989 21.0947 21.9502 20.2787 22.7608 20.1745C23.5743 20.0761 24.7946 21.6979 25.5053 21.6979C26.219 21.6979 27.5376 22.2086 27.9458 23.528C28.3526 24.8489 29.5714 26.4765 30.0794 26.9799C30.5861 27.4906 30.8915 28.81 30.8915 29.2166C30.8915 29.6216 29.774 29.1153 28.5523 28.81C27.3364 28.5048 27.2322 29.7258 27.2322 30.3334C27.2322 30.944 25.5053 33.0764 25.1999 33.483C24.8944 33.891 25.8122 34.1933 26.5214 34.2946C26.8239 34.3371 28.0471 33.483 28.451 33.483C28.6169 33.483 29.122 33.8748 29.6639 34.3357C29.5479 32.7462 29.8768 32.8357 31.2953 31.7585C32.7711 30.6416 32.9223 28.5576 34.2439 28.3037C35.5655 28.0483 36.1235 27.4378 38.0559 27.7416C39.9869 28.0483 37.0926 29.265 38.4098 29.9768C39.7329 30.6901 43.7989 29.7743 44.0031 30.7899C44.2057 31.8055 39.3246 32.824 39.4289 33.3318C39.5302 33.8381 42.0236 34.3459 42.8856 34.9022C43.7505 35.4643 42.6315 37.0361 43.0383 37.5468C43.445 38.0546 44.7652 37.6452 45.8327 36.8849C46.9003 36.1218 47.7607 36.3757 49.1352 35.4643C50.5096 34.5485 53.354 35.3601 53.7093 34.8038C54.0632 34.2447 52.8944 33.6855 50.2527 33.891C47.611 34.092 47.4583 31.6029 47.4583 31.0937C47.4583 30.5873 50.2027 28.5033 51.7769 28.3551C53.354 28.201 54.6227 27.7416 56.1484 27.0357C56.7622 26.7495 57.8415 26.4574 58.9428 26.2475C58.7842 25.5328 58.5713 24.6874 59.0265 24.6214Z" stroke="#868686" stroke-width="0.25"/>
</g>
<defs>
<filter id="filter0_d_6252_1115" x="0.38916" y="0.462891" width="69.4727" height="43.4337" filterUnits="userSpaceOnUse" color-interpolation-filters="sRGB">
<feFlood flood-opacity="0" result="BackgroundImageFix"/>
<feColorMatrix in="SourceAlpha" type="matrix" values="0 0 0 0 0 0 0 0 0 0 0 0 0 0 0 0 0 0 127 0" result="hardAlpha"/>
<feOffset dy="2"/>
<feGaussianBlur stdDeviation="2"/>
<feColorMatrix type="matrix" values="0 0 0 0 0 0 0 0 0 0 0 0 0 0 0 0 0 0 0.01 0"/>
<feBlend mode="normal" in2="BackgroundImageFix" result="effect1_dropShadow_6252_1115"/>
<feBlend mode="normal" in="SourceGraphic" in2="effect1_dropShadow_6252_1115" result="shape"/>
</filter>
</defs>
</svg>
