<svg width="26" height="27" viewBox="0 0 26 27" fill="none" xmlns="http://www.w3.org/2000/svg">
<g filter="url(#filter0_d_6252_1144)">
<path fill-rule="evenodd" clip-rule="evenodd" d="M21.227 10.8858C21.227 9.26549 19.4517 8.80172 18.9098 8.18385C18.368 7.56597 15.9759 6.56211 15.0493 5.25152C14.1228 3.93798 13.5809 5.71088 13.1184 5.7916C12.6558 5.86792 12.7336 4.78628 11.5736 3.39496C10.415 2.00658 9.33424 2.00658 8.63821 2.31772C8.39592 2.42485 8.03762 2.441 7.61471 2.37936C6.99944 3.08822 6.55157 3.72518 6.55157 4.3225C6.55157 5.7916 5.46934 7.4104 5.39592 10.1886C5.31516 12.9698 4.54424 12.506 4.46788 14.6664C4.39005 16.8297 5.16244 16.4422 5.46934 16.7519C5.64262 16.9221 5.43263 17.6104 5.21531 18.1931C5.53983 18.4793 5.86288 18.9313 6.5736 18.8506C7.94658 18.698 9.31809 19.2351 10.995 19.9939C12.6705 20.7556 12.0611 19.7649 13.6632 19.9939C15.2623 20.2243 17.0919 20.3755 18.8452 19.307C20.0449 18.5762 20.6485 17.3096 21.5868 16.0959C20.6793 14.2408 21.227 12.0467 21.227 10.8858Z" fill="white"/>
<path fill-rule="evenodd" clip-rule="evenodd" d="M21.227 10.8858C21.227 9.26549 19.4517 8.80172 18.9098 8.18385C18.368 7.56597 15.9759 6.56211 15.0493 5.25152C14.1228 3.93798 13.5809 5.71088 13.1184 5.7916C12.6558 5.86792 12.7336 4.78628 11.5736 3.39496C10.415 2.00658 9.33424 2.00658 8.63821 2.31772C8.39592 2.42485 8.03762 2.441 7.61471 2.37936C6.99944 3.08822 6.55157 3.72518 6.55157 4.3225C6.55157 5.7916 5.46934 7.4104 5.39592 10.1886C5.31516 12.9698 4.54424 12.506 4.46788 14.6664C4.39005 16.8297 5.16244 16.4422 5.46934 16.7519C5.64262 16.9221 5.43263 17.6104 5.21531 18.1931C5.53983 18.4793 5.86288 18.9313 6.5736 18.8506C7.94658 18.698 9.31809 19.2351 10.995 19.9939C12.6705 20.7556 12.0611 19.7649 13.6632 19.9939C15.2623 20.2243 17.0919 20.3755 18.8452 19.307C20.0449 18.5762 20.6485 17.3096 21.5868 16.0959C20.6793 14.2408 21.227 12.0467 21.227 10.8858Z" stroke="#868686" stroke-width="0.25"/>
</g>
<defs>
<filter id="filter0_d_6252_1144" x="0.337402" y="0.0249023" width="25.396" height="26.3871" filterUnits="userSpaceOnUse" color-interpolation-filters="sRGB">
<feFlood flood-opacity="0" result="BackgroundImageFix"/>
<feColorMatrix in="SourceAlpha" type="matrix" values="0 0 0 0 0 0 0 0 0 0 0 0 0 0 0 0 0 0 127 0" result="hardAlpha"/>
<feOffset dy="2"/>
<feGaussianBlur stdDeviation="2"/>
<feColorMatrix type="matrix" values="0 0 0 0 0 0 0 0 0 0 0 0 0 0 0 0 0 0 0.01 0"/>
<feBlend mode="normal" in2="BackgroundImageFix" result="effect1_dropShadow_6252_1144"/>
<feBlend mode="normal" in="SourceGraphic" in2="effect1_dropShadow_6252_1144" result="shape"/>
</filter>
</defs>
</svg>
