<svg width="35" height="61" viewBox="0 0 35 61" fill="none" xmlns="http://www.w3.org/2000/svg">
<g filter="url(#filter0_d_6252_1095)">
<path fill-rule="evenodd" clip-rule="evenodd" d="M23.7971 8.60067C22.8485 8.46712 20.4036 6.70596 20.4036 6.02351C20.4036 5.34546 21.6282 4.26088 19.4535 3.98937C17.2846 3.71639 17.0115 2.90332 16.6062 2.49679C16.1995 2.09025 14.433 3.30986 13.8911 4.25941C13.3493 5.2075 12.8059 3.9879 11.5842 4.66595C10.3625 5.34399 9.14369 3.71639 8.60184 4.66595C8.05853 5.61404 6.69876 4.12292 6.01888 4.93599C5.76191 5.2486 5.4227 5.49956 5.0835 5.66687C5.67674 6.33024 6.32432 6.9804 6.32432 7.47793C6.32432 8.34971 8.06587 9.00427 8.06587 10.0903C8.06587 11.1793 10.2435 12.0481 10.8985 11.6123C11.5519 11.1793 13.0776 10.7419 13.2949 12.2653C13.5093 13.7902 14.383 13.7902 14.383 14.8748C14.383 15.9638 12.2039 15.3136 11.7692 16.4011C11.3346 17.4887 15.4711 18.7948 15.4711 19.6652C15.4711 20.534 16.778 21.6259 17.2127 22.709C17.6488 23.7965 19.6106 25.1071 20.0423 26.4089C20.4785 27.7151 22.2215 28.3682 22.8764 29.0198C23.5269 29.6729 23.7457 31.1978 23.5269 32.504C23.3111 33.8073 23.3081 36.201 24.615 38.1603C25.9219 40.1196 23.0908 40.9913 22.2215 42.0774C21.3507 43.1649 21.7854 44.6868 19.1716 44.0367C16.5592 43.3836 19.6106 46.2117 19.1716 47.0805C18.7369 47.9538 15.2538 46.2117 15.2538 47.0805C15.2538 47.6045 14.0761 48.284 13.1363 48.7434C13.5108 49.2321 14.0409 49.5065 14.6576 49.894C15.4741 50.4003 13.6459 51.2662 13.6958 52.888C13.7443 54.5156 14.966 54.9236 15.4197 54.2602C15.8794 53.5983 17.7604 52.1277 18.5225 51.8738C19.2846 51.6199 18.5225 50.5045 19.3346 50.553C20.1481 50.6014 19.894 49.3833 20.2509 48.7243C20.6077 48.0683 21.1642 48.3163 22.3845 48.3706C23.6062 48.4205 25.3301 47.2522 27.0614 46.1339C28.7883 45.02 29.0937 44.7661 29.7516 41.5666C30.4168 38.3643 28.9895 34.5587 28.941 33.5886C28.8925 32.6243 26.5519 28.1539 25.6884 28.2068C24.8221 28.2581 20.8617 24.1943 20.1481 23.5324C19.4403 22.8719 19.6415 21.7565 18.6238 20.8892C17.6092 20.0277 17.5064 17.7925 17.7604 16.2192C18.0189 14.6444 20.2509 14.2863 20.2024 13.2178C20.1525 12.1523 20.4021 11.2395 21.5196 11.1896C22.6385 11.1367 23.7061 10.2224 24.2141 9.4108C24.2876 9.29046 24.3904 9.21708 24.5049 9.15984C24.2185 8.83696 23.9718 8.62709 23.7971 8.60067Z" fill="white"/>
<path fill-rule="evenodd" clip-rule="evenodd" d="M23.7971 8.60067C22.8485 8.46712 20.4036 6.70596 20.4036 6.02351C20.4036 5.34546 21.6282 4.26088 19.4535 3.98937C17.2846 3.71639 17.0115 2.90332 16.6062 2.49679C16.1995 2.09025 14.433 3.30986 13.8911 4.25941C13.3493 5.2075 12.8059 3.9879 11.5842 4.66595C10.3625 5.34399 9.14369 3.71639 8.60184 4.66595C8.05853 5.61404 6.69876 4.12292 6.01888 4.93599C5.76191 5.2486 5.4227 5.49956 5.0835 5.66687C5.67674 6.33024 6.32432 6.9804 6.32432 7.47793C6.32432 8.34971 8.06587 9.00427 8.06587 10.0903C8.06587 11.1793 10.2435 12.0481 10.8985 11.6123C11.5519 11.1793 13.0776 10.7419 13.2949 12.2653C13.5093 13.7902 14.383 13.7902 14.383 14.8748C14.383 15.9638 12.2039 15.3136 11.7692 16.4011C11.3346 17.4887 15.4711 18.7948 15.4711 19.6652C15.4711 20.534 16.778 21.6259 17.2127 22.709C17.6488 23.7965 19.6106 25.1071 20.0423 26.4089C20.4785 27.7151 22.2215 28.3682 22.8764 29.0198C23.5269 29.6729 23.7457 31.1978 23.5269 32.504C23.3111 33.8073 23.3081 36.201 24.615 38.1603C25.9219 40.1196 23.0908 40.9913 22.2215 42.0774C21.3507 43.1649 21.7854 44.6868 19.1716 44.0367C16.5592 43.3836 19.6106 46.2117 19.1716 47.0805C18.7369 47.9538 15.2538 46.2117 15.2538 47.0805C15.2538 47.6045 14.0761 48.284 13.1363 48.7434C13.5108 49.2321 14.0409 49.5065 14.6576 49.894C15.4741 50.4003 13.6459 51.2662 13.6958 52.888C13.7443 54.5156 14.966 54.9236 15.4197 54.2602C15.8794 53.5983 17.7604 52.1277 18.5225 51.8738C19.2846 51.6199 18.5225 50.5045 19.3346 50.553C20.1481 50.6014 19.894 49.3833 20.2509 48.7243C20.6077 48.0683 21.1642 48.3163 22.3845 48.3706C23.6062 48.4205 25.3301 47.2522 27.0614 46.1339C28.7883 45.02 29.0937 44.7661 29.7516 41.5666C30.4168 38.3643 28.9895 34.5587 28.941 33.5886C28.8925 32.6243 26.5519 28.1539 25.6884 28.2068C24.8221 28.2581 20.8617 24.1943 20.1481 23.5324C19.4403 22.8719 19.6415 21.7565 18.6238 20.8892C17.6092 20.0277 17.5064 17.7925 17.7604 16.2192C18.0189 14.6444 20.2509 14.2863 20.2024 13.2178C20.1525 12.1523 20.4021 11.2395 21.5196 11.1896C22.6385 11.1367 23.7061 10.2224 24.2141 9.4108C24.2876 9.29046 24.3904 9.21708 24.5049 9.15984C24.2185 8.83696 23.9718 8.62709 23.7971 8.60067Z" stroke="#868686" stroke-width="0.25"/>
</g>
<defs>
<filter id="filter0_d_6252_1095" x="0.880859" y="0.291382" width="33.1719" height="60.3973" filterUnits="userSpaceOnUse" color-interpolation-filters="sRGB">
<feFlood flood-opacity="0" result="BackgroundImageFix"/>
<feColorMatrix in="SourceAlpha" type="matrix" values="0 0 0 0 0 0 0 0 0 0 0 0 0 0 0 0 0 0 127 0" result="hardAlpha"/>
<feOffset dy="2"/>
<feGaussianBlur stdDeviation="2"/>
<feColorMatrix type="matrix" values="0 0 0 0 0 0 0 0 0 0 0 0 0 0 0 0 0 0 0.01 0"/>
<feBlend mode="normal" in2="BackgroundImageFix" result="effect1_dropShadow_6252_1095"/>
<feBlend mode="normal" in="SourceGraphic" in2="effect1_dropShadow_6252_1095" result="shape"/>
</filter>
</defs>
</svg>
