<svg width="50" height="33" viewBox="0 0 50 33" fill="none" xmlns="http://www.w3.org/2000/svg">
<g filter="url(#filter0_d_6252_1280)">
<path fill-rule="evenodd" clip-rule="evenodd" d="M33.8944 3.47192C32.1264 3.86378 27.7036 3.56878 27.1162 3.86378C26.5259 4.16024 22.4025 7.10725 21.8152 8.48095C21.2249 9.85612 20.3394 10.0513 19.4554 9.36593C18.5729 8.67614 14.9356 8.87428 14.6448 8.57635C14.3497 8.28429 11.6977 7.99076 10.4217 8.18742C9.14266 8.38409 8.45543 7.59597 7.86953 7.79116C7.27776 7.98636 6.68745 8.67614 6.3967 9.06653C6.10155 9.46133 6.68745 10.543 6.49509 10.9363C6.43929 11.0361 5.80933 11.3693 4.90625 11.7993C5.21609 12.5624 5.3967 13.3491 5.197 13.9185C4.79171 15.0912 5.14854 17.8298 6.21315 19.4045C7.28069 20.9764 6.87394 23.8735 7.38202 24.4356C7.89156 24.9918 11.8548 24.8935 13.6316 23.7223C15.4114 22.5555 16.6316 22.3486 18.056 22.3486C19.4789 22.3486 21.3585 21.1319 21.8166 20.5199C22.2733 19.9123 24.357 19.8624 25.2204 19.9652C26.0839 20.0664 26.9488 19.1022 27.9135 18.138C28.8783 17.1693 31.9297 16.7643 35.1822 15.7472C38.4333 14.7331 37.7211 13.2097 38.4818 12.2924C39.1206 11.5278 40.0178 11.7494 41.4245 11.1887C39.8445 7.95407 38.0897 4.32902 37.2116 2.51062C35.6492 2.992 34.3849 3.36331 33.8944 3.47192ZM42.2691 26.2305C43.4071 27.409 45.6479 26.0367 45.7654 25.5671C45.8858 25.093 40.9857 24.9067 42.2691 26.2305Z" fill="white"/>
<path d="M33.8944 3.47192L33.8674 3.34988L33.8674 3.34988L33.8944 3.47192ZM27.1162 3.86378L27.1723 3.97548L27.1723 3.97548L27.1162 3.86378ZM21.8152 8.48095L21.93 8.53026L21.9301 8.53009L21.8152 8.48095ZM19.4554 9.36593L19.3784 9.46442L19.3788 9.46472L19.4554 9.36593ZM14.6448 8.57635L14.7343 8.48903L14.7328 8.48749L14.6448 8.57635ZM10.4217 8.18742L10.4407 8.31097L10.4407 8.31096L10.4217 8.18742ZM7.86953 7.79116L7.90869 7.90987L7.90904 7.90975L7.86953 7.79116ZM6.3967 9.06653L6.49682 9.14138L6.49695 9.1412L6.3967 9.06653ZM6.49509 10.9363L6.60436 10.9974L6.60738 10.9912L6.49509 10.9363ZM4.90625 11.7993L4.85251 11.6864L4.74609 11.7371L4.79043 11.8463L4.90625 11.7993ZM5.197 13.9185L5.07904 13.8772L5.07886 13.8777L5.197 13.9185ZM6.21315 19.4045L6.10959 19.4745L6.10974 19.4748L6.21315 19.4045ZM7.38202 24.4356L7.28928 24.5194L7.28984 24.52L7.38202 24.4356ZM13.6316 23.7223L13.5631 23.6178L13.5628 23.6179L13.6316 23.7223ZM21.8166 20.5199L21.7167 20.4448L21.7166 20.445L21.8166 20.5199ZM25.2204 19.9652L25.2057 20.0893L25.2059 20.0893L25.2204 19.9652ZM27.9135 18.138L28.0019 18.2264L28.0021 18.2262L27.9135 18.138ZM35.1822 15.7472L35.145 15.6279L35.1449 15.6279L35.1822 15.7472ZM38.4818 12.2924L38.3859 12.2123L38.3856 12.2126L38.4818 12.2924ZM41.4245 11.1887L41.4708 11.3048L41.596 11.255L41.5368 11.1339L41.4245 11.1887ZM37.2116 2.51062L37.3242 2.45626L37.2775 2.35953L37.1748 2.39116L37.2116 2.51062ZM42.2691 26.2305L42.359 26.1436L42.3588 26.1435L42.2691 26.2305ZM45.7654 25.5671L45.6442 25.5363L45.6441 25.5368L45.7654 25.5671ZM33.8674 3.34988C32.9993 3.54228 31.4674 3.56702 30.0615 3.57918C29.3627 3.58522 28.6969 3.58825 28.1697 3.60829C27.9061 3.61831 27.6745 3.63267 27.4892 3.65415C27.3097 3.67495 27.1556 3.70409 27.0601 3.75207L27.1723 3.97548C27.2236 3.94972 27.3362 3.92354 27.518 3.90249C27.6938 3.8821 27.9179 3.86804 28.1792 3.85811C28.7017 3.83825 29.3624 3.83523 30.0637 3.82917C31.4581 3.81711 33.0216 3.79341 33.9215 3.59396L33.8674 3.34988ZM27.0601 3.75207C26.9025 3.83119 26.5264 4.07678 26.0492 4.41513C25.5686 4.75587 24.9775 5.19646 24.3863 5.67091C23.7955 6.14513 23.2029 6.65457 22.7202 7.13289C22.2416 7.60719 21.8576 8.06383 21.7002 8.43181L21.9301 8.53009C22.0665 8.21121 22.4181 7.78434 22.8962 7.31046C23.3703 6.8406 23.9556 6.33719 24.5428 5.86588C25.1297 5.39481 25.7168 4.95721 26.1938 4.61907C26.674 4.27856 27.0347 4.0446 27.1723 3.97548L27.0601 3.75207ZM21.7003 8.43164C21.4115 9.10455 21.0627 9.45881 20.7059 9.57755C20.3541 9.69466 19.955 9.5951 19.532 9.26715L19.3788 9.46472C19.8398 9.82215 20.3254 9.96768 20.7849 9.81475C21.2395 9.66345 21.6286 9.23252 21.93 8.53026L21.7003 8.43164ZM19.5324 9.26745C19.2849 9.07403 18.8638 8.95346 18.3941 8.87036C17.9177 8.78608 17.3657 8.73652 16.8369 8.6995C16.3043 8.66221 15.8008 8.63791 15.4058 8.60387C15.2089 8.5869 15.0447 8.56793 14.9221 8.5447C14.8607 8.53307 14.8131 8.52098 14.7786 8.50883C14.7408 8.49551 14.7319 8.48658 14.7343 8.48904L14.5554 8.66365C14.5941 8.70335 14.6477 8.72778 14.6956 8.74463C14.7467 8.76265 14.808 8.77752 14.8756 8.79033C15.011 8.81599 15.1855 8.83581 15.3843 8.85294C15.7807 8.8871 16.2961 8.91225 16.8195 8.94889C17.3467 8.9858 17.8877 9.03466 18.3506 9.11654C18.8201 9.19961 19.1846 9.31294 19.3784 9.46442L19.5324 9.26745ZM14.7328 8.48749C14.6739 8.42923 14.5756 8.38536 14.4717 8.34954C14.3617 8.31163 14.2235 8.27573 14.0657 8.24241C13.7499 8.17567 13.3461 8.11717 12.9134 8.07422C12.0507 7.98859 11.0563 7.96314 10.4026 8.06388L10.4407 8.31096C11.0631 8.21505 12.0327 8.23803 12.8887 8.323C13.3155 8.36537 13.7098 8.42272 14.0141 8.48701C14.1664 8.5192 14.2937 8.55262 14.3902 8.58589C14.4928 8.62126 14.542 8.65045 14.5569 8.6652L14.7328 8.48749ZM10.4027 8.06388C9.79424 8.15743 9.32653 8.01793 8.92861 7.87244C8.73305 7.80094 8.54163 7.72279 8.36707 7.67741C8.18916 7.63116 8.00905 7.61293 7.83002 7.67257L7.90904 7.90975C8.02296 7.8718 8.14847 7.87889 8.30417 7.91936C8.46322 7.96071 8.6334 8.0307 8.84276 8.10724C9.25467 8.25785 9.77008 8.41408 10.4407 8.31097L10.4027 8.06388ZM7.83038 7.67245C7.50828 7.77869 7.19665 8.01498 6.93402 8.26514C6.6694 8.51719 6.44447 8.79312 6.29645 8.99187L6.49695 9.1412C6.63968 8.94956 6.85528 8.6854 7.10644 8.44616C7.3596 8.20503 7.63901 7.99883 7.90869 7.90987L7.83038 7.67245ZM6.29659 8.99169C6.19536 9.12709 6.17892 9.30667 6.18986 9.4779C6.20102 9.65255 6.24296 9.8464 6.28558 10.0302C6.32921 10.2184 6.37333 10.3954 6.39562 10.5514C6.41863 10.7125 6.41284 10.82 6.3828 10.8814L6.60738 10.9912C6.67352 10.856 6.66662 10.6807 6.64311 10.5161C6.61886 10.3463 6.57102 10.1545 6.52912 9.97373C6.4862 9.78861 6.44903 9.61344 6.43935 9.46196C6.42946 9.30705 6.45047 9.20338 6.49682 9.14138L6.29659 8.99169ZM6.38598 10.8753C6.39188 10.8648 6.39324 10.868 6.36966 10.8869C6.35013 10.9025 6.32148 10.9227 6.28278 10.9476C6.20567 10.997 6.09666 11.0598 5.95908 11.1339C5.68441 11.282 5.3033 11.4718 4.85251 11.6864L4.95999 11.9121C5.41228 11.6968 5.79769 11.5049 6.07771 11.354C6.21749 11.2786 6.33287 11.2125 6.41779 11.158C6.46011 11.1308 6.49688 11.1053 6.52601 11.0819C6.55109 11.0618 6.58435 11.0328 6.60419 10.9973L6.38598 10.8753ZM4.79043 11.8463C4.9432 12.2226 5.06239 12.6006 5.11932 12.9516C5.17641 13.3036 5.16942 13.6195 5.07904 13.8772L5.31495 13.9599C5.42429 13.6481 5.42683 13.286 5.36609 12.9115C5.30518 12.536 5.17913 12.1391 5.02207 11.7522L4.79043 11.8463ZM5.07886 13.8777C4.86608 14.4933 4.8577 15.4958 5.03057 16.5313C5.20399 17.5702 5.56394 18.6674 6.10959 19.4745L6.3167 19.3345C5.79775 18.5669 5.44698 17.5074 5.27716 16.4902C5.10678 15.4695 5.12263 14.5164 5.31514 13.9594L5.07886 13.8777ZM6.10974 19.4748C6.62333 20.231 6.78747 21.3173 6.88296 22.3107C6.93 22.8001 6.9609 23.272 7.01125 23.6499C7.03659 23.84 7.06753 24.0125 7.10968 24.1574C7.15122 24.3002 7.20699 24.4284 7.28928 24.5194L7.47475 24.3518C7.43002 24.3023 7.38736 24.2169 7.34973 24.0876C7.3127 23.9603 7.28373 23.802 7.25906 23.6169C7.20943 23.2444 7.18003 22.7883 7.13181 22.2867C7.03677 21.2981 6.87052 20.15 6.31655 19.3343L6.10974 19.4748ZM7.28984 24.52C7.37717 24.6153 7.52216 24.6826 7.688 24.7324C7.8585 24.7836 8.07025 24.8219 8.31024 24.8478C8.79069 24.8995 9.39742 24.9025 10.0415 24.8513C11.3246 24.7494 12.7853 24.4299 13.7004 23.8267L13.5628 23.6179C12.7012 24.1859 11.2919 24.5012 10.0217 24.6021C9.38918 24.6524 8.79849 24.6489 8.337 24.5992C8.10602 24.5743 7.91066 24.5382 7.75994 24.493C7.60457 24.4463 7.51424 24.3949 7.47419 24.3511L7.28984 24.52ZM13.7002 23.8269C15.4571 22.675 16.6529 22.4736 18.056 22.4736V22.2236C16.6103 22.2236 15.3656 22.4361 13.5631 23.6178L13.7002 23.8269ZM18.056 22.4736C18.7978 22.4736 19.6452 22.1584 20.3575 21.7738C21.068 21.3901 21.6714 20.9225 21.9167 20.5949L21.7166 20.445C21.5037 20.7294 20.9382 21.1761 20.2387 21.5538C19.541 21.9305 18.7371 22.2236 18.056 22.2236V22.4736ZM21.9166 20.595C22.0068 20.475 22.1916 20.3678 22.4583 20.2814C22.7202 20.1965 23.0413 20.1377 23.3797 20.1004C24.0568 20.0258 24.784 20.0391 25.2057 20.0893L25.2352 19.841C24.7935 19.7885 24.0471 19.7754 23.3523 19.8519C23.0048 19.8902 22.6653 19.9515 22.3812 20.0436C22.1017 20.1342 21.8548 20.2611 21.7167 20.4448L21.9166 20.595ZM25.2059 20.0893C25.689 20.146 26.1554 19.9031 26.6062 19.5495C27.0586 19.1945 27.5238 18.7042 28.0019 18.2264L27.8252 18.0496C27.3385 18.5359 26.8889 19.0099 26.4518 19.3528C26.0131 19.697 25.6153 19.8856 25.235 19.841L25.2059 20.0893ZM28.0021 18.2262C28.2253 18.0021 28.5781 17.8028 29.0455 17.6148C29.511 17.4275 30.0788 17.2558 30.7226 17.0814C32.0053 16.7339 33.5908 16.3758 35.2195 15.8665L35.1449 15.6279C33.5212 16.1356 31.9547 16.4886 30.6573 16.8401C30.0111 17.0151 29.4318 17.1899 28.9522 17.3828C28.4746 17.575 28.0842 17.7895 27.825 18.0498L28.0021 18.2262ZM35.2195 15.8665C36.8664 15.3528 37.5337 14.7014 37.8769 14.0411C38.0449 13.7178 38.1326 13.396 38.2217 13.1143C38.3123 12.8279 38.4046 12.5813 38.578 12.3722L38.3856 12.2126C38.1787 12.4621 38.0748 12.7499 37.9833 13.0389C37.8905 13.3324 37.8104 13.6269 37.655 13.9258C37.3514 14.5101 36.7492 15.1275 35.145 15.6279L35.2195 15.8665ZM38.5777 12.3725C38.8703 12.0223 39.2208 11.8944 39.6931 11.7859C40.1637 11.6778 40.7556 11.5899 41.4708 11.3048L41.3782 11.0726C40.6867 11.3482 40.1266 11.4298 39.6372 11.5422C39.1495 11.6542 38.7321 11.7978 38.3859 12.2123L38.5777 12.3725ZM41.5368 11.1339C39.9569 7.89944 38.2022 4.27458 37.3242 2.45626L37.099 2.56498C37.9772 4.38346 39.7321 8.0087 41.3122 11.2436L41.5368 11.1339ZM37.1748 2.39116C35.6105 2.87313 34.3518 3.24262 33.8674 3.34988L33.9215 3.59396C34.418 3.48401 35.6879 3.11088 37.2484 2.63008L37.1748 2.39116ZM42.1791 26.3173C42.8005 26.9607 43.7098 26.8943 44.4417 26.6346C44.8117 26.5034 45.1489 26.319 45.4027 26.136C45.5295 26.0445 45.6378 25.9517 45.7195 25.864C45.798 25.7799 45.864 25.6878 45.8866 25.5974L45.6441 25.5368C45.6374 25.5637 45.6077 25.6174 45.5367 25.6935C45.4689 25.7662 45.374 25.8484 45.2564 25.9332C45.0215 26.1027 44.7053 26.2758 44.3581 26.399C43.6557 26.6482 42.8757 26.6787 42.359 26.1436L42.1791 26.3173ZM45.8865 25.5979C45.9095 25.5075 45.8648 25.435 45.8172 25.3906C45.7715 25.3478 45.7089 25.3152 45.6434 25.2891C45.5102 25.2359 45.3225 25.1932 45.108 25.161C44.6764 25.0961 44.1066 25.0695 43.574 25.0998C43.048 25.1297 42.5329 25.2161 42.228 25.3936C42.0739 25.4833 41.9475 25.612 41.9313 25.7912C41.9154 25.9661 42.0097 26.1425 42.1793 26.3175L42.3588 26.1435C42.2076 25.9875 42.1742 25.8801 42.1802 25.8137C42.1859 25.7515 42.2308 25.6813 42.3537 25.6097C42.6029 25.4646 43.0647 25.3791 43.5882 25.3494C44.1052 25.32 44.6576 25.3461 45.0708 25.4082C45.2787 25.4394 45.4441 25.4787 45.5507 25.5213C45.6053 25.543 45.6343 25.5618 45.6465 25.5732C45.6569 25.5829 45.6363 25.5674 45.6442 25.5363L45.8865 25.5979Z" fill="#868686"/>
</g>
<defs>
<filter id="filter0_d_6252_1280" x="0.746094" y="0.359497" width="49.1465" height="32.4619" filterUnits="userSpaceOnUse" color-interpolation-filters="sRGB">
<feFlood flood-opacity="0" result="BackgroundImageFix"/>
<feColorMatrix in="SourceAlpha" type="matrix" values="0 0 0 0 0 0 0 0 0 0 0 0 0 0 0 0 0 0 127 0" result="hardAlpha"/>
<feOffset dy="2"/>
<feGaussianBlur stdDeviation="2"/>
<feColorMatrix type="matrix" values="0 0 0 0 0 0 0 0 0 0 0 0 0 0 0 0 0 0 0.01 0"/>
<feBlend mode="normal" in2="BackgroundImageFix" result="effect1_dropShadow_6252_1280"/>
<feBlend mode="normal" in="SourceGraphic" in2="effect1_dropShadow_6252_1280" result="shape"/>
</filter>
</defs>
</svg>
