<svg width="36" height="33" viewBox="0 0 36 33" fill="none" xmlns="http://www.w3.org/2000/svg">
<g filter="url(#filter0_d_6252_1034)">
<path fill-rule="evenodd" clip-rule="evenodd" d="M22.5063 3.89969L21.9997 2.7887L19.0526 2.88409C17.1216 3.39336 17.1216 4.0039 17.1216 4.61443C17.1216 5.22056 15.2905 6.64417 13.9704 7.0507C12.6517 7.45724 11.2244 10.5055 10.4124 10.9091C9.60036 11.3156 6.85734 10.3015 6.0409 10.2002C5.67085 10.1547 4.99978 10.2971 4.2876 10.4688C4.79567 11.3626 5.85734 12.4252 6.24648 12.4252C6.76189 12.4252 6.93076 16.0326 8.13487 16.5507C9.33898 17.0644 11.5739 18.2649 11.5739 18.9532C11.5739 19.643 12.9513 20.5001 12.9513 21.5318C12.9513 22.5621 14.3111 23.971 15.3551 23.9343C17.5519 23.8624 17.7795 24.7782 17.7795 25.3873C17.7795 25.9949 20.6782 25.3873 21.0555 25.9949C21.408 26.5599 24.2685 26.3457 24.963 26.7228C26.1569 25.5649 27.8661 24.0356 28.4505 23.2534C29.3639 22.0382 28.6047 20.3592 29.3639 19.9028C30.1289 19.4434 31.8059 17.465 31.198 17.3109C30.5842 17.1612 31.0438 15.6364 30.1275 14.722C29.2141 13.8077 31.198 13.3498 31.0423 11.6752C30.8896 9.99918 31.3477 6.64563 30.8896 6.3433C30.4314 6.03363 28.2949 5.88393 26.9263 4.96813C25.5563 4.0538 22.5063 3.89969 22.5063 3.89969Z" fill="white"/>
<path fill-rule="evenodd" clip-rule="evenodd" d="M22.5063 3.89969L21.9997 2.7887L19.0526 2.88409C17.1216 3.39336 17.1216 4.0039 17.1216 4.61443C17.1216 5.22056 15.2905 6.64417 13.9704 7.0507C12.6517 7.45724 11.2244 10.5055 10.4124 10.9091C9.60036 11.3156 6.85734 10.3015 6.0409 10.2002C5.67085 10.1547 4.99978 10.2971 4.2876 10.4688C4.79567 11.3626 5.85734 12.4252 6.24648 12.4252C6.76189 12.4252 6.93076 16.0326 8.13487 16.5507C9.33898 17.0644 11.5739 18.2649 11.5739 18.9532C11.5739 19.643 12.9513 20.5001 12.9513 21.5318C12.9513 22.5621 14.3111 23.971 15.3551 23.9343C17.5519 23.8624 17.7795 24.7782 17.7795 25.3873C17.7795 25.9949 20.6782 25.3873 21.0555 25.9949C21.408 26.5599 24.2685 26.3457 24.963 26.7228C26.1569 25.5649 27.8661 24.0356 28.4505 23.2534C29.3639 22.0382 28.6047 20.3592 29.3639 19.9028C30.1289 19.4434 31.8059 17.465 31.198 17.3109C30.5842 17.1612 31.0438 15.6364 30.1275 14.722C29.2141 13.8077 31.198 13.3498 31.0423 11.6752C30.8896 9.99918 31.3477 6.64563 30.8896 6.3433C30.4314 6.03363 28.2949 5.88393 26.9263 4.96813C25.5563 4.0538 22.5063 3.89969 22.5063 3.89969Z" stroke="#868686" stroke-width="0.25"/>
</g>
<defs>
<filter id="filter0_d_6252_1034" x="0.0966797" y="0.661011" width="35.3564" height="32.2156" filterUnits="userSpaceOnUse" color-interpolation-filters="sRGB">
<feFlood flood-opacity="0" result="BackgroundImageFix"/>
<feColorMatrix in="SourceAlpha" type="matrix" values="0 0 0 0 0 0 0 0 0 0 0 0 0 0 0 0 0 0 127 0" result="hardAlpha"/>
<feOffset dy="2"/>
<feGaussianBlur stdDeviation="2"/>
<feColorMatrix type="matrix" values="0 0 0 0 0 0 0 0 0 0 0 0 0 0 0 0 0 0 0.01 0"/>
<feBlend mode="normal" in2="BackgroundImageFix" result="effect1_dropShadow_6252_1034"/>
<feBlend mode="normal" in="SourceGraphic" in2="effect1_dropShadow_6252_1034" result="shape"/>
</filter>
</defs>
</svg>
